<svg id="Layer_1" data-name="Layer 1" xmlns="http://www.w3.org/2000/svg" viewBox="0 0 1190 261.79"><defs><style>.cls-1{fill:#fff;}.cls-2{fill:#636464;}.cls-3{fill:#939393;}.cls-4{fill:#231f20;}</style></defs><path class="cls-1" d="M603.56,254.21H44.83a12.51,12.51,0,0,1-12.5-12.5V17.8A12.52,12.52,0,0,1,44.83,5.3H603.56a12.52,12.52,0,0,1,12.5,12.5V241.71A12.51,12.51,0,0,1,603.56,254.21ZM44.83,6.3a11.51,11.51,0,0,0-11.5,11.5V241.71a11.51,11.51,0,0,0,11.5,11.5H603.56a11.51,11.51,0,0,0,11.5-11.5V17.8a11.51,11.51,0,0,0-11.5-11.5Z"/><path class="cls-1" d="M1143.56,254.21H657.23a12.51,12.51,0,0,1-12.5-12.5V17.8a12.52,12.52,0,0,1,12.5-12.5h486.33a12.52,12.52,0,0,1,12.5,12.5V241.71A12.51,12.51,0,0,1,1143.56,254.21ZM657.23,6.3a11.51,11.51,0,0,0-11.5,11.5V241.71a11.51,11.51,0,0,0,11.5,11.5h486.33a11.51,11.51,0,0,0,11.5-11.5V17.8a11.51,11.51,0,0,0-11.5-11.5Z"/><circle class="cls-2" cx="55.52" cy="29.07" r="12.13"/><circle class="cls-3" cx="55.52" cy="29.07" r="8.21"/><rect class="cls-2" x="54.53" y="22.37" width="2" height="13.43" transform="translate(-4.3 47.78) rotate(-45)"/><circle class="cls-2" cx="55.52" cy="230.82" r="12.13"/><circle class="cls-3" cx="55.52" cy="230.82" r="8.21"/><rect class="cls-2" x="54.53" y="224.12" width="2" height="13.43" transform="translate(-178.66 191.86) rotate(-67.02)"/><circle class="cls-2" cx="595" cy="29.07" r="12.13"/><circle class="cls-3" cx="595" cy="29.07" r="8.21"/><rect class="cls-2" x="588.28" y="28.08" width="13.43" height="2" transform="translate(238.94 506.66) rotate(-56.09)"/><circle class="cls-2" cx="595" cy="230.82" r="12.13"/><circle class="cls-3" cx="595" cy="230.82" r="8.21"/><rect class="cls-2" x="594" y="224.13" width="2" height="13.43" transform="translate(-6.76 18.24) rotate(-1.75)"/><rect class="cls-2" x="86.31" y="49.13" width="477.89" height="8.23" rx="4.12"/><rect class="cls-2" x="86.31" y="133.81" width="477.89" height="8.23" rx="4.12"/><rect class="cls-2" x="376.75" y="218.49" width="187.45" height="8.23" rx="4.12"/><rect class="cls-2" x="471.16" y="152.84" width="81.76" height="54.86" rx="12"/><rect class="cls-2" x="471.16" y="68.16" width="81.76" height="54.86" rx="12"/><rect class="cls-2" x="94.59" y="68.16" width="81.76" height="54.86" rx="12"/><rect class="cls-2" x="187.91" y="68.16" width="81.76" height="54.86" rx="12"/><rect class="cls-2" x="282.33" y="68.16" width="81.76" height="54.86" rx="12"/><rect class="cls-2" x="376.75" y="68.16" width="81.76" height="54.86" rx="12"/><path class="cls-1" d="M253.63,37a6,6,0,0,1-2.42.41c-3.26,0-5-2-5-4.72a4.81,4.81,0,0,1,5.16-5,5.43,5.43,0,0,1,2.32.42l-.43,1.69a4.64,4.64,0,0,0-1.79-.35,2.84,2.84,0,0,0-3,3.13,2.82,2.82,0,0,0,3,3.08,5.31,5.31,0,0,0,1.78-.31Z"/><path class="cls-1" d="M257.37,34.86l-.68,2.42h-2.21l2.89-9.44h2.8l2.93,9.44h-2.3l-.73-2.42Zm2.39-1.6-.59-2c-.16-.56-.33-1.26-.47-1.82h0c-.14.56-.28,1.27-.43,1.82l-.57,2Z"/><path class="cls-1" d="M266,27.84v5.44c0,1.62.62,2.45,1.71,2.45s1.74-.79,1.74-2.45V27.84h2.13v5.29c0,2.92-1.48,4.31-3.94,4.31s-3.78-1.32-3.78-4.33V27.84Z"/><path class="cls-1" d="M275.23,29.63H272.7V27.84H280v1.79h-2.58v7.65h-2.14Z"/><path class="cls-1" d="M283.22,27.84v9.44h-2.14V27.84Z"/><path class="cls-1" d="M293.71,32.46c0,3.1-1.87,5-4.63,5s-4.44-2.12-4.44-4.81,1.8-4.94,4.59-4.94S293.71,29.86,293.71,32.46Zm-6.82.13c0,1.85.87,3.15,2.3,3.15s2.27-1.37,2.27-3.21-.81-3.15-2.28-3.15S286.89,30.75,286.89,32.59Z"/><path class="cls-1" d="M295.11,37.28V27.84h2.49l2,3.46a27.44,27.44,0,0,1,1.54,3.24h0A35.15,35.15,0,0,1,301,30.6V27.84h2v9.44h-2.25l-2-3.64A35.5,35.5,0,0,1,297,30.31h0c.05,1.25.08,2.58.08,4.12v2.84Z"/><path class="cls-1" d="M309.8,34.86l-.68,2.42h-2.21l2.89-9.44h2.8l2.93,9.44h-2.3l-.73-2.42Zm2.39-1.6-.59-2c-.16-.56-.33-1.26-.47-1.82h0c-.14.56-.28,1.27-.43,1.82l-.57,2Z"/><path class="cls-1" d="M316.78,37.28V27.84h2.49l2,3.46a27.44,27.44,0,0,1,1.54,3.24h0a35.23,35.23,0,0,1-.18-3.94V27.84h2v9.44h-2.24l-2-3.64a35.5,35.5,0,0,1-1.64-3.33h0c0,1.25.08,2.58.08,4.12v2.84Z"/><path class="cls-1" d="M326.44,28a18.62,18.62,0,0,1,2.89-.2,6,6,0,0,1,3.86,1,4.18,4.18,0,0,1,1.6,3.56,4.79,4.79,0,0,1-1.57,3.82,6.76,6.76,0,0,1-4.36,1.22,18.49,18.49,0,0,1-2.42-.14Zm2.14,7.7a4.24,4.24,0,0,0,.75,0c1.93,0,3.19-1.05,3.19-3.3a2.71,2.71,0,0,0-3-3,4.73,4.73,0,0,0-1,.08Z"/><path class="cls-1" d="M340,37.28l-2.24-9.44h2.28l.72,3.89c.21,1.12.4,2.34.56,3.3h0c.15-1,.37-2.16.61-3.32l.8-3.87h2.27l.76,4c.21,1.1.36,2.11.5,3.16h0c.14-1,.35-2.15.55-3.27l.77-3.87h2.17l-2.44,9.44h-2.31l-.8-4.06c-.18-.95-.34-1.84-.45-2.91h0c-.16,1.06-.32,2-.54,2.91l-.9,4.06Z"/><path class="cls-1" d="M352.37,34.86l-.67,2.42h-2.21l2.88-9.44h2.8l2.93,9.44h-2.3l-.73-2.42Zm2.4-1.6-.59-2c-.17-.56-.34-1.26-.48-1.82h0c-.14.56-.28,1.27-.43,1.82l-.56,2Z"/><path class="cls-1" d="M359.36,28a17.55,17.55,0,0,1,2.84-.2,4.82,4.82,0,0,1,3.05.74,2.41,2.41,0,0,1,.87,2,2.49,2.49,0,0,1-1.67,2.32v0a2.37,2.37,0,0,1,1.26,1.77,27,27,0,0,0,.78,2.66H364.3a12,12,0,0,1-.66-2.2c-.25-1.17-.66-1.5-1.53-1.51h-.64v3.71h-2.11ZM361.47,32h.84c1.07,0,1.7-.53,1.7-1.36s-.59-1.3-1.57-1.32a5.14,5.14,0,0,0-1,.07Z"/><path class="cls-1" d="M367.66,37.28V27.84h2.49l2,3.46a27.44,27.44,0,0,1,1.54,3.24h0a35.23,35.23,0,0,1-.18-3.94V27.84h2v9.44h-2.24l-2-3.64a35.44,35.44,0,0,1-1.63-3.33h-.05c.06,1.25.09,2.58.09,4.12v2.84Z"/><path class="cls-1" d="M379.46,27.84v9.44h-2.14V27.84Z"/><path class="cls-1" d="M381.31,37.28V27.84h2.49l2,3.46a27.44,27.44,0,0,1,1.54,3.24h0a35.23,35.23,0,0,1-.18-3.94V27.84h2v9.44h-2.24l-2-3.64a35.44,35.44,0,0,1-1.63-3.33h-.05c.06,1.25.09,2.58.09,4.12v2.84Z"/><path class="cls-1" d="M398.85,36.85a10.69,10.69,0,0,1-3.15.53,5.23,5.23,0,0,1-3.84-1.28,4.56,4.56,0,0,1-1.33-3.43c0-3.13,2.3-4.93,5.39-4.93a6.57,6.57,0,0,1,2.62.46l-.44,1.71a5.35,5.35,0,0,0-2.2-.4,2.86,2.86,0,0,0-3.13,3.05,2.84,2.84,0,0,0,3,3.1,2.92,2.92,0,0,0,1.05-.14v-2h-1.45V31.87h3.51Z"/><path class="cls-1" d="M806.47,136.27v-9.44H809l2,3.46a27.3,27.3,0,0,1,1.54,3.23h0a35.05,35.05,0,0,1-.18-3.93v-2.76h2v9.44h-2.24l-2-3.64a34.5,34.5,0,0,1-1.64-3.34h0c0,1.25.08,2.58.08,4.12v2.85Z"/><path class="cls-1" d="M821.75,132.27h-3.48v2.25h3.88v1.75h-6v-9.44H822v1.75h-3.69v2h3.48Z"/><path class="cls-1" d="M828.58,136.27l-.86-1.71c-.34-.66-.57-1.15-.84-1.7h0c-.2.55-.44,1-.73,1.7l-.79,1.71h-2.43l2.73-4.78L823,126.83h2.46l.82,1.72c.28.57.49,1,.72,1.57h0c.23-.61.41-1,.65-1.57l.8-1.72h2.44l-2.67,4.6,2.8,4.84Z"/><path class="cls-1" d="M834.09,128.62h-2.53v-1.79h7.25v1.79h-2.57v7.65h-2.15Z"/><path class="cls-1" d="M845,133.84l-.67,2.43h-2.21l2.88-9.44h2.8l2.93,9.44h-2.3l-.72-2.43Zm2.4-1.59-.59-2c-.17-.56-.34-1.26-.48-1.82h0c-.14.56-.28,1.28-.43,1.82l-.56,2Z"/><path class="cls-1" d="M858.54,136a6,6,0,0,1-2.42.41c-3.27,0-5-2-5-4.72a4.82,4.82,0,0,1,5.16-5,5.67,5.67,0,0,1,2.32.42l-.43,1.7a4.5,4.5,0,0,0-1.79-.35,3.1,3.1,0,0,0,0,6.2,5.31,5.31,0,0,0,1.78-.31Z"/><path class="cls-1" d="M867.58,137.89a32.8,32.8,0,0,1-3.72-1.33,2.16,2.16,0,0,0-.66-.14c-2.13-.14-4.12-1.71-4.12-4.79,0-2.83,1.8-5,4.61-5s4.47,2.19,4.47,4.76a4.4,4.4,0,0,1-2.24,4.22v.06c.73.21,1.54.38,2.28.53Zm-1.68-6.37c0-1.72-.81-3.15-2.27-3.15s-2.29,1.43-2.29,3.19.85,3.17,2.28,3.17S865.9,133.37,865.9,131.52Z"/><path class="cls-1" d="M871.68,126.83v5.43c0,1.63.62,2.45,1.71,2.45s1.74-.78,1.74-2.45v-5.43h2.13v5.29c0,2.91-1.47,4.3-3.94,4.3s-3.78-1.32-3.78-4.33v-5.26Z"/><path class="cls-1" d="M881.25,126.83v9.44H879.1v-9.44Z"/><path class="cls-1" d="M883.16,134.07a5.54,5.54,0,0,0,2.37.59c1,0,1.5-.41,1.5-1s-.45-.92-1.58-1.33c-1.57-.54-2.6-1.41-2.6-2.79,0-1.61,1.35-2.84,3.58-2.84a5.74,5.74,0,0,1,2.4.48l-.47,1.72a4.53,4.53,0,0,0-2-.45c-.92,0-1.37.42-1.37.91s.53.87,1.75,1.33c1.67.62,2.45,1.49,2.45,2.82,0,1.58-1.21,2.93-3.81,2.93a6.08,6.08,0,0,1-2.67-.58Z"/><path class="cls-1" d="M892.8,126.83v9.44h-2.15v-9.44Z"/><path class="cls-1" d="M896.46,128.62h-2.53v-1.79h7.25v1.79h-2.57v7.65h-2.15Z"/><path class="cls-1" d="M904.46,126.83v9.44h-2.15v-9.44Z"/><path class="cls-1" d="M915,131.45c0,3.09-1.88,5-4.64,5s-4.44-2.11-4.44-4.8,1.81-5,4.59-5S915,128.84,915,131.45Zm-6.83.12c0,1.85.87,3.16,2.3,3.16s2.27-1.38,2.27-3.21-.81-3.15-2.28-3.15S908.12,129.74,908.12,131.57Z"/><path class="cls-1" d="M916.34,136.27v-9.44h2.49l2,3.46a27.3,27.3,0,0,1,1.54,3.23h0a35.05,35.05,0,0,1-.18-3.93v-2.76h2v9.44h-2.24l-2-3.64a34.5,34.5,0,0,1-1.64-3.34h0c0,1.25.08,2.58.08,4.12v2.85Z"/><path class="cls-1" d="M937.47,131.45c0,3.09-1.87,5-4.63,5s-4.44-2.11-4.44-4.8,1.8-5,4.59-5S937.47,128.84,937.47,131.45Zm-6.82.12c0,1.85.87,3.16,2.3,3.16s2.27-1.38,2.27-3.21-.82-3.15-2.29-3.15S930.65,129.74,930.65,131.57Z"/><path class="cls-1" d="M938.87,126.83h5.77v1.75H941v2.15h3.39v1.74H941v3.8h-2.14Z"/><path class="cls-1" d="M949.14,134.07a5.54,5.54,0,0,0,2.37.59c1,0,1.5-.41,1.5-1s-.45-.92-1.58-1.33c-1.57-.54-2.59-1.41-2.59-2.79,0-1.61,1.34-2.84,3.57-2.84a5.83,5.83,0,0,1,2.41.48l-.48,1.72a4.51,4.51,0,0,0-2-.45c-.93,0-1.38.42-1.38.91s.54.87,1.75,1.33c1.67.62,2.46,1.49,2.46,2.82,0,1.58-1.22,2.93-3.82,2.93a6.08,6.08,0,0,1-2.67-.58Z"/><path class="cls-1" d="M958.78,126.83v9.44h-2.15v-9.44Z"/><path class="cls-1" d="M968.51,135.83a10.43,10.43,0,0,1-3.15.53,5.27,5.27,0,0,1-3.84-1.27,4.56,4.56,0,0,1-1.33-3.43c0-3.14,2.3-4.93,5.39-4.93a6.57,6.57,0,0,1,2.62.46l-.45,1.71a5.1,5.1,0,0,0-2.2-.41,3.08,3.08,0,0,0-.15,6.15,2.74,2.74,0,0,0,1.05-.14v-2H965v-1.67h3.52Z"/><path class="cls-1" d="M970.17,136.27v-9.44h2.5l2,3.46a27.3,27.3,0,0,1,1.54,3.23h0a35.05,35.05,0,0,1-.18-3.93v-2.76h2v9.44h-2.24l-2-3.64a34.5,34.5,0,0,1-1.64-3.34h0c.05,1.25.08,2.58.08,4.12v2.85Z"/><path class="cls-1" d="M982,133.84l-.67,2.43h-2.21l2.88-9.44h2.8l2.93,9.44h-2.3l-.73-2.43Zm2.4-1.59-.59-2c-.17-.56-.34-1.26-.48-1.82h0c-.14.56-.28,1.28-.43,1.82l-.56,2Z"/><path class="cls-1" d="M989,126.83h2.14v7.64h3.75v1.8H989Z"/><path class="cls-1" d="M832.2,201.4V192h2.49l2,3.46a27.44,27.44,0,0,1,1.54,3.24h0a35.12,35.12,0,0,1-.18-3.94V192h2v9.44h-2.24l-2-3.64a34.27,34.27,0,0,1-1.63-3.33h0c.06,1.25.09,2.58.09,4.12v2.84Z"/><path class="cls-1" d="M847.47,197.41H844v2.24h3.88v1.75h-6V192h5.82v1.75H844v2h3.47Z"/><path class="cls-1" d="M854.3,201.4l-.85-1.7c-.35-.66-.57-1.15-.84-1.7h0c-.19.55-.43,1-.73,1.7l-.78,1.7h-2.44l2.73-4.77L848.73,192h2.45l.83,1.73c.28.57.49,1,.71,1.57h0c.22-.61.41-1,.64-1.57l.8-1.73h2.44L854,196.57l2.8,4.83Z"/><path class="cls-1" d="M859.82,193.76h-2.54V192h7.26v1.8H862v7.64h-2.14Z"/><path class="cls-1" d="M868.5,192h2.14v7.65h3.76v1.79h-5.9Z"/><path class="cls-1" d="M883.76,196.59c0,3.09-1.87,5-4.63,5s-4.44-2.12-4.44-4.81,1.8-4.94,4.59-4.94S883.76,194,883.76,196.59Zm-6.82.12c0,1.85.87,3.15,2.3,3.15s2.27-1.37,2.27-3.2-.81-3.16-2.29-3.16S876.94,194.88,876.94,196.71Z"/><path class="cls-1" d="M885.23,199.21a5.47,5.47,0,0,0,2.37.58c1,0,1.49-.4,1.49-1s-.44-.92-1.58-1.33c-1.57-.55-2.59-1.41-2.59-2.79,0-1.61,1.34-2.84,3.57-2.84a5.64,5.64,0,0,1,2.41.48l-.48,1.72a4.47,4.47,0,0,0-2-.45c-.92,0-1.37.42-1.37.91s.53.87,1.75,1.33c1.67.62,2.45,1.49,2.45,2.82,0,1.58-1.22,2.92-3.81,2.92a6.29,6.29,0,0,1-2.68-.57Z"/><path class="cls-1" d="M892.79,199.21a5.51,5.51,0,0,0,2.37.58c1,0,1.49-.4,1.49-1s-.44-.92-1.58-1.33c-1.57-.55-2.59-1.41-2.59-2.79,0-1.61,1.35-2.84,3.57-2.84a5.64,5.64,0,0,1,2.41.48L898,194a4.56,4.56,0,0,0-2-.45c-.92,0-1.37.42-1.37.91s.53.87,1.75,1.33c1.66.62,2.45,1.49,2.45,2.82,0,1.58-1.22,2.92-3.81,2.92a6.29,6.29,0,0,1-2.68-.57Z"/><path class="cls-1" d="M911.75,196.59c0,3.09-1.88,5-4.64,5s-4.44-2.12-4.44-4.81,1.81-4.94,4.6-4.94S911.75,194,911.75,196.59Zm-6.82.12c0,1.85.87,3.15,2.29,3.15s2.27-1.37,2.27-3.2-.81-3.16-2.28-3.16S904.93,194.88,904.93,196.71Z"/><path class="cls-1" d="M913.14,192h5.78v1.75h-3.63v2.16h3.39v1.74h-3.39v3.79h-2.15Z"/><path class="cls-1" d="M923.42,199.21a5.55,5.55,0,0,0,2.37.58c1,0,1.5-.4,1.5-1s-.45-.92-1.59-1.33c-1.57-.55-2.59-1.41-2.59-2.79,0-1.61,1.35-2.84,3.57-2.84a5.64,5.64,0,0,1,2.41.48l-.47,1.72a4.53,4.53,0,0,0-2-.45c-.92,0-1.37.42-1.37.91s.53.87,1.75,1.33c1.67.62,2.45,1.49,2.45,2.82,0,1.58-1.22,2.92-3.81,2.92A6.21,6.21,0,0,1,923,201Z"/><path class="cls-1" d="M933.05,192v9.44h-2.14V192Z"/><path class="cls-1" d="M942.79,201a10.76,10.76,0,0,1-3.16.53,5.25,5.25,0,0,1-3.83-1.27,4.54,4.54,0,0,1-1.33-3.43c0-3.14,2.29-4.93,5.39-4.93a6.4,6.4,0,0,1,2.62.46L942,194a5.13,5.13,0,0,0-2.2-.41,3.08,3.08,0,0,0-.15,6.15,3,3,0,0,0,1.05-.14v-2h-1.46V196h3.52Z"/><path class="cls-1" d="M944.45,201.4V192h2.49l2,3.46a27.44,27.44,0,0,1,1.54,3.24h0a32.82,32.82,0,0,1-.19-3.94V192h2v9.44H950l-2-3.64a34.32,34.32,0,0,1-1.64-3.33h0c0,1.25.08,2.58.08,4.12v2.84Z"/><path class="cls-1" d="M956.31,199l-.68,2.42h-2.21l2.89-9.44h2.8L962,201.4h-2.3L959,199Zm2.39-1.6-.59-2c-.16-.56-.33-1.26-.47-1.82h0c-.14.56-.28,1.28-.43,1.82l-.56,2Z"/><path class="cls-1" d="M963.29,192h2.14v7.65h3.76v1.79h-5.9Z"/><path class="cls-4" d="M121,91.43h5.78v1.75h-3.63v2.16h3.39v1.74h-3.39v3.79H121Z"/><path class="cls-4" d="M130.55,91.43v9.44H128.4V91.43Z"/><path class="cls-4" d="M132.39,91.56a19,19,0,0,1,2.85-.2,4.82,4.82,0,0,1,3,.74,2.41,2.41,0,0,1,.87,2,2.5,2.5,0,0,1-1.67,2.32v0a2.36,2.36,0,0,1,1.26,1.76c.3,1.07.59,2.3.77,2.66h-2.18a11,11,0,0,1-.66-2.2c-.25-1.17-.66-1.5-1.53-1.51h-.64v3.71h-2.12Zm2.12,4.06h.84c1.06,0,1.69-.53,1.69-1.36s-.59-1.3-1.57-1.32a6.19,6.19,0,0,0-1,.07Z"/><path class="cls-4" d="M146.31,96.88h-3.47v2.24h3.88v1.75h-6V91.43h5.83v1.75h-3.68v2h3.47Z"/><path class="cls-4" d="M220.41,99.81l3-8.38H226l3,8.36v1.08h-8.59Zm6.14-.69-1.33-4c-.2-.62-.44-1.44-.58-2h0c-.12.45-.33,1.28-.52,1.9l-1.35,4.07Z"/><path class="cls-4" d="M230.18,91.56a17.72,17.72,0,0,1,2.89-.2,4.5,4.5,0,0,1,2.89.76,2.75,2.75,0,0,1,1,2.18,3,3,0,0,1-.86,2.24,4.37,4.37,0,0,1-3.07,1,7.27,7.27,0,0,1-.73,0v3.37h-2.12Zm2.12,4.28a2.79,2.79,0,0,0,.71.06c1.14,0,1.84-.57,1.84-1.54s-.6-1.39-1.67-1.39a3.17,3.17,0,0,0-.88.09Z"/><path class="cls-4" d="M312.59,98.45l-.67,2.42h-2.21l2.88-9.44h2.8l2.93,9.44H316l-.72-2.42Zm2.4-1.6-.59-2c-.17-.56-.34-1.26-.48-1.82h0c-.14.56-.28,1.27-.43,1.82l-.56,2Z"/><path class="cls-4" d="M320.24,93.22H317.7V91.43H325v1.79h-2.58v7.65h-2.14Z"/><path class="cls-4" d="M334,97.26c0-1.14-.09-2.51-.09-3.88h0c-.29,1.2-.69,2.55-1.05,3.65l-1.15,3.69H330l-1-3.66c-.3-1.1-.63-2.45-.85-3.68h0c-.05,1.27-.1,2.73-.17,3.91l-.16,3.58h-2l.6-9.44h2.85l.92,3.15c.3,1.09.59,2.27.8,3.38h0c.27-1.09.59-2.34.9-3.39l1-3.14h2.78l.52,9.44h-2.08Z"/><path class="cls-4" d="M389.07,100.87l-2.24-9.44h2.28l.71,3.9c.22,1.12.41,2.33.57,3.29h0c.16-1,.38-2.16.62-3.32l.8-3.87h2.27l.75,4c.21,1.11.37,2.11.51,3.17h0c.14-1.06.35-2.16.54-3.28l.77-3.87h2.17l-2.43,9.44h-2.32l-.79-4.06c-.19-1-.34-1.84-.45-2.91h0c-.17,1.06-.32,2-.55,2.91l-.89,4.06Z"/><path class="cls-4" d="M401.42,98.45l-.68,2.42h-2.21l2.89-9.44h2.8l2.93,9.44h-2.3l-.73-2.42Zm2.39-1.6-.59-2c-.16-.56-.33-1.26-.47-1.82h0c-.14.56-.28,1.27-.43,1.82l-.57,2Z"/><path class="cls-4" d="M408.4,91.56a19,19,0,0,1,2.85-.2,4.82,4.82,0,0,1,3.05.74,2.41,2.41,0,0,1,.87,2,2.5,2.5,0,0,1-1.67,2.32v0a2.36,2.36,0,0,1,1.26,1.76c.3,1.07.59,2.3.77,2.66h-2.18a11,11,0,0,1-.66-2.2c-.25-1.17-.66-1.5-1.53-1.51h-.64v3.71H408.4Zm2.12,4.06h.84c1.06,0,1.69-.53,1.69-1.36s-.59-1.3-1.57-1.32a6.06,6.06,0,0,0-1,.07Z"/><path class="cls-4" d="M416.7,100.87V91.43h2.5l2,3.46a27.44,27.44,0,0,1,1.54,3.24h0a35.12,35.12,0,0,1-.18-3.94V91.43h2v9.44h-2.24l-2-3.64a35.5,35.5,0,0,1-1.64-3.33h0c.06,1.25.08,2.58.08,4.12v2.84Z"/><path class="cls-4" d="M428.51,91.43v9.44h-2.15V91.43Z"/><path class="cls-4" d="M430.35,100.87V91.43h2.5l2,3.46a27.44,27.44,0,0,1,1.54,3.24h0a35.12,35.12,0,0,1-.18-3.94V91.43h2v9.44h-2.24l-2-3.64a35.5,35.5,0,0,1-1.64-3.33h0c.06,1.25.08,2.58.08,4.12v2.84Z"/><path class="cls-4" d="M447.9,100.44a10.75,10.75,0,0,1-3.15.53,5.26,5.26,0,0,1-3.84-1.27,4.56,4.56,0,0,1-1.33-3.44c0-3.13,2.3-4.93,5.39-4.93a6.36,6.36,0,0,1,2.62.47l-.45,1.7a5.31,5.31,0,0,0-2.2-.4,3.08,3.08,0,0,0-.15,6.15,3,3,0,0,0,1-.14v-2h-1.46V95.47h3.52Z"/><path class="cls-4" d="M490.87,100.61a6.29,6.29,0,0,1-2.43.4c-3.26,0-4.94-2-4.94-4.72a4.81,4.81,0,0,1,5.15-5,5.52,5.52,0,0,1,2.33.42l-.44,1.69a4.6,4.6,0,0,0-1.79-.35,3.11,3.11,0,0,0,0,6.21,5.25,5.25,0,0,0,1.77-.31Z"/><path class="cls-4" d="M494.6,98.45l-.67,2.42h-2.21l2.88-9.44h2.8l2.93,9.44H498l-.72-2.42Zm2.4-1.6-.59-2c-.17-.56-.34-1.26-.48-1.82h0c-.14.56-.28,1.27-.43,1.82l-.56,2Z"/><path class="cls-4" d="M503.23,91.43v5.44c0,1.62.61,2.45,1.7,2.45s1.74-.79,1.74-2.45V91.43h2.13v5.3c0,2.91-1.47,4.3-3.94,4.3s-3.78-1.32-3.78-4.33V91.43Z"/><path class="cls-4" d="M512.47,93.22h-2.54V91.43h7.26v1.79h-2.58v7.65h-2.14Z"/><path class="cls-4" d="M520.46,91.43v9.44h-2.14V91.43Z"/><path class="cls-4" d="M531,96.05c0,3.1-1.88,5-4.64,5s-4.44-2.12-4.44-4.81,1.81-4.94,4.6-4.94S531,93.45,531,96.05Zm-6.82.13c0,1.85.87,3.15,2.29,3.15s2.27-1.37,2.27-3.21S527.88,93,526.41,93,524.13,94.34,524.13,96.18Z"/><path class="cls-4" d="M532.34,100.87V91.43h2.5l2,3.46a27.44,27.44,0,0,1,1.54,3.24h0a35.12,35.12,0,0,1-.18-3.94V91.43h2v9.44h-2.24l-2-3.64c-.56-1-1.17-2.23-1.64-3.33h0c.06,1.25.09,2.58.09,4.12v2.84Z"/><path class="cls-4" d="M499.6,178h-2.54v-1.79h7.26V178h-2.58v7.65H499.6Z"/><path class="cls-4" d="M511.07,181.62h-3.48v2.24h3.88v1.75h-6v-9.44h5.83v1.75h-3.69v2h3.48Z"/><path class="cls-4" d="M513,183.41a5.32,5.32,0,0,0,2.36.59c1,0,1.5-.4,1.5-1s-.45-.93-1.58-1.33c-1.57-.55-2.59-1.42-2.59-2.79,0-1.61,1.34-2.84,3.57-2.84a5.85,5.85,0,0,1,2.41.47l-.48,1.73a4.37,4.37,0,0,0-2-.45c-.93,0-1.37.42-1.37.91s.53.87,1.75,1.33c1.66.62,2.45,1.48,2.45,2.82,0,1.58-1.22,2.92-3.81,2.92a6.26,6.26,0,0,1-2.68-.57Z"/><path class="cls-4" d="M522.31,178h-2.54v-1.79H527V178h-2.58v7.65h-2.14Z"/><rect class="cls-2" x="672.53" y="29.08" width="210.07" height="71.94" rx="12"/><rect class="cls-2" x="915.82" y="29.08" width="212.44" height="71.94" rx="12"/><path class="cls-4" d="M751.6,69.82l-1.72,6.23h-5.69l7.41-24.26h7.2l7.53,24.26h-5.91l-1.87-6.23Zm6.16-4.1-1.51-5.15c-.43-1.44-.87-3.24-1.23-4.68H755c-.36,1.44-.72,3.28-1.11,4.68l-1.44,5.15Z"/><path class="cls-4" d="M790.88,63.67c0,8-4.83,12.78-11.92,12.78S767.55,71,767.55,64.1c0-7.27,4.65-12.71,11.81-12.71C786.81,51.39,790.88,57,790.88,63.67ZM773.35,64c0,4.75,2.23,8.1,5.9,8.1s5.83-3.53,5.83-8.24c0-4.36-2.08-8.1-5.86-8.1S773.35,59.28,773.35,64Z"/><path class="cls-4" d="M794.66,70.4a14.08,14.08,0,0,0,6.08,1.51c2.52,0,3.85-1,3.85-2.63s-1.15-2.37-4.06-3.42c-4-1.4-6.66-3.63-6.66-7.16,0-4.14,3.45-7.31,9.18-7.31a14.83,14.83,0,0,1,6.19,1.23L808,57a11.64,11.64,0,0,0-5.07-1.15c-2.38,0-3.53,1.08-3.53,2.34,0,1.55,1.37,2.23,4.5,3.42,4.28,1.59,6.3,3.82,6.3,7.24,0,4.06-3.13,7.52-9.79,7.52a15.85,15.85,0,0,1-6.88-1.48Z"/><path class="cls-4" d="M992.89,52.58h5.51V72.23H1008v4.61H992.89Z"/><path class="cls-4" d="M1032.13,64.45c0,8-4.83,12.78-11.92,12.78s-11.41-5.43-11.41-12.34c0-7.28,4.65-12.71,11.81-12.71C1028.06,52.18,1032.13,57.76,1032.13,64.45Zm-17.53.33c0,4.75,2.23,8.1,5.9,8.1s5.83-3.53,5.83-8.25c0-4.35-2.09-8.1-5.87-8.1S1014.6,60.06,1014.6,64.78Z"/><path class="cls-4" d="M1035.91,71.18A13.9,13.9,0,0,0,1042,72.7c2.52,0,3.85-1,3.85-2.63s-1.15-2.38-4.06-3.42c-4-1.4-6.66-3.64-6.66-7.16,0-4.14,3.45-7.31,9.18-7.31a15,15,0,0,1,6.19,1.22l-1.23,4.43a11.5,11.5,0,0,0-5.07-1.15c-2.38,0-3.53,1.08-3.53,2.34,0,1.55,1.37,2.23,4.5,3.42,4.28,1.58,6.3,3.81,6.3,7.23,0,4.07-3.13,7.53-9.79,7.53a15.85,15.85,0,0,1-6.88-1.48Z"/></svg>