<svg id="Layer_1" data-name="Layer 1" xmlns="http://www.w3.org/2000/svg" viewBox="0 0 1190 261.79"><defs><style>.cls-1,.cls-4{fill:none;stroke-miterlimit:10;}.cls-1{stroke:#fff;}.cls-2{fill:#636464;}.cls-3{fill:#939393;}.cls-4{stroke:#636464;stroke-width:2px;}.cls-15,.cls-16,.cls-5{font-size:14px;}.cls-5{fill:#fff;}.cls-15,.cls-16,.cls-19,.cls-21,.cls-5{font-family:MyriadPro-Bold, Myriad Pro;font-weight:700;}.cls-6{letter-spacing:0.01em;}.cls-7{letter-spacing:-0.04em;}.cls-8{letter-spacing:-0.04em;}.cls-9{letter-spacing:-0.05em;}.cls-10{letter-spacing:0.01em;}.cls-11{letter-spacing:-0.03em;}.cls-12{letter-spacing:-0.03em;}.cls-13{letter-spacing:0em;}.cls-14{letter-spacing:-0.04em;}.cls-15,.cls-16,.cls-19,.cls-21{fill:#231f20;}.cls-16{letter-spacing:-0.08em;}.cls-17{letter-spacing:0em;}.cls-18{letter-spacing:0em;}.cls-19,.cls-21{font-size:36px;}.cls-20{letter-spacing:-0.02em;}.cls-21{letter-spacing:-0.04em;}.cls-22{letter-spacing:0em;}</style></defs><rect class="cls-1" x="32.84" y="5.8" width="582.73" height="247.91" rx="12"/><rect class="cls-1" x="645.23" y="5.8" width="510.33" height="247.91" rx="12"/><circle class="cls-2" cx="55.52" cy="29.07" r="12.13"/><circle class="cls-3" cx="55.52" cy="29.07" r="8.21"/><line class="cls-4" x1="50.78" y1="24.33" x2="60.28" y2="33.83"/><circle class="cls-2" cx="55.52" cy="230.82" r="12.13"/><circle class="cls-3" cx="55.52" cy="230.82" r="8.21"/><line class="cls-4" x1="49.35" y1="228.21" x2="61.72" y2="233.45"/><circle class="cls-2" cx="595" cy="29.07" r="12.13"/><circle class="cls-3" cx="595" cy="29.07" r="8.21"/><line class="cls-4" x1="598.74" y1="23.51" x2="591.24" y2="34.65"/><circle class="cls-2" cx="595" cy="230.82" r="12.13"/><circle class="cls-3" cx="595" cy="230.82" r="8.21"/><line class="cls-4" x1="594.8" y1="224.13" x2="595.21" y2="237.55"/><rect class="cls-2" x="86.31" y="49.13" width="477.89" height="8.23" rx="4.12"/><rect class="cls-2" x="86.31" y="133.81" width="477.89" height="8.23" rx="4.12"/><rect class="cls-2" x="376.75" y="218.49" width="187.45" height="8.23" rx="4.12"/><rect class="cls-2" x="471.16" y="152.84" width="81.76" height="54.86" rx="12"/><rect class="cls-2" x="471.16" y="68.16" width="81.76" height="54.86" rx="12"/><rect class="cls-2" x="94.59" y="68.16" width="81.76" height="54.86" rx="12"/><rect class="cls-2" x="187.91" y="68.16" width="81.76" height="54.86" rx="12"/><rect class="cls-2" x="282.33" y="68.16" width="81.76" height="54.86" rx="12"/><rect class="cls-2" x="376.75" y="68.16" width="81.76" height="54.86" rx="12"/><text class="cls-5" transform="translate(245.77 37.28)"><tspan class="cls-6">C</tspan><tspan class="cls-7" x="8.47" y="0">A</tspan><tspan x="17.16" y="0">UTION AND</tspan><tspan class="cls-8" x="89.49" y="0"> </tspan><tspan class="cls-9" x="91.8" y="0">W</tspan><tspan x="103.47" y="0">ARNING</tspan></text><text class="cls-5" transform="translate(805.55 136.27)">NE<tspan class="cls-10" x="17.14" y="0">X</tspan><tspan x="25.8" y="0">T </tspan><tspan class="cls-11" x="36.3" y="0">A</tspan><tspan class="cls-12" x="45.14" y="0">C</tspan><tspan class="cls-13" x="53.05" y="0">QUISITION OF SIGNAL</tspan></text><text class="cls-5" transform="translate(831.27 201.4)">NE<tspan class="cls-10" x="17.14" y="0">X</tspan><tspan x="25.8" y="0">T </tspan><tspan class="cls-14" x="36.3" y="0">L</tspan><tspan x="42.92" y="0">OSS OF SIGNAL</tspan></text><text class="cls-15" transform="translate(120.1 100.87)">FIRE</text><text class="cls-15" transform="translate(220.19 100.87)">ΔP</text><text class="cls-16" transform="translate(309.47 100.87)">A<tspan class="cls-17" x="8.02" y="0">T</tspan><tspan class="cls-18" x="15.64" y="0">M</tspan></text><text class="cls-15" transform="translate(386.62 100.87)"><tspan class="cls-9">W</tspan><tspan x="11.68" y="0">ARNING</tspan></text><text class="cls-15" transform="translate(483.01 100.87)"><tspan class="cls-6">C</tspan><tspan class="cls-7" x="8.47" y="0">A</tspan><tspan x="17.16" y="0">UTION</tspan></text><text class="cls-15" transform="translate(496.85 185.61)">TEST</text><rect class="cls-2" x="672.53" y="29.08" width="210.07" height="71.94" rx="12"/><rect class="cls-2" x="915.82" y="29.08" width="212.44" height="71.94" rx="12"/><text class="cls-19" transform="translate(743.58 76.05)"><tspan class="cls-20">A</tspan><tspan x="22.72" y="0">OS</tspan></text><text class="cls-21" transform="translate(990.51 76.84)">L<tspan class="cls-22" x="17.03" y="0">OS</tspan></text></svg>