<svg xmlns="http://www.w3.org/2000/svg" viewBox="0 0 1190 700"><defs><style>.cls-1,.cls-9{fill:#434343;}.cls-1{stroke:#231f20;}.cls-1,.cls-2,.cls-24,.cls-25,.cls-26,.cls-6,.cls-8,.cls-9{stroke-miterlimit:10;}.cls-2,.cls-24,.cls-26,.cls-6,.cls-8{fill:none;}.cls-2,.cls-24,.cls-26,.cls-8,.cls-9{stroke:#fff;}.cls-2{stroke-width:12px;}.cls-3{font-size:14px;font-family:MyriadPro-Bold, Myriad Pro;font-weight:700;}.cls-10,.cls-25,.cls-3,.cls-7{fill:#fff;}.cls-4{letter-spacing:-0.08em;}.cls-5{letter-spacing:0em;}.cls-6{stroke:#ddd;}.cls-26,.cls-6{stroke-width:5px;}.cls-8{stroke-width:4px;}.cls-24,.cls-9{stroke-width:3px;}.cls-10{font-size:13px;font-family:MyriadPro-Regular, Myriad Pro;}.cls-11{letter-spacing:0.01em;}.cls-12{letter-spacing:-0.06em;}.cls-13{letter-spacing:-0.08em;}.cls-14{letter-spacing:0em;}.cls-15{letter-spacing:0em;}.cls-16{letter-spacing:0em;}.cls-17{letter-spacing:-0.06em;}.cls-18{letter-spacing:0em;}.cls-19{letter-spacing:0em;}.cls-20{letter-spacing:0em;}.cls-21{letter-spacing:0.01em;}.cls-22{letter-spacing:0.03em;}.cls-23{letter-spacing:-0.01em;}.cls-25{stroke:#434343;stroke-width:2px;}</style></defs><g id="Layer_1" data-name="Layer 1"><rect class="cls-1" x="-1.59" y="-7.19" width="1203.33" height="713.33"/></g><g id="Layer_2" data-name="Layer 2"><line class="cls-2" x1="579.37" y1="307.66" x2="579.37" y2="265.23"/><text class="cls-3" transform="translate(102.6 48.68)">TDRS S<tspan class="cls-4" x="43.67" y="0">A</tspan><tspan class="cls-5" x="51.69" y="0">TELLITE</tspan></text><line class="cls-6" x1="163.84" y1="75.91" x2="152.74" y2="119.8"/><line class="cls-6" x1="141.64" y1="163.69" x2="152.74" y2="119.8"/><line class="cls-6" x1="120.59" y1="103.31" x2="152.75" y2="119.8"/><line class="cls-6" x1="116.73" y1="120.97" x2="152.75" y2="119.8"/><line class="cls-6" x1="188.81" y1="118.44" x2="152.7" y2="120"/><line class="cls-6" x1="184.94" y1="136.09" x2="152.7" y2="120"/><rect class="cls-7" x="41.11" y="88.83" width="84.73" height="26.9" transform="translate(27.62 -17.34) rotate(14.19)"/><rect class="cls-7" x="181.37" y="124.3" width="84.73" height="26.9" transform="translate(40.6 -50.65) rotate(14.19)"/><rect class="cls-7" x="139.29" y="106.35" width="26.9" height="26.9" transform="translate(34.03 -33.79) rotate(14.19)"/><circle class="cls-7" cx="163.84" cy="75.91" r="16.97"/><circle class="cls-7" cx="141.64" cy="163.69" r="16.97"/><path class="cls-8" d="M191.1,210a54.87,54.87,0,0,1-74.8,20.83"/><path class="cls-8" d="M177.93,200.86a38.33,38.33,0,0,1-52.26,14.55"/><path class="cls-8" d="M163.82,195.21a20.8,20.8,0,0,1-28.36,7.9"/><path class="cls-8" d="M154.75,501.91a61.9,61.9,0,0,1,80.07,35.49"/><path class="cls-8" d="M159.67,519.31a43.23,43.23,0,0,1,55.94,24.79"/><path class="cls-8" d="M167.91,534.34a23.46,23.46,0,0,1,30.35,13.45"/><rect class="cls-9" x="851.94" y="534.32" width="233.24" height="96.13" rx="12"/><path class="cls-7" d="M884.58,581.56a6.73,6.73,0,0,1-2.7.46c-3.65,0-5.52-2.27-5.52-5.27,0-3.6,2.56-5.6,5.75-5.6a6.23,6.23,0,0,1,2.6.47l-.49,1.89a5.2,5.2,0,0,0-2-.39,3.47,3.47,0,0,0,0,6.93,5.85,5.85,0,0,0,2-.35Z"/><path class="cls-7" d="M895.33,576.48c0,3.46-2.1,5.55-5.18,5.55s-5-2.36-5-5.36c0-3.16,2-5.52,5.13-5.52S895.33,573.57,895.33,576.48Zm-7.62.14c0,2.07,1,3.52,2.56,3.52s2.54-1.53,2.54-3.58c0-1.89-.91-3.52-2.55-3.52S887.71,574.57,887.71,576.62Z"/><path class="cls-7" d="M905.8,577.83c0-1.27-.09-2.8-.09-4.34h-.05c-.33,1.35-.77,2.85-1.17,4.09l-1.28,4.11h-1.87l-1.12-4.08c-.35-1.24-.71-2.74-1-4.12h0c-.06,1.43-.11,3-.19,4.37l-.18,4h-2.21l.67-10.54h3.18l1,3.52c.33,1.22.66,2.53.89,3.77h.05c.3-1.22.66-2.61,1-3.79l1.13-3.5h3.11l.58,10.54H906Z"/><path class="cls-7" d="M919,577.83c0-1.27-.09-2.8-.09-4.34h-.05c-.33,1.35-.77,2.85-1.17,4.09l-1.29,4.11h-1.86l-1.12-4.08c-.35-1.24-.71-2.74-1-4.12h0c-.06,1.43-.11,3-.19,4.37l-.18,4h-2.21l.67-10.54h3.18l1,3.52c.33,1.22.66,2.53.89,3.77h.05c.3-1.22.66-2.61,1-3.79l1.13-3.5h3.11l.58,10.54h-2.33Z"/><path class="cls-7" d="M925.75,579.16l-.75,2.7h-2.47l3.22-10.54h3.13l3.27,10.54h-2.57l-.81-2.7Zm2.68-1.79-.66-2.23c-.19-.63-.38-1.41-.53-2h0c-.16.63-.32,1.43-.49,2l-.62,2.23Z"/><path class="cls-7" d="M933.55,581.86V571.32h2.79l2.19,3.86a31.56,31.56,0,0,1,1.72,3.62h0a38.41,38.41,0,0,1-.21-4.4v-3.08h2.19v10.54h-2.5l-2.25-4.06a36.87,36.87,0,0,1-1.83-3.73l-.05,0c.06,1.39.09,2.88.09,4.6v3.17Z"/><path class="cls-7" d="M944.34,571.46a21.47,21.47,0,0,1,3.23-.22,6.73,6.73,0,0,1,4.31,1.13,4.65,4.65,0,0,1,1.79,4,5.34,5.34,0,0,1-1.76,4.27,7.58,7.58,0,0,1-4.86,1.36,22.63,22.63,0,0,1-2.71-.15Zm2.4,8.6a4.1,4.1,0,0,0,.83.05c2.15,0,3.56-1.17,3.56-3.69a3,3,0,0,0-3.31-3.35,4.59,4.59,0,0,0-1.08.1Z"/><path class="cls-7" d="M960.84,579.16l-.75,2.7h-2.47l3.22-10.54H964l3.27,10.54h-2.57l-.81-2.7Zm2.68-1.79-.66-2.23c-.19-.63-.38-1.41-.53-2h0c-.16.63-.32,1.43-.49,2l-.62,2.23Z"/><path class="cls-7" d="M968.64,581.86V571.32h2.79l2.19,3.86a31.56,31.56,0,0,1,1.72,3.62h0a40.92,40.92,0,0,1-.2-4.4v-3.08h2.19v10.54h-2.5l-2.25-4.06a36.87,36.87,0,0,1-1.83-3.73l0,0c.06,1.39.09,2.88.09,4.6v3.17Z"/><path class="cls-7" d="M979.43,571.46a21.47,21.47,0,0,1,3.23-.22,6.73,6.73,0,0,1,4.31,1.13,4.64,4.64,0,0,1,1.78,4,5.33,5.33,0,0,1-1.75,4.27,7.58,7.58,0,0,1-4.86,1.36,22.63,22.63,0,0,1-2.71-.15Zm2.4,8.6a4.1,4.1,0,0,0,.83.05c2.15,0,3.56-1.17,3.56-3.69a3,3,0,0,0-3.31-3.35,4.59,4.59,0,0,0-1.08.1Z"/><path class="cls-7" d="M1001.22,581.56a6.79,6.79,0,0,1-2.71.46c-3.64,0-5.52-2.27-5.52-5.27,0-3.6,2.57-5.6,5.76-5.6a6.17,6.17,0,0,1,2.59.47l-.48,1.89a5.24,5.24,0,0,0-2-.39,3.47,3.47,0,0,0,0,6.93,5.91,5.91,0,0,0,2-.35Z"/><path class="cls-7" d="M1012,576.48c0,3.46-2.1,5.55-5.18,5.55s-4.95-2.36-4.95-5.36c0-3.16,2-5.52,5.13-5.52S1012,573.57,1012,576.48Zm-7.62.14c0,2.07,1,3.52,2.57,3.52s2.53-1.53,2.53-3.58c0-1.89-.91-3.52-2.55-3.52S1004.34,574.57,1004.34,576.62Z"/><path class="cls-7" d="M1013.52,581.86V571.32h2.79l2.19,3.86a31.56,31.56,0,0,1,1.72,3.62h0a40.92,40.92,0,0,1-.2-4.4v-3.08h2.19v10.54h-2.5l-2.26-4.06c-.62-1.13-1.31-2.49-1.83-3.73l0,0c.06,1.39.09,2.88.09,4.6v3.17Z"/><path class="cls-7" d="M1026.34,573.32h-2.83v-2h8.1v2h-2.87v8.54h-2.4Z"/><path class="cls-7" d="M1032.88,571.46a21.66,21.66,0,0,1,3.17-.22,5.4,5.4,0,0,1,3.41.83,2.67,2.67,0,0,1,1,2.21,2.79,2.79,0,0,1-1.86,2.59v0a2.66,2.66,0,0,1,1.41,2c.33,1.19.66,2.57.86,3h-2.44a13.19,13.19,0,0,1-.73-2.45c-.29-1.32-.74-1.68-1.71-1.69h-.72v4.14h-2.36Zm2.36,4.54h.94c1.19,0,1.89-.6,1.89-1.52s-.65-1.45-1.75-1.47a6,6,0,0,0-1.08.08Z"/><path class="cls-7" d="M1051.74,576.48c0,3.46-2.1,5.55-5.18,5.55s-5-2.36-5-5.36c0-3.16,2-5.52,5.13-5.52S1051.74,573.57,1051.74,576.48Zm-7.62.14c0,2.07,1,3.52,2.57,3.52s2.53-1.53,2.53-3.58c0-1.89-.91-3.52-2.55-3.52S1044.12,574.57,1044.12,576.62Z"/><path class="cls-7" d="M1053.3,571.32h2.39v8.54h4.2v2h-6.59Z"/><path class="cls-7" d="M933,600.33a6.83,6.83,0,0,1-2.71.45c-3.64,0-5.52-2.26-5.52-5.27,0-3.59,2.57-5.6,5.76-5.6a6.17,6.17,0,0,1,2.59.47l-.48,1.89a5.24,5.24,0,0,0-2-.39,3.47,3.47,0,0,0,0,6.93,5.93,5.93,0,0,0,2-.34Z"/><path class="cls-7" d="M943.72,595.25c0,3.45-2.1,5.55-5.18,5.55s-4.95-2.36-4.95-5.37,2-5.52,5.13-5.52S943.72,592.34,943.72,595.25Zm-7.62.14c0,2.06,1,3.52,2.57,3.52s2.53-1.54,2.53-3.59c0-1.89-.91-3.51-2.55-3.51S936.1,593.34,936.1,595.39Z"/><path class="cls-7" d="M954.2,596.59c-.05-1.27-.1-2.8-.1-4.33h0c-.33,1.34-.77,2.85-1.18,4.08l-1.28,4.12h-1.86l-1.13-4.09c-.34-1.23-.7-2.73-1-4.11h0c-.06,1.42-.11,3-.19,4.36l-.19,4h-2.2l.67-10.55h3.18l1,3.52c.33,1.22.65,2.54.89,3.77h0c.29-1.22.65-2.61,1-3.78l1.12-3.51h3.12l.57,10.55h-2.33Z"/><path class="cls-7" d="M958.51,590.23a19,19,0,0,1,3.22-.22,5.06,5.06,0,0,1,3.22.84,3.06,3.06,0,0,1,1.13,2.44,3.34,3.34,0,0,1-1,2.5,4.86,4.86,0,0,1-3.42,1.11,6.4,6.4,0,0,1-.82,0v3.77h-2.36Zm2.36,4.78a3.56,3.56,0,0,0,.8.06c1.27,0,2.05-.64,2.05-1.72s-.67-1.54-1.86-1.54a4,4,0,0,0-1,.09Z"/><path class="cls-7" d="M970,590.08v6.07c0,1.82.69,2.74,1.91,2.74s1.94-.88,1.94-2.74v-6.07h2.38V596c0,3.25-1.64,4.8-4.4,4.8s-4.22-1.47-4.22-4.83v-5.89Z"/><path class="cls-7" d="M980.29,592.09h-2.83v-2h8.1v2h-2.87v8.54h-2.4Z"/><path class="cls-7" d="M993.1,596.17h-3.88v2.5h4.33v2h-6.72V590.08h6.51v2h-4.12v2.19h3.88Z"/><path class="cls-7" d="M995.18,590.23a20.34,20.34,0,0,1,3.17-.22,5.33,5.33,0,0,1,3.41.83,2.65,2.65,0,0,1,1,2.2,2.79,2.79,0,0,1-1.86,2.6v0a2.68,2.68,0,0,1,1.41,2c.33,1.18.66,2.56.86,3h-2.44a14,14,0,0,1-.74-2.46c-.28-1.31-.73-1.67-1.7-1.69h-.72v4.15h-2.36Zm2.36,4.53h.94c1.19,0,1.89-.59,1.89-1.52s-.66-1.45-1.75-1.47a6,6,0,0,0-1.08.08Z"/><path class="cls-7" d="M1004.53,598.17a6.06,6.06,0,0,0,2.64.66c1.1,0,1.68-.45,1.68-1.14s-.5-1-1.77-1.49c-1.75-.61-2.89-1.58-2.89-3.11,0-1.8,1.5-3.18,4-3.18a6.29,6.29,0,0,1,2.69.54l-.53,1.92a5,5,0,0,0-2.2-.5c-1,0-1.54.47-1.54,1s.6,1,2,1.49c1.86.69,2.74,1.66,2.74,3.14,0,1.77-1.36,3.27-4.26,3.27a6.93,6.93,0,0,1-3-.64Z"/><rect class="cls-9" x="851.94" y="145.25" width="233.24" height="96.13" rx="12"/><path class="cls-7" d="M930.32,188.34h-3.88v2.5h4.33v1.95h-6.72V182.25h6.5v2h-4.11v2.19h3.88Z"/><path class="cls-7" d="M938,192.79l-1-1.9c-.4-.74-.65-1.29-.94-1.9h0c-.22.61-.49,1.16-.82,1.9l-.87,1.9h-2.72l3-5.33-2.95-5.21h2.74l.92,1.93c.32.64.55,1.15.8,1.75h0c.25-.67.46-1.14.72-1.75l.89-1.93h2.73l-3,5.15,3.13,5.39Z"/><path class="cls-7" d="M942,182.39a20.14,20.14,0,0,1,3.22-.22,5.11,5.11,0,0,1,3.23.85,3.09,3.09,0,0,1,1.12,2.44,3.34,3.34,0,0,1-1,2.5,6,6,0,0,1-4.24,1.06v3.77H942Zm2.36,4.79a3.56,3.56,0,0,0,.8.06c1.27,0,2.05-.64,2.05-1.72s-.67-1.55-1.86-1.55a3.88,3.88,0,0,0-1,.1Z"/><path class="cls-7" d="M957.34,188.34h-3.88v2.5h4.33v1.95h-6.72V182.25h6.5v2h-4.11v2.19h3.88Z"/><path class="cls-7" d="M959.42,182.39a21.55,21.55,0,0,1,3.17-.22A5.4,5.4,0,0,1,966,183a2.67,2.67,0,0,1,1,2.21,2.8,2.8,0,0,1-1.86,2.6v0a2.69,2.69,0,0,1,1.41,2,29.4,29.4,0,0,0,.86,3h-2.44a13.45,13.45,0,0,1-.74-2.45c-.28-1.32-.73-1.67-1.7-1.69h-.72v4.14h-2.36Zm2.36,4.54h.94c1.19,0,1.89-.6,1.89-1.52s-.66-1.45-1.75-1.47a6,6,0,0,0-1.08.08Z"/><path class="cls-7" d="M971.08,182.25v10.54h-2.39V182.25Z"/><path class="cls-7" d="M982.06,188.76c0-1.27-.09-2.8-.09-4.33h-.05c-.33,1.34-.77,2.84-1.17,4.08l-1.29,4.11H977.6l-1.12-4.08c-.35-1.24-.71-2.74-1-4.11h0c-.06,1.42-.11,3-.19,4.36l-.18,4h-2.21l.67-10.54h3.18l1,3.52c.33,1.22.66,2.54.89,3.77h.05c.3-1.22.66-2.61,1-3.78l1.13-3.51H984l.58,10.54h-2.33Z"/><path class="cls-7" d="M992.65,188.34h-3.88v2.5h4.33v1.95h-6.72V182.25h6.5v2h-4.11v2.19h3.88Z"/><path class="cls-7" d="M994.73,192.79V182.25h2.78l2.19,3.87a29.84,29.84,0,0,1,1.72,3.61h.05a38.3,38.3,0,0,1-.21-4.4v-3.08h2.19v10.54H1001l-2.25-4.06a37.76,37.76,0,0,1-1.83-3.72h0c.06,1.39.1,2.88.1,4.6v3.17Z"/><path class="cls-7" d="M1007.55,184.25h-2.83v-2h8.1v2h-2.88v8.54h-2.39Z"/><path class="cls-7" d="M938.46,211.26a6.79,6.79,0,0,1-2.71.46c-3.64,0-5.52-2.27-5.52-5.28,0-3.59,2.57-5.59,5.76-5.59a6.38,6.38,0,0,1,2.59.46l-.48,1.9a5.06,5.06,0,0,0-2-.39,3.46,3.46,0,0,0,0,6.92,5.93,5.93,0,0,0,2-.34Z"/><path class="cls-7" d="M942.41,201v4h3.93v-4h2.38v10.54h-2.38v-4.41h-3.93v4.41H940V201Z"/><path class="cls-7" d="M953.25,208.85l-.75,2.71H950L953.25,201h3.13l3.27,10.54h-2.57l-.81-2.71Zm2.67-1.78-.65-2.24c-.19-.62-.38-1.4-.53-2h0c-.15.63-.31,1.42-.48,2l-.63,2.24Z"/><path class="cls-7" d="M961.05,211.56V201h2.78l2.19,3.86a30.64,30.64,0,0,1,1.73,3.61h0a40.61,40.61,0,0,1-.2-4.39V201h2.19v10.54h-2.5L965,207.49a40.17,40.17,0,0,1-1.83-3.72l0,0c.06,1.39.09,2.87.09,4.59v3.18Z"/><path class="cls-7" d="M971.84,211.56V201h2.78l2.19,3.86a30.64,30.64,0,0,1,1.73,3.61h0a40.61,40.61,0,0,1-.2-4.39V201h2.19v10.54h-2.5l-2.26-4.07a40.17,40.17,0,0,1-1.83-3.72l0,0c.06,1.39.09,2.87.09,4.59v3.18Z"/><path class="cls-7" d="M988.9,207.1H985v2.5h4.34v2h-6.73V201h6.51V203H985v2.19h3.88Z"/><path class="cls-7" d="M991,201h2.39v8.54h4.2v2H991Z"/><path class="cls-7" d="M999.05,209.1a6.06,6.06,0,0,0,2.64.66c1.1,0,1.68-.45,1.68-1.14s-.5-1-1.77-1.49c-1.75-.61-2.89-1.58-2.89-3.11,0-1.8,1.5-3.17,4-3.17a6.46,6.46,0,0,1,2.69.53l-.53,1.92a5,5,0,0,0-2.2-.5c-1,0-1.54.47-1.54,1s.6,1,2,1.48c1.86.69,2.74,1.66,2.74,3.15,0,1.76-1.36,3.27-4.26,3.27a6.91,6.91,0,0,1-3-.65Z"/><rect class="cls-9" x="851.94" y="343.93" width="233.24" height="96.13" rx="12"/><path class="cls-7" d="M911.18,380.93v10.55h-2.39V380.93Z"/><path class="cls-7" d="M913.24,391.48V380.93H916l2.18,3.87a29.9,29.9,0,0,1,1.73,3.61h0a40.61,40.61,0,0,1-.2-4.39v-3.09H922v10.55h-2.5l-2.26-4.07c-.62-1.13-1.31-2.49-1.83-3.72h0c.06,1.39.09,2.88.09,4.6v3.18Z"/><path class="cls-7" d="M926.06,382.94h-2.83v-2h8.1v2h-2.87v8.54h-2.4Z"/><path class="cls-7" d="M938.87,387H935v2.5h4.34v2H932.6V380.93h6.51v2H935v2.19h3.88Z"/><path class="cls-7" d="M941,381.08a20.34,20.34,0,0,1,3.17-.22,5.38,5.38,0,0,1,3.42.83,2.67,2.67,0,0,1,1,2.2,2.79,2.79,0,0,1-1.86,2.6v0a2.66,2.66,0,0,1,1.41,2c.33,1.19.66,2.57.86,3h-2.44a13.4,13.4,0,0,1-.73-2.46c-.28-1.31-.74-1.67-1.71-1.69h-.72v4.15H941Zm2.36,4.53h.94c1.19,0,1.89-.59,1.89-1.52s-.65-1.45-1.75-1.47a6,6,0,0,0-1.08.08Z"/><path class="cls-7" d="M950.22,391.48V380.93H953l2.19,3.87a31.42,31.42,0,0,1,1.72,3.61h0a40.61,40.61,0,0,1-.2-4.39v-3.09H959v10.55h-2.5l-2.25-4.07a37.76,37.76,0,0,1-1.83-3.72h0c.06,1.39.09,2.88.09,4.6v3.18Z"/><path class="cls-7" d="M963.47,388.77l-.75,2.71h-2.47l3.22-10.55h3.13l3.26,10.55H967.3l-.81-2.71Zm2.67-1.78-.66-2.24c-.18-.63-.37-1.41-.53-2h0c-.15.62-.31,1.42-.48,2l-.63,2.24Z"/><path class="cls-7" d="M971.27,380.93h2.39v8.54h4.19v2h-6.58Z"/><path class="cls-7" d="M984.87,388.77l-.75,2.71h-2.47l3.22-10.55H988l3.27,10.55h-2.56l-.82-2.71Zm2.68-1.78-.66-2.24c-.19-.63-.37-1.41-.53-2h0c-.16.62-.31,1.42-.49,2l-.62,2.24Z"/><path class="cls-7" d="M994.51,380.93V387c0,1.82.68,2.74,1.9,2.74s1.94-.88,1.94-2.74v-6.07h2.38v5.92c0,3.25-1.64,4.8-4.39,4.8s-4.23-1.47-4.23-4.83v-5.89Z"/><path class="cls-7" d="M1002.79,381.08a20.18,20.18,0,0,1,3.22-.22,6.81,6.81,0,0,1,4.32,1.12,4.66,4.66,0,0,1,1.78,4,5.35,5.35,0,0,1-1.75,4.27,7.58,7.58,0,0,1-4.86,1.36,20.27,20.27,0,0,1-2.71-.16Zm2.4,8.6a5,5,0,0,0,.82,0c2.16,0,3.57-1.17,3.57-3.69a3,3,0,0,0-3.31-3.34,4.76,4.76,0,0,0-1.08.09Z"/><path class="cls-7" d="M1016.07,380.93v10.55h-2.39V380.93Z"/><path class="cls-7" d="M1027.78,386.1c0,3.45-2.09,5.55-5.17,5.55s-5-2.36-5-5.37,2-5.52,5.13-5.52S1027.78,383.19,1027.78,386.1Zm-7.61.14c0,2.06,1,3.52,2.56,3.52s2.53-1.54,2.53-3.59c0-1.89-.9-3.51-2.54-3.51S1020.17,384.19,1020.17,386.24Z"/><path class="cls-7" d="M930.09,409.94a6.73,6.73,0,0,1-2.7.46c-3.65,0-5.52-2.27-5.52-5.27,0-3.6,2.56-5.6,5.75-5.6a6.23,6.23,0,0,1,2.6.47l-.49,1.89a5.16,5.16,0,0,0-2-.39,3.47,3.47,0,0,0,0,6.93,5.85,5.85,0,0,0,2-.35Z"/><path class="cls-7" d="M940.84,404.86c0,3.46-2.1,5.55-5.18,5.55s-5-2.36-5-5.36c0-3.16,2-5.52,5.13-5.52S940.84,402,940.84,404.86Zm-7.62.14c0,2.07,1,3.52,2.56,3.52s2.54-1.53,2.54-3.58c0-1.89-.91-3.52-2.55-3.52S933.22,403,933.22,405Z"/><path class="cls-7" d="M942.4,410.24V399.7h2.78l2.19,3.86a30,30,0,0,1,1.72,3.62h0a38.49,38.49,0,0,1-.2-4.4V399.7h2.18v10.54h-2.5l-2.25-4.07a37.8,37.8,0,0,1-1.83-3.72l0,0c.07,1.39.1,2.88.1,4.6v3.17Z"/><path class="cls-7" d="M955.22,401.7h-2.83v-2h8.1v2h-2.88v8.54h-2.39Z"/><path class="cls-7" d="M961.75,399.84a20.38,20.38,0,0,1,3.18-.22,5.41,5.41,0,0,1,3.41.83,2.7,2.7,0,0,1,1,2.21,2.79,2.79,0,0,1-1.86,2.59v.05a2.69,2.69,0,0,1,1.41,2,27.63,27.63,0,0,0,.86,3h-2.44a12.4,12.4,0,0,1-.74-2.45c-.28-1.32-.73-1.68-1.7-1.69h-.72v4.14h-2.37Zm2.37,4.54h.93c1.19,0,1.9-.6,1.9-1.52s-.66-1.46-1.75-1.47a6,6,0,0,0-1.08.08Z"/><path class="cls-7" d="M980.62,404.86c0,3.46-2.1,5.55-5.18,5.55s-5-2.36-5-5.36c0-3.16,2-5.52,5.13-5.52S980.62,402,980.62,404.86ZM973,405c0,2.07,1,3.52,2.56,3.52s2.54-1.53,2.54-3.58c0-1.89-.91-3.52-2.55-3.52S973,403,973,405Z"/><path class="cls-7" d="M982.18,399.7h2.39v8.54h4.19v2h-6.58Z"/><path class="cls-7" d="M990.17,399.7h2.39v8.54h4.19v2h-6.58Z"/><path class="cls-7" d="M1004.43,405.78h-3.88v2.51h4.33v1.95h-6.72V399.7h6.5v1.95h-4.11v2.19h3.88Z"/><path class="cls-7" d="M1006.51,399.84a20.24,20.24,0,0,1,3.17-.22,5.4,5.4,0,0,1,3.41.83,2.67,2.67,0,0,1,1,2.21,2.79,2.79,0,0,1-1.86,2.59v.05a2.66,2.66,0,0,1,1.41,2c.33,1.19.66,2.56.86,3H1012a14,14,0,0,1-.74-2.45c-.28-1.32-.73-1.68-1.7-1.69h-.72v4.14h-2.36Zm2.36,4.54h.94c1.19,0,1.89-.6,1.89-1.52s-.66-1.46-1.75-1.47a6,6,0,0,0-1.08.08Z"/><rect class="cls-9" x="463.65" y="307.66" width="233.24" height="168.68" rx="12"/><text class="cls-10" transform="translate(487.07 334.51)">DOWNLINK 1</text><text class="cls-10" transform="translate(487.07 383.38)">DOWNLINK 3</text><text class="cls-10" transform="translate(487.07 432.73)">EL<tspan class="cls-11" x="12.53" y="0">E</tspan><tspan class="cls-12" x="19.04" y="0">V</tspan><tspan class="cls-13" x="25.56" y="0">A</tspan><tspan x="32.51" y="0">TION</tspan></text><text class="cls-10" transform="translate(600.24 383.38)">DOWNLINK 4</text><text class="cls-10" transform="translate(571.68 432.73)">C<tspan class="cls-14" x="7.54" y="0">R</tspan><tspan x="14.57" y="0">OS</tspan><tspan class="cls-15" x="29.94" y="0">S</tspan><tspan class="cls-16" x="36.41" y="0">-EL</tspan><tspan class="cls-11" x="52.94" y="0">E</tspan><tspan class="cls-17" x="59.45" y="0">V</tspan><tspan class="cls-13" x="65.96" y="0">A</tspan><tspan x="72.92" y="0">TION</tspan></text><text class="cls-10" transform="translate(600.24 334.51)">DOWNLINK 2</text><text class="cls-3" transform="translate(517.78 185.45)">KU-<tspan class="cls-18" x="22.65" y="0">B</tspan><tspan class="cls-19" x="31.05" y="0">AND ANTENNA</tspan></text><text class="cls-3" transform="translate(110.28 476.19)">G<tspan class="cls-20" x="9.55" y="0">R</tspan><tspan class="cls-19" x="17.79" y="0">OUND N</tspan><tspan class="cls-21" x="69.27" y="0">E</tspan><tspan class="cls-22" x="76.82" y="0">T</tspan><tspan class="cls-23" x="84.88" y="0">W</tspan><tspan x="97.2" y="0">ORK</tspan></text><path class="cls-8" d="M484.21,270.64a58.61,58.61,0,0,1,21.91-80"/><path class="cls-8" d="M499.8,263.58a41,41,0,0,1,15.31-55.89"/><path class="cls-8" d="M512.71,253.74A22.22,22.22,0,0,1,521,223.42"/><line class="cls-24" x1="726.82" y1="444.36" x2="779.06" y2="444.36"/><polygon class="cls-7" points="732.71 452.13 729.41 444.36 732.71 436.58 714.28 444.36 732.71 452.13"/><line class="cls-24" x1="726.82" y1="392" x2="822.01" y2="392"/><polygon class="cls-7" points="732.71 399.78 729.41 392 732.71 384.22 714.28 392 732.71 399.78"/><polygon class="cls-7" points="816.11 399.78 819.41 392 816.11 384.22 834.54 392 816.11 399.78"/><line class="cls-24" x1="726.82" y1="339.81" x2="779.03" y2="339.81"/><polygon class="cls-7" points="732.71 347.59 729.41 339.81 732.71 332.04 714.28 339.81 732.71 347.59"/><line class="cls-24" x1="822.01" y1="582.39" x2="776.08" y2="582.39"/><polygon class="cls-7" points="816.11 574.61 819.41 582.38 816.11 590.16 834.54 582.38 816.11 574.61"/><line class="cls-24" x1="834.54" y1="193.42" x2="776.09" y2="193.42"/><line class="cls-24" x1="777.58" y1="339.81" x2="777.58" y2="193.42"/><line class="cls-24" x1="777.58" y1="444.36" x2="777.58" y2="582.39"/></g><g id="Layer_3" data-name="Layer 3"><polygon class="cls-25" points="138.16 650.67 125.38 650.67 102.28 705.26 154.87 705.26 138.16 650.67"/><circle class="cls-7" cx="130.57" cy="650.67" r="13.65"/><path class="cls-25" d="M70.27,563.18c-1.91,28.49,23.19,63.05,63.48,83.71s83.21,20.86,105.19,2.53Z"/><circle class="cls-25" cx="172.35" cy="566.12" r="12.92"/><line class="cls-26" x1="172.35" y1="566.12" x2="86.64" y2="579.04"/><line class="cls-26" x1="172.35" y1="566.12" x2="208.48" y2="637.02"/><line class="cls-26" x1="172.35" y1="566.12" x2="144.21" y2="622.3"/><circle class="cls-7" cx="578.19" cy="264.63" r="7.22"/><path class="cls-25" d="M531.92,296.52c15.07,1,33.34-12.26,44.27-33.57s11-44,1.34-55.64Z"/><circle class="cls-25" cx="533.47" cy="242.53" r="6.83"/><line class="cls-24" x1="533.47" y1="242.53" x2="540.31" y2="287.87"/><line class="cls-24" x1="538.04" y1="240.2" x2="575.54" y2="221.09"/><line class="cls-24" x1="533.47" y1="242.53" x2="563.18" y2="257.41"/></g></svg>