<svg xmlns="http://www.w3.org/2000/svg" viewBox="0 0 1190 700"><defs><style>.cls-1{fill:#434343;}.cls-2{fill:#231f20;}.cls-3{fill:#fff;}.cls-4{fill:#ddd;}.cls-5{fill:#b3b4b4;}.cls-6{fill:#898989;}</style></defs><g id="Layer_1" data-name="Layer 1"><rect class="cls-1" x="-6.67" y="-11.68" width="1203.33" height="713.33"/><path class="cls-2" d="M1197.17,702.16H-7.17V-12.18H1197.17Zm-1203.34-1H1196.17V-11.18H-6.17Z"/></g><g id="Layer_2" data-name="Layer 2"><rect class="cls-3" x="573.37" y="265.23" width="12" height="42.43"/><path class="cls-3" d="M105.35,41h-2.54V39.24h7.26V41h-2.58v7.65h-2.14Z"/><path class="cls-3" d="M111.2,39.36a20,20,0,0,1,2.89-.19,6,6,0,0,1,3.86,1,4.16,4.16,0,0,1,1.6,3.55A4.8,4.8,0,0,1,118,47.56a6.78,6.78,0,0,1-4.36,1.22,18.49,18.49,0,0,1-2.42-.14Zm2.14,7.71a4.24,4.24,0,0,0,.75,0c1.93,0,3.19-1,3.19-3.31a2.71,2.71,0,0,0-3-3,4.73,4.73,0,0,0-1,.08Z"/><path class="cls-3" d="M120.94,39.36a19.23,19.23,0,0,1,2.85-.19,4.82,4.82,0,0,1,3,.74,2.41,2.41,0,0,1,.87,2A2.49,2.49,0,0,1,126,44.21v0A2.37,2.37,0,0,1,127.3,46c.3,1.06.59,2.29.77,2.66h-2.18a11.47,11.47,0,0,1-.66-2.2C125,45.3,124.57,45,123.7,45h-.64v3.71h-2.12Zm2.12,4.07h.84c1.06,0,1.69-.54,1.69-1.36s-.58-1.3-1.56-1.32a5.14,5.14,0,0,0-1,.07Z"/><path class="cls-3" d="M129.32,46.48a5.46,5.46,0,0,0,2.36.59c1,0,1.5-.41,1.5-1s-.45-.93-1.58-1.33C130,44.17,129,43.3,129,41.93c0-1.61,1.34-2.85,3.57-2.85a5.83,5.83,0,0,1,2.41.48l-.48,1.72a4.51,4.51,0,0,0-2-.45c-.93,0-1.37.43-1.37.92s.53.86,1.75,1.33c1.66.61,2.45,1.48,2.45,2.81,0,1.58-1.22,2.93-3.81,2.93a6.1,6.1,0,0,1-2.68-.58Z"/><path class="cls-3" d="M139.7,46.48a5.54,5.54,0,0,0,2.37.59c1,0,1.5-.41,1.5-1s-.45-.93-1.58-1.33c-1.57-.55-2.59-1.42-2.59-2.79,0-1.61,1.34-2.85,3.57-2.85a5.83,5.83,0,0,1,2.41.48l-.48,1.72a4.51,4.51,0,0,0-2-.45c-.93,0-1.38.43-1.38.92s.54.86,1.75,1.33c1.67.61,2.46,1.48,2.46,2.81,0,1.58-1.22,2.93-3.81,2.93a6.1,6.1,0,0,1-2.68-.58Z"/><path class="cls-3" d="M149.39,46.26l-.67,2.42h-2.21l2.88-9.44h2.8l2.93,9.44h-2.29l-.73-2.42Zm2.4-1.6-.59-2c-.17-.56-.34-1.26-.48-1.83h0c-.14.57-.28,1.28-.44,1.83l-.56,2Z"/><path class="cls-3" d="M157,41H154.5V39.24h7.26V41h-2.58v7.65H157Z"/><path class="cls-3" d="M168.5,44.69H165v2.24h3.88v1.75h-6V39.24h5.82V41H165v2h3.47Z"/><path class="cls-3" d="M170.36,39.24h2.15v7.65h3.75v1.79h-5.9Z"/><path class="cls-3" d="M177.52,39.24h2.14v7.65h3.75v1.79h-5.89Z"/><path class="cls-3" d="M186.81,39.24v9.44h-2.14V39.24Z"/><path class="cls-3" d="M190.48,41H188V39.24h7.25V41h-2.57v7.65h-2.15Z"/><path class="cls-3" d="M202,44.69h-3.47v2.24h3.88v1.75h-6V39.24h5.83V41h-3.68v2H202Z"/><rect class="cls-4" x="135.65" y="95.35" width="45.28" height="5" transform="translate(24.63 227.33) rotate(-75.81)"/><rect class="cls-4" x="124.55" y="139.25" width="45.28" height="5" transform="translate(-26.31 249.71) rotate(-75.81)"/><rect class="cls-4" x="134.17" y="93.49" width="5" height="36.14" transform="translate(-24.96 182.27) rotate(-62.85)"/><rect class="cls-4" x="116.72" y="117.88" width="36.04" height="5" transform="translate(-3.81 4.4) rotate(-1.85)"/><rect class="cls-4" x="152.69" y="116.72" width="36.14" height="5" transform="translate(-4.99 7.48) rotate(-2.47)"/><rect class="cls-4" x="166.32" y="110.03" width="5" height="36.04" transform="translate(-21.15 221.9) rotate(-63.47)"/><rect class="cls-3" x="41.11" y="88.83" width="84.73" height="26.9" transform="translate(27.62 -17.34) rotate(14.19)"/><rect class="cls-3" x="181.37" y="124.3" width="84.73" height="26.9" transform="translate(40.6 -50.65) rotate(14.19)"/><rect class="cls-3" x="139.29" y="106.35" width="26.9" height="26.9" transform="translate(34.03 -33.79) rotate(14.19)"/><circle class="cls-3" cx="163.84" cy="75.91" r="16.97"/><circle class="cls-3" cx="141.64" cy="163.69" r="16.97"/><path class="cls-3" d="M143.22,240a56.65,56.65,0,0,1-27.91-7.38l2-3.49A53,53,0,0,0,189.36,209l3.48,2a57.05,57.05,0,0,1-49.62,29Z"/><path class="cls-3" d="M144.45,222.36a40.13,40.13,0,0,1-19.77-5.2l2-3.49a36.4,36.4,0,0,0,49.54-13.79l3.48,2A40.39,40.39,0,0,1,144.45,222.36Z"/><path class="cls-3" d="M145.67,207.81a22.71,22.71,0,0,1-11.19-3l2-3.48a18.81,18.81,0,0,0,25.63-7.14l3.48,2A22.68,22.68,0,0,1,151.82,207,23.14,23.14,0,0,1,145.67,207.81Z"/><path class="cls-3" d="M233,538.12a60,60,0,0,0-77.49-34.34L154,500a64,64,0,0,1,82.66,36.64Z"/><path class="cls-3" d="M213.75,544.82a41.32,41.32,0,0,0-53.36-23.65L159,517.44a45.33,45.33,0,0,1,58.53,25.94Z"/><path class="cls-3" d="M196.39,548.51a21.47,21.47,0,0,0-27.77-12.31l-1.43-3.73a25.46,25.46,0,0,1,32.94,14.6Z"/><rect class="cls-1" x="851.94" y="504.32" width="233.24" height="96.13" rx="12"/><path class="cls-3" d="M1073.18,602H863.94a13.51,13.51,0,0,1-13.5-13.5V516.32a13.51,13.51,0,0,1,13.5-13.5h209.24a13.51,13.51,0,0,1,13.5,13.5v72.13A13.52,13.52,0,0,1,1073.18,602ZM863.94,505.82a10.51,10.51,0,0,0-10.5,10.5v72.13a10.51,10.51,0,0,0,10.5,10.5h209.24a10.51,10.51,0,0,0,10.5-10.5V516.32a10.51,10.51,0,0,0-10.5-10.5Z"/><path class="cls-3" d="M884.58,551.56a6.73,6.73,0,0,1-2.7.46c-3.65,0-5.52-2.27-5.52-5.27,0-3.6,2.56-5.6,5.75-5.6a6.23,6.23,0,0,1,2.6.47l-.49,1.89a5,5,0,0,0-2-.39,3.46,3.46,0,0,0,0,6.92,5.87,5.87,0,0,0,2-.34Z"/><path class="cls-3" d="M895.33,546.48c0,3.46-2.1,5.55-5.18,5.55s-5-2.36-5-5.36c0-3.16,2-5.52,5.13-5.52S895.33,543.57,895.33,546.48Zm-7.62.14c0,2.06,1,3.52,2.56,3.52s2.54-1.53,2.54-3.58c0-1.89-.91-3.52-2.55-3.52S887.71,544.57,887.71,546.62Z"/><path class="cls-3" d="M905.8,547.82c0-1.26-.09-2.8-.09-4.33h-.05c-.33,1.35-.77,2.85-1.17,4.08l-1.28,4.12h-1.87l-1.12-4.08c-.35-1.24-.71-2.74-1-4.12h0c-.06,1.43-.11,3-.19,4.37l-.18,4h-2.21l.67-10.54h3.18l1,3.52c.33,1.22.66,2.53.89,3.77h.05c.3-1.22.66-2.62,1-3.79l1.13-3.5h3.11l.58,10.54H906Z"/><path class="cls-3" d="M919,547.82c0-1.26-.09-2.8-.09-4.33h-.05c-.33,1.35-.77,2.85-1.17,4.08l-1.29,4.12h-1.86l-1.12-4.08c-.35-1.24-.71-2.74-1-4.12h0c-.06,1.43-.11,3-.19,4.37l-.18,4h-2.21l.67-10.54h3.18l1,3.52c.33,1.22.66,2.53.89,3.77h.05c.3-1.22.66-2.62,1-3.79l1.13-3.5h3.11l.58,10.54h-2.33Z"/><path class="cls-3" d="M925.75,549.15l-.75,2.71h-2.47l3.22-10.54h3.13l3.27,10.54h-2.57l-.81-2.71Zm2.68-1.78-.66-2.24c-.19-.62-.38-1.4-.53-2h0c-.16.63-.32,1.42-.49,2l-.62,2.24Z"/><path class="cls-3" d="M933.55,551.86V541.32h2.79l2.19,3.86a32.23,32.23,0,0,1,1.72,3.61h0a38.12,38.12,0,0,1-.21-4.39v-3.08h2.19v10.54h-2.5l-2.25-4.07a35.69,35.69,0,0,1-1.83-3.72l-.05,0c.06,1.39.09,2.87.09,4.59v3.18Z"/><path class="cls-3" d="M944.34,541.46a21.47,21.47,0,0,1,3.23-.22,6.73,6.73,0,0,1,4.31,1.13,4.65,4.65,0,0,1,1.79,4,5.34,5.34,0,0,1-1.76,4.27,7.58,7.58,0,0,1-4.86,1.36,20.27,20.27,0,0,1-2.71-.16Zm2.4,8.6a4.1,4.1,0,0,0,.83.05c2.15,0,3.56-1.18,3.56-3.69a3,3,0,0,0-3.31-3.35,5.45,5.45,0,0,0-1.08.09Z"/><path class="cls-3" d="M960.84,549.15l-.75,2.71h-2.47l3.22-10.54H964l3.27,10.54h-2.57l-.81-2.71Zm2.68-1.78-.66-2.24c-.19-.62-.38-1.4-.53-2h0c-.16.63-.32,1.42-.49,2l-.62,2.24Z"/><path class="cls-3" d="M968.64,551.86V541.32h2.79l2.19,3.86a32.23,32.23,0,0,1,1.72,3.61h0a40.61,40.61,0,0,1-.2-4.39v-3.08h2.19v10.54h-2.5l-2.25-4.07a35.69,35.69,0,0,1-1.83-3.72l0,0c.06,1.39.09,2.87.09,4.59v3.18Z"/><path class="cls-3" d="M979.43,541.46a21.42,21.42,0,0,1,3.22-.22,6.74,6.74,0,0,1,4.32,1.13,4.64,4.64,0,0,1,1.78,4,5.33,5.33,0,0,1-1.75,4.27,7.58,7.58,0,0,1-4.86,1.36,20.27,20.27,0,0,1-2.71-.16Zm2.4,8.6a4,4,0,0,0,.82.05c2.16,0,3.57-1.18,3.57-3.69a3,3,0,0,0-3.32-3.35,5.41,5.41,0,0,0-1.07.09Z"/><path class="cls-3" d="M1001.22,551.56a6.79,6.79,0,0,1-2.71.46c-3.64,0-5.52-2.27-5.52-5.27,0-3.6,2.56-5.6,5.76-5.6a6.17,6.17,0,0,1,2.59.47l-.48,1.89a5.07,5.07,0,0,0-2-.39,3.46,3.46,0,0,0,0,6.92,5.93,5.93,0,0,0,2-.34Z"/><path class="cls-3" d="M1012,546.48c0,3.46-2.1,5.55-5.18,5.55s-5-2.36-5-5.36c0-3.16,2-5.52,5.13-5.52S1012,543.57,1012,546.48Zm-7.62.14c0,2.06,1,3.52,2.57,3.52s2.53-1.53,2.53-3.58c0-1.89-.91-3.52-2.55-3.52S1004.34,544.57,1004.34,546.62Z"/><path class="cls-3" d="M1013.52,551.86V541.32h2.78l2.19,3.86a29.07,29.07,0,0,1,1.72,3.61h0a40.61,40.61,0,0,1-.2-4.39v-3.08h2.19v10.54h-2.5l-2.26-4.07a40.17,40.17,0,0,1-1.83-3.72l0,0c.06,1.39.09,2.87.09,4.59v3.18Z"/><path class="cls-3" d="M1026.34,543.32h-2.83v-2h8.1v2h-2.87v8.54h-2.4Z"/><path class="cls-3" d="M1032.88,541.46a20.34,20.34,0,0,1,3.17-.22,5.33,5.33,0,0,1,3.41.83,2.65,2.65,0,0,1,1,2.2,2.79,2.79,0,0,1-1.86,2.6v0a2.64,2.64,0,0,1,1.41,2c.33,1.19.66,2.56.86,3h-2.44a13.4,13.4,0,0,1-.73-2.46c-.29-1.31-.74-1.67-1.71-1.69h-.72v4.15h-2.36Zm2.36,4.53h.94c1.19,0,1.89-.59,1.89-1.51s-.65-1.46-1.75-1.47a6.38,6.38,0,0,0-1.08.07Z"/><path class="cls-3" d="M1051.74,546.48c0,3.46-2.1,5.55-5.18,5.55s-5-2.36-5-5.36c0-3.16,2-5.52,5.13-5.52S1051.74,543.57,1051.74,546.48Zm-7.62.14c0,2.06,1,3.52,2.57,3.52s2.53-1.53,2.53-3.58c0-1.89-.91-3.52-2.55-3.52S1044.12,544.57,1044.12,546.62Z"/><path class="cls-3" d="M1053.3,541.32h2.39v8.54h4.2v2h-6.59Z"/><path class="cls-3" d="M933,570.33a6.83,6.83,0,0,1-2.71.45c-3.64,0-5.52-2.27-5.52-5.27,0-3.6,2.57-5.6,5.76-5.6a6.17,6.17,0,0,1,2.59.47l-.48,1.89a5.24,5.24,0,0,0-2-.39,3.47,3.47,0,0,0,0,6.93,6.19,6.19,0,0,0,2-.34Z"/><path class="cls-3" d="M943.72,565.24c0,3.46-2.1,5.56-5.18,5.56s-4.95-2.37-4.95-5.37c0-3.16,2-5.52,5.13-5.52S943.72,562.33,943.72,565.24Zm-7.62.14c0,2.07,1,3.52,2.57,3.52s2.53-1.53,2.53-3.58c0-1.89-.91-3.52-2.55-3.52S936.1,563.33,936.1,565.38Z"/><path class="cls-3" d="M954.2,566.59c-.05-1.27-.1-2.8-.1-4.33h0c-.33,1.34-.77,2.84-1.18,4.08l-1.28,4.11h-1.86l-1.13-4.08c-.34-1.24-.7-2.74-1-4.11h0c-.06,1.42-.11,3-.19,4.36l-.19,4h-2.2l.67-10.54h3.18l1,3.52c.33,1.22.65,2.53.89,3.77h0c.29-1.22.65-2.61,1-3.78l1.12-3.51h3.12l.57,10.54h-2.33Z"/><path class="cls-3" d="M958.51,560.22a20.14,20.14,0,0,1,3.22-.22,5.06,5.06,0,0,1,3.22.85,3.06,3.06,0,0,1,1.13,2.44,3.34,3.34,0,0,1-1,2.5,6,6,0,0,1-4.24,1.06v3.77h-2.36Zm2.36,4.79a3.56,3.56,0,0,0,.8.06c1.27,0,2.05-.64,2.05-1.72s-.67-1.55-1.86-1.55a3.82,3.82,0,0,0-1,.1Z"/><path class="cls-3" d="M970,560.08v6.07c0,1.81.69,2.74,1.91,2.74s1.94-.88,1.94-2.74v-6.07h2.38V566c0,3.26-1.64,4.81-4.4,4.81s-4.22-1.47-4.22-4.84v-5.88Z"/><path class="cls-3" d="M980.29,562.08h-2.83v-2h8.1v2h-2.87v8.54h-2.4Z"/><path class="cls-3" d="M993.1,566.17h-3.88v2.5h4.33v2h-6.72V560.08h6.51v2h-4.12v2.19h3.88Z"/><path class="cls-3" d="M995.18,560.22a21.66,21.66,0,0,1,3.17-.22,5.4,5.4,0,0,1,3.41.83,2.67,2.67,0,0,1,1,2.21,2.78,2.78,0,0,1-1.86,2.59v0a2.66,2.66,0,0,1,1.41,2c.33,1.19.66,2.57.86,3h-2.44a12.92,12.92,0,0,1-.73-2.45c-.29-1.32-.74-1.67-1.71-1.69h-.72v4.14h-2.36Zm2.36,4.54h.94c1.19,0,1.89-.6,1.89-1.52s-.65-1.45-1.75-1.47a6,6,0,0,0-1.08.08Z"/><path class="cls-3" d="M1004.53,568.17a6.06,6.06,0,0,0,2.64.66c1.1,0,1.68-.46,1.68-1.15s-.5-1-1.77-1.48c-1.75-.61-2.89-1.58-2.89-3.12,0-1.79,1.5-3.17,4-3.17a6.46,6.46,0,0,1,2.69.53l-.53,1.93a4.89,4.89,0,0,0-2.2-.5c-1,0-1.54.46-1.54,1s.6,1,2,1.49c1.86.69,2.74,1.66,2.74,3.14,0,1.77-1.36,3.27-4.26,3.27a6.84,6.84,0,0,1-3-.64Z"/><rect class="cls-1" x="851.94" y="183.4" width="233.24" height="96.13" rx="12"/><path class="cls-3" d="M1073.18,281H863.94a13.51,13.51,0,0,1-13.5-13.5V195.4a13.51,13.51,0,0,1,13.5-13.5h209.24a13.51,13.51,0,0,1,13.5,13.5v72.13A13.52,13.52,0,0,1,1073.18,281ZM863.94,184.9a10.51,10.51,0,0,0-10.5,10.5v72.13a10.51,10.51,0,0,0,10.5,10.5h209.24a10.51,10.51,0,0,0,10.5-10.5V195.4a10.51,10.51,0,0,0-10.5-10.5Z"/><path class="cls-3" d="M911.18,220.4v10.54h-2.39V220.4Z"/><path class="cls-3" d="M913.24,230.94V220.4H916l2.18,3.86a30,30,0,0,1,1.73,3.62h0a40.92,40.92,0,0,1-.2-4.4V220.4H922v10.54h-2.5l-2.26-4.07a40.17,40.17,0,0,1-1.83-3.72l0,0c.06,1.39.09,2.87.09,4.6v3.17Z"/><path class="cls-3" d="M926.06,222.4h-2.83v-2h8.1v2h-2.87v8.54h-2.4Z"/><path class="cls-3" d="M938.87,226.48H935V229h4.34v1.95H932.6V220.4h6.51v1.95H935v2.19h3.88Z"/><path class="cls-3" d="M941,220.54a20.34,20.34,0,0,1,3.17-.22,5.45,5.45,0,0,1,3.42.83,2.69,2.69,0,0,1,1,2.2,2.79,2.79,0,0,1-1.86,2.6V226a2.64,2.64,0,0,1,1.41,2c.33,1.19.66,2.56.86,3h-2.44a13.4,13.4,0,0,1-.73-2.46c-.28-1.31-.74-1.67-1.71-1.68h-.72v4.14H941Zm2.36,4.54h.94c1.19,0,1.89-.6,1.89-1.52s-.65-1.46-1.75-1.47a5.15,5.15,0,0,0-1.08.08Z"/><path class="cls-3" d="M950.22,230.94V220.4H953l2.19,3.86a31.56,31.56,0,0,1,1.72,3.62h0a40.92,40.92,0,0,1-.2-4.4V220.4H959v10.54h-2.5l-2.25-4.07a35.69,35.69,0,0,1-1.83-3.72l0,0c.06,1.39.09,2.87.09,4.6v3.17Z"/><path class="cls-3" d="M963.47,228.23l-.75,2.71h-2.47l3.22-10.54h3.13l3.26,10.54H967.3l-.81-2.71Zm2.67-1.78-.66-2.23c-.18-.63-.37-1.41-.53-2h0c-.15.63-.31,1.42-.48,2l-.63,2.23Z"/><path class="cls-3" d="M971.27,220.4h2.39v8.54h4.19v2h-6.58Z"/><path class="cls-3" d="M984.87,228.23l-.75,2.71h-2.47l3.22-10.54H988l3.27,10.54h-2.56l-.82-2.71Zm2.68-1.78-.66-2.23c-.19-.63-.37-1.41-.53-2h0c-.16.63-.31,1.42-.49,2l-.62,2.23Z"/><path class="cls-3" d="M994.51,220.4v6.07c0,1.81.68,2.73,1.9,2.73s1.94-.87,1.94-2.73V220.4h2.38v5.91c0,3.25-1.64,4.8-4.39,4.8s-4.23-1.47-4.23-4.83V220.4Z"/><path class="cls-3" d="M1002.79,220.54a21.42,21.42,0,0,1,3.22-.22,6.74,6.74,0,0,1,4.32,1.13,4.64,4.64,0,0,1,1.78,4,5.33,5.33,0,0,1-1.75,4.27,7.58,7.58,0,0,1-4.86,1.36,20.27,20.27,0,0,1-2.71-.16Zm2.4,8.6a4,4,0,0,0,.82.05c2.16,0,3.57-1.17,3.57-3.69a3,3,0,0,0-3.31-3.35,5.45,5.45,0,0,0-1.08.09Z"/><path class="cls-3" d="M1016.07,220.4v10.54h-2.39V220.4Z"/><path class="cls-3" d="M1027.78,225.56c0,3.46-2.09,5.55-5.17,5.55s-5-2.36-5-5.36c0-3.16,2-5.52,5.13-5.52S1027.78,222.65,1027.78,225.56Zm-7.61.14c0,2.07,1,3.52,2.56,3.52s2.53-1.53,2.53-3.58c0-1.89-.9-3.52-2.54-3.52S1020.17,223.65,1020.17,225.7Z"/><path class="cls-3" d="M930.09,249.41a6.77,6.77,0,0,1-2.7.45c-3.65,0-5.52-2.27-5.52-5.27,0-3.6,2.56-5.6,5.75-5.6a6.23,6.23,0,0,1,2.6.47l-.49,1.89a5.16,5.16,0,0,0-2-.39,3.47,3.47,0,0,0,0,6.93,6.13,6.13,0,0,0,2-.34Z"/><path class="cls-3" d="M940.84,244.32c0,3.46-2.1,5.56-5.18,5.56s-5-2.36-5-5.37,2-5.52,5.13-5.52S940.84,241.42,940.84,244.32Zm-7.62.15c0,2.06,1,3.51,2.56,3.51s2.54-1.53,2.54-3.58c0-1.89-.91-3.52-2.55-3.52S933.22,242.42,933.22,244.47Z"/><path class="cls-3" d="M942.4,249.71V239.16h2.78l2.19,3.87a29.84,29.84,0,0,1,1.72,3.61h0a38.38,38.38,0,0,1-.2-4.4v-3.08h2.18v10.55h-2.5l-2.25-4.07a40.13,40.13,0,0,1-1.83-3.72h0c.07,1.39.1,2.88.1,4.6v3.18Z"/><path class="cls-3" d="M955.22,241.17h-2.83v-2h8.1v2h-2.88v8.54h-2.39Z"/><path class="cls-3" d="M961.76,239.3a21.65,21.65,0,0,1,3.17-.21,5.4,5.4,0,0,1,3.41.82,2.67,2.67,0,0,1,1,2.21,2.8,2.8,0,0,1-1.86,2.6v0a2.69,2.69,0,0,1,1.41,2,28,28,0,0,0,.86,3h-2.44a12.35,12.35,0,0,1-.74-2.46c-.28-1.31-.73-1.67-1.7-1.69h-.72v4.15h-2.36Zm2.36,4.54h.94c1.19,0,1.89-.59,1.89-1.52s-.66-1.45-1.75-1.47a6,6,0,0,0-1.08.08Z"/><path class="cls-3" d="M980.62,244.32c0,3.46-2.1,5.56-5.18,5.56s-5-2.36-5-5.37,2-5.52,5.13-5.52S980.62,241.42,980.62,244.32Zm-7.62.15c0,2.06,1,3.51,2.56,3.51s2.54-1.53,2.54-3.58c0-1.89-.91-3.52-2.55-3.52S973,242.42,973,244.47Z"/><path class="cls-3" d="M982.18,239.16h2.39v8.54h4.19v2h-6.58Z"/><path class="cls-3" d="M990.17,239.16h2.39v8.54h4.19v2h-6.58Z"/><path class="cls-3" d="M1004.43,245.25h-3.88v2.5h4.33v2h-6.72V239.16h6.51v2h-4.12v2.19h3.88Z"/><path class="cls-3" d="M1006.51,239.3a21.86,21.86,0,0,1,3.17-.21,5.4,5.4,0,0,1,3.41.82,2.67,2.67,0,0,1,1,2.21,2.8,2.8,0,0,1-1.86,2.6v0a2.66,2.66,0,0,1,1.41,2c.33,1.19.66,2.57.86,3H1012a14,14,0,0,1-.74-2.46c-.28-1.31-.73-1.67-1.7-1.69h-.72v4.15h-2.36Zm2.36,4.54h.94c1.19,0,1.89-.59,1.89-1.52s-.66-1.45-1.75-1.47a6,6,0,0,0-1.08.08Z"/><rect class="cls-1" x="463.65" y="307.66" width="233.24" height="168.53" rx="12"/><path class="cls-3" d="M684.88,477.69H475.65a13.51,13.51,0,0,1-13.5-13.5V319.66a13.51,13.51,0,0,1,13.5-13.5H684.88a13.51,13.51,0,0,1,13.5,13.5V464.19A13.51,13.51,0,0,1,684.88,477.69ZM475.65,309.16a10.51,10.51,0,0,0-10.5,10.5V464.19a10.51,10.51,0,0,0,10.5,10.5H684.88a10.51,10.51,0,0,0,10.5-10.5V319.66a10.51,10.51,0,0,0-10.5-10.5Z"/><path class="cls-3" d="M487.9,333.13a4,4,0,0,0,2,.57c1.16,0,1.83-.61,1.83-1.49s-.46-1.29-1.65-1.74c-1.43-.51-2.31-1.25-2.31-2.49s1.13-2.37,2.83-2.37a4,4,0,0,1,1.94.42l-.31.93a3.45,3.45,0,0,0-1.67-.42c-1.19,0-1.65.72-1.65,1.31,0,.82.54,1.23,1.74,1.69,1.49.58,2.24,1.29,2.24,2.58s-1,2.52-3.07,2.52a4.52,4.52,0,0,1-2.23-.56Z"/><path class="cls-3" d="M497.15,330.57v.85h-3.22v-.85Z"/><path class="cls-3" d="M498.52,325.87a10.51,10.51,0,0,1,2.07-.19,3.66,3.66,0,0,1,2.41.64,1.85,1.85,0,0,1,.72,1.55,2.08,2.08,0,0,1-1.48,1.92v0a2.26,2.26,0,0,1,1.81,2.19,2.37,2.37,0,0,1-.74,1.76,4.4,4.4,0,0,1-3,.82,11.89,11.89,0,0,1-1.76-.11Zm1.13,3.58h1c1.2,0,1.9-.62,1.9-1.47,0-1-.78-1.43-1.92-1.43a4.9,4.9,0,0,0-1,.08Zm0,4.2a6.07,6.07,0,0,0,1,.05c1.17,0,2.25-.42,2.25-1.7s-1-1.69-2.26-1.69h-.94Z"/><path class="cls-3" d="M507,331.75l-.91,2.76h-1.17l3-8.76h1.37l3,8.76H511l-.94-2.76Zm2.87-.88-.86-2.52c-.19-.57-.32-1.09-.45-1.6h0c-.13.52-.27,1.05-.44,1.58l-.86,2.54Z"/><path class="cls-3" d="M513.53,334.51v-8.76h1.23l2.81,4.43a23.89,23.89,0,0,1,1.57,2.85h0c-.11-1.17-.13-2.24-.13-3.61v-3.66h1.06v8.76H519l-2.78-4.45a27,27,0,0,1-1.64-2.92h0c.07,1.11.09,2.16.09,3.62v3.74Z"/><path class="cls-3" d="M522.08,325.87a15.37,15.37,0,0,1,2.4-.19,5,5,0,0,1,3.55,1.1,4,4,0,0,1,1.24,3.14,4.65,4.65,0,0,1-1.26,3.41,5.4,5.4,0,0,1-3.88,1.26,17,17,0,0,1-2-.11Zm1.13,7.74a6.25,6.25,0,0,0,1.14.07,3.37,3.37,0,0,0,3.73-3.72c0-2.07-1.15-3.38-3.54-3.38a6.07,6.07,0,0,0-1.33.12Z"/><path class="cls-3" d="M535.57,327.13h0l-1.47.79-.22-.87,1.84-1h1v8.45h-1.11Z"/><path class="cls-3" d="M493.21,379.27h-3.4v3.16h3.79v.95h-4.92v-8.76h4.73v.94h-3.6v2.77h3.4Z"/><path class="cls-3" d="M495.07,374.62h1.13v7.81H500v.95h-4.88Z"/><path class="cls-3" d="M505.74,379.27h-3.4v3.16h3.79v.95h-4.92v-8.76h4.73v.94h-3.6v2.77h3.4Z"/><path class="cls-3" d="M509.64,383.38l-2.86-8.76H508l1.36,4.31c.38,1.18.7,2.25.94,3.28h0c.25-1,.61-2.12,1-3.27l1.49-4.32H514l-3.14,8.76Z"/><path class="cls-3" d="M515.65,380.62l-.91,2.76h-1.17l3-8.76h1.36l3,8.76h-1.21l-.93-2.76Zm2.87-.88-.85-2.53c-.2-.57-.33-1.09-.46-1.59h0c-.13.52-.27,1.05-.44,1.58l-.86,2.54Z"/><path class="cls-3" d="M522.85,375.58h-2.66v-1h6.48v1H524v7.8h-1.15Z"/><path class="cls-3" d="M528.78,374.62v8.76h-1.13v-8.76Z"/><path class="cls-3" d="M538.24,378.91c0,3-1.83,4.61-4.06,4.61s-3.94-1.79-3.94-4.45,1.73-4.6,4.07-4.6S538.24,376.3,538.24,378.91Zm-6.79.14c0,1.87,1,3.55,2.79,3.55s2.81-1.65,2.81-3.64c0-1.75-.91-3.57-2.8-3.57S531.45,377.12,531.45,379.05Z"/><path class="cls-3" d="M539.71,383.38v-8.76H541l2.81,4.43a25.4,25.4,0,0,1,1.57,2.85l0,0c-.11-1.17-.13-2.23-.13-3.6v-3.66h1.06v8.76h-1.14l-2.78-4.45a25.42,25.42,0,0,1-1.64-2.92h0c.06,1.1.09,2.16.09,3.61v3.75Z"/><path class="cls-3" d="M490.09,430l-.91,2.76H488l3-8.76h1.36l3,8.76h-1.2L493.2,430Zm2.88-.88-.86-2.52c-.2-.57-.33-1.1-.46-1.6h0c-.13.52-.28,1-.45,1.58l-.85,2.54Z"/><path class="cls-3" d="M496,432.07,500.9,425v0h-4.45V424h5.91v.69l-4.83,7.08v0h4.9v1H496Z"/><path class="cls-3" d="M505,424v8.76h-1.13V424Z"/><path class="cls-3" d="M514.31,428.88c-.06-1.22-.14-2.69-.13-3.78h0c-.3,1-.66,2.12-1.1,3.33l-1.55,4.25h-.86l-1.41-4.18c-.42-1.23-.77-2.36-1-3.4h0c0,1.09-.1,2.56-.17,3.87l-.24,3.76h-1.08l.61-8.76h1.45l1.49,4.24c.37,1.07.67,2,.89,3h0c.22-.89.53-1.85.92-3l1.56-4.24h1.44l.55,8.76h-1.11Z"/><path class="cls-3" d="M518.51,424v5.18c0,2,.87,2.8,2,2.8s2.13-.86,2.13-2.8V424h1.15v5.11c0,2.69-1.42,3.79-3.32,3.79s-3.14-1-3.14-3.74V424Z"/><path class="cls-3" d="M527.45,424.93h-2.66v-1h6.49v1H528.6v7.8h-1.15Z"/><path class="cls-3" d="M533.38,424v3.66h4.24V424h1.14v8.76h-1.14v-4.11h-4.24v4.11h-1.13V424Z"/><path class="cls-3" d="M617,379.27h-3.41v3.16h3.8v.95h-4.93v-8.76h4.73v.94h-3.6v2.77H617Z"/><path class="cls-3" d="M618.85,374.62H620v7.81h3.74v.95h-4.87Z"/><path class="cls-3" d="M629.52,379.27h-3.41v3.16h3.8v.95H625v-8.76h4.73v.94h-3.6v2.77h3.41Z"/><path class="cls-3" d="M633.42,383.38l-2.86-8.76h1.22l1.36,4.31c.38,1.18.71,2.25.94,3.28h0c.24-1,.61-2.12,1-3.27l1.48-4.32h1.21l-3.13,8.76Z"/><path class="cls-3" d="M639.42,380.62l-.91,2.76h-1.17l3-8.76h1.37l3,8.76h-1.21l-.94-2.76Zm2.88-.88-.86-2.53c-.2-.57-.33-1.09-.46-1.59h0c-.13.52-.28,1.05-.44,1.58l-.86,2.54Z"/><path class="cls-3" d="M646.63,375.58H644v-1h6.49v1h-2.68v7.8h-1.14Z"/><path class="cls-3" d="M652.55,374.62v8.76h-1.13v-8.76Z"/><path class="cls-3" d="M662,378.91c0,3-1.84,4.61-4.07,4.61s-3.94-1.79-3.94-4.45,1.73-4.6,4.07-4.6S662,376.3,662,378.91Zm-6.8.14c0,1.87,1,3.55,2.79,3.55s2.81-1.65,2.81-3.64c0-1.75-.91-3.57-2.79-3.57S655.22,377.12,655.22,379.05Z"/><path class="cls-3" d="M663.49,383.38v-8.76h1.23l2.81,4.43a23.89,23.89,0,0,1,1.57,2.85l0,0c-.1-1.17-.13-2.23-.13-3.6v-3.66h1.07v8.76h-1.15l-2.78-4.45A27,27,0,0,1,664.5,376h0c.07,1.1.09,2.16.09,3.61v3.75Z"/><path class="cls-3" d="M620.42,430l-.91,2.76h-1.17l3-8.76h1.37l3,8.76h-1.21l-.94-2.76Zm2.87-.88-.86-2.52c-.19-.57-.32-1.1-.45-1.6h0c-.13.52-.27,1-.44,1.58l-.86,2.54Z"/><path class="cls-3" d="M626.36,432.07l4.86-7.11v0h-4.45V424h5.92v.69l-4.84,7.08v0h4.9v1h-6.39Z"/><path class="cls-3" d="M635.28,424v8.76h-1.13V424Z"/><path class="cls-3" d="M644.64,428.88c-.07-1.22-.15-2.69-.13-3.78h0c-.3,1-.67,2.12-1.11,3.33l-1.54,4.25H641l-1.42-4.18a35.34,35.34,0,0,1-1-3.4h0c0,1.09-.09,2.56-.17,3.87l-.23,3.76H637l.61-8.76h1.44l1.5,4.24c.36,1.07.66,2,.88,3h0c.22-.89.53-1.85.92-3L644,424h1.45l.54,8.76h-1.1Z"/><path class="cls-3" d="M648.83,424v5.18c0,2,.88,2.8,2,2.8s2.13-.86,2.13-2.8V424h1.14v5.11c0,2.69-1.41,3.79-3.31,3.79s-3.15-1-3.15-3.74V424Z"/><path class="cls-3" d="M657.78,424.93h-2.67v-1h6.49v1h-2.68v7.8h-1.14Z"/><path class="cls-3" d="M663.71,424v3.66H668V424h1.14v8.76H668v-4.11h-4.24v4.11h-1.13V424Z"/><path class="cls-3" d="M620.4,333.13a4,4,0,0,0,2,.57c1.15,0,1.83-.61,1.83-1.49s-.47-1.29-1.65-1.74c-1.43-.51-2.32-1.25-2.32-2.49s1.14-2.37,2.84-2.37a4,4,0,0,1,1.94.42l-.32.93a3.41,3.41,0,0,0-1.66-.42c-1.2,0-1.65.72-1.65,1.31,0,.82.53,1.23,1.74,1.69,1.48.58,2.24,1.29,2.24,2.58s-1,2.52-3.07,2.52a4.56,4.56,0,0,1-2.24-.56Z"/><path class="cls-3" d="M629.64,330.57v.85h-3.21v-.85Z"/><path class="cls-3" d="M631,325.87a10.35,10.35,0,0,1,2.07-.19,3.61,3.61,0,0,1,2.4.64,1.83,1.83,0,0,1,.73,1.55,2.08,2.08,0,0,1-1.48,1.92v0a2.25,2.25,0,0,1,1.8,2.19,2.34,2.34,0,0,1-.74,1.76,4.37,4.37,0,0,1-3,.82,11.89,11.89,0,0,1-1.76-.11Zm1.13,3.58h1c1.19,0,1.9-.62,1.9-1.47,0-1-.78-1.43-1.93-1.43a4.71,4.71,0,0,0-1,.08Zm0,4.2a6,6,0,0,0,1,.05c1.17,0,2.25-.42,2.25-1.7s-1-1.69-2.26-1.69h-.94Z"/><path class="cls-3" d="M639.48,331.75l-.91,2.76H637.4l3-8.76h1.37l3,8.76h-1.21l-.94-2.76Zm2.88-.88-.86-2.52c-.2-.57-.33-1.09-.46-1.6h0c-.13.52-.28,1.05-.44,1.59l-.86,2.53Z"/><path class="cls-3" d="M646,334.51v-8.76h1.24l2.81,4.43a27.11,27.11,0,0,1,1.57,2.85h0c-.1-1.17-.13-2.24-.13-3.61v-3.66h1.07v8.76h-1.14l-2.79-4.45a26.89,26.89,0,0,1-1.63-2.92h0c.06,1.11.09,2.16.09,3.62v3.74Z"/><path class="cls-3" d="M654.58,325.87a15.17,15.17,0,0,1,2.4-.19,5,5,0,0,1,3.55,1.1,4,4,0,0,1,1.23,3.14,4.65,4.65,0,0,1-1.26,3.41,5.39,5.39,0,0,1-3.87,1.26,16.87,16.87,0,0,1-2-.11Zm1.13,7.74a6.19,6.19,0,0,0,1.14.07,3.37,3.37,0,0,0,3.73-3.72c0-2.07-1.16-3.38-3.55-3.38a6,6,0,0,0-1.32.12Z"/><path class="cls-3" d="M665.59,334.51v-.7l.89-.87c2.16-2.06,3.14-3.15,3.15-4.42a1.51,1.51,0,0,0-1.68-1.65,2.91,2.91,0,0,0-1.79.71l-.37-.8a3.7,3.7,0,0,1,2.4-.86,2.37,2.37,0,0,1,2.58,2.45c0,1.56-1.13,2.83-2.91,4.54l-.67.63v0H671v.95Z"/><rect class="cls-3" x="572.04" y="244.1" width="4" height="11.66" transform="translate(178.2 735) rotate(-74.31)"/><rect class="cls-3" x="576.17" y="249.38" width="4" height="16.58"/><polygon class="cls-3" points="562.89 260.9 595.23 260.73 599.33 269 566.99 269.17 562.89 260.9"/><polygon class="cls-4" points="566.99 269.17 566.97 285.69 599.31 285.52 599.33 269 566.99 269.17"/><polygon class="cls-5" points="566.97 285.69 562.85 293.95 595.18 293.77 599.31 285.52 566.97 285.69"/><polygon class="cls-5" points="562.89 261.72 566.77 269.52 566.75 285.11 562.86 292.91 558.98 285.1 559 269.51 562.89 261.72"/><path class="cls-3" d="M562.85,294l-4.37-8.81,0-15.83,4.4-8.79,4.37,8.8,0,15.83Zm-3.37-9,3.38,6.79,3.39-6.78,0-15.36-3.38-6.8-3.39,6.79Z"/><circle class="cls-3" cx="566.85" cy="246.91" r="6.06"/><polygon class="cls-4" points="526.08 238.55 561.62 254.01 571.61 239.13 543.61 212.41 526.08 238.55"/><ellipse class="cls-6" cx="534.84" cy="225.48" rx="15.74" ry="2.61" transform="translate(49.6 543.97) rotate(-56.14)"/><path class="cls-3" d="M554.55,181.2a5.5,5.5,0,0,0,2.37.59c1,0,1.5-.41,1.5-1s-.45-.92-1.59-1.33c-1.57-.54-2.59-1.41-2.59-2.78,0-1.61,1.35-2.85,3.57-2.85a5.79,5.79,0,0,1,2.41.48l-.47,1.72a4.56,4.56,0,0,0-2-.45c-.92,0-1.37.42-1.37.91s.53.87,1.75,1.33c1.67.62,2.45,1.49,2.45,2.82,0,1.58-1.22,2.93-3.81,2.93a6.13,6.13,0,0,1-2.68-.58Z"/><path class="cls-3" d="M565.37,179v1.42H561.7V179Z"/><path class="cls-3" d="M566.71,174.08a17.42,17.42,0,0,1,2.76-.19,5.16,5.16,0,0,1,2.79.53,2.05,2.05,0,0,1,1.14,1.85,2.14,2.14,0,0,1-1.56,2v0a2.37,2.37,0,0,1,1.88,2.33,2.5,2.5,0,0,1-1,2,5.94,5.94,0,0,1-3.71.86,16.73,16.73,0,0,1-2.32-.14Zm2.12,3.62h.7c1.12,0,1.72-.47,1.72-1.17s-.54-1.09-1.51-1.09a5.44,5.44,0,0,0-.91.06Zm0,4.18a6.3,6.3,0,0,0,.83,0c1,0,1.82-.36,1.82-1.36s-.86-1.33-1.92-1.33h-.73Z"/><path class="cls-3" d="M577.31,181l-.67,2.43h-2.21l2.88-9.44h2.81L583,183.4h-2.29L580,181Zm2.4-1.59-.59-2c-.17-.56-.34-1.26-.48-1.82h0c-.14.56-.28,1.28-.44,1.82l-.56,2Z"/><path class="cls-3" d="M584.3,183.4V174h2.49l2,3.46a27.3,27.3,0,0,1,1.54,3.23h.05a34.85,34.85,0,0,1-.19-3.93V174h2v9.44h-2.24l-2-3.64a34.5,34.5,0,0,1-1.64-3.34l0,0c.05,1.24.08,2.57.08,4.11v2.85Z"/><path class="cls-3" d="M594,174.08a20,20,0,0,1,2.89-.19,6.1,6.1,0,0,1,3.86,1,4.2,4.2,0,0,1,1.6,3.56,4.8,4.8,0,0,1-1.57,3.83,6.82,6.82,0,0,1-4.36,1.22,18.49,18.49,0,0,1-2.42-.14Zm2.14,7.71a4.24,4.24,0,0,0,.75,0c1.93,0,3.19-1.05,3.19-3.31a2.71,2.71,0,0,0-3-3,4.73,4.73,0,0,0-1,.08Z"/><path class="cls-3" d="M550,197.77l-.67,2.43h-2.21l2.88-9.44h2.8l2.93,9.44h-2.3l-.72-2.43Zm2.4-1.59-.59-2c-.17-.56-.34-1.26-.48-1.82h0c-.14.56-.28,1.28-.43,1.82l-.56,2Z"/><path class="cls-3" d="M557,200.2v-9.44h2.49l2,3.46a27.3,27.3,0,0,1,1.54,3.23h0a34.94,34.94,0,0,1-.18-3.93v-2.76h2v9.44H562.6l-2-3.64a34.45,34.45,0,0,1-1.63-3.34l-.05,0c.06,1.24.09,2.57.09,4.11v2.85Z"/><path class="cls-3" d="M568.51,192.55H566v-1.79h7.26v1.79h-2.58v7.65h-2.14Z"/><path class="cls-3" d="M580,196.21H576.5v2.24h3.88v1.75h-6v-9.44h5.83v1.75H576.5v2H580Z"/><path class="cls-3" d="M581.83,200.2v-9.44h2.5l2,3.46a27.3,27.3,0,0,1,1.54,3.23h0a34.94,34.94,0,0,1-.18-3.93v-2.76h2v9.44h-2.24l-2-3.64a37,37,0,0,1-1.64-3.34l0,0c.06,1.24.09,2.57.09,4.11v2.85Z"/><path class="cls-3" d="M591.49,200.2v-9.44H594l2,3.46a27.3,27.3,0,0,1,1.54,3.23h0a34.94,34.94,0,0,1-.18-3.93v-2.76h2v9.44h-2.24l-2-3.64a37,37,0,0,1-1.64-3.34l0,0c.06,1.24.09,2.57.09,4.11v2.85Z"/><path class="cls-3" d="M603.35,197.77l-.67,2.43h-2.21l2.88-9.44h2.81l2.92,9.44h-2.29l-.73-2.43Zm2.4-1.59-.59-2c-.17-.56-.33-1.26-.48-1.82h0c-.14.56-.28,1.28-.44,1.82l-.56,2Z"/><path class="cls-3" d="M119.09,475.75a10.31,10.31,0,0,1-3.15.53A5.27,5.27,0,0,1,112.1,475a4.62,4.62,0,0,1-1.33-3.43c0-3.14,2.3-4.93,5.4-4.93a6.61,6.61,0,0,1,2.62.46l-.45,1.71a5.13,5.13,0,0,0-2.2-.41,3.08,3.08,0,0,0-.16,6.15,2.76,2.76,0,0,0,1.06-.14v-2h-1.46v-1.67h3.51Z"/><path class="cls-3" d="M120.76,466.87a19,19,0,0,1,2.84-.19,4.82,4.82,0,0,1,3.05.74,2.39,2.39,0,0,1,.87,2,2.5,2.5,0,0,1-1.67,2.33v0a2.4,2.4,0,0,1,1.27,1.77,25.77,25.77,0,0,0,.77,2.66H125.7A12.3,12.3,0,0,1,125,474c-.25-1.18-.66-1.5-1.52-1.52h-.65v3.72h-2.11Zm2.11,4.06h.84c1.07,0,1.7-.53,1.7-1.35s-.59-1.31-1.57-1.32a5.23,5.23,0,0,0-1,.07Z"/><path class="cls-3" d="M137.64,471.37c0,3.09-1.87,5-4.63,5s-4.44-2.11-4.44-4.8,1.8-5,4.59-5S137.64,468.76,137.64,471.37Zm-6.82.12c0,1.85.87,3.16,2.3,3.16s2.27-1.38,2.27-3.21-.81-3.15-2.28-3.15S130.82,469.66,130.82,471.49Z"/><path class="cls-3" d="M141.17,466.75v5.43c0,1.63.62,2.45,1.71,2.45s1.73-.78,1.73-2.45v-5.43h2.13V472c0,2.91-1.47,4.3-3.93,4.3S139,475,139,472v-5.26Z"/><path class="cls-3" d="M148.59,476.19v-9.44h2.49l2,3.46a27.3,27.3,0,0,1,1.54,3.23h0a35.12,35.12,0,0,1-.18-3.94v-2.75h2v9.44h-2.24l-2-3.65a31.21,31.21,0,0,1-1.64-3.33h0c.06,1.25.09,2.58.09,4.12v2.85Z"/><path class="cls-3" d="M158.25,466.87a19.82,19.82,0,0,1,2.88-.19,6.11,6.11,0,0,1,3.87,1,4.2,4.2,0,0,1,1.6,3.56,4.8,4.8,0,0,1-1.57,3.83,6.84,6.84,0,0,1-4.36,1.21,18.37,18.37,0,0,1-2.42-.14Zm2.14,7.71a4.12,4.12,0,0,0,.74,0c1.94,0,3.2-1.05,3.2-3.31a2.71,2.71,0,0,0-3-3,4.46,4.46,0,0,0-1,.09Z"/><path class="cls-3" d="M170.82,476.19v-9.44h2.49l2,3.46a27.3,27.3,0,0,1,1.54,3.23h.05a35,35,0,0,1-.19-3.94v-2.75h2v9.44h-2.25l-2-3.65a33.23,33.23,0,0,1-1.64-3.33h0c.05,1.25.08,2.58.08,4.12v2.85Z"/><path class="cls-3" d="M186.1,472.19h-3.48v2.25h3.88v1.75h-6v-9.44h5.83v1.75h-3.69v2h3.48Z"/><path class="cls-3" d="M189.85,468.54h-2.54v-1.79h7.26v1.79H192v7.65h-2.14Z"/><path class="cls-3" d="M197.62,476.19l-2.24-9.44h2.28l.71,3.89c.21,1.12.41,2.34.56,3.29h0c.16-1,.38-2.16.62-3.32l.8-3.86h2.27l.75,4c.21,1.11.37,2.12.51,3.17h0c.14-1.05.35-2.16.55-3.28l.77-3.86h2.17L205,476.19h-2.31l-.79-4.07a29.21,29.21,0,0,1-.45-2.91h0c-.17,1.07-.32,2-.55,2.91l-.89,4.07Z"/><path class="cls-3" d="M217.05,471.37c0,3.09-1.88,5-4.63,5s-4.45-2.11-4.45-4.8,1.81-5,4.6-5S217.05,468.76,217.05,471.37Zm-6.82.12c0,1.85.87,3.16,2.3,3.16s2.27-1.38,2.27-3.21-.82-3.15-2.29-3.15S210.23,469.66,210.23,471.49Z"/><path class="cls-3" d="M218.45,466.87a19.08,19.08,0,0,1,2.84-.19,4.82,4.82,0,0,1,3.05.74,2.39,2.39,0,0,1,.87,2,2.51,2.51,0,0,1-1.66,2.33v0a2.42,2.42,0,0,1,1.26,1.77,25.77,25.77,0,0,0,.77,2.66h-2.19a12.3,12.3,0,0,1-.66-2.2c-.25-1.18-.65-1.5-1.52-1.52h-.65v3.72h-2.11Zm2.11,4.06h.84c1.07,0,1.7-.53,1.7-1.35s-.59-1.31-1.57-1.32a5.23,5.23,0,0,0-1,.07Z"/><path class="cls-3" d="M226.75,466.75h2.11v4.17h0c.21-.36.43-.7.64-1l2.14-3.13h2.62l-3.12,4,3.29,5.42H232l-2.31-4.08-.82,1v3.09h-2.11Z"/><path class="cls-3" d="M477.36,248.23a60.71,60.71,0,0,1,32.18-79.5l1.56,3.68A56.62,56.62,0,0,0,481,246.66Z"/><path class="cls-3" d="M493.67,243a43,43,0,0,1,22.8-56.33l1.56,3.68a39,39,0,0,0-20.68,51.09Z"/><path class="cls-3" d="M507.64,234.77A24.26,24.26,0,0,1,520.5,203l1.56,3.68a20.26,20.26,0,0,0-10.74,26.52Z"/><rect class="cls-3" x="726.82" y="412.86" width="52.24" height="3"/><polygon class="cls-3" points="732.71 422.13 729.41 414.36 732.71 406.58 714.28 414.36 732.71 422.13"/><rect class="cls-3" x="726.82" y="376.46" width="52.21" height="3"/><polygon class="cls-3" points="732.71 385.74 729.41 377.96 732.71 370.18 714.28 377.96 732.71 385.74"/><rect class="cls-3" x="776.08" y="550.88" width="45.93" height="3"/><polygon class="cls-3" points="816.11 544.61 819.41 552.38 816.11 560.16 834.54 552.38 816.11 544.61"/><rect class="cls-3" x="776.09" y="230.07" width="45.92" height="3"/><polygon class="cls-3" points="816.11 223.79 819.41 231.57 816.11 239.34 834.54 231.57 816.11 223.79"/><rect class="cls-3" x="776.08" y="231.57" width="3" height="146.39"/><rect class="cls-3" x="776.08" y="414.36" width="3" height="138.03"/></g><g id="Layer_3" data-name="Layer 3"><polygon class="cls-3" points="138.16 650.67 125.38 650.67 102.28 705.26 154.87 705.26 138.16 650.67"/><path class="cls-1" d="M156.22,706.26H100.77l24-56.59H138.9Zm-52.44-2h49.74l-16.1-52.59H126.05Z"/><circle class="cls-3" cx="130.57" cy="650.67" r="13.65"/><path class="cls-3" d="M70.27,563.18c-1.91,28.49,23.19,63.05,63.48,83.71s83.21,20.86,105.19,2.53Z"/><path class="cls-1" d="M195.24,663.79c-19.36,0-41.18-5.36-62-16-39.67-20.35-66-55.16-64-84.67l.1-1.52,1.35.7,170,86.93-1.16,1C228.69,659.28,213,663.79,195.24,663.79Zm-124-99c-.93,28.41,24.72,61.59,63,81.23s80.43,21.1,102.91,3.61Z"/><circle class="cls-3" cx="172.35" cy="566.12" r="12.92"/><path class="cls-1" d="M172.35,580a13.92,13.92,0,1,1,13.92-13.92A13.93,13.93,0,0,1,172.35,580Zm0-25.84a11.92,11.92,0,1,0,11.92,11.92A11.94,11.94,0,0,0,172.35,554.2Z"/><rect class="cls-3" x="86.15" y="570.08" width="86.68" height="5" transform="translate(-83.9 25.7) rotate(-8.57)"/><rect class="cls-3" x="187.92" y="561.78" width="5" height="79.57" transform="translate(-252.39 152.06) rotate(-27.01)"/><rect class="cls-3" x="126.87" y="591.71" width="62.83" height="5" transform="translate(-443.91 469.73) rotate(-63.4)"/></g></svg>