<svg xmlns="http://www.w3.org/2000/svg" viewBox="0 0 1190 700"><defs><style>.cls-1{fill:#434343;}.cls-2{fill:#231f20;}.cls-3{fill:#fff;}.cls-4{fill:#ddd;}</style></defs><g id="Layer_1" data-name="Layer 1"><rect class="cls-1" x="-1.59" y="-7.19" width="1203.33" height="713.33"/><path class="cls-2" d="M1202.24,706.64H-2.09V-7.69H1202.24Zm-1203.33-1H1201.24V-6.69H-1.09Z"/></g><g id="Layer_2" data-name="Layer 2"><rect class="cls-3" x="573.37" y="265.23" width="12" height="42.43"/><path class="cls-3" d="M105.35,41h-2.54V39.24h7.26V41h-2.58v7.65h-2.14Z"/><path class="cls-3" d="M111.2,39.36a20,20,0,0,1,2.89-.19,6,6,0,0,1,3.86,1,4.16,4.16,0,0,1,1.6,3.55A4.8,4.8,0,0,1,118,47.56a6.78,6.78,0,0,1-4.36,1.22,18.49,18.49,0,0,1-2.42-.14Zm2.14,7.71a4.24,4.24,0,0,0,.75,0c1.93,0,3.19-1,3.19-3.31a2.71,2.71,0,0,0-3-3,4.73,4.73,0,0,0-1,.08Z"/><path class="cls-3" d="M120.94,39.36a19.23,19.23,0,0,1,2.85-.19,4.82,4.82,0,0,1,3,.74,2.41,2.41,0,0,1,.87,2A2.49,2.49,0,0,1,126,44.21v0A2.37,2.37,0,0,1,127.3,46c.3,1.06.59,2.29.77,2.66h-2.18a11.47,11.47,0,0,1-.66-2.2C125,45.3,124.57,45,123.7,45h-.64v3.71h-2.12Zm2.12,4.07h.84c1.06,0,1.69-.54,1.69-1.36s-.58-1.3-1.56-1.32a5.14,5.14,0,0,0-1,.07Z"/><path class="cls-3" d="M129.32,46.48a5.46,5.46,0,0,0,2.36.59c1,0,1.5-.41,1.5-1s-.45-.93-1.58-1.33C130,44.17,129,43.3,129,41.93c0-1.61,1.34-2.85,3.57-2.85a5.83,5.83,0,0,1,2.41.48l-.48,1.72a4.51,4.51,0,0,0-2-.45c-.93,0-1.37.43-1.37.92s.53.86,1.75,1.33c1.66.61,2.45,1.48,2.45,2.81,0,1.58-1.22,2.93-3.81,2.93a6.1,6.1,0,0,1-2.68-.58Z"/><path class="cls-3" d="M139.7,46.48a5.54,5.54,0,0,0,2.37.59c1,0,1.5-.41,1.5-1s-.45-.93-1.58-1.33c-1.57-.55-2.59-1.42-2.59-2.79,0-1.61,1.34-2.85,3.57-2.85a5.83,5.83,0,0,1,2.41.48l-.48,1.72a4.51,4.51,0,0,0-2-.45c-.93,0-1.38.43-1.38.92s.54.86,1.75,1.33c1.67.61,2.46,1.48,2.46,2.81,0,1.58-1.22,2.93-3.81,2.93a6.1,6.1,0,0,1-2.68-.58Z"/><path class="cls-3" d="M149.39,46.26l-.67,2.42h-2.21l2.88-9.44h2.8l2.93,9.44h-2.29l-.73-2.42Zm2.4-1.6-.59-2c-.17-.56-.34-1.26-.48-1.83h0c-.14.57-.28,1.28-.44,1.83l-.56,2Z"/><path class="cls-3" d="M157,41H154.5V39.24h7.26V41h-2.58v7.65H157Z"/><path class="cls-3" d="M168.5,44.69H165v2.24h3.88v1.75h-6V39.24h5.82V41H165v2h3.47Z"/><path class="cls-3" d="M170.36,39.24h2.15v7.65h3.75v1.79h-5.9Z"/><path class="cls-3" d="M177.52,39.24h2.14v7.65h3.75v1.79h-5.89Z"/><path class="cls-3" d="M186.81,39.24v9.44h-2.14V39.24Z"/><path class="cls-3" d="M190.48,41H188V39.24h7.25V41h-2.57v7.65h-2.15Z"/><path class="cls-3" d="M202,44.69h-3.47v2.24h3.88v1.75h-6V39.24h5.83V41h-3.68v2H202Z"/><rect class="cls-4" x="135.65" y="95.35" width="45.28" height="5" transform="translate(24.63 227.33) rotate(-75.81)"/><rect class="cls-4" x="124.55" y="139.25" width="45.28" height="5" transform="translate(-26.31 249.71) rotate(-75.81)"/><rect class="cls-4" x="134.17" y="93.49" width="5" height="36.14" transform="translate(-24.96 182.27) rotate(-62.85)"/><rect class="cls-4" x="116.72" y="117.88" width="36.04" height="5" transform="translate(-3.81 4.4) rotate(-1.85)"/><rect class="cls-4" x="152.69" y="116.72" width="36.14" height="5" transform="translate(-4.99 7.48) rotate(-2.47)"/><rect class="cls-4" x="166.32" y="110.03" width="5" height="36.04" transform="translate(-21.15 221.9) rotate(-63.47)"/><rect class="cls-3" x="41.11" y="88.83" width="84.73" height="26.9" transform="translate(27.62 -17.34) rotate(14.19)"/><rect class="cls-3" x="181.37" y="124.3" width="84.73" height="26.9" transform="translate(40.6 -50.65) rotate(14.19)"/><rect class="cls-3" x="139.29" y="106.35" width="26.9" height="26.9" transform="translate(34.03 -33.79) rotate(14.19)"/><circle class="cls-3" cx="163.84" cy="75.91" r="16.97"/><circle class="cls-3" cx="141.64" cy="163.69" r="16.97"/><path class="cls-3" d="M143.22,240a56.65,56.65,0,0,1-27.91-7.38l2-3.49A53,53,0,0,0,189.36,209l3.48,2a57.05,57.05,0,0,1-49.62,29Z"/><path class="cls-3" d="M144.45,222.36a40.13,40.13,0,0,1-19.77-5.2l2-3.49a36.4,36.4,0,0,0,49.54-13.79l3.48,2A40.39,40.39,0,0,1,144.45,222.36Z"/><path class="cls-3" d="M145.67,207.81a22.71,22.71,0,0,1-11.19-3l2-3.48a18.81,18.81,0,0,0,25.63-7.14l3.48,2A22.68,22.68,0,0,1,151.82,207,23.14,23.14,0,0,1,145.67,207.81Z"/><path class="cls-3" d="M233,538.12a60,60,0,0,0-77.49-34.34L154,500a64,64,0,0,1,82.66,36.64Z"/><path class="cls-3" d="M213.75,544.82a41.32,41.32,0,0,0-53.36-23.65L159,517.44a45.33,45.33,0,0,1,58.53,25.94Z"/><path class="cls-3" d="M196.39,548.51a21.47,21.47,0,0,0-27.77-12.31l-1.43-3.73a25.46,25.46,0,0,1,32.94,14.6Z"/><rect class="cls-1" x="851.94" y="534.32" width="233.24" height="96.13" rx="12"/><path class="cls-3" d="M1073.18,632H863.94a13.51,13.51,0,0,1-13.5-13.5V546.32a13.51,13.51,0,0,1,13.5-13.5h209.24a13.52,13.52,0,0,1,13.5,13.5v72.13A13.51,13.51,0,0,1,1073.18,632ZM863.94,535.82a10.51,10.51,0,0,0-10.5,10.5v72.13a10.51,10.51,0,0,0,10.5,10.5h209.24a10.51,10.51,0,0,0,10.5-10.5V546.32a10.51,10.51,0,0,0-10.5-10.5Z"/><path class="cls-3" d="M884.58,581.56a6.73,6.73,0,0,1-2.7.46c-3.65,0-5.52-2.27-5.52-5.27,0-3.6,2.56-5.6,5.75-5.6a6.23,6.23,0,0,1,2.6.47l-.49,1.89a5.2,5.2,0,0,0-2-.39,3.47,3.47,0,0,0,0,6.93,5.85,5.85,0,0,0,2-.35Z"/><path class="cls-3" d="M895.33,576.48c0,3.46-2.1,5.55-5.18,5.55s-5-2.36-5-5.36c0-3.16,2-5.52,5.13-5.52S895.33,573.57,895.33,576.48Zm-7.62.14c0,2.07,1,3.52,2.56,3.52s2.54-1.53,2.54-3.58c0-1.89-.91-3.52-2.55-3.52S887.71,574.57,887.71,576.62Z"/><path class="cls-3" d="M905.8,577.83c0-1.27-.09-2.8-.09-4.34h-.05c-.33,1.35-.77,2.85-1.17,4.09l-1.28,4.11h-1.87l-1.12-4.08c-.35-1.24-.71-2.74-1-4.12h0c-.06,1.43-.11,3-.19,4.37l-.18,4h-2.21l.67-10.54h3.18l1,3.52c.33,1.22.66,2.53.89,3.77h.05c.3-1.22.66-2.61,1-3.79l1.13-3.5h3.11l.58,10.54H906Z"/><path class="cls-3" d="M919,577.83c0-1.27-.09-2.8-.09-4.34h-.05c-.33,1.35-.77,2.85-1.17,4.09l-1.29,4.11h-1.86l-1.12-4.08c-.35-1.24-.71-2.74-1-4.12h0c-.06,1.43-.11,3-.19,4.37l-.18,4h-2.21l.67-10.54h3.18l1,3.52c.33,1.22.66,2.53.89,3.77h.05c.3-1.22.66-2.61,1-3.79l1.13-3.5h3.11l.58,10.54h-2.33Z"/><path class="cls-3" d="M925.75,579.16l-.75,2.7h-2.47l3.22-10.54h3.13l3.27,10.54h-2.57l-.81-2.7Zm2.68-1.79-.66-2.23c-.19-.63-.38-1.41-.53-2h0c-.16.63-.32,1.43-.49,2l-.62,2.23Z"/><path class="cls-3" d="M933.55,581.86V571.32h2.79l2.19,3.86a31.56,31.56,0,0,1,1.72,3.62h0a38.41,38.41,0,0,1-.21-4.4v-3.08h2.19v10.54h-2.5l-2.25-4.06a36.87,36.87,0,0,1-1.83-3.73l-.05,0c.06,1.39.09,2.88.09,4.6v3.17Z"/><path class="cls-3" d="M944.34,571.46a21.47,21.47,0,0,1,3.23-.22,6.73,6.73,0,0,1,4.31,1.13,4.65,4.65,0,0,1,1.79,4,5.34,5.34,0,0,1-1.76,4.27,7.58,7.58,0,0,1-4.86,1.36,22.63,22.63,0,0,1-2.71-.15Zm2.4,8.6a4.1,4.1,0,0,0,.83.05c2.15,0,3.56-1.17,3.56-3.69a3,3,0,0,0-3.31-3.35,4.59,4.59,0,0,0-1.08.1Z"/><path class="cls-3" d="M960.84,579.16l-.75,2.7h-2.47l3.22-10.54H964l3.27,10.54h-2.57l-.81-2.7Zm2.68-1.79-.66-2.23c-.19-.63-.38-1.41-.53-2h0c-.16.63-.32,1.43-.49,2l-.62,2.23Z"/><path class="cls-3" d="M968.64,581.86V571.32h2.79l2.19,3.86a31.56,31.56,0,0,1,1.72,3.62h0a40.92,40.92,0,0,1-.2-4.4v-3.08h2.19v10.54h-2.5l-2.25-4.06a36.87,36.87,0,0,1-1.83-3.73l0,0c.06,1.39.09,2.88.09,4.6v3.17Z"/><path class="cls-3" d="M979.43,571.46a21.42,21.42,0,0,1,3.22-.22,6.74,6.74,0,0,1,4.32,1.13,4.64,4.64,0,0,1,1.78,4,5.33,5.33,0,0,1-1.75,4.27,7.58,7.58,0,0,1-4.86,1.36,22.63,22.63,0,0,1-2.71-.15Zm2.4,8.6a4,4,0,0,0,.82.05c2.16,0,3.57-1.17,3.57-3.69a3,3,0,0,0-3.32-3.35,4.56,4.56,0,0,0-1.07.1Z"/><path class="cls-3" d="M1001.22,581.56a6.79,6.79,0,0,1-2.71.46c-3.64,0-5.52-2.27-5.52-5.27,0-3.6,2.56-5.6,5.76-5.6a6.17,6.17,0,0,1,2.59.47l-.48,1.89a5.26,5.26,0,0,0-2-.39,3.47,3.47,0,0,0,0,6.93,5.91,5.91,0,0,0,2-.35Z"/><path class="cls-3" d="M1012,576.48c0,3.46-2.1,5.55-5.18,5.55s-5-2.36-5-5.36c0-3.16,2-5.52,5.13-5.52S1012,573.57,1012,576.48Zm-7.62.14c0,2.07,1,3.52,2.57,3.52s2.53-1.53,2.53-3.58c0-1.89-.91-3.52-2.55-3.52S1004.34,574.57,1004.34,576.62Z"/><path class="cls-3" d="M1013.52,581.86V571.32h2.78l2.19,3.86a28.53,28.53,0,0,1,1.72,3.62h0a40.92,40.92,0,0,1-.2-4.4v-3.08h2.19v10.54h-2.5l-2.26-4.06c-.62-1.13-1.31-2.49-1.83-3.73l0,0c.06,1.39.09,2.88.09,4.6v3.17Z"/><path class="cls-3" d="M1026.34,573.32h-2.83v-2h8.1v2h-2.87v8.54h-2.4Z"/><path class="cls-3" d="M1032.88,571.46a21.66,21.66,0,0,1,3.17-.22,5.4,5.4,0,0,1,3.41.83,2.67,2.67,0,0,1,1,2.21,2.79,2.79,0,0,1-1.86,2.59v0a2.66,2.66,0,0,1,1.41,2c.33,1.19.66,2.57.86,3h-2.44a13.19,13.19,0,0,1-.73-2.45c-.29-1.32-.74-1.68-1.71-1.69h-.72v4.14h-2.36Zm2.36,4.54h.94c1.19,0,1.89-.6,1.89-1.52s-.65-1.45-1.75-1.47a6,6,0,0,0-1.08.08Z"/><path class="cls-3" d="M1051.74,576.48c0,3.46-2.1,5.55-5.18,5.55s-5-2.36-5-5.36c0-3.16,2-5.52,5.13-5.52S1051.74,573.57,1051.74,576.48Zm-7.62.14c0,2.07,1,3.52,2.57,3.52s2.53-1.53,2.53-3.58c0-1.89-.91-3.52-2.55-3.52S1044.12,574.57,1044.12,576.62Z"/><path class="cls-3" d="M1053.3,571.32h2.39v8.54h4.2v2h-6.59Z"/><path class="cls-3" d="M933,600.33a6.83,6.83,0,0,1-2.71.45c-3.64,0-5.52-2.26-5.52-5.27,0-3.59,2.57-5.6,5.76-5.6a6.17,6.17,0,0,1,2.59.47l-.48,1.89a5.24,5.24,0,0,0-2-.39,3.47,3.47,0,0,0,0,6.93,5.93,5.93,0,0,0,2-.34Z"/><path class="cls-3" d="M943.72,595.25c0,3.45-2.1,5.55-5.18,5.55s-4.95-2.36-4.95-5.37,2-5.52,5.13-5.52S943.72,592.34,943.72,595.25Zm-7.62.14c0,2.06,1,3.52,2.57,3.52s2.53-1.54,2.53-3.59c0-1.89-.91-3.51-2.55-3.51S936.1,593.34,936.1,595.39Z"/><path class="cls-3" d="M954.2,596.59c-.05-1.27-.1-2.8-.1-4.33h0c-.33,1.34-.77,2.85-1.18,4.08l-1.28,4.12h-1.86l-1.13-4.09c-.34-1.23-.7-2.73-1-4.11h0c-.06,1.42-.11,3-.19,4.36l-.19,4h-2.2l.67-10.55h3.18l1,3.52c.33,1.22.65,2.54.89,3.77h0c.29-1.22.65-2.61,1-3.78l1.12-3.51h3.12l.57,10.55h-2.33Z"/><path class="cls-3" d="M958.51,590.23a19,19,0,0,1,3.22-.22,5.06,5.06,0,0,1,3.22.84,3.06,3.06,0,0,1,1.13,2.44,3.34,3.34,0,0,1-1,2.5,4.86,4.86,0,0,1-3.42,1.11,6.4,6.4,0,0,1-.82,0v3.77h-2.36Zm2.36,4.78a3.56,3.56,0,0,0,.8.06c1.27,0,2.05-.64,2.05-1.72s-.67-1.54-1.86-1.54a4,4,0,0,0-1,.09Z"/><path class="cls-3" d="M970,590.08v6.07c0,1.82.69,2.74,1.91,2.74s1.94-.88,1.94-2.74v-6.07h2.38V596c0,3.25-1.64,4.8-4.4,4.8s-4.22-1.47-4.22-4.83v-5.89Z"/><path class="cls-3" d="M980.29,592.09h-2.83v-2h8.1v2h-2.87v8.54h-2.4Z"/><path class="cls-3" d="M993.1,596.17h-3.88v2.5h4.33v2h-6.72V590.08h6.51v2h-4.12v2.19h3.88Z"/><path class="cls-3" d="M995.18,590.23a20.34,20.34,0,0,1,3.17-.22,5.33,5.33,0,0,1,3.41.83,2.65,2.65,0,0,1,1,2.2,2.79,2.79,0,0,1-1.86,2.6v0a2.68,2.68,0,0,1,1.41,2c.33,1.18.66,2.56.86,3h-2.44a13.4,13.4,0,0,1-.73-2.46c-.29-1.31-.74-1.67-1.71-1.69h-.72v4.15h-2.36Zm2.36,4.53h.94c1.19,0,1.89-.59,1.89-1.52s-.65-1.45-1.75-1.47a6,6,0,0,0-1.08.08Z"/><path class="cls-3" d="M1004.53,598.17a6.06,6.06,0,0,0,2.64.66c1.1,0,1.68-.45,1.68-1.14s-.5-1-1.77-1.49c-1.75-.61-2.89-1.58-2.89-3.11,0-1.8,1.5-3.18,4-3.18a6.29,6.29,0,0,1,2.69.54l-.53,1.92a5,5,0,0,0-2.2-.5c-1,0-1.54.47-1.54,1s.6,1,2,1.49c1.86.69,2.74,1.66,2.74,3.14,0,1.77-1.36,3.27-4.26,3.27a6.84,6.84,0,0,1-3-.64Z"/><rect class="cls-1" x="851.94" y="145.25" width="233.24" height="96.13" rx="12"/><path class="cls-3" d="M1073.18,242.88H863.94a13.51,13.51,0,0,1-13.5-13.5V157.25a13.51,13.51,0,0,1,13.5-13.5h209.24a13.52,13.52,0,0,1,13.5,13.5v72.13A13.51,13.51,0,0,1,1073.18,242.88ZM863.94,146.75a10.51,10.51,0,0,0-10.5,10.5v72.13a10.51,10.51,0,0,0,10.5,10.5h209.24a10.51,10.51,0,0,0,10.5-10.5V157.25a10.51,10.51,0,0,0-10.5-10.5Z"/><path class="cls-3" d="M930.32,188.34h-3.88v2.5h4.33v1.95h-6.72V182.25h6.5v2h-4.11v2.19h3.88Z"/><path class="cls-3" d="M938,192.79l-1-1.9c-.4-.74-.65-1.29-.94-1.9h0c-.22.61-.49,1.16-.82,1.9l-.87,1.9h-2.72l3-5.33-2.95-5.21h2.74l.92,1.93c.32.64.55,1.15.8,1.75h0c.25-.67.46-1.14.72-1.75l.89-1.93h2.73l-3,5.15,3.13,5.39Z"/><path class="cls-3" d="M942,182.39a20.14,20.14,0,0,1,3.22-.22,5.11,5.11,0,0,1,3.23.85,3.09,3.09,0,0,1,1.12,2.44,3.34,3.34,0,0,1-1,2.5,6,6,0,0,1-4.24,1.06v3.77H942Zm2.36,4.79a3.56,3.56,0,0,0,.8.06c1.27,0,2.05-.64,2.05-1.72s-.67-1.55-1.86-1.55a3.88,3.88,0,0,0-1,.1Z"/><path class="cls-3" d="M957.34,188.34h-3.88v2.5h4.33v1.95h-6.72V182.25h6.5v2h-4.11v2.19h3.88Z"/><path class="cls-3" d="M959.42,182.39a21.55,21.55,0,0,1,3.17-.22A5.4,5.4,0,0,1,966,183a2.67,2.67,0,0,1,1,2.21,2.8,2.8,0,0,1-1.86,2.6v0a2.66,2.66,0,0,1,1.41,2c.33,1.19.66,2.57.86,3h-2.44a13.45,13.45,0,0,1-.74-2.45c-.28-1.32-.73-1.67-1.7-1.69h-.72v4.14h-2.36Zm2.36,4.54h.94c1.19,0,1.89-.6,1.89-1.52s-.66-1.45-1.75-1.47a6,6,0,0,0-1.08.08Z"/><path class="cls-3" d="M971.08,182.25v10.54h-2.39V182.25Z"/><path class="cls-3" d="M982.06,188.76c0-1.27-.09-2.8-.09-4.33h-.05c-.33,1.34-.77,2.84-1.17,4.08l-1.29,4.11H977.6l-1.12-4.08c-.35-1.24-.71-2.74-1-4.11h0c-.06,1.42-.11,3-.19,4.36l-.18,4h-2.21l.67-10.54h3.18l1,3.52c.33,1.22.66,2.54.89,3.77h.05c.3-1.22.66-2.61,1-3.78l1.13-3.51H984l.58,10.54h-2.33Z"/><path class="cls-3" d="M992.65,188.34h-3.88v2.5h4.33v1.95h-6.72V182.25h6.5v2h-4.11v2.19h3.88Z"/><path class="cls-3" d="M994.73,192.79V182.25h2.78l2.19,3.87a29.84,29.84,0,0,1,1.72,3.61h.05a38.3,38.3,0,0,1-.21-4.4v-3.08h2.19v10.54H1001l-2.25-4.06a37.76,37.76,0,0,1-1.83-3.72h0c.06,1.39.1,2.88.1,4.6v3.17Z"/><path class="cls-3" d="M1007.55,184.25h-2.83v-2h8.1v2h-2.88v8.54h-2.39Z"/><path class="cls-3" d="M938.46,211.26a6.79,6.79,0,0,1-2.71.46c-3.64,0-5.52-2.27-5.52-5.28,0-3.59,2.57-5.59,5.76-5.59a6.38,6.38,0,0,1,2.59.46l-.48,1.9a5.06,5.06,0,0,0-2-.39,3.46,3.46,0,0,0,0,6.92,5.93,5.93,0,0,0,2-.34Z"/><path class="cls-3" d="M942.41,201v4h3.93v-4h2.38v10.54h-2.38v-4.41h-3.93v4.41H940V201Z"/><path class="cls-3" d="M953.25,208.85l-.75,2.71H950L953.25,201h3.13l3.27,10.54h-2.57l-.81-2.71Zm2.67-1.78-.65-2.24c-.19-.62-.38-1.4-.54-2h0c-.15.63-.31,1.42-.48,2l-.63,2.24Z"/><path class="cls-3" d="M961.05,211.56V201h2.78l2.19,3.86a30.64,30.64,0,0,1,1.73,3.61h0a40.61,40.61,0,0,1-.2-4.39V201h2.19v10.54h-2.5L965,207.49a40.17,40.17,0,0,1-1.83-3.72l0,0c.06,1.39.09,2.87.09,4.59v3.18Z"/><path class="cls-3" d="M971.84,211.56V201h2.78l2.19,3.86a30.57,30.57,0,0,1,1.72,3.61h.05a38.2,38.2,0,0,1-.2-4.39V201h2.19v10.54h-2.51l-2.25-4.07a40.17,40.17,0,0,1-1.83-3.72l0,0c.06,1.39.09,2.87.09,4.59v3.18Z"/><path class="cls-3" d="M988.9,207.1H985v2.5h4.33v2h-6.72V201h6.51V203H985v2.19h3.88Z"/><path class="cls-3" d="M991,201h2.39v8.54h4.19v2H991Z"/><path class="cls-3" d="M999.05,209.1a6,6,0,0,0,2.64.66c1.1,0,1.67-.45,1.67-1.14s-.5-1-1.76-1.49c-1.75-.61-2.9-1.58-2.9-3.11,0-1.8,1.51-3.17,4-3.17a6.46,6.46,0,0,1,2.69.53l-.53,1.92a5,5,0,0,0-2.2-.5c-1,0-1.54.47-1.54,1s.6,1,2,1.48c1.86.69,2.73,1.66,2.73,3.15,0,1.76-1.36,3.27-4.25,3.27a6.91,6.91,0,0,1-3-.65Z"/><rect class="cls-1" x="851.94" y="343.93" width="233.24" height="96.13" rx="12"/><path class="cls-3" d="M1073.18,441.57H863.94a13.51,13.51,0,0,1-13.5-13.5V355.93a13.51,13.51,0,0,1,13.5-13.5h209.24a13.52,13.52,0,0,1,13.5,13.5v72.14A13.52,13.52,0,0,1,1073.18,441.57ZM863.94,345.43a10.51,10.51,0,0,0-10.5,10.5v72.14a10.51,10.51,0,0,0,10.5,10.5h209.24a10.51,10.51,0,0,0,10.5-10.5V355.93a10.51,10.51,0,0,0-10.5-10.5Z"/><path class="cls-3" d="M911.18,380.93v10.55h-2.39V380.93Z"/><path class="cls-3" d="M913.24,391.48V380.93H916l2.18,3.87a29.9,29.9,0,0,1,1.73,3.61h0a40.61,40.61,0,0,1-.2-4.39v-3.09H922v10.55h-2.5l-2.26-4.07c-.62-1.13-1.31-2.49-1.83-3.72h0c.06,1.39.09,2.88.09,4.6v3.18Z"/><path class="cls-3" d="M926.06,382.94h-2.83v-2h8.1v2h-2.87v8.54h-2.4Z"/><path class="cls-3" d="M938.87,387H935v2.5h4.34v2H932.6V380.93h6.51v2H935v2.19h3.88Z"/><path class="cls-3" d="M941,381.08a20.34,20.34,0,0,1,3.17-.22,5.38,5.38,0,0,1,3.42.83,2.67,2.67,0,0,1,1,2.2,2.79,2.79,0,0,1-1.86,2.6v0a2.66,2.66,0,0,1,1.41,2c.33,1.19.66,2.57.86,3h-2.44a13.4,13.4,0,0,1-.73-2.46c-.28-1.31-.74-1.67-1.71-1.69h-.72v4.15H941Zm2.36,4.53h.94c1.19,0,1.89-.59,1.89-1.52s-.65-1.45-1.75-1.47a6,6,0,0,0-1.08.08Z"/><path class="cls-3" d="M950.22,391.48V380.93H953l2.19,3.87a31.42,31.42,0,0,1,1.72,3.61h0a40.61,40.61,0,0,1-.2-4.39v-3.09H959v10.55h-2.5l-2.25-4.07a37.76,37.76,0,0,1-1.83-3.72h0c.06,1.39.09,2.88.09,4.6v3.18Z"/><path class="cls-3" d="M963.47,388.77l-.75,2.71h-2.47l3.22-10.55h3.13l3.26,10.55H967.3l-.81-2.71Zm2.67-1.78-.66-2.24c-.18-.63-.37-1.41-.53-2h0c-.15.62-.31,1.42-.48,2l-.63,2.24Z"/><path class="cls-3" d="M971.27,380.93h2.39v8.54h4.19v2h-6.58Z"/><path class="cls-3" d="M984.87,388.77l-.75,2.71h-2.47l3.22-10.55H988l3.27,10.55h-2.56l-.82-2.71Zm2.68-1.78-.66-2.24c-.19-.63-.37-1.41-.53-2h0c-.16.62-.31,1.42-.49,2l-.62,2.24Z"/><path class="cls-3" d="M994.51,380.93V387c0,1.82.68,2.74,1.9,2.74s1.94-.88,1.94-2.74v-6.07h2.38v5.92c0,3.25-1.64,4.8-4.39,4.8s-4.23-1.47-4.23-4.83v-5.89Z"/><path class="cls-3" d="M1002.79,381.08a20.18,20.18,0,0,1,3.22-.22,6.81,6.81,0,0,1,4.32,1.12,4.66,4.66,0,0,1,1.78,4,5.35,5.35,0,0,1-1.75,4.27,7.58,7.58,0,0,1-4.86,1.36,20.27,20.27,0,0,1-2.71-.16Zm2.4,8.6a5,5,0,0,0,.82,0c2.16,0,3.57-1.17,3.57-3.69a3,3,0,0,0-3.31-3.34,4.76,4.76,0,0,0-1.08.09Z"/><path class="cls-3" d="M1016.07,380.93v10.55h-2.39V380.93Z"/><path class="cls-3" d="M1027.78,386.1c0,3.45-2.09,5.55-5.17,5.55s-5-2.36-5-5.37,2-5.52,5.13-5.52S1027.78,383.19,1027.78,386.1Zm-7.61.14c0,2.06,1,3.52,2.56,3.52s2.53-1.54,2.53-3.59c0-1.89-.9-3.51-2.54-3.51S1020.17,384.19,1020.17,386.24Z"/><path class="cls-3" d="M930.09,409.94a6.73,6.73,0,0,1-2.7.46c-3.65,0-5.52-2.27-5.52-5.27,0-3.6,2.56-5.6,5.75-5.6a6.23,6.23,0,0,1,2.6.47l-.49,1.89a5.16,5.16,0,0,0-2-.39,3.47,3.47,0,0,0,0,6.93,5.85,5.85,0,0,0,2-.35Z"/><path class="cls-3" d="M940.84,404.86c0,3.46-2.1,5.55-5.18,5.55s-5-2.36-5-5.36c0-3.16,2-5.52,5.13-5.52S940.84,402,940.84,404.86Zm-7.62.14c0,2.07,1,3.52,2.56,3.52s2.54-1.53,2.54-3.58c0-1.89-.91-3.52-2.55-3.52S933.22,403,933.22,405Z"/><path class="cls-3" d="M942.4,410.24V399.7h2.78l2.19,3.86a30,30,0,0,1,1.72,3.62h0a38.49,38.49,0,0,1-.2-4.4V399.7h2.18v10.54h-2.5l-2.25-4.07a37.8,37.8,0,0,1-1.83-3.72l0,0c.07,1.39.1,2.88.1,4.6v3.17Z"/><path class="cls-3" d="M955.22,401.7h-2.83v-2h8.1v2h-2.88v8.54h-2.39Z"/><path class="cls-3" d="M961.76,399.84a20.15,20.15,0,0,1,3.17-.22,5.4,5.4,0,0,1,3.41.83,2.67,2.67,0,0,1,1,2.21,2.79,2.79,0,0,1-1.86,2.59v.05a2.69,2.69,0,0,1,1.41,2,27.63,27.63,0,0,0,.86,3h-2.44a12.4,12.4,0,0,1-.74-2.45c-.28-1.32-.73-1.68-1.7-1.69h-.72v4.14h-2.36Zm2.36,4.54h.94c1.19,0,1.89-.6,1.89-1.52s-.66-1.46-1.75-1.47a6,6,0,0,0-1.08.08Z"/><path class="cls-3" d="M980.62,404.86c0,3.46-2.1,5.55-5.18,5.55s-5-2.36-5-5.36c0-3.16,2-5.52,5.13-5.52S980.62,402,980.62,404.86ZM973,405c0,2.07,1,3.52,2.56,3.52s2.54-1.53,2.54-3.58c0-1.89-.91-3.52-2.55-3.52S973,403,973,405Z"/><path class="cls-3" d="M982.18,399.7h2.39v8.54h4.19v2h-6.58Z"/><path class="cls-3" d="M990.17,399.7h2.39v8.54h4.19v2h-6.58Z"/><path class="cls-3" d="M1004.43,405.78h-3.88v2.51h4.33v1.95h-6.72V399.7h6.51v1.95h-4.12v2.19h3.88Z"/><path class="cls-3" d="M1006.51,399.84a20.34,20.34,0,0,1,3.17-.22,5.4,5.4,0,0,1,3.41.83,2.67,2.67,0,0,1,1,2.21,2.79,2.79,0,0,1-1.86,2.59v.05a2.66,2.66,0,0,1,1.41,2c.33,1.19.66,2.56.86,3H1012a14,14,0,0,1-.74-2.45c-.28-1.32-.73-1.68-1.7-1.69h-.72v4.14h-2.36Zm2.36,4.54h.94c1.19,0,1.89-.6,1.89-1.52s-.66-1.46-1.75-1.47a6,6,0,0,0-1.08.08Z"/><rect class="cls-1" x="463.65" y="307.66" width="233.24" height="168.68" rx="12"/><path class="cls-3" d="M684.88,477.84H475.65a13.51,13.51,0,0,1-13.5-13.5V319.66a13.51,13.51,0,0,1,13.5-13.5H684.88a13.51,13.51,0,0,1,13.5,13.5V464.34A13.51,13.51,0,0,1,684.88,477.84ZM475.65,309.16a10.51,10.51,0,0,0-10.5,10.5V464.34a10.51,10.51,0,0,0,10.5,10.5H684.88a10.51,10.51,0,0,0,10.5-10.5V319.66a10.51,10.51,0,0,0-10.5-10.5Z"/><path class="cls-3" d="M488.06,325.87a15.37,15.37,0,0,1,2.4-.19,5,5,0,0,1,3.55,1.1,4,4,0,0,1,1.24,3.14,4.65,4.65,0,0,1-1.26,3.41,5.4,5.4,0,0,1-3.88,1.26,17,17,0,0,1-2.05-.11Zm1.13,7.74a6.25,6.25,0,0,0,1.14.07,3.37,3.37,0,0,0,3.73-3.72c0-2.07-1.15-3.38-3.54-3.38a6.07,6.07,0,0,0-1.33.12Z"/><path class="cls-3" d="M504.2,330c0,3-1.83,4.61-4.06,4.61s-3.94-1.79-3.94-4.44,1.73-4.6,4.07-4.6S504.2,327.44,504.2,330Zm-6.79.14c0,1.87,1,3.55,2.79,3.55s2.81-1.65,2.81-3.64c0-1.74-.91-3.56-2.8-3.56S497.41,328.26,497.41,330.18Z"/><path class="cls-3" d="M507.1,334.51l-2.22-8.76h1.2l1,4.43c.26,1.09.49,2.19.65,3h0c.15-.87.42-1.91.72-3l1.17-4.42h1.18l1.07,4.44c.24,1,.48,2.08.61,3h0c.19-1,.43-1.94.71-3l1.15-4.42h1.16l-2.48,8.76h-1.19l-1.1-4.56a25.67,25.67,0,0,1-.57-2.86h0a27.24,27.24,0,0,1-.68,2.86l-1.24,4.56Z"/><path class="cls-3" d="M516.67,334.51v-8.76h1.24l2.8,4.43a25.58,25.58,0,0,1,1.58,2.85h0c-.1-1.17-.13-2.24-.13-3.61v-3.66h1.07v8.76h-1.14l-2.79-4.45a26.89,26.89,0,0,1-1.63-2.92h0c.06,1.11.09,2.16.09,3.62v3.74Z"/><path class="cls-3" d="M525.22,325.75h1.14v7.81h3.74v.95h-4.88Z"/><path class="cls-3" d="M532.49,325.75v8.76h-1.13v-8.76Z"/><path class="cls-3" d="M534.47,334.51v-8.76h1.23l2.81,4.43a23.89,23.89,0,0,1,1.57,2.85h0c-.1-1.17-.13-2.24-.13-3.61v-3.66h1.07v8.76H539.9l-2.78-4.45a27,27,0,0,1-1.64-2.92h0c.07,1.11.09,2.16.09,3.62v3.74Z"/><path class="cls-3" d="M543,325.75h1.13V330h0c.24-.33.47-.65.69-.93l2.68-3.29H549l-3.17,3.72,3.42,5h-1.34l-2.89-4.3-.83,1v3.34H543Z"/><path class="cls-3" d="M554.9,327.13h0l-1.47.79-.22-.87,1.84-1h1v8.45H554.9Z"/><path class="cls-3" d="M488.06,374.73a16.8,16.8,0,0,1,2.4-.18,5,5,0,0,1,3.55,1.09,4.05,4.05,0,0,1,1.24,3.15,4.61,4.61,0,0,1-1.26,3.4,5.4,5.4,0,0,1-3.88,1.27,17,17,0,0,1-2.05-.11Zm1.13,7.75a7.45,7.45,0,0,0,1.14.06,3.36,3.36,0,0,0,3.73-3.71c0-2.07-1.15-3.38-3.54-3.38a6.93,6.93,0,0,0-1.33.11Z"/><path class="cls-3" d="M504.2,378.91c0,3-1.83,4.61-4.06,4.61s-3.94-1.79-3.94-4.45,1.73-4.6,4.07-4.6S504.2,376.3,504.2,378.91Zm-6.79.14c0,1.87,1,3.55,2.79,3.55S503,381,503,379c0-1.75-.91-3.57-2.8-3.57S497.41,377.12,497.41,379.05Z"/><path class="cls-3" d="M507.1,383.38l-2.22-8.76h1.2l1,4.43c.26,1.09.49,2.18.65,3h0c.15-.87.42-1.91.72-3l1.17-4.42h1.18l1.07,4.44c.24,1,.48,2.08.61,3h0c.19-1,.43-1.93.71-3l1.15-4.42h1.16l-2.48,8.76h-1.19l-1.1-4.57a24.81,24.81,0,0,1-.57-2.86h0a26.66,26.66,0,0,1-.68,2.86l-1.24,4.57Z"/><path class="cls-3" d="M516.67,383.38v-8.76h1.24l2.8,4.43a25.58,25.58,0,0,1,1.58,2.85l0,0c-.1-1.17-.13-2.23-.13-3.6v-3.66h1.07v8.76h-1.14l-2.79-4.45a26.89,26.89,0,0,1-1.63-2.92h0c.06,1.1.09,2.16.09,3.61v3.75Z"/><path class="cls-3" d="M525.22,374.62h1.14v7.81h3.74v.95h-4.88Z"/><path class="cls-3" d="M532.49,374.62v8.76h-1.13v-8.76Z"/><path class="cls-3" d="M534.47,383.38v-8.76h1.23l2.81,4.43a23.89,23.89,0,0,1,1.57,2.85l0,0c-.1-1.17-.13-2.23-.13-3.6v-3.66h1.07v8.76H539.9l-2.78-4.45a27,27,0,0,1-1.64-2.92h0c.07,1.1.09,2.16.09,3.61v3.75Z"/><path class="cls-3" d="M543,374.62h1.13v4.22h0c.24-.34.47-.65.69-.94l2.68-3.28H549l-3.17,3.71,3.42,5.05h-1.34L545,379.07l-.83,1v3.34H543Z"/><path class="cls-3" d="M552.69,382.06a3.81,3.81,0,0,0,1.87.54c1.47,0,1.93-.94,1.92-1.64,0-1.18-1.08-1.69-2.19-1.69h-.63v-.86h.63c.83,0,1.89-.43,1.89-1.43,0-.68-.43-1.27-1.48-1.27a3.15,3.15,0,0,0-1.7.56l-.29-.84a4.05,4.05,0,0,1,2.21-.65c1.66,0,2.41,1,2.41,2a2.1,2.1,0,0,1-1.56,2v0a2.21,2.21,0,0,1,1.89,2.18c0,1.35-1,2.53-3.08,2.53a4.35,4.35,0,0,1-2.2-.57Z"/><path class="cls-3" d="M492.6,428.62h-3.41v3.16H493v1h-4.93V424h4.73v.95h-3.6v2.77h3.41Z"/><path class="cls-3" d="M494.45,424h1.14v7.81h3.74v1h-4.88Z"/><path class="cls-3" d="M505.13,428.62h-3.41v3.16h3.8v1h-4.93V424h4.73v.95h-3.6v2.77h3.41Z"/><path class="cls-3" d="M509,432.73,506.17,424h1.22l1.36,4.31c.38,1.19.71,2.25.94,3.28h0c.24-1,.61-2.12,1-3.26L512.2,424h1.21l-3.14,8.76Z"/><path class="cls-3" d="M515,430l-.91,2.76H513l3-8.76h1.36l3,8.76h-1.21l-.94-2.76Zm2.88-.88-.86-2.52c-.2-.57-.33-1.1-.46-1.6h0c-.13.52-.28,1-.45,1.58l-.85,2.54Z"/><path class="cls-3" d="M522.24,424.93h-2.67v-1h6.49v1h-2.68v7.8h-1.14Z"/><path class="cls-3" d="M528.16,424v8.76H527V424Z"/><path class="cls-3" d="M537.63,428.26c0,3-1.84,4.61-4.07,4.61s-3.94-1.79-3.94-4.44,1.73-4.61,4.07-4.61S537.63,425.66,537.63,428.26Zm-6.8.14c0,1.87,1,3.55,2.79,3.55s2.81-1.65,2.81-3.64c0-1.74-.91-3.56-2.79-3.56S530.83,426.48,530.83,428.4Z"/><path class="cls-3" d="M539.1,432.73V424h1.23l2.81,4.43a23.89,23.89,0,0,1,1.57,2.85l0,0c-.11-1.17-.13-2.23-.13-3.6V424h1.06v8.76h-1.14l-2.78-4.45a27,27,0,0,1-1.64-2.92h0c.07,1.11.09,2.16.09,3.62v3.74Z"/><path class="cls-3" d="M601.22,374.73a16.83,16.83,0,0,1,2.41-.18,5.06,5.06,0,0,1,3.55,1.09,4,4,0,0,1,1.23,3.15,4.61,4.61,0,0,1-1.26,3.4,5.39,5.39,0,0,1-3.87,1.27,17.16,17.16,0,0,1-2.06-.11Zm1.14,7.75a7.38,7.38,0,0,0,1.14.06,3.36,3.36,0,0,0,3.73-3.71c0-2.07-1.16-3.38-3.55-3.38a6.81,6.81,0,0,0-1.32.11Z"/><path class="cls-3" d="M617.37,378.91c0,3-1.83,4.61-4.07,4.61s-3.94-1.79-3.94-4.45,1.73-4.6,4.07-4.6S617.37,376.3,617.37,378.91Zm-6.8.14c0,1.87,1,3.55,2.8,3.55s2.8-1.65,2.8-3.64c0-1.75-.91-3.57-2.79-3.57S610.57,377.12,610.57,379.05Z"/><path class="cls-3" d="M620.27,383.38l-2.22-8.76h1.19l1,4.43c.26,1.09.5,2.18.65,3h0c.14-.87.41-1.91.71-3l1.17-4.42H624l1.06,4.44c.25,1,.48,2.08.61,3h0c.18-1,.43-1.93.7-3l1.16-4.42h1.16l-2.49,8.76h-1.18L624,378.81a27.14,27.14,0,0,1-.57-2.86h0a26.66,26.66,0,0,1-.68,2.86l-1.25,4.57Z"/><path class="cls-3" d="M629.84,383.38v-8.76h1.23l2.81,4.43a23.89,23.89,0,0,1,1.57,2.85l0,0c-.1-1.17-.13-2.23-.13-3.6v-3.66h1.07v8.76h-1.15l-2.78-4.45a27,27,0,0,1-1.64-2.92h0c.07,1.1.09,2.16.09,3.61v3.75Z"/><path class="cls-3" d="M638.39,374.62h1.13v7.81h3.75v.95h-4.88Z"/><path class="cls-3" d="M645.66,374.62v8.76h-1.13v-8.76Z"/><path class="cls-3" d="M647.63,383.38v-8.76h1.24l2.81,4.43a25.4,25.4,0,0,1,1.57,2.85l0,0c-.11-1.17-.13-2.23-.13-3.6v-3.66h1.06v8.76h-1.14l-2.78-4.45a25.42,25.42,0,0,1-1.64-2.92h0c.06,1.1.09,2.16.09,3.61v3.75Z"/><path class="cls-3" d="M656.19,374.62h1.13v4.22h0c.23-.34.47-.65.69-.94l2.67-3.28h1.41L659,378.33l3.42,5.05H661l-2.89-4.31-.83,1v3.34h-1.13Z"/><path class="cls-3" d="M669.12,383.38v-2.3H665.2v-.76l3.77-5.39h1.23v5.25h1.18v.9H670.2v2.3Zm0-3.2v-2.82c0-.44,0-.89,0-1.33h0c-.26.5-.47.86-.7,1.25l-2.07,2.87v0Z"/><path class="cls-3" d="M578.79,432.44a5.6,5.6,0,0,1-2.32.42,4.09,4.09,0,0,1-4.33-4.43,4.36,4.36,0,0,1,4.58-4.61,4.8,4.8,0,0,1,2.08.39l-.27.93a4.09,4.09,0,0,0-1.77-.37,3.27,3.27,0,0,0-3.42,3.62,3.18,3.18,0,0,0,3.37,3.52,4.5,4.5,0,0,0,1.84-.36Z"/><path class="cls-3" d="M580.2,424.08a12.53,12.53,0,0,1,2.18-.18,3.56,3.56,0,0,1,2.53.72,2.19,2.19,0,0,1,.69,1.66,2.3,2.3,0,0,1-1.65,2.24v0a2.15,2.15,0,0,1,1.28,1.76,14.33,14.33,0,0,0,.68,2.41h-1.17a11.23,11.23,0,0,1-.58-2.09c-.26-1.21-.73-1.67-1.76-1.71h-1.07v3.8H580.2Zm1.13,4h1.16c1.21,0,2-.67,2-1.67s-.82-1.62-2-1.64a4.78,4.78,0,0,0-1.12.11Z"/><path class="cls-3" d="M594.73,428.26c0,3-1.84,4.61-4.07,4.61s-3.94-1.79-3.94-4.44,1.73-4.61,4.07-4.61S594.73,425.66,594.73,428.26Zm-6.8.14c0,1.87,1,3.55,2.79,3.55s2.81-1.65,2.81-3.64c0-1.74-.91-3.56-2.8-3.56S587.93,426.48,587.93,428.4Z"/><path class="cls-3" d="M596,431.35a4,4,0,0,0,2,.57c1.15,0,1.83-.61,1.83-1.49s-.47-1.29-1.65-1.74c-1.43-.51-2.32-1.25-2.32-2.49s1.13-2.38,2.84-2.38a4,4,0,0,1,1.94.43l-.32.93a3.41,3.41,0,0,0-1.66-.42c-1.2,0-1.65.71-1.65,1.31,0,.82.53,1.22,1.74,1.69,1.48.57,2.24,1.29,2.24,2.58s-1,2.52-3.07,2.52a4.56,4.56,0,0,1-2.24-.56Z"/><path class="cls-3" d="M602.45,431.35a4,4,0,0,0,2,.57c1.16,0,1.84-.61,1.84-1.49s-.47-1.29-1.65-1.74c-1.43-.51-2.32-1.25-2.32-2.49s1.13-2.38,2.84-2.38a4,4,0,0,1,1.93.43l-.31.93a3.41,3.41,0,0,0-1.66-.42c-1.2,0-1.65.71-1.65,1.31,0,.82.53,1.22,1.74,1.69,1.48.57,2.23,1.29,2.23,2.58s-1,2.52-3.06,2.52a4.56,4.56,0,0,1-2.24-.56Z"/><path class="cls-3" d="M611.69,428.79v.84h-3.21v-.84Z"/><path class="cls-3" d="M617.6,428.62h-3.4v3.16H618v1h-4.92V424h4.73v.95h-3.6v2.77h3.4Z"/><path class="cls-3" d="M619.46,424h1.13v7.81h3.75v1h-4.88Z"/><path class="cls-3" d="M630.14,428.62h-3.41v3.16h3.8v1H625.6V424h4.73v.95h-3.6v2.77h3.41Z"/><path class="cls-3" d="M634,432.73,631.18,424h1.22l1.36,4.31c.38,1.19.71,2.25.94,3.28h0c.24-1,.61-2.12,1-3.26l1.48-4.33h1.21l-3.14,8.76Z"/><path class="cls-3" d="M640,430l-.91,2.76H638l3-8.76h1.36l3,8.76h-1.21l-.93-2.76Zm2.88-.88-.86-2.52c-.2-.57-.33-1.1-.46-1.6h0c-.13.52-.28,1-.45,1.58l-.85,2.54Z"/><path class="cls-3" d="M647.24,424.93h-2.66v-1h6.49v1h-2.68v7.8h-1.15Z"/><path class="cls-3" d="M653.17,424v8.76H652V424Z"/><path class="cls-3" d="M662.64,428.26c0,3-1.84,4.61-4.07,4.61s-3.94-1.79-3.94-4.44,1.73-4.61,4.07-4.61S662.64,425.66,662.64,428.26Zm-6.8.14c0,1.87,1,3.55,2.79,3.55s2.81-1.65,2.81-3.64c0-1.74-.91-3.56-2.79-3.56S655.84,426.48,655.84,428.4Z"/><path class="cls-3" d="M664.1,432.73V424h1.24l2.81,4.43a25.4,25.4,0,0,1,1.57,2.85l0,0c-.11-1.17-.13-2.23-.13-3.6V424h1.06v8.76h-1.14l-2.78-4.45a27,27,0,0,1-1.64-2.92h0c.06,1.11.09,2.16.09,3.62v3.74Z"/><path class="cls-3" d="M601.22,325.87a15.4,15.4,0,0,1,2.41-.19,5,5,0,0,1,3.55,1.1,4,4,0,0,1,1.23,3.14,4.65,4.65,0,0,1-1.26,3.41,5.39,5.39,0,0,1-3.87,1.26,17.16,17.16,0,0,1-2.06-.11Zm1.14,7.74a6.19,6.19,0,0,0,1.14.07,3.37,3.37,0,0,0,3.73-3.72c0-2.07-1.16-3.38-3.55-3.38a6,6,0,0,0-1.32.12Z"/><path class="cls-3" d="M617.37,330c0,3-1.83,4.61-4.07,4.61s-3.94-1.79-3.94-4.44,1.73-4.6,4.07-4.6S617.37,327.44,617.37,330Zm-6.8.14c0,1.87,1,3.55,2.8,3.55s2.8-1.65,2.8-3.64c0-1.74-.91-3.56-2.79-3.56S610.57,328.26,610.57,330.18Z"/><path class="cls-3" d="M620.27,334.51l-2.22-8.76h1.19l1,4.43c.26,1.09.5,2.19.65,3h0c.14-.87.41-1.91.71-3l1.17-4.42H624l1.06,4.44c.25,1,.48,2.08.61,3h0c.18-1,.43-1.94.7-3l1.16-4.42h1.16l-2.49,8.76h-1.18L624,330a28.18,28.18,0,0,1-.57-2.86h0a27.24,27.24,0,0,1-.68,2.86l-1.25,4.56Z"/><path class="cls-3" d="M629.84,334.51v-8.76h1.23l2.81,4.43a23.89,23.89,0,0,1,1.57,2.85h0c-.1-1.17-.13-2.24-.13-3.61v-3.66h1.07v8.76h-1.15l-2.78-4.45a27,27,0,0,1-1.64-2.92h0c.07,1.11.09,2.16.09,3.62v3.74Z"/><path class="cls-3" d="M638.39,325.75h1.13v7.81h3.75v.95h-4.88Z"/><path class="cls-3" d="M645.66,325.75v8.76h-1.13v-8.76Z"/><path class="cls-3" d="M647.63,334.51v-8.76h1.24l2.81,4.43a25.4,25.4,0,0,1,1.57,2.85h0c-.11-1.17-.13-2.24-.13-3.61v-3.66h1.06v8.76h-1.14l-2.78-4.45a25.42,25.42,0,0,1-1.64-2.92h0c.06,1.11.09,2.16.09,3.62v3.74Z"/><path class="cls-3" d="M656.19,325.75h1.13V330h0c.23-.33.47-.65.69-.93l2.67-3.29h1.41L659,329.47l3.42,5H661l-2.89-4.3-.83,1v3.34h-1.13Z"/><path class="cls-3" d="M665.59,334.51v-.7l.89-.87c2.16-2.06,3.14-3.15,3.15-4.42a1.51,1.51,0,0,0-1.68-1.65,2.91,2.91,0,0,0-1.79.71l-.37-.8a3.7,3.7,0,0,1,2.4-.86,2.37,2.37,0,0,1,2.58,2.45c0,1.56-1.13,2.83-2.91,4.54l-.67.63v0H671v.95Z"/><path class="cls-3" d="M518.71,176h2.11v4.17h0c.21-.36.43-.7.64-1l2.14-3.14h2.62l-3.12,4,3.29,5.42H524l-2.31-4.08-.82,1v3.08h-2.11Z"/><path class="cls-3" d="M529.43,176v5.43c0,1.63.62,2.45,1.71,2.45s1.74-.78,1.74-2.45V176H535v5.29c0,2.92-1.47,4.3-3.94,4.3s-3.78-1.31-3.78-4.33V176Z"/><path class="cls-3" d="M540,181.06v1.42h-3.67v-1.42Z"/><path class="cls-3" d="M541.36,176.13a17.42,17.42,0,0,1,2.76-.19,5.2,5.2,0,0,1,2.79.53,2,2,0,0,1,1.13,1.85,2.14,2.14,0,0,1-1.55,2v0a2.36,2.36,0,0,1,1.87,2.33,2.5,2.5,0,0,1-1,2,5.9,5.9,0,0,1-3.71.86,16.56,16.56,0,0,1-2.31-.14Zm2.12,3.62h.7c1.12,0,1.72-.46,1.72-1.16s-.55-1.1-1.51-1.1a5.35,5.35,0,0,0-.91.06Zm0,4.19c.21,0,.46,0,.82,0,1,0,1.82-.36,1.82-1.36s-.85-1.33-1.92-1.33h-.72Z"/><path class="cls-3" d="M552,183l-.67,2.42h-2.22L552,176h2.8l2.93,9.44h-2.3l-.73-2.42Zm2.39-1.6-.58-2c-.17-.57-.34-1.27-.48-1.83h0c-.14.56-.28,1.28-.43,1.83l-.56,2Z"/><path class="cls-3" d="M558.94,185.45V176h2.5l2,3.46a27.3,27.3,0,0,1,1.54,3.23h0a34.94,34.94,0,0,1-.18-3.93V176h2v9.44h-2.24l-2-3.64a37,37,0,0,1-1.64-3.34l0,0c.06,1.24.09,2.57.09,4.11v2.85Z"/><path class="cls-3" d="M568.6,176.13a20.07,20.07,0,0,1,2.89-.19,6.09,6.09,0,0,1,3.87,1A4.16,4.16,0,0,1,577,180.5a4.8,4.8,0,0,1-1.57,3.83,6.79,6.79,0,0,1-4.35,1.22,18.67,18.67,0,0,1-2.43-.14Zm2.15,7.71a4.06,4.06,0,0,0,.74,0c1.93,0,3.19-1,3.19-3.31a2.7,2.7,0,0,0-3-3,4.61,4.61,0,0,0-1,.08Z"/><path class="cls-3" d="M583.38,183l-.68,2.42h-2.21l2.89-9.44h2.8l2.92,9.44h-2.29l-.73-2.42Zm2.39-1.6-.59-2c-.17-.57-.33-1.27-.47-1.83h0c-.14.56-.28,1.28-.44,1.83l-.56,2Z"/><path class="cls-3" d="M590.36,185.45V176h2.49l2,3.46a25.88,25.88,0,0,1,1.55,3.23h0a34.94,34.94,0,0,1-.18-3.93V176h2v9.44h-2.24l-2-3.64a34.5,34.5,0,0,1-1.64-3.34l0,0c0,1.24.08,2.57.08,4.11v2.85Z"/><path class="cls-3" d="M601.84,177.8h-2.53V176h7.25v1.79H604v7.65h-2.15Z"/><path class="cls-3" d="M613.31,181.46h-3.47v2.24h3.88v1.75h-6V176h5.83v1.75h-3.68v2h3.47Z"/><path class="cls-3" d="M615.17,185.45V176h2.49l2,3.46a27.3,27.3,0,0,1,1.54,3.23h.05a34.85,34.85,0,0,1-.19-3.93V176h2v9.44h-2.25l-2-3.64a34.5,34.5,0,0,1-1.64-3.34l0,0c.05,1.24.08,2.57.08,4.11v2.85Z"/><path class="cls-3" d="M624.83,185.45V176h2.49l2,3.46a27.3,27.3,0,0,1,1.54,3.23h0a34.85,34.85,0,0,1-.19-3.93V176h2v9.44H630.4l-2-3.64a34.5,34.5,0,0,1-1.64-3.34l0,0c0,1.24.08,2.57.08,4.11v2.85Z"/><path class="cls-3" d="M636.69,183l-.67,2.42H633.8l2.89-9.44h2.8l2.93,9.44h-2.3l-.73-2.42Zm2.39-1.6-.58-2c-.17-.57-.34-1.27-.48-1.83h0c-.14.56-.28,1.28-.43,1.83l-.56,2Z"/><path class="cls-3" d="M119.09,475.75a10.31,10.31,0,0,1-3.15.53A5.27,5.27,0,0,1,112.1,475a4.62,4.62,0,0,1-1.33-3.43c0-3.14,2.3-4.93,5.4-4.93a6.61,6.61,0,0,1,2.62.46l-.45,1.71a5.13,5.13,0,0,0-2.2-.41,3.08,3.08,0,0,0-.16,6.15,2.76,2.76,0,0,0,1.06-.14v-2h-1.46v-1.67h3.51Z"/><path class="cls-3" d="M120.76,466.87a19,19,0,0,1,2.84-.19,4.82,4.82,0,0,1,3.05.74,2.39,2.39,0,0,1,.87,2,2.5,2.5,0,0,1-1.67,2.33v0a2.4,2.4,0,0,1,1.27,1.77,25.77,25.77,0,0,0,.77,2.66H125.7A12.3,12.3,0,0,1,125,474c-.25-1.18-.66-1.5-1.52-1.52h-.65v3.72h-2.11Zm2.11,4.06h.84c1.07,0,1.7-.53,1.7-1.35s-.59-1.31-1.57-1.32a5.23,5.23,0,0,0-1,.07Z"/><path class="cls-3" d="M137.64,471.37c0,3.09-1.87,5-4.63,5s-4.44-2.11-4.44-4.8,1.8-5,4.59-5S137.64,468.76,137.64,471.37Zm-6.82.12c0,1.85.87,3.16,2.3,3.16s2.27-1.38,2.27-3.21-.81-3.15-2.28-3.15S130.82,469.66,130.82,471.49Z"/><path class="cls-3" d="M141.17,466.75v5.43c0,1.63.62,2.45,1.71,2.45s1.73-.78,1.73-2.45v-5.43h2.13V472c0,2.91-1.47,4.3-3.93,4.3S139,475,139,472v-5.26Z"/><path class="cls-3" d="M148.59,476.19v-9.44h2.49l2,3.46a27.3,27.3,0,0,1,1.54,3.23h0a35.12,35.12,0,0,1-.18-3.94v-2.75h2v9.44h-2.24l-2-3.65a31.21,31.21,0,0,1-1.64-3.33h0c.06,1.25.09,2.58.09,4.12v2.85Z"/><path class="cls-3" d="M158.25,466.87a19.82,19.82,0,0,1,2.88-.19,6.11,6.11,0,0,1,3.87,1,4.2,4.2,0,0,1,1.6,3.56,4.8,4.8,0,0,1-1.57,3.83,6.84,6.84,0,0,1-4.36,1.21,18.37,18.37,0,0,1-2.42-.14Zm2.14,7.71a4.12,4.12,0,0,0,.74,0c1.94,0,3.2-1.05,3.2-3.31a2.71,2.71,0,0,0-3-3,4.46,4.46,0,0,0-1,.09Z"/><path class="cls-3" d="M170.82,476.19v-9.44h2.49l2,3.46a27.3,27.3,0,0,1,1.54,3.23h.05a35,35,0,0,1-.19-3.94v-2.75h2v9.44h-2.25l-2-3.65a33.23,33.23,0,0,1-1.64-3.33h0c.05,1.25.08,2.58.08,4.12v2.85Z"/><path class="cls-3" d="M186.1,472.19h-3.48v2.25h3.88v1.75h-6v-9.44h5.83v1.75h-3.69v2h3.48Z"/><path class="cls-3" d="M189.85,468.54h-2.54v-1.79h7.26v1.79H192v7.65h-2.14Z"/><path class="cls-3" d="M197.62,476.19l-2.24-9.44h2.28l.71,3.89c.21,1.12.41,2.34.56,3.29h0c.16-1,.38-2.16.62-3.32l.8-3.86h2.27l.75,4c.21,1.11.37,2.12.51,3.17h0c.14-1.05.35-2.16.55-3.28l.77-3.86h2.17L205,476.19h-2.31l-.79-4.07a29.21,29.21,0,0,1-.45-2.91h0c-.17,1.07-.32,2-.55,2.91l-.89,4.07Z"/><path class="cls-3" d="M217.05,471.37c0,3.09-1.88,5-4.63,5s-4.45-2.11-4.45-4.8,1.81-5,4.6-5S217.05,468.76,217.05,471.37Zm-6.82.12c0,1.85.87,3.16,2.3,3.16s2.27-1.38,2.27-3.21-.82-3.15-2.29-3.15S210.23,469.66,210.23,471.49Z"/><path class="cls-3" d="M218.45,466.87a19.08,19.08,0,0,1,2.84-.19,4.82,4.82,0,0,1,3.05.74,2.39,2.39,0,0,1,.87,2,2.51,2.51,0,0,1-1.66,2.33v0a2.42,2.42,0,0,1,1.26,1.77,25.77,25.77,0,0,0,.77,2.66h-2.19a12.3,12.3,0,0,1-.66-2.2c-.25-1.18-.65-1.5-1.52-1.52h-.65v3.72h-2.11Zm2.11,4.06h.84c1.07,0,1.7-.53,1.7-1.35s-.59-1.31-1.57-1.32a5.23,5.23,0,0,0-1,.07Z"/><path class="cls-3" d="M226.75,466.75h2.11v4.17h0c.21-.36.43-.7.64-1l2.14-3.13h2.62l-3.12,4,3.29,5.42H232l-2.31-4.08-.82,1v3.09h-2.11Z"/><path class="cls-3" d="M482.47,271.63a60.62,60.62,0,0,1,22.66-82.71l2,3.47A56.62,56.62,0,0,0,486,269.65Z"/><path class="cls-3" d="M498.06,264.57A43,43,0,0,1,514.12,206l2,3.48a39,39,0,0,0-14.56,53.15Z"/><path class="cls-3" d="M511,254.73a24.26,24.26,0,0,1,9.06-33l2,3.47a20.26,20.26,0,0,0-7.56,27.6Z"/><rect class="cls-3" x="726.82" y="442.86" width="52.24" height="3"/><polygon class="cls-3" points="732.71 452.13 729.41 444.36 732.71 436.58 714.28 444.36 732.71 452.13"/><rect class="cls-3" x="726.82" y="390.5" width="95.19" height="3"/><polygon class="cls-3" points="732.71 399.78 729.41 392 732.71 384.22 714.28 392 732.71 399.78"/><polygon class="cls-3" points="816.11 399.78 819.41 392 816.11 384.22 834.54 392 816.11 399.78"/><rect class="cls-3" x="726.82" y="338.31" width="52.21" height="3"/><polygon class="cls-3" points="732.71 347.59 729.41 339.81 732.71 332.04 714.28 339.81 732.71 347.59"/><rect class="cls-3" x="776.08" y="580.88" width="45.93" height="3"/><polygon class="cls-3" points="816.11 574.61 819.41 582.38 816.11 590.16 834.54 582.38 816.11 574.61"/><rect class="cls-3" x="776.09" y="191.92" width="58.45" height="3"/><rect class="cls-3" x="776.08" y="193.42" width="3" height="146.39"/><rect class="cls-3" x="776.08" y="444.36" width="3" height="138.03"/></g><g id="Layer_3" data-name="Layer 3"><polygon class="cls-3" points="138.16 650.67 125.38 650.67 102.28 705.26 154.87 705.26 138.16 650.67"/><path class="cls-1" d="M156.22,706.26H100.77l24-56.59H138.9Zm-52.44-2h49.74l-16.1-52.59H126.05Z"/><circle class="cls-3" cx="130.57" cy="650.67" r="13.65"/><path class="cls-3" d="M70.27,563.18c-1.91,28.49,23.19,63.05,63.48,83.71s83.21,20.86,105.19,2.53Z"/><path class="cls-1" d="M195.24,663.79c-19.36,0-41.18-5.36-62-16-39.67-20.35-66-55.16-64-84.67l.1-1.52,1.35.7,170,86.93-1.16,1C228.69,659.28,213,663.79,195.24,663.79Zm-124-99c-.93,28.41,24.72,61.59,63,81.23s80.43,21.1,102.91,3.61Z"/><circle class="cls-3" cx="172.35" cy="566.12" r="12.92"/><path class="cls-1" d="M172.35,580a13.92,13.92,0,1,1,13.92-13.92A13.93,13.93,0,0,1,172.35,580Zm0-25.84a11.92,11.92,0,1,0,11.92,11.92A11.94,11.94,0,0,0,172.35,554.2Z"/><rect class="cls-3" x="86.15" y="570.08" width="86.68" height="5" transform="translate(-83.9 25.7) rotate(-8.57)"/><rect class="cls-3" x="187.92" y="561.78" width="5" height="79.57" transform="translate(-252.39 152.06) rotate(-27.01)"/><rect class="cls-3" x="126.87" y="591.71" width="62.83" height="5" transform="translate(-443.91 469.73) rotate(-63.4)"/><circle class="cls-3" cx="578.19" cy="264.63" r="7.22"/><path class="cls-3" d="M531.92,296.52c15.07,1,33.34-12.26,44.27-33.57s11-44,1.34-55.64Z"/><path class="cls-1" d="M533.53,297.58q-.84,0-1.68-.06l-1.52-.1,47-91.91,1,1.16c10.16,12.19,9.66,35.52-1.22,56.74C566.62,283.8,548.94,297.58,533.53,297.58Zm0-2h0c14.67,0,31.62-13.34,41.74-33.08s11.07-41.45,2.41-53.33Z"/><circle class="cls-3" cx="533.47" cy="242.53" r="6.83"/><path class="cls-1" d="M533.47,250.37a7.84,7.84,0,1,1,7.84-7.84A7.84,7.84,0,0,1,533.47,250.37Zm0-13.67a5.84,5.84,0,1,0,5.84,5.83A5.84,5.84,0,0,0,533.47,236.7Z"/><rect class="cls-3" x="535.39" y="242.28" width="3" height="45.85" transform="matrix(0.99, -0.15, 0.15, 0.99, -33.54, 83.01)"/><rect class="cls-3" x="535.75" y="229.15" width="42.09" height="3" transform="translate(-44.02 277.99) rotate(-27.01)"/><rect class="cls-3" x="546.83" y="233.36" width="3" height="33.23" transform="translate(79.26 628.3) rotate(-63.4)"/></g></svg>