<svg xmlns="http://www.w3.org/2000/svg" viewBox="0 0 1190 700"><defs><style>.cls-1,.cls-9{fill:#434343;}.cls-1{stroke:#231f20;}.cls-1,.cls-18,.cls-2,.cls-25,.cls-26,.cls-27,.cls-6,.cls-8,.cls-9{stroke-miterlimit:10;}.cls-2,.cls-25,.cls-27,.cls-6,.cls-8{fill:none;}.cls-18,.cls-2,.cls-25,.cls-27,.cls-8,.cls-9{stroke:#fff;}.cls-2{stroke-width:12px;}.cls-3{font-size:14px;font-family:MyriadPro-Bold, Myriad Pro;font-weight:700;}.cls-10,.cls-12,.cls-26,.cls-3,.cls-7{fill:#fff;}.cls-4{letter-spacing:-0.08em;}.cls-5{letter-spacing:0em;}.cls-6{stroke:#ddd;}.cls-27,.cls-6{stroke-width:5px;}.cls-8{stroke-width:4px;}.cls-25,.cls-9{stroke-width:3px;}.cls-10,.cls-12{font-size:13px;font-family:MyriadPro-Regular, Myriad Pro;}.cls-10{letter-spacing:0em;}.cls-11{letter-spacing:0em;}.cls-13{letter-spacing:0.01em;}.cls-14{letter-spacing:-0.06em;}.cls-15{letter-spacing:-0.08em;}.cls-16{fill:#ddd;}.cls-17,.cls-18{fill:#b3b4b4;}.cls-19{fill:#898989;}.cls-20{letter-spacing:0em;}.cls-21{letter-spacing:0em;}.cls-22{letter-spacing:0.01em;}.cls-23{letter-spacing:0.03em;}.cls-24{letter-spacing:-0.01em;}.cls-26{stroke:#434343;stroke-width:2px;}</style></defs><g id="Layer_1" data-name="Layer 1"><rect class="cls-1" x="-6.67" y="-11.68" width="1203.33" height="713.33"/></g><g id="Layer_2" data-name="Layer 2"><line class="cls-2" x1="579.37" y1="307.66" x2="579.37" y2="265.23"/><text class="cls-3" transform="translate(102.6 48.68)">TDRS S<tspan class="cls-4" x="43.67" y="0">A</tspan><tspan class="cls-5" x="51.69" y="0">TELLITE</tspan></text><line class="cls-6" x1="163.84" y1="75.91" x2="152.74" y2="119.8"/><line class="cls-6" x1="141.64" y1="163.69" x2="152.74" y2="119.8"/><line class="cls-6" x1="120.59" y1="103.31" x2="152.75" y2="119.8"/><line class="cls-6" x1="116.73" y1="120.97" x2="152.75" y2="119.8"/><line class="cls-6" x1="188.81" y1="118.44" x2="152.7" y2="120"/><line class="cls-6" x1="184.94" y1="136.09" x2="152.7" y2="120"/><rect class="cls-7" x="41.11" y="88.83" width="84.73" height="26.9" transform="translate(27.62 -17.34) rotate(14.19)"/><rect class="cls-7" x="181.37" y="124.3" width="84.73" height="26.9" transform="translate(40.6 -50.65) rotate(14.19)"/><rect class="cls-7" x="139.29" y="106.35" width="26.9" height="26.9" transform="translate(34.03 -33.79) rotate(14.19)"/><circle class="cls-7" cx="163.84" cy="75.91" r="16.97"/><circle class="cls-7" cx="141.64" cy="163.69" r="16.97"/><path class="cls-8" d="M191.1,210a54.87,54.87,0,0,1-74.8,20.83"/><path class="cls-8" d="M177.93,200.86a38.33,38.33,0,0,1-52.26,14.55"/><path class="cls-8" d="M163.82,195.21a20.8,20.8,0,0,1-28.36,7.9"/><path class="cls-8" d="M154.75,501.91a61.9,61.9,0,0,1,80.07,35.49"/><path class="cls-8" d="M159.67,519.31a43.23,43.23,0,0,1,55.94,24.79"/><path class="cls-8" d="M167.91,534.34a23.46,23.46,0,0,1,30.35,13.45"/><rect class="cls-9" x="851.94" y="504.32" width="233.24" height="96.13" rx="12"/><path class="cls-7" d="M884.58,551.56a6.73,6.73,0,0,1-2.7.46c-3.65,0-5.52-2.27-5.52-5.27,0-3.6,2.56-5.6,5.75-5.6a6.23,6.23,0,0,1,2.6.47l-.49,1.89a5,5,0,0,0-2-.39,3.46,3.46,0,0,0,0,6.92,5.87,5.87,0,0,0,2-.34Z"/><path class="cls-7" d="M895.33,546.48c0,3.46-2.1,5.55-5.18,5.55s-5-2.36-5-5.36c0-3.16,2-5.52,5.13-5.52S895.33,543.57,895.33,546.48Zm-7.62.14c0,2.06,1,3.52,2.56,3.52s2.54-1.53,2.54-3.58c0-1.89-.91-3.52-2.55-3.52S887.71,544.57,887.71,546.62Z"/><path class="cls-7" d="M905.8,547.82c0-1.26-.09-2.8-.09-4.33h-.05c-.33,1.35-.77,2.85-1.17,4.08l-1.28,4.12h-1.87l-1.12-4.08c-.35-1.24-.71-2.74-1-4.12h0c-.06,1.43-.11,3-.19,4.37l-.18,4h-2.21l.67-10.54h3.18l1,3.52c.33,1.22.66,2.53.89,3.77h.05c.3-1.22.66-2.62,1-3.79l1.13-3.5h3.11l.58,10.54H906Z"/><path class="cls-7" d="M919,547.82c0-1.26-.09-2.8-.09-4.33h-.05c-.33,1.35-.77,2.85-1.17,4.08l-1.29,4.12h-1.86l-1.12-4.08c-.35-1.24-.71-2.74-1-4.12h0c-.06,1.43-.11,3-.19,4.37l-.18,4h-2.21l.67-10.54h3.18l1,3.52c.33,1.22.66,2.53.89,3.77h.05c.3-1.22.66-2.62,1-3.79l1.13-3.5h3.11l.58,10.54h-2.33Z"/><path class="cls-7" d="M925.75,549.15l-.75,2.71h-2.47l3.22-10.54h3.13l3.27,10.54h-2.57l-.81-2.71Zm2.68-1.78-.66-2.24c-.19-.62-.38-1.4-.53-2h0c-.16.63-.32,1.42-.49,2l-.62,2.24Z"/><path class="cls-7" d="M933.55,551.86V541.32h2.79l2.19,3.86a32.23,32.23,0,0,1,1.72,3.61h0a38.12,38.12,0,0,1-.21-4.39v-3.08h2.19v10.54h-2.5l-2.25-4.07a35.69,35.69,0,0,1-1.83-3.72l-.05,0c.06,1.39.09,2.87.09,4.59v3.18Z"/><path class="cls-7" d="M944.34,541.46a21.47,21.47,0,0,1,3.23-.22,6.73,6.73,0,0,1,4.31,1.13,4.65,4.65,0,0,1,1.79,4,5.34,5.34,0,0,1-1.76,4.27,7.58,7.58,0,0,1-4.86,1.36,20.27,20.27,0,0,1-2.71-.16Zm2.4,8.6a4.1,4.1,0,0,0,.83.05c2.15,0,3.56-1.18,3.56-3.69a3,3,0,0,0-3.31-3.35,5.45,5.45,0,0,0-1.08.09Z"/><path class="cls-7" d="M960.84,549.15l-.75,2.71h-2.47l3.22-10.54H964l3.27,10.54h-2.57l-.81-2.71Zm2.68-1.78-.66-2.24c-.19-.62-.38-1.4-.53-2h0c-.16.63-.32,1.42-.49,2l-.62,2.24Z"/><path class="cls-7" d="M968.64,551.86V541.32h2.79l2.19,3.86a32.23,32.23,0,0,1,1.72,3.61h0a40.61,40.61,0,0,1-.2-4.39v-3.08h2.19v10.54h-2.5l-2.25-4.07a35.69,35.69,0,0,1-1.83-3.72l0,0c.06,1.39.09,2.87.09,4.59v3.18Z"/><path class="cls-7" d="M979.43,541.46a21.47,21.47,0,0,1,3.23-.22,6.73,6.73,0,0,1,4.31,1.13,4.64,4.64,0,0,1,1.78,4,5.33,5.33,0,0,1-1.75,4.27,7.58,7.58,0,0,1-4.86,1.36,20.27,20.27,0,0,1-2.71-.16Zm2.4,8.6a4.1,4.1,0,0,0,.83.05c2.15,0,3.56-1.18,3.56-3.69a3,3,0,0,0-3.31-3.35,5.45,5.45,0,0,0-1.08.09Z"/><path class="cls-7" d="M1001.22,551.56a6.79,6.79,0,0,1-2.71.46c-3.64,0-5.52-2.27-5.52-5.27,0-3.6,2.57-5.6,5.76-5.6a6.17,6.17,0,0,1,2.59.47l-.48,1.89a5.06,5.06,0,0,0-2-.39,3.46,3.46,0,0,0,0,6.92,5.93,5.93,0,0,0,2-.34Z"/><path class="cls-7" d="M1012,546.48c0,3.46-2.1,5.55-5.18,5.55s-4.95-2.36-4.95-5.36c0-3.16,2-5.52,5.13-5.52S1012,543.57,1012,546.48Zm-7.62.14c0,2.06,1,3.52,2.57,3.52s2.53-1.53,2.53-3.58c0-1.89-.91-3.52-2.55-3.52S1004.34,544.57,1004.34,546.62Z"/><path class="cls-7" d="M1013.52,551.86V541.32h2.79l2.19,3.86a32.23,32.23,0,0,1,1.72,3.61h0a40.61,40.61,0,0,1-.2-4.39v-3.08h2.19v10.54h-2.5l-2.26-4.07a40.17,40.17,0,0,1-1.83-3.72l0,0c.06,1.39.09,2.87.09,4.59v3.18Z"/><path class="cls-7" d="M1026.34,543.32h-2.83v-2h8.1v2h-2.87v8.54h-2.4Z"/><path class="cls-7" d="M1032.88,541.46a20.34,20.34,0,0,1,3.17-.22,5.33,5.33,0,0,1,3.41.83,2.65,2.65,0,0,1,1,2.2,2.79,2.79,0,0,1-1.86,2.6v0a2.64,2.64,0,0,1,1.41,2c.33,1.19.66,2.56.86,3h-2.44a13.4,13.4,0,0,1-.73-2.46c-.29-1.31-.74-1.67-1.71-1.69h-.72v4.15h-2.36Zm2.36,4.53h.94c1.19,0,1.89-.59,1.89-1.51s-.65-1.46-1.75-1.47a6.38,6.38,0,0,0-1.08.07Z"/><path class="cls-7" d="M1051.74,546.48c0,3.46-2.1,5.55-5.18,5.55s-5-2.36-5-5.36c0-3.16,2-5.52,5.13-5.52S1051.74,543.57,1051.74,546.48Zm-7.62.14c0,2.06,1,3.52,2.57,3.52s2.53-1.53,2.53-3.58c0-1.89-.91-3.52-2.55-3.52S1044.12,544.57,1044.12,546.62Z"/><path class="cls-7" d="M1053.3,541.32h2.39v8.54h4.2v2h-6.59Z"/><path class="cls-7" d="M933,570.33a6.83,6.83,0,0,1-2.71.45c-3.64,0-5.52-2.27-5.52-5.27,0-3.6,2.57-5.6,5.76-5.6a6.17,6.17,0,0,1,2.59.47l-.48,1.89a5.24,5.24,0,0,0-2-.39,3.47,3.47,0,0,0,0,6.93,6.19,6.19,0,0,0,2-.34Z"/><path class="cls-7" d="M943.72,565.24c0,3.46-2.1,5.56-5.18,5.56s-4.95-2.37-4.95-5.37c0-3.16,2-5.52,5.13-5.52S943.72,562.33,943.72,565.24Zm-7.62.14c0,2.07,1,3.52,2.57,3.52s2.53-1.53,2.53-3.58c0-1.89-.91-3.52-2.55-3.52S936.1,563.33,936.1,565.38Z"/><path class="cls-7" d="M954.2,566.59c-.05-1.27-.1-2.8-.1-4.33h0c-.33,1.34-.77,2.84-1.18,4.08l-1.28,4.11h-1.86l-1.13-4.08c-.34-1.24-.7-2.74-1-4.11h0c-.06,1.42-.11,3-.19,4.36l-.19,4h-2.2l.67-10.54h3.18l1,3.52c.33,1.22.65,2.53.89,3.77h0c.29-1.22.65-2.61,1-3.78l1.12-3.51h3.12l.57,10.54h-2.33Z"/><path class="cls-7" d="M958.51,560.22a20.14,20.14,0,0,1,3.22-.22,5.06,5.06,0,0,1,3.22.85,3.06,3.06,0,0,1,1.13,2.44,3.34,3.34,0,0,1-1,2.5,6,6,0,0,1-4.24,1.06v3.77h-2.36Zm2.36,4.79a3.56,3.56,0,0,0,.8.06c1.27,0,2.05-.64,2.05-1.72s-.67-1.55-1.86-1.55a3.82,3.82,0,0,0-1,.1Z"/><path class="cls-7" d="M970,560.08v6.07c0,1.81.69,2.74,1.91,2.74s1.94-.88,1.94-2.74v-6.07h2.38V566c0,3.26-1.64,4.81-4.4,4.81s-4.22-1.47-4.22-4.84v-5.88Z"/><path class="cls-7" d="M980.29,562.08h-2.83v-2h8.1v2h-2.87v8.54h-2.4Z"/><path class="cls-7" d="M993.1,566.17h-3.88v2.5h4.33v2h-6.72V560.08h6.51v2h-4.12v2.19h3.88Z"/><path class="cls-7" d="M995.18,560.22a21.66,21.66,0,0,1,3.17-.22,5.4,5.4,0,0,1,3.41.83,2.67,2.67,0,0,1,1,2.21,2.78,2.78,0,0,1-1.86,2.59v0a2.66,2.66,0,0,1,1.41,2c.33,1.19.66,2.57.86,3h-2.44a13.45,13.45,0,0,1-.74-2.45c-.28-1.32-.73-1.67-1.7-1.69h-.72v4.14h-2.36Zm2.36,4.54h.94c1.19,0,1.89-.6,1.89-1.52s-.66-1.45-1.75-1.47a6,6,0,0,0-1.08.08Z"/><path class="cls-7" d="M1004.53,568.17a6.06,6.06,0,0,0,2.64.66c1.1,0,1.68-.46,1.68-1.15s-.5-1-1.77-1.48c-1.75-.61-2.89-1.58-2.89-3.12,0-1.79,1.5-3.17,4-3.17a6.46,6.46,0,0,1,2.69.53l-.53,1.93a4.89,4.89,0,0,0-2.2-.5c-1,0-1.54.46-1.54,1s.6,1,2,1.49c1.86.69,2.74,1.66,2.74,3.14,0,1.77-1.36,3.27-4.26,3.27a6.93,6.93,0,0,1-3-.64Z"/><rect class="cls-9" x="851.94" y="183.4" width="233.24" height="96.13" rx="12"/><path class="cls-7" d="M911.18,220.4v10.54h-2.39V220.4Z"/><path class="cls-7" d="M913.24,230.94V220.4H916l2.18,3.86a30,30,0,0,1,1.73,3.62h0a40.92,40.92,0,0,1-.2-4.4V220.4H922v10.54h-2.5l-2.26-4.07a40.17,40.17,0,0,1-1.83-3.72l0,0c.06,1.39.09,2.87.09,4.6v3.17Z"/><path class="cls-7" d="M926.06,222.4h-2.83v-2h8.1v2h-2.87v8.54h-2.4Z"/><path class="cls-7" d="M938.87,226.48H935V229h4.34v1.95H932.6V220.4h6.51v1.95H935v2.19h3.88Z"/><path class="cls-7" d="M941,220.54a20.34,20.34,0,0,1,3.17-.22,5.45,5.45,0,0,1,3.42.83,2.69,2.69,0,0,1,1,2.2,2.79,2.79,0,0,1-1.86,2.6V226a2.64,2.64,0,0,1,1.41,2c.33,1.19.66,2.56.86,3h-2.44a13.4,13.4,0,0,1-.73-2.46c-.28-1.31-.74-1.67-1.71-1.68h-.72v4.14H941Zm2.36,4.54h.94c1.19,0,1.89-.6,1.89-1.52s-.65-1.46-1.75-1.47a5.15,5.15,0,0,0-1.08.08Z"/><path class="cls-7" d="M950.22,230.94V220.4H953l2.19,3.86a31.56,31.56,0,0,1,1.72,3.62h0a40.92,40.92,0,0,1-.2-4.4V220.4H959v10.54h-2.5l-2.25-4.07a35.69,35.69,0,0,1-1.83-3.72l0,0c.06,1.39.09,2.87.09,4.6v3.17Z"/><path class="cls-7" d="M963.47,228.23l-.75,2.71h-2.47l3.22-10.54h3.13l3.26,10.54H967.3l-.81-2.71Zm2.67-1.78-.66-2.23c-.18-.63-.37-1.41-.53-2h0c-.15.63-.31,1.42-.48,2l-.63,2.23Z"/><path class="cls-7" d="M971.27,220.4h2.39v8.54h4.19v2h-6.58Z"/><path class="cls-7" d="M984.87,228.23l-.75,2.71h-2.47l3.22-10.54H988l3.27,10.54h-2.56l-.82-2.71Zm2.68-1.78-.66-2.23c-.19-.63-.37-1.41-.53-2h0c-.16.63-.31,1.42-.49,2l-.62,2.23Z"/><path class="cls-7" d="M994.51,220.4v6.07c0,1.81.68,2.73,1.9,2.73s1.94-.87,1.94-2.73V220.4h2.38v5.91c0,3.25-1.64,4.8-4.39,4.8s-4.23-1.47-4.23-4.83V220.4Z"/><path class="cls-7" d="M1002.79,220.54a21.42,21.42,0,0,1,3.22-.22,6.74,6.74,0,0,1,4.32,1.13,4.64,4.64,0,0,1,1.78,4,5.33,5.33,0,0,1-1.75,4.27,7.58,7.58,0,0,1-4.86,1.36,20.27,20.27,0,0,1-2.71-.16Zm2.4,8.6a4,4,0,0,0,.82.05c2.16,0,3.57-1.17,3.57-3.69a3,3,0,0,0-3.31-3.35,5.45,5.45,0,0,0-1.08.09Z"/><path class="cls-7" d="M1016.07,220.4v10.54h-2.39V220.4Z"/><path class="cls-7" d="M1027.78,225.56c0,3.46-2.09,5.55-5.17,5.55s-5-2.36-5-5.36c0-3.16,2-5.52,5.13-5.52S1027.78,222.65,1027.78,225.56Zm-7.61.14c0,2.07,1,3.52,2.56,3.52s2.53-1.53,2.53-3.58c0-1.89-.9-3.52-2.54-3.52S1020.17,223.65,1020.17,225.7Z"/><path class="cls-7" d="M930.09,249.41a6.77,6.77,0,0,1-2.7.45c-3.65,0-5.52-2.27-5.52-5.27,0-3.6,2.56-5.6,5.75-5.6a6.23,6.23,0,0,1,2.6.47l-.49,1.89a5.16,5.16,0,0,0-2-.39,3.47,3.47,0,0,0,0,6.93,6.13,6.13,0,0,0,2-.34Z"/><path class="cls-7" d="M940.84,244.32c0,3.46-2.1,5.56-5.18,5.56s-5-2.36-5-5.37,2-5.52,5.13-5.52S940.84,241.42,940.84,244.32Zm-7.62.15c0,2.06,1,3.51,2.56,3.51s2.54-1.53,2.54-3.58c0-1.89-.91-3.52-2.55-3.52S933.22,242.42,933.22,244.47Z"/><path class="cls-7" d="M942.4,249.71V239.16h2.78l2.19,3.87a29.84,29.84,0,0,1,1.72,3.61h0a38.38,38.38,0,0,1-.2-4.4v-3.08h2.18v10.55h-2.5l-2.25-4.07a40.13,40.13,0,0,1-1.83-3.72h0c.07,1.39.1,2.88.1,4.6v3.18Z"/><path class="cls-7" d="M955.22,241.17h-2.83v-2h8.1v2h-2.88v8.54h-2.39Z"/><path class="cls-7" d="M961.75,239.3a21.91,21.91,0,0,1,3.18-.21,5.42,5.42,0,0,1,3.41.82,2.7,2.7,0,0,1,1,2.21,2.8,2.8,0,0,1-1.86,2.6v0a2.69,2.69,0,0,1,1.41,2,28,28,0,0,0,.86,3h-2.44a12.35,12.35,0,0,1-.74-2.46c-.28-1.31-.73-1.67-1.7-1.69h-.72v4.15h-2.37Zm2.37,4.54h.93c1.19,0,1.9-.59,1.9-1.52s-.66-1.45-1.75-1.47a6,6,0,0,0-1.08.08Z"/><path class="cls-7" d="M980.62,244.32c0,3.46-2.1,5.56-5.18,5.56s-5-2.36-5-5.37,2-5.52,5.13-5.52S980.62,241.42,980.62,244.32Zm-7.62.15c0,2.06,1,3.51,2.56,3.51s2.54-1.53,2.54-3.58c0-1.89-.91-3.52-2.55-3.52S973,242.42,973,244.47Z"/><path class="cls-7" d="M982.18,239.16h2.39v8.54h4.19v2h-6.58Z"/><path class="cls-7" d="M990.17,239.16h2.39v8.54h4.19v2h-6.58Z"/><path class="cls-7" d="M1004.43,245.25h-3.88v2.5h4.33v2h-6.72V239.16h6.5v2h-4.11v2.19h3.88Z"/><path class="cls-7" d="M1006.51,239.3a21.75,21.75,0,0,1,3.17-.21,5.4,5.4,0,0,1,3.41.82,2.67,2.67,0,0,1,1,2.21,2.8,2.8,0,0,1-1.86,2.6v0a2.66,2.66,0,0,1,1.41,2c.33,1.19.66,2.57.86,3H1012a14,14,0,0,1-.74-2.46c-.28-1.31-.73-1.67-1.7-1.69h-.72v4.15h-2.36Zm2.36,4.54h.94c1.19,0,1.89-.59,1.89-1.52s-.66-1.45-1.75-1.47a6,6,0,0,0-1.08.08Z"/><rect class="cls-9" x="463.65" y="307.66" width="233.24" height="168.53" rx="12"/><text class="cls-10" transform="translate(487.07 334.51)">S<tspan class="cls-11" x="6.47" y="0">-BAND 1</tspan></text><text class="cls-12" transform="translate(487.69 383.38)">EL<tspan class="cls-13" x="12.53" y="0">E</tspan><tspan class="cls-14" x="19.04" y="0">V</tspan><tspan class="cls-15" x="25.56" y="0">A</tspan><tspan x="32.51" y="0">TION</tspan></text><text class="cls-12" transform="translate(487.69 432.73)">AZIMUTH</text><text class="cls-12" transform="translate(611.46 383.38)">EL<tspan class="cls-13" x="12.53" y="0">E</tspan><tspan class="cls-14" x="19.04" y="0">V</tspan><tspan class="cls-15" x="25.56" y="0">A</tspan><tspan x="32.51" y="0">TION</tspan></text><text class="cls-12" transform="translate(618.01 432.73)">AZIMUTH</text><text class="cls-10" transform="translate(619.57 334.51)">S<tspan class="cls-11" x="6.47" y="0">-BAND 2</tspan></text><line class="cls-8" x1="568.43" y1="248.35" x2="579.65" y2="251.5"/><line class="cls-8" x1="578.17" y1="249.38" x2="578.17" y2="265.96"/><polygon class="cls-7" points="562.89 260.9 595.23 260.73 599.33 269 566.99 269.17 562.89 260.9"/><polygon class="cls-16" points="566.99 269.17 566.97 285.69 599.31 285.52 599.33 269 566.99 269.17"/><polygon class="cls-17" points="566.97 285.69 562.85 293.95 595.18 293.77 599.31 285.52 566.97 285.69"/><polygon class="cls-18" points="562.89 261.72 566.77 269.52 566.75 285.11 562.86 292.91 558.98 285.1 559 269.51 562.89 261.72"/><circle class="cls-7" cx="566.85" cy="246.91" r="6.06"/><polygon class="cls-16" points="526.08 238.55 561.62 254.01 571.61 239.13 543.61 212.41 526.08 238.55"/><ellipse class="cls-19" cx="534.84" cy="225.48" rx="15.74" ry="2.61" transform="translate(49.6 543.97) rotate(-56.14)"/><path class="cls-7" d="M554.55,181.2a5.5,5.5,0,0,0,2.37.59c1,0,1.5-.41,1.5-1s-.45-.92-1.59-1.33c-1.57-.54-2.59-1.41-2.59-2.78,0-1.61,1.35-2.85,3.57-2.85a5.79,5.79,0,0,1,2.41.48l-.47,1.72a4.56,4.56,0,0,0-2-.45c-.92,0-1.37.42-1.37.91s.53.87,1.75,1.33c1.67.62,2.45,1.49,2.45,2.82,0,1.58-1.22,2.93-3.81,2.93a6.13,6.13,0,0,1-2.68-.58Z"/><path class="cls-7" d="M565.37,179v1.42H561.7V179Z"/><path class="cls-7" d="M566.71,174.08a17.42,17.42,0,0,1,2.76-.19,5.16,5.16,0,0,1,2.79.53,2.05,2.05,0,0,1,1.14,1.85,2.14,2.14,0,0,1-1.56,2v0a2.37,2.37,0,0,1,1.88,2.33,2.5,2.5,0,0,1-1,2,5.94,5.94,0,0,1-3.71.86,16.73,16.73,0,0,1-2.32-.14Zm2.12,3.62h.7c1.12,0,1.72-.47,1.72-1.17s-.54-1.09-1.51-1.09a5.44,5.44,0,0,0-.91.06Zm0,4.18a6.3,6.3,0,0,0,.83,0c1,0,1.82-.36,1.82-1.36s-.86-1.33-1.92-1.33h-.73Z"/><path class="cls-7" d="M577.31,181l-.67,2.43h-2.21l2.88-9.44h2.81L583,183.4h-2.29L580,181Zm2.4-1.59-.59-2c-.17-.56-.34-1.26-.48-1.82h0c-.14.56-.28,1.28-.44,1.82l-.56,2Z"/><path class="cls-7" d="M584.3,183.4V174h2.49l2,3.46a27.3,27.3,0,0,1,1.54,3.23h.05a32.65,32.65,0,0,1-.19-3.93V174h2v9.44h-2.24l-2-3.64a34.5,34.5,0,0,1-1.64-3.34l0,0c.05,1.24.08,2.57.08,4.11v2.85Z"/><path class="cls-7" d="M594,174.08a19.92,19.92,0,0,1,2.88-.19,6.11,6.11,0,0,1,3.87,1,4.2,4.2,0,0,1,1.6,3.56,4.8,4.8,0,0,1-1.57,3.83,6.84,6.84,0,0,1-4.36,1.22,18.37,18.37,0,0,1-2.42-.14Zm2.14,7.71a4.12,4.12,0,0,0,.74,0c1.94,0,3.2-1.05,3.2-3.31a2.71,2.71,0,0,0-3-3,4.65,4.65,0,0,0-1,.08Z"/><path class="cls-7" d="M550,197.77l-.67,2.43h-2.21l2.88-9.44h2.8l2.93,9.44h-2.3l-.72-2.43Zm2.4-1.59-.59-2c-.17-.56-.34-1.26-.48-1.82h0c-.14.56-.28,1.28-.43,1.82l-.56,2Z"/><path class="cls-7" d="M557,200.2v-9.44h2.49l2,3.46a27.3,27.3,0,0,1,1.54,3.23h0a34.94,34.94,0,0,1-.18-3.93v-2.76h2v9.44H562.6l-2-3.64a34.45,34.45,0,0,1-1.63-3.34l-.05,0c.06,1.24.09,2.57.09,4.11v2.85Z"/><path class="cls-7" d="M568.51,192.55H566v-1.79h7.26v1.79h-2.58v7.65h-2.14Z"/><path class="cls-7" d="M580,196.21H576.5v2.24h3.88v1.75h-6v-9.44h5.83v1.75H576.5v2H580Z"/><path class="cls-7" d="M581.83,200.2v-9.44h2.5l2,3.46a27.3,27.3,0,0,1,1.54,3.23h0a34.94,34.94,0,0,1-.18-3.93v-2.76h2v9.44h-2.24l-2-3.64a37,37,0,0,1-1.64-3.34l0,0c.06,1.24.09,2.57.09,4.11v2.85Z"/><path class="cls-7" d="M591.49,200.2v-9.44H594l2,3.46a27.3,27.3,0,0,1,1.54,3.23h0a34.94,34.94,0,0,1-.18-3.93v-2.76h2v9.44h-2.24l-2-3.64a37,37,0,0,1-1.64-3.34l0,0c.06,1.24.09,2.57.09,4.11v2.85Z"/><path class="cls-7" d="M603.35,197.77l-.67,2.43h-2.21l2.88-9.44h2.81l2.92,9.44h-2.29l-.73-2.43Zm2.4-1.59-.59-2c-.17-.56-.33-1.26-.48-1.82h0c-.14.56-.28,1.28-.44,1.82l-.56,2Z"/><text class="cls-3" transform="translate(110.28 476.19)">G<tspan class="cls-20" x="9.55" y="0">R</tspan><tspan class="cls-21" x="17.79" y="0">OUND N</tspan><tspan class="cls-22" x="69.27" y="0">E</tspan><tspan class="cls-23" x="76.82" y="0">T</tspan><tspan class="cls-24" x="84.88" y="0">W</tspan><tspan x="97.2" y="0">ORK</tspan></text><path class="cls-8" d="M479.2,247.44a58.6,58.6,0,0,1,31.12-76.87"/><path class="cls-8" d="M495.51,242.25a41,41,0,0,1,21.74-53.71"/><path class="cls-8" d="M509.48,234a22.22,22.22,0,0,1,11.8-29.14"/><line class="cls-25" x1="726.82" y1="414.36" x2="779.06" y2="414.36"/><polygon class="cls-7" points="732.71 422.13 729.41 414.36 732.71 406.58 714.28 414.36 732.71 422.13"/><line class="cls-25" x1="726.82" y1="377.96" x2="779.03" y2="377.96"/><polygon class="cls-7" points="732.71 385.74 729.41 377.96 732.71 370.18 714.28 377.96 732.71 385.74"/><line class="cls-25" x1="822.01" y1="552.38" x2="776.08" y2="552.38"/><polygon class="cls-7" points="816.11 544.61 819.41 552.38 816.11 560.16 834.54 552.38 816.11 544.61"/><line class="cls-25" x1="822.01" y1="231.57" x2="776.09" y2="231.57"/><polygon class="cls-7" points="816.11 223.79 819.41 231.57 816.11 239.34 834.54 231.57 816.11 223.79"/><line class="cls-25" x1="777.58" y1="377.96" x2="777.58" y2="231.57"/><line class="cls-25" x1="777.58" y1="414.36" x2="777.58" y2="552.38"/></g><g id="Layer_3" data-name="Layer 3"><polygon class="cls-26" points="138.16 650.67 125.38 650.67 102.28 705.26 154.87 705.26 138.16 650.67"/><circle class="cls-7" cx="130.57" cy="650.67" r="13.65"/><path class="cls-26" d="M70.27,563.18c-1.91,28.49,23.19,63.05,63.48,83.71s83.21,20.86,105.19,2.53Z"/><circle class="cls-26" cx="172.35" cy="566.12" r="12.92"/><line class="cls-27" x1="172.35" y1="566.12" x2="86.64" y2="579.04"/><line class="cls-27" x1="172.35" y1="566.12" x2="208.48" y2="637.02"/><line class="cls-27" x1="172.35" y1="566.12" x2="144.21" y2="622.3"/></g></svg>