<svg xmlns="http://www.w3.org/2000/svg" viewBox="0 0 1190 700"><defs><style>.cls-1{fill:#434444;}.cls-15,.cls-2,.cls-3,.cls-33{fill:none;}.cls-2{stroke:#4f87bf;}.cls-15,.cls-2,.cls-24,.cls-25,.cls-26,.cls-3,.cls-33,.cls-6{stroke-miterlimit:10;}.cls-15,.cls-2,.cls-26,.cls-3,.cls-6{stroke-width:3px;}.cls-3{stroke:#c2524f;}.cls-26,.cls-4{fill:#4f87bf;}.cls-5{fill:#c2524f;}.cls-24,.cls-6{fill:#606161;}.cls-15,.cls-24,.cls-25,.cls-26,.cls-33,.cls-6{stroke:#fff;}.cls-19,.cls-7,.cls-8{fill:#fff;}.cls-8{font-size:14px;font-family:MyriadPro-Bold, Myriad Pro;font-weight:700;}.cls-9{letter-spacing:-0.03em;}.cls-10{letter-spacing:-0.04em;}.cls-11{letter-spacing:-0.05em;}.cls-12{letter-spacing:-0.08em;}.cls-13{letter-spacing:-0.03em;}.cls-14{letter-spacing:-0.05em;}.cls-16{letter-spacing:-0.08em;}.cls-17{letter-spacing:-0.04em;}.cls-18{letter-spacing:-0.02em;}.cls-19{font-size:13px;font-family:MyriadPro-Regular, Myriad Pro;}.cls-20{letter-spacing:-0.05em;}.cls-21{letter-spacing:-0.01em;}.cls-22{letter-spacing:0em;}.cls-23{letter-spacing:-0.02em;}.cls-25{fill:#bababa;}.cls-27{letter-spacing:0em;}.cls-28{letter-spacing:-0.01em;}.cls-29{letter-spacing:-0.01em;}.cls-30{letter-spacing:-0.04em;}.cls-31{letter-spacing:0em;}.cls-32{letter-spacing:0.01em;}</style></defs><g id="Layer_1" data-name="Layer 1"><rect class="cls-1" x="-9.89" y="-7.24" width="1208.97" height="716.84"/><path class="cls-2" d="M934.71,186.29a47.44,47.44,0,0,0-47.47-47.47"/><path class="cls-3" d="M887.24,354.16a47.44,47.44,0,0,0,47.47-47.47"/><path class="cls-3" d="M506.18,306.69a47.45,47.45,0,0,0,47.48,47.47"/><line class="cls-2" x1="887.24" y1="138.82" x2="529.71" y2="138.82"/><line class="cls-2" x1="456.68" y1="138.82" x2="327.56" y2="138.82"/><polygon class="cls-4" points="448.26 127.71 452.98 138.82 448.26 149.93 474.59 138.82 448.26 127.71"/><line class="cls-2" x1="934.71" y1="186.29" x2="934.71" y2="194.49"/><polygon class="cls-4" points="923.6 186.06 934.71 190.78 945.82 186.06 934.71 212.4 923.6 186.06"/><line class="cls-3" x1="506.18" y1="306.69" x2="506.18" y2="187.11"/><polygon class="cls-5" points="517.29 195.53 506.18 190.81 495.07 195.53 506.18 169.2 517.29 195.53"/><polygon class="cls-6" points="513.73 153.59 515.34 150.79 535.86 138.95 515.34 127.11 513.73 124.31 496.82 124.31 491.54 133.46 476.51 124.79 476.51 151.24 490.73 143.03 496.82 153.59 500.99 153.59 493.05 167.35 517.51 167.35 509.56 153.59 513.73 153.59"/><line class="cls-3" x1="887.24" y1="354.16" x2="345.47" y2="354.16"/><polygon class="cls-5" points="353.89 343.05 349.17 354.16 353.89 365.27 327.56 354.16 353.89 343.05"/><path class="cls-7" d="M462.91,77.9h-2.54V76.11h7.26V77.9h-2.58v7.65h-2.14Z"/><path class="cls-7" d="M474.37,81.56H470.9V83.8h3.88v1.75h-6V76.11h5.82v1.75H470.9v2h3.47Z"/><path class="cls-7" d="M484.22,81.94c-.05-1.14-.09-2.51-.09-3.88h0c-.29,1.2-.69,2.55-1,3.65l-1.15,3.69h-1.67l-1-3.66c-.31-1.11-.63-2.45-.86-3.68h0c-.05,1.27-.09,2.73-.16,3.91L478,85.55h-2l.6-9.44h2.85l.92,3.15c.3,1.09.59,2.27.8,3.38h0c.27-1.09.59-2.34.9-3.39l1-3.14h2.79l.51,9.44h-2.08Z"/><path class="cls-7" d="M488.08,76.24A16.43,16.43,0,0,1,491,76a4.5,4.5,0,0,1,2.89.76,2.75,2.75,0,0,1,1,2.18,3,3,0,0,1-.87,2.24,4.37,4.37,0,0,1-3.07,1,7.27,7.27,0,0,1-.73,0v3.37h-2.11Zm2.11,4.28a2.83,2.83,0,0,0,.72.06c1.13,0,1.83-.58,1.83-1.54s-.6-1.39-1.67-1.39a3.23,3.23,0,0,0-.88.09Z"/><path class="cls-7" d="M501.83,81.56h-3.48V83.8h3.88v1.75h-6V76.11H502v1.75h-3.69v2h3.48Z"/><path class="cls-7" d="M503.69,76.24a17.55,17.55,0,0,1,2.84-.2,4.82,4.82,0,0,1,3.05.74,2.41,2.41,0,0,1,.87,2,2.49,2.49,0,0,1-1.67,2.32v0A2.37,2.37,0,0,1,510,82.89a26.19,26.19,0,0,0,.78,2.66h-2.19a11.74,11.74,0,0,1-.66-2.2c-.25-1.17-.66-1.5-1.52-1.51h-.65v3.71h-2.11Zm2.11,4.06h.84c1.07,0,1.7-.53,1.7-1.36s-.59-1.3-1.57-1.32a6.36,6.36,0,0,0-1,.07Z"/><path class="cls-7" d="M514.31,83.13l-.67,2.42h-2.21l2.88-9.44h2.8L520,85.55h-2.3L517,83.13Zm2.4-1.6-.59-2c-.17-.56-.34-1.26-.48-1.82h0c-.14.56-.29,1.27-.44,1.82l-.56,2Z"/><path class="cls-7" d="M522,77.9h-2.54V76.11h7.26V77.9H524.1v7.65H522Z"/><path class="cls-7" d="M529.94,76.11v5.44c0,1.62.61,2.45,1.71,2.45s1.73-.79,1.73-2.45V76.11h2.13v5.3c0,2.91-1.47,4.3-3.93,4.3s-3.79-1.32-3.79-4.33V76.11Z"/><path class="cls-7" d="M537.36,76.24a17.55,17.55,0,0,1,2.84-.2,4.82,4.82,0,0,1,3,.74,2.41,2.41,0,0,1,.87,2,2.49,2.49,0,0,1-1.67,2.32v0a2.37,2.37,0,0,1,1.26,1.77,26.19,26.19,0,0,0,.78,2.66H542.3a11.74,11.74,0,0,1-.66-2.2c-.25-1.17-.66-1.5-1.53-1.51h-.64v3.71h-2.11Zm2.11,4.06h.84c1.07,0,1.7-.53,1.7-1.36s-.59-1.3-1.57-1.32a6.23,6.23,0,0,0-1,.07Z"/><path class="cls-7" d="M551.27,81.56H547.8V83.8h3.88v1.75h-6V76.11h5.82v1.75H547.8v2h3.47Z"/><path class="cls-7" d="M462.55,102.08a6,6,0,0,1-2.42.41c-3.27,0-4.95-2-4.95-4.72a4.81,4.81,0,0,1,5.16-5,5.47,5.47,0,0,1,2.32.42l-.43,1.69a4.68,4.68,0,0,0-1.79-.35,3.11,3.11,0,0,0,0,6.21,5.31,5.31,0,0,0,1.78-.31Z"/><path class="cls-7" d="M472.17,97.53c0,3.1-1.88,5-4.64,5s-4.44-2.12-4.44-4.81,1.81-4.94,4.6-4.94S472.17,94.93,472.17,97.53Zm-6.82.13c0,1.85.87,3.15,2.3,3.15s2.26-1.37,2.26-3.21c0-1.69-.81-3.15-2.28-3.15S465.35,95.82,465.35,97.66Z"/><path class="cls-7" d="M473.56,102.35V92.91h2.5l2,3.46a27.44,27.44,0,0,1,1.54,3.24h0a35.23,35.23,0,0,1-.18-3.94V92.91h2v9.44h-2.24l-2-3.64c-.56-1-1.17-2.23-1.64-3.33h0c.06,1.25.09,2.58.09,4.12v2.84Z"/><path class="cls-7" d="M485.05,94.7h-2.54V92.91h7.26V94.7h-2.58v7.65h-2.14Z"/><path class="cls-7" d="M490.9,93a17.64,17.64,0,0,1,2.84-.2,4.82,4.82,0,0,1,3.05.74,2.41,2.41,0,0,1,.87,2A2.5,2.5,0,0,1,496,97.88v0a2.42,2.42,0,0,1,1.26,1.77,25,25,0,0,0,.77,2.66h-2.19a12,12,0,0,1-.66-2.2c-.25-1.17-.66-1.5-1.52-1.51H493v3.71H490.9ZM493,97.1h.84c1.07,0,1.7-.53,1.7-1.36s-.59-1.3-1.57-1.32a5.23,5.23,0,0,0-1,.07Z"/><path class="cls-7" d="M507.79,97.53c0,3.1-1.88,5-4.64,5s-4.44-2.12-4.44-4.81,1.81-4.94,4.59-4.94S507.79,94.93,507.79,97.53Zm-6.83.13c0,1.85.87,3.15,2.3,3.15s2.27-1.37,2.27-3.21c0-1.69-.81-3.15-2.28-3.15S501,95.82,501,97.66Z"/><path class="cls-7" d="M509.18,92.91h2.14v7.65h3.76v1.79h-5.9Z"/><path class="cls-7" d="M520.87,102.35l-3-9.44h2.34l1.14,4a33.38,33.38,0,0,1,.84,3.38h.05c.23-1.14.53-2.26.85-3.34l1.21-4h2.26l-3.17,9.44Z"/><path class="cls-7" d="M529,99.93l-.67,2.42h-2.21L529,92.91h2.8l2.93,9.44h-2.3l-.72-2.42Zm2.4-1.6-.59-2c-.17-.56-.34-1.26-.48-1.82h0c-.14.56-.28,1.27-.43,1.82l-.56,2Z"/><path class="cls-7" d="M536,92.91h2.14v7.65h3.75v1.79H536Z"/><path class="cls-7" d="M544.45,102.35l-3-9.44h2.34l1.15,4c.32,1.12.62,2.2.84,3.38h0c.24-1.14.53-2.26.86-3.34l1.2-4h2.27l-3.18,9.44Z"/><path class="cls-7" d="M556.74,98.36h-3.47v2.24h3.88v1.75h-6V92.91H557v1.75h-3.68v2h3.47Z"/><text class="cls-8" transform="translate(782.14 102.35)">PUMP</text><path class="cls-7" d="M691.6,70.51a6.29,6.29,0,0,1-2.43.4c-3.26,0-4.94-2-4.94-4.72a4.81,4.81,0,0,1,5.15-5,5.52,5.52,0,0,1,2.33.42l-.44,1.69a4.6,4.6,0,0,0-1.79-.35,2.85,2.85,0,0,0-3,3.13,2.82,2.82,0,0,0,3,3.08,5.26,5.26,0,0,0,1.78-.31Z"/><path class="cls-7" d="M701.21,66c0,3.09-1.87,5-4.63,5s-4.44-2.12-4.44-4.81,1.8-4.94,4.59-4.94S701.21,63.35,701.21,66Zm-6.82.12c0,1.85.87,3.15,2.3,3.15S699,67.86,699,66c0-1.69-.81-3.15-2.28-3.15S694.39,64.25,694.39,66.08Z"/><path class="cls-7" d="M711.25,66c0,3.09-1.87,5-4.63,5s-4.45-2.12-4.45-4.81,1.81-4.94,4.6-4.94S711.25,63.35,711.25,66Zm-6.82.12c0,1.85.87,3.15,2.3,3.15S709,67.86,709,66c0-1.69-.82-3.15-2.29-3.15S704.43,64.25,704.43,66.08Z"/><path class="cls-7" d="M712.65,61.33h2.14V69h3.75v1.79h-5.89Z"/><path class="cls-7" d="M722.08,68.35l-.67,2.42H719.2l2.88-9.44h2.81l2.92,9.44h-2.29l-.73-2.42Zm2.4-1.6-.59-2c-.17-.56-.33-1.26-.47-1.82h0c-.14.56-.28,1.27-.44,1.82l-.56,2Z"/><path class="cls-7" d="M729.07,70.77V61.33h2.49l2,3.46A27.44,27.44,0,0,1,735.06,68h.05a35,35,0,0,1-.19-3.94V61.33h2v9.44h-2.25l-2-3.64A35.5,35.5,0,0,1,731,63.8h0c0,1.25.08,2.58.08,4.12v2.84Z"/><path class="cls-7" d="M740.55,63.12H738V61.33h7.26v1.79h-2.58v7.65h-2.14Z"/><path class="cls-7" d="M700.3,79.92h-2.54V78.13H705v1.79h-2.58v7.65H700.3Z"/><path class="cls-7" d="M707.34,85.15l-.67,2.42h-2.21l2.88-9.44h2.8l2.93,9.44h-2.3l-.72-2.42Zm2.4-1.6-.59-2c-.17-.56-.34-1.26-.48-1.82h0c-.15.56-.28,1.27-.44,1.82l-.56,2Z"/><path class="cls-7" d="M714.33,87.57V78.13h2.49l2,3.46a27.44,27.44,0,0,1,1.54,3.24h0a35.12,35.12,0,0,1-.18-3.94V78.13h2v9.44H719.9l-2-3.64c-.55-1-1.17-2.23-1.63-3.33h0c.06,1.25.09,2.58.09,4.12v2.84Z"/><path class="cls-7" d="M724,78.13h2.11v4.18h0c.21-.37.44-.7.65-1l2.14-3.14h2.62l-3.12,4,3.29,5.42h-2.49l-2.31-4.07-.82,1v3.08H724Z"/><text class="cls-8" transform="translate(337.9 131.7)"><tspan class="cls-9">C</tspan><tspan x="7.91" y="0">OOL</tspan><tspan class="cls-10" x="35.14" y="0"> </tspan><tspan class="cls-11" x="37.45" y="0">W</tspan><tspan class="cls-12" x="49.13" y="0">A</tspan><tspan x="57.15" y="0">TER</tspan></text><path class="cls-7" d="M236.82,225.32h-3.47v2.25h3.88v1.75h-6v-9.44H237v1.75h-3.68v2h3.47Z"/><path class="cls-7" d="M243.65,229.32l-.85-1.71c-.35-.66-.57-1.15-.84-1.7h0c-.19.55-.43,1-.73,1.7l-.78,1.71H238l2.73-4.78-2.63-4.66h2.45l.83,1.72c.28.57.49,1,.71,1.57h0c.22-.61.41-1,.64-1.57l.8-1.72H246l-2.66,4.6,2.8,4.84Z"/><path class="cls-7" d="M249.17,221.67h-2.54v-1.79h7.26v1.79h-2.58v7.65h-2.14Z"/><path class="cls-7" d="M260.64,225.32h-3.48v2.25H261v1.75h-6v-9.44h5.83v1.75h-3.69v2h3.48Z"/><path class="cls-7" d="M262.5,220a19,19,0,0,1,2.84-.19,4.82,4.82,0,0,1,3.05.74,2.39,2.39,0,0,1,.87,2,2.5,2.5,0,0,1-1.67,2.33v0a2.37,2.37,0,0,1,1.26,1.77c.3,1.06.59,2.29.77,2.66h-2.18a12.3,12.3,0,0,1-.66-2.2c-.25-1.18-.66-1.5-1.53-1.52h-.64v3.72H262.5Zm2.11,4.06h.84c1.07,0,1.7-.53,1.7-1.35s-.59-1.31-1.57-1.32a5.14,5.14,0,0,0-1,.07Z"/><path class="cls-7" d="M270.8,229.32v-9.44h2.49l2,3.45a28.21,28.21,0,0,1,1.54,3.24h0a35.12,35.12,0,0,1-.18-3.94v-2.75h2v9.44h-2.24l-2-3.65a31.21,31.21,0,0,1-1.64-3.33h-.05c.06,1.25.09,2.58.09,4.12v2.85Z"/><path class="cls-7" d="M282.66,226.89l-.68,2.43h-2.21l2.89-9.44h2.8l2.92,9.44h-2.29l-.73-2.43Zm2.39-1.59-.59-2c-.17-.56-.33-1.26-.47-1.82h0c-.14.56-.28,1.28-.44,1.82l-.56,2Z"/><path class="cls-7" d="M289.64,219.88h2.14v7.64h3.76v1.8h-5.9Z"/><path class="cls-7" d="M241.77,245.85a6.06,6.06,0,0,1-2.43.41c-3.26,0-4.94-2-4.94-4.72a4.81,4.81,0,0,1,5.15-5,5.69,5.69,0,0,1,2.33.42l-.44,1.7a4.43,4.43,0,0,0-1.79-.35,3.1,3.1,0,0,0,0,6.2,5.26,5.26,0,0,0,1.78-.31Z"/><path class="cls-7" d="M251.38,241.3c0,3.09-1.87,5-4.63,5s-4.44-2.11-4.44-4.8,1.8-4.95,4.59-4.95S251.38,238.69,251.38,241.3Zm-6.82.12c0,1.85.87,3.16,2.3,3.16s2.27-1.38,2.27-3.21-.81-3.15-2.28-3.15S244.56,239.59,244.56,241.42Z"/><path class="cls-7" d="M261.42,241.3c0,3.09-1.88,5-4.63,5s-4.44-2.11-4.44-4.8,1.8-4.95,4.59-4.95S261.42,238.69,261.42,241.3Zm-6.82.12c0,1.85.87,3.16,2.3,3.16s2.27-1.38,2.27-3.21-.82-3.15-2.29-3.15S254.6,239.59,254.6,241.42Z"/><path class="cls-7" d="M262.82,236.67H265v7.65h3.75v1.8h-5.89Z"/><path class="cls-7" d="M272.11,236.67v9.45H270v-9.45Z"/><path class="cls-7" d="M274,246.12v-9.45h2.49l2,3.46a28.21,28.21,0,0,1,1.54,3.24h0a35.12,35.12,0,0,1-.18-3.94v-2.76h2v9.45h-2.24l-2-3.65a33.23,33.23,0,0,1-1.64-3.33h0c.05,1.25.08,2.58.08,4.12v2.85Z"/><path class="cls-7" d="M291.51,245.68a10.43,10.43,0,0,1-3.15.53,5.26,5.26,0,0,1-3.84-1.27,4.54,4.54,0,0,1-1.33-3.43c0-3.14,2.29-4.93,5.39-4.93a6.57,6.57,0,0,1,2.62.46l-.45,1.71a5.13,5.13,0,0,0-2.2-.41,3.08,3.08,0,0,0-.15,6.15,2.74,2.74,0,0,0,1.05-.14v-2H288v-1.67h3.52Z"/><path class="cls-7" d="M239,260.72a5.46,5.46,0,0,0,2.36.58c1,0,1.5-.4,1.5-1s-.45-.92-1.58-1.33c-1.57-.54-2.59-1.41-2.59-2.79,0-1.61,1.34-2.84,3.57-2.84a5.67,5.67,0,0,1,2.41.48l-.48,1.72a4.51,4.51,0,0,0-2-.45c-.93,0-1.37.42-1.37.91s.53.87,1.75,1.33c1.66.62,2.45,1.49,2.45,2.82,0,1.58-1.22,2.93-3.81,2.93a6.1,6.1,0,0,1-2.68-.58Z"/><path class="cls-7" d="M248.67,262.92v-3.87l-3-5.58h2.44l1,2.27c.3.69.49,1.19.73,1.81h0c.21-.59.43-1.13.71-1.81l1-2.27h2.39L250.8,259v3.94Z"/><path class="cls-7" d="M254.59,260.72a5.55,5.55,0,0,0,2.37.58c1,0,1.5-.4,1.5-1s-.45-.92-1.58-1.33c-1.57-.54-2.6-1.41-2.6-2.79,0-1.61,1.35-2.84,3.58-2.84a5.67,5.67,0,0,1,2.41.48l-.48,1.72a4.53,4.53,0,0,0-2-.45c-.92,0-1.37.42-1.37.91s.53.87,1.75,1.33c1.67.62,2.45,1.49,2.45,2.82,0,1.58-1.21,2.93-3.81,2.93a6.08,6.08,0,0,1-2.67-.58Z"/><path class="cls-7" d="M263.9,255.27h-2.53v-1.8h7.25v1.8h-2.57v7.65H263.9Z"/><path class="cls-7" d="M275.37,258.92H271.9v2.25h3.88v1.75h-6v-9.45h5.83v1.76H271.9v2h3.47Z"/><path class="cls-7" d="M285.21,259.3c0-1.13-.08-2.51-.08-3.88h0c-.3,1.21-.69,2.55-1,3.66l-1.15,3.68h-1.67l-1-3.65c-.3-1.11-.63-2.46-.85-3.69h0c-.05,1.28-.1,2.73-.17,3.91l-.16,3.59h-2l.6-9.45h2.85l.92,3.16c.29,1.09.59,2.27.8,3.37h0c.27-1.09.59-2.34.9-3.39l1-3.14h2.78l.52,9.45h-2.09Z"/><text class="cls-8" transform="translate(368.31 345.06)">H<tspan class="cls-13" x="9.65" y="0">O</tspan><tspan x="19.29" y="0">T</tspan><tspan class="cls-10" x="26.96" y="0"> </tspan><tspan class="cls-14" x="29.27" y="0">W</tspan><tspan class="cls-12" x="40.95" y="0">A</tspan><tspan x="48.97" y="0">TER</tspan></text><rect class="cls-15" x="855.19" y="212.4" width="159.03" height="94.29" rx="12"/><text class="cls-8" transform="translate(899.21 233.53)">HE<tspan class="cls-16" x="17.12" y="0">A</tspan><tspan x="25.14" y="0">T </tspan><tspan class="cls-17" x="35.64" y="0">L</tspan><tspan class="cls-18" x="42.27" y="0">O</tspan><tspan x="52.08" y="0">AD</tspan></text><text class="cls-19" transform="translate(908.61 255.19)"><tspan class="cls-20">A</tspan><tspan x="7.27" y="0">VIONICS</tspan></text><text class="cls-19" transform="translate(897 274.57)">EXPERIMEN<tspan class="cls-21" x="62.63" y="0">T</tspan><tspan class="cls-22" x="69.02" y="0">S</tspan></text><text class="cls-19" transform="translate(882.46 293.96)">AIR <tspan class="cls-23" x="20.81" y="0">C</tspan><tspan x="28.08" y="0">ONDITIONING</tspan></text><path class="cls-24" d="M687.31,103.66V174c0,4,12.22,7.17,27.3,7.17s27.29-3.21,27.29-7.17V103.66Z"/><ellipse class="cls-25" cx="714.61" cy="103.66" rx="27.3" ry="7.17"/><rect class="cls-15" x="198.59" y="92.76" width="128.97" height="292.12"/></g><g id="Layer_2" data-name="Layer 2"><path class="cls-26" d="M816.12,132a18.19,18.19,0,1,0-17.55,13.45h27.89V132Z"/><text class="cls-19" transform="translate(183.65 509.09)"><tspan class="cls-27">D</tspan><tspan x="8.71" y="0">esti</tspan><tspan class="cls-28" x="27.72" y="0">n</tspan><tspan class="cls-22" x="34.76" y="0">y Lab</tspan></text><path class="cls-7" d="M325.94,455.1h1.13v7.82h3.74v.95h-4.87Z"/><path class="cls-7" d="M337.55,460.67a3.08,3.08,0,0,1-3.13,3.34,3,3,0,0,1-3-3.24,3.08,3.08,0,0,1,3.12-3.34A3,3,0,0,1,337.55,460.67Zm-5,.06c0,1.38.79,2.42,1.91,2.42s1.91-1,1.91-2.44c0-1.07-.53-2.42-1.89-2.42S332.56,459.54,332.56,460.73Z"/><path class="cls-7" d="M339.35,457.57l.84,3.2c.18.7.35,1.35.47,2h0c.15-.63.36-1.31.56-2l1-3.21h1l1,3.15c.23.75.41,1.42.56,2h0a17.85,17.85,0,0,1,.48-2l.89-3.16h1.13l-2,6.3h-1l-1-3a19,19,0,0,1-.55-2.07h0a19.82,19.82,0,0,1-.57,2.09l-1,3h-1l-1.89-6.3Z"/><path class="cls-7" d="M352.39,456.06h-2.66v-1h6.49v1h-2.68v7.81h-1.15Z"/><path class="cls-7" d="M356.87,460.93a2,2,0,0,0,2.15,2.18,4.22,4.22,0,0,0,1.75-.32l.19.82a5.11,5.11,0,0,1-2.09.39,2.93,2.93,0,0,1-3.1-3.18c0-1.9,1.12-3.39,3-3.39a2.67,2.67,0,0,1,2.6,3,5.05,5.05,0,0,1,0,.54Zm3.35-.82a1.63,1.63,0,0,0-1.59-1.86,1.89,1.89,0,0,0-1.75,1.86Z"/><path class="cls-7" d="M362.74,459.28c0-.65,0-1.19-.05-1.71h1l.05,1h0a2.17,2.17,0,0,1,2-1.16,1.85,1.85,0,0,1,1.78,1.26h0a2.75,2.75,0,0,1,.71-.82,2.16,2.16,0,0,1,1.39-.44c.83,0,2.07.55,2.07,2.73v3.71h-1.12V460.3c0-1.21-.44-1.93-1.37-1.93a1.48,1.48,0,0,0-1.35,1,1.89,1.89,0,0,0-.09.57v3.89h-1.12v-3.78c0-1-.44-1.72-1.31-1.72a1.56,1.56,0,0,0-1.42,1.14,1.69,1.69,0,0,0-.09.56v3.8h-1.12Z"/><path class="cls-7" d="M373.58,459.63c0-.81,0-1.46-.05-2.06h1l.05,1.08h0a2.46,2.46,0,0,1,2.23-1.22c1.52,0,2.67,1.29,2.67,3.2,0,2.26-1.38,3.38-2.86,3.38a2.23,2.23,0,0,1-1.94-1h0v3.42h-1.13Zm1.13,1.67a2.23,2.23,0,0,0,.06.47,1.75,1.75,0,0,0,1.71,1.34c1.21,0,1.91-1,1.91-2.43,0-1.26-.66-2.34-1.87-2.34a1.83,1.83,0,0,0-1.73,1.42,1.77,1.77,0,0,0-.08.46Z"/><path class="cls-7" d="M381.62,460.93a2,2,0,0,0,2.16,2.18,4.2,4.2,0,0,0,1.74-.32l.19.82a5.11,5.11,0,0,1-2.09.39,2.92,2.92,0,0,1-3.09-3.18c0-1.9,1.11-3.39,3-3.39a2.67,2.67,0,0,1,2.6,3,5.05,5.05,0,0,1,0,.54Zm3.35-.82a1.63,1.63,0,0,0-1.58-1.86,1.89,1.89,0,0,0-1.76,1.86Z"/><path class="cls-7" d="M387.49,459.54c0-.75,0-1.38-.05-2h1l0,1.24h0a1.89,1.89,0,0,1,1.75-1.38,1,1,0,0,1,.32,0v1.08a1.51,1.51,0,0,0-.39,0,1.59,1.59,0,0,0-1.53,1.47,2.76,2.76,0,0,0-.06.53v3.36h-1.13Z"/><path class="cls-7" d="M395.16,463.87l-.09-.8h0a2.32,2.32,0,0,1-1.92.94,1.79,1.79,0,0,1-1.92-1.81c0-1.52,1.35-2.35,3.78-2.34v-.13a1.3,1.3,0,0,0-1.43-1.46,3.18,3.18,0,0,0-1.64.47l-.26-.75a3.91,3.91,0,0,1,2.07-.56c1.92,0,2.39,1.31,2.39,2.57v2.36a9.89,9.89,0,0,0,.1,1.51Zm-.16-3.22c-1.25,0-2.67.2-2.67,1.42a1,1,0,0,0,1.08,1.09,1.56,1.56,0,0,0,1.52-1.05,1.21,1.21,0,0,0,.07-.36Z"/><path class="cls-7" d="M399.27,455.77v1.8h1.64v.87h-1.64v3.4c0,.78.22,1.22.86,1.22a2.44,2.44,0,0,0,.66-.08l.06.86a2.89,2.89,0,0,1-1,.16,1.55,1.55,0,0,1-1.23-.49,2.27,2.27,0,0,1-.45-1.63v-3.44h-1v-.87h1v-1.51Z"/><path class="cls-7" d="M407.46,462.15c0,.65,0,1.22.05,1.72h-1l-.07-1h0a2.38,2.38,0,0,1-2.08,1.17c-1,0-2.17-.55-2.17-2.76v-3.68h1.14v3.49c0,1.19.37,2,1.41,2a1.64,1.64,0,0,0,1.5-1,1.59,1.59,0,0,0,.11-.59v-3.86h1.14Z"/><path class="cls-7" d="M409.36,459.54c0-.75,0-1.38-.05-2h1l0,1.24h0a1.88,1.88,0,0,1,1.74-1.38,1.15,1.15,0,0,1,.33,0v1.08a1.56,1.56,0,0,0-.39,0,1.61,1.61,0,0,0-1.54,1.47,4,4,0,0,0-.05.53v3.36h-1.13Z"/><path class="cls-7" d="M414.12,460.93a2,2,0,0,0,2.16,2.18,4.2,4.2,0,0,0,1.74-.32l.19.82a5.11,5.11,0,0,1-2.09.39,2.92,2.92,0,0,1-3.09-3.18c0-1.9,1.11-3.39,3-3.39a2.67,2.67,0,0,1,2.6,3,5.05,5.05,0,0,1,0,.54Zm3.35-.82a1.63,1.63,0,0,0-1.58-1.86,1.89,1.89,0,0,0-1.76,1.86Z"/><path class="cls-7" d="M422.79,455.1h1.13v7.82h3.74v.95h-4.87Z"/><path class="cls-7" d="M434.4,460.67a3.08,3.08,0,0,1-3.14,3.34,3,3,0,0,1-3-3.24,3.08,3.08,0,0,1,3.12-3.34A3,3,0,0,1,434.4,460.67Zm-5,.06c0,1.38.79,2.42,1.91,2.42s1.91-1,1.91-2.44c0-1.07-.54-2.42-1.89-2.42S429.41,459.54,429.41,460.73Z"/><path class="cls-7" d="M441.53,460.67A3.08,3.08,0,0,1,438.4,464a3,3,0,0,1-3-3.24,3.07,3.07,0,0,1,3.12-3.34A3,3,0,0,1,441.53,460.67Zm-5,.06c0,1.38.8,2.42,1.91,2.42s1.91-1,1.91-2.44c0-1.07-.53-2.42-1.88-2.42S436.54,459.54,436.54,460.73Z"/><path class="cls-7" d="M443,459.63c0-.81,0-1.46-.05-2.06h1l.05,1.08h0a2.47,2.47,0,0,1,2.24-1.22c1.52,0,2.66,1.29,2.66,3.2,0,2.26-1.38,3.38-2.86,3.38a2.23,2.23,0,0,1-1.94-1h0v3.42H443Zm1.13,1.67a2.26,2.26,0,0,0,.05.47,1.76,1.76,0,0,0,1.72,1.34c1.21,0,1.91-1,1.91-2.43,0-1.26-.67-2.34-1.87-2.34a1.83,1.83,0,0,0-1.73,1.42,1.77,1.77,0,0,0-.08.46Z"/><path class="cls-7" d="M341.93,479.18a5.62,5.62,0,0,1-2.31.41,4.09,4.09,0,0,1-4.33-4.43,4.36,4.36,0,0,1,4.57-4.6,4.65,4.65,0,0,1,2.08.39l-.27.92a4.25,4.25,0,0,0-1.77-.36,3.26,3.26,0,0,0-3.42,3.61,3.19,3.19,0,0,0,3.37,3.53,4.57,4.57,0,0,0,1.85-.37Z"/><path class="cls-7" d="M348.86,476.27a3.08,3.08,0,0,1-3.13,3.34,3,3,0,0,1-3-3.24,3.07,3.07,0,0,1,3.12-3.34A3,3,0,0,1,348.86,476.27Zm-5,.06c0,1.38.79,2.42,1.91,2.42s1.91-1,1.91-2.44c0-1.07-.53-2.42-1.89-2.42S343.87,475.14,343.87,476.33Z"/><path class="cls-7" d="M356,476.27a3.08,3.08,0,0,1-3.14,3.34,3,3,0,0,1-3-3.24A3.07,3.07,0,0,1,353,473,3,3,0,0,1,356,476.27Zm-5,.06c0,1.38.8,2.42,1.91,2.42s1.92-1,1.92-2.44c0-1.07-.54-2.42-1.89-2.42S351,475.14,351,476.33Z"/><path class="cls-7" d="M357.44,470.23h1.14v9.23h-1.14Z"/><path class="cls-7" d="M364,479.46l-.09-.79h0a2.33,2.33,0,0,1-1.92.94A1.8,1.8,0,0,1,360,477.8c0-1.52,1.35-2.35,3.79-2.34v-.13a1.3,1.3,0,0,0-1.43-1.45,3.17,3.17,0,0,0-1.64.46l-.26-.75a3.87,3.87,0,0,1,2.06-.56c1.93,0,2.4,1.31,2.4,2.57V478a8.57,8.57,0,0,0,.1,1.5Zm-.17-3.21c-1.25,0-2.66.2-2.66,1.42a1,1,0,0,0,1.08,1.09,1.58,1.58,0,0,0,1.52-1.05,1.18,1.18,0,0,0,.06-.36Z"/><path class="cls-7" d="M366.77,474.88c0-.65,0-1.19,0-1.71h1l.07,1h0a2.32,2.32,0,0,1,2.08-1.18c.87,0,2.22.52,2.22,2.68v3.75H371v-3.62c0-1-.37-1.86-1.45-1.86a1.63,1.63,0,0,0-1.54,1.17,1.7,1.7,0,0,0-.07.53v3.78h-1.15Z"/><path class="cls-7" d="M375.31,471.37v1.8H377V474h-1.64v3.4c0,.78.22,1.22.86,1.22a2.44,2.44,0,0,0,.66-.08l.06.86a2.89,2.89,0,0,1-1,.15,1.55,1.55,0,0,1-1.23-.48,2.27,2.27,0,0,1-.45-1.63V474h-1v-.87h1v-1.5Z"/><path class="cls-7" d="M388.26,480.75c-1.18-.31-2.34-.66-3.35-1a1.58,1.58,0,0,0-.54-.13c-2.08-.08-3.86-1.61-3.86-4.44s1.72-4.61,4.09-4.61,3.92,1.85,3.92,4.43c0,2.25-1,3.7-2.5,4.2v.05c.88.22,1.83.43,2.57.56Zm-.93-5.71c0-1.75-.91-3.56-2.77-3.56s-2.85,1.77-2.84,3.67,1,3.54,2.78,3.54S387.33,477.05,387.33,475Z"/><path class="cls-7" d="M395.25,477.75q0,1,.06,1.71h-1l-.06-1h0a2.36,2.36,0,0,1-2.08,1.17c-1,0-2.17-.55-2.17-2.76v-3.68h1.14v3.49c0,1.19.37,2,1.41,2a1.65,1.65,0,0,0,1.51-1,1.82,1.82,0,0,0,.1-.59v-3.86h1.14Z"/><path class="cls-7" d="M400.64,479.46l-.09-.79h0a2.34,2.34,0,0,1-1.93.94,1.79,1.79,0,0,1-1.92-1.81c0-1.52,1.35-2.35,3.78-2.34v-.13a1.29,1.29,0,0,0-1.43-1.45,3.23,3.23,0,0,0-1.64.46l-.26-.75a3.91,3.91,0,0,1,2.07-.56c1.92,0,2.39,1.31,2.39,2.57V478a8.5,8.5,0,0,0,.11,1.5Zm-.17-3.21c-1.25,0-2.67.2-2.67,1.42a1,1,0,0,0,1.08,1.09,1.56,1.56,0,0,0,1.52-1.05,1.21,1.21,0,0,0,.07-.36Z"/><path class="cls-7" d="M403.42,470.23h1.14v9.23h-1.14Z"/><path class="cls-7" d="M407.76,471.41a.68.68,0,0,1-.73.7.69.69,0,0,1-.69-.7.7.7,0,0,1,.72-.72A.68.68,0,0,1,407.76,471.41Zm-1.27,8v-6.29h1.14v6.29Z"/><path class="cls-7" d="M410.91,471.37v1.8h1.63V474h-1.63v3.4c0,.78.22,1.22.85,1.22a2.58,2.58,0,0,0,.67-.08l.05.86a2.82,2.82,0,0,1-1,.15,1.55,1.55,0,0,1-1.24-.48,2.32,2.32,0,0,1-.44-1.63V474h-1v-.87h1v-1.5Z"/><path class="cls-7" d="M414.36,473.17l1.38,3.72c.15.42.3.91.41,1.29h0c.12-.38.25-.86.4-1.31l1.25-3.7H419l-1.72,4.49c-.81,2.16-1.37,3.26-2.15,3.94a3.11,3.11,0,0,1-1.41.74l-.28-1a3.21,3.21,0,0,0,1-.56,3.5,3.5,0,0,0,1-1.28.84.84,0,0,0,.09-.27.82.82,0,0,0-.08-.3l-2.32-5.8Z"/><path class="cls-7" d="M425.31,470.44a8.6,8.6,0,0,0-1.64,5.32,8.8,8.8,0,0,0,1.64,5.28h-.9a8.42,8.42,0,0,1-1.7-5.28,8.59,8.59,0,0,1,1.7-5.32Z"/><path class="cls-7" d="M430,473.39c0,1.78-.93,2.67-2,2.67s-2-.85-2-2.55.92-2.64,2-2.64S430,471.78,430,473.39Zm-3.09.08c0,1.08.38,1.9,1.09,1.9s1.09-.81,1.09-1.92-.3-1.89-1.09-1.89S426.87,472.41,426.87,473.47Zm1,6.14,5-8.74h.73l-5,8.74Zm7.6-2.72c0,1.78-.93,2.67-2,2.67s-2-.85-2-2.54.93-2.65,2-2.65S435.46,475.28,435.46,476.89Zm-3.09.08c0,1.08.4,1.9,1.1,1.9s1.1-.81,1.1-1.93-.3-1.88-1.1-1.88S432.37,475.9,432.37,477Z"/><path class="cls-7" d="M436.13,481a8.83,8.83,0,0,0,1.63-5.32,8.66,8.66,0,0,0-1.63-5.28H437a8.3,8.3,0,0,1,1.7,5.29A8.48,8.48,0,0,1,437,481Z"/><path class="cls-7" d="M494.46,460c-.06-1.23-.14-2.69-.13-3.79h0c-.29,1-.66,2.12-1.1,3.33l-1.55,4.25h-.86l-1.41-4.17c-.42-1.23-.77-2.37-1-3.41h0c0,1.1-.09,2.56-.17,3.88l-.24,3.76h-1.07l.61-8.77h1.44l1.49,4.24c.37,1.08.67,2,.89,3h0c.22-.88.53-1.84.92-3l1.56-4.24h1.44l.55,8.77h-1.11Z"/><path class="cls-7" d="M503.26,460.67a3.08,3.08,0,0,1-3.13,3.34,3,3,0,0,1-3-3.24,3.07,3.07,0,0,1,3.12-3.34A3,3,0,0,1,503.26,460.67Zm-5,.06c0,1.38.8,2.42,1.91,2.42s1.91-1,1.91-2.44c0-1.07-.53-2.42-1.88-2.42S498.27,459.54,498.27,460.73Z"/><path class="cls-7" d="M510.14,454.63v7.61c0,.56,0,1.2.05,1.63h-1l-.06-1.1h0a2.34,2.34,0,0,1-2.15,1.24c-1.52,0-2.69-1.29-2.69-3.2,0-2.09,1.29-3.38,2.82-3.38a2.08,2.08,0,0,1,1.9,1h0v-3.76Zm-1.14,5.5a2,2,0,0,0-.06-.48,1.67,1.67,0,0,0-1.65-1.32c-1.18,0-1.88,1-1.88,2.43s.62,2.32,1.86,2.32a1.7,1.7,0,0,0,1.67-1.36,1.93,1.93,0,0,0,.06-.49Z"/><path class="cls-7" d="M512.68,460.93a2,2,0,0,0,2.15,2.18,4.22,4.22,0,0,0,1.75-.32l.19.82a5.11,5.11,0,0,1-2.09.39,2.93,2.93,0,0,1-3.1-3.18c0-1.9,1.12-3.39,3-3.39a2.67,2.67,0,0,1,2.6,3,5.05,5.05,0,0,1,0,.54Zm3.35-.82a1.63,1.63,0,0,0-1.59-1.86,1.89,1.89,0,0,0-1.75,1.86Z"/><path class="cls-7" d="M518.55,459.54c0-.75,0-1.38,0-2h1l0,1.24h.05a1.89,1.89,0,0,1,1.74-1.38,1.11,1.11,0,0,1,.33,0v1.08a1.51,1.51,0,0,0-.39,0,1.59,1.59,0,0,0-1.53,1.47,2.76,2.76,0,0,0-.06.53v3.36h-1.13Z"/><path class="cls-7" d="M526.22,463.87l-.09-.8h0a2.32,2.32,0,0,1-1.92.94,1.8,1.8,0,0,1-1.93-1.81c0-1.52,1.36-2.35,3.79-2.34v-.13a1.3,1.3,0,0,0-1.43-1.46,3.18,3.18,0,0,0-1.64.47l-.26-.75a3.88,3.88,0,0,1,2.07-.56c1.92,0,2.39,1.31,2.39,2.57v2.36a8.76,8.76,0,0,0,.1,1.51Zm-.17-3.22c-1.24,0-2.66.2-2.66,1.42a1,1,0,0,0,1.08,1.09,1.56,1.56,0,0,0,1.52-1.05,1.18,1.18,0,0,0,.06-.36Z"/><path class="cls-7" d="M530.33,455.77v1.8H532v.87h-1.64v3.4c0,.78.22,1.22.86,1.22a2.44,2.44,0,0,0,.66-.08l0,.86a2.79,2.79,0,0,1-1,.16,1.59,1.59,0,0,1-1.24-.49,2.32,2.32,0,0,1-.44-1.63v-3.44h-1v-.87h1v-1.51Z"/><path class="cls-7" d="M533.81,460.93a2,2,0,0,0,2.16,2.18,4.13,4.13,0,0,0,1.74-.32l.2.82a5.11,5.11,0,0,1-2.09.39,2.93,2.93,0,0,1-3.1-3.18c0-1.9,1.12-3.39,2.95-3.39,2.06,0,2.6,1.81,2.6,3a3.31,3.31,0,0,1,0,.54Zm3.36-.82a1.63,1.63,0,0,0-1.59-1.86,1.89,1.89,0,0,0-1.75,1.86Z"/><path class="cls-7" d="M543.62,456.06H541v-1h6.49v1h-2.68v7.81h-1.14Z"/><path class="cls-7" d="M548.09,460.93a2,2,0,0,0,2.16,2.18,4.2,4.2,0,0,0,1.74-.32l.19.82a5.11,5.11,0,0,1-2.09.39,2.92,2.92,0,0,1-3.09-3.18c0-1.9,1.11-3.39,3-3.39a2.67,2.67,0,0,1,2.6,3,5.05,5.05,0,0,1,0,.54Zm3.35-.82a1.62,1.62,0,0,0-1.58-1.86,1.89,1.89,0,0,0-1.76,1.86Z"/><path class="cls-7" d="M554,459.28c0-.65,0-1.19-.05-1.71h1l.05,1h0a2.17,2.17,0,0,1,2-1.16,1.85,1.85,0,0,1,1.78,1.26h0a2.59,2.59,0,0,1,.7-.82,2.18,2.18,0,0,1,1.39-.44c.83,0,2.07.55,2.07,2.73v3.71h-1.12V460.3c0-1.21-.44-1.93-1.37-1.93a1.48,1.48,0,0,0-1.35,1,1.89,1.89,0,0,0-.09.57v3.89H557.9v-3.78c0-1-.44-1.72-1.31-1.72a1.57,1.57,0,0,0-1.42,1.14,1.69,1.69,0,0,0-.09.56v3.8H554Z"/><path class="cls-7" d="M564.81,459.63c0-.81,0-1.46-.06-2.06h1l.05,1.08h0a2.47,2.47,0,0,1,2.23-1.22c1.53,0,2.67,1.29,2.67,3.2,0,2.26-1.38,3.38-2.86,3.38a2.23,2.23,0,0,1-1.94-1h0v3.42h-1.13Zm1.13,1.67a2.26,2.26,0,0,0,0,.47,1.76,1.76,0,0,0,1.71,1.34c1.21,0,1.92-1,1.92-2.43,0-1.26-.67-2.34-1.88-2.34a1.84,1.84,0,0,0-1.73,1.42,2.32,2.32,0,0,0-.07.46Z"/><path class="cls-7" d="M572.84,460.93a2,2,0,0,0,2.16,2.18,4.17,4.17,0,0,0,1.74-.32l.19.82a5.11,5.11,0,0,1-2.09.39,2.92,2.92,0,0,1-3.09-3.18c0-1.9,1.12-3.39,3-3.39a2.67,2.67,0,0,1,2.6,3,5.05,5.05,0,0,1,0,.54Zm3.35-.82a1.62,1.62,0,0,0-1.58-1.86,1.89,1.89,0,0,0-1.76,1.86Z"/><path class="cls-7" d="M578.72,459.54c0-.75,0-1.38-.06-2h1l0,1.24h.06a1.87,1.87,0,0,1,1.74-1.38,1,1,0,0,1,.32,0v1.08a1.46,1.46,0,0,0-.39,0A1.6,1.6,0,0,0,579.9,460a2.81,2.81,0,0,0,0,.53v3.36h-1.13Z"/><path class="cls-7" d="M586.39,463.87l-.1-.8h0a2.35,2.35,0,0,1-1.93.94,1.79,1.79,0,0,1-1.92-1.81c0-1.52,1.35-2.35,3.78-2.34v-.13a1.3,1.3,0,0,0-1.43-1.46,3.21,3.21,0,0,0-1.64.47l-.26-.75a3.91,3.91,0,0,1,2.07-.56c1.92,0,2.39,1.31,2.39,2.57v2.36a8.7,8.7,0,0,0,.11,1.51Zm-.17-3.22c-1.25,0-2.67.2-2.67,1.42a1,1,0,0,0,1.08,1.09,1.56,1.56,0,0,0,1.52-1.05,1.21,1.21,0,0,0,.07-.36Z"/><path class="cls-7" d="M590.49,455.77v1.8h1.64v.87h-1.64v3.4c0,.78.22,1.22.86,1.22A2.44,2.44,0,0,0,592,463l.06.86a2.85,2.85,0,0,1-1,.16,1.55,1.55,0,0,1-1.23-.49,2.27,2.27,0,0,1-.44-1.63v-3.44h-1v-.87h1v-1.51Z"/><path class="cls-7" d="M598.68,462.15c0,.65,0,1.22.06,1.72h-1l-.06-1h0a2.38,2.38,0,0,1-2.08,1.17c-1,0-2.17-.55-2.17-2.76v-3.68h1.14v3.49c0,1.19.37,2,1.41,2a1.66,1.66,0,0,0,1.51-1,1.82,1.82,0,0,0,.1-.59v-3.86h1.14Z"/><path class="cls-7" d="M600.58,459.54c0-.75,0-1.38-.05-2h1l0,1.24h0a1.89,1.89,0,0,1,1.74-1.38,1.15,1.15,0,0,1,.33,0v1.08a1.56,1.56,0,0,0-.39,0,1.61,1.61,0,0,0-1.54,1.47,4,4,0,0,0,0,.53v3.36h-1.13Z"/><path class="cls-7" d="M605.34,460.93a2,2,0,0,0,2.16,2.18,4.17,4.17,0,0,0,1.74-.32l.19.82a5.11,5.11,0,0,1-2.09.39,2.92,2.92,0,0,1-3.09-3.18c0-1.9,1.12-3.39,3-3.39a2.67,2.67,0,0,1,2.6,3,5.05,5.05,0,0,1,0,.54Zm3.35-.82a1.62,1.62,0,0,0-1.58-1.86,1.89,1.89,0,0,0-1.76,1.86Z"/><path class="cls-7" d="M614,455.1h1.13v7.82h3.74v.95H614Z"/><path class="cls-7" d="M625.62,460.67a3.08,3.08,0,0,1-3.13,3.34,3,3,0,0,1-3-3.24,3.08,3.08,0,0,1,3.12-3.34A3,3,0,0,1,625.62,460.67Zm-5,.06c0,1.38.79,2.42,1.91,2.42s1.91-1,1.91-2.44c0-1.07-.53-2.42-1.89-2.42S620.63,459.54,620.63,460.73Z"/><path class="cls-7" d="M632.76,460.67a3.08,3.08,0,0,1-3.14,3.34,3,3,0,0,1-3-3.24,3.07,3.07,0,0,1,3.12-3.34A3,3,0,0,1,632.76,460.67Zm-5,.06c0,1.38.8,2.42,1.91,2.42s1.92-1,1.92-2.44c0-1.07-.54-2.42-1.89-2.42S627.76,459.54,627.76,460.73Z"/><path class="cls-7" d="M634.2,459.63c0-.81,0-1.46-.05-2.06h1l.06,1.08h0a2.47,2.47,0,0,1,2.24-1.22c1.52,0,2.66,1.29,2.66,3.2,0,2.26-1.37,3.38-2.86,3.38a2.2,2.2,0,0,1-1.93-1h0v3.42H634.2Zm1.13,1.67a3.23,3.23,0,0,0,0,.47,1.76,1.76,0,0,0,1.72,1.34c1.21,0,1.91-1,1.91-2.43,0-1.26-.66-2.34-1.87-2.34a1.83,1.83,0,0,0-1.73,1.42,1.77,1.77,0,0,0-.08.46Z"/><path class="cls-7" d="M518.11,479.18a5.62,5.62,0,0,1-2.31.41,4.09,4.09,0,0,1-4.33-4.43,4.36,4.36,0,0,1,4.57-4.6,4.61,4.61,0,0,1,2.08.39l-.27.92a4.25,4.25,0,0,0-1.77-.36,3.26,3.26,0,0,0-3.42,3.61,3.19,3.19,0,0,0,3.37,3.53,4.57,4.57,0,0,0,1.85-.37Z"/><path class="cls-7" d="M525,476.27a3.08,3.08,0,0,1-3.13,3.34,3,3,0,0,1-3-3.24A3.07,3.07,0,0,1,522,473,3,3,0,0,1,525,476.27Zm-5,.06c0,1.38.79,2.42,1.91,2.42s1.91-1,1.91-2.44c0-1.07-.53-2.42-1.89-2.42S520.05,475.14,520.05,476.33Z"/><path class="cls-7" d="M532.18,476.27a3.08,3.08,0,0,1-3.14,3.34,3,3,0,0,1-3-3.24,3.07,3.07,0,0,1,3.12-3.34A3,3,0,0,1,532.18,476.27Zm-5,.06c0,1.38.8,2.42,1.92,2.42s1.91-1,1.91-2.44c0-1.07-.54-2.42-1.89-2.42S527.18,475.14,527.18,476.33Z"/><path class="cls-7" d="M533.62,470.23h1.14v9.23h-1.14Z"/><path class="cls-7" d="M540.17,479.46l-.09-.79h0a2.33,2.33,0,0,1-1.92.94,1.8,1.8,0,0,1-1.93-1.81c0-1.52,1.36-2.35,3.79-2.34v-.13a1.3,1.3,0,0,0-1.43-1.45,3.17,3.17,0,0,0-1.64.46l-.26-.75a3.88,3.88,0,0,1,2.07-.56c1.92,0,2.39,1.31,2.39,2.57V478a8.57,8.57,0,0,0,.1,1.5Zm-.17-3.21c-1.25,0-2.66.2-2.66,1.42a1,1,0,0,0,1.08,1.09,1.56,1.56,0,0,0,1.52-1.05,1.18,1.18,0,0,0,.06-.36Z"/><path class="cls-7" d="M543,474.88c0-.65,0-1.19-.05-1.71h1l.06,1h0a2.32,2.32,0,0,1,2.08-1.18c.87,0,2.22.52,2.22,2.68v3.75h-1.14v-3.62c0-1-.38-1.86-1.46-1.86a1.62,1.62,0,0,0-1.53,1.17,1.44,1.44,0,0,0-.08.53v3.78H543Z"/><path class="cls-7" d="M551.49,471.37v1.8h1.64V474h-1.64v3.4c0,.78.22,1.22.86,1.22a2.58,2.58,0,0,0,.67-.08l.05.86a2.85,2.85,0,0,1-1,.15,1.55,1.55,0,0,1-1.23-.48,2.27,2.27,0,0,1-.44-1.63V474h-1v-.87h1v-1.5Z"/><path class="cls-7" d="M564.44,480.75c-1.18-.31-2.34-.66-3.35-1a1.58,1.58,0,0,0-.53-.13c-2.08-.08-3.87-1.61-3.87-4.44s1.72-4.61,4.09-4.61,3.92,1.85,3.92,4.43c0,2.25-1,3.7-2.49,4.2v.05c.87.22,1.82.43,2.56.56Zm-.93-5.71c0-1.75-.91-3.56-2.77-3.56s-2.85,1.77-2.84,3.67,1,3.54,2.79,3.54S563.51,477.05,563.51,475Z"/><path class="cls-7" d="M571.44,477.75c0,.65,0,1.22,0,1.71h-1l-.06-1h0a2.36,2.36,0,0,1-2.08,1.17c-1,0-2.17-.55-2.17-2.76v-3.68h1.15v3.49c0,1.19.36,2,1.4,2a1.65,1.65,0,0,0,1.51-1,1.82,1.82,0,0,0,.1-.59v-3.86h1.15Z"/><path class="cls-7" d="M576.82,479.46l-.09-.79h0a2.34,2.34,0,0,1-1.93.94,1.79,1.79,0,0,1-1.92-1.81c0-1.52,1.35-2.35,3.78-2.34v-.13a1.29,1.29,0,0,0-1.43-1.45,3.23,3.23,0,0,0-1.64.46l-.26-.75a3.91,3.91,0,0,1,2.07-.56c1.93,0,2.39,1.31,2.39,2.57V478a8.5,8.5,0,0,0,.11,1.5Zm-.17-3.21c-1.25,0-2.67.2-2.67,1.42a1,1,0,0,0,1.08,1.09,1.56,1.56,0,0,0,1.52-1.05,1.21,1.21,0,0,0,.07-.36Z"/><path class="cls-7" d="M579.6,470.23h1.14v9.23H579.6Z"/><path class="cls-7" d="M583.94,471.41a.67.67,0,0,1-.73.7.69.69,0,0,1-.69-.7.7.7,0,0,1,.72-.72A.68.68,0,0,1,583.94,471.41Zm-1.27,8v-6.29h1.14v6.29Z"/><path class="cls-7" d="M587.09,471.37v1.8h1.64V474h-1.64v3.4c0,.78.22,1.22.86,1.22a2.49,2.49,0,0,0,.66-.08l0,.86a2.82,2.82,0,0,1-1,.15,1.55,1.55,0,0,1-1.24-.48,2.32,2.32,0,0,1-.44-1.63V474h-1v-.87h1v-1.5Z"/><path class="cls-7" d="M590.55,473.17l1.37,3.72c.15.42.3.91.41,1.29h0c.12-.38.25-.86.41-1.31l1.24-3.7h1.21l-1.71,4.49c-.82,2.16-1.38,3.26-2.16,3.94a3.11,3.11,0,0,1-1.41.74l-.28-1a3.21,3.21,0,0,0,1-.56,3.5,3.5,0,0,0,1-1.28.84.84,0,0,0,.09-.27.82.82,0,0,0-.08-.3l-2.32-5.8Z"/><path class="cls-7" d="M601.49,470.44a8.6,8.6,0,0,0-1.64,5.32,8.8,8.8,0,0,0,1.64,5.28h-.9a8.48,8.48,0,0,1-1.7-5.28,8.65,8.65,0,0,1,1.7-5.32Z"/><path class="cls-7" d="M606.14,473.39c0,1.78-.93,2.67-2,2.67s-2-.85-2-2.55.92-2.64,2-2.64S606.14,471.78,606.14,473.39Zm-3.09.08c0,1.08.38,1.9,1.09,1.9s1.1-.81,1.1-1.92-.3-1.89-1.1-1.89S603.05,472.41,603.05,473.47Zm1,6.14,5-8.74h.73l-5,8.74Zm7.6-2.72c0,1.78-.93,2.67-2,2.67s-2-.85-2-2.54.93-2.65,2-2.65S611.64,475.28,611.64,476.89Zm-3.09.08c0,1.08.4,1.9,1.11,1.9s1.09-.81,1.09-1.93-.3-1.88-1.09-1.88S608.55,475.9,608.55,477Z"/><path class="cls-7" d="M612.31,481a8.83,8.83,0,0,0,1.63-5.32,8.66,8.66,0,0,0-1.63-5.28h.88a8.3,8.3,0,0,1,1.7,5.29,8.48,8.48,0,0,1-1.7,5.31Z"/><path class="cls-7" d="M678.3,455.1h1.13v7.82h3.75v.95H678.3Z"/><path class="cls-7" d="M689.91,460.67a3.08,3.08,0,0,1-3.13,3.34,3,3,0,0,1-3-3.24,3.08,3.08,0,0,1,3.12-3.34A3,3,0,0,1,689.91,460.67Zm-5,.06c0,1.38.79,2.42,1.91,2.42s1.91-1,1.91-2.44c0-1.07-.53-2.42-1.88-2.42S684.92,459.54,684.92,460.73Z"/><path class="cls-7" d="M691.72,457.57l.83,3.2c.18.7.35,1.35.47,2h0c.14-.63.35-1.31.56-2l1-3.21h1l1,3.15c.23.75.42,1.42.56,2h0a17.85,17.85,0,0,1,.48-2l.89-3.16h1.14l-2,6.3h-1l-1-3a17,17,0,0,1-.56-2.07h0a17.67,17.67,0,0,1-.57,2.09l-1,3h-1l-1.9-6.3Z"/><path class="cls-7" d="M704.76,456.06h-2.67v-1h6.49v1H705.9v7.81h-1.14Z"/><path class="cls-7" d="M709.23,460.93a2,2,0,0,0,2.16,2.18,4.17,4.17,0,0,0,1.74-.32l.19.82a5.11,5.11,0,0,1-2.09.39,2.92,2.92,0,0,1-3.09-3.18c0-1.9,1.11-3.39,3-3.39a2.67,2.67,0,0,1,2.6,3,5.05,5.05,0,0,1,0,.54Zm3.35-.82a1.63,1.63,0,0,0-1.58-1.86,1.89,1.89,0,0,0-1.76,1.86Z"/><path class="cls-7" d="M715.1,459.28c0-.65,0-1.19-.05-1.71h1l.05,1h0a2.18,2.18,0,0,1,2-1.16,1.85,1.85,0,0,1,1.78,1.26h0a2.59,2.59,0,0,1,.7-.82,2.18,2.18,0,0,1,1.39-.44c.83,0,2.07.55,2.07,2.73v3.71H723V460.3c0-1.21-.44-1.93-1.37-1.93a1.48,1.48,0,0,0-1.35,1,1.89,1.89,0,0,0-.09.57v3.89H719v-3.78c0-1-.44-1.72-1.31-1.72a1.57,1.57,0,0,0-1.42,1.14,1.69,1.69,0,0,0-.09.56v3.8H715.1Z"/><path class="cls-7" d="M726,459.63c0-.81,0-1.46-.06-2.06h1l.05,1.08h0a2.47,2.47,0,0,1,2.23-1.22c1.53,0,2.67,1.29,2.67,3.2,0,2.26-1.38,3.38-2.86,3.38a2.23,2.23,0,0,1-1.94-1h0v3.42H726Zm1.13,1.67a2.26,2.26,0,0,0,0,.47,1.76,1.76,0,0,0,1.71,1.34c1.21,0,1.92-1,1.92-2.43,0-1.26-.67-2.34-1.88-2.34a1.84,1.84,0,0,0-1.73,1.42,2.32,2.32,0,0,0-.07.46Z"/><path class="cls-7" d="M734,460.93a2,2,0,0,0,2.16,2.18,4.17,4.17,0,0,0,1.74-.32l.19.82A5.11,5.11,0,0,1,736,464a2.92,2.92,0,0,1-3.09-3.18c0-1.9,1.12-3.39,3-3.39a2.67,2.67,0,0,1,2.6,3,5.05,5.05,0,0,1,0,.54Zm3.35-.82a1.62,1.62,0,0,0-1.58-1.86,1.89,1.89,0,0,0-1.76,1.86Z"/><path class="cls-7" d="M739.86,459.54c0-.75,0-1.38-.06-2h1l0,1.24h.06a1.87,1.87,0,0,1,1.74-1.38,1,1,0,0,1,.32,0v1.08a1.51,1.51,0,0,0-.39,0A1.6,1.6,0,0,0,741,460a2.81,2.81,0,0,0,0,.53v3.36h-1.13Z"/><path class="cls-7" d="M747.53,463.87l-.1-.8h0a2.35,2.35,0,0,1-1.93.94,1.79,1.79,0,0,1-1.92-1.81c0-1.52,1.35-2.35,3.78-2.34v-.13a1.3,1.3,0,0,0-1.43-1.46,3.24,3.24,0,0,0-1.64.47L744,458a3.91,3.91,0,0,1,2.07-.56c1.92,0,2.39,1.31,2.39,2.57v2.36a8.7,8.7,0,0,0,.11,1.51Zm-.17-3.22c-1.25,0-2.67.2-2.67,1.42a1,1,0,0,0,1.08,1.09,1.56,1.56,0,0,0,1.52-1.05,1.21,1.21,0,0,0,.07-.36Z"/><path class="cls-7" d="M751.63,455.77v1.8h1.64v.87h-1.64v3.4c0,.78.22,1.22.86,1.22a2.44,2.44,0,0,0,.66-.08l.06.86a2.85,2.85,0,0,1-1,.16,1.55,1.55,0,0,1-1.23-.49,2.27,2.27,0,0,1-.44-1.63v-3.44h-1v-.87h1v-1.51Z"/><path class="cls-7" d="M759.82,462.15c0,.65,0,1.22.06,1.72h-1l-.06-1h0a2.38,2.38,0,0,1-2.08,1.17c-1,0-2.17-.55-2.17-2.76v-3.68h1.14v3.49c0,1.19.37,2,1.41,2a1.66,1.66,0,0,0,1.51-1,1.82,1.82,0,0,0,.1-.59v-3.86h1.14Z"/><path class="cls-7" d="M761.72,459.54c0-.75,0-1.38-.05-2h1l0,1.24h0a1.89,1.89,0,0,1,1.74-1.38,1.15,1.15,0,0,1,.33,0v1.08a1.56,1.56,0,0,0-.39,0A1.61,1.61,0,0,0,762.9,460a4,4,0,0,0,0,.53v3.36h-1.13Z"/><path class="cls-7" d="M766.48,460.93a2,2,0,0,0,2.16,2.18,4.17,4.17,0,0,0,1.74-.32l.19.82a5.11,5.11,0,0,1-2.09.39,2.92,2.92,0,0,1-3.09-3.18c0-1.9,1.12-3.39,3-3.39a2.67,2.67,0,0,1,2.6,3,5.05,5.05,0,0,1,0,.54Zm3.35-.82a1.62,1.62,0,0,0-1.58-1.86,1.89,1.89,0,0,0-1.76,1.86Z"/><path class="cls-7" d="M775.15,455.1h1.13v7.82H780v.95h-4.88Z"/><path class="cls-7" d="M786.76,460.67a3.08,3.08,0,0,1-3.13,3.34,3,3,0,0,1-3-3.24,3.08,3.08,0,0,1,3.12-3.34A3,3,0,0,1,786.76,460.67Zm-5,.06c0,1.38.79,2.42,1.91,2.42s1.91-1,1.91-2.44c0-1.07-.53-2.42-1.89-2.42S781.77,459.54,781.77,460.73Z"/><path class="cls-7" d="M793.9,460.67a3.08,3.08,0,0,1-3.14,3.34,3,3,0,0,1-3-3.24,3.07,3.07,0,0,1,3.12-3.34A3,3,0,0,1,793.9,460.67Zm-5,.06c0,1.38.8,2.42,1.91,2.42s1.92-1,1.92-2.44c0-1.07-.54-2.42-1.89-2.42S788.9,459.54,788.9,460.73Z"/><path class="cls-7" d="M795.34,459.63c0-.81,0-1.46-.05-2.06h1l.06,1.08h0a2.47,2.47,0,0,1,2.24-1.22c1.52,0,2.66,1.29,2.66,3.2,0,2.26-1.37,3.38-2.86,3.38a2.2,2.2,0,0,1-1.93-1h0v3.42h-1.13Zm1.13,1.67a3.23,3.23,0,0,0,0,.47,1.76,1.76,0,0,0,1.72,1.34c1.21,0,1.91-1,1.91-2.43,0-1.26-.66-2.34-1.87-2.34a1.83,1.83,0,0,0-1.73,1.42,1.77,1.77,0,0,0-.08.46Z"/><path class="cls-7" d="M678.76,479.18a5.58,5.58,0,0,1-2.31.41,4.09,4.09,0,0,1-4.33-4.43,4.36,4.36,0,0,1,4.58-4.6,4.65,4.65,0,0,1,2.08.39l-.28.92a4.25,4.25,0,0,0-1.77-.36c-2.05,0-3.41,1.31-3.41,3.61a3.18,3.18,0,0,0,3.36,3.53,4.57,4.57,0,0,0,1.85-.37Z"/><path class="cls-7" d="M685.69,476.27a3.08,3.08,0,0,1-3.13,3.34,3,3,0,0,1-3-3.24,3.07,3.07,0,0,1,3.12-3.34A3,3,0,0,1,685.69,476.27Zm-5,.06c0,1.38.79,2.42,1.91,2.42s1.91-1,1.91-2.44c0-1.07-.53-2.42-1.88-2.42S680.7,475.14,680.7,476.33Z"/><path class="cls-7" d="M692.83,476.27a3.08,3.08,0,0,1-3.13,3.34,3,3,0,0,1-3-3.24A3.07,3.07,0,0,1,689.8,473,3,3,0,0,1,692.83,476.27Zm-5,.06c0,1.38.79,2.42,1.91,2.42s1.91-1,1.91-2.44c0-1.07-.53-2.42-1.89-2.42S687.84,475.14,687.84,476.33Z"/><path class="cls-7" d="M694.27,470.23h1.15v9.23h-1.15Z"/><path class="cls-7" d="M700.82,479.46l-.09-.79h0a2.32,2.32,0,0,1-1.92.94,1.8,1.8,0,0,1-1.93-1.81c0-1.52,1.36-2.35,3.79-2.34v-.13a1.29,1.29,0,0,0-1.43-1.45,3.17,3.17,0,0,0-1.64.46l-.26-.75a3.88,3.88,0,0,1,2.07-.56c1.92,0,2.39,1.31,2.39,2.57V478a9.66,9.66,0,0,0,.1,1.5Zm-.17-3.21c-1.24,0-2.66.2-2.66,1.42a1,1,0,0,0,1.08,1.09,1.56,1.56,0,0,0,1.52-1.05,1.18,1.18,0,0,0,.06-.36Z"/><path class="cls-7" d="M703.61,474.88c0-.65,0-1.19-.06-1.71h1l.06,1h0a2.32,2.32,0,0,1,2.08-1.18c.87,0,2.22.52,2.22,2.68v3.75h-1.14v-3.62c0-1-.38-1.86-1.46-1.86a1.62,1.62,0,0,0-1.53,1.17,1.69,1.69,0,0,0-.08.53v3.78h-1.14Z"/><path class="cls-7" d="M712.15,471.37v1.8h1.63V474h-1.63v3.4c0,.78.22,1.22.85,1.22a2.58,2.58,0,0,0,.67-.08l.05.86a2.82,2.82,0,0,1-1,.15,1.55,1.55,0,0,1-1.24-.48,2.27,2.27,0,0,1-.44-1.63V474h-1v-.87h1v-1.5Z"/><path class="cls-7" d="M719,471.67h-2.67v-1h6.49v1h-2.68v7.79H719Z"/><path class="cls-7" d="M723.47,476.53a2,2,0,0,0,2.16,2.18,4.17,4.17,0,0,0,1.74-.32l.19.82a5.14,5.14,0,0,1-2.09.38,2.91,2.91,0,0,1-3.09-3.17c0-1.89,1.12-3.39,3-3.39a2.67,2.67,0,0,1,2.6,3,5.05,5.05,0,0,1,0,.54Zm3.35-.82a1.62,1.62,0,0,0-1.58-1.86,1.9,1.9,0,0,0-1.76,1.86Z"/><path class="cls-7" d="M729.34,474.88c0-.65,0-1.19-.05-1.71h1l.06,1h0a2.18,2.18,0,0,1,2-1.16,1.85,1.85,0,0,1,1.78,1.26h0a2.59,2.59,0,0,1,.7-.82,2.18,2.18,0,0,1,1.39-.44c.83,0,2.07.55,2.07,2.73v3.7h-1.12V475.9c0-1.21-.44-1.93-1.37-1.93a1.49,1.49,0,0,0-1.35,1,1.89,1.89,0,0,0-.09.57v3.88h-1.12V475.7c0-1-.44-1.73-1.31-1.73a1.58,1.58,0,0,0-1.42,1.14,1.69,1.69,0,0,0-.09.56v3.79h-1.12Z"/><path class="cls-7" d="M740.19,475.23c0-.81,0-1.46-.06-2.06h1l.05,1.08h0a2.49,2.49,0,0,1,2.24-1.22c1.52,0,2.66,1.29,2.66,3.2,0,2.26-1.38,3.38-2.86,3.38a2.23,2.23,0,0,1-1.94-1h0V482h-1.13Zm1.13,1.67a2.26,2.26,0,0,0,0,.47,1.76,1.76,0,0,0,1.72,1.34c1.2,0,1.91-1,1.91-2.43,0-1.26-.67-2.34-1.88-2.34a1.82,1.82,0,0,0-1.72,1.42,1.78,1.78,0,0,0-.08.47Z"/><path class="cls-7" d="M748.22,476.53a2,2,0,0,0,2.16,2.18,4.17,4.17,0,0,0,1.74-.32l.2.82a5.24,5.24,0,0,1-2.1.38,2.92,2.92,0,0,1-3.09-3.17c0-1.89,1.12-3.39,3-3.39a2.67,2.67,0,0,1,2.6,3,5.05,5.05,0,0,1,0,.54Zm3.36-.82a1.63,1.63,0,0,0-1.59-1.86,1.9,1.9,0,0,0-1.76,1.86Z"/><path class="cls-7" d="M754.1,475.14c0-.75,0-1.38-.06-2h1l0,1.24h.06a1.87,1.87,0,0,1,1.74-1.38,1,1,0,0,1,.32,0v1.08a1.46,1.46,0,0,0-.39,0,1.61,1.61,0,0,0-1.53,1.47,2.81,2.81,0,0,0,0,.53v3.35H754.1Z"/><path class="cls-7" d="M761.77,479.46l-.09-.79h0a2.34,2.34,0,0,1-1.93.94,1.79,1.79,0,0,1-1.92-1.81c0-1.52,1.35-2.35,3.78-2.34v-.13a1.29,1.29,0,0,0-1.43-1.45,3.23,3.23,0,0,0-1.64.46l-.26-.75a3.91,3.91,0,0,1,2.07-.56c1.92,0,2.39,1.31,2.39,2.57V478a8.5,8.5,0,0,0,.11,1.5Zm-.17-3.21c-1.25,0-2.67.2-2.67,1.42a1,1,0,0,0,1.08,1.09,1.56,1.56,0,0,0,1.52-1.05,1.21,1.21,0,0,0,.07-.36Z"/><path class="cls-7" d="M765.87,471.37v1.8h1.64V474h-1.64v3.4c0,.78.23,1.22.86,1.22a2.58,2.58,0,0,0,.67-.08l.05.86a2.85,2.85,0,0,1-1,.15,1.55,1.55,0,0,1-1.23-.48,2.27,2.27,0,0,1-.44-1.63V474h-1v-.87h1v-1.5Z"/><path class="cls-7" d="M774.06,477.75q0,1,.06,1.71h-1l-.06-1h0a2.36,2.36,0,0,1-2.08,1.17c-1,0-2.17-.55-2.17-2.76v-3.68h1.14v3.49c0,1.19.37,2,1.41,2a1.65,1.65,0,0,0,1.51-1,1.82,1.82,0,0,0,.1-.59v-3.86h1.14Z"/><path class="cls-7" d="M776,475.14c0-.75,0-1.38-.05-2h1l0,1.24h0a1.89,1.89,0,0,1,1.74-1.38,1.06,1.06,0,0,1,.33,0v1.08a1.51,1.51,0,0,0-.39,0,1.59,1.59,0,0,0-1.53,1.47,2.76,2.76,0,0,0-.06.53v3.35H776Z"/><path class="cls-7" d="M780.72,476.53a2,2,0,0,0,2.16,2.18,4.17,4.17,0,0,0,1.74-.32l.2.82a5.24,5.24,0,0,1-2.1.38,2.92,2.92,0,0,1-3.09-3.17c0-1.89,1.12-3.39,3-3.39a2.67,2.67,0,0,1,2.6,3,5.05,5.05,0,0,1,0,.54Zm3.35-.82a1.62,1.62,0,0,0-1.58-1.86,1.9,1.9,0,0,0-1.76,1.86Z"/><path class="cls-7" d="M791.83,470.44a8.66,8.66,0,0,0-1.63,5.32,8.8,8.8,0,0,0,1.63,5.28h-.89a8.42,8.42,0,0,1-1.7-5.28,8.59,8.59,0,0,1,1.7-5.32Z"/><path class="cls-7" d="M792.63,471.3a1.31,1.31,0,1,1,1.31,1.18A1.22,1.22,0,0,1,792.63,471.3Zm2,0a.66.66,0,1,0-1.31,0,.66.66,0,1,0,1.31,0Z"/><path class="cls-7" d="M803.11,479.18a5.63,5.63,0,0,1-2.32.41,4.09,4.09,0,0,1-4.33-4.43,4.36,4.36,0,0,1,4.58-4.6,4.65,4.65,0,0,1,2.08.39l-.27.92a4.25,4.25,0,0,0-1.77-.36c-2.06,0-3.42,1.31-3.42,3.61a3.19,3.19,0,0,0,3.37,3.53,4.52,4.52,0,0,0,1.84-.37Z"/><path class="cls-7" d="M804,481a8.83,8.83,0,0,0,1.63-5.32,8.66,8.66,0,0,0-1.63-5.28h.88a8.3,8.3,0,0,1,1.7,5.29,8.48,8.48,0,0,1-1.7,5.31Z"/><path class="cls-7" d="M846.83,460c-.07-1.23-.15-2.69-.14-3.79h0c-.3,1-.67,2.12-1.11,3.33L844,463.81h-.85l-1.42-4.17c-.42-1.23-.77-2.37-1-3.41h0c0,1.1-.09,2.56-.17,3.88l-.23,3.76h-1.08l.61-8.77h1.44l1.5,4.24c.36,1.08.66,2,.88,3h0c.22-.88.53-1.84.92-3l1.56-4.24h1.44l.55,8.77h-1.1Z"/><path class="cls-7" d="M855.62,460.67a3.08,3.08,0,0,1-3.13,3.34,3,3,0,0,1-3-3.24,3.07,3.07,0,0,1,3.12-3.34A3,3,0,0,1,855.62,460.67Zm-5,.06c0,1.38.8,2.42,1.91,2.42s1.92-1,1.92-2.44c0-1.07-.54-2.42-1.89-2.42S850.63,459.54,850.63,460.73Z"/><path class="cls-7" d="M862.5,454.63v7.61c0,.56,0,1.2,0,1.63h-1l0-1.1h0A2.34,2.34,0,0,1,859.3,464c-1.52,0-2.69-1.29-2.69-3.2,0-2.09,1.29-3.38,2.82-3.38a2.08,2.08,0,0,1,1.9,1h0v-3.76Zm-1.14,5.5a2.7,2.7,0,0,0-.05-.48,1.68,1.68,0,0,0-1.65-1.32c-1.19,0-1.89,1-1.89,2.43s.62,2.32,1.86,2.32a1.72,1.72,0,0,0,1.68-1.36,2.54,2.54,0,0,0,.05-.49Z"/><path class="cls-7" d="M865,460.93a2,2,0,0,0,2.16,2.18,4.2,4.2,0,0,0,1.74-.32l.19.82A5.11,5.11,0,0,1,867,464a2.92,2.92,0,0,1-3.09-3.18c0-1.9,1.11-3.39,2.95-3.39a2.67,2.67,0,0,1,2.6,3,5.05,5.05,0,0,1,0,.54Zm3.35-.82a1.63,1.63,0,0,0-1.59-1.86,1.89,1.89,0,0,0-1.75,1.86Z"/><path class="cls-7" d="M870.91,459.54c0-.75,0-1.38,0-2h1l0,1.24H872a1.89,1.89,0,0,1,1.75-1.38,1,1,0,0,1,.32,0v1.08a1.51,1.51,0,0,0-.39,0A1.59,1.59,0,0,0,872.1,460a2.76,2.76,0,0,0-.06.53v3.36h-1.13Z"/><path class="cls-7" d="M878.58,463.87l-.09-.8h0a2.32,2.32,0,0,1-1.92.94,1.79,1.79,0,0,1-1.92-1.81c0-1.52,1.35-2.35,3.78-2.34v-.13a1.3,1.3,0,0,0-1.43-1.46,3.18,3.18,0,0,0-1.64.47l-.26-.75a3.88,3.88,0,0,1,2.07-.56c1.92,0,2.39,1.31,2.39,2.57v2.36a8.76,8.76,0,0,0,.1,1.51Zm-.17-3.22c-1.24,0-2.66.2-2.66,1.42a1,1,0,0,0,1.08,1.09,1.56,1.56,0,0,0,1.52-1.05,1.18,1.18,0,0,0,.06-.36Z"/><path class="cls-7" d="M882.69,455.77v1.8h1.64v.87h-1.64v3.4c0,.78.22,1.22.86,1.22a2.44,2.44,0,0,0,.66-.08l0,.86a2.79,2.79,0,0,1-1,.16,1.59,1.59,0,0,1-1.24-.49,2.32,2.32,0,0,1-.44-1.63v-3.44h-1v-.87h1v-1.51Z"/><path class="cls-7" d="M886.17,460.93a2,2,0,0,0,2.16,2.18,4.22,4.22,0,0,0,1.75-.32l.19.82a5.11,5.11,0,0,1-2.09.39,2.93,2.93,0,0,1-3.1-3.18c0-1.9,1.12-3.39,2.95-3.39,2.06,0,2.6,1.81,2.6,3,0,.24,0,.42,0,.54Zm3.36-.82a1.63,1.63,0,0,0-1.59-1.86,1.89,1.89,0,0,0-1.75,1.86Z"/><path class="cls-7" d="M896,456.06h-2.67v-1h6.49v1h-2.68v7.81H896Z"/><path class="cls-7" d="M900.45,460.93a2,2,0,0,0,2.16,2.18,4.17,4.17,0,0,0,1.74-.32l.19.82a5.11,5.11,0,0,1-2.09.39,2.92,2.92,0,0,1-3.09-3.18c0-1.9,1.12-3.39,2.95-3.39a2.67,2.67,0,0,1,2.6,3,5.05,5.05,0,0,1,0,.54Zm3.35-.82a1.62,1.62,0,0,0-1.58-1.86,1.89,1.89,0,0,0-1.76,1.86Z"/><path class="cls-7" d="M906.33,459.28c0-.65,0-1.19-.06-1.71h1l.06,1h0a2.16,2.16,0,0,1,2-1.16,1.85,1.85,0,0,1,1.78,1.26h0a2.59,2.59,0,0,1,.7-.82,2.18,2.18,0,0,1,1.39-.44c.83,0,2.07.55,2.07,2.73v3.71h-1.12V460.3c0-1.21-.44-1.93-1.36-1.93a1.48,1.48,0,0,0-1.36,1,1.89,1.89,0,0,0-.09.57v3.89h-1.12v-3.78c0-1-.44-1.72-1.31-1.72a1.58,1.58,0,0,0-1.42,1.14,1.69,1.69,0,0,0-.09.56v3.8h-1.11Z"/><path class="cls-7" d="M917.17,459.63c0-.81,0-1.46-.06-2.06h1l.05,1.08h0a2.47,2.47,0,0,1,2.24-1.22c1.52,0,2.66,1.29,2.66,3.2,0,2.26-1.38,3.38-2.86,3.38a2.23,2.23,0,0,1-1.94-1h0v3.42h-1.13Zm1.13,1.67a2.26,2.26,0,0,0,.05.47,1.76,1.76,0,0,0,1.72,1.34c1.2,0,1.91-1,1.91-2.43,0-1.26-.67-2.34-1.88-2.34a1.82,1.82,0,0,0-1.72,1.42,1.77,1.77,0,0,0-.08.46Z"/><path class="cls-7" d="M925.2,460.93a2,2,0,0,0,2.16,2.18,4.17,4.17,0,0,0,1.74-.32l.2.82a5.2,5.2,0,0,1-2.1.39,2.93,2.93,0,0,1-3.09-3.18c0-1.9,1.12-3.39,2.95-3.39a2.67,2.67,0,0,1,2.6,3,5.05,5.05,0,0,1,0,.54Zm3.35-.82a1.62,1.62,0,0,0-1.58-1.86,1.89,1.89,0,0,0-1.76,1.86Z"/><path class="cls-7" d="M931.08,459.54c0-.75,0-1.38-.06-2h1l0,1.24h.06a1.87,1.87,0,0,1,1.74-1.38,1,1,0,0,1,.32,0v1.08a1.46,1.46,0,0,0-.39,0,1.61,1.61,0,0,0-1.53,1.47,2.81,2.81,0,0,0,0,.53v3.36h-1.13Z"/><path class="cls-7" d="M938.75,463.87l-.09-.8h0a2.34,2.34,0,0,1-1.93.94,1.79,1.79,0,0,1-1.92-1.81c0-1.52,1.35-2.35,3.78-2.34v-.13a1.3,1.3,0,0,0-1.43-1.46,3.24,3.24,0,0,0-1.64.47l-.26-.75a3.91,3.91,0,0,1,2.07-.56c1.92,0,2.39,1.31,2.39,2.57v2.36a8.7,8.7,0,0,0,.11,1.51Zm-.17-3.22c-1.25,0-2.67.2-2.67,1.42a1,1,0,0,0,1.08,1.09,1.56,1.56,0,0,0,1.52-1.05,1.21,1.21,0,0,0,.07-.36Z"/><path class="cls-7" d="M942.85,455.77v1.8h1.64v.87h-1.64v3.4c0,.78.23,1.22.86,1.22a2.58,2.58,0,0,0,.67-.08l0,.86a2.81,2.81,0,0,1-1,.16,1.55,1.55,0,0,1-1.23-.49,2.27,2.27,0,0,1-.44-1.63v-3.44h-1v-.87h1v-1.51Z"/><path class="cls-7" d="M951,462.15c0,.65,0,1.22.06,1.72h-1l-.06-1h0a2.38,2.38,0,0,1-2.08,1.17c-1,0-2.17-.55-2.17-2.76v-3.68h1.14v3.49c0,1.19.37,2,1.41,2a1.65,1.65,0,0,0,1.51-1,1.82,1.82,0,0,0,.1-.59v-3.86H951Z"/><path class="cls-7" d="M952.94,459.54c0-.75,0-1.38-.05-2h1l0,1.24H954a1.89,1.89,0,0,1,1.74-1.38,1.11,1.11,0,0,1,.33,0v1.08a1.51,1.51,0,0,0-.39,0,1.59,1.59,0,0,0-1.53,1.47,2.76,2.76,0,0,0-.06.53v3.36h-1.13Z"/><path class="cls-7" d="M957.7,460.93a2,2,0,0,0,2.16,2.18,4.17,4.17,0,0,0,1.74-.32l.2.82a5.2,5.2,0,0,1-2.1.39,2.93,2.93,0,0,1-3.09-3.18c0-1.9,1.12-3.39,2.95-3.39a2.67,2.67,0,0,1,2.6,3,5.05,5.05,0,0,1,0,.54Zm3.35-.82a1.62,1.62,0,0,0-1.58-1.86,1.89,1.89,0,0,0-1.76,1.86Z"/><path class="cls-7" d="M966.37,455.1h1.13v7.82h3.75v.95h-4.88Z"/><path class="cls-7" d="M978,460.67a3.08,3.08,0,0,1-3.13,3.34,3,3,0,0,1-3-3.24,3.08,3.08,0,0,1,3.12-3.34A3,3,0,0,1,978,460.67Zm-5,.06c0,1.38.79,2.42,1.91,2.42s1.91-1,1.91-2.44c0-1.07-.53-2.42-1.88-2.42S973,459.54,973,460.73Z"/><path class="cls-7" d="M985.12,460.67A3.08,3.08,0,0,1,982,464a3,3,0,0,1-3-3.24,3.08,3.08,0,0,1,3.12-3.34A3,3,0,0,1,985.12,460.67Zm-5,.06c0,1.38.8,2.42,1.92,2.42s1.91-1,1.91-2.44c0-1.07-.54-2.42-1.89-2.42S980.12,459.54,980.12,460.73Z"/><path class="cls-7" d="M986.56,459.63c0-.81,0-1.46,0-2.06h1l.05,1.08h0a2.47,2.47,0,0,1,2.24-1.22c1.52,0,2.66,1.29,2.66,3.2,0,2.26-1.37,3.38-2.86,3.38a2.2,2.2,0,0,1-1.93-1h0v3.42h-1.13Zm1.13,1.67a3.23,3.23,0,0,0,0,.47,1.76,1.76,0,0,0,1.72,1.34c1.21,0,1.91-1,1.91-2.43,0-1.26-.66-2.34-1.87-2.34a1.83,1.83,0,0,0-1.73,1.42,1.77,1.77,0,0,0-.08.46Z"/><path class="cls-7" d="M854.94,479.18a5.54,5.54,0,0,1-2.31.41,4.09,4.09,0,0,1-4.33-4.43,4.36,4.36,0,0,1,4.58-4.6A4.65,4.65,0,0,1,855,471l-.28.92a4.24,4.24,0,0,0-1.76-.36c-2.06,0-3.42,1.31-3.42,3.61a3.18,3.18,0,0,0,3.36,3.53,4.57,4.57,0,0,0,1.85-.37Z"/><path class="cls-7" d="M861.87,476.27a3.08,3.08,0,0,1-3.13,3.34,3,3,0,0,1-3-3.24,3.07,3.07,0,0,1,3.12-3.34A3,3,0,0,1,861.87,476.27Zm-5,.06c0,1.38.79,2.42,1.91,2.42s1.91-1,1.91-2.44c0-1.07-.53-2.42-1.88-2.42S856.88,475.14,856.88,476.33Z"/><path class="cls-7" d="M869,476.27a3.08,3.08,0,0,1-3.13,3.34,3,3,0,0,1-3-3.24A3.07,3.07,0,0,1,866,473,3,3,0,0,1,869,476.27Zm-5,.06c0,1.38.79,2.42,1.91,2.42s1.91-1,1.91-2.44c0-1.07-.53-2.42-1.89-2.42S864,475.14,864,476.33Z"/><path class="cls-7" d="M870.45,470.23h1.15v9.23h-1.15Z"/><path class="cls-7" d="M877,479.46l-.09-.79h0a2.32,2.32,0,0,1-1.92.94A1.79,1.79,0,0,1,873,477.8c0-1.52,1.35-2.35,3.78-2.34v-.13a1.29,1.29,0,0,0-1.43-1.45,3.17,3.17,0,0,0-1.64.46l-.26-.75a3.88,3.88,0,0,1,2.07-.56c1.92,0,2.39,1.31,2.39,2.57V478a9.66,9.66,0,0,0,.1,1.5Zm-.17-3.21c-1.24,0-2.66.2-2.66,1.42a1,1,0,0,0,1.08,1.09,1.56,1.56,0,0,0,1.52-1.05,1.18,1.18,0,0,0,.06-.36Z"/><path class="cls-7" d="M879.79,474.88c0-.65,0-1.19-.06-1.71h1l.06,1h0a2.32,2.32,0,0,1,2.08-1.18c.87,0,2.22.52,2.22,2.68v3.75H884v-3.62c0-1-.38-1.86-1.46-1.86a1.62,1.62,0,0,0-1.53,1.17,1.69,1.69,0,0,0-.08.53v3.78h-1.14Z"/><path class="cls-7" d="M888.33,471.37v1.8H890V474h-1.63v3.4c0,.78.22,1.22.85,1.22a2.58,2.58,0,0,0,.67-.08l0,.86a2.82,2.82,0,0,1-1,.15,1.55,1.55,0,0,1-1.24-.48,2.32,2.32,0,0,1-.44-1.63V474h-1v-.87h1v-1.5Z"/><path class="cls-7" d="M895.18,471.67h-2.67v-1H899v1h-2.68v7.79h-1.14Z"/><path class="cls-7" d="M899.65,476.53a2,2,0,0,0,2.16,2.18,4.17,4.17,0,0,0,1.74-.32l.19.82a5.14,5.14,0,0,1-2.09.38,2.91,2.91,0,0,1-3.09-3.17c0-1.89,1.12-3.39,3-3.39a2.67,2.67,0,0,1,2.6,3,5.05,5.05,0,0,1,0,.54Zm3.35-.82a1.62,1.62,0,0,0-1.58-1.86,1.9,1.9,0,0,0-1.76,1.86Z"/><path class="cls-7" d="M905.53,474.88c0-.65,0-1.19-.06-1.71h1l.06,1h0a2.16,2.16,0,0,1,2-1.16,1.85,1.85,0,0,1,1.78,1.26h0a2.59,2.59,0,0,1,.7-.82,2.18,2.18,0,0,1,1.39-.44c.83,0,2.07.55,2.07,2.73v3.7h-1.12V475.9c0-1.21-.44-1.93-1.36-1.93a1.5,1.5,0,0,0-1.36,1,1.89,1.89,0,0,0-.09.57v3.88h-1.12V475.7c0-1-.44-1.73-1.31-1.73a1.58,1.58,0,0,0-1.42,1.14,1.69,1.69,0,0,0-.09.56v3.79h-1.11Z"/><path class="cls-7" d="M916.37,475.23c0-.81,0-1.46,0-2.06h1l0,1.08h0a2.49,2.49,0,0,1,2.24-1.22c1.52,0,2.66,1.29,2.66,3.2,0,2.26-1.38,3.38-2.86,3.38a2.23,2.23,0,0,1-1.94-1h0V482h-1.13Zm1.13,1.67a2.26,2.26,0,0,0,0,.47,1.76,1.76,0,0,0,1.72,1.34c1.21,0,1.91-1,1.91-2.43,0-1.26-.67-2.34-1.87-2.34a1.83,1.83,0,0,0-1.73,1.42,1.78,1.78,0,0,0-.08.47Z"/><path class="cls-7" d="M924.4,476.53a2,2,0,0,0,2.16,2.18,4.17,4.17,0,0,0,1.74-.32l.2.82a5.24,5.24,0,0,1-2.1.38,2.92,2.92,0,0,1-3.09-3.17c0-1.89,1.12-3.39,3-3.39a2.67,2.67,0,0,1,2.6,3,5.05,5.05,0,0,1,0,.54Zm3.36-.82a1.63,1.63,0,0,0-1.59-1.86,1.9,1.9,0,0,0-1.76,1.86Z"/><path class="cls-7" d="M930.28,475.14c0-.75,0-1.38-.06-2h1l0,1.24h.06a1.87,1.87,0,0,1,1.74-1.38,1,1,0,0,1,.32,0v1.08a1.46,1.46,0,0,0-.39,0,1.61,1.61,0,0,0-1.53,1.47,2.81,2.81,0,0,0-.05.53v3.35h-1.13Z"/><path class="cls-7" d="M938,479.46l-.09-.79h0a2.34,2.34,0,0,1-1.93.94A1.79,1.79,0,0,1,934,477.8c0-1.52,1.35-2.35,3.78-2.34v-.13a1.29,1.29,0,0,0-1.43-1.45,3.23,3.23,0,0,0-1.64.46l-.26-.75a3.91,3.91,0,0,1,2.07-.56c1.93,0,2.39,1.31,2.39,2.57V478a8.5,8.5,0,0,0,.11,1.5Zm-.17-3.21c-1.25,0-2.67.2-2.67,1.42a1,1,0,0,0,1.08,1.09,1.56,1.56,0,0,0,1.52-1.05,1.21,1.21,0,0,0,.07-.36Z"/><path class="cls-7" d="M942.05,471.37v1.8h1.64V474h-1.64v3.4c0,.78.23,1.22.86,1.22a2.58,2.58,0,0,0,.67-.08l0,.86a2.85,2.85,0,0,1-1,.15,1.55,1.55,0,0,1-1.23-.48,2.27,2.27,0,0,1-.44-1.63V474h-1v-.87h1v-1.5Z"/><path class="cls-7" d="M950.25,477.75c0,.65,0,1.22,0,1.71h-1l-.06-1h0a2.36,2.36,0,0,1-2.08,1.17c-1,0-2.17-.55-2.17-2.76v-3.68h1.14v3.49c0,1.19.37,2,1.41,2a1.65,1.65,0,0,0,1.51-1,1.82,1.82,0,0,0,.1-.59v-3.86h1.15Z"/><path class="cls-7" d="M952.14,475.14c0-.75,0-1.38,0-2h1l0,1.24h0a1.89,1.89,0,0,1,1.74-1.38,1.06,1.06,0,0,1,.33,0v1.08a1.51,1.51,0,0,0-.39,0,1.59,1.59,0,0,0-1.53,1.47,2.76,2.76,0,0,0-.06.53v3.35h-1.13Z"/><path class="cls-7" d="M956.9,476.53a2,2,0,0,0,2.16,2.18,4.17,4.17,0,0,0,1.74-.32l.2.82a5.24,5.24,0,0,1-2.1.38,2.92,2.92,0,0,1-3.09-3.17c0-1.89,1.12-3.39,3-3.39a2.67,2.67,0,0,1,2.6,3,5.05,5.05,0,0,1,0,.54Zm3.35-.82a1.62,1.62,0,0,0-1.58-1.86,1.9,1.9,0,0,0-1.76,1.86Z"/><path class="cls-7" d="M968,470.44a8.6,8.6,0,0,0-1.64,5.32A8.73,8.73,0,0,0,968,481h-.9a8.42,8.42,0,0,1-1.7-5.28,8.59,8.59,0,0,1,1.7-5.32Z"/><path class="cls-7" d="M968.81,471.3a1.22,1.22,0,0,1,1.32-1.23,1.2,1.2,0,0,1,1.29,1.22,1.31,1.31,0,0,1-2.61,0Zm2,0a.66.66,0,1,0-1.32,0,.66.66,0,1,0,1.32,0Z"/><path class="cls-7" d="M979.29,479.18a5.63,5.63,0,0,1-2.32.41,4.09,4.09,0,0,1-4.33-4.43,4.36,4.36,0,0,1,4.58-4.6,4.65,4.65,0,0,1,2.08.39l-.27.92a4.25,4.25,0,0,0-1.77-.36,3.26,3.26,0,0,0-3.42,3.61,3.19,3.19,0,0,0,3.37,3.53,4.49,4.49,0,0,0,1.84-.37Z"/><path class="cls-7" d="M980.2,481a8.83,8.83,0,0,0,1.63-5.32,8.66,8.66,0,0,0-1.63-5.28h.88a8.3,8.3,0,0,1,1.7,5.29,8.48,8.48,0,0,1-1.7,5.31Z"/><text class="cls-19" transform="translate(183.65 557.11)">Ha<tspan class="cls-27" x="14.74" y="0">r</tspan><tspan x="19.04" y="0">mo</tspan><tspan class="cls-29" x="37.02" y="0">n</tspan><tspan x="44.07" y="0">y Node</tspan></text><text class="cls-19" transform="translate(183.66 605.12)"><tspan class="cls-30">T</tspan><tspan class="cls-31" x="5.88" y="0">r</tspan><tspan x="10.06" y="0">anquili</tspan><tspan class="cls-32" x="47.18" y="0">t</tspan><tspan x="51.6" y="0">y Node</tspan></text><rect class="cls-33" x="147.76" y="438.21" width="893.67" height="202.95" rx="12"/></g></svg>