<svg xmlns="http://www.w3.org/2000/svg" viewBox="0 0 1190 700"><defs><style>.cls-1{fill:#595a5a;stroke-width:3px;}.cls-1,.cls-41{stroke:#fff;stroke-miterlimit:10;}.cls-2{font-size:14px;font-family:MyriadPro-Bold, Myriad Pro;font-weight:700;}.cls-18,.cls-2,.cls-34,.cls-40{fill:#fff;}.cls-3{letter-spacing:0.01em;}.cls-4{letter-spacing:0em;}.cls-5{letter-spacing:0.01em;}.cls-6{letter-spacing:0em;}.cls-7{letter-spacing:0.01em;}.cls-8{letter-spacing:-0.04em;}.cls-9{letter-spacing:-0.02em;}.cls-10{letter-spacing:0.01em;}.cls-11{letter-spacing:0.01em;}.cls-12{letter-spacing:0em;}.cls-13{letter-spacing:-0.02em;}.cls-14{letter-spacing:-0.01em;}.cls-15{letter-spacing:-0.02em;}.cls-16{letter-spacing:-0.03em;}.cls-17{letter-spacing:-0.03em;}.cls-18,.cls-34{font-size:13px;font-family:MyriadPro-Regular, Myriad Pro;}.cls-19{letter-spacing:-0.02em;}.cls-20{letter-spacing:-0.01em;}.cls-21{letter-spacing:-0.07em;}.cls-22{letter-spacing:-0.02em;}.cls-23{letter-spacing:-0.03em;}.cls-24{letter-spacing:0em;}.cls-25{letter-spacing:0.02em;}.cls-26{letter-spacing:-0.04em;}.cls-27{letter-spacing:0em;}.cls-28{letter-spacing:0em;}.cls-29{letter-spacing:0em;}.cls-30{letter-spacing:0.01em;}.cls-31{letter-spacing:-0.06em;}.cls-32{letter-spacing:-0.04em;}.cls-33{letter-spacing:-0.06em;}.cls-34{letter-spacing:-0.03em;}.cls-35{letter-spacing:-0.01em;}.cls-36{letter-spacing:-0.04em;}.cls-37{letter-spacing:-0.06em;}.cls-38{letter-spacing:-0.03em;}.cls-39{letter-spacing:0em;}.cls-41{fill:none;}</style></defs><g id="Layer_1" data-name="Layer 1"><polygon class="cls-1" points="800.86 464.43 800.86 370.57 763.03 323.64 763.03 323.64 426.97 323.64 426.97 323.64 389.14 370.57 389.14 464.43 426.97 511.35 763.03 511.35 800.86 464.43"/><polygon class="cls-1" points="981.7 27.73 864.85 27.73 806.42 27.73 806.42 59.13 806.42 59.13 806.42 272.41 864.85 297.17 981.7 297.17 1040.13 272.41 1040.13 272.41 1040.13 59.13 1040.13 59.13 1040.13 27.73 981.7 27.73"/><polygon class="cls-1" points="834.82 643.65 1011.73 643.65 1011.73 556.57 967.5 537.83 879.04 537.83 834.82 556.57 834.82 556.57 834.82 643.65"/><polygon class="cls-1" points="383.58 74.82 383.58 52.49 383.58 52.49 325.15 27.73 313.55 27.73 313.55 18.5 223.05 18.5 223.05 27.73 208.3 27.73 149.87 52.49 149.87 74.82 128.87 74.82 128.87 145.93 149.87 145.93 149.87 272.41 208.3 297.17 325.15 297.17 383.58 272.41 383.58 272.41 383.58 145.93 404.04 145.93 404.04 74.82 383.58 74.82"/><polygon class="cls-1" points="355.18 340.89 310.95 323.64 222.5 323.64 178.27 340.89 178.27 383.26 109.99 397.14 109.99 437.86 178.27 451.73 178.27 494.1 222.5 511.35 310.95 511.35 355.18 494.1 355.18 494.1 355.18 340.89 355.18 340.89"/><polygon class="cls-1" points="834.82 494.1 879.04 511.35 967.5 511.35 1011.73 494.1 1011.73 451.73 1080.01 437.86 1080.01 397.14 1011.73 383.26 1011.73 340.89 967.5 323.64 879.04 323.64 834.82 340.89 834.82 340.89 834.82 494.1 834.82 494.1"/><polygon class="cls-1" points="380.5 550.55 323.61 537.83 209.84 537.83 152.96 550.55 152.96 663.56 209.84 676.28 232.29 676.28 232.29 694.03 300.62 694.03 300.62 676.28 323.61 676.28 380.5 663.56 380.5 663.56 380.5 550.55 380.5 550.55"/></g><g id="Layer_2" data-name="Layer 2"><text class="cls-2" transform="translate(223.79 53.02)">T<tspan class="cls-3" x="7.67" y="0">R</tspan><tspan class="cls-4" x="16.1" y="0">ANQUILI</tspan><tspan class="cls-5" x="69.66" y="0">T</tspan><tspan class="cls-6" x="77.43" y="0">Y</tspan></text><text class="cls-2" transform="translate(226.88 350.45)">UNI<tspan class="cls-7" x="23.2" y="0">T</tspan><tspan x="30.97" y="0">Y NODE</tspan></text><text class="cls-2" transform="translate(216.64 562.64)">QUEST AIR<tspan class="cls-8" x="66.6" y="0">L</tspan><tspan x="73.22" y="0">OCK</tspan></text><text class="cls-2" transform="translate(554 350.15)">DESTI<tspan class="cls-9" x="36.44" y="0">N</tspan><tspan class="cls-6" x="45.85" y="0">Y </tspan><tspan class="cls-10" x="57.12" y="0">L</tspan><tspan x="64.36" y="0">AB</tspan></text><text class="cls-2" transform="translate(885.89 53.02)">KIBO <tspan class="cls-11" x="33.91" y="0">(</tspan><tspan class="cls-12" x="38.44" y="0">J</tspan><tspan class="cls-13" x="44.2" y="0">A</tspan><tspan class="cls-14" x="53.05" y="0">X</tspan><tspan class="cls-15" x="61.45" y="0">A</tspan><tspan x="70.38" y="0">)</tspan></text><text class="cls-2" transform="translate(889.84 350)">HARMO<tspan class="cls-15" x="49.01" y="0">N</tspan><tspan x="58.42" y="0">Y</tspan></text><text class="cls-2" transform="translate(869.67 562.64)"><tspan class="cls-16">C</tspan><tspan x="7.91" y="0">O</tspan><tspan class="cls-17" x="17.95" y="0">L</tspan><tspan x="24.67" y="0">UMBUS (ES</tspan><tspan class="cls-15" x="93.88" y="0">A</tspan><tspan x="102.81" y="0">)</tspan></text><text class="cls-18" transform="translate(186.82 79.2)"><tspan class="cls-19">P</tspan><tspan class="cls-20" x="6.71" y="0">r</tspan><tspan x="10.83" y="0">essu</tspan><tspan class="cls-20" x="34.8" y="0">r</tspan><tspan x="38.92" y="0">e</tspan></text><text class="cls-18" transform="translate(186.82 115.2)"><tspan class="cls-21">T</tspan><tspan x="5.54" y="0">emp</tspan></text><text class="cls-18" transform="translate(186.82 151.2)">ppO₂</text><text class="cls-18" transform="translate(186.82 187.19)">ppN₂</text><text class="cls-18" transform="translate(186.82 223.19)">pp<tspan class="cls-22" x="14.79" y="0">C</tspan><tspan x="22.06" y="0">O₂</tspan></text><text class="cls-18" transform="translate(436.25 371.42)"><tspan class="cls-19">P</tspan><tspan class="cls-20" x="6.71" y="0">r</tspan><tspan x="10.83" y="0">essu</tspan><tspan class="cls-20" x="34.8" y="0">r</tspan><tspan x="38.92" y="0">e</tspan></text><text class="cls-18" transform="translate(674.18 371.42)"><tspan class="cls-23">P</tspan><tspan class="cls-24" x="6.59" y="0">o</tspan><tspan class="cls-25" x="13.73" y="0">r</tspan><tspan x="18.29" y="0">t </tspan><tspan class="cls-26" x="25.35" y="0">F</tspan><tspan class="cls-27" x="31.1" y="0">an</tspan></text><text class="cls-18" transform="translate(658.73 457.01)"><tspan class="cls-28">S</tspan><tspan x="6.37" y="0">ta</tspan><tspan class="cls-29" x="16.94" y="0">r</tspan><tspan x="21.24" y="0">boa</tspan><tspan class="cls-20" x="42.04" y="0">r</tspan><tspan x="46.16" y="0">d </tspan><tspan class="cls-26" x="56.25" y="0">F</tspan><tspan class="cls-27" x="62" y="0">an</tspan></text><text class="cls-18" transform="translate(436.26 399.95)"><tspan class="cls-21">T</tspan><tspan x="5.54" y="0">emp</tspan></text><text class="cls-18" transform="translate(436.25 428.48)">ppO₂</text><text class="cls-18" transform="translate(436.25 457.01)">ppN₂</text><text class="cls-18" transform="translate(436.25 485.54)">pp<tspan class="cls-22" x="14.79" y="0">C</tspan><tspan x="22.06" y="0">O₂</tspan></text><text class="cls-18" transform="translate(554.92 371.42)">mmHg</text><text class="cls-18" transform="translate(554.93 399.95)">˚C</text><text class="cls-18" transform="translate(554.92 428.48)">mmHg</text><text class="cls-18" transform="translate(405.19 597.78)"><tspan class="cls-30">E</tspan><tspan class="cls-31" x="6.51" y="0">V</tspan><tspan x="13.03" y="0">A O₂</tspan><tspan class="cls-32" x="36.74" y="0"> </tspan><tspan class="cls-33" x="38.96" y="0">T</tspan><tspan x="44.59" y="0">ank</tspan></text><text class="cls-18" transform="translate(508.74 575.14)"><tspan class="cls-19">P</tspan><tspan class="cls-20" x="6.71" y="0">r</tspan><tspan x="10.83" y="0">essu</tspan><tspan class="cls-20" x="34.8" y="0">r</tspan><tspan x="38.92" y="0">e</tspan></text><text class="cls-34" transform="translate(617.16 575.14)">V<tspan class="cls-27" x="6.83" y="0">al</tspan><tspan class="cls-35" x="16.16" y="0">v</tspan><tspan class="cls-24" x="22.28" y="0">e </tspan><tspan class="cls-23" x="31.55" y="0">P</tspan><tspan class="cls-24" x="38.14" y="0">osition</tspan></text><text class="cls-18" transform="translate(405.2 626.3)">N₂<tspan class="cls-32" x="12.6" y="0"> </tspan><tspan class="cls-33" x="14.82" y="0">T</tspan><tspan x="20.45" y="0">ank</tspan></text><text class="cls-18" transform="translate(405.19 654.83)">O₂<tspan class="cls-36" x="13" y="0"> </tspan><tspan class="cls-37" x="15.22" y="0">T</tspan><tspan class="cls-27" x="20.85" y="0">ank</tspan></text><text class="cls-18" transform="translate(559.21 597.78)">k<tspan class="cls-38" x="6.1" y="0">P</tspan><tspan class="cls-27" x="12.68" y="0">a</tspan></text><text class="cls-18" transform="translate(559.22 626.3)">k<tspan class="cls-38" x="6.1" y="0">P</tspan><tspan class="cls-27" x="12.68" y="0">a</tspan></text><text class="cls-18" transform="translate(559.21 654.83)">k<tspan class="cls-38" x="6.1" y="0">P</tspan><tspan class="cls-27" x="12.68" y="0">a</tspan></text><text class="cls-18" transform="translate(186.82 581.97)"><tspan class="cls-19">P</tspan><tspan class="cls-20" x="6.71" y="0">r</tspan><tspan x="10.83" y="0">essu</tspan><tspan class="cls-20" x="34.8" y="0">r</tspan><tspan x="38.92" y="0">e</tspan></text><text class="cls-18" transform="translate(186.83 610.61)"><tspan class="cls-26">F</tspan><tspan class="cls-27" x="5.75" y="0">an </tspan><tspan class="cls-28" x="21.98" y="0">S</tspan><tspan x="28.35" y="0">t</tspan><tspan class="cls-39" x="32.66" y="0">a</tspan><tspan x="38.87" y="0">tus</tspan></text><path class="cls-40" d="M193.93,642a5.6,5.6,0,0,1-2.32.42,4.09,4.09,0,0,1-4.32-4.44,4.35,4.35,0,0,1,4.57-4.6,4.65,4.65,0,0,1,2.08.39l-.27.92a4.25,4.25,0,0,0-1.77-.36,3.26,3.26,0,0,0-3.42,3.61,3.19,3.19,0,0,0,3.37,3.53,4.49,4.49,0,0,0,1.84-.37Z"/><path class="cls-40" d="M195.27,638c0-.74,0-1.38-.05-2h1l0,1.24h.05a1.87,1.87,0,0,1,1.74-1.38,1,1,0,0,1,.32,0V637a1.46,1.46,0,0,0-.39,0,1.61,1.61,0,0,0-1.53,1.47,2.89,2.89,0,0,0,0,.53v3.36h-1.13Z"/><path class="cls-40" d="M200,639.38a2,2,0,0,0,2.15,2.18,4.22,4.22,0,0,0,1.75-.32l.19.82a5.11,5.11,0,0,1-2.09.39,2.93,2.93,0,0,1-3.1-3.18c0-1.89,1.12-3.39,2.95-3.39,2.06,0,2.6,1.81,2.6,3,0,.23,0,.41,0,.53Zm3.35-.82a1.63,1.63,0,0,0-1.59-1.86,1.9,1.9,0,0,0-1.75,1.86Z"/><path class="cls-40" d="M206.36,636l.83,3.2c.18.7.35,1.35.47,2h0c.14-.63.35-1.31.55-2l1-3.22h1l1,3.15c.23.75.41,1.42.56,2.05h0a17.85,17.85,0,0,1,.48-2l.89-3.16h1.14l-2,6.3h-1l-1-3a17.34,17.34,0,0,1-.56-2.06h0a20.31,20.31,0,0,1-.57,2.08l-1,3h-1l-1.89-6.3Z"/><path class="cls-40" d="M215.47,633.09h1.14v9.23h-1.14Z"/><path class="cls-40" d="M224.23,639.12a3.07,3.07,0,0,1-3.13,3.34,3,3,0,0,1-3-3.24,3.08,3.08,0,0,1,3.12-3.34A3,3,0,0,1,224.23,639.12Zm-5,.06c0,1.38.79,2.42,1.91,2.42s1.91-1,1.91-2.44c0-1.07-.53-2.42-1.88-2.42S219.24,638,219.24,639.18Z"/><path class="cls-40" d="M230.16,642.08a4.14,4.14,0,0,1-1.81.37,3,3,0,0,1-3.13-3.21,3.2,3.2,0,0,1,3.38-3.35,3.79,3.79,0,0,1,1.59.33l-.26.88a2.77,2.77,0,0,0-1.33-.3,2.18,2.18,0,0,0-2.22,2.38,2.16,2.16,0,0,0,2.18,2.36,3.1,3.1,0,0,0,1.4-.32Z"/><path class="cls-40" d="M232.63,638.91h0c.16-.22.38-.49.56-.71l1.85-2.18h1.38L234,638.61l2.77,3.71h-1.4l-2.17-3-.58.65v2.37H231.5v-9.23h1.13Z"/><path class="cls-40" d="M187.81,649.26a13.13,13.13,0,0,1,2.17-.17,3.58,3.58,0,0,1,2.45.73,2.35,2.35,0,0,1,.77,1.83,2.54,2.54,0,0,1-.68,1.87,3.59,3.59,0,0,1-2.67,1,4.21,4.21,0,0,1-.91-.07v3.51h-1.13Zm1.13,4.22a3.52,3.52,0,0,0,.93.09c1.37,0,2.2-.66,2.2-1.87S191.25,650,190,650a4.82,4.82,0,0,0-1.06.09Z"/><path class="cls-40" d="M194.47,653.59c0-.74,0-1.38-.05-2h1l0,1.24h0a1.89,1.89,0,0,1,1.75-1.38,1,1,0,0,1,.32,0v1.08a1.51,1.51,0,0,0-.39,0,1.6,1.6,0,0,0-1.53,1.47,2.89,2.89,0,0,0,0,.53v3.36h-1.14Z"/><path class="cls-40" d="M199.23,655a2,2,0,0,0,2.16,2.18,4.17,4.17,0,0,0,1.74-.32l.2.82a5.16,5.16,0,0,1-2.1.39,2.92,2.92,0,0,1-3.09-3.17c0-1.9,1.12-3.4,3-3.4,2.06,0,2.6,1.81,2.6,3a3.26,3.26,0,0,1,0,.53Zm3.36-.82A1.63,1.63,0,0,0,201,652.3a1.89,1.89,0,0,0-1.75,1.86Z"/><path class="cls-40" d="M205,656.75a3,3,0,0,0,1.51.45c.83,0,1.22-.41,1.22-.93s-.32-.85-1.17-1.16c-1.13-.4-1.66-1-1.66-1.78a1.94,1.94,0,0,1,2.17-1.85,3.12,3.12,0,0,1,1.55.39l-.29.83a2.52,2.52,0,0,0-1.29-.36c-.67,0-1.05.39-1.05.86s.38.75,1.2,1.06c1.09.42,1.65,1,1.65,1.9,0,1.11-.86,1.89-2.36,1.89a3.58,3.58,0,0,1-1.76-.43Z"/><path class="cls-40" d="M210.1,656.75a3,3,0,0,0,1.51.45c.83,0,1.22-.41,1.22-.93s-.32-.85-1.17-1.16c-1.13-.4-1.66-1-1.66-1.78a1.94,1.94,0,0,1,2.17-1.85,3.11,3.11,0,0,1,1.54.39l-.28.83a2.52,2.52,0,0,0-1.29-.36c-.67,0-1,.39-1,.86s.38.75,1.19,1.06c1.1.42,1.66,1,1.66,1.9,0,1.11-.86,1.89-2.36,1.89a3.62,3.62,0,0,1-1.77-.43Z"/><path class="cls-40" d="M220.67,656.2c0,.65,0,1.22.05,1.72h-1l-.07-1h0a2.37,2.37,0,0,1-2.08,1.17c-1,0-2.17-.55-2.17-2.76v-3.68h1.14v3.49c0,1.19.36,2,1.4,2a1.65,1.65,0,0,0,1.51-1,1.58,1.58,0,0,0,.11-.58v-3.87h1.14Z"/><path class="cls-40" d="M222.57,653.59c0-.74,0-1.38,0-2h1l0,1.24h.05a1.87,1.87,0,0,1,1.74-1.38,1,1,0,0,1,.32,0v1.08a1.46,1.46,0,0,0-.39,0,1.61,1.61,0,0,0-1.53,1.47,2.89,2.89,0,0,0-.05.53v3.36h-1.13Z"/><path class="cls-40" d="M227.33,655a2,2,0,0,0,2.15,2.18,4.22,4.22,0,0,0,1.75-.32l.19.82a5.11,5.11,0,0,1-2.09.39,2.93,2.93,0,0,1-3.1-3.17c0-1.9,1.12-3.4,3-3.4,2.06,0,2.6,1.81,2.6,3,0,.23,0,.41,0,.53Zm3.35-.82a1.63,1.63,0,0,0-1.59-1.86,1.9,1.9,0,0,0-1.75,1.86Z"/><text class="cls-18" transform="translate(305.49 581.97)">mmHg</text><text class="cls-18" transform="translate(305.49 650.12)">mmHg</text><text class="cls-18" transform="translate(846.8 374)"><tspan class="cls-19">P</tspan><tspan class="cls-20" x="6.71" y="0">r</tspan><tspan x="10.83" y="0">essu</tspan><tspan class="cls-20" x="34.8" y="0">r</tspan><tspan x="38.92" y="0">e</tspan></text><path class="cls-40" d="M853.92,401.28a5.75,5.75,0,0,1-2.31.41,4.09,4.09,0,0,1-4.33-4.43,4.36,4.36,0,0,1,4.58-4.6,4.65,4.65,0,0,1,2.08.39l-.28.92a4.1,4.1,0,0,0-1.77-.36c-2,0-3.41,1.31-3.41,3.61a3.18,3.18,0,0,0,3.36,3.52,4.58,4.58,0,0,0,1.85-.36Z"/><path class="cls-40" d="M860.85,398.36a3.08,3.08,0,0,1-3.13,3.35,3,3,0,0,1-3-3.24,3.07,3.07,0,0,1,3.12-3.34A3,3,0,0,1,860.85,398.36Zm-5,.07c0,1.38.79,2.42,1.91,2.42s1.91-1,1.91-2.45c0-1.06-.53-2.41-1.88-2.41S855.86,397.23,855.86,398.43Z"/><path class="cls-40" d="M868,398.36a3.08,3.08,0,0,1-3.13,3.35,3,3,0,0,1-3-3.24,3.07,3.07,0,0,1,3.12-3.34A3,3,0,0,1,868,398.36Zm-5,.07c0,1.38.79,2.42,1.91,2.42s1.91-1,1.91-2.45c0-1.06-.53-2.41-1.89-2.41S863,397.23,863,398.43Z"/><path class="cls-40" d="M869.43,392.33h1.15v9.23h-1.15Z"/><path class="cls-40" d="M876,401.56l-.09-.79h0a2.34,2.34,0,0,1-1.92.94A1.79,1.79,0,0,1,872,399.9c0-1.52,1.35-2.36,3.78-2.34v-.13a1.3,1.3,0,0,0-1.43-1.46,3.09,3.09,0,0,0-1.64.47l-.26-.75a3.88,3.88,0,0,1,2.07-.56c1.92,0,2.39,1.31,2.39,2.57v2.35a9.8,9.8,0,0,0,.1,1.51Zm-.17-3.21c-1.24,0-2.66.2-2.66,1.42a1,1,0,0,0,1.08,1.09,1.56,1.56,0,0,0,1.52-1.05,1.19,1.19,0,0,0,.06-.37Z"/><path class="cls-40" d="M878.77,397c0-.65,0-1.18-.06-1.7h1l.06,1h0a2.31,2.31,0,0,1,2.08-1.18c.87,0,2.22.52,2.22,2.67v3.76H883v-3.62c0-1-.38-1.86-1.46-1.86a1.62,1.62,0,0,0-1.53,1.17,1.64,1.64,0,0,0-.08.53v3.78h-1.14Z"/><path class="cls-40" d="M887.31,393.46v1.81h1.63v.87h-1.63v3.39c0,.78.22,1.23.85,1.23a2.58,2.58,0,0,0,.67-.08l0,.86a2.82,2.82,0,0,1-1,.15,1.59,1.59,0,0,1-1.24-.48,2.37,2.37,0,0,1-.44-1.64v-3.43h-1v-.87h1v-1.51Z"/><path class="cls-40" d="M849.46,409.36H846.8v-1h6.49v1h-2.68v7.8h-1.15Z"/><path class="cls-40" d="M853.94,414.22a2,2,0,0,0,2.15,2.19,4,4,0,0,0,1.75-.33l.19.82a5.11,5.11,0,0,1-2.09.39,2.92,2.92,0,0,1-3.1-3.17c0-1.9,1.12-3.39,2.95-3.39a2.67,2.67,0,0,1,2.61,3,4.61,4.61,0,0,1,0,.53Zm3.35-.81a1.63,1.63,0,0,0-1.59-1.86,1.89,1.89,0,0,0-1.75,1.86Z"/><path class="cls-40" d="M859.81,412.57c0-.65,0-1.18,0-1.7h1l0,1h0a2.18,2.18,0,0,1,2-1.15,1.85,1.85,0,0,1,1.78,1.26h0a2.63,2.63,0,0,1,.71-.82,2.1,2.1,0,0,1,1.39-.44c.83,0,2.06.54,2.06,2.73v3.7h-1.11V413.6c0-1.21-.45-1.94-1.37-1.94a1.47,1.47,0,0,0-1.35,1,2,2,0,0,0-.09.58v3.88h-1.12v-3.77c0-1-.44-1.73-1.31-1.73a1.57,1.57,0,0,0-1.42,1.15,1.69,1.69,0,0,0-.09.56v3.79h-1.12Z"/><path class="cls-40" d="M870.65,412.92c0-.8,0-1.45,0-2.05h1l0,1.08h0a2.46,2.46,0,0,1,2.23-1.22c1.52,0,2.67,1.28,2.67,3.2,0,2.26-1.38,3.38-2.86,3.38a2.23,2.23,0,0,1-1.94-1h0v3.42h-1.13Zm1.13,1.68a2.23,2.23,0,0,0,.06.47,1.75,1.75,0,0,0,1.71,1.34c1.21,0,1.91-1,1.91-2.43,0-1.26-.66-2.34-1.87-2.34a1.83,1.83,0,0,0-1.73,1.41,1.93,1.93,0,0,0-.08.47Z"/><text class="cls-18" transform="translate(846.8 442.32)">ppO₂</text><text class="cls-18" transform="translate(961.36 374)">mmHg</text><text class="cls-18" transform="translate(961.37 409.36)">˚C</text><text class="cls-18" transform="translate(961.36 442.32)">mmHg</text><text class="cls-18" transform="translate(554.92 457.01)">mmHg</text><text class="cls-18" transform="translate(554.92 485.54)">mmHg</text><text class="cls-18" transform="translate(308.14 79.2)">mmHg</text><text class="cls-18" transform="translate(308.14 115.2)">˚C</text><text class="cls-18" transform="translate(308.14 151.2)">mmHg</text><text class="cls-18" transform="translate(308.14 187.19)">mmHg</text><text class="cls-18" transform="translate(308.14 223.19)">mmHg</text><text class="cls-18" transform="translate(186.82 259.19)"><tspan class="cls-26">F</tspan><tspan class="cls-27" x="5.75" y="0">an </tspan><tspan class="cls-28" x="21.98" y="0">S</tspan><tspan x="28.35" y="0">t</tspan><tspan class="cls-39" x="32.66" y="0">a</tspan><tspan x="38.87" y="0">tus</tspan></text><rect class="cls-40" x="250.51" y="297.16" width="32.44" height="26.48"/><rect class="cls-40" x="250.51" y="511.35" width="32.44" height="26.48"/><rect class="cls-40" x="355.94" y="404.26" width="32.44" height="26.48"/><rect class="cls-40" x="907.06" y="297.16" width="32.44" height="26.48"/><rect class="cls-40" x="907.06" y="511.35" width="32.44" height="26.48"/><rect class="cls-40" x="800.86" y="404.26" width="32.44" height="26.48"/><rect class="cls-41" x="394.96" y="542.63" width="315.94" height="127.38" rx="12"/><path class="cls-40" d="M32.61,562.71,29.75,554H31l1.37,4.31c.38,1.19.7,2.25.93,3.28h0c.25-1,.61-2.12,1-3.26L35.78,554H37l-3.13,8.76Z"/><path class="cls-40" d="M41,562.71l-.09-.79h0a2.36,2.36,0,0,1-1.93.93,1.79,1.79,0,0,1-1.92-1.8c0-1.52,1.35-2.36,3.78-2.34v-.13a1.3,1.3,0,0,0-1.43-1.46,3.14,3.14,0,0,0-1.64.47l-.26-.76a4,4,0,0,1,2.07-.55c1.93,0,2.39,1.31,2.39,2.57v2.35a8.62,8.62,0,0,0,.11,1.51Zm-.17-3.21c-1.25,0-2.67.2-2.67,1.42A1,1,0,0,0,39.2,562a1.56,1.56,0,0,0,1.52-1,1.21,1.21,0,0,0,.07-.37Z"/><path class="cls-40" d="M48.22,562.48a4.27,4.27,0,0,1-1.8.36,3,3,0,0,1-3.14-3.21,3.2,3.2,0,0,1,3.38-3.34,3.93,3.93,0,0,1,1.59.32l-.26.89a2.6,2.6,0,0,0-1.33-.3,2.37,2.37,0,0,0,0,4.73,3.31,3.31,0,0,0,1.41-.31Z"/><path class="cls-40" d="M54.83,561c0,.65,0,1.22.05,1.71h-1l-.07-1h0a2.37,2.37,0,0,1-2.08,1.17c-1,0-2.18-.54-2.18-2.75v-3.68h1.15v3.48c0,1.2.36,2,1.4,2a1.67,1.67,0,0,0,1.51-1,1.59,1.59,0,0,0,.1-.59v-3.86h1.15Z"/><path class="cls-40" d="M62,561c0,.65,0,1.22,0,1.71H61l-.07-1h0a2.36,2.36,0,0,1-2.08,1.17c-1,0-2.17-.54-2.17-2.75v-3.68h1.14v3.48c0,1.2.37,2,1.41,2a1.65,1.65,0,0,0,1.5-1,1.59,1.59,0,0,0,.11-.59v-3.86H62Z"/><path class="cls-40" d="M63.89,558.12c0-.65,0-1.18,0-1.7h1l0,1h0a2.17,2.17,0,0,1,2-1.15,1.87,1.87,0,0,1,1.78,1.26h0a2.61,2.61,0,0,1,.7-.82,2.15,2.15,0,0,1,1.4-.44c.83,0,2.06.54,2.06,2.73v3.7H71.75v-3.56c0-1.21-.44-1.94-1.36-1.94a1.47,1.47,0,0,0-1.35,1,2,2,0,0,0-.09.57v3.89H67.83v-3.77c0-1-.44-1.73-1.31-1.73a1.56,1.56,0,0,0-1.42,1.15,1.46,1.46,0,0,0-.09.56v3.79H63.89Z"/><path class="cls-40" d="M82.06,558.6h-3.4v3.16h3.79v1H77.53V554h4.73v.95h-3.6v2.77h3.4Z"/><path class="cls-40" d="M84.42,556.42l.89,1.35c.24.35.43.68.64,1h0c.21-.38.42-.7.62-1l.89-1.34h1.23l-2.14,3,2.21,3.25H87.5l-.93-1.42c-.24-.36-.45-.71-.67-1.09h0c-.21.38-.43.72-.66,1.09l-.91,1.42H83l2.23-3.21-2.13-3.08Z"/><path class="cls-40" d="M89.9,553.48h1.15v3.93h0a2.13,2.13,0,0,1,.82-.81,2.41,2.41,0,0,1,1.17-.32c.85,0,2.2.52,2.2,2.69v3.74H94.11V559.1c0-1-.37-1.88-1.45-1.88a1.67,1.67,0,0,0-1.54,1.15,1.5,1.5,0,0,0-.07.55v3.79H89.9Z"/><path class="cls-40" d="M100.6,562.71l-.09-.79h0a2.35,2.35,0,0,1-1.92.93,1.79,1.79,0,0,1-1.93-1.8c0-1.52,1.35-2.36,3.79-2.34v-.13A1.3,1.3,0,0,0,99,557.12a3.09,3.09,0,0,0-1.64.47l-.26-.76a4,4,0,0,1,2.06-.55c1.93,0,2.4,1.31,2.4,2.57v2.35a8.69,8.69,0,0,0,.1,1.51Zm-.17-3.21c-1.25,0-2.66.2-2.66,1.42A1,1,0,0,0,98.85,562a1.57,1.57,0,0,0,1.52-1,1.19,1.19,0,0,0,.06-.37Z"/><path class="cls-40" d="M108.65,561c0,.65,0,1.22,0,1.71h-1l-.07-1h0a2.35,2.35,0,0,1-2.08,1.17c-1,0-2.17-.54-2.17-2.75v-3.68h1.15v3.48c0,1.2.36,2,1.4,2a1.67,1.67,0,0,0,1.51-1,1.82,1.82,0,0,0,.1-.59v-3.86h1.15Z"/><path class="cls-40" d="M110.39,561.54a3,3,0,0,0,1.51.46c.83,0,1.22-.42,1.22-.94s-.33-.85-1.17-1.16c-1.13-.4-1.66-1-1.66-1.78a1.94,1.94,0,0,1,2.17-1.84,3.11,3.11,0,0,1,1.54.39l-.28.83a2.41,2.41,0,0,0-1.29-.37c-.68,0-1.05.39-1.05.86s.37.76,1.19,1.07c1.1.41,1.66,1,1.66,1.9,0,1.1-.86,1.88-2.36,1.88a3.62,3.62,0,0,1-1.77-.43Z"/><path class="cls-40" d="M117.07,554.61v1.81h1.64v.87h-1.64v3.39c0,.78.22,1.23.86,1.23a2.44,2.44,0,0,0,.66-.08l.06.86a2.93,2.93,0,0,1-1,.15,1.58,1.58,0,0,1-1.23-.48,2.32,2.32,0,0,1-.45-1.64v-3.43h-1v-.87h1v-1.51Z"/><path class="cls-40" d="M62.89,578.31,60,569.55h1.22l1.37,4.32c.37,1.18.7,2.24.93,3.27h0c.24-1,.61-2.12,1-3.26l1.48-4.33h1.21l-3.13,8.76Z"/><path class="cls-40" d="M71.23,578.31l-.09-.79h0a2.34,2.34,0,0,1-1.92.93,1.79,1.79,0,0,1-1.92-1.8c0-1.52,1.35-2.36,3.78-2.34v-.13a1.3,1.3,0,0,0-1.43-1.46,3.09,3.09,0,0,0-1.64.47l-.26-.76a4,4,0,0,1,2.07-.55c1.92,0,2.39,1.31,2.39,2.57v2.35a9.8,9.8,0,0,0,.1,1.51Zm-.16-3.21c-1.25,0-2.67.19-2.67,1.42a1,1,0,0,0,1.08,1.09A1.56,1.56,0,0,0,71,576.56a1.21,1.21,0,0,0,.07-.37Z"/><path class="cls-40" d="M74,569.08h1.14v9.23H74Z"/><path class="cls-40" d="M77.53,572l1.23,3.53a16.48,16.48,0,0,1,.51,1.62h0c.14-.52.32-1,.53-1.62L81.06,572h1.2l-2.47,6.29H78.7L76.3,572Z"/><path class="cls-40" d="M83.84,575.37A2,2,0,0,0,86,577.56a4.11,4.11,0,0,0,1.74-.33l.2.82a5.11,5.11,0,0,1-2.09.39,2.92,2.92,0,0,1-3.1-3.17c0-1.9,1.12-3.39,3-3.39,2.06,0,2.6,1.8,2.6,3a3.17,3.17,0,0,1,0,.53Zm3.36-.82a1.63,1.63,0,0,0-1.59-1.85,1.89,1.89,0,0,0-1.75,1.85Z"/><path class="cls-40" d="M29.17,622.16l-2.86-8.77h1.22l1.37,4.32c.38,1.18.7,2.25.94,3.28h0c.25-1,.61-2.12,1-3.27l1.49-4.33h1.2l-3.13,8.77Z"/><path class="cls-40" d="M37.52,622.16l-.09-.8h0a2.34,2.34,0,0,1-1.93.94,1.79,1.79,0,0,1-1.92-1.81c0-1.52,1.35-2.35,3.78-2.34V618a1.29,1.29,0,0,0-1.43-1.45,3.08,3.08,0,0,0-1.63.47l-.26-.76a3.87,3.87,0,0,1,2.06-.56c1.93,0,2.4,1.32,2.4,2.58v2.35a8.69,8.69,0,0,0,.1,1.51ZM37.35,619c-1.25,0-2.66.19-2.66,1.41a1,1,0,0,0,1.07,1.1,1.58,1.58,0,0,0,1.53-1.06,1.43,1.43,0,0,0,.06-.36Z"/><path class="cls-40" d="M44.79,621.92a4.17,4.17,0,0,1-1.81.37,3,3,0,0,1-3.13-3.21,3.2,3.2,0,0,1,3.38-3.35,3.73,3.73,0,0,1,1.58.33l-.26.88a2.69,2.69,0,0,0-1.32-.3,2.38,2.38,0,0,0,0,4.74,3.26,3.26,0,0,0,1.4-.31Z"/><path class="cls-40" d="M51.39,620.44c0,.65,0,1.22,0,1.72h-1l-.07-1h0a2.36,2.36,0,0,1-2.08,1.17c-1,0-2.17-.55-2.17-2.76v-3.67h1.14v3.48c0,1.19.36,2,1.4,2a1.65,1.65,0,0,0,1.51-1,1.58,1.58,0,0,0,.11-.58v-3.86h1.14Z"/><path class="cls-40" d="M58.55,620.44c0,.65,0,1.22.05,1.72h-1l-.06-1h0a2.36,2.36,0,0,1-2.08,1.17c-1,0-2.17-.55-2.17-2.76v-3.67h1.14v3.48c0,1.19.37,2,1.41,2a1.66,1.66,0,0,0,1.51-1,1.81,1.81,0,0,0,.1-.58v-3.86h1.14Z"/><path class="cls-40" d="M60.45,617.57c0-.65,0-1.19-.05-1.7h1l.05,1h0a2.17,2.17,0,0,1,2-1.16A1.87,1.87,0,0,1,65.25,617h0a2.75,2.75,0,0,1,.71-.82,2.16,2.16,0,0,1,1.39-.44c.83,0,2.06.55,2.06,2.73v3.71H68.32V618.6c0-1.21-.45-1.94-1.37-1.94a1.47,1.47,0,0,0-1.35,1,1.89,1.89,0,0,0-.09.57v3.89H64.39v-3.77c0-1-.44-1.73-1.31-1.73a1.56,1.56,0,0,0-1.42,1.14,1.5,1.5,0,0,0-.09.56v3.8H60.45Z"/><path class="cls-40" d="M74.09,613.51a11.51,11.51,0,0,1,2.17-.18,3.58,3.58,0,0,1,2.53.71,2.18,2.18,0,0,1,.69,1.67A2.31,2.31,0,0,1,77.83,618v0a2.2,2.2,0,0,1,1.29,1.77,14,14,0,0,0,.67,2.41H78.62a12.06,12.06,0,0,1-.58-2.1c-.26-1.2-.73-1.66-1.76-1.7H75.22v3.8H74.09Zm1.13,4h1.16c1.2,0,2-.66,2-1.66s-.82-1.63-2-1.64a4.81,4.81,0,0,0-1.12.1Z"/><path class="cls-40" d="M81.73,619.22a2,2,0,0,0,2.16,2.18,4.17,4.17,0,0,0,1.74-.32l.2.82a5.2,5.2,0,0,1-2.1.39,2.92,2.92,0,0,1-3.09-3.17c0-1.9,1.12-3.4,3-3.4,2,0,2.6,1.81,2.6,3a5,5,0,0,1,0,.53Zm3.36-.82a1.63,1.63,0,0,0-1.59-1.86,1.91,1.91,0,0,0-1.76,1.86Z"/><path class="cls-40" d="M87.45,621a3,3,0,0,0,1.51.45c.83,0,1.22-.41,1.22-.93s-.32-.85-1.17-1.16c-1.13-.4-1.66-1-1.66-1.78a1.94,1.94,0,0,1,2.17-1.85,3.15,3.15,0,0,1,1.55.39l-.29.83a2.52,2.52,0,0,0-1.29-.36c-.67,0-1,.39-1,.86s.38.75,1.2,1.06c1.09.42,1.65,1,1.65,1.9,0,1.11-.86,1.89-2.36,1.89a3.55,3.55,0,0,1-1.76-.43Z"/><path class="cls-40" d="M98.45,619a3.07,3.07,0,0,1-3.13,3.34,3,3,0,0,1-3-3.24,3.08,3.08,0,0,1,3.12-3.34A3,3,0,0,1,98.45,619Zm-5,.06c0,1.38.79,2.42,1.91,2.42s1.91-1,1.91-2.44c0-1.07-.53-2.42-1.89-2.42S93.46,617.83,93.46,619Z"/><path class="cls-40" d="M105.16,620.44c0,.65,0,1.22,0,1.72h-1l-.07-1h0A2.35,2.35,0,0,1,102,622.3c-1,0-2.17-.55-2.17-2.76v-3.67H101v3.48c0,1.19.36,2,1.4,2a1.65,1.65,0,0,0,1.51-1,1.81,1.81,0,0,0,.1-.58v-3.86h1.15Z"/><path class="cls-40" d="M107.06,617.83c0-.74,0-1.38-.06-2h1l0,1.23h.06a1.87,1.87,0,0,1,1.74-1.38,1,1,0,0,1,.32,0v1.08a1.51,1.51,0,0,0-.39,0,1.6,1.6,0,0,0-1.53,1.47,2.89,2.89,0,0,0,0,.53v3.36h-1.13Z"/><path class="cls-40" d="M115.66,621.92a4.14,4.14,0,0,1-1.81.37,3,3,0,0,1-3.13-3.21,3.2,3.2,0,0,1,3.38-3.35,3.75,3.75,0,0,1,1.59.33l-.26.88a2.74,2.74,0,0,0-1.33-.3,2.18,2.18,0,0,0-2.22,2.38,2.16,2.16,0,0,0,2.18,2.36,3.35,3.35,0,0,0,1.41-.31Z"/><path class="cls-40" d="M117.56,619.22a2,2,0,0,0,2.16,2.18,4.17,4.17,0,0,0,1.74-.32l.19.82a5.11,5.11,0,0,1-2.09.39,2.92,2.92,0,0,1-3.09-3.17c0-1.9,1.12-3.4,3-3.4,2,0,2.6,1.81,2.6,3a5,5,0,0,1,0,.53Zm3.35-.82a1.62,1.62,0,0,0-1.58-1.86,1.9,1.9,0,0,0-1.76,1.86Z"/><path class="cls-40" d="M62.89,637.76,60,629h1.22l1.37,4.31c.37,1.18.7,2.25.93,3.28h0c.24-1,.61-2.12,1-3.27L66.06,629h1.21l-3.13,8.76Z"/><path class="cls-40" d="M71.23,637.76l-.09-.8h0a2.32,2.32,0,0,1-1.92.94,1.79,1.79,0,0,1-1.92-1.81c0-1.52,1.35-2.35,3.78-2.34v-.13a1.29,1.29,0,0,0-1.43-1.45,3.17,3.17,0,0,0-1.64.46l-.26-.75a3.91,3.91,0,0,1,2.07-.56c1.92,0,2.39,1.31,2.39,2.58v2.35a9.89,9.89,0,0,0,.1,1.51Zm-.16-3.21c-1.25,0-2.67.19-2.67,1.41a1,1,0,0,0,1.08,1.09A1.55,1.55,0,0,0,71,636a1.15,1.15,0,0,0,.07-.36Z"/><path class="cls-40" d="M74,628.53h1.14v9.23H74Z"/><path class="cls-40" d="M77.53,631.46,78.76,635a15.54,15.54,0,0,1,.51,1.61h0c.14-.52.32-1,.53-1.61l1.22-3.54h1.2l-2.47,6.3H78.7l-2.4-6.3Z"/><path class="cls-40" d="M83.84,634.82A2,2,0,0,0,86,637a4.17,4.17,0,0,0,1.74-.32l.2.82a5.11,5.11,0,0,1-2.09.39,2.93,2.93,0,0,1-3.1-3.18c0-1.89,1.12-3.39,3-3.39,2.06,0,2.6,1.81,2.6,3a3.26,3.26,0,0,1,0,.53ZM87.2,634a1.63,1.63,0,0,0-1.59-1.86A1.9,1.9,0,0,0,83.86,634Z"/><rect class="cls-41" x="10.68" y="542.63" width="127.38" height="127.38" rx="12"/><line class="cls-41" x1="152.96" y1="610.61" x2="138.07" y2="610.74"/><line class="cls-41" x1="380.5" y1="610.61" x2="394.96" y2="610.61"/></g></svg>