<svg xmlns="http://www.w3.org/2000/svg" viewBox="0 0 1190 700"><defs><style>.cls-1{fill:#434444;}.cls-2{fill:#fff;}.cls-3{fill:#606161;}.cls-4{fill:#bababa;}.cls-5{fill:#b3b4b4;}.cls-6{fill:#878787;}.cls-7{fill:#dddede;}</style></defs><g id="Layer_1" data-name="Layer 1"><rect class="cls-1" x="-6.71" y="-8.42" width="1203.43" height="716.84"/><path class="cls-2" d="M1197.21,708.92H-7.21V-8.92H1197.21Zm-1203.42-1H1196.21V-7.92H-6.21Z"/><path class="cls-1" d="M446.85,296.36h116a9.58,9.58,0,0,0,9.58-9.58V178.34a9.85,9.85,0,0,1,9.85-9.85h90.86"/><path class="cls-2" d="M562.86,297.86h-116v-3h116a8.09,8.09,0,0,0,8.08-8.08V178.34A11.36,11.36,0,0,1,582.29,167h73v3h-73a8.36,8.36,0,0,0-8.35,8.35V286.78A11.09,11.09,0,0,1,562.86,297.86Z"/><polygon class="cls-2" points="646.81 179.6 651.53 168.5 646.81 157.38 673.15 168.5 646.81 179.6"/><path class="cls-1" d="M673.15,168.49H582.31a9.87,9.87,0,0,1-9.87-9.87V91a9.87,9.87,0,0,0-9.87-9.88H152.31"/><path class="cls-2" d="M655.24,170H582.31a11.38,11.38,0,0,1-11.37-11.37V91a8.39,8.39,0,0,0-8.37-8.38H152.31v-3H562.57A11.38,11.38,0,0,1,573.94,91v67.6a8.38,8.38,0,0,0,8.37,8.37h72.93Z"/><polygon class="cls-2" points="646.81 157.38 651.53 168.5 646.81 179.6 673.15 168.5 646.81 157.38"/><path class="cls-1" d="M446.85,567.66H562.4a10,10,0,0,0,10-10h0a9.85,9.85,0,0,1,9.85-9.85h90.86"/><path class="cls-2" d="M562.4,569.16H464.76v-3H562.4a8.55,8.55,0,0,0,8.54-8.53,11.36,11.36,0,0,1,11.35-11.35h90.86v3H582.29a8.36,8.36,0,0,0-8.35,8.35A11.54,11.54,0,0,1,562.4,569.16Z"/><polygon class="cls-2" points="473.19 578.77 468.47 567.66 473.19 556.55 446.85 567.66 473.19 578.77"/><path class="cls-1" d="M673.15,547.78H582.23a9.79,9.79,0,0,1-9.79-9.8V457.49a9.79,9.79,0,0,0-9.79-9.79H152.31"/><path class="cls-2" d="M673.15,549.28H582.23A11.31,11.31,0,0,1,570.94,538V457.49a8.3,8.3,0,0,0-8.29-8.29H170.22v-3H562.65a11.31,11.31,0,0,1,11.29,11.29V538a8.3,8.3,0,0,0,8.29,8.3h90.92Z"/><polygon class="cls-2" points="178.64 436.59 173.92 447.7 178.64 458.81 152.31 447.7 178.64 436.59"/><rect class="cls-2" x="709.88" y="222.77" width="3" height="62.23"/><polygon class="cls-2" points="700.28 276.58 711.38 281.3 722.49 276.58 711.38 302.92 700.28 276.58"/><rect class="cls-2" x="709.88" y="386.04" width="3" height="79.5"/><polygon class="cls-2" points="700.28 457.12 711.38 461.83 722.49 457.12 711.38 483.45 700.28 457.12"/></g><g id="Layer_2" data-name="Layer 2"><path class="cls-3" d="M673.15,114.22v98.51c0,5.55,17.12,10,38.24,10s38.23-4.49,38.23-10V114.22Z"/><path class="cls-2" d="M711.38,223.27c-21.72,0-38.73-4.63-38.73-10.54v-99h77.47v99C750.12,218.64,733.11,223.27,711.38,223.27ZM673.65,114.72v98c0,4.61,15.16,9.54,37.73,9.54s37.74-4.93,37.74-9.54v-98Z"/><ellipse class="cls-4" cx="711.39" cy="114.22" rx="38.24" ry="10.05"/><path class="cls-2" d="M711.38,124.76c-21.72,0-38.73-4.63-38.73-10.54s17-10.55,38.73-10.55,38.74,4.63,38.74,10.55S733.11,124.76,711.38,124.76Zm0-20.09c-22.57,0-37.73,4.94-37.73,9.55s15.16,9.54,37.73,9.54,37.74-4.93,37.74-9.54S734,104.67,711.38,104.67Z"/><path class="cls-3" d="M673.15,493.5V592c0,5.55,17.12,10,38.24,10s38.23-4.49,38.23-10V493.5Z"/><path class="cls-2" d="M711.38,602.55c-21.72,0-38.73-4.63-38.73-10.54V493h77.47v99C750.12,597.92,733.11,602.55,711.38,602.55ZM673.65,494v98c0,4.61,15.16,9.54,37.73,9.54s37.74-4.93,37.74-9.54V494Z"/><ellipse class="cls-4" cx="711.39" cy="493.5" rx="38.24" ry="10.05"/><path class="cls-2" d="M711.38,504c-21.72,0-38.73-4.63-38.73-10.54s17-10.55,38.73-10.55,38.74,4.63,38.74,10.55S733.11,504,711.38,504Zm0-20.09c-22.57,0-37.73,4.94-37.73,9.55S688.81,503,711.38,503s37.74-4.93,37.74-9.54S734,484,711.38,484Z"/><path class="cls-3" d="M224.9,232.4v98.52c0,5.54,17.12,10,38.24,10s38.24-4.5,38.24-10V232.4Z"/><path class="cls-2" d="M263.14,341.46c-21.72,0-38.74-4.63-38.74-10.54v-99h77.48v99C301.88,336.83,284.86,341.46,263.14,341.46ZM225.4,232.9v98c0,4.61,15.17,9.54,37.74,9.54s37.74-4.93,37.74-9.54v-98Z"/><ellipse class="cls-4" cx="263.14" cy="232.4" rx="38.24" ry="10.05"/><path class="cls-2" d="M263.14,243c-21.72,0-38.74-4.63-38.74-10.55s17-10.54,38.74-10.54,38.74,4.63,38.74,10.54S284.86,243,263.14,243Zm0-20.09c-22.57,0-37.74,4.93-37.74,9.54S240.57,242,263.14,242s37.74-4.94,37.74-9.55S285.71,222.86,263.14,222.86Z"/><path class="cls-2" d="M434.85,358.91H215.28a12.52,12.52,0,0,1-12.5-12.5V165a12.52,12.52,0,0,1,12.5-12.5H434.85a12.52,12.52,0,0,1,12.5,12.5V346.41A12.52,12.52,0,0,1,434.85,358.91ZM215.28,153.53a11.51,11.51,0,0,0-11.5,11.5V346.41a11.51,11.51,0,0,0,11.5,11.5H434.85a11.51,11.51,0,0,0,11.5-11.5V165a11.51,11.51,0,0,0-11.5-11.5Z"/><path class="cls-2" d="M434.85,627.05H215.28a12.51,12.51,0,0,1-12.5-12.5V520.77a12.52,12.52,0,0,1,12.5-12.5H434.85a12.52,12.52,0,0,1,12.5,12.5v93.78A12.51,12.51,0,0,1,434.85,627.05ZM215.28,509.27a11.51,11.51,0,0,0-11.5,11.5v93.78a11.51,11.51,0,0,0,11.5,11.5H434.85a11.51,11.51,0,0,0,11.5-11.5V520.77a11.51,11.51,0,0,0-11.5-11.5Z"/><path class="cls-2" d="M974.72,627.05H639.84a12.51,12.51,0,0,1-12.5-12.5V93.14a12.52,12.52,0,0,1,12.5-12.5H974.72a12.52,12.52,0,0,1,12.5,12.5V614.55A12.51,12.51,0,0,1,974.72,627.05ZM639.84,81.64a11.51,11.51,0,0,0-11.5,11.5V614.55a11.51,11.51,0,0,0,11.5,11.5H974.72a11.51,11.51,0,0,0,11.5-11.5V93.14a11.51,11.51,0,0,0-11.5-11.5Z"/><path class="cls-2" d="M216.06,138.11v5.43c0,1.63.62,2.45,1.71,2.45s1.74-.78,1.74-2.45v-5.43h2.12v5.29c0,2.91-1.47,4.3-3.93,4.3s-3.78-1.32-3.78-4.33v-5.26Z"/><path class="cls-2" d="M223.48,138.23a19.08,19.08,0,0,1,2.84-.19,4.87,4.87,0,0,1,3.06.74,2.38,2.38,0,0,1,.86,2,2.51,2.51,0,0,1-1.66,2.33v0a2.39,2.39,0,0,1,1.26,1.77c.29,1.06.59,2.29.77,2.66h-2.19a12.3,12.3,0,0,1-.66-2.2c-.25-1.18-.65-1.5-1.52-1.52h-.65v3.72h-2.11Zm2.11,4.06h.84c1.07,0,1.7-.53,1.7-1.35s-.59-1.31-1.57-1.32a5.23,5.23,0,0,0-1,.07Z"/><path class="cls-2" d="M233.92,138.11v9.44h-2.14v-9.44Z"/><path class="cls-2" d="M235.77,147.55v-9.44h2.49l2,3.46a29,29,0,0,1,1.55,3.23h0a35,35,0,0,1-.19-3.93v-2.76h2v9.44h-2.25l-2-3.64a34.5,34.5,0,0,1-1.64-3.34h0c0,1.25.08,2.58.08,4.12v2.85Z"/><path class="cls-2" d="M251.05,143.55h-3.48v2.25h3.88v1.75h-6v-9.44h5.83v1.75h-3.69v2h3.48Z"/><path class="cls-2" d="M255.73,138.23a18,18,0,0,1,2.89-.19,4.53,4.53,0,0,1,2.88.75,2.75,2.75,0,0,1,1,2.19,3,3,0,0,1-.86,2.24,4.37,4.37,0,0,1-3.07,1,5.07,5.07,0,0,1-.73,0v3.38h-2.12Zm2.12,4.29a3.39,3.39,0,0,0,.71,0c1.14,0,1.84-.57,1.84-1.54s-.6-1.38-1.67-1.38a3.79,3.79,0,0,0-.88.08Z"/><path class="cls-2" d="M263.87,138.23a19.08,19.08,0,0,1,2.84-.19,4.82,4.82,0,0,1,3.05.74,2.39,2.39,0,0,1,.87,2,2.51,2.51,0,0,1-1.66,2.33v0a2.42,2.42,0,0,1,1.26,1.77,25.77,25.77,0,0,0,.77,2.66h-2.19a12.3,12.3,0,0,1-.66-2.2c-.25-1.18-.65-1.5-1.52-1.52H266v3.72h-2.11Zm2.11,4.06h.84c1.07,0,1.7-.53,1.7-1.35s-.59-1.31-1.57-1.32a5.23,5.23,0,0,0-1,.07Z"/><path class="cls-2" d="M280.76,142.73c0,3.09-1.88,5-4.64,5s-4.44-2.11-4.44-4.8,1.81-5,4.59-5S280.76,140.12,280.76,142.73Zm-6.83.12c0,1.85.87,3.16,2.3,3.16s2.27-1.38,2.27-3.21-.81-3.15-2.28-3.15S273.93,141,273.93,142.85Z"/><path class="cls-2" d="M289.08,147.28a6,6,0,0,1-2.42.41c-3.26,0-4.94-2-4.94-4.72a4.81,4.81,0,0,1,5.15-5,5.69,5.69,0,0,1,2.33.42l-.44,1.7a4.43,4.43,0,0,0-1.79-.35,3.1,3.1,0,0,0,0,6.2,5.26,5.26,0,0,0,1.78-.31Z"/><path class="cls-2" d="M296.1,143.55h-3.48v2.25h3.88v1.75h-6v-9.44h5.83v1.75h-3.69v2h3.48Z"/><path class="cls-2" d="M298,145.35a5.46,5.46,0,0,0,2.36.59c1,0,1.5-.41,1.5-1s-.45-.92-1.58-1.33c-1.57-.54-2.59-1.41-2.59-2.79,0-1.61,1.34-2.84,3.57-2.84a5.83,5.83,0,0,1,2.41.48l-.48,1.72a4.47,4.47,0,0,0-2-.45c-.93,0-1.37.42-1.37.91s.53.87,1.75,1.33c1.66.62,2.45,1.49,2.45,2.82,0,1.58-1.22,2.93-3.81,2.93a6.1,6.1,0,0,1-2.68-.58Z"/><path class="cls-2" d="M305.59,145.35a5.46,5.46,0,0,0,2.36.59c1,0,1.5-.41,1.5-1s-.45-.92-1.58-1.33c-1.57-.54-2.59-1.41-2.59-2.79,0-1.61,1.34-2.84,3.57-2.84a5.79,5.79,0,0,1,2.41.48l-.48,1.72a4.47,4.47,0,0,0-2-.45c-.93,0-1.37.42-1.37.91s.53.87,1.75,1.33c1.66.62,2.45,1.49,2.45,2.82,0,1.58-1.22,2.93-3.81,2.93a6.13,6.13,0,0,1-2.68-.58Z"/><path class="cls-2" d="M321.72,142.73c0,3.09-1.88,5-4.64,5s-4.44-2.11-4.44-4.8,1.81-5,4.6-5S321.72,140.12,321.72,142.73Zm-6.82.12c0,1.85.87,3.16,2.29,3.16s2.27-1.38,2.27-3.21-.81-3.15-2.28-3.15S314.9,141,314.9,142.85Z"/><path class="cls-2" d="M323.11,138.23A19.23,19.23,0,0,1,326,138a4.82,4.82,0,0,1,3.05.74,2.39,2.39,0,0,1,.87,2,2.5,2.5,0,0,1-1.67,2.33v0a2.37,2.37,0,0,1,1.26,1.77c.3,1.06.59,2.29.77,2.66h-2.18a12.3,12.3,0,0,1-.66-2.2c-.25-1.18-.66-1.5-1.53-1.52h-.64v3.72h-2.12Zm2.12,4.06h.84c1.07,0,1.7-.53,1.7-1.35s-.59-1.31-1.57-1.32a5.14,5.14,0,0,0-1,.07Z"/><path class="cls-2" d="M336.44,145.12l-.67,2.43h-2.21l2.88-9.44h2.81l2.92,9.44h-2.29l-.73-2.43Zm2.4-1.59-.59-2c-.17-.56-.33-1.26-.48-1.82h0c-.14.56-.28,1.28-.44,1.82l-.56,2Z"/><path class="cls-2" d="M343.5,145.35a5.5,5.5,0,0,0,2.37.59c1,0,1.49-.41,1.49-1s-.44-.92-1.58-1.33c-1.57-.54-2.59-1.41-2.59-2.79,0-1.61,1.35-2.84,3.57-2.84a5.79,5.79,0,0,1,2.41.48l-.47,1.72a4.53,4.53,0,0,0-2-.45c-.92,0-1.37.42-1.37.91s.53.87,1.75,1.33c1.67.62,2.45,1.49,2.45,2.82,0,1.58-1.22,2.93-3.81,2.93a6.13,6.13,0,0,1-2.68-.58Z"/><path class="cls-2" d="M351.06,145.35a5.5,5.5,0,0,0,2.37.59c1,0,1.49-.41,1.49-1s-.44-.92-1.58-1.33c-1.57-.54-2.59-1.41-2.59-2.79,0-1.61,1.35-2.84,3.57-2.84a5.79,5.79,0,0,1,2.41.48l-.47,1.72a4.56,4.56,0,0,0-2-.45c-.92,0-1.37.42-1.37.91s.53.87,1.75,1.33c1.67.62,2.45,1.49,2.45,2.82,0,1.58-1.22,2.93-3.81,2.93a6.13,6.13,0,0,1-2.68-.58Z"/><path class="cls-2" d="M364.17,143.55h-3.48v2.25h3.88v1.75h-6v-9.44h5.83v1.75h-3.69v2h3.48Z"/><path class="cls-2" d="M374,143.93c0-1.13-.09-2.5-.09-3.88h0c-.29,1.21-.68,2.55-1.05,3.66l-1.15,3.68H370l-1-3.65c-.31-1.11-.63-2.45-.86-3.69h0c-.05,1.28-.09,2.73-.16,3.91l-.17,3.59h-2l.61-9.44h2.84l.92,3.15c.3,1.09.59,2.27.8,3.37h0c.27-1.09.59-2.34.9-3.39l1-3.13h2.79l.51,9.44h-2.08Z"/><path class="cls-2" d="M377.87,138.23a17.33,17.33,0,0,1,2.76-.19,5.14,5.14,0,0,1,2.78.53,2.05,2.05,0,0,1,1.14,1.85,2.12,2.12,0,0,1-1.56,2v0a2.37,2.37,0,0,1,1.88,2.33,2.52,2.52,0,0,1-1,2,5.93,5.93,0,0,1-3.71.85,15,15,0,0,1-2.31-.14Zm2.11,3.62h.7c1.12,0,1.73-.47,1.73-1.17s-.55-1.09-1.52-1.09a5.44,5.44,0,0,0-.91.06Zm0,4.18a6.3,6.3,0,0,0,.83,0c1,0,1.82-.36,1.82-1.36s-.85-1.33-1.92-1.33H380Z"/><path class="cls-2" d="M386.32,138.11h2.15v7.64h3.75v1.8h-5.9Z"/><path class="cls-2" d="M394.4,147.55v-3.87l-3-5.57h2.43l1,2.27c.3.68.49,1.19.73,1.8h0c.21-.59.43-1.13.71-1.8l.95-2.27h2.4l-3.11,5.5v3.94Z"/><path class="cls-2" d="M406.48,137.87a12,12,0,0,0,0,11.3H405a9.71,9.71,0,0,1-1.6-5.64,9.91,9.91,0,0,1,1.6-5.66Z"/><path class="cls-2" d="M410,138.11v5.43c0,1.63.62,2.45,1.71,2.45s1.74-.78,1.74-2.45v-5.43h2.13v5.29c0,2.91-1.47,4.3-3.94,4.3s-3.78-1.32-3.78-4.33v-5.26Z"/><path class="cls-2" d="M417.43,138.23a17.87,17.87,0,0,1,2.89-.19,4.55,4.55,0,0,1,2.88.75,2.78,2.78,0,0,1,1,2.19,3,3,0,0,1-.87,2.24,4.37,4.37,0,0,1-3.07,1,4.92,4.92,0,0,1-.72,0v3.38h-2.12Zm2.12,4.29a3.39,3.39,0,0,0,.71,0c1.14,0,1.84-.57,1.84-1.54s-.61-1.38-1.67-1.38a3.72,3.72,0,0,0-.88.08Z"/><path class="cls-2" d="M426.92,145.12l-.67,2.43H424l2.88-9.44h2.8l2.93,9.44h-2.3l-.72-2.43Zm2.4-1.59-.59-2c-.17-.56-.34-1.26-.48-1.82h0c-.14.56-.28,1.28-.44,1.82l-.56,2Z"/><path class="cls-2" d="M433.22,149.17a11,11,0,0,0,1.42-5.66,10.74,10.74,0,0,0-1.42-5.64h1.49a9.79,9.79,0,0,1,1.59,5.64,10,10,0,0,1-1.59,5.66Z"/><path class="cls-2" d="M694,73.45,691.71,64H694l.72,3.9c.21,1.12.4,2.34.56,3.29h0c.15-1,.37-2.16.61-3.32l.8-3.87H699l.76,4c.21,1.11.36,2.12.5,3.17h0c.14-1.05.35-2.16.54-3.28l.77-3.87h2.18l-2.44,9.45H699l-.8-4.07c-.18-.95-.34-1.83-.45-2.91h0c-.16,1.06-.32,2-.54,2.91l-.9,4.07Z"/><path class="cls-2" d="M706.3,71l-.67,2.43h-2.22L706.3,64h2.8L712,73.45h-2.3L709,71Zm2.39-1.59-.58-2c-.17-.56-.34-1.26-.48-1.82h0c-.14.56-.28,1.28-.43,1.82l-.56,2Z"/><path class="cls-2" d="M713.94,65.8h-2.53V64h7.25v1.8h-2.57v7.65h-2.15Z"/><path class="cls-2" d="M725.41,69.45h-3.47v2.24h3.88v1.76h-6V64h5.83v1.76h-3.68v2h3.47Z"/><path class="cls-2" d="M727.27,64.13a19.19,19.19,0,0,1,2.84-.19,4.85,4.85,0,0,1,3.06.74,2.39,2.39,0,0,1,.87,2A2.52,2.52,0,0,1,732.37,69v0a2.39,2.39,0,0,1,1.26,1.76c.29,1.07.59,2.3.77,2.67h-2.19a12.62,12.62,0,0,1-.65-2.2c-.26-1.18-.66-1.5-1.53-1.52h-.64v3.72h-2.12Zm2.12,4.06h.84c1.06,0,1.69-.53,1.69-1.36s-.59-1.3-1.57-1.31a5,5,0,0,0-1,.07Z"/><path class="cls-2" d="M738.4,64.13a17.87,17.87,0,0,1,2.89-.19,4.55,4.55,0,0,1,2.88.75,2.78,2.78,0,0,1,1,2.19,3,3,0,0,1-.87,2.24,4.42,4.42,0,0,1-3.07,1,4.92,4.92,0,0,1-.72,0v3.38H738.4Zm2.12,4.29a3.39,3.39,0,0,0,.71,0c1.13,0,1.83-.57,1.83-1.54s-.6-1.38-1.66-1.38a3.72,3.72,0,0,0-.88.08Z"/><path class="cls-2" d="M746.53,64.13a19.23,19.23,0,0,1,2.85-.19,4.82,4.82,0,0,1,3,.74,2.39,2.39,0,0,1,.87,2A2.5,2.5,0,0,1,751.63,69v0a2.37,2.37,0,0,1,1.26,1.76c.3,1.07.59,2.3.77,2.67h-2.18a11.47,11.47,0,0,1-.66-2.2c-.25-1.18-.66-1.5-1.53-1.52h-.64v3.72h-2.12Zm2.12,4.06h.84c1.06,0,1.69-.53,1.69-1.36s-.58-1.3-1.56-1.31a5.14,5.14,0,0,0-1,.07Z"/><path class="cls-2" d="M763.42,68.63c0,3.09-1.88,5-4.63,5s-4.44-2.12-4.44-4.8,1.8-4.95,4.59-4.95S763.42,66,763.42,68.63Zm-6.82.12c0,1.85.87,3.15,2.3,3.15s2.27-1.37,2.27-3.2-.82-3.15-2.29-3.15S756.6,66.92,756.6,68.75Z"/><path class="cls-2" d="M771.75,73.18a6,6,0,0,1-2.42.41c-3.27,0-5-2-5-4.72a4.82,4.82,0,0,1,5.16-5,5.47,5.47,0,0,1,2.32.42l-.43,1.7a4.46,4.46,0,0,0-1.79-.35,3.1,3.1,0,0,0,0,6.2,5.31,5.31,0,0,0,1.78-.31Z"/><path class="cls-2" d="M778.76,69.45h-3.47v2.24h3.88v1.76h-6V64H779v1.76h-3.68v2h3.47Z"/><path class="cls-2" d="M780.69,71.25a5.55,5.55,0,0,0,2.37.58c1,0,1.5-.4,1.5-1s-.45-.92-1.58-1.33c-1.57-.54-2.59-1.41-2.59-2.79,0-1.61,1.34-2.84,3.57-2.84a5.67,5.67,0,0,1,2.41.48l-.48,1.72a4.51,4.51,0,0,0-2-.45c-.93,0-1.38.42-1.38.91s.54.87,1.75,1.33c1.67.62,2.46,1.49,2.46,2.82,0,1.58-1.22,2.93-3.82,2.93a6.08,6.08,0,0,1-2.67-.58Z"/><path class="cls-2" d="M788.25,71.25a5.55,5.55,0,0,0,2.37.58c1,0,1.5-.4,1.5-1s-.45-.92-1.58-1.33C789,68.94,788,68.07,788,66.69c0-1.61,1.34-2.84,3.57-2.84a5.67,5.67,0,0,1,2.41.48l-.48,1.72a4.51,4.51,0,0,0-2-.45c-.93,0-1.38.42-1.38.91s.53.87,1.75,1.33c1.67.62,2.45,1.49,2.45,2.82,0,1.58-1.21,2.93-3.8,2.93a6.1,6.1,0,0,1-2.68-.58Z"/><path class="cls-2" d="M804.39,68.63c0,3.09-1.88,5-4.64,5s-4.44-2.12-4.44-4.8,1.81-4.95,4.59-4.95S804.39,66,804.39,68.63Zm-6.83.12c0,1.85.87,3.15,2.3,3.15s2.27-1.37,2.27-3.2-.81-3.15-2.28-3.15S797.56,66.92,797.56,68.75Z"/><path class="cls-2" d="M805.78,64.13a19.19,19.19,0,0,1,2.84-.19,4.83,4.83,0,0,1,3.06.74,2.39,2.39,0,0,1,.87,2A2.52,2.52,0,0,1,810.88,69v0a2.39,2.39,0,0,1,1.26,1.76c.3,1.07.59,2.3.77,2.67h-2.18a11.47,11.47,0,0,1-.66-2.2c-.25-1.18-.66-1.5-1.53-1.52h-.64v3.72h-2.12Zm2.12,4.06h.84c1.06,0,1.69-.53,1.69-1.36s-.59-1.3-1.57-1.31a5,5,0,0,0-1,.07Z"/><path class="cls-2" d="M819.11,71l-.67,2.43h-2.21L819.11,64h2.8l2.93,9.45h-2.3L821.81,71Zm2.4-1.59-.59-2c-.17-.56-.34-1.26-.48-1.82h0c-.14.56-.28,1.28-.43,1.82l-.56,2Z"/><path class="cls-2" d="M826.17,71.25a5.46,5.46,0,0,0,2.36.58c1,0,1.5-.4,1.5-1s-.45-.92-1.58-1.33c-1.57-.54-2.59-1.41-2.59-2.79,0-1.61,1.34-2.84,3.57-2.84a5.67,5.67,0,0,1,2.41.48l-.48,1.72a4.51,4.51,0,0,0-2-.45c-.93,0-1.38.42-1.38.91s.54.87,1.76,1.33c1.66.62,2.45,1.49,2.45,2.82,0,1.58-1.22,2.93-3.81,2.93a6.1,6.1,0,0,1-2.68-.58Z"/><path class="cls-2" d="M833.72,71.25a5.55,5.55,0,0,0,2.37.58c1,0,1.5-.4,1.5-1s-.45-.92-1.58-1.33c-1.57-.54-2.59-1.41-2.59-2.79,0-1.61,1.34-2.84,3.57-2.84a5.67,5.67,0,0,1,2.41.48l-.48,1.72a4.51,4.51,0,0,0-2-.45c-.93,0-1.38.42-1.38.91s.54.87,1.76,1.33c1.66.62,2.45,1.49,2.45,2.82,0,1.58-1.22,2.93-3.81,2.93a6.1,6.1,0,0,1-2.68-.58Z"/><path class="cls-2" d="M846.83,69.45h-3.47v2.24h3.88v1.76h-6V64H847v1.76h-3.68v2h3.47Z"/><path class="cls-2" d="M856.67,69.83c0-1.13-.08-2.51-.08-3.88h0c-.3,1.21-.69,2.55-1,3.66l-1.15,3.68h-1.67l-1-3.65c-.3-1.11-.63-2.46-.85-3.69h0c0,1.28-.1,2.73-.17,3.91l-.16,3.59h-2l.6-9.45h2.85l.92,3.16c.29,1.09.59,2.27.8,3.37h0c.27-1.09.59-2.34.9-3.39l1-3.14h2.78l.52,9.45h-2.09Z"/><path class="cls-2" d="M860.53,64.13a17.42,17.42,0,0,1,2.76-.19,5.18,5.18,0,0,1,2.79.53,2.05,2.05,0,0,1,1.14,1.85,2.12,2.12,0,0,1-1.56,2v0a2.36,2.36,0,0,1,1.88,2.33,2.52,2.52,0,0,1-1,2,6,6,0,0,1-3.72.85,16.56,16.56,0,0,1-2.31-.14Zm2.12,3.61h.7c1.12,0,1.72-.46,1.72-1.16s-.54-1.09-1.51-1.09a5.44,5.44,0,0,0-.91.06Zm0,4.19a6.3,6.3,0,0,0,.83,0c1,0,1.82-.36,1.82-1.36s-.86-1.33-1.92-1.33h-.73Z"/><path class="cls-2" d="M869,64h2.14v7.65h3.76v1.8H869Z"/><path class="cls-2" d="M877.07,73.45V69.58l-3-5.58h2.43l1,2.27c.29.69.49,1.19.73,1.81h0c.21-.59.43-1.13.71-1.81l.95-2.27h2.4l-3.11,5.51v3.94Z"/><path class="cls-2" d="M889.15,63.77a10.66,10.66,0,0,0-1.41,5.67,10.85,10.85,0,0,0,1.41,5.63h-1.48a9.71,9.71,0,0,1-1.6-5.64,9.83,9.83,0,0,1,1.6-5.66Z"/><path class="cls-2" d="M892.46,73.45,890.21,64h2.29l.71,3.9c.21,1.12.41,2.34.56,3.29h0c.15-1,.38-2.16.62-3.32l.79-3.87h2.27l.76,4c.21,1.11.36,2.12.5,3.17h0c.14-1.05.35-2.16.55-3.28l.77-3.87h2.17l-2.44,9.45h-2.31l-.8-4.07c-.18-.95-.33-1.83-.44-2.91h0c-.17,1.06-.32,2-.55,2.91l-.9,4.07Z"/><path class="cls-2" d="M903.36,64.13a17.87,17.87,0,0,1,2.89-.19,4.55,4.55,0,0,1,2.88.75,2.78,2.78,0,0,1,1,2.19,3,3,0,0,1-.87,2.24,4.42,4.42,0,0,1-3.07,1,4.92,4.92,0,0,1-.72,0v3.38h-2.12Zm2.12,4.29a3.39,3.39,0,0,0,.71,0c1.13,0,1.83-.57,1.83-1.54s-.6-1.38-1.66-1.38a3.72,3.72,0,0,0-.88.08Z"/><path class="cls-2" d="M912.85,71l-.67,2.43H910L912.85,64h2.8l2.93,9.45h-2.29L915.56,71Zm2.4-1.59-.59-2c-.17-.56-.34-1.26-.48-1.82h0c-.14.56-.28,1.28-.44,1.82l-.56,2Z"/><path class="cls-2" d="M919.15,75.07a11,11,0,0,0,1.42-5.66,10.74,10.74,0,0,0-1.42-5.64h1.49a9.79,9.79,0,0,1,1.59,5.64,10,10,0,0,1-1.59,5.66Z"/><path class="cls-2" d="M210.31,57a6.25,6.25,0,0,1-2.43.4c-3.26,0-4.94-2-4.94-4.72a4.81,4.81,0,0,1,5.15-5,5.52,5.52,0,0,1,2.33.42L210,49.74a4.7,4.7,0,0,0-1.8-.35,2.85,2.85,0,0,0-3,3.13,2.82,2.82,0,0,0,3,3.08,5.36,5.36,0,0,0,1.78-.31Z"/><path class="cls-2" d="M219.93,52.41c0,3.09-1.88,5-4.64,5s-4.44-2.12-4.44-4.81,1.81-4.94,4.59-4.94S219.93,49.8,219.93,52.41Zm-6.83.12c0,1.85.87,3.15,2.3,3.15s2.27-1.37,2.27-3.21c0-1.69-.81-3.15-2.28-3.15S213.1,50.7,213.1,52.53Z"/><path class="cls-2" d="M221.32,57.22V47.78h2.49l2,3.46a27.44,27.44,0,0,1,1.54,3.24h0a35.12,35.12,0,0,1-.18-3.94V47.78h2v9.44H226.9l-2-3.64a35.5,35.5,0,0,1-1.64-3.33h0c.05,1.25.08,2.58.08,4.12v2.84Z"/><path class="cls-2" d="M231,47.91a18.62,18.62,0,0,1,2.89-.2,6.1,6.1,0,0,1,3.86,1,4.18,4.18,0,0,1,1.6,3.56,4.78,4.78,0,0,1-1.57,3.82,6.76,6.76,0,0,1-4.36,1.22,18.49,18.49,0,0,1-2.42-.14Zm2.14,7.7a4.24,4.24,0,0,0,.75,0c1.93,0,3.19-1,3.19-3.3a2.71,2.71,0,0,0-3-3,4,4,0,0,0-1,.09Z"/><path class="cls-2" d="M246.34,53.23h-3.47v2.24h3.88v1.75h-6V47.78h5.82v1.75h-3.68v2h3.47Z"/><path class="cls-2" d="M248.2,57.22V47.78h2.49l2,3.46a27.44,27.44,0,0,1,1.54,3.24h0a35.12,35.12,0,0,1-.18-3.94V47.78h2v9.44h-2.24l-2-3.64a35.5,35.5,0,0,1-1.64-3.33h0c0,1.25.08,2.58.08,4.12v2.84Z"/><path class="cls-2" d="M257.93,55a5.4,5.4,0,0,0,2.37.59c1,0,1.5-.4,1.5-1s-.45-.92-1.59-1.33c-1.56-.55-2.59-1.42-2.59-2.79,0-1.61,1.35-2.84,3.57-2.84a5.81,5.81,0,0,1,2.41.47l-.47,1.73a4.53,4.53,0,0,0-2-.45c-.92,0-1.37.42-1.37.91s.53.87,1.75,1.33c1.67.62,2.45,1.49,2.45,2.82,0,1.58-1.22,2.92-3.81,2.92a6.21,6.21,0,0,1-2.67-.57Z"/><path class="cls-2" d="M267.62,54.8,267,57.22h-2.22l2.89-9.44h2.8l2.93,9.44h-2.3l-.73-2.42ZM270,53.2l-.58-2c-.17-.56-.34-1.26-.48-1.82h0c-.14.56-.28,1.27-.43,1.82l-.56,2Z"/><path class="cls-2" d="M275.26,49.58h-2.53v-1.8H280v1.8h-2.57v7.64h-2.15Z"/><path class="cls-2" d="M283.26,47.78v9.44h-2.15V47.78Z"/><path class="cls-2" d="M293.75,52.41c0,3.09-1.88,5-4.64,5s-4.44-2.12-4.44-4.81,1.81-4.94,4.59-4.94S293.75,49.8,293.75,52.41Zm-6.83.12c0,1.85.87,3.15,2.3,3.15s2.27-1.37,2.27-3.21c0-1.69-.81-3.15-2.28-3.15S286.92,50.7,286.92,52.53Z"/><path class="cls-2" d="M295.14,57.22V47.78h2.5l2,3.46a27.44,27.44,0,0,1,1.54,3.24h0a35.12,35.12,0,0,1-.18-3.94V47.78h2v9.44h-2.24l-2-3.64a35.5,35.5,0,0,1-1.64-3.33h0c.06,1.25.08,2.58.08,4.12v2.84Z"/><path class="cls-2" d="M214.19,495.92c0,3.1-1.88,5-4.64,5s-4.44-2.12-4.44-4.81,1.81-4.94,4.6-4.94S214.19,493.32,214.19,495.92Zm-6.82.13c0,1.85.86,3.15,2.29,3.15s2.27-1.37,2.27-3.21-.81-3.15-2.28-3.15S207.37,494.21,207.37,496.05Z"/><path class="cls-2" d="M220.09,500.74l-.85-1.71c-.35-.65-.58-1.15-.84-1.69h0c-.2.54-.43,1-.73,1.69l-.78,1.71h-2.44l2.73-4.77-2.63-4.67H217l.83,1.72c.28.58.49,1,.71,1.57h0c.22-.6.4-1,.64-1.57l.8-1.72h2.44l-2.66,4.61,2.8,4.83Z"/><path class="cls-2" d="M226.06,500.74v-3.86l-3-5.58h2.44l1,2.27c.29.69.49,1.19.72,1.81h0c.21-.59.44-1.14.72-1.81l1-2.27h2.39l-3.11,5.51v3.93Z"/><path class="cls-2" d="M239.54,500.31a10.69,10.69,0,0,1-3.15.53,5.27,5.27,0,0,1-3.84-1.27,4.6,4.6,0,0,1-1.33-3.44c0-3.13,2.3-4.93,5.39-4.93a6.36,6.36,0,0,1,2.62.47l-.45,1.7a5.28,5.28,0,0,0-2.2-.4,3.08,3.08,0,0,0-.15,6.15,3,3,0,0,0,1-.14v-2H236v-1.67h3.51Z"/><path class="cls-2" d="M246.82,496.75h-3.47V499h3.88v1.75h-6V491.3H247v1.75h-3.68v2h3.47Z"/><path class="cls-2" d="M248.68,500.74V491.3h2.49l2,3.46a27.44,27.44,0,0,1,1.54,3.24h.05a35,35,0,0,1-.19-3.94V491.3h2v9.44h-2.24l-2-3.64a35.5,35.5,0,0,1-1.64-3.33h0c.05,1.25.08,2.58.08,4.12v2.84Z"/><path class="cls-2" d="M269.05,500.31a10.69,10.69,0,0,1-3.15.53,5.27,5.27,0,0,1-3.84-1.27,4.6,4.6,0,0,1-1.33-3.44c0-3.13,2.3-4.93,5.39-4.93a6.36,6.36,0,0,1,2.62.47l-.44,1.7a5.35,5.35,0,0,0-2.2-.4,3.08,3.08,0,0,0-.16,6.15A2.92,2.92,0,0,0,267,499v-2h-1.45v-1.67h3.51Z"/><path class="cls-2" d="M276.33,496.75h-3.47V499h3.88v1.75h-6V491.3h5.83v1.75h-3.68v2h3.47Z"/><path class="cls-2" d="M278.19,500.74V491.3h2.49l2,3.46a27.51,27.51,0,0,1,1.55,3.24h0a35,35,0,0,1-.19-3.94V491.3h2v9.44h-2.25l-2-3.64a35.5,35.5,0,0,1-1.64-3.33h0c.05,1.25.08,2.58.08,4.12v2.84Z"/><path class="cls-2" d="M293.47,496.75H290V499h3.88v1.75h-6V491.3h5.83v1.75H290v2h3.48Z"/><path class="cls-2" d="M295.33,491.43a18.78,18.78,0,0,1,2.84-.2,4.82,4.82,0,0,1,3.05.74,2.41,2.41,0,0,1,.87,2,2.49,2.49,0,0,1-1.67,2.32v.05a2.37,2.37,0,0,1,1.27,1.76,24.31,24.31,0,0,0,.77,2.66h-2.19a11.74,11.74,0,0,1-.66-2.2c-.25-1.17-.66-1.5-1.53-1.51h-.64v3.71h-2.11Zm2.11,4.06h.84c1.07,0,1.7-.53,1.7-1.36s-.59-1.3-1.57-1.32a6.23,6.23,0,0,0-1,.07Z"/><path class="cls-2" d="M306,498.32l-.67,2.42h-2.21L306,491.3h2.8l2.93,9.44h-2.3l-.72-2.42Zm2.4-1.6-.59-2c-.17-.56-.34-1.26-.48-1.82h0c-.13.56-.27,1.27-.43,1.82l-.56,2Z"/><path class="cls-2" d="M313.6,493.09h-2.54V491.3h7.26v1.79h-2.58v7.65H313.6Z"/><path class="cls-2" d="M327.68,495.92c0,3.1-1.87,5-4.63,5s-4.44-2.12-4.44-4.81,1.8-4.94,4.59-4.94S327.68,493.32,327.68,495.92Zm-6.82.13c0,1.85.87,3.15,2.3,3.15s2.27-1.37,2.27-3.21-.81-3.15-2.28-3.15S320.86,494.21,320.86,496.05Z"/><path class="cls-2" d="M329.08,491.43a19,19,0,0,1,2.84-.2A4.87,4.87,0,0,1,335,492a2.41,2.41,0,0,1,.87,2,2.5,2.5,0,0,1-1.67,2.32v.05a2.36,2.36,0,0,1,1.26,1.76,26.84,26.84,0,0,0,.77,2.66H334a12,12,0,0,1-.65-2.2c-.26-1.17-.66-1.5-1.53-1.51h-.65v3.71h-2.11Zm2.11,4.06H332c1.06,0,1.69-.53,1.69-1.36s-.59-1.3-1.57-1.32a6.36,6.36,0,0,0-1,.07Z"/><path class="cls-2" d="M342.41,498.32l-.67,2.42h-2.22l2.89-9.44h2.8l2.93,9.44h-2.3l-.73-2.42Zm2.39-1.6-.58-2c-.17-.56-.34-1.26-.48-1.82h0c-.14.56-.28,1.27-.43,1.82l-.56,2Z"/><path class="cls-2" d="M349.46,498.54a5.4,5.4,0,0,0,2.37.59c1,0,1.5-.4,1.5-1s-.45-.93-1.58-1.33c-1.57-.55-2.59-1.42-2.59-2.79,0-1.61,1.34-2.84,3.57-2.84a5.85,5.85,0,0,1,2.41.47l-.48,1.73a4.37,4.37,0,0,0-2-.45c-.93,0-1.38.42-1.38.91s.54.87,1.75,1.33c1.67.62,2.46,1.48,2.46,2.82,0,1.58-1.22,2.92-3.81,2.92a6.26,6.26,0,0,1-2.68-.57Z"/><path class="cls-2" d="M357,498.54a5.4,5.4,0,0,0,2.37.59c1,0,1.5-.4,1.5-1s-.45-.93-1.58-1.33c-1.57-.55-2.59-1.42-2.59-2.79,0-1.61,1.34-2.84,3.57-2.84a5.85,5.85,0,0,1,2.41.47l-.48,1.73a4.37,4.37,0,0,0-2-.45c-.93,0-1.38.42-1.38.91s.54.87,1.75,1.33c1.67.62,2.46,1.48,2.46,2.82,0,1.58-1.22,2.92-3.82,2.92a6.24,6.24,0,0,1-2.67-.57Z"/><path class="cls-2" d="M370.13,496.75h-3.47V499h3.88v1.75h-6V491.3h5.83v1.75h-3.68v2h3.47Z"/><path class="cls-2" d="M380,497.13c0-1.14-.08-2.51-.08-3.88h0c-.3,1.2-.69,2.55-1.05,3.65l-1.15,3.69H376l-1-3.66c-.31-1.1-.63-2.45-.85-3.68h0c-.06,1.27-.1,2.73-.17,3.91l-.17,3.58h-2l.6-9.44h2.84l.93,3.15c.29,1.09.59,2.27.8,3.38h0c.27-1.09.59-2.34.9-3.39l1-3.14h2.79l.52,9.44h-2.09Z"/><path class="cls-2" d="M383.83,491.43a17.22,17.22,0,0,1,2.76-.2,5.3,5.3,0,0,1,2.79.53,2.05,2.05,0,0,1,1.13,1.85,2.14,2.14,0,0,1-1.55,2v0a2.35,2.35,0,0,1,1.88,2.32,2.55,2.55,0,0,1-1,2,6,6,0,0,1-3.72.85,16.56,16.56,0,0,1-2.31-.14ZM386,495h.7c1.12,0,1.72-.46,1.72-1.16s-.54-1.09-1.51-1.09a5.8,5.8,0,0,0-.91,0Zm0,4.19a6.22,6.22,0,0,0,.82,0c1,0,1.83-.37,1.83-1.36s-.86-1.33-1.92-1.33H386Z"/><path class="cls-2" d="M392.29,491.3h2.14V499h3.76v1.79h-5.9Z"/><path class="cls-2" d="M400.37,500.74v-3.86l-3-5.58h2.44l1,2.27c.29.69.49,1.19.72,1.81h0c.21-.59.44-1.14.72-1.81l.95-2.27h2.4l-3.11,5.51v3.93Z"/><path class="cls-2" d="M412.45,491.06a10.7,10.7,0,0,0-1.41,5.68,10.88,10.88,0,0,0,1.41,5.63H411a9.72,9.72,0,0,1-1.6-5.65,9.86,9.86,0,0,1,1.6-5.66Z"/><path class="cls-2" d="M422.17,495.92c0,3.1-1.88,5-4.64,5s-4.44-2.12-4.44-4.81,1.81-4.94,4.6-4.94S422.17,493.32,422.17,495.92Zm-6.82.13c0,1.85.87,3.15,2.29,3.15s2.27-1.37,2.27-3.21-.81-3.15-2.28-3.15S415.35,494.21,415.35,496.05Z"/><path class="cls-2" d="M431.45,500.31a10.75,10.75,0,0,1-3.15.53,5.27,5.27,0,0,1-3.84-1.27,4.6,4.6,0,0,1-1.33-3.44c0-3.13,2.3-4.93,5.39-4.93a6.36,6.36,0,0,1,2.62.47l-.45,1.7a5.26,5.26,0,0,0-2.19-.4,3.08,3.08,0,0,0-.16,6.15,3,3,0,0,0,1.05-.14v-2h-1.46v-1.67h3.52Z"/><path class="cls-2" d="M435.31,498.32l-.67,2.42h-2.21l2.88-9.44h2.8l2.93,9.44h-2.3l-.73-2.42Zm2.4-1.6-.59-2c-.17-.56-.34-1.26-.48-1.82h0c-.14.56-.28,1.27-.43,1.82l-.56,2Z"/><path class="cls-2" d="M441.61,502.37a12,12,0,0,0,0-11.31h1.48a9.74,9.74,0,0,1,1.6,5.65,9.91,9.91,0,0,1-1.6,5.66Z"/><path class="cls-2" d="M327.67,233.2v5.19c0,2,.87,2.79,2,2.79s2.14-.86,2.14-2.79V233.2H333v5.11c0,2.69-1.42,3.79-3.31,3.79s-3.15-1-3.15-3.74V233.2Z"/><path class="cls-2" d="M334.91,237.63c0-.74,0-1.38-.05-2h1l0,1.23H336a1.9,1.9,0,0,1,1.75-1.37,1.51,1.51,0,0,1,.32,0v1.08a2.13,2.13,0,0,0-.39,0,1.61,1.61,0,0,0-1.53,1.47,2.92,2.92,0,0,0-.05.54V242h-1.14Z"/><path class="cls-2" d="M340.49,233.9a.71.71,0,0,1-1.42,0,.7.7,0,0,1,.72-.71A.67.67,0,0,1,340.49,233.9ZM339.22,242v-6.29h1.14V242Z"/><path class="cls-2" d="M342.26,237.37c0-.65,0-1.18-.05-1.7h1l.07,1h0a2.31,2.31,0,0,1,2.08-1.18c.87,0,2.23.52,2.23,2.67V242h-1.15v-3.63c0-1-.38-1.85-1.45-1.85a1.68,1.68,0,0,0-1.62,1.7V242h-1.14Z"/><path class="cls-2" d="M350.11,239a2,2,0,0,0,2.16,2.19,4.15,4.15,0,0,0,1.74-.33l.2.82a5.2,5.2,0,0,1-2.1.39,2.92,2.92,0,0,1-3.09-3.17c0-1.9,1.12-3.39,3-3.39,2,0,2.6,1.8,2.6,3a4.82,4.82,0,0,1,0,.53Zm3.35-.82a1.61,1.61,0,0,0-1.58-1.85,1.89,1.89,0,0,0-1.76,1.85Z"/><path class="cls-2" d="M359.91,234.16h-2.66v-1h6.48v1h-2.67V242h-1.15Z"/><path class="cls-2" d="M367.32,242l-.09-.79h0a2.34,2.34,0,0,1-1.92.93,1.79,1.79,0,0,1-1.93-1.8c0-1.52,1.36-2.36,3.79-2.34v-.13a1.3,1.3,0,0,0-1.43-1.46,3.09,3.09,0,0,0-1.64.47l-.26-.75a3.88,3.88,0,0,1,2.07-.56c1.92,0,2.39,1.31,2.39,2.57v2.35a8.69,8.69,0,0,0,.1,1.51Zm-.17-3.21c-1.24,0-2.66.2-2.66,1.42a1,1,0,0,0,1.08,1.09,1.56,1.56,0,0,0,1.52-1,1.19,1.19,0,0,0,.06-.37Z"/><path class="cls-2" d="M370.1,237.37c0-.65,0-1.18-.05-1.7h1l.06,1h0a2.31,2.31,0,0,1,2.08-1.18c.87,0,2.22.52,2.22,2.67V242h-1.14v-3.63c0-1-.38-1.85-1.46-1.85a1.62,1.62,0,0,0-1.53,1.17,1.41,1.41,0,0,0-.08.53V242H370.1Z"/><path class="cls-2" d="M378.45,238.56h0a7.36,7.36,0,0,1,.56-.72l1.84-2.17h1.38l-2.43,2.59,2.77,3.7h-1.39L379,239l-.59.65V242h-1.13v-9.23h1.13Z"/><path class="cls-2" d="M386.21,233.2h1.13V241h3.75v1h-4.88Z"/><path class="cls-2" d="M392.76,239a2,2,0,0,0,2.16,2.19,4.15,4.15,0,0,0,1.74-.33l.2.82a5.11,5.11,0,0,1-2.09.39,2.92,2.92,0,0,1-3.1-3.17c0-1.9,1.12-3.39,2.95-3.39,2.06,0,2.6,1.8,2.6,3a3.17,3.17,0,0,1,0,.53Zm3.36-.82a1.63,1.63,0,0,0-1.59-1.85,1.88,1.88,0,0,0-1.75,1.85Z"/><path class="cls-2" d="M399.08,235.67l1.24,3.54c.2.57.37,1.09.5,1.61h0c.14-.52.33-1,.54-1.61l1.22-3.54h1.19L401.34,242h-1.09l-2.39-6.29Z"/><path class="cls-2" d="M405.4,239a2,2,0,0,0,2.16,2.19,4.15,4.15,0,0,0,1.74-.33l.19.82a5.11,5.11,0,0,1-2.09.39,2.91,2.91,0,0,1-3.09-3.17c0-1.9,1.11-3.39,2.95-3.39,2.05,0,2.6,1.8,2.6,3a4.82,4.82,0,0,1,0,.53Zm3.35-.82a1.62,1.62,0,0,0-1.58-1.85,1.89,1.89,0,0,0-1.76,1.85Z"/><path class="cls-2" d="M411.27,232.73h1.15V242h-1.15Z"/><path class="cls-2" d="M777,119.47l-2.22-8.76H776l1,4.44c.26,1.09.5,2.18.65,3h0c.14-.87.42-1.91.72-3l1.17-4.42h1.18l1.06,4.45c.25,1,.48,2.08.61,3h0c.18-1,.43-1.94.7-3l1.16-4.42h1.16L783,119.47h-1.18l-1.1-4.56a25.46,25.46,0,0,1-.58-2.86h0a27.24,27.24,0,0,1-.68,2.86l-1.25,4.56Z"/><path class="cls-2" d="M789.58,119.47l-.09-.79h0a2.35,2.35,0,0,1-1.93.94,1.79,1.79,0,0,1-1.92-1.81c0-1.52,1.35-2.35,3.78-2.34v-.13a1.3,1.3,0,0,0-1.43-1.46,3.21,3.21,0,0,0-1.64.47l-.26-.75a3.91,3.91,0,0,1,2.07-.56c1.92,0,2.39,1.31,2.39,2.57V118a9.75,9.75,0,0,0,.1,1.5Zm-.16-3.21c-1.25,0-2.67.2-2.67,1.42a1,1,0,0,0,1.08,1.09,1.56,1.56,0,0,0,1.52-1,1.21,1.21,0,0,0,.07-.37Z"/><path class="cls-2" d="M792.21,118.3a3,3,0,0,0,1.51.46c.83,0,1.22-.42,1.22-.94s-.32-.84-1.17-1.15c-1.13-.41-1.66-1-1.66-1.79a1.94,1.94,0,0,1,2.17-1.84,3.15,3.15,0,0,1,1.55.39l-.29.83a2.42,2.42,0,0,0-1.29-.36c-.67,0-1,.39-1,.85s.38.76,1.2,1.07c1.09.42,1.65,1,1.65,1.9,0,1.1-.86,1.88-2.36,1.88a3.62,3.62,0,0,1-1.77-.42Z"/><path class="cls-2" d="M798.89,111.38v1.8h1.64v.87h-1.64v3.4c0,.78.22,1.22.86,1.22a2.44,2.44,0,0,0,.66-.08l.06.86a2.89,2.89,0,0,1-1,.15,1.55,1.55,0,0,1-1.23-.48,2.29,2.29,0,0,1-.44-1.64v-3.43h-1v-.87h1v-1.51Z"/><path class="cls-2" d="M802.38,116.54a2,2,0,0,0,2.16,2.18,4.2,4.2,0,0,0,1.74-.32l.19.81a4.94,4.94,0,0,1-2.09.39,2.91,2.91,0,0,1-3.09-3.17c0-1.9,1.11-3.39,3-3.39a2.67,2.67,0,0,1,2.6,3,5.05,5.05,0,0,1,0,.54Zm3.35-.82a1.63,1.63,0,0,0-1.59-1.86,1.89,1.89,0,0,0-1.75,1.86Z"/><path class="cls-2" d="M812,119.47l-2.22-8.76H811l1,4.44c.26,1.09.5,2.18.65,3h0c.14-.87.41-1.91.71-3l1.17-4.42h1.19l1.06,4.45c.25,1,.48,2.08.61,3h0c.18-1,.43-1.94.7-3l1.16-4.42h1.16L818,119.47h-1.18l-1.11-4.56a27.65,27.65,0,0,1-.57-2.86h0a27.24,27.24,0,0,1-.68,2.86l-1.25,4.56Z"/><path class="cls-2" d="M824.59,119.47l-.09-.79h0a2.32,2.32,0,0,1-1.92.94,1.79,1.79,0,0,1-1.92-1.81c0-1.52,1.35-2.35,3.78-2.34v-.13a1.3,1.3,0,0,0-1.43-1.46,3.18,3.18,0,0,0-1.64.47l-.26-.75a3.88,3.88,0,0,1,2.07-.56c1.92,0,2.39,1.31,2.39,2.57V118a9.75,9.75,0,0,0,.1,1.5Zm-.17-3.21c-1.24,0-2.66.2-2.66,1.42a1,1,0,0,0,1.08,1.09,1.56,1.56,0,0,0,1.52-1,1.19,1.19,0,0,0,.06-.37Z"/><path class="cls-2" d="M828.7,111.38v1.8h1.64v.87H828.7v3.4c0,.78.22,1.22.86,1.22a2.44,2.44,0,0,0,.66-.08l0,.86a2.82,2.82,0,0,1-1,.15,1.55,1.55,0,0,1-1.23-.48,2.28,2.28,0,0,1-.45-1.64v-3.43h-1v-.87h1v-1.51Z"/><path class="cls-2" d="M832.19,116.54a2,2,0,0,0,2.15,2.18,4.22,4.22,0,0,0,1.75-.32l.19.81a4.94,4.94,0,0,1-2.09.39,2.92,2.92,0,0,1-3.1-3.17c0-1.9,1.12-3.39,2.95-3.39,2.06,0,2.6,1.81,2.6,3,0,.24,0,.42,0,.54Zm3.35-.82a1.63,1.63,0,0,0-1.59-1.86,1.89,1.89,0,0,0-1.75,1.86Z"/><path class="cls-2" d="M838.06,115.15c0-.75,0-1.38,0-2h1l0,1.24h.05a1.89,1.89,0,0,1,1.74-1.38,1.15,1.15,0,0,1,.33,0v1.08a1.56,1.56,0,0,0-.39,0,1.61,1.61,0,0,0-1.54,1.47,3.83,3.83,0,0,0,0,.53v3.35h-1.13Z"/><path class="cls-2" d="M782.56,127.27h-2.67v-1h6.49v1H783.7v7.8h-1.14Z"/><path class="cls-2" d="M790,135.07l-.09-.79h0a2.34,2.34,0,0,1-1.93.94,1.79,1.79,0,0,1-1.92-1.81c0-1.52,1.35-2.35,3.78-2.34v-.13a1.3,1.3,0,0,0-1.43-1.46,3.17,3.17,0,0,0-1.63.47l-.26-.75a3.87,3.87,0,0,1,2.06-.56c1.93,0,2.39,1.31,2.39,2.57v2.36a8.5,8.5,0,0,0,.11,1.5Zm-.17-3.21c-1.25,0-2.67.2-2.67,1.42a1,1,0,0,0,1.08,1.09,1.56,1.56,0,0,0,1.52-1.05,1.21,1.21,0,0,0,.07-.36Z"/><path class="cls-2" d="M792.75,130.48c0-.65,0-1.18,0-1.7h1l.07,1h0a2.32,2.32,0,0,1,2.08-1.18c.87,0,2.23.52,2.23,2.68v3.75H797v-3.62c0-1-.37-1.86-1.45-1.86a1.63,1.63,0,0,0-1.54,1.17,1.69,1.69,0,0,0-.08.53v3.78h-1.14Z"/><path class="cls-2" d="M801.1,131.67h0c.16-.22.38-.5.56-.72l1.85-2.17h1.38l-2.44,2.59,2.77,3.7h-1.39l-2.17-3-.58.65v2.36H800v-9.23h1.13Z"/><path class="cls-2" d="M808.86,126.31H810v7.81h3.74v.95h-4.87Z"/><path class="cls-2" d="M815.41,132.14a2,2,0,0,0,2.16,2.18,4.17,4.17,0,0,0,1.74-.32l.19.81a4.94,4.94,0,0,1-2.09.39,2.91,2.91,0,0,1-3.09-3.17c0-1.9,1.12-3.39,2.95-3.39a2.67,2.67,0,0,1,2.6,3,5.05,5.05,0,0,1,0,.54Zm3.35-.82a1.62,1.62,0,0,0-1.58-1.86,1.89,1.89,0,0,0-1.76,1.86Z"/><path class="cls-2" d="M821.73,128.78l1.23,3.54a15.54,15.54,0,0,1,.51,1.61h0c.14-.52.32-1,.53-1.61l1.22-3.54h1.2L824,135.07H822.9l-2.4-6.29Z"/><path class="cls-2" d="M828,132.14a2,2,0,0,0,2.16,2.18A4.22,4.22,0,0,0,832,134l.19.81a4.94,4.94,0,0,1-2.09.39A2.92,2.92,0,0,1,827,132c0-1.9,1.12-3.39,2.95-3.39,2.06,0,2.6,1.81,2.6,3,0,.24,0,.42,0,.54Zm3.36-.82a1.63,1.63,0,0,0-1.59-1.86,1.89,1.89,0,0,0-1.75,1.86Z"/><path class="cls-2" d="M833.92,125.84h1.15v9.23h-1.15Z"/><path class="cls-2" d="M828.07,296.22l-2.23-8.76H827l1,4.43c.26,1.09.5,2.19.65,3h0c.14-.87.41-1.91.71-3l1.17-4.42h1.19l1.06,4.45c.25,1,.48,2.08.61,3h0c.18-1,.43-1.94.7-3l1.16-4.42h1.15l-2.48,8.76h-1.18l-1.11-4.56a28.18,28.18,0,0,1-.57-2.86h0a27,27,0,0,1-.67,2.86l-1.25,4.56Z"/><path class="cls-2" d="M840.65,296.22l-.09-.79h0a2.34,2.34,0,0,1-1.92.94,1.8,1.8,0,0,1-1.93-1.81c0-1.52,1.36-2.35,3.79-2.34v-.13a1.3,1.3,0,0,0-1.43-1.46,3.09,3.09,0,0,0-1.64.47l-.26-.75a3.88,3.88,0,0,1,2.07-.56c1.92,0,2.39,1.31,2.39,2.57v2.35a8.69,8.69,0,0,0,.1,1.51Zm-.17-3.21c-1.24,0-2.66.2-2.66,1.42a1,1,0,0,0,1.08,1.09,1.56,1.56,0,0,0,1.52-1,1.19,1.19,0,0,0,.06-.37Z"/><path class="cls-2" d="M844.76,288.12v1.81h1.64v.87h-1.64v3.39c0,.78.22,1.23.86,1.23a2.44,2.44,0,0,0,.66-.08l.05.86a2.82,2.82,0,0,1-1,.15,1.62,1.62,0,0,1-1.24-.48,2.37,2.37,0,0,1-.44-1.64V290.8h-1v-.87h1v-1.51Z"/><path class="cls-2" d="M848.24,293.28a2,2,0,0,0,2.16,2.19,4,4,0,0,0,1.74-.33l.2.82a5.11,5.11,0,0,1-2.09.39,2.92,2.92,0,0,1-3.1-3.17c0-1.9,1.12-3.39,3-3.39,2.06,0,2.6,1.8,2.6,3a3.17,3.17,0,0,1,0,.53Zm3.36-.82a1.63,1.63,0,0,0-1.59-1.85,1.89,1.89,0,0,0-1.75,1.85Z"/><path class="cls-2" d="M854.12,291.89c0-.74,0-1.37,0-2h1l0,1.24h0a1.88,1.88,0,0,1,1.74-1.38,1.15,1.15,0,0,1,.33,0v1.07a2.29,2.29,0,0,0-.39,0,1.61,1.61,0,0,0-1.54,1.46,4.15,4.15,0,0,0,0,.54v3.35h-1.13Z"/><path class="cls-2" d="M861.17,287.56a13.3,13.3,0,0,1,2.17-.16,3.57,3.57,0,0,1,2.45.72,2.38,2.38,0,0,1,.77,1.84,2.56,2.56,0,0,1-.68,1.87,4.39,4.39,0,0,1-3.58.88v3.51h-1.13Zm1.13,4.23a4,4,0,0,0,.93.09c1.37,0,2.2-.66,2.2-1.87s-.82-1.72-2.07-1.72a4.82,4.82,0,0,0-1.06.09Z"/><path class="cls-2" d="M867.83,291.89c0-.74,0-1.37-.05-2h1l0,1.24h.06a1.87,1.87,0,0,1,1.74-1.38,1,1,0,0,1,.32,0v1.07a2.21,2.21,0,0,0-.39,0,1.6,1.6,0,0,0-1.53,1.46,2.92,2.92,0,0,0,0,.54v3.35h-1.14Z"/><path class="cls-2" d="M877.65,293a3.08,3.08,0,0,1-3.13,3.35,3,3,0,0,1-3-3.24,3.07,3.07,0,0,1,3.12-3.34A3,3,0,0,1,877.65,293Zm-5,.07c0,1.38.79,2.42,1.91,2.42s1.91-1,1.91-2.45c0-1.06-.53-2.41-1.89-2.41S872.66,291.89,872.66,293.09Z"/><path class="cls-2" d="M883.58,296a4.32,4.32,0,0,1-1.81.36,3,3,0,0,1-3.13-3.21A3.19,3.19,0,0,1,882,289.8a3.92,3.92,0,0,1,1.58.32l-.26.89a2.59,2.59,0,0,0-1.32-.3,2.37,2.37,0,0,0,0,4.73,3.26,3.26,0,0,0,1.4-.31Z"/><path class="cls-2" d="M885.48,293.28a2,2,0,0,0,2.15,2.19,4,4,0,0,0,1.75-.33l.19.82a5.11,5.11,0,0,1-2.09.39,2.92,2.92,0,0,1-3.1-3.17c0-1.9,1.12-3.39,3-3.39,2.06,0,2.6,1.8,2.6,3,0,.23,0,.42,0,.53Zm3.35-.82a1.63,1.63,0,0,0-1.59-1.85,1.89,1.89,0,0,0-1.75,1.85Z"/><path class="cls-2" d="M891.2,295.05a3,3,0,0,0,1.5.46c.84,0,1.22-.42,1.22-.94s-.32-.84-1.17-1.16c-1.13-.4-1.66-1-1.66-1.78a1.94,1.94,0,0,1,2.17-1.84,3.12,3.12,0,0,1,1.55.39l-.29.83a2.38,2.38,0,0,0-1.28-.36c-.68,0-1.06.39-1.06.85s.38.76,1.2,1.07c1.09.41,1.65,1,1.65,1.9,0,1.1-.86,1.88-2.35,1.88a3.59,3.59,0,0,1-1.77-.43Z"/><path class="cls-2" d="M896.34,295.05a3,3,0,0,0,1.51.46c.83,0,1.22-.42,1.22-.94s-.32-.84-1.17-1.16c-1.13-.4-1.66-1-1.66-1.78a1.94,1.94,0,0,1,2.17-1.84,3.12,3.12,0,0,1,1.55.39l-.29.83a2.42,2.42,0,0,0-1.29-.36c-.67,0-1,.39-1,.85s.38.76,1.2,1.07c1.09.41,1.65,1,1.65,1.9,0,1.1-.86,1.88-2.35,1.88a3.59,3.59,0,0,1-1.77-.43Z"/><path class="cls-2" d="M907.34,293a3.08,3.08,0,0,1-3.13,3.35,3,3,0,0,1-3-3.24,3.07,3.07,0,0,1,3.12-3.34A3,3,0,0,1,907.34,293Zm-5,.07c0,1.38.79,2.42,1.91,2.42s1.91-1,1.91-2.45c0-1.06-.53-2.41-1.88-2.41S902.35,291.89,902.35,293.09Z"/><path class="cls-2" d="M908.78,291.89c0-.74,0-1.37,0-2h1l0,1.24h.05a1.89,1.89,0,0,1,1.75-1.38,1,1,0,0,1,.32,0v1.07a2.21,2.21,0,0,0-.39,0,1.6,1.6,0,0,0-1.53,1.46,2.92,2.92,0,0,0-.05.54v3.35h-1.14Z"/><path class="cls-2" d="M834.61,307.35c0,3-1.84,4.62-4.07,4.62s-3.94-1.8-3.94-4.45,1.73-4.6,4.07-4.6S834.61,304.75,834.61,307.35Zm-6.8.14c0,1.88,1,3.55,2.79,3.55s2.81-1.65,2.81-3.64c0-1.74-.91-3.56-2.79-3.56S827.81,305.57,827.81,307.49Z"/><path class="cls-2" d="M836,307.58c0-.8,0-1.45,0-2.05h1l0,1.08h0a2.47,2.47,0,0,1,2.24-1.22c1.52,0,2.66,1.28,2.66,3.19,0,2.27-1.38,3.39-2.86,3.39a2.23,2.23,0,0,1-1.94-1h0v3.42H836Zm1.13,1.68a2.26,2.26,0,0,0,.05.47,1.77,1.77,0,0,0,1.72,1.34c1.21,0,1.91-1,1.91-2.43,0-1.26-.67-2.34-1.87-2.34a1.83,1.83,0,0,0-1.73,1.41,1.93,1.93,0,0,0-.08.47Z"/><path class="cls-2" d="M844.07,308.88a2,2,0,0,0,2.16,2.19,4,4,0,0,0,1.74-.33l.2.82a5.2,5.2,0,0,1-2.1.39,2.92,2.92,0,0,1-3.09-3.17c0-1.9,1.12-3.39,2.95-3.39,2.05,0,2.6,1.8,2.6,3a4.82,4.82,0,0,1,0,.53Zm3.36-.82a1.63,1.63,0,0,0-1.59-1.85,1.89,1.89,0,0,0-1.76,1.85Z"/><path class="cls-2" d="M850,307.49c0-.74,0-1.37-.06-2h1l0,1.24H851a1.87,1.87,0,0,1,1.74-1.38,1,1,0,0,1,.32,0v1.07a2.13,2.13,0,0,0-.39,0,1.61,1.61,0,0,0-1.53,1.47,2.73,2.73,0,0,0,0,.53v3.35H850Z"/><path class="cls-2" d="M857.62,311.82l-.09-.79h0a2.36,2.36,0,0,1-1.93.94,1.79,1.79,0,0,1-1.92-1.81c0-1.52,1.35-2.35,3.78-2.34v-.13a1.3,1.3,0,0,0-1.43-1.46,3.14,3.14,0,0,0-1.64.47l-.26-.75a3.91,3.91,0,0,1,2.07-.56c1.92,0,2.39,1.31,2.39,2.57v2.35a8.62,8.62,0,0,0,.11,1.51Zm-.17-3.21c-1.25,0-2.67.2-2.67,1.42a1,1,0,0,0,1.08,1.09,1.56,1.56,0,0,0,1.52-1.05,1.21,1.21,0,0,0,.07-.37Z"/><path class="cls-2" d="M861.73,303.72v1.81h1.63v.87h-1.63v3.39c0,.78.22,1.23.85,1.23a2.58,2.58,0,0,0,.67-.08l0,.86a2.85,2.85,0,0,1-1,.15,1.58,1.58,0,0,1-1.23-.48,2.32,2.32,0,0,1-.44-1.64V306.4h-1v-.87h1V304Z"/><path class="cls-2" d="M865.92,303.76a.67.67,0,0,1-.72.7.68.68,0,0,1-.69-.7.69.69,0,0,1,.71-.71A.67.67,0,0,1,865.92,303.76Zm-1.27,8.06v-6.29h1.14v6.29Z"/><path class="cls-2" d="M867.69,307.23c0-.65,0-1.18-.05-1.7h1l.07,1h0a2.31,2.31,0,0,1,2.08-1.18c.87,0,2.22.52,2.22,2.67v3.76H871.9V308.2c0-1-.37-1.86-1.45-1.86a1.63,1.63,0,0,0-1.54,1.17,1.66,1.66,0,0,0-.07.53v3.78h-1.15Z"/><path class="cls-2" d="M880.33,305.53c0,.45-.05,1-.05,1.73v3.65a3.63,3.63,0,0,1-.9,2.88,3.35,3.35,0,0,1-2.29.75A4,4,0,0,1,875,314l.28-.87a3.58,3.58,0,0,0,1.85.49c1.17,0,2-.61,2-2.19v-.71h0a2.24,2.24,0,0,1-2,1.06,2.82,2.82,0,0,1-2.68-3.07c0-2.13,1.39-3.34,2.84-3.34a2.09,2.09,0,0,1,2,1.09h0l.05-1ZM879.14,308a1.73,1.73,0,0,0-.06-.52,1.66,1.66,0,0,0-1.6-1.21c-1.09,0-1.87.93-1.87,2.38,0,1.24.62,2.27,1.86,2.27a1.67,1.67,0,0,0,1.58-1.17,1.9,1.9,0,0,0,.09-.62Z"/><path class="cls-2" d="M884.81,310.44a4,4,0,0,0,2,.58c1.16,0,1.83-.61,1.83-1.5s-.46-1.29-1.65-1.74c-1.43-.51-2.31-1.25-2.31-2.48s1.13-2.38,2.83-2.38a3.88,3.88,0,0,1,1.94.43l-.31.92a3.45,3.45,0,0,0-1.67-.42c-1.19,0-1.65.72-1.65,1.32,0,.81.54,1.22,1.74,1.69,1.49.57,2.24,1.28,2.24,2.57s-1,2.52-3.07,2.52a4.44,4.44,0,0,1-2.23-.56Z"/><path class="cls-2" d="M892.68,303.72v1.81h1.64v.87h-1.64v3.39c0,.78.22,1.23.86,1.23a2.49,2.49,0,0,0,.66-.08l0,.86a2.82,2.82,0,0,1-1,.15,1.6,1.6,0,0,1-1.24-.48,2.37,2.37,0,0,1-.44-1.64V306.4h-1v-.87h1V304Z"/><path class="cls-2" d="M899.09,311.82,899,311h0A2.36,2.36,0,0,1,897,312a1.79,1.79,0,0,1-1.92-1.81c0-1.52,1.35-2.35,3.78-2.34v-.13a1.3,1.3,0,0,0-1.43-1.46,3.14,3.14,0,0,0-1.64.47l-.26-.75a3.91,3.91,0,0,1,2.07-.56c1.92,0,2.39,1.31,2.39,2.57v2.35a8.62,8.62,0,0,0,.11,1.51Zm-.17-3.21c-1.25,0-2.67.2-2.67,1.42a1,1,0,0,0,1.08,1.09,1.56,1.56,0,0,0,1.52-1.05,1.21,1.21,0,0,0,.07-.37Z"/><path class="cls-2" d="M903.2,303.72v1.81h1.63v.87H903.2v3.39c0,.78.22,1.23.85,1.23a2.58,2.58,0,0,0,.67-.08l0,.86a2.85,2.85,0,0,1-1,.15,1.58,1.58,0,0,1-1.23-.48,2.32,2.32,0,0,1-.44-1.64V306.4h-1v-.87h1V304Z"/><path class="cls-2" d="M906.68,308.88a2,2,0,0,0,2.16,2.19,4,4,0,0,0,1.74-.33l.19.82a5.11,5.11,0,0,1-2.09.39,2.91,2.91,0,0,1-3.09-3.17c0-1.9,1.12-3.39,2.95-3.39,2.05,0,2.6,1.8,2.6,3a4.82,4.82,0,0,1,0,.53Zm3.35-.82a1.62,1.62,0,0,0-1.58-1.85,1.89,1.89,0,0,0-1.76,1.85Z"/><path class="cls-2" d="M241.11,526.44c0,3-1.84,4.61-4.07,4.61s-3.94-1.79-3.94-4.45,1.73-4.6,4.07-4.6S241.11,523.83,241.11,526.44Zm-6.8.14c0,1.87,1,3.55,2.79,3.55s2.81-1.65,2.81-3.64c0-1.74-.91-3.57-2.79-3.57S234.31,524.65,234.31,526.58Z"/><path class="cls-2" d="M243,524.62l.89,1.35c.24.35.43.67.64,1h0c.21-.37.42-.7.62-1l.89-1.33h1.23l-2.14,3,2.21,3.25h-1.3l-.93-1.42c-.24-.36-.45-.71-.67-1.09h0c-.21.38-.43.71-.66,1.09l-.91,1.42h-1.26l2.23-3.21-2.13-3.08Z"/><path class="cls-2" d="M249.1,524.62l1.38,3.71c.14.42.3.91.4,1.29h0c.12-.38.25-.86.4-1.31l1.25-3.69h1.21l-1.72,4.48c-.82,2.16-1.37,3.26-2.15,3.94a3.11,3.11,0,0,1-1.41.74l-.28-1a3,3,0,0,0,1-.56,3.54,3.54,0,0,0,1-1.27.88.88,0,0,0,.09-.28,1.21,1.21,0,0,0-.08-.3l-2.33-5.79Z"/><path class="cls-2" d="M260.1,524.62c0,.45-.05,1-.05,1.72V530a3.62,3.62,0,0,1-.9,2.87,3.33,3.33,0,0,1-2.29.75,4,4,0,0,1-2.09-.52l.29-.87a3.51,3.51,0,0,0,1.84.5c1.17,0,2-.61,2-2.2v-.7h0a2.27,2.27,0,0,1-2,1,2.8,2.8,0,0,1-2.67-3.07c0-2.13,1.39-3.34,2.83-3.34a2.09,2.09,0,0,1,2,1.09h0l.05-.94Zm-1.18,2.48a1.4,1.4,0,0,0-.07-.52,1.64,1.64,0,0,0-1.6-1.21c-1.09,0-1.87.92-1.87,2.38,0,1.23.63,2.26,1.86,2.26a1.68,1.68,0,0,0,1.59-1.17,2.15,2.15,0,0,0,.09-.61Z"/><path class="cls-2" d="M262.58,528a2,2,0,0,0,2.16,2.18,4.13,4.13,0,0,0,1.74-.32l.2.82a5.11,5.11,0,0,1-2.09.39,2.93,2.93,0,0,1-3.1-3.17c0-1.9,1.12-3.4,2.95-3.4,2.06,0,2.6,1.81,2.6,3a3.26,3.26,0,0,1,0,.53Zm3.36-.82a1.63,1.63,0,0,0-1.59-1.86,1.9,1.9,0,0,0-1.75,1.86Z"/><path class="cls-2" d="M268.46,526.32c0-.65,0-1.19,0-1.7h1l.07,1h0a2.31,2.31,0,0,1,2.08-1.19c.87,0,2.23.52,2.23,2.68v3.76h-1.15v-3.63c0-1-.38-1.86-1.45-1.86a1.63,1.63,0,0,0-1.54,1.17,1.69,1.69,0,0,0-.08.53v3.79h-1.14Z"/><path class="cls-2" d="M285.14,530.52a8.25,8.25,0,0,1-2.69.48,4.12,4.12,0,0,1-4.5-4.42,4.39,4.39,0,0,1,4.74-4.53,5.45,5.45,0,0,1,2.19.41l-.27.92a4.54,4.54,0,0,0-1.94-.38,3.28,3.28,0,0,0-3.52,3.53,3.2,3.2,0,0,0,3.38,3.53,3.66,3.66,0,0,0,1.5-.23v-2.62h-1.78v-.9h2.89Z"/><path class="cls-2" d="M287.53,528a2,2,0,0,0,2.16,2.18,4.17,4.17,0,0,0,1.74-.32l.2.82a5.2,5.2,0,0,1-2.1.39,2.92,2.92,0,0,1-3.09-3.17c0-1.9,1.12-3.4,2.95-3.4,2.05,0,2.6,1.81,2.6,3a5,5,0,0,1,0,.53Zm3.35-.82a1.62,1.62,0,0,0-1.58-1.86,1.9,1.9,0,0,0-1.76,1.86Z"/><path class="cls-2" d="M293.41,526.32c0-.65,0-1.19-.06-1.7h1l.06,1h0a2.31,2.31,0,0,1,2.08-1.19c.87,0,2.22.52,2.22,2.68v3.76h-1.14v-3.63c0-1-.38-1.86-1.46-1.86a1.62,1.62,0,0,0-1.53,1.17,1.69,1.69,0,0,0-.08.53v3.79h-1.14Z"/><path class="cls-2" d="M301.26,528a2,2,0,0,0,2.16,2.18,4.2,4.2,0,0,0,1.74-.32l.19.82a5.11,5.11,0,0,1-2.09.39,2.92,2.92,0,0,1-3.09-3.17c0-1.9,1.11-3.4,2.95-3.4,2.05,0,2.6,1.81,2.6,3a5,5,0,0,1,0,.53Zm3.35-.82a1.63,1.63,0,0,0-1.58-1.86,1.9,1.9,0,0,0-1.76,1.86Z"/><path class="cls-2" d="M307.13,526.58c0-.74,0-1.38-.05-2h1l0,1.23h.05a1.89,1.89,0,0,1,1.75-1.38,1.47,1.47,0,0,1,.32,0v1.08a1.51,1.51,0,0,0-.39,0,1.59,1.59,0,0,0-1.53,1.47,2.86,2.86,0,0,0-.06.53v3.36h-1.13Z"/><path class="cls-2" d="M314.8,530.91l-.09-.8h0a2.32,2.32,0,0,1-1.92.94,1.79,1.79,0,0,1-1.92-1.81c0-1.52,1.35-2.35,3.78-2.34v-.13a1.29,1.29,0,0,0-1.43-1.45,3.09,3.09,0,0,0-1.64.47l-.26-.76a3.88,3.88,0,0,1,2.07-.56c1.92,0,2.39,1.32,2.39,2.58v2.35a9.8,9.8,0,0,0,.1,1.51Zm-.17-3.21c-1.24,0-2.66.19-2.66,1.41a1,1,0,0,0,1.08,1.1,1.56,1.56,0,0,0,1.52-1.06,1.09,1.09,0,0,0,.06-.36Z"/><path class="cls-2" d="M318.91,522.81v1.81h1.64v.87h-1.64v3.39c0,.78.22,1.22.86,1.22a2.44,2.44,0,0,0,.66-.08l.05.86a2.79,2.79,0,0,1-1,.16,1.58,1.58,0,0,1-1.23-.48,2.32,2.32,0,0,1-.45-1.64v-3.43h-1v-.87h1v-1.51Z"/><path class="cls-2" d="M327.45,527.71a3.07,3.07,0,0,1-3.13,3.34,3,3,0,0,1-3-3.24,3.08,3.08,0,0,1,3.12-3.34A3,3,0,0,1,327.45,527.71Zm-5,.06c0,1.38.79,2.42,1.91,2.42s1.91-1,1.91-2.44c0-1.07-.53-2.42-1.88-2.42S322.46,526.58,322.46,527.77Z"/><path class="cls-2" d="M328.9,526.58c0-.74,0-1.38-.06-2h1l0,1.23h.06a1.87,1.87,0,0,1,1.74-1.38,1.47,1.47,0,0,1,.32,0v1.08a1.46,1.46,0,0,0-.39,0,1.6,1.6,0,0,0-1.53,1.47,2.89,2.89,0,0,0-.05.53v3.36H328.9Z"/><path class="cls-2" d="M343.43,526.44c0,3-1.83,4.61-4.07,4.61s-3.94-1.79-3.94-4.45,1.73-4.6,4.07-4.6S343.43,523.83,343.43,526.44Zm-6.8.14c0,1.87,1,3.55,2.8,3.55s2.8-1.65,2.8-3.64c0-1.74-.91-3.57-2.79-3.57S336.63,524.65,336.63,526.58Z"/><path class="cls-2" d="M344.86,526.67c0-.81,0-1.46-.05-2h1l.06,1.07h0a2.49,2.49,0,0,1,2.24-1.22c1.52,0,2.66,1.29,2.66,3.2,0,2.26-1.37,3.38-2.86,3.38a2.18,2.18,0,0,1-1.93-1h0v3.42h-1.13Zm1.13,1.68a3.08,3.08,0,0,0,.05.46,1.76,1.76,0,0,0,1.72,1.34c1.21,0,1.91-1,1.91-2.43,0-1.26-.66-2.34-1.87-2.34a1.83,1.83,0,0,0-1.73,1.42,1.78,1.78,0,0,0-.08.47Z"/><path class="cls-2" d="M352.89,528a2,2,0,0,0,2.16,2.18,4.17,4.17,0,0,0,1.74-.32l.2.82a5.11,5.11,0,0,1-2.09.39,2.93,2.93,0,0,1-3.1-3.17c0-1.9,1.12-3.4,2.95-3.4,2.06,0,2.6,1.81,2.6,3a3.26,3.26,0,0,1,0,.53Zm3.36-.82a1.63,1.63,0,0,0-1.59-1.86,1.89,1.89,0,0,0-1.75,1.86Z"/><path class="cls-2" d="M358.77,526.58c0-.74,0-1.38,0-2h1l0,1.23h.05a1.87,1.87,0,0,1,1.74-1.38,1.66,1.66,0,0,1,.33,0v1.08a1.56,1.56,0,0,0-.39,0A1.61,1.61,0,0,0,360,527a4.15,4.15,0,0,0-.05.53v3.36h-1.13Z"/><path class="cls-2" d="M366.44,530.91l-.09-.8h0a2.34,2.34,0,0,1-1.93.94,1.79,1.79,0,0,1-1.92-1.81c0-1.52,1.35-2.35,3.78-2.34v-.13a1.29,1.29,0,0,0-1.43-1.45,3.08,3.08,0,0,0-1.63.47l-.26-.76a3.87,3.87,0,0,1,2.06-.56c1.93,0,2.4,1.32,2.4,2.58v2.35a8.69,8.69,0,0,0,.1,1.51Zm-.17-3.21c-1.25,0-2.67.19-2.67,1.41a1,1,0,0,0,1.08,1.1,1.58,1.58,0,0,0,1.53-1.06,1.43,1.43,0,0,0,.06-.36Z"/><path class="cls-2" d="M370.55,522.81v1.81h1.64v.87h-1.64v3.39c0,.78.22,1.22.86,1.22a2.49,2.49,0,0,0,.66-.08l.05.86a2.79,2.79,0,0,1-1,.16,1.59,1.59,0,0,1-1.24-.48,2.37,2.37,0,0,1-.44-1.64v-3.43h-1v-.87h1v-1.51Z"/><path class="cls-2" d="M374.75,522.85a.71.71,0,0,1-1.42,0,.7.7,0,0,1,.71-.72A.69.69,0,0,1,374.75,522.85Zm-1.28,8.06v-6.29h1.15v6.29Z"/><path class="cls-2" d="M376.51,526.32c0-.65,0-1.19-.05-1.7h1l.06,1h0a2.31,2.31,0,0,1,2.08-1.19c.87,0,2.22.52,2.22,2.68v3.76h-1.14v-3.63c0-1-.38-1.86-1.46-1.86a1.62,1.62,0,0,0-1.53,1.17,1.44,1.44,0,0,0-.08.53v3.79h-1.15Z"/><path class="cls-2" d="M389.15,524.62c0,.45,0,1,0,1.72V530a3.62,3.62,0,0,1-.9,2.87,3.33,3.33,0,0,1-2.29.75,4,4,0,0,1-2.09-.52l.29-.87a3.51,3.51,0,0,0,1.84.5c1.17,0,2-.61,2-2.2v-.7h0a2.24,2.24,0,0,1-2,1,2.81,2.81,0,0,1-2.68-3.07c0-2.13,1.4-3.34,2.84-3.34a2.09,2.09,0,0,1,2,1.09h0l0-.94ZM388,527.1a1.64,1.64,0,0,0-.07-.52,1.66,1.66,0,0,0-1.6-1.21c-1.09,0-1.87.92-1.87,2.38,0,1.23.62,2.26,1.86,2.26a1.68,1.68,0,0,0,1.59-1.17,2.15,2.15,0,0,0,.09-.61Z"/><path class="cls-2" d="M393.63,529.53a4,4,0,0,0,2,.57c1.16,0,1.84-.61,1.84-1.49s-.47-1.29-1.66-1.75c-1.43-.5-2.31-1.24-2.31-2.48s1.13-2.38,2.83-2.38a4,4,0,0,1,1.94.43l-.31.92a3.58,3.58,0,0,0-1.66-.41c-1.2,0-1.66.71-1.66,1.31,0,.82.54,1.22,1.75,1.69,1.48.57,2.23,1.29,2.23,2.58s-1,2.52-3.07,2.52a4.55,4.55,0,0,1-2.23-.56Z"/><path class="cls-2" d="M401.5,522.81v1.81h1.64v.87H401.5v3.39c0,.78.22,1.22.86,1.22A2.44,2.44,0,0,0,403,530l.05.86a2.79,2.79,0,0,1-1,.16,1.62,1.62,0,0,1-1.24-.48,2.37,2.37,0,0,1-.44-1.64v-3.43h-1v-.87h1v-1.51Z"/><path class="cls-2" d="M407.91,530.91l-.09-.8h0a2.34,2.34,0,0,1-1.93.94,1.79,1.79,0,0,1-1.92-1.81c0-1.52,1.35-2.35,3.78-2.34v-.13a1.29,1.29,0,0,0-1.43-1.45,3.08,3.08,0,0,0-1.63.47l-.26-.76a3.87,3.87,0,0,1,2.06-.56c1.93,0,2.39,1.32,2.39,2.58v2.35a8.62,8.62,0,0,0,.11,1.51Zm-.17-3.21c-1.25,0-2.67.19-2.67,1.41a1,1,0,0,0,1.08,1.1,1.56,1.56,0,0,0,1.52-1.06,1.1,1.1,0,0,0,.07-.36Z"/><path class="cls-2" d="M412,522.81v1.81h1.64v.87H412v3.39c0,.78.22,1.22.86,1.22a2.49,2.49,0,0,0,.66-.08l0,.86a2.79,2.79,0,0,1-1,.16,1.59,1.59,0,0,1-1.24-.48,2.37,2.37,0,0,1-.44-1.64v-3.43h-1v-.87h1v-1.51Z"/><path class="cls-2" d="M415.5,528a2,2,0,0,0,2.16,2.18,4.17,4.17,0,0,0,1.74-.32l.2.82a5.2,5.2,0,0,1-2.1.39,2.92,2.92,0,0,1-3.09-3.17c0-1.9,1.12-3.4,2.95-3.4,2.05,0,2.6,1.81,2.6,3a5,5,0,0,1,0,.53Zm3.35-.82a1.62,1.62,0,0,0-1.58-1.86,1.9,1.9,0,0,0-1.76,1.86Z"/><path class="cls-2" d="M283.62,581.2c0,3-1.83,4.61-4.06,4.61s-3.94-1.79-3.94-4.44,1.73-4.6,4.07-4.6S283.62,578.6,283.62,581.2Zm-6.79.14c0,1.87,1,3.55,2.79,3.55s2.81-1.65,2.81-3.64c0-1.74-.91-3.56-2.8-3.56S276.83,579.42,276.83,581.34Z"/><path class="cls-2" d="M284.26,587.1l.82-.77c1.08-1,1.64-1.58,1.64-2.24a.88.88,0,0,0-1-.91,2,2,0,0,0-1.09.4l-.28-.59a2.55,2.55,0,0,1,1.59-.54,1.52,1.52,0,0,1,1.73,1.47c0,1-.74,1.69-1.73,2.56l-.4.36v0h2.22v.71h-3.51Z"/><path class="cls-2" d="M291.89,577a13.23,13.23,0,0,1,2.17-.17,3.59,3.59,0,0,1,2.46.73,2.37,2.37,0,0,1,.77,1.84,2.6,2.6,0,0,1-.68,1.87,4.42,4.42,0,0,1-3.59.88v3.51h-1.13Zm1.13,4.23a4.1,4.1,0,0,0,.94.09c1.36,0,2.2-.66,2.2-1.87s-.82-1.72-2.07-1.72a4.92,4.92,0,0,0-1.07.09Z"/><path class="cls-2" d="M298.56,581.34c0-.74,0-1.38-.05-2h1l0,1.23h.05a1.89,1.89,0,0,1,1.74-1.37,1.15,1.15,0,0,1,.33,0v1.07a2.29,2.29,0,0,0-.39,0,1.61,1.61,0,0,0-1.54,1.46,4.15,4.15,0,0,0-.05.54v3.35h-1.13Z"/><path class="cls-2" d="M308.38,582.47a3.08,3.08,0,0,1-3.14,3.34,3,3,0,0,1-3-3.23,3.07,3.07,0,0,1,3.12-3.34A3,3,0,0,1,308.38,582.47Zm-5,.07c0,1.38.8,2.42,1.91,2.42s1.92-1,1.92-2.45c0-1.06-.54-2.42-1.89-2.42S303.38,581.34,303.38,582.54Z"/><path class="cls-2" d="M315.25,576.44v7.61c0,.56,0,1.19.05,1.62h-1l0-1.09h0a2.33,2.33,0,0,1-2.15,1.23c-1.52,0-2.69-1.28-2.69-3.19,0-2.1,1.29-3.38,2.82-3.38a2.08,2.08,0,0,1,1.9,1h0v-3.76Zm-1.14,5.5a2,2,0,0,0-.05-.48,1.69,1.69,0,0,0-1.65-1.33c-1.19,0-1.89,1-1.89,2.43s.62,2.33,1.86,2.33a1.73,1.73,0,0,0,1.68-1.36,2,2,0,0,0,.05-.5Z"/><path class="cls-2" d="M322.42,584c0,.65,0,1.22.05,1.71h-1l-.06-1h0a2.36,2.36,0,0,1-2.08,1.17c-1,0-2.17-.54-2.17-2.75v-3.68h1.15v3.48c0,1.2.36,2,1.4,2a1.67,1.67,0,0,0,1.51-1,1.82,1.82,0,0,0,.1-.59v-3.86h1.15Z"/><path class="cls-2" d="M328.8,585.44a4.32,4.32,0,0,1-1.81.36,3,3,0,0,1-3.13-3.21,3.2,3.2,0,0,1,3.38-3.34,3.88,3.88,0,0,1,1.58.32l-.26.89a2.59,2.59,0,0,0-1.32-.3,2.18,2.18,0,0,0-2.22,2.38,2.15,2.15,0,0,0,2.18,2.35,3.26,3.26,0,0,0,1.4-.31Z"/><path class="cls-2" d="M331.69,577.57v1.81h1.63v.87h-1.63v3.39c0,.78.22,1.23.85,1.23a2.58,2.58,0,0,0,.67-.08l.05.86a2.85,2.85,0,0,1-1,.15,1.58,1.58,0,0,1-1.23-.48,2.32,2.32,0,0,1-.44-1.64v-3.43h-1v-.87h1v-1.51Z"/><path class="cls-2" d="M335.88,577.61a.67.67,0,0,1-.72.7.68.68,0,0,1-.69-.7.69.69,0,0,1,.71-.71A.67.67,0,0,1,335.88,577.61Zm-1.27,8.06v-6.29h1.14v6.29Z"/><path class="cls-2" d="M343.35,582.47a3.08,3.08,0,0,1-3.14,3.34,3,3,0,0,1-3-3.23,3.07,3.07,0,0,1,3.12-3.34A3,3,0,0,1,343.35,582.47Zm-5,.07c0,1.38.8,2.42,1.91,2.42s1.92-1,1.92-2.45c0-1.06-.54-2.42-1.89-2.42S338.35,581.34,338.35,582.54Z"/><path class="cls-2" d="M344.79,581.08c0-.65,0-1.18-.05-1.7h1l.07,1h0a2.31,2.31,0,0,1,2.08-1.18c.87,0,2.22.52,2.22,2.67v3.76H349V582c0-1-.38-1.85-1.46-1.85a1.63,1.63,0,0,0-1.53,1.17,1.64,1.64,0,0,0-.08.53v3.78h-1.14Z"/><path class="cls-2" d="M354.8,577a11.45,11.45,0,0,1,2.17-.19,3.58,3.58,0,0,1,2.53.72,2.16,2.16,0,0,1,.69,1.66,2.29,2.29,0,0,1-1.65,2.24v0a2.18,2.18,0,0,1,1.29,1.77,13.47,13.47,0,0,0,.68,2.4h-1.17a11,11,0,0,1-.59-2.09c-.26-1.21-.73-1.67-1.75-1.7h-1.07v3.79H354.8Zm1.13,4h1.16c1.21,0,2-.67,2-1.67s-.82-1.62-2-1.63a4.81,4.81,0,0,0-1.12.1Z"/><path class="cls-2" d="M365.39,585.67l-.09-.79h0a2.34,2.34,0,0,1-1.92.93,1.78,1.78,0,0,1-1.92-1.8c0-1.52,1.35-2.36,3.78-2.34v-.13a1.3,1.3,0,0,0-1.43-1.46,3.09,3.09,0,0,0-1.64.47l-.26-.75a3.88,3.88,0,0,1,2.07-.56c1.92,0,2.39,1.31,2.39,2.57v2.35a8.69,8.69,0,0,0,.1,1.51Zm-.17-3.21c-1.24,0-2.66.2-2.66,1.42a1,1,0,0,0,1.08,1.09,1.56,1.56,0,0,0,1.52-1.05,1.19,1.19,0,0,0,.06-.37Z"/><path class="cls-2" d="M369.5,577.57v1.81h1.64v.87H369.5v3.39c0,.78.22,1.23.86,1.23a2.44,2.44,0,0,0,.66-.08l.05.86a2.82,2.82,0,0,1-1,.15,1.58,1.58,0,0,1-1.23-.48,2.32,2.32,0,0,1-.45-1.64v-3.43h-1v-.87h1v-1.51Z"/><path class="cls-2" d="M373,582.73a2,2,0,0,0,2.16,2.19,4.2,4.2,0,0,0,1.75-.33l.19.82a5.11,5.11,0,0,1-2.09.39,2.92,2.92,0,0,1-3.1-3.17c0-1.9,1.12-3.39,2.95-3.39,2.06,0,2.6,1.8,2.6,3,0,.23,0,.42,0,.53Zm3.36-.82a1.63,1.63,0,0,0-1.59-1.85,1.89,1.89,0,0,0-1.75,1.85Z"/><path class="cls-2" d="M828.07,382.73,825.84,374H827l1,4.44c.26,1.09.5,2.18.65,3h0c.14-.87.41-1.91.71-3l1.17-4.42h1.19l1.06,4.45c.25,1,.48,2.08.61,3h0c.18-1,.43-1.94.7-3l1.16-4.42h1.15l-2.48,8.76h-1.18l-1.11-4.56a27.65,27.65,0,0,1-.57-2.86h0a27,27,0,0,1-.67,2.86l-1.25,4.56Z"/><path class="cls-2" d="M840.65,382.73l-.09-.79h0a2.32,2.32,0,0,1-1.92.94,1.8,1.8,0,0,1-1.93-1.81c0-1.52,1.36-2.35,3.79-2.34v-.13a1.3,1.3,0,0,0-1.43-1.46,3.18,3.18,0,0,0-1.64.47l-.26-.75a3.88,3.88,0,0,1,2.07-.56c1.92,0,2.39,1.31,2.39,2.57v2.36a8.57,8.57,0,0,0,.1,1.5Zm-.17-3.21c-1.24,0-2.66.2-2.66,1.42A1,1,0,0,0,838.9,382a1.56,1.56,0,0,0,1.52-1,1.18,1.18,0,0,0,.06-.36Z"/><path class="cls-2" d="M844.76,374.64v1.8h1.64v.87h-1.64v3.4c0,.78.22,1.22.86,1.22a2.44,2.44,0,0,0,.66-.08l.05.86a2.82,2.82,0,0,1-1,.15,1.58,1.58,0,0,1-1.24-.48,2.32,2.32,0,0,1-.44-1.63v-3.44h-1v-.87h1v-1.51Z"/><path class="cls-2" d="M848.24,379.8A2,2,0,0,0,850.4,382a4.17,4.17,0,0,0,1.74-.32l.2.81a4.94,4.94,0,0,1-2.09.39,2.92,2.92,0,0,1-3.1-3.17c0-1.9,1.12-3.39,3-3.39,2.06,0,2.6,1.81,2.6,3a3.31,3.31,0,0,1,0,.54Zm3.36-.82a1.63,1.63,0,0,0-1.59-1.86,1.89,1.89,0,0,0-1.75,1.86Z"/><path class="cls-2" d="M854.12,378.41c0-.75,0-1.38,0-2h1l0,1.24h0a1.88,1.88,0,0,1,1.74-1.38,1.15,1.15,0,0,1,.33,0v1.08a1.56,1.56,0,0,0-.39,0,1.61,1.61,0,0,0-1.54,1.47,4,4,0,0,0,0,.53v3.35h-1.13Z"/><path class="cls-2" d="M861.17,374.08a13.13,13.13,0,0,1,2.17-.17,3.57,3.57,0,0,1,2.45.73,2.35,2.35,0,0,1,.77,1.83,2.54,2.54,0,0,1-.68,1.87,4.39,4.39,0,0,1-3.58.88v3.51h-1.13Zm1.13,4.22a3.52,3.52,0,0,0,.93.09c1.37,0,2.2-.66,2.2-1.87s-.82-1.72-2.07-1.72a4.13,4.13,0,0,0-1.06.1Z"/><path class="cls-2" d="M867.83,378.41c0-.75,0-1.38-.05-2h1l0,1.24h.06a1.87,1.87,0,0,1,1.74-1.38,1,1,0,0,1,.32,0v1.08a1.51,1.51,0,0,0-.39,0,1.6,1.6,0,0,0-1.53,1.47,2.81,2.81,0,0,0,0,.53v3.35h-1.14Z"/><path class="cls-2" d="M877.65,379.54a3.08,3.08,0,0,1-3.13,3.34,3,3,0,0,1-3-3.24,3.07,3.07,0,0,1,3.12-3.34A3,3,0,0,1,877.65,379.54Zm-5,.06c0,1.38.79,2.42,1.91,2.42s1.91-1,1.91-2.44c0-1.07-.53-2.42-1.89-2.42S872.66,378.41,872.66,379.6Z"/><path class="cls-2" d="M883.58,382.5a4.17,4.17,0,0,1-1.81.36,3,3,0,0,1-3.13-3.21,3.2,3.2,0,0,1,3.38-3.34,3.73,3.73,0,0,1,1.58.33l-.26.88a2.69,2.69,0,0,0-1.32-.3,2.18,2.18,0,0,0-2.23,2.38A2.16,2.16,0,0,0,882,382a3.12,3.12,0,0,0,1.4-.31Z"/><path class="cls-2" d="M885.48,379.8a2,2,0,0,0,2.15,2.18,4.22,4.22,0,0,0,1.75-.32l.19.81a4.94,4.94,0,0,1-2.09.39,2.92,2.92,0,0,1-3.1-3.17c0-1.9,1.12-3.39,3-3.39,2.06,0,2.6,1.81,2.6,3,0,.24,0,.42,0,.54Zm3.35-.82a1.63,1.63,0,0,0-1.59-1.86,1.89,1.89,0,0,0-1.75,1.86Z"/><path class="cls-2" d="M891.2,381.56a2.87,2.87,0,0,0,1.5.46c.84,0,1.22-.42,1.22-.94s-.32-.84-1.17-1.15c-1.13-.41-1.66-1-1.66-1.78a1.94,1.94,0,0,1,2.17-1.85,3.12,3.12,0,0,1,1.55.39l-.29.83a2.47,2.47,0,0,0-1.28-.36c-.68,0-1.06.39-1.06.86s.38.75,1.2,1.06c1.09.42,1.65,1,1.65,1.9,0,1.1-.86,1.88-2.35,1.88a3.59,3.59,0,0,1-1.77-.42Z"/><path class="cls-2" d="M896.34,381.56a2.93,2.93,0,0,0,1.51.46c.83,0,1.22-.42,1.22-.94s-.32-.84-1.17-1.15c-1.13-.41-1.66-1-1.66-1.78a1.94,1.94,0,0,1,2.17-1.85,3.12,3.12,0,0,1,1.55.39l-.29.83a2.52,2.52,0,0,0-1.29-.36c-.67,0-1,.39-1,.86s.38.75,1.2,1.06c1.09.42,1.65,1,1.65,1.9,0,1.1-.86,1.88-2.35,1.88a3.59,3.59,0,0,1-1.77-.42Z"/><path class="cls-2" d="M907.34,379.54a3.08,3.08,0,0,1-3.13,3.34,3,3,0,0,1-3-3.24,3.07,3.07,0,0,1,3.12-3.34A3,3,0,0,1,907.34,379.54Zm-5,.06c0,1.38.79,2.42,1.91,2.42s1.91-1,1.91-2.44c0-1.07-.53-2.42-1.88-2.42S902.35,378.41,902.35,379.6Z"/><path class="cls-2" d="M908.78,378.41c0-.75,0-1.38,0-2h1l0,1.24h.05a1.89,1.89,0,0,1,1.75-1.38,1,1,0,0,1,.32,0v1.08a1.51,1.51,0,0,0-.39,0,1.6,1.6,0,0,0-1.53,1.47,2.81,2.81,0,0,0-.05.53v3.35h-1.14Z"/><path class="cls-2" d="M836.17,393.86c0,3-1.84,4.62-4.07,4.62s-3.94-1.8-3.94-4.45,1.73-4.6,4.07-4.6S836.17,391.26,836.17,393.86Zm-6.8.15c0,1.87,1,3.54,2.79,3.54s2.81-1.65,2.81-3.64c0-1.74-.91-3.56-2.79-3.56S829.37,392.08,829.37,394Z"/><path class="cls-2" d="M837.6,394.1c0-.81,0-1.46-.06-2.06h1l0,1.08h0a2.47,2.47,0,0,1,2.24-1.22c1.52,0,2.66,1.29,2.66,3.2,0,2.26-1.38,3.38-2.86,3.38a2.23,2.23,0,0,1-1.94-1h0v3.42H837.6Zm1.13,1.67a2.26,2.26,0,0,0,0,.47,1.77,1.77,0,0,0,1.72,1.34c1.21,0,1.91-1,1.91-2.43,0-1.26-.67-2.34-1.87-2.34a1.82,1.82,0,0,0-1.73,1.42,1.77,1.77,0,0,0-.08.46Z"/><path class="cls-2" d="M845.63,395.4a2,2,0,0,0,2.16,2.18,4.17,4.17,0,0,0,1.74-.32l.2.81a5,5,0,0,1-2.1.39,2.92,2.92,0,0,1-3.09-3.17c0-1.9,1.12-3.39,3-3.39a2.67,2.67,0,0,1,2.6,3,5.05,5.05,0,0,1,0,.54Zm3.36-.82a1.63,1.63,0,0,0-1.59-1.86,1.9,1.9,0,0,0-1.76,1.86Z"/><path class="cls-2" d="M851.51,394c0-.75,0-1.38,0-2h1l0,1.24h0a1.87,1.87,0,0,1,1.74-1.38,1,1,0,0,1,.32,0V393a1.46,1.46,0,0,0-.39,0,1.61,1.61,0,0,0-1.53,1.47,2.81,2.81,0,0,0-.05.53v3.35h-1.13Z"/><path class="cls-2" d="M859.18,398.33l-.09-.79h0a2.34,2.34,0,0,1-1.93.94,1.79,1.79,0,0,1-1.92-1.81c0-1.52,1.35-2.35,3.78-2.34v-.13a1.3,1.3,0,0,0-1.43-1.46,3.24,3.24,0,0,0-1.64.47l-.26-.75a3.91,3.91,0,0,1,2.07-.56c1.93,0,2.39,1.31,2.39,2.57v2.36a8.5,8.5,0,0,0,.11,1.5Zm-.17-3.21c-1.25,0-2.67.2-2.67,1.42a1,1,0,0,0,1.08,1.09,1.56,1.56,0,0,0,1.52-1.05,1.21,1.21,0,0,0,.07-.36Z"/><path class="cls-2" d="M863.29,390.24V392h1.63v.87h-1.63v3.4c0,.78.22,1.22.85,1.22a2.58,2.58,0,0,0,.67-.08l.05.86a2.85,2.85,0,0,1-1,.15,1.55,1.55,0,0,1-1.23-.48,2.27,2.27,0,0,1-.44-1.63v-3.44h-1V392h1v-1.51Z"/><path class="cls-2" d="M867.48,390.27a.67.67,0,0,1-.72.71.68.68,0,0,1-.69-.71.69.69,0,0,1,.71-.71A.67.67,0,0,1,867.48,390.27Zm-1.27,8.06V392h1.14v6.29Z"/><path class="cls-2" d="M869.25,393.75c0-.65,0-1.19,0-1.71h1l.07,1h0a2.32,2.32,0,0,1,2.08-1.18c.88,0,2.23.52,2.23,2.68v3.75h-1.15v-3.62c0-1-.37-1.86-1.45-1.86a1.63,1.63,0,0,0-1.54,1.17,1.7,1.7,0,0,0-.07.53v3.78h-1.15Z"/><path class="cls-2" d="M881.89,392c0,.46,0,1,0,1.73v3.65a3.63,3.63,0,0,1-.9,2.88,3.35,3.35,0,0,1-2.29.75,4,4,0,0,1-2.09-.52l.28-.87a3.58,3.58,0,0,0,1.85.49c1.17,0,2-.61,2-2.19v-.7h0a2.24,2.24,0,0,1-2,1.05,2.82,2.82,0,0,1-2.68-3.07c0-2.13,1.39-3.34,2.84-3.34a2.09,2.09,0,0,1,2,1.09h0l.06-.95Zm-1.18,2.49A1.69,1.69,0,0,0,879,392.8c-1.09,0-1.87.92-1.87,2.38,0,1.23.62,2.26,1.86,2.26a1.66,1.66,0,0,0,1.58-1.17,1.9,1.9,0,0,0,.1-.61Z"/><path class="cls-2" d="M886.37,397a4,4,0,0,0,2,.57c1.16,0,1.83-.61,1.83-1.5s-.46-1.28-1.65-1.74c-1.43-.51-2.31-1.25-2.31-2.48s1.13-2.38,2.83-2.38a4,4,0,0,1,1.94.43l-.31.92a3.47,3.47,0,0,0-1.67-.41c-1.19,0-1.65.71-1.65,1.31,0,.82.54,1.22,1.75,1.69,1.48.57,2.23,1.29,2.23,2.57s-1,2.52-3.07,2.52a4.52,4.52,0,0,1-2.23-.55Z"/><path class="cls-2" d="M894.24,390.24V392h1.64v.87h-1.64v3.4c0,.78.22,1.22.86,1.22a2.44,2.44,0,0,0,.66-.08l0,.86a2.82,2.82,0,0,1-1,.15,1.55,1.55,0,0,1-1.24-.48,2.32,2.32,0,0,1-.44-1.63v-3.44h-1V392h1v-1.51Z"/><path class="cls-2" d="M897.72,395.4a2,2,0,0,0,2.16,2.18,4.17,4.17,0,0,0,1.74-.32l.2.81a5,5,0,0,1-2.1.39,2.92,2.92,0,0,1-3.09-3.17c0-1.9,1.12-3.39,3-3.39a2.67,2.67,0,0,1,2.6,3,5.05,5.05,0,0,1,0,.54Zm3.36-.82a1.63,1.63,0,0,0-1.59-1.86,1.9,1.9,0,0,0-1.76,1.86Z"/><path class="cls-2" d="M903.6,394.1c0-.81,0-1.46-.06-2.06h1l0,1.08h0a2.47,2.47,0,0,1,2.24-1.22c1.52,0,2.66,1.29,2.66,3.2,0,2.26-1.38,3.38-2.86,3.38a2.23,2.23,0,0,1-1.94-1h0v3.42H903.6Zm1.13,1.67a2.26,2.26,0,0,0,0,.47,1.77,1.77,0,0,0,1.72,1.34c1.21,0,1.91-1,1.91-2.43,0-1.26-.67-2.34-1.87-2.34a1.82,1.82,0,0,0-1.73,1.42,1.77,1.77,0,0,0-.08.46Z"/><path class="cls-2" d="M665.07,314a5.58,5.58,0,0,1-2.31.42,4.09,4.09,0,0,1-4.33-4.43,4.36,4.36,0,0,1,4.57-4.61,4.8,4.8,0,0,1,2.08.39l-.27.93a4.09,4.09,0,0,0-1.77-.37,3.27,3.27,0,0,0-3.42,3.62,3.19,3.19,0,0,0,3.37,3.52,4.58,4.58,0,0,0,1.85-.36Z"/><path class="cls-2" d="M669.84,314.28l-.09-.79h0a2.35,2.35,0,0,1-1.92.93,1.79,1.79,0,0,1-1.93-1.8c0-1.53,1.35-2.36,3.79-2.34v-.13a1.3,1.3,0,0,0-1.43-1.46,3.09,3.09,0,0,0-1.64.47l-.26-.76a3.87,3.87,0,0,1,2.06-.56c1.93,0,2.4,1.32,2.4,2.58v2.35a8.69,8.69,0,0,0,.1,1.51Zm-.17-3.21c-1.25,0-2.66.19-2.66,1.42a1,1,0,0,0,1.08,1.09,1.58,1.58,0,0,0,1.52-1.06,1.09,1.09,0,0,0,.06-.36Z"/><path class="cls-2" d="M674,306.18V308h1.64v.87H674v3.39c0,.78.22,1.22.86,1.22a3.06,3.06,0,0,0,.66-.07l0,.85a2.79,2.79,0,0,1-1,.16,1.59,1.59,0,0,1-1.24-.48,2.37,2.37,0,0,1-.44-1.64v-3.43h-1V308h1v-1.51Z"/><path class="cls-2" d="M680.36,314.28l-.09-.79h0a2.36,2.36,0,0,1-1.93.93,1.79,1.79,0,0,1-1.92-1.8c0-1.53,1.35-2.36,3.78-2.34v-.13a1.29,1.29,0,0,0-1.43-1.46,3.14,3.14,0,0,0-1.64.47l-.26-.76a3.91,3.91,0,0,1,2.07-.56c1.93,0,2.39,1.32,2.39,2.58v2.35a8.62,8.62,0,0,0,.11,1.51Zm-.17-3.21c-1.25,0-2.67.19-2.67,1.42a1,1,0,0,0,1.08,1.09,1.56,1.56,0,0,0,1.52-1.06,1.1,1.1,0,0,0,.07-.36Z"/><path class="cls-2" d="M683.14,305.05h1.14v9.23h-1.14Z"/><path class="cls-2" d="M686.62,308l1.38,3.72c.14.41.3.91.4,1.28h0c.12-.37.25-.86.4-1.31l1.25-3.69h1.21l-1.72,4.48c-.82,2.16-1.37,3.27-2.15,3.94a3,3,0,0,1-1.41.74l-.28-1a3,3,0,0,0,1-.56,3.54,3.54,0,0,0,1-1.27.88.88,0,0,0,.09-.28,1.07,1.07,0,0,0-.08-.29l-2.32-5.8Z"/><path class="cls-2" d="M693.71,306.18V308h1.64v.87h-1.64v3.39c0,.78.22,1.22.86,1.22a3.06,3.06,0,0,0,.66-.07l0,.85a2.79,2.79,0,0,1-1,.16,1.59,1.59,0,0,1-1.24-.48,2.37,2.37,0,0,1-.44-1.64v-3.43h-1V308h1v-1.51Z"/><path class="cls-2" d="M697.91,306.22a.71.71,0,0,1-1.42,0,.7.7,0,0,1,.72-.72A.69.69,0,0,1,697.91,306.22Zm-1.28,8.06V308h1.15v6.29Z"/><path class="cls-2" d="M704.16,314.05a4.32,4.32,0,0,1-1.81.36,3,3,0,0,1-3.13-3.21,3.2,3.2,0,0,1,3.38-3.34,4,4,0,0,1,1.59.32l-.26.89a2.66,2.66,0,0,0-1.33-.3,2.37,2.37,0,0,0,0,4.73,3.26,3.26,0,0,0,1.4-.31Z"/><path class="cls-2" d="M708.29,305.63a12.5,12.5,0,0,1,2.17-.18,3.57,3.57,0,0,1,2.54.72,2.19,2.19,0,0,1,.69,1.66,2.31,2.31,0,0,1-1.65,2.24v0a2.18,2.18,0,0,1,1.29,1.76,13.68,13.68,0,0,0,.67,2.41h-1.17a11.23,11.23,0,0,1-.58-2.09c-.26-1.21-.73-1.67-1.76-1.71h-1.07v3.8h-1.13Zm1.13,4h1.16c1.21,0,2-.66,2-1.66s-.82-1.62-2-1.64a4.78,4.78,0,0,0-1.12.11Z"/><path class="cls-2" d="M715.94,311.34a2,2,0,0,0,2.16,2.19,4.15,4.15,0,0,0,1.74-.33l.19.82a5.11,5.11,0,0,1-2.09.39,2.91,2.91,0,0,1-3.09-3.17c0-1.9,1.11-3.4,2.95-3.4,2.05,0,2.6,1.81,2.6,3a5,5,0,0,1,0,.53Zm3.35-.82a1.63,1.63,0,0,0-1.58-1.86,1.9,1.9,0,0,0-1.76,1.86Z"/><path class="cls-2" d="M725.3,314.28l-.09-.79h0a2.36,2.36,0,0,1-1.93.93,1.79,1.79,0,0,1-1.92-1.8c0-1.53,1.35-2.36,3.78-2.34v-.13a1.29,1.29,0,0,0-1.43-1.46,3.14,3.14,0,0,0-1.64.47l-.26-.76a3.91,3.91,0,0,1,2.07-.56c1.93,0,2.39,1.32,2.39,2.58v2.35a8.62,8.62,0,0,0,.11,1.51Zm-.17-3.21c-1.25,0-2.67.19-2.67,1.42a1,1,0,0,0,1.08,1.09,1.56,1.56,0,0,0,1.52-1.06,1.1,1.1,0,0,0,.07-.36Z"/><path class="cls-2" d="M732.56,314.05a4.27,4.27,0,0,1-1.8.36,3,3,0,0,1-3.14-3.21,3.2,3.2,0,0,1,3.38-3.34,3.93,3.93,0,0,1,1.59.32l-.26.89a2.6,2.6,0,0,0-1.33-.3,2.37,2.37,0,0,0,0,4.73,3.3,3.3,0,0,0,1.4-.31Z"/><path class="cls-2" d="M735.45,306.18V308h1.64v.87h-1.64v3.39c0,.78.22,1.22.86,1.22a3.06,3.06,0,0,0,.66-.07l0,.85a2.79,2.79,0,0,1-1,.16,1.62,1.62,0,0,1-1.24-.48,2.37,2.37,0,0,1-.44-1.64v-3.43h-1V308h1v-1.51Z"/><path class="cls-2" d="M744,311.08a3.07,3.07,0,0,1-3.13,3.34,3,3,0,0,1-3-3.23,3.08,3.08,0,0,1,3.12-3.35A3,3,0,0,1,744,311.08Zm-5,.07c0,1.37.79,2.41,1.91,2.41s1.91-1,1.91-2.44c0-1.07-.53-2.42-1.88-2.42S739,310,739,311.15Z"/><path class="cls-2" d="M745.43,310c0-.74,0-1.38,0-2h1l0,1.23h.05a1.91,1.91,0,0,1,1.75-1.38,1.47,1.47,0,0,1,.32,0V309a2.13,2.13,0,0,0-.39,0,1.59,1.59,0,0,0-1.53,1.47,2.87,2.87,0,0,0-.06.54v3.35h-1.13Z"/><path class="cls-2" d="M782.75,503.26a5.71,5.71,0,0,1-2.31.41,4.09,4.09,0,0,1-4.33-4.43,4.36,4.36,0,0,1,4.58-4.6,4.65,4.65,0,0,1,2.08.39l-.28.92a4.09,4.09,0,0,0-1.76-.36c-2.06,0-3.42,1.31-3.42,3.61a3.18,3.18,0,0,0,3.36,3.52,4.58,4.58,0,0,0,1.85-.36Z"/><path class="cls-2" d="M784.13,494.31h1.15v9.23h-1.15Z"/><path class="cls-2" d="M787.84,500.6a2,2,0,0,0,2.15,2.19,4.2,4.2,0,0,0,1.75-.33l.19.82a5.11,5.11,0,0,1-2.09.39,2.92,2.92,0,0,1-3.1-3.17c0-1.9,1.12-3.39,3-3.39,2,0,2.6,1.8,2.6,3a4.82,4.82,0,0,1,0,.53Zm3.35-.82a1.63,1.63,0,0,0-1.59-1.85,1.89,1.89,0,0,0-1.75,1.85Z"/><path class="cls-2" d="M797.2,503.54l-.09-.79h0a2.37,2.37,0,0,1-1.93.93,1.79,1.79,0,0,1-1.92-1.8c0-1.52,1.35-2.36,3.78-2.34v-.13a1.3,1.3,0,0,0-1.43-1.46,3.14,3.14,0,0,0-1.64.47l-.26-.75a3.91,3.91,0,0,1,2.07-.56c1.92,0,2.39,1.31,2.39,2.57V502a8.62,8.62,0,0,0,.11,1.51Zm-.17-3.21c-1.25,0-2.67.2-2.67,1.42a1,1,0,0,0,1.08,1.09,1.56,1.56,0,0,0,1.52-1,1.21,1.21,0,0,0,.07-.37Z"/><path class="cls-2" d="M800,499c0-.65,0-1.18-.05-1.7h1l.06,1h0a2.31,2.31,0,0,1,2.08-1.18c.87,0,2.22.52,2.22,2.67v3.76h-1.14v-3.62c0-1-.38-1.86-1.46-1.86a1.63,1.63,0,0,0-1.53,1.17,1.64,1.64,0,0,0-.08.53v3.78H800Z"/><path class="cls-2" d="M811,503.54l-2.22-8.76h1.19l1,4.43c.26,1.09.5,2.19.65,3h0c.14-.87.41-1.91.71-3l1.17-4.42h1.19l1.06,4.45c.25,1,.48,2.08.61,3h0c.18-1,.43-1.94.7-3l1.16-4.42h1.16l-2.49,8.76h-1.18l-1.1-4.56a25.92,25.92,0,0,1-.58-2.86h0a27.24,27.24,0,0,1-.68,2.86l-1.25,4.56Z"/><path class="cls-2" d="M823.53,503.54l-.09-.79h0a2.34,2.34,0,0,1-1.92.93,1.79,1.79,0,0,1-1.92-1.8c0-1.52,1.35-2.36,3.78-2.34v-.13a1.3,1.3,0,0,0-1.43-1.46,3.09,3.09,0,0,0-1.64.47l-.26-.75a3.91,3.91,0,0,1,2.07-.56c1.92,0,2.39,1.31,2.39,2.57V502a9.8,9.8,0,0,0,.1,1.51Zm-.16-3.21c-1.25,0-2.67.2-2.67,1.42a1,1,0,0,0,1.08,1.09,1.56,1.56,0,0,0,1.52-1,1.21,1.21,0,0,0,.07-.37Z"/><path class="cls-2" d="M827.64,495.44v1.81h1.64v.87h-1.64v3.39c0,.78.22,1.23.86,1.23a2.44,2.44,0,0,0,.66-.08l.05.86a2.82,2.82,0,0,1-1,.15,1.58,1.58,0,0,1-1.23-.48,2.32,2.32,0,0,1-.45-1.64v-3.43h-1v-.87h1v-1.51Z"/><path class="cls-2" d="M831.13,500.6a2,2,0,0,0,2.15,2.19,4.2,4.2,0,0,0,1.75-.33l.19.82a5.11,5.11,0,0,1-2.09.39,2.92,2.92,0,0,1-3.1-3.17c0-1.9,1.12-3.39,3-3.39,2,0,2.59,1.8,2.59,3,0,.23,0,.42,0,.53Zm3.35-.82a1.63,1.63,0,0,0-1.59-1.85,1.89,1.89,0,0,0-1.75,1.85Z"/><path class="cls-2" d="M837,499.21c0-.74,0-1.38,0-2h1l0,1.23h0a1.89,1.89,0,0,1,1.74-1.37,1.15,1.15,0,0,1,.33,0v1.07a2.21,2.21,0,0,0-.39,0,1.61,1.61,0,0,0-1.54,1.46,4.15,4.15,0,0,0,0,.54v3.35H837Z"/><path class="cls-2" d="M782.56,511.34h-2.67v-1h6.49v1H783.7v7.8h-1.14Z"/><path class="cls-2" d="M790,519.14l-.09-.79h0a2.36,2.36,0,0,1-1.93.94,1.79,1.79,0,0,1-1.92-1.81c0-1.52,1.35-2.36,3.78-2.34V515a1.3,1.3,0,0,0-1.43-1.46,3.08,3.08,0,0,0-1.63.47l-.26-.75a3.87,3.87,0,0,1,2.06-.56c1.93,0,2.39,1.31,2.39,2.57v2.35a8.62,8.62,0,0,0,.11,1.51Zm-.17-3.21c-1.25,0-2.67.2-2.67,1.42a1,1,0,0,0,1.08,1.09,1.56,1.56,0,0,0,1.52-1.05,1.21,1.21,0,0,0,.07-.37Z"/><path class="cls-2" d="M792.75,514.55c0-.65,0-1.18,0-1.7h1l.07,1h0a2.32,2.32,0,0,1,2.08-1.18c.87,0,2.23.52,2.23,2.67v3.76H797v-3.63c0-1-.37-1.85-1.45-1.85a1.68,1.68,0,0,0-1.62,1.7v3.78h-1.14Z"/><path class="cls-2" d="M801.1,515.74h0c.16-.23.38-.5.56-.72l1.85-2.17h1.38l-2.44,2.59,2.77,3.7h-1.39l-2.17-3-.58.65v2.36H800v-9.23h1.13Z"/><path class="cls-2" d="M808.86,510.38H810v7.81h3.74v.95h-4.87Z"/><path class="cls-2" d="M815.41,516.2a2,2,0,0,0,2.16,2.19,4,4,0,0,0,1.74-.33l.19.82a5.11,5.11,0,0,1-2.09.39,2.91,2.91,0,0,1-3.09-3.17c0-1.9,1.12-3.39,2.95-3.39,2.05,0,2.6,1.8,2.6,3a4.82,4.82,0,0,1,0,.53Zm3.35-.82a1.62,1.62,0,0,0-1.58-1.85,1.89,1.89,0,0,0-1.76,1.85Z"/><path class="cls-2" d="M821.73,512.85l1.23,3.54a15.54,15.54,0,0,1,.51,1.61h0c.14-.52.32-1,.53-1.61l1.22-3.54h1.2L824,519.14H822.9l-2.4-6.29Z"/><path class="cls-2" d="M828,516.2a2,2,0,0,0,2.16,2.19,4,4,0,0,0,1.75-.33l.19.82a5.11,5.11,0,0,1-2.09.39,2.92,2.92,0,0,1-3.1-3.17c0-1.9,1.12-3.39,2.95-3.39,2.06,0,2.6,1.8,2.6,3,0,.23,0,.42,0,.53Zm3.36-.82a1.63,1.63,0,0,0-1.59-1.85,1.89,1.89,0,0,0-1.75,1.85Z"/><path class="cls-2" d="M833.92,509.91h1.15v9.23h-1.15Z"/><path class="cls-2" d="M240.59,163.11v5.19c0,2,.87,2.79,2,2.79s2.14-.85,2.14-2.79v-5.19h1.14v5.11c0,2.69-1.42,3.8-3.32,3.8s-3.14-1-3.14-3.75v-5.16Z"/><path class="cls-2" d="M247.83,167.54c0-.74,0-1.37-.05-2h1l0,1.24h.05a1.89,1.89,0,0,1,1.75-1.38,1,1,0,0,1,.32,0v1.08a1.51,1.51,0,0,0-.39,0A1.59,1.59,0,0,0,249,168a2.67,2.67,0,0,0-.06.53v3.35h-1.13Z"/><path class="cls-2" d="M253.41,163.81a.68.68,0,0,1-.73.71.69.69,0,0,1-.69-.71.7.7,0,0,1,.72-.71A.67.67,0,0,1,253.41,163.81Zm-1.27,8.06v-6.29h1.14v6.29Z"/><path class="cls-2" d="M255.18,167.28c0-.65,0-1.18-.05-1.7h1l.07,1h0a2.31,2.31,0,0,1,2.08-1.18c.87,0,2.22.52,2.22,2.68v3.75h-1.14v-3.62c0-1-.38-1.86-1.46-1.86a1.63,1.63,0,0,0-1.53,1.17,1.69,1.69,0,0,0-.08.53v3.78h-1.14Z"/><path class="cls-2" d="M263,168.94a2,2,0,0,0,2.16,2.18,4,4,0,0,0,1.74-.33l.19.82A4.94,4.94,0,0,1,265,172a2.91,2.91,0,0,1-3.09-3.17c0-1.9,1.12-3.39,2.95-3.39a2.67,2.67,0,0,1,2.6,3,5.05,5.05,0,0,1,0,.54Zm3.35-.82a1.62,1.62,0,0,0-1.58-1.86,1.89,1.89,0,0,0-1.76,1.86Z"/><path class="cls-2" d="M271.7,163.22a12.2,12.2,0,0,1,2.17-.17,3.65,3.65,0,0,1,2.46.72,2.38,2.38,0,0,1,.77,1.84,2.6,2.6,0,0,1-.68,1.87,4.42,4.42,0,0,1-3.59.88v3.51H271.7Zm1.13,4.22a3.6,3.6,0,0,0,.94.09c1.36,0,2.19-.66,2.19-1.87s-.81-1.72-2.06-1.72a4.92,4.92,0,0,0-1.07.09Z"/><path class="cls-2" d="M278.37,167.54c0-.74,0-1.37-.05-2h1l0,1.24h.05a1.88,1.88,0,0,1,1.74-1.38,1.15,1.15,0,0,1,.33,0v1.08a1.56,1.56,0,0,0-.39,0,1.61,1.61,0,0,0-1.54,1.47,3.83,3.83,0,0,0-.05.53v3.35h-1.13Z"/><path class="cls-2" d="M288.19,168.68a3.08,3.08,0,0,1-3.14,3.34,3,3,0,0,1-3-3.24,3.07,3.07,0,0,1,3.12-3.34A3,3,0,0,1,288.19,168.68Zm-5,.06c0,1.38.8,2.42,1.91,2.42s1.92-1,1.92-2.45c0-1.06-.54-2.41-1.89-2.41S283.19,167.54,283.19,168.74Z"/><path class="cls-2" d="M294.11,171.64a4.15,4.15,0,0,1-1.8.36,3,3,0,0,1-3.14-3.21,3.2,3.2,0,0,1,3.38-3.34,3.75,3.75,0,0,1,1.59.33l-.26.88a2.6,2.6,0,0,0-1.33-.3,2.18,2.18,0,0,0-2.22,2.38,2.15,2.15,0,0,0,2.18,2.35,3.35,3.35,0,0,0,1.41-.31Z"/><path class="cls-2" d="M296,168.94a2,2,0,0,0,2.16,2.18,4,4,0,0,0,1.74-.33l.2.82a5,5,0,0,1-2.1.39,2.92,2.92,0,0,1-3.09-3.17c0-1.9,1.12-3.39,2.95-3.39a2.67,2.67,0,0,1,2.6,3,5.05,5.05,0,0,1,0,.54Zm3.35-.82a1.62,1.62,0,0,0-1.58-1.86,1.89,1.89,0,0,0-1.76,1.86Z"/><path class="cls-2" d="M301.73,170.7a3,3,0,0,0,1.51.46c.83,0,1.22-.42,1.22-.94s-.32-.84-1.17-1.15c-1.13-.41-1.66-1-1.66-1.79a1.94,1.94,0,0,1,2.17-1.84,3.11,3.11,0,0,1,1.54.39l-.28.83a2.42,2.42,0,0,0-1.29-.36c-.67,0-1,.39-1,.85s.38.76,1.19,1.07c1.1.42,1.66,1,1.66,1.9,0,1.1-.86,1.88-2.36,1.88a3.62,3.62,0,0,1-1.77-.43Z"/><path class="cls-2" d="M306.88,170.7a3,3,0,0,0,1.51.46c.83,0,1.22-.42,1.22-.94s-.33-.84-1.17-1.15c-1.13-.41-1.67-1-1.67-1.79a1.94,1.94,0,0,1,2.18-1.84,3.11,3.11,0,0,1,1.54.39l-.28.83a2.45,2.45,0,0,0-1.29-.36c-.68,0-1.05.39-1.05.85s.37.76,1.19,1.07c1.09.42,1.65,1,1.65,1.9,0,1.1-.86,1.88-2.35,1.88a3.59,3.59,0,0,1-1.77-.43Z"/><path class="cls-2" d="M317.88,168.68a3.08,3.08,0,0,1-3.14,3.34,3,3,0,0,1-3-3.24,3.07,3.07,0,0,1,3.12-3.34A3,3,0,0,1,317.88,168.68Zm-5,.06c0,1.38.8,2.42,1.91,2.42s1.92-1,1.92-2.45c0-1.06-.54-2.41-1.89-2.41S312.88,167.54,312.88,168.74Z"/><path class="cls-2" d="M319.32,167.54c0-.74,0-1.37-.05-2h1l0,1.24h.05a1.87,1.87,0,0,1,1.74-1.38,1.15,1.15,0,0,1,.33,0v1.08a1.56,1.56,0,0,0-.39,0A1.61,1.61,0,0,0,320.5,168a3.83,3.83,0,0,0-.05.53v3.35h-1.13Z"/><path class="cls-2" d="M333.85,167.4c0,3-1.83,4.62-4.07,4.62s-3.94-1.8-3.94-4.45,1.73-4.6,4.07-4.6S333.85,164.8,333.85,167.4Zm-6.8.14c0,1.88,1,3.55,2.8,3.55s2.81-1.65,2.81-3.64c0-1.74-.91-3.56-2.8-3.56S327.05,165.62,327.05,167.54Z"/><path class="cls-2" d="M335.28,167.64c0-.81,0-1.46,0-2.06h1l.05,1.08h0a2.44,2.44,0,0,1,2.23-1.22c1.52,0,2.67,1.29,2.67,3.2,0,2.26-1.38,3.38-2.86,3.38a2.22,2.22,0,0,1-1.94-1h0v3.42h-1.13Zm1.13,1.67a2.23,2.23,0,0,0,.06.47,1.75,1.75,0,0,0,1.71,1.34c1.21,0,1.91-1,1.91-2.43,0-1.26-.66-2.34-1.87-2.34a1.83,1.83,0,0,0-1.73,1.42,1.77,1.77,0,0,0-.08.46Z"/><path class="cls-2" d="M343.32,168.94a2,2,0,0,0,2.15,2.18,4,4,0,0,0,1.75-.33l.19.82a4.94,4.94,0,0,1-2.09.39,2.92,2.92,0,0,1-3.1-3.17c0-1.9,1.12-3.39,3-3.39a2.67,2.67,0,0,1,2.6,3,5.05,5.05,0,0,1,0,.54Zm3.35-.82a1.63,1.63,0,0,0-1.59-1.86,1.89,1.89,0,0,0-1.75,1.86Z"/><path class="cls-2" d="M349.19,167.54c0-.74,0-1.37-.05-2h1l0,1.24h.05a1.89,1.89,0,0,1,1.74-1.38,1.11,1.11,0,0,1,.33,0v1.08a1.51,1.51,0,0,0-.39,0,1.59,1.59,0,0,0-1.53,1.47,2.67,2.67,0,0,0-.06.53v3.35h-1.13Z"/><path class="cls-2" d="M356.86,171.87l-.09-.79h0a2.34,2.34,0,0,1-1.92.94,1.8,1.8,0,0,1-1.93-1.81c0-1.52,1.36-2.35,3.79-2.34v-.13a1.3,1.3,0,0,0-1.43-1.46,3.18,3.18,0,0,0-1.64.47l-.26-.75a3.88,3.88,0,0,1,2.07-.56c1.92,0,2.39,1.31,2.39,2.57v2.36a8.64,8.64,0,0,0,.1,1.5Zm-.17-3.21c-1.24,0-2.66.2-2.66,1.42a1,1,0,0,0,1.08,1.09,1.56,1.56,0,0,0,1.52-1,1.19,1.19,0,0,0,.06-.37Z"/><path class="cls-2" d="M361,163.77v1.81h1.64v.87H361v3.4c0,.78.22,1.22.86,1.22a2.44,2.44,0,0,0,.66-.08l.05.86a2.82,2.82,0,0,1-1,.15,1.62,1.62,0,0,1-1.24-.48,2.35,2.35,0,0,1-.44-1.64v-3.43h-1v-.87h1v-1.51Z"/><path class="cls-2" d="M365.17,163.81a.68.68,0,0,1-.73.71.69.69,0,0,1-.69-.71.7.7,0,0,1,.72-.71A.67.67,0,0,1,365.17,163.81Zm-1.27,8.06v-6.29H365v6.29Z"/><path class="cls-2" d="M366.94,167.28c0-.65,0-1.18-.05-1.7h1l.06,1h0a2.31,2.31,0,0,1,2.08-1.18c.87,0,2.22.52,2.22,2.68v3.75h-1.14v-3.62c0-1-.38-1.86-1.46-1.86a1.62,1.62,0,0,0-1.53,1.17,1.69,1.69,0,0,0-.08.53v3.78h-1.14Z"/><path class="cls-2" d="M379.57,165.58c0,.46-.05,1-.05,1.73V171a3.6,3.6,0,0,1-.9,2.88,3.32,3.32,0,0,1-2.28.75,4.06,4.06,0,0,1-2.1-.52l.29-.87a3.58,3.58,0,0,0,1.85.49c1.17,0,2-.61,2-2.19v-.71h0a2.24,2.24,0,0,1-2,1.06,2.82,2.82,0,0,1-2.68-3.07c0-2.13,1.39-3.34,2.83-3.34a2.09,2.09,0,0,1,2,1.09h0l.05-.95Zm-1.18,2.48a1.73,1.73,0,0,0-.06-.52,1.65,1.65,0,0,0-1.6-1.2c-1.1,0-1.88.92-1.88,2.37,0,1.24.63,2.27,1.86,2.27a1.68,1.68,0,0,0,1.59-1.17,2.2,2.2,0,0,0,.09-.61Z"/><path class="cls-2" d="M384.06,170.5a4,4,0,0,0,2,.57c1.15,0,1.83-.61,1.83-1.5s-.47-1.28-1.65-1.74c-1.43-.51-2.32-1.25-2.32-2.48s1.13-2.38,2.84-2.38a4,4,0,0,1,1.93.43l-.31.92a3.41,3.41,0,0,0-1.66-.42c-1.2,0-1.65.72-1.65,1.32,0,.82.53,1.22,1.74,1.69,1.48.57,2.24,1.28,2.24,2.57s-1,2.52-3.07,2.52a4.45,4.45,0,0,1-2.24-.56Z"/><path class="cls-2" d="M391.92,163.77v1.81h1.64v.87h-1.64v3.4c0,.78.22,1.22.86,1.22a2.44,2.44,0,0,0,.66-.08l.06.86a2.93,2.93,0,0,1-1,.15,1.58,1.58,0,0,1-1.23-.48,2.3,2.3,0,0,1-.45-1.64v-3.43h-1v-.87h1v-1.51Z"/><path class="cls-2" d="M398.33,171.87l-.09-.79h0a2.36,2.36,0,0,1-1.92.94,1.8,1.8,0,0,1-1.93-1.81c0-1.52,1.36-2.35,3.79-2.34v-.13a1.3,1.3,0,0,0-1.43-1.46,3.18,3.18,0,0,0-1.64.47l-.26-.75a3.88,3.88,0,0,1,2.07-.56c1.92,0,2.39,1.31,2.39,2.57v2.36a8.64,8.64,0,0,0,.1,1.5Zm-.17-3.21c-1.25,0-2.66.2-2.66,1.42a1,1,0,0,0,1.08,1.09,1.56,1.56,0,0,0,1.52-1,1.19,1.19,0,0,0,.06-.37Z"/><path class="cls-2" d="M402.44,163.77v1.81h1.64v.87h-1.64v3.4c0,.78.22,1.22.86,1.22A2.44,2.44,0,0,0,404,171l.05.86a2.82,2.82,0,0,1-1,.15,1.62,1.62,0,0,1-1.24-.48,2.35,2.35,0,0,1-.44-1.64v-3.43h-1v-.87h1v-1.51Z"/><path class="cls-2" d="M405.92,168.94a2,2,0,0,0,2.16,2.18,4,4,0,0,0,1.74-.33l.2.82a5,5,0,0,1-2.1.39,2.92,2.92,0,0,1-3.09-3.17c0-1.9,1.12-3.39,2.95-3.39,2.06,0,2.6,1.81,2.6,3a3.31,3.31,0,0,1,0,.54Zm3.36-.82a1.63,1.63,0,0,0-1.59-1.86,1.88,1.88,0,0,0-1.75,1.86Z"/><path class="cls-2" d="M197.71,70.92V65.5h-.89v-.87h.89v-.3a3,3,0,0,1,.72-2.2,2.23,2.23,0,0,1,1.54-.58,2.66,2.66,0,0,1,1,.18l-.15.88a1.88,1.88,0,0,0-.73-.14c-1,0-1.22.86-1.22,1.82v.34h1.52v.87h-1.52v5.42Z"/><path class="cls-2" d="M201.39,66.59c0-.74,0-1.38-.06-2h1l0,1.23h.06a1.88,1.88,0,0,1,1.74-1.37,1,1,0,0,1,.32,0V65.6a2.13,2.13,0,0,0-.39,0A1.6,1.6,0,0,0,202.57,67a2.92,2.92,0,0,0,0,.54v3.35h-1.13Z"/><path class="cls-2" d="M211.2,67.72a3.07,3.07,0,0,1-3.13,3.34,3,3,0,0,1-3-3.23,3.07,3.07,0,0,1,3.12-3.34A3,3,0,0,1,211.2,67.72Zm-5,.07c0,1.38.79,2.42,1.91,2.42s1.91-1,1.91-2.45c0-1.06-.53-2.42-1.88-2.42S206.21,66.59,206.21,67.79Z"/><path class="cls-2" d="M212.64,66.33c0-.65,0-1.18,0-1.7h1l0,1h0a2.18,2.18,0,0,1,2-1.15,1.85,1.85,0,0,1,1.78,1.26h0a2.49,2.49,0,0,1,.7-.82,2.12,2.12,0,0,1,1.39-.44c.83,0,2.07.54,2.07,2.73v3.7h-1.12V67.36c0-1.21-.44-1.94-1.37-1.94a1.48,1.48,0,0,0-1.35,1,2,2,0,0,0-.09.57v3.89h-1.12V67.15c0-1-.44-1.73-1.31-1.73a1.56,1.56,0,0,0-1.42,1.15,1.69,1.69,0,0,0-.09.56v3.79h-1.12Z"/><path class="cls-2" d="M229.73,70.92l-.1-.79h0a2.37,2.37,0,0,1-1.93.93,1.79,1.79,0,0,1-1.92-1.8c0-1.52,1.35-2.36,3.78-2.34v-.13a1.3,1.3,0,0,0-1.43-1.46,3.11,3.11,0,0,0-1.64.47l-.26-.75a3.91,3.91,0,0,1,2.07-.56c1.92,0,2.39,1.31,2.39,2.57v2.35a8.62,8.62,0,0,0,.11,1.51Zm-.17-3.21c-1.25,0-2.67.2-2.67,1.42A1,1,0,0,0,228,70.22a1.56,1.56,0,0,0,1.52-1,1.21,1.21,0,0,0,.07-.37Z"/><path class="cls-2" d="M233.78,62.86a.71.71,0,0,1-1.42,0,.7.7,0,0,1,.72-.71A.67.67,0,0,1,233.78,62.86Zm-1.27,8.06V64.63h1.14v6.29Z"/><path class="cls-2" d="M235.55,66.59c0-.74,0-1.38-.05-2h1l0,1.23h.05a1.88,1.88,0,0,1,1.74-1.37,1.15,1.15,0,0,1,.33,0V65.6a2.29,2.29,0,0,0-.39,0A1.61,1.61,0,0,0,236.73,67a4.15,4.15,0,0,0,0,.54v3.35h-1.13Z"/><path class="cls-2" d="M247,70.69a4.32,4.32,0,0,1-1.81.36,3,3,0,0,1-3.13-3.21,3.2,3.2,0,0,1,3.38-3.34,4,4,0,0,1,1.59.32l-.26.89a2.66,2.66,0,0,0-1.33-.3,2.18,2.18,0,0,0-2.22,2.38,2.15,2.15,0,0,0,2.18,2.35,3.35,3.35,0,0,0,1.41-.31Z"/><path class="cls-2" d="M254,67.72a3.08,3.08,0,0,1-3.14,3.34,3,3,0,0,1-3-3.23A3.07,3.07,0,0,1,251,64.49,3,3,0,0,1,254,67.72Zm-5,.07c0,1.38.8,2.42,1.91,2.42s1.92-1,1.92-2.45c0-1.06-.54-2.42-1.89-2.42S249,66.59,249,67.79Z"/><path class="cls-2" d="M255.44,66.33c0-.65,0-1.18-.05-1.7h1l.07,1h0a2.31,2.31,0,0,1,2.08-1.18c.87,0,2.22.52,2.22,2.67v3.76h-1.14V67.29c0-1-.38-1.85-1.46-1.85a1.63,1.63,0,0,0-1.53,1.17,1.64,1.64,0,0,0-.08.53v3.78h-1.14Z"/><path class="cls-2" d="M268.09,61.69V69.3c0,.56,0,1.19.05,1.62h-1l-.05-1.09h0a2.31,2.31,0,0,1-2.14,1.23c-1.52,0-2.69-1.28-2.69-3.19,0-2.1,1.29-3.38,2.82-3.38a2.11,2.11,0,0,1,1.9,1h0V61.69Zm-1.15,5.5a2,2,0,0,0-.05-.48,1.68,1.68,0,0,0-1.65-1.33c-1.18,0-1.89,1-1.89,2.43s.63,2.33,1.86,2.33a1.73,1.73,0,0,0,1.68-1.36,2,2,0,0,0,.05-.5Z"/><path class="cls-2" d="M271.26,62.86a.71.71,0,0,1-1.42,0,.7.7,0,0,1,.72-.71A.67.67,0,0,1,271.26,62.86ZM270,70.92V64.63h1.14v6.29Z"/><path class="cls-2" d="M274.41,62.82v1.81H276v.87h-1.63v3.39c0,.78.22,1.23.85,1.23a2.58,2.58,0,0,0,.67-.08l.05.86a2.85,2.85,0,0,1-1,.15,1.58,1.58,0,0,1-1.23-.48,2.32,2.32,0,0,1-.44-1.64V65.5h-1v-.87h1V63.12Z"/><path class="cls-2" d="M278.6,62.86a.67.67,0,0,1-.72.7.68.68,0,0,1-.69-.7.69.69,0,0,1,.71-.71A.67.67,0,0,1,278.6,62.86Zm-1.27,8.06V64.63h1.14v6.29Z"/><path class="cls-2" d="M286.07,67.72a3.08,3.08,0,0,1-3.14,3.34,3,3,0,0,1-3-3.23A3.07,3.07,0,0,1,283,64.49,3,3,0,0,1,286.07,67.72Zm-5,.07c0,1.38.8,2.42,1.91,2.42s1.92-1,1.92-2.45c0-1.06-.54-2.42-1.89-2.42S281.07,66.59,281.07,67.79Z"/><path class="cls-2" d="M287.51,66.33c0-.65,0-1.18-.05-1.7h1l.07,1h0a2.31,2.31,0,0,1,2.08-1.18c.87,0,2.22.52,2.22,2.67v3.76h-1.14V67.29c0-1-.38-1.85-1.46-1.85a1.63,1.63,0,0,0-1.53,1.17,1.64,1.64,0,0,0-.08.53v3.78h-1.14Z"/><path class="cls-2" d="M295.36,68a2,2,0,0,0,2.16,2.19,4.15,4.15,0,0,0,1.74-.33l.2.82a5.2,5.2,0,0,1-2.1.39,2.92,2.92,0,0,1-3.09-3.17c0-1.9,1.12-3.39,3-3.39,2,0,2.6,1.8,2.6,3a4.82,4.82,0,0,1,0,.53Zm3.35-.82a1.61,1.61,0,0,0-1.58-1.85,1.89,1.89,0,0,0-1.76,1.85Z"/><path class="cls-2" d="M301.24,66.59c0-.74,0-1.38-.06-2h1l0,1.23h.06A1.88,1.88,0,0,1,304,64.49a1,1,0,0,1,.32,0V65.6a2.13,2.13,0,0,0-.39,0A1.61,1.61,0,0,0,302.42,67a2.92,2.92,0,0,0-.05.54v3.35h-1.13Z"/><path class="cls-2" d="M305.33,69.75a3,3,0,0,0,1.51.46c.83,0,1.22-.42,1.22-.94s-.32-.84-1.17-1.16c-1.13-.4-1.66-1-1.66-1.78a1.94,1.94,0,0,1,2.17-1.84,3.15,3.15,0,0,1,1.55.39l-.29.83a2.41,2.41,0,0,0-1.29-.37c-.67,0-1.05.39-1.05.86s.38.76,1.2,1.07c1.09.41,1.65,1,1.65,1.9,0,1.1-.86,1.88-2.36,1.88a3.62,3.62,0,0,1-1.77-.43Z"/><path class="cls-2" d="M207,411.73a17.72,17.72,0,0,1,2.89-.2,4.56,4.56,0,0,1,2.89.76,2.77,2.77,0,0,1,1,2.19,3,3,0,0,1-.86,2.24,4.42,4.42,0,0,1-3.07,1,5.16,5.16,0,0,1-.73,0V421H207Zm2.12,4.29a3.45,3.45,0,0,0,.71.05c1.14,0,1.84-.57,1.84-1.54s-.6-1.39-1.67-1.39a3.63,3.63,0,0,0-.88.09Z"/><path class="cls-2" d="M223.75,416.23c0,3.09-1.88,5-4.64,5s-4.44-2.12-4.44-4.81,1.81-4.94,4.6-4.94S223.75,413.62,223.75,416.23Zm-6.82.12c0,1.85.87,3.15,2.3,3.15s2.27-1.37,2.27-3.2-.82-3.16-2.29-3.16S216.93,414.52,216.93,416.35Z"/><path class="cls-2" d="M226.58,413.4H224v-1.8h7.26v1.8h-2.58V421h-2.14Z"/><path class="cls-2" d="M233.62,418.62l-.68,2.42h-2.21l2.89-9.44h2.8l2.93,9.44h-2.3l-.73-2.42ZM236,417l-.59-2c-.16-.56-.33-1.26-.47-1.82h0c-.14.56-.28,1.28-.43,1.82l-.56,2Z"/><path class="cls-2" d="M240.6,411.73a17.22,17.22,0,0,1,2.76-.2,5.19,5.19,0,0,1,2.79.54,2,2,0,0,1,1.13,1.85,2.12,2.12,0,0,1-1.55,2v0a2.36,2.36,0,0,1,1.88,2.33,2.55,2.55,0,0,1-1,2,6,6,0,0,1-3.72.85,16.56,16.56,0,0,1-2.31-.14Zm2.12,3.61h.7c1.12,0,1.72-.46,1.72-1.16s-.55-1.09-1.51-1.09a7.43,7.43,0,0,0-.91.05Zm0,4.19a6.22,6.22,0,0,0,.82,0c1,0,1.82-.36,1.82-1.36s-.85-1.33-1.91-1.33h-.73Z"/><path class="cls-2" d="M249.06,411.6h2.14v7.65H255V421h-5.9Z"/><path class="cls-2" d="M261.83,417.05h-3.47v2.24h3.88V421h-6V411.6H262v1.75h-3.68v2h3.47Z"/><path class="cls-2" d="M267.52,421l-2.24-9.44h2.29l.71,3.9c.21,1.12.41,2.34.56,3.29h0c.15-1,.38-2.16.62-3.32l.79-3.87h2.27l.76,4c.21,1.11.36,2.12.5,3.17h0c.14-1.05.35-2.16.55-3.28l.77-3.87h2.17L274.89,421h-2.31l-.8-4.06c-.18-1-.33-1.83-.45-2.91h0c-.17,1.06-.33,2-.55,2.91l-.9,4.06Z"/><path class="cls-2" d="M279.87,418.62,279.2,421H277l2.88-9.44h2.8L285.6,421h-2.3l-.72-2.42Zm2.4-1.6-.59-2c-.17-.56-.34-1.26-.48-1.82h0c-.14.56-.28,1.28-.44,1.82l-.56,2Z"/><path class="cls-2" d="M287.52,413.4H285v-1.8h7.26v1.8h-2.58V421h-2.14Z"/><path class="cls-2" d="M299,417.05h-3.48v2.24h3.88V421h-6V411.6h5.83v1.75h-3.69v2H299Z"/><path class="cls-2" d="M300.84,411.73a19,19,0,0,1,2.85-.2,4.75,4.75,0,0,1,3.05.75,2.38,2.38,0,0,1,.87,2,2.52,2.52,0,0,1-1.67,2.33v0a2.36,2.36,0,0,1,1.26,1.76c.3,1.07.59,2.3.77,2.66h-2.18a11,11,0,0,1-.66-2.19c-.25-1.18-.66-1.5-1.53-1.52H303V421h-2.12Zm2.12,4.06h.84c1.06,0,1.69-.53,1.69-1.36s-.58-1.3-1.57-1.31a5.09,5.09,0,0,0-1,.07Z"/><path class="cls-2" d="M195,426.64v1.81h1.63v.87H195v3.39c0,.79.22,1.23.85,1.23a2.58,2.58,0,0,0,.67-.08l0,.86a2.82,2.82,0,0,1-1,.15,1.59,1.59,0,0,1-1.24-.48,2.35,2.35,0,0,1-.44-1.64v-3.43h-1v-.87h1v-1.51Z"/><path class="cls-2" d="M203.54,431.54a3.09,3.09,0,0,1-3.14,3.35,3,3,0,0,1-3-3.24,3.07,3.07,0,0,1,3.12-3.34A3,3,0,0,1,203.54,431.54Zm-5,.07c0,1.38.8,2.42,1.92,2.42s1.91-1,1.91-2.45c0-1.06-.54-2.41-1.89-2.41S198.54,430.41,198.54,431.61Z"/><path class="cls-2" d="M212.22,434.51a4.17,4.17,0,0,1-1.81.36,3,3,0,0,1-3.13-3.21,3.2,3.2,0,0,1,3.38-3.34,3.79,3.79,0,0,1,1.59.33l-.26.88a2.66,2.66,0,0,0-1.33-.3,2.18,2.18,0,0,0-2.22,2.38,2.15,2.15,0,0,0,2.18,2.35,3.35,3.35,0,0,0,1.41-.31Z"/><path class="cls-2" d="M213.56,430.41c0-.74,0-1.37-.05-2h1l0,1.24h0a1.88,1.88,0,0,1,1.74-1.38,1.15,1.15,0,0,1,.33,0v1.08a1.56,1.56,0,0,0-.39,0,1.61,1.61,0,0,0-1.54,1.47,3.83,3.83,0,0,0-.05.53v3.35h-1.13Z"/><path class="cls-2" d="M218.32,431.81a2,2,0,0,0,2.16,2.18,4,4,0,0,0,1.74-.33l.19.82a4.94,4.94,0,0,1-2.09.39,2.91,2.91,0,0,1-3.09-3.17c0-1.9,1.11-3.39,3-3.39a2.67,2.67,0,0,1,2.6,3,5.05,5.05,0,0,1,0,.54Zm3.35-.82a1.63,1.63,0,0,0-1.58-1.86,1.89,1.89,0,0,0-1.76,1.86Z"/><path class="cls-2" d="M224.65,428.45l.83,3.2c.18.7.35,1.35.47,2h0c.14-.64.35-1.31.56-2l1-3.21h1l1,3.15c.23.75.42,1.41.56,2h0a17.38,17.38,0,0,1,.48-2l.9-3.16h1.13l-2,6.29h-1l-1-3a19.66,19.66,0,0,1-.56-2.07h0a17,17,0,0,1-.57,2.08l-1,3h-1l-1.9-6.29Z"/><path class="cls-2" d="M237,428.45l.83,3.2c.19.7.36,1.35.47,2h0c.14-.64.35-1.31.56-2l1-3.21h1l1,3.15c.24.75.42,1.41.56,2h0c.11-.64.28-1.3.48-2l.9-3.16h1.13l-2,6.29h-1l-1-3c-.22-.7-.4-1.33-.56-2.07h0a17,17,0,0,1-.58,2.08l-1,3h-1l-1.9-6.29Z"/><path class="cls-2" d="M249.52,434.74l-.09-.79h0a2.36,2.36,0,0,1-1.93.94,1.79,1.79,0,0,1-1.92-1.81c0-1.52,1.35-2.35,3.78-2.34v-.13a1.3,1.3,0,0,0-1.43-1.46,3.14,3.14,0,0,0-1.64.47l-.26-.75a3.91,3.91,0,0,1,2.07-.56c1.93,0,2.39,1.31,2.39,2.57v2.36a8.58,8.58,0,0,0,.11,1.5Zm-.17-3.21c-1.25,0-2.67.2-2.67,1.42a1,1,0,0,0,1.08,1.09,1.56,1.56,0,0,0,1.52-1.05,1.21,1.21,0,0,0,.07-.37Z"/><path class="cls-2" d="M253.62,426.64v1.81h1.64v.87h-1.64v3.39c0,.79.23,1.23.86,1.23a2.58,2.58,0,0,0,.67-.08l0,.86a2.85,2.85,0,0,1-1,.15,1.58,1.58,0,0,1-1.23-.48,2.3,2.3,0,0,1-.44-1.64v-3.43h-1v-.87h1v-1.51Z"/><path class="cls-2" d="M257.11,431.81a2,2,0,0,0,2.16,2.18,4,4,0,0,0,1.74-.33l.19.82a4.94,4.94,0,0,1-2.09.39A2.91,2.91,0,0,1,256,431.7c0-1.9,1.11-3.39,3-3.39a2.67,2.67,0,0,1,2.6,3,5.05,5.05,0,0,1,0,.54Zm3.35-.82a1.62,1.62,0,0,0-1.58-1.86,1.89,1.89,0,0,0-1.76,1.86Z"/><path class="cls-2" d="M263,430.41c0-.74,0-1.37-.06-2h1l0,1.24H264a1.87,1.87,0,0,1,1.74-1.38,1,1,0,0,1,.32,0v1.08a1.51,1.51,0,0,0-.39,0,1.6,1.6,0,0,0-1.53,1.47,2.73,2.73,0,0,0-.05.53v3.35H263Z"/><path class="cls-2" d="M275.43,425.51v7.61c0,.56,0,1.19.05,1.62h-1l-.05-1.09h0a2.33,2.33,0,0,1-2.14,1.24c-1.52,0-2.69-1.29-2.69-3.2,0-2.1,1.28-3.38,2.82-3.38a2.11,2.11,0,0,1,1.9,1h0v-3.76Zm-1.15,5.5a2,2,0,0,0,0-.48,1.67,1.67,0,0,0-1.65-1.32c-1.18,0-1.89,1-1.89,2.43s.63,2.32,1.86,2.32a1.72,1.72,0,0,0,1.68-1.36,2,2,0,0,0,0-.5Z"/><path class="cls-2" d="M278.6,426.68a.71.71,0,0,1-1.42,0,.7.7,0,0,1,.72-.71A.67.67,0,0,1,278.6,426.68Zm-1.28,8.06v-6.29h1.15v6.29Z"/><path class="cls-2" d="M280.21,433.57a3,3,0,0,0,1.51.46c.83,0,1.22-.42,1.22-.94s-.32-.84-1.17-1.15c-1.13-.41-1.66-1-1.66-1.79a1.93,1.93,0,0,1,2.17-1.84,3.11,3.11,0,0,1,1.54.39l-.28.83a2.42,2.42,0,0,0-1.29-.36c-.67,0-1.05.39-1.05.85s.38.76,1.19,1.07c1.1.42,1.65,1,1.65,1.9,0,1.1-.85,1.88-2.35,1.88a3.62,3.62,0,0,1-1.77-.43Z"/><path class="cls-2" d="M285.51,430.5c0-.8,0-1.45-.05-2.05h1l.05,1.08h0a2.47,2.47,0,0,1,2.23-1.22c1.52,0,2.67,1.28,2.67,3.2,0,2.26-1.38,3.38-2.86,3.38a2.23,2.23,0,0,1-1.94-1h0v3.42h-1.13Zm1.13,1.68a2.23,2.23,0,0,0,.06.47,1.75,1.75,0,0,0,1.71,1.34c1.21,0,1.91-1,1.91-2.43,0-1.26-.66-2.34-1.87-2.34a1.83,1.83,0,0,0-1.73,1.41,1.93,1.93,0,0,0-.08.47Z"/><path class="cls-2" d="M293.55,431.81a2,2,0,0,0,2.16,2.18,4,4,0,0,0,1.74-.33l.19.82a4.94,4.94,0,0,1-2.09.39,2.91,2.91,0,0,1-3.09-3.17c0-1.9,1.11-3.39,3-3.39a2.67,2.67,0,0,1,2.6,3,5.05,5.05,0,0,1,0,.54Zm3.35-.82a1.62,1.62,0,0,0-1.58-1.86,1.89,1.89,0,0,0-1.76,1.86Z"/><path class="cls-2" d="M299.42,430.15c0-.65,0-1.18-.05-1.7h1l.06,1h0a2.31,2.31,0,0,1,2.08-1.18c.87,0,2.22.52,2.22,2.68v3.75h-1.14v-3.62c0-1-.38-1.86-1.46-1.86a1.62,1.62,0,0,0-1.53,1.17,1.44,1.44,0,0,0-.08.53v3.78h-1.15Z"/><path class="cls-2" d="M306.48,433.57A3,3,0,0,0,308,434c.83,0,1.22-.42,1.22-.94s-.32-.84-1.17-1.15c-1.13-.41-1.66-1-1.66-1.79a1.94,1.94,0,0,1,2.17-1.84,3.12,3.12,0,0,1,1.55.39l-.29.83a2.42,2.42,0,0,0-1.29-.36c-.67,0-1,.39-1,.85s.38.76,1.2,1.07c1.09.42,1.65,1,1.65,1.9,0,1.1-.86,1.88-2.36,1.88a3.58,3.58,0,0,1-1.76-.43Z"/><path class="cls-2" d="M312.42,431.81a2,2,0,0,0,2.16,2.18,4,4,0,0,0,1.74-.33l.2.82a5,5,0,0,1-2.1.39,2.92,2.92,0,0,1-3.09-3.17c0-1.9,1.12-3.39,2.95-3.39,2.06,0,2.6,1.81,2.6,3a3.31,3.31,0,0,1,0,.54Zm3.36-.82a1.63,1.63,0,0,0-1.59-1.86,1.88,1.88,0,0,0-1.75,1.86Z"/><path class="cls-2" d="M318.3,430.41c0-.74,0-1.37-.05-2h1l0,1.24h0a1.87,1.87,0,0,1,1.74-1.38,1.15,1.15,0,0,1,.33,0v1.08a1.56,1.56,0,0,0-.39,0,1.61,1.61,0,0,0-1.54,1.47,3.83,3.83,0,0,0-.05.53v3.35H318.3Z"/><rect class="cls-5" x="680.2" y="342.14" width="84.86" height="43.9"/><path class="cls-2" d="M765.06,386.54H680.2a.5.5,0,0,1-.5-.5v-43.9a.5.5,0,0,1,.5-.5h84.86a.5.5,0,0,1,.5.5V386A.51.51,0,0,1,765.06,386.54Zm-84.36-1h83.86v-42.9H680.7Z"/><polyline class="cls-6" points="657.71 364.09 680.2 386.04 657.71 364.09 657.71 320.19 680.2 342.14 680.2 386.04"/><path class="cls-2" d="M680.2,386.54a.49.49,0,0,1-.35-.15l-22.49-21.95a.51.51,0,0,1-.15-.35v-43.9a.5.5,0,0,1,.31-.46.49.49,0,0,1,.54.1l22.49,21.95a.48.48,0,0,1,.15.36V386h0a.54.54,0,0,1-.14.35A.51.51,0,0,1,680.2,386.54Zm-22-22.66,21.49,21v-42.5l-21.49-21Z"/><polygon class="cls-7" points="657.71 320.19 742.57 320.19 765.06 342.14 680.2 342.14 657.71 320.19"/><path class="cls-2" d="M765.06,342.64H680.2a.5.5,0,0,1-.35-.14l-22.49-21.95a.51.51,0,0,1-.11-.55.5.5,0,0,1,.46-.31h84.86a.5.5,0,0,1,.35.14l22.49,21.95a.5.5,0,0,1-.35.86Zm-84.66-1h83.43l-21.46-20.95H658.94Z"/></g></svg>