<svg xmlns="http://www.w3.org/2000/svg" viewBox="0 0 1190 700"><defs><style>.cls-1{fill:#595a5a;}.cls-2{fill:#fff;}</style></defs><g id="Layer_1" data-name="Layer 1"><polygon class="cls-1" points="800.86 464.43 800.86 370.57 763.03 323.64 763.03 323.64 426.97 323.64 426.97 323.64 389.14 370.57 389.14 464.43 426.97 511.35 763.03 511.35 800.86 464.43"/><path class="cls-2" d="M763.75,512.85H426.25L387.64,465V370l38.61-47.9h337.5L802.36,370V465Zm-336.06-3H762.31l37.05-46V371.1l-37.05-46H427.69l-37.05,46v92.8Z"/><polygon class="cls-1" points="981.7 27.73 864.85 27.73 806.42 27.73 806.42 59.13 806.42 59.13 806.42 272.41 864.85 297.17 981.7 297.17 1040.13 272.41 1040.13 272.41 1040.13 59.13 1040.13 59.13 1040.13 27.73 981.7 27.73"/><path class="cls-2" d="M982,298.67H864.54L804.92,273.4V26.23h236.71V273.4Zm-116.85-3H981.4l57.23-24.26V29.23H807.92V271.41Z"/><polygon class="cls-1" points="834.82 643.65 1011.73 643.65 1011.73 556.57 967.5 537.83 879.04 537.83 834.82 556.57 834.82 556.57 834.82 643.65"/><path class="cls-2" d="M1013.23,645.15H833.32V555.58l45.42-19.25h89.07l.28.12,45.14,19.13Zm-176.91-3h173.91V557.57l-43-18.24H879.35l-43,18.24Z"/><polygon class="cls-1" points="383.58 74.82 383.58 52.49 383.58 52.49 325.15 27.73 313.55 27.73 313.55 18.5 223.05 18.5 223.05 27.73 208.3 27.73 149.87 52.49 149.87 74.82 128.87 74.82 128.87 145.93 149.87 145.93 149.87 272.41 208.3 297.17 325.15 297.17 383.58 272.41 383.58 272.41 383.58 145.93 404.04 145.93 404.04 74.82 383.58 74.82"/><path class="cls-2" d="M325.46,298.67H208l-.29-.12L148.37,273.4v-126h-21V73.32h21V51.49L208,26.23h13.55V17h93.5v9.24h10.41l.28.12,59.34,25.14V73.32h20.46v74.11H385.08v126Zm-116.86-3H324.85l57.23-24.26v-127h20.46V76.32H382.08V53.48L324.85,29.23h-12.8V20h-87.5v9.24h-16L151.37,53.48V76.32h-21v68.11h21v127Z"/><polygon class="cls-1" points="355.18 340.89 310.95 323.64 222.5 323.64 178.27 340.89 178.27 383.26 109.99 397.14 109.99 437.86 178.27 451.73 178.27 494.1 222.5 511.35 310.95 511.35 355.18 494.1 355.18 494.1 355.18 340.89 355.18 340.89"/><path class="cls-2" d="M311.24,512.85h-89l-45.45-17.72V453l-68.28-13.88V395.91L176.77,382V339.87l45.45-17.73h89l45.44,17.73V495.13Zm-88.46-3h87.89l43-16.77V341.92l-43-16.78H222.78l-43,16.78v42.57l-68.28,13.87v38.27l68.28,13.88v42.57Z"/><polygon class="cls-1" points="834.82 494.1 879.04 511.35 967.5 511.35 1011.73 494.1 1011.73 451.73 1080.01 437.86 1080.01 397.14 1011.73 383.26 1011.73 340.89 967.5 323.64 879.04 323.64 834.82 340.89 834.82 340.89 834.82 494.1 834.82 494.1"/><path class="cls-2" d="M967.79,512.85h-89l-45.44-17.72V339.87l45.44-17.73h89l45.44,17.73V382l68.28,13.87v43.17L1013.23,453v42.17Zm-88.46-3h87.89l43-16.77V450.51l68.28-13.88V398.36l-68.28-13.87V341.92l-43-16.78H879.33l-43,16.78V493.08Z"/><polygon class="cls-1" points="380.5 550.55 323.61 537.83 209.84 537.83 152.96 550.55 152.96 663.56 209.84 676.28 232.29 676.28 232.29 694.03 300.62 694.03 300.62 676.28 323.61 676.28 380.5 663.56 380.5 663.56 380.5 550.55 380.5 550.55"/><path class="cls-2" d="M302.12,695.53H230.79V677.78l-21.28,0-58-13V549.35l58.38-13H323.78l58.22,13V664.76l-58.39,13H302.12Zm-68.33-3h65.33V674.78h24.33L379,662.36V551.75l-55.55-12.42H210l-55.55,12.42V662.36L210,674.78h23.78Z"/></g><g id="Layer_2" data-name="Layer 2"><path class="cls-2" d="M226.54,45.37H224V43.58h7.26v1.79h-2.58V53h-2.14Z"/><path class="cls-2" d="M232.39,43.71a18.78,18.78,0,0,1,2.84-.2,4.82,4.82,0,0,1,3.05.74,2.41,2.41,0,0,1,.87,2,2.49,2.49,0,0,1-1.67,2.32v.05a2.37,2.37,0,0,1,1.27,1.76,24.31,24.31,0,0,0,.77,2.66h-2.19a11.74,11.74,0,0,1-.66-2.2c-.25-1.17-.66-1.5-1.52-1.51h-.65V53h-2.11Zm2.11,4.06h.84c1.07,0,1.7-.53,1.7-1.36s-.59-1.3-1.57-1.32a6.36,6.36,0,0,0-1,.07Z"/><path class="cls-2" d="M243,50.6,242.34,53h-2.21L243,43.58h2.8L248.74,53h-2.3l-.72-2.42Zm2.4-1.6-.59-2c-.17-.56-.34-1.26-.48-1.82h0c-.14.56-.28,1.27-.44,1.82l-.56,2Z"/><path class="cls-2" d="M250,53V43.58h2.49l2,3.46A27.44,27.44,0,0,1,256,50.28H256a35,35,0,0,1-.19-3.94V43.58h2V53h-2.24l-2-3.64a35.5,35.5,0,0,1-1.64-3.33h0c.06,1.25.09,2.58.09,4.12V53Z"/><path class="cls-2" d="M267.73,54.65A34.26,34.26,0,0,1,264,53.32a1.86,1.86,0,0,0-.66-.14c-2.13-.14-4.12-1.71-4.12-4.79,0-2.83,1.8-5,4.61-5s4.47,2.18,4.47,4.76a4.41,4.41,0,0,1-2.24,4.22v.05c.73.21,1.54.38,2.28.53ZM266,48.27c0-1.72-.81-3.15-2.26-3.15s-2.3,1.43-2.3,3.2.85,3.16,2.28,3.16S266,50.12,266,48.27Z"/><path class="cls-2" d="M271.82,43.58V49c0,1.62.62,2.45,1.71,2.45s1.74-.79,1.74-2.45V43.58h2.13v5.3c0,2.91-1.47,4.3-3.94,4.3s-3.78-1.32-3.78-4.33V43.58Z"/><path class="cls-2" d="M281.39,43.58V53h-2.15V43.58Z"/><path class="cls-2" d="M283.23,43.58h2.15v7.65h3.75V53h-5.9Z"/><path class="cls-2" d="M292.53,43.58V53h-2.14V43.58Z"/><path class="cls-2" d="M296.2,45.37h-2.54V43.58h7.26v1.79h-2.58V53H296.2Z"/><path class="cls-2" d="M304.33,53V49.16l-3-5.58h2.44l1,2.27c.3.69.49,1.19.73,1.81h0c.21-.59.43-1.14.71-1.81l1-2.27h2.39l-3.11,5.51V53Z"/><path class="cls-2" d="M229.93,341v5.44c0,1.63.62,2.45,1.71,2.45s1.74-.78,1.74-2.45V341h2.13v5.3c0,2.91-1.48,4.3-3.94,4.3s-3.78-1.32-3.78-4.33V341Z"/><path class="cls-2" d="M237.35,350.45V341h2.49l2,3.46a28.21,28.21,0,0,1,1.54,3.24h0a35,35,0,0,1-.19-3.94V341h2v9.45h-2.25l-2-3.65a33.23,33.23,0,0,1-1.64-3.33h0c.05,1.25.08,2.58.08,4.12v2.85Z"/><path class="cls-2" d="M249.15,341v9.45H247V341Z"/><path class="cls-2" d="M252.82,342.8h-2.54V341h7.26v1.8H255v7.65h-2.14Z"/><path class="cls-2" d="M261,350.45v-3.87L258,341h2.44l1,2.27c.3.69.49,1.19.73,1.81h0c.21-.59.43-1.13.71-1.81l1-2.27h2.39l-3.11,5.51v3.94Z"/><path class="cls-2" d="M270,350.45V341h2.49l2,3.46A28.21,28.21,0,0,1,276,347.7h.05a35,35,0,0,1-.19-3.94V341h2v9.45h-2.24l-2-3.65a33.23,33.23,0,0,1-1.64-3.33h0c.05,1.25.08,2.58.08,4.12v2.85Z"/><path class="cls-2" d="M288.34,345.63c0,3.09-1.88,5-4.64,5s-4.44-2.11-4.44-4.8,1.81-4.95,4.6-4.95S288.34,343,288.34,345.63Zm-6.82.12c0,1.85.87,3.16,2.3,3.16s2.26-1.38,2.26-3.21-.81-3.15-2.28-3.15S281.52,343.92,281.52,345.75Z"/><path class="cls-2" d="M289.74,341.13a18.5,18.5,0,0,1,2.88-.19,6.11,6.11,0,0,1,3.87,1,4.18,4.18,0,0,1,1.59,3.56,4.79,4.79,0,0,1-1.56,3.83,6.84,6.84,0,0,1-4.36,1.21,18.37,18.37,0,0,1-2.42-.14Zm2.14,7.7a3.31,3.31,0,0,0,.74.05c1.93,0,3.2-1.05,3.2-3.31a2.71,2.71,0,0,0-3-3,4.46,4.46,0,0,0-1,.09Z"/><path class="cls-2" d="M305.1,346.45h-3.48v2.25h3.88v1.75h-6V341h5.83v1.76h-3.69v2h3.48Z"/><path class="cls-2" d="M225.63,564.27a32.28,32.28,0,0,1-3.73-1.33,1.86,1.86,0,0,0-.66-.14c-2.13-.14-4.11-1.71-4.11-4.79,0-2.83,1.79-5,4.6-5s4.47,2.18,4.47,4.76A4.4,4.4,0,0,1,224,562v.05c.73.21,1.54.38,2.28.54ZM224,557.9c0-1.73-.82-3.16-2.27-3.16s-2.3,1.43-2.3,3.2.86,3.16,2.28,3.16S224,559.75,224,557.9Z"/><path class="cls-2" d="M229.73,553.2v5.44c0,1.62.61,2.45,1.71,2.45s1.73-.78,1.73-2.45V553.2h2.13v5.3c0,2.91-1.47,4.3-3.93,4.3s-3.79-1.32-3.79-4.33V553.2Z"/><path class="cls-2" d="M242.76,558.65h-3.47v2.24h3.88v1.75h-6V553.2H243V555h-3.68v2h3.47Z"/><path class="cls-2" d="M244.69,560.45a5.55,5.55,0,0,0,2.37.58c1,0,1.5-.4,1.5-1s-.45-.92-1.58-1.33c-1.57-.55-2.6-1.41-2.6-2.79,0-1.61,1.35-2.84,3.58-2.84a5.62,5.62,0,0,1,2.4.48l-.47,1.72a4.53,4.53,0,0,0-2-.45c-.92,0-1.37.42-1.37.91s.53.87,1.75,1.33c1.67.62,2.45,1.49,2.45,2.82,0,1.58-1.22,2.92-3.81,2.92a6.21,6.21,0,0,1-2.67-.57Z"/><path class="cls-2" d="M254,555h-2.53v-1.8h7.25V555h-2.57v7.64H254Z"/><path class="cls-2" d="M264.88,560.22l-.67,2.42H262l2.88-9.44h2.8l2.93,9.44h-2.3l-.73-2.42Zm2.4-1.6-.59-2c-.17-.56-.34-1.26-.48-1.82h0c-.14.56-.28,1.28-.43,1.82l-.56,2Z"/><path class="cls-2" d="M274,553.2v9.44h-2.14V553.2Z"/><path class="cls-2" d="M275.86,553.33a18.78,18.78,0,0,1,2.84-.2,4.75,4.75,0,0,1,3.05.75,2.38,2.38,0,0,1,.87,2,2.5,2.5,0,0,1-1.67,2.33v0a2.37,2.37,0,0,1,1.27,1.76,24.31,24.31,0,0,0,.77,2.66H280.8a11.81,11.81,0,0,1-.66-2.19c-.25-1.18-.66-1.5-1.53-1.52H278v3.71h-2.11Zm2.11,4.06h.84c1.07,0,1.7-.53,1.7-1.36s-.59-1.3-1.57-1.31a5.14,5.14,0,0,0-1,.07Z"/><path class="cls-2" d="M284.16,553.2h2.14v7.65h3.75v1.79h-5.89Z"/><path class="cls-2" d="M299.42,557.83c0,3.09-1.88,5-4.64,5s-4.44-2.12-4.44-4.81,1.81-4.94,4.6-4.94S299.42,555.22,299.42,557.83Zm-6.82.12c0,1.85.87,3.15,2.3,3.15s2.27-1.37,2.27-3.2-.82-3.16-2.29-3.16S292.6,556.12,292.6,558Z"/><path class="cls-2" d="M307.75,562.38a6.19,6.19,0,0,1-2.42.4c-3.27,0-4.95-2-4.95-4.72a4.81,4.81,0,0,1,5.16-5,5.51,5.51,0,0,1,2.32.42l-.43,1.69a4.68,4.68,0,0,0-1.79-.35,2.85,2.85,0,0,0-3,3.13,2.82,2.82,0,0,0,3,3.08,5.31,5.31,0,0,0,1.78-.31Z"/><path class="cls-2" d="M309.15,553.2h2.11v4.18h0c.21-.37.44-.7.65-1l2.14-3.14h2.62l-3.12,4,3.29,5.42h-2.49l-2.32-4.07-.81,1v3.08h-2.11Z"/><path class="cls-2" d="M554.93,340.84a18.39,18.39,0,0,1,2.88-.2,6.07,6.07,0,0,1,3.87,1,4.18,4.18,0,0,1,1.59,3.56,4.77,4.77,0,0,1-1.56,3.82,6.78,6.78,0,0,1-4.36,1.22,18.37,18.37,0,0,1-2.42-.14Zm2.14,7.7a4.12,4.12,0,0,0,.74,0c1.93,0,3.2-1.05,3.2-3.3a2.71,2.71,0,0,0-3-3,3.89,3.89,0,0,0-1,.09Z"/><path class="cls-2" d="M570.29,346.16h-3.48v2.24h3.88v1.75h-6v-9.44h5.83v1.75h-3.69v2h3.48Z"/><path class="cls-2" d="M572.22,348a5.32,5.32,0,0,0,2.36.59c1,0,1.5-.4,1.5-1s-.45-.92-1.58-1.33c-1.57-.55-2.59-1.42-2.59-2.79,0-1.61,1.34-2.84,3.57-2.84a5.85,5.85,0,0,1,2.41.47l-.48,1.73a4.51,4.51,0,0,0-2-.45c-.93,0-1.37.42-1.37.91s.53.87,1.75,1.33c1.66.62,2.45,1.49,2.45,2.82,0,1.58-1.22,2.92-3.81,2.92a6.26,6.26,0,0,1-2.68-.57Z"/><path class="cls-2" d="M581.53,342.5H579v-1.79h7.26v1.79h-2.58v7.65h-2.14Z"/><path class="cls-2" d="M589.52,340.71v9.44h-2.14v-9.44Z"/><path class="cls-2" d="M591.37,350.15v-9.44h2.49l2,3.46a27.44,27.44,0,0,1,1.54,3.24h0a35,35,0,0,1-.19-3.94v-2.76h2v9.44h-2.24l-2-3.64a35.5,35.5,0,0,1-1.64-3.33h0c.06,1.25.09,2.58.09,4.12v2.84Z"/><path class="cls-2" d="M603,350.15v-3.86l-3-5.58h2.44l1,2.27c.3.69.49,1.19.73,1.81h0c.21-.59.43-1.14.71-1.81l.95-2.27h2.4l-3.11,5.51v3.93Z"/><path class="cls-2" d="M612.05,340.71h2.14v7.65h3.75v1.79h-5.89Z"/><path class="cls-2" d="M621.48,347.73l-.67,2.42H618.6l2.88-9.44h2.8l2.93,9.44h-2.29l-.73-2.42Zm2.4-1.6-.59-2c-.17-.56-.34-1.26-.48-1.82h0c-.14.56-.28,1.27-.44,1.82l-.56,2Z"/><path class="cls-2" d="M628.47,340.84a17.12,17.12,0,0,1,2.76-.2,5.24,5.24,0,0,1,2.78.53,2.06,2.06,0,0,1,1.14,1.85,2.13,2.13,0,0,1-1.56,2v0a2.35,2.35,0,0,1,1.88,2.32,2.52,2.52,0,0,1-1,2,6,6,0,0,1-3.71.85,16.44,16.44,0,0,1-2.31-.14Zm2.11,3.61h.7c1.12,0,1.73-.46,1.73-1.16s-.55-1.09-1.52-1.09a5.8,5.8,0,0,0-.91.05Zm0,4.19a6.3,6.3,0,0,0,.83,0c1,0,1.82-.37,1.82-1.36s-.85-1.33-1.92-1.33h-.73Z"/><path class="cls-2" d="M886.81,43.58h2.12v4.18h0c.21-.37.43-.7.64-1l2.15-3.14h2.62l-3.13,4L894.54,53h-2.49L889.74,49l-.81,1V53h-2.12Z"/><path class="cls-2" d="M897.55,43.58V53h-2.14V43.58Z"/><path class="cls-2" d="M899.4,43.71a17.12,17.12,0,0,1,2.76-.2A5.3,5.3,0,0,1,905,44a2.07,2.07,0,0,1,1.13,1.85,2.13,2.13,0,0,1-1.56,2v0a2.35,2.35,0,0,1,1.88,2.32,2.52,2.52,0,0,1-1,2,6,6,0,0,1-3.71.85A16.44,16.44,0,0,1,899.4,53Zm2.11,3.61h.7c1.12,0,1.73-.46,1.73-1.16s-.55-1.09-1.52-1.09a5.89,5.89,0,0,0-.91,0Zm0,4.19a6.39,6.39,0,0,0,.83,0c1,0,1.82-.37,1.82-1.36s-.85-1.33-1.92-1.33h-.73Z"/><path class="cls-2" d="M916.5,48.2c0,3.1-1.88,5-4.64,5s-4.44-2.12-4.44-4.81,1.81-4.94,4.59-4.94S916.5,45.6,916.5,48.2Zm-6.83.13c0,1.85.87,3.15,2.3,3.15s2.27-1.37,2.27-3.21-.81-3.15-2.28-3.15S909.67,46.49,909.67,48.33Z"/><path class="cls-2" d="M923.72,43.34A10.69,10.69,0,0,0,922.3,49a10.78,10.78,0,0,0,1.42,5.63h-1.49A9.8,9.8,0,0,1,920.64,49a9.94,9.94,0,0,1,1.59-5.66Z"/><path class="cls-2" d="M927.11,43.58h2.12v6c0,2.69-1.28,3.63-3.36,3.63a5.53,5.53,0,0,1-1.55-.23l.24-1.72a3.42,3.42,0,0,0,1.09.17c.89,0,1.46-.41,1.46-1.88Z"/><path class="cls-2" d="M933.21,50.6,932.54,53h-2.22l2.89-9.44H936L938.94,53h-2.3l-.73-2.42ZM935.6,49,935,47c-.17-.56-.34-1.26-.48-1.82h0c-.14.56-.28,1.27-.43,1.82l-.56,2Z"/><path class="cls-2" d="M944.83,53,944,51.31c-.36-.66-.58-1.15-.85-1.69h0c-.2.54-.44,1-.73,1.69L941.59,53h-2.43l2.73-4.77-2.64-4.67h2.46l.82,1.72c.28.58.49,1,.72,1.57h0c.22-.6.4-1,.64-1.57l.8-1.72h2.44l-2.67,4.61,2.8,4.83Z"/><path class="cls-2" d="M950.46,50.6,949.78,53h-2.21l2.89-9.44h2.8L956.19,53h-2.3l-.73-2.42Zm2.39-1.6-.59-2c-.16-.56-.33-1.26-.47-1.82h0c-.14.56-.28,1.27-.43,1.82l-.57,2Z"/><path class="cls-2" d="M956.75,54.65A10.89,10.89,0,0,0,958.17,49a10.8,10.8,0,0,0-1.42-5.65h1.49a9.82,9.82,0,0,1,1.6,5.65,10.06,10.06,0,0,1-1.6,5.66Z"/><path class="cls-2" d="M892.91,340.56v3.63h3.52v-3.63h2.13V350h-2.13v-3.95h-3.52V350h-2.14v-9.44Z"/><path class="cls-2" d="M902.61,347.58l-.67,2.42h-2.21l2.88-9.44h2.8l2.93,9.44H906l-.72-2.42ZM905,346l-.59-2c-.17-.56-.34-1.26-.48-1.82h0c-.15.56-.29,1.27-.44,1.82l-.56,2Z"/><path class="cls-2" d="M909.6,340.68a19.08,19.08,0,0,1,2.84-.19,4.82,4.82,0,0,1,3,.74,2.41,2.41,0,0,1,.87,2,2.5,2.5,0,0,1-1.66,2.32v0a2.42,2.42,0,0,1,1.26,1.77,25,25,0,0,0,.77,2.66h-2.19a12.3,12.3,0,0,1-.66-2.2c-.25-1.18-.66-1.5-1.52-1.51h-.65V350H909.6Zm2.11,4.07h.84c1.07,0,1.7-.54,1.7-1.36s-.59-1.3-1.57-1.32a5.23,5.23,0,0,0-1,.07Z"/><path class="cls-2" d="M925.88,346.39c0-1.14-.08-2.51-.08-3.88h0c-.3,1.2-.69,2.55-1,3.65l-1.15,3.69h-1.67l-1-3.66c-.31-1.11-.63-2.45-.85-3.68h0c-.06,1.27-.1,2.73-.17,3.9l-.17,3.59h-2l.6-9.44h2.84l.93,3.15c.29,1.09.59,2.27.8,3.38h0c.27-1.1.59-2.34.9-3.39l1-3.14h2.79l.52,9.44H926Z"/><path class="cls-2" d="M938.38,345.18c0,3.1-1.87,5-4.63,5s-4.44-2.11-4.44-4.8,1.81-4.94,4.59-4.94S938.38,342.58,938.38,345.18Zm-6.82.13c0,1.85.87,3.15,2.3,3.15s2.27-1.37,2.27-3.21-.81-3.15-2.28-3.15S931.56,343.47,931.56,345.31Z"/><path class="cls-2" d="M939.78,350v-9.44h2.49l2,3.46a27.37,27.37,0,0,1,1.55,3.23h0a34.85,34.85,0,0,1-.19-3.93v-2.76h2V350h-2.24l-2-3.64A34.5,34.5,0,0,1,941.7,343l0,0c.05,1.25.08,2.58.08,4.12V350Z"/><path class="cls-2" d="M951.37,350v-3.87l-3-5.57h2.44l1,2.27c.3.68.49,1.19.73,1.8h0c.21-.58.43-1.13.71-1.8l1-2.27h2.39l-3.11,5.5V350Z"/><path class="cls-2" d="M877.53,562.38a6.29,6.29,0,0,1-2.43.4c-3.26,0-4.94-2-4.94-4.72a4.81,4.81,0,0,1,5.15-5,5.52,5.52,0,0,1,2.33.42l-.43,1.69a4.7,4.7,0,0,0-1.8-.35,3.11,3.11,0,0,0,0,6.21,5.36,5.36,0,0,0,1.78-.31Z"/><path class="cls-2" d="M887.15,557.83c0,3.09-1.88,5-4.64,5s-4.44-2.12-4.44-4.81,1.81-4.94,4.59-4.94S887.15,555.22,887.15,557.83Zm-6.83.12c0,1.85.87,3.15,2.3,3.15s2.27-1.37,2.27-3.2-.81-3.16-2.28-3.16S880.32,556.12,880.32,558Z"/><path class="cls-2" d="M888.54,553.2h2.14v7.65h3.76v1.79h-5.9Z"/><path class="cls-2" d="M897.39,553.2v5.44c0,1.62.62,2.45,1.71,2.45s1.74-.78,1.74-2.45V553.2H903v5.3c0,2.91-1.47,4.3-3.93,4.3s-3.78-1.32-3.78-4.33V553.2Z"/><path class="cls-2" d="M912.79,559c0-1.13-.08-2.51-.08-3.88h0c-.3,1.21-.69,2.55-1,3.66l-1.15,3.68H908.8l-1-3.66c-.31-1.1-.63-2.45-.85-3.68h0c-.06,1.27-.1,2.73-.17,3.91l-.17,3.58h-2l.6-9.44H908l.93,3.16c.29,1.09.59,2.26.8,3.37h0c.27-1.09.59-2.34.9-3.39l1-3.14h2.79l.52,9.44h-2.09Z"/><path class="cls-2" d="M916.65,553.33a17.22,17.22,0,0,1,2.76-.2,5.19,5.19,0,0,1,2.79.54,2,2,0,0,1,1.13,1.84,2.13,2.13,0,0,1-1.55,2v0a2.36,2.36,0,0,1,1.88,2.32,2.55,2.55,0,0,1-1,2,6,6,0,0,1-3.72.85,16.56,16.56,0,0,1-2.31-.14Zm2.12,3.61h.7c1.12,0,1.72-.46,1.72-1.16s-.55-1.09-1.51-1.09a7.43,7.43,0,0,0-.91,0Zm0,4.19a6.22,6.22,0,0,0,.82,0c1,0,1.83-.36,1.83-1.36s-.86-1.33-1.92-1.33h-.73Z"/><path class="cls-2" d="M927.24,553.2v5.44c0,1.62.61,2.45,1.71,2.45s1.73-.78,1.73-2.45V553.2h2.13v5.3c0,2.91-1.47,4.3-3.93,4.3s-3.79-1.32-3.79-4.33V553.2Z"/><path class="cls-2" d="M934.73,560.45a5.46,5.46,0,0,0,2.36.58c1,0,1.5-.4,1.5-1s-.45-.92-1.58-1.33c-1.57-.55-2.59-1.41-2.59-2.79,0-1.61,1.34-2.84,3.57-2.84a5.64,5.64,0,0,1,2.41.48l-.48,1.72a4.47,4.47,0,0,0-2-.45c-.93,0-1.37.42-1.37.91s.53.87,1.75,1.33c1.66.62,2.45,1.49,2.45,2.82,0,1.58-1.22,2.92-3.81,2.92a6.29,6.29,0,0,1-2.68-.57Z"/><path class="cls-2" d="M948,553a10.7,10.7,0,0,0-1.41,5.68,10.85,10.85,0,0,0,1.41,5.63h-1.48a9.72,9.72,0,0,1-1.6-5.65,9.88,9.88,0,0,1,1.6-5.66Z"/><path class="cls-2" d="M955.06,558.65h-3.48v2.24h3.88v1.75h-6V553.2h5.83V555h-3.69v2h3.48Z"/><path class="cls-2" d="M957,560.45a5.46,5.46,0,0,0,2.36.58c1,0,1.5-.4,1.5-1s-.45-.92-1.58-1.33c-1.57-.55-2.59-1.41-2.59-2.79,0-1.61,1.34-2.84,3.57-2.84a5.67,5.67,0,0,1,2.41.48l-.48,1.72a4.51,4.51,0,0,0-2-.45c-.93,0-1.38.42-1.38.91s.54.87,1.76,1.33c1.66.62,2.45,1.49,2.45,2.82,0,1.58-1.22,2.92-3.81,2.92a6.26,6.26,0,0,1-2.68-.57Z"/><path class="cls-2" d="M966.67,560.22l-.67,2.42h-2.21l2.88-9.44h2.81l2.92,9.44h-2.29l-.73-2.42Zm2.4-1.6-.59-2c-.17-.56-.33-1.26-.48-1.82h0c-.14.56-.28,1.28-.44,1.82l-.56,2Z"/><path class="cls-2" d="M973,564.27a11,11,0,0,0,1.42-5.66A10.8,10.8,0,0,0,973,553h1.49a9.83,9.83,0,0,1,1.59,5.65,10,10,0,0,1-1.59,5.66Z"/><path class="cls-2" d="M187.81,70.54a13.13,13.13,0,0,1,2.17-.17,3.58,3.58,0,0,1,2.45.73,2.36,2.36,0,0,1,.77,1.83,2.56,2.56,0,0,1-.68,1.88,3.63,3.63,0,0,1-2.67,1,4.16,4.16,0,0,1-.91-.08V79.2h-1.13Zm1.13,4.23a4,4,0,0,0,.93.09c1.37,0,2.2-.67,2.2-1.88s-.82-1.71-2.07-1.71a4.82,4.82,0,0,0-1.06.09Z"/><path class="cls-2" d="M194.47,74.87c0-.74,0-1.38-.05-2h1l0,1.23h0a1.91,1.91,0,0,1,1.75-1.38,1.47,1.47,0,0,1,.32,0v1.08a2.13,2.13,0,0,0-.39,0,1.6,1.6,0,0,0-1.53,1.47,2.92,2.92,0,0,0,0,.54V79.2h-1.14Z"/><path class="cls-2" d="M199.23,76.26a2,2,0,0,0,2.16,2.19,4.15,4.15,0,0,0,1.74-.33l.2.82a5.16,5.16,0,0,1-2.1.39,2.92,2.92,0,0,1-3.09-3.17c0-1.9,1.12-3.4,3-3.4,2.06,0,2.6,1.81,2.6,3a3.26,3.26,0,0,1,0,.53Zm3.36-.82A1.63,1.63,0,0,0,201,73.58a1.89,1.89,0,0,0-1.75,1.86Z"/><path class="cls-2" d="M205,78a3,3,0,0,0,1.51.45c.83,0,1.22-.41,1.22-.93s-.32-.85-1.17-1.16c-1.13-.4-1.66-1-1.66-1.78A2,2,0,0,1,207,72.76a3.23,3.23,0,0,1,1.55.39l-.29.84a2.41,2.41,0,0,0-1.29-.37c-.67,0-1.05.39-1.05.86s.38.75,1.2,1.07c1.09.41,1.65,1,1.65,1.89,0,1.11-.86,1.89-2.36,1.89a3.58,3.58,0,0,1-1.76-.43Z"/><path class="cls-2" d="M210.1,78a3,3,0,0,0,1.51.45c.83,0,1.22-.41,1.22-.93s-.32-.85-1.17-1.16c-1.13-.4-1.66-1-1.66-1.78a2,2,0,0,1,2.17-1.85,3.22,3.22,0,0,1,1.54.39l-.28.84a2.41,2.41,0,0,0-1.29-.37c-.67,0-1,.39-1,.86s.38.75,1.19,1.07c1.1.41,1.66,1,1.66,1.89,0,1.11-.86,1.89-2.36,1.89a3.62,3.62,0,0,1-1.77-.43Z"/><path class="cls-2" d="M220.67,77.48c0,.65,0,1.23.05,1.72h-1l-.07-1h0a2.37,2.37,0,0,1-2.08,1.17c-1,0-2.17-.54-2.17-2.75V72.91h1.14v3.48c0,1.2.36,2,1.4,2a1.65,1.65,0,0,0,1.51-1,1.54,1.54,0,0,0,.11-.58V72.91h1.14Z"/><path class="cls-2" d="M222.57,74.87c0-.74,0-1.38,0-2h1l0,1.23h.05a1.89,1.89,0,0,1,1.74-1.38,1.47,1.47,0,0,1,.32,0v1.08a2,2,0,0,0-.39,0,1.61,1.61,0,0,0-1.53,1.47,2.92,2.92,0,0,0-.05.54V79.2h-1.13Z"/><path class="cls-2" d="M227.33,76.26a2,2,0,0,0,2.15,2.19,4.2,4.2,0,0,0,1.75-.33l.19.82a5.11,5.11,0,0,1-2.09.39,2.92,2.92,0,0,1-3.1-3.17c0-1.9,1.12-3.4,3-3.4,2.06,0,2.6,1.81,2.6,3,0,.23,0,.41,0,.53Zm3.35-.82a1.63,1.63,0,0,0-1.59-1.86,1.9,1.9,0,0,0-1.75,1.86Z"/><path class="cls-2" d="M189.47,107.4H186.8v-1h6.49v1h-2.68v7.8h-1.14Z"/><path class="cls-2" d="M193.94,112.26a2,2,0,0,0,2.16,2.18,4.17,4.17,0,0,0,1.74-.32l.2.82a5.2,5.2,0,0,1-2.1.39,2.92,2.92,0,0,1-3.09-3.17c0-1.9,1.12-3.4,3-3.4,2,0,2.6,1.81,2.6,3a5,5,0,0,1,0,.53Zm3.36-.82a1.63,1.63,0,0,0-1.59-1.86,1.91,1.91,0,0,0-1.76,1.86Z"/><path class="cls-2" d="M199.82,110.61c0-.65,0-1.18,0-1.7h1l0,1h0a2.16,2.16,0,0,1,2-1.16,1.85,1.85,0,0,1,1.78,1.26h0a2.73,2.73,0,0,1,.7-.82,2.2,2.2,0,0,1,1.39-.44c.84,0,2.07.55,2.07,2.73v3.71h-1.12v-3.56c0-1.21-.44-1.94-1.36-1.94a1.47,1.47,0,0,0-1.35,1,1.61,1.61,0,0,0-.1.57v3.89h-1.11v-3.77c0-1-.45-1.73-1.32-1.73a1.56,1.56,0,0,0-1.41,1.14,1.5,1.5,0,0,0-.09.56v3.8h-1.12Z"/><path class="cls-2" d="M210.66,111c0-.81,0-1.46,0-2h1l.06,1.07h0a2.49,2.49,0,0,1,2.24-1.22c1.52,0,2.66,1.29,2.66,3.2,0,2.26-1.37,3.38-2.86,3.38a2.18,2.18,0,0,1-1.93-1h0v3.42h-1.13Zm1.13,1.68a3.08,3.08,0,0,0,.05.46,1.76,1.76,0,0,0,1.72,1.34c1.21,0,1.91-1,1.91-2.43,0-1.26-.66-2.34-1.87-2.34a1.83,1.83,0,0,0-1.73,1.42,1.78,1.78,0,0,0-.08.47Z"/><path class="cls-2" d="M187.77,147c0-.81,0-1.46-.06-2.06h1l0,1.08h0a2.49,2.49,0,0,1,2.24-1.22c1.52,0,2.66,1.29,2.66,3.2,0,2.26-1.38,3.38-2.86,3.38a2.23,2.23,0,0,1-1.94-1h0v3.42h-1.13Zm1.13,1.67a2.26,2.26,0,0,0,0,.47,1.76,1.76,0,0,0,1.72,1.34c1.2,0,1.91-1,1.91-2.43,0-1.26-.67-2.34-1.88-2.34a1.82,1.82,0,0,0-1.72,1.42,1.78,1.78,0,0,0-.08.47Z"/><path class="cls-2" d="M195.16,147c0-.81,0-1.46,0-2.06h1l.05,1.08h0a2.47,2.47,0,0,1,2.23-1.22c1.52,0,2.67,1.29,2.67,3.2,0,2.26-1.38,3.38-2.86,3.38a2.23,2.23,0,0,1-1.94-1h0v3.42h-1.13Zm1.13,1.67a2.23,2.23,0,0,0,.06.47,1.74,1.74,0,0,0,1.71,1.34c1.21,0,1.91-1,1.91-2.43,0-1.26-.66-2.34-1.87-2.34a1.83,1.83,0,0,0-1.73,1.42,1.78,1.78,0,0,0-.08.47Z"/><path class="cls-2" d="M210.09,146.72c0,3-1.84,4.62-4.07,4.62s-3.94-1.8-3.94-4.45,1.73-4.6,4.07-4.6S210.09,144.12,210.09,146.72Zm-6.8.15c0,1.87,1,3.55,2.79,3.55s2.81-1.66,2.81-3.64c0-1.75-.91-3.57-2.79-3.57S203.29,144.94,203.29,146.87Z"/><path class="cls-2" d="M210.72,152.63l.82-.77c1.08-1,1.64-1.59,1.64-2.25a.88.88,0,0,0-1-.91,2,2,0,0,0-1.09.4l-.27-.58a2.5,2.5,0,0,1,1.58-.55,1.52,1.52,0,0,1,1.73,1.47c0,1-.74,1.69-1.73,2.56l-.4.37v0h2.22v.72h-3.51Z"/><path class="cls-2" d="M187.77,183c0-.81,0-1.46-.06-2.06h1l0,1.08h0a2.47,2.47,0,0,1,2.24-1.22c1.52,0,2.66,1.29,2.66,3.2,0,2.26-1.38,3.38-2.86,3.38a2.23,2.23,0,0,1-1.94-1h0v3.42h-1.13Zm1.13,1.67a2.26,2.26,0,0,0,0,.47,1.77,1.77,0,0,0,1.72,1.34c1.2,0,1.91-1,1.91-2.43,0-1.26-.67-2.34-1.88-2.34a1.82,1.82,0,0,0-1.72,1.42,1.77,1.77,0,0,0-.08.46Z"/><path class="cls-2" d="M195.16,183c0-.81,0-1.46,0-2.06h1l.05,1.08h0a2.46,2.46,0,0,1,2.23-1.22c1.52,0,2.67,1.29,2.67,3.2,0,2.26-1.38,3.38-2.86,3.38a2.23,2.23,0,0,1-1.94-1h0v3.42h-1.13Zm1.13,1.67a2.23,2.23,0,0,0,.06.47,1.75,1.75,0,0,0,1.71,1.34c1.21,0,1.91-1,1.91-2.43,0-1.26-.66-2.34-1.87-2.34a1.83,1.83,0,0,0-1.73,1.42,1.77,1.77,0,0,0-.08.46Z"/><path class="cls-2" d="M202.6,187.19v-8.76h1.23l2.81,4.44a25.51,25.51,0,0,1,1.58,2.84h0c-.1-1.17-.13-2.24-.13-3.6v-3.67h1.07v8.76H208l-2.78-4.44a30.08,30.08,0,0,1-1.64-2.93l0,0c.07,1.1.1,2.15.1,3.61v3.74Z"/><path class="cls-2" d="M210.32,188.62l.82-.76c1.08-1,1.64-1.59,1.64-2.25a.88.88,0,0,0-1-.91,2,2,0,0,0-1.09.4l-.28-.58A2.55,2.55,0,0,1,212,184a1.52,1.52,0,0,1,1.73,1.47c0,1-.74,1.69-1.73,2.56l-.4.36v0h2.22v.72h-3.51Z"/><path class="cls-2" d="M187.77,219c0-.8,0-1.45-.06-2h1l0,1.08h0a2.47,2.47,0,0,1,2.24-1.22c1.52,0,2.66,1.28,2.66,3.2,0,2.26-1.38,3.38-2.86,3.38a2.23,2.23,0,0,1-1.94-1h0v3.42h-1.13Zm1.13,1.68a2.26,2.26,0,0,0,0,.47,1.77,1.77,0,0,0,1.72,1.34c1.2,0,1.91-1,1.91-2.43,0-1.26-.67-2.34-1.88-2.34a1.82,1.82,0,0,0-1.72,1.41,1.93,1.93,0,0,0-.08.47Z"/><path class="cls-2" d="M195.16,219c0-.8,0-1.45,0-2h1l.05,1.08h0a2.46,2.46,0,0,1,2.23-1.22c1.52,0,2.67,1.28,2.67,3.2,0,2.26-1.38,3.38-2.86,3.38a2.23,2.23,0,0,1-1.94-1h0v3.42h-1.13Zm1.13,1.68a2.23,2.23,0,0,0,.06.47,1.75,1.75,0,0,0,1.71,1.34c1.21,0,1.91-1,1.91-2.43,0-1.26-.66-2.34-1.87-2.34a1.83,1.83,0,0,0-1.73,1.41,1.93,1.93,0,0,0-.08.47Z"/><path class="cls-2" d="M208.72,222.91a5.75,5.75,0,0,1-2.31.41,4.09,4.09,0,0,1-4.33-4.43,4.36,4.36,0,0,1,4.58-4.6,4.65,4.65,0,0,1,2.08.39l-.28.92a4.1,4.1,0,0,0-1.77-.36c-2.05,0-3.41,1.31-3.41,3.61a3.18,3.18,0,0,0,3.36,3.52,4.58,4.58,0,0,0,1.85-.36Z"/><path class="cls-2" d="M217.35,218.72c0,3-1.83,4.62-4.06,4.62s-3.94-1.8-3.94-4.45,1.73-4.6,4.07-4.6S217.35,216.12,217.35,218.72Zm-6.79.14c0,1.88,1,3.55,2.79,3.55s2.81-1.65,2.81-3.64c0-1.74-.91-3.56-2.8-3.56S210.56,216.94,210.56,218.86Z"/><path class="cls-2" d="M218,224.62l.82-.76c1.08-1,1.64-1.59,1.64-2.25a.88.88,0,0,0-1-.91,2,2,0,0,0-1.09.4l-.27-.59a2.55,2.55,0,0,1,1.58-.54,1.52,1.52,0,0,1,1.73,1.47c0,1-.74,1.69-1.73,2.56l-.4.36v0h2.22v.71H218Z"/><path class="cls-2" d="M437.24,362.76a13.13,13.13,0,0,1,2.17-.17,3.59,3.59,0,0,1,2.46.73,2.38,2.38,0,0,1,.76,1.84A2.59,2.59,0,0,1,442,367a4.42,4.42,0,0,1-3.59.88v3.51h-1.13Zm1.13,4.23a4.1,4.1,0,0,0,.94.09c1.36,0,2.19-.66,2.19-1.87s-.82-1.72-2.06-1.72a4.86,4.86,0,0,0-1.07.09Z"/><path class="cls-2" d="M443.91,367.09c0-.74,0-1.38-.05-2h1l0,1.24H445a1.87,1.87,0,0,1,1.74-1.38,1,1,0,0,1,.32,0v1.07a2.13,2.13,0,0,0-.39,0,1.61,1.61,0,0,0-1.53,1.47,2.73,2.73,0,0,0,0,.53v3.35h-1.13Z"/><path class="cls-2" d="M448.67,368.48a2,2,0,0,0,2.15,2.19,4,4,0,0,0,1.75-.33l.19.82a5.11,5.11,0,0,1-2.09.39,2.92,2.92,0,0,1-3.1-3.17c0-1.9,1.12-3.39,2.95-3.39,2.06,0,2.6,1.8,2.6,3,0,.23,0,.42,0,.53Zm3.35-.81a1.63,1.63,0,0,0-1.59-1.86,1.89,1.89,0,0,0-1.75,1.86Z"/><path class="cls-2" d="M454.39,370.25a3,3,0,0,0,1.5.46c.84,0,1.23-.42,1.23-.94s-.33-.84-1.17-1.16c-1.14-.4-1.67-1-1.67-1.78a1.94,1.94,0,0,1,2.17-1.84,3.12,3.12,0,0,1,1.55.39l-.29.83a2.37,2.37,0,0,0-1.28-.37c-.68,0-1.06.4-1.06.86s.38.76,1.2,1.07c1.09.41,1.65,1,1.65,1.9,0,1.1-.86,1.88-2.35,1.88a3.59,3.59,0,0,1-1.77-.43Z"/><path class="cls-2" d="M459.53,370.25a3,3,0,0,0,1.51.46c.83,0,1.22-.42,1.22-.94s-.32-.84-1.17-1.16c-1.13-.4-1.66-1-1.66-1.78A1.94,1.94,0,0,1,461.6,365a3.12,3.12,0,0,1,1.55.39l-.29.83a2.41,2.41,0,0,0-1.29-.37c-.67,0-1.05.4-1.05.86s.38.76,1.2,1.07c1.09.41,1.65,1,1.65,1.9,0,1.1-.86,1.88-2.35,1.88a3.59,3.59,0,0,1-1.77-.43Z"/><path class="cls-2" d="M470.1,369.71c0,.65,0,1.22,0,1.71h-1l-.06-1h0a2.38,2.38,0,0,1-2.08,1.17c-1,0-2.17-.55-2.17-2.76v-3.68h1.14v3.48c0,1.2.37,2,1.41,2a1.65,1.65,0,0,0,1.5-1A1.59,1.59,0,0,0,469,369v-3.86h1.14Z"/><path class="cls-2" d="M472,367.09c0-.74,0-1.38-.05-2h1l0,1.24H473a1.89,1.89,0,0,1,1.74-1.38,1.15,1.15,0,0,1,.33,0v1.07a2.29,2.29,0,0,0-.39,0,1.61,1.61,0,0,0-1.54,1.47,3.83,3.83,0,0,0-.05.53v3.35H472Z"/><path class="cls-2" d="M476.76,368.48a2,2,0,0,0,2.16,2.19,4,4,0,0,0,1.74-.33l.19.82a5.11,5.11,0,0,1-2.09.39,2.91,2.91,0,0,1-3.09-3.17c0-1.9,1.11-3.39,2.95-3.39,2.05,0,2.6,1.8,2.6,3a4.82,4.82,0,0,1,0,.53Zm3.35-.81a1.62,1.62,0,0,0-1.58-1.86,1.89,1.89,0,0,0-1.76,1.86Z"/><path class="cls-2" d="M675.17,362.76a13.23,13.23,0,0,1,2.17-.17,3.59,3.59,0,0,1,2.46.73,2.38,2.38,0,0,1,.77,1.84,2.6,2.6,0,0,1-.68,1.87,3.62,3.62,0,0,1-2.68,1,3.67,3.67,0,0,1-.91-.08v3.51h-1.13ZM676.3,367a4.1,4.1,0,0,0,.94.09c1.36,0,2.2-.66,2.2-1.87s-.82-1.72-2.07-1.72a5,5,0,0,0-1.07.09Z"/><path class="cls-2" d="M687.42,368.22a3.08,3.08,0,0,1-3.13,3.35,3,3,0,0,1-3-3.24,3.07,3.07,0,0,1,3.12-3.34A3,3,0,0,1,687.42,368.22Zm-5,.07c0,1.38.79,2.42,1.91,2.42s1.91-1,1.91-2.45c0-1.06-.53-2.42-1.89-2.42S682.43,367.09,682.43,368.29Z"/><path class="cls-2" d="M688.86,367.09c0-.74,0-1.38-.05-2h1l0,1.24h0a1.89,1.89,0,0,1,1.74-1.38,1.11,1.11,0,0,1,.33,0v1.07a2.21,2.21,0,0,0-.39,0,1.61,1.61,0,0,0-1.54,1.47,3.83,3.83,0,0,0,0,.53v3.35h-1.13Z"/><path class="cls-2" d="M694.8,363.32v1.81h1.64V366H694.8v3.39c0,.78.22,1.23.86,1.23a2.44,2.44,0,0,0,.66-.08l.06.86a2.93,2.93,0,0,1-1,.15,1.58,1.58,0,0,1-1.23-.48,2.32,2.32,0,0,1-.45-1.64V366h-1v-.87h1v-1.51Z"/><path class="cls-2" d="M700.52,362.66h4.72v.95h-3.59v2.91H705v.94h-3.32v4h-1.13Z"/><path class="cls-2" d="M709.71,371.42l-.09-.79h0a2.34,2.34,0,0,1-1.92.94,1.79,1.79,0,0,1-1.92-1.81c0-1.52,1.35-2.35,3.78-2.34v-.13a1.3,1.3,0,0,0-1.43-1.46,3.09,3.09,0,0,0-1.64.47l-.26-.75a3.88,3.88,0,0,1,2.07-.56c1.92,0,2.39,1.31,2.39,2.57v2.35a8.69,8.69,0,0,0,.1,1.51Zm-.17-3.21c-1.24,0-2.66.2-2.66,1.42a1,1,0,0,0,1.08,1.09,1.56,1.56,0,0,0,1.52-1.05,1.19,1.19,0,0,0,.06-.37Z"/><path class="cls-2" d="M712.5,366.83c0-.65,0-1.18-.06-1.7h1l.06,1h0a2.31,2.31,0,0,1,2.08-1.18c.87,0,2.22.52,2.22,2.68v3.75h-1.14v-3.63c0-1-.38-1.85-1.46-1.85a1.62,1.62,0,0,0-1.53,1.17,1.64,1.64,0,0,0-.08.53v3.78H712.5Z"/><path class="cls-2" d="M659.57,455.63a4,4,0,0,0,2,.57c1.16,0,1.84-.61,1.84-1.49s-.47-1.29-1.65-1.75c-1.43-.5-2.32-1.24-2.32-2.48s1.13-2.38,2.84-2.38a4,4,0,0,1,1.93.43l-.31.92a3.54,3.54,0,0,0-1.66-.41c-1.2,0-1.65.71-1.65,1.31,0,.82.53,1.22,1.74,1.69,1.48.57,2.23,1.29,2.23,2.58s-1,2.52-3.06,2.52a4.56,4.56,0,0,1-2.24-.56Z"/><path class="cls-2" d="M667.43,448.91v1.8h1.64v.88h-1.64V455c0,.78.22,1.22.86,1.22a2.44,2.44,0,0,0,.66-.08l0,.86a2.79,2.79,0,0,1-1,.16,1.58,1.58,0,0,1-1.23-.48,2.32,2.32,0,0,1-.45-1.64v-3.43h-1v-.88h1v-1.5Z"/><path class="cls-2" d="M673.84,457l-.09-.8h0a2.33,2.33,0,0,1-1.92.94,1.8,1.8,0,0,1-1.93-1.81c0-1.52,1.35-2.35,3.79-2.34v-.13a1.3,1.3,0,0,0-1.43-1.45,3.17,3.17,0,0,0-1.64.46l-.26-.75a3.87,3.87,0,0,1,2.06-.56c1.93,0,2.4,1.31,2.4,2.58v2.35a8.76,8.76,0,0,0,.1,1.51Zm-.17-3.21c-1.25,0-2.66.19-2.66,1.41a1,1,0,0,0,1.08,1.09,1.57,1.57,0,0,0,1.52-1.05,1.18,1.18,0,0,0,.06-.36Z"/><path class="cls-2" d="M676.62,452.68c0-.74,0-1.38,0-2h1l0,1.24h0a1.89,1.89,0,0,1,1.74-1.38,1.06,1.06,0,0,1,.33,0v1.08a1.51,1.51,0,0,0-.39,0,1.59,1.59,0,0,0-1.53,1.47,2.86,2.86,0,0,0-.06.53V457h-1.13Z"/><path class="cls-2" d="M680.87,457c0-.43.06-1.07.06-1.63v-7.6h1.13v4h0a2.36,2.36,0,0,1,2.15-1.16c1.56,0,2.66,1.3,2.65,3.21,0,2.25-1.42,3.37-2.82,3.37A2.25,2.25,0,0,1,682,456h0l0,1Zm1.19-2.52a1.84,1.84,0,0,0,.05.41,1.77,1.77,0,0,0,1.72,1.34c1.19,0,1.91-1,1.91-2.42,0-1.26-.65-2.34-1.88-2.34a1.82,1.82,0,0,0-1.74,1.41,2.72,2.72,0,0,0-.06.46Z"/><path class="cls-2" d="M694,453.81a3.07,3.07,0,0,1-3.14,3.34,3,3,0,0,1-3-3.24,3.08,3.08,0,0,1,3.12-3.34A3,3,0,0,1,694,453.81Zm-5,.06c0,1.38.8,2.42,1.92,2.42s1.91-1,1.91-2.44c0-1.07-.54-2.42-1.89-2.42S689,452.68,689,453.87Z"/><path class="cls-2" d="M698.94,457l-.09-.8h0a2.32,2.32,0,0,1-1.92.94,1.79,1.79,0,0,1-1.92-1.81c0-1.52,1.35-2.35,3.78-2.34v-.13a1.29,1.29,0,0,0-1.43-1.45,3.17,3.17,0,0,0-1.64.46l-.26-.75a3.88,3.88,0,0,1,2.07-.56c1.92,0,2.39,1.31,2.39,2.58v2.35A9.89,9.89,0,0,0,700,457Zm-.17-3.21c-1.24,0-2.66.19-2.66,1.41a1,1,0,0,0,1.08,1.09,1.55,1.55,0,0,0,1.52-1.05,1.18,1.18,0,0,0,.06-.36Z"/><path class="cls-2" d="M701.73,452.68c0-.74,0-1.38-.06-2h1l0,1.24h.06a1.87,1.87,0,0,1,1.74-1.38,1,1,0,0,1,.32,0v1.08a1.46,1.46,0,0,0-.39,0,1.6,1.6,0,0,0-1.53,1.47,2.89,2.89,0,0,0,0,.53V457h-1.13Z"/><path class="cls-2" d="M711.28,447.78v7.6c0,.56,0,1.2.05,1.63h-1l-.06-1.09h0a2.33,2.33,0,0,1-2.15,1.23c-1.52,0-2.69-1.29-2.69-3.2,0-2.09,1.29-3.38,2.82-3.38a2.12,2.12,0,0,1,1.9,1h0v-3.75Zm-1.14,5.5a2.05,2.05,0,0,0-.06-.49,1.68,1.68,0,0,0-1.65-1.32c-1.18,0-1.88,1-1.88,2.43s.62,2.33,1.86,2.33a1.71,1.71,0,0,0,1.67-1.37,1.88,1.88,0,0,0,.06-.49Z"/><path class="cls-2" d="M716,448.25h4.72v.94H717.1v2.92h3.32V453H717.1v4H716Z"/><path class="cls-2" d="M725.17,457l-.1-.8h0a2.35,2.35,0,0,1-1.93.94,1.79,1.79,0,0,1-1.92-1.81c0-1.52,1.35-2.35,3.78-2.34v-.13a1.29,1.29,0,0,0-1.43-1.45,3.2,3.2,0,0,0-1.64.46l-.26-.75a3.91,3.91,0,0,1,2.07-.56c1.92,0,2.39,1.31,2.39,2.58v2.35a8.7,8.7,0,0,0,.11,1.51ZM725,453.8c-1.25,0-2.67.19-2.67,1.41a1,1,0,0,0,1.08,1.09,1.55,1.55,0,0,0,1.52-1.05,1.21,1.21,0,0,0,.07-.36Z"/><path class="cls-2" d="M728,452.42c0-.65,0-1.19-.06-1.71h1l.06,1h0a2.32,2.32,0,0,1,2.08-1.18c.87,0,2.22.52,2.22,2.68V457h-1.14v-3.63c0-1-.38-1.86-1.46-1.86a1.62,1.62,0,0,0-1.53,1.17,1.69,1.69,0,0,0-.08.53V457H728Z"/><path class="cls-2" d="M438.92,392.15h-2.67v-1h6.49v1h-2.68V400h-1.14Z"/><path class="cls-2" d="M443.39,397a2,2,0,0,0,2.16,2.19,4.18,4.18,0,0,0,1.74-.33l.19.82a5.11,5.11,0,0,1-2.09.39,2.91,2.91,0,0,1-3.09-3.17c0-1.9,1.11-3.39,2.95-3.39,2.05,0,2.6,1.8,2.6,3a4.82,4.82,0,0,1,0,.53Zm3.35-.82a1.63,1.63,0,0,0-1.58-1.86,1.9,1.9,0,0,0-1.76,1.86Z"/><path class="cls-2" d="M449.26,395.36c0-.65,0-1.18-.05-1.7h1l.05,1h0a2.17,2.17,0,0,1,2-1.15,1.85,1.85,0,0,1,1.78,1.26h0a2.39,2.39,0,0,1,.7-.82,2.12,2.12,0,0,1,1.39-.44c.83,0,2.07.54,2.07,2.73V400h-1.12v-3.56c0-1.21-.44-1.94-1.37-1.94a1.48,1.48,0,0,0-1.35,1,2,2,0,0,0-.09.57V400H453.2v-3.77c0-1-.44-1.73-1.31-1.73a1.56,1.56,0,0,0-1.42,1.15,1.63,1.63,0,0,0-.09.55V400h-1.12Z"/><path class="cls-2" d="M460.1,395.71c0-.8,0-1.45-.05-2h1l.05,1.08h0a2.47,2.47,0,0,1,2.23-1.22c1.53,0,2.67,1.28,2.67,3.19,0,2.27-1.38,3.38-2.86,3.38a2.22,2.22,0,0,1-1.94-1h0v3.41H460.1Zm1.14,1.68a2.34,2.34,0,0,0,.05.47A1.77,1.77,0,0,0,463,399.2c1.21,0,1.92-1,1.92-2.43,0-1.27-.67-2.35-1.88-2.35a1.94,1.94,0,0,0-1.8,1.89Z"/><path class="cls-2" d="M437.2,424.24c0-.81,0-1.46-.05-2.05h1l.06,1.07h0a2.49,2.49,0,0,1,2.24-1.22c1.52,0,2.66,1.29,2.66,3.2,0,2.26-1.37,3.38-2.86,3.38a2.18,2.18,0,0,1-1.93-1h0v3.42H437.2Zm1.13,1.68a3.08,3.08,0,0,0,.05.46,1.76,1.76,0,0,0,1.72,1.34c1.21,0,1.91-1,1.91-2.43,0-1.26-.66-2.34-1.87-2.34a1.83,1.83,0,0,0-1.73,1.42,1.78,1.78,0,0,0-.08.47Z"/><path class="cls-2" d="M444.6,424.24c0-.81,0-1.46-.06-2.05h1l.05,1.07h0a2.49,2.49,0,0,1,2.24-1.22c1.52,0,2.66,1.29,2.66,3.2,0,2.26-1.38,3.38-2.86,3.38a2.21,2.21,0,0,1-1.94-1h0v3.42H444.6Zm1.13,1.68a2.16,2.16,0,0,0,0,.46,1.76,1.76,0,0,0,1.72,1.34c1.2,0,1.91-1,1.91-2.43,0-1.26-.67-2.34-1.88-2.34a1.82,1.82,0,0,0-1.72,1.42,1.78,1.78,0,0,0-.08.47Z"/><path class="cls-2" d="M459.52,424c0,3-1.83,4.61-4.07,4.61s-3.94-1.79-3.94-4.45,1.73-4.6,4.07-4.6S459.52,421.41,459.52,424Zm-6.8.14c0,1.87,1,3.55,2.8,3.55s2.8-1.65,2.8-3.64c0-1.74-.91-3.56-2.79-3.56S452.72,422.22,452.72,424.15Z"/><path class="cls-2" d="M460.16,429.91l.82-.77c1.08-1,1.63-1.58,1.63-2.25a.88.88,0,0,0-1-.91,2.08,2.08,0,0,0-1.1.4l-.27-.58a2.53,2.53,0,0,1,1.59-.55,1.52,1.52,0,0,1,1.73,1.47c0,1-.74,1.69-1.73,2.56l-.41.37v0h2.23v.72h-3.51Z"/><path class="cls-2" d="M437.2,452.77c0-.81,0-1.46-.05-2.06h1l.06,1.08h0a2.49,2.49,0,0,1,2.24-1.22c1.52,0,2.66,1.29,2.66,3.2,0,2.26-1.37,3.38-2.86,3.38a2.18,2.18,0,0,1-1.93-1h0v3.42H437.2Zm1.13,1.68a3.08,3.08,0,0,0,.05.46,1.76,1.76,0,0,0,1.72,1.34c1.21,0,1.91-1,1.91-2.43,0-1.26-.66-2.34-1.87-2.34a1.83,1.83,0,0,0-1.73,1.42,1.78,1.78,0,0,0-.08.47Z"/><path class="cls-2" d="M444.6,452.77c0-.81,0-1.46-.06-2.06h1l.05,1.08h0a2.49,2.49,0,0,1,2.24-1.22c1.52,0,2.66,1.29,2.66,3.2,0,2.26-1.38,3.38-2.86,3.38a2.21,2.21,0,0,1-1.94-1h0v3.42H444.6Zm1.13,1.68a2.16,2.16,0,0,0,0,.46,1.76,1.76,0,0,0,1.72,1.34c1.2,0,1.91-1,1.91-2.43,0-1.26-.67-2.34-1.88-2.34a1.82,1.82,0,0,0-1.72,1.42,1.78,1.78,0,0,0-.08.47Z"/><path class="cls-2" d="M452,457v-8.76h1.24l2.81,4.43a25.4,25.4,0,0,1,1.57,2.85l0,0c-.1-1.17-.13-2.23-.13-3.6v-3.66h1.07V457h-1.14l-2.79-4.45a27.87,27.87,0,0,1-1.63-2.92h0c.06,1.1.09,2.16.09,3.61V457Z"/><path class="cls-2" d="M459.75,458.44l.82-.77c1.08-1,1.64-1.59,1.64-2.25a.88.88,0,0,0-1-.91,2.08,2.08,0,0,0-1.09.4l-.27-.58a2.5,2.5,0,0,1,1.58-.55,1.52,1.52,0,0,1,1.73,1.47c0,1-.74,1.69-1.73,2.56l-.4.37v0h2.22v.72h-3.51Z"/><path class="cls-2" d="M437.2,481.3c0-.81,0-1.46-.05-2.06h1l.06,1.08h0a2.47,2.47,0,0,1,2.24-1.22c1.52,0,2.66,1.29,2.66,3.2,0,2.26-1.37,3.38-2.86,3.38a2.2,2.2,0,0,1-1.93-1h0v3.42H437.2Zm1.13,1.67a3.23,3.23,0,0,0,.05.47,1.76,1.76,0,0,0,1.72,1.34c1.21,0,1.91-1,1.91-2.43,0-1.26-.66-2.34-1.87-2.34a1.83,1.83,0,0,0-1.73,1.42,1.78,1.78,0,0,0-.08.47Z"/><path class="cls-2" d="M444.6,481.3c0-.81,0-1.46-.06-2.06h1l.05,1.08h0a2.47,2.47,0,0,1,2.24-1.22c1.52,0,2.66,1.29,2.66,3.2,0,2.26-1.38,3.38-2.86,3.38a2.23,2.23,0,0,1-1.94-1h0v3.42H444.6Zm1.13,1.67a2.26,2.26,0,0,0,0,.47,1.76,1.76,0,0,0,1.72,1.34c1.2,0,1.91-1,1.91-2.43,0-1.26-.67-2.34-1.88-2.34a1.82,1.82,0,0,0-1.72,1.42,1.78,1.78,0,0,0-.08.47Z"/><path class="cls-2" d="M458.16,485.25a5.6,5.6,0,0,1-2.32.42,4.1,4.1,0,0,1-4.33-4.44,4.36,4.36,0,0,1,4.58-4.6,4.65,4.65,0,0,1,2.08.39l-.27.92a4.25,4.25,0,0,0-1.77-.36c-2.06,0-3.42,1.31-3.42,3.61a3.19,3.19,0,0,0,3.37,3.53,4.52,4.52,0,0,0,1.84-.37Z"/><path class="cls-2" d="M466.79,481.06c0,3-1.84,4.62-4.07,4.62s-3.94-1.8-3.94-4.45,1.73-4.6,4.07-4.6S466.79,478.46,466.79,481.06Zm-6.8.15c0,1.87,1,3.54,2.79,3.54s2.81-1.65,2.81-3.63c0-1.75-.91-3.57-2.79-3.57S460,479.28,460,481.21Z"/><path class="cls-2" d="M467.42,487l.82-.77c1.08-1,1.64-1.59,1.64-2.25a.88.88,0,0,0-1-.91,2,2,0,0,0-1.09.4l-.27-.58a2.5,2.5,0,0,1,1.58-.55,1.52,1.52,0,0,1,1.73,1.47c0,1-.74,1.69-1.73,2.56l-.4.37v0h2.22v.72h-3.51Z"/><path class="cls-2" d="M555.87,366.83c0-.65,0-1.18,0-1.7h1l0,1h0a2.17,2.17,0,0,1,2-1.15,1.88,1.88,0,0,1,1.79,1.26h0a2.61,2.61,0,0,1,.7-.82,2.14,2.14,0,0,1,1.39-.44c.84,0,2.07.54,2.07,2.73v3.7h-1.12v-3.56c0-1.21-.44-1.94-1.36-1.94a1.47,1.47,0,0,0-1.35,1,1.72,1.72,0,0,0-.09.58v3.88h-1.12v-3.77c0-1-.44-1.73-1.32-1.73a1.57,1.57,0,0,0-1.41,1.15,1.46,1.46,0,0,0-.09.56v3.79h-1.12Z"/><path class="cls-2" d="M566.71,366.83c0-.65,0-1.18-.05-1.7h1l.05,1h0a2.18,2.18,0,0,1,2-1.15,1.87,1.87,0,0,1,1.78,1.26h0a2.75,2.75,0,0,1,.7-.82,2.15,2.15,0,0,1,1.4-.44c.83,0,2.06.54,2.06,2.73v3.7h-1.11v-3.56c0-1.21-.45-1.94-1.37-1.94a1.47,1.47,0,0,0-1.35,1,2,2,0,0,0-.09.58v3.88h-1.12v-3.77c0-1-.44-1.73-1.31-1.73a1.57,1.57,0,0,0-1.42,1.15,1.46,1.46,0,0,0-.09.56v3.79h-1.12Z"/><path class="cls-2" d="M578.72,362.66v3.67H583v-3.67h1.14v8.76H583v-4.11h-4.24v4.11h-1.13v-8.76Z"/><path class="cls-2" d="M591.45,365.13c0,.45-.05,1-.05,1.73v3.65a3.6,3.6,0,0,1-.9,2.87,3.31,3.31,0,0,1-2.29.76,4,4,0,0,1-2.09-.52l.28-.87a3.58,3.58,0,0,0,1.85.49c1.17,0,2-.61,2-2.2v-.7h0a2.23,2.23,0,0,1-2,1.06,2.82,2.82,0,0,1-2.68-3.07c0-2.13,1.39-3.34,2.84-3.34a2.09,2.09,0,0,1,2,1.09h0l.05-.95Zm-1.18,2.48a1.72,1.72,0,0,0-.07-.52,1.66,1.66,0,0,0-1.6-1.21c-1.09,0-1.87.93-1.87,2.38,0,1.24.62,2.27,1.86,2.27a1.67,1.67,0,0,0,1.58-1.17,1.91,1.91,0,0,0,.1-.62Z"/><path class="cls-2" d="M555.46,391.79a1.23,1.23,0,0,1,1.33-1.24,1.21,1.21,0,0,1,1.29,1.22,1.32,1.32,0,0,1-2.62,0Zm2,0a.68.68,0,0,0-.68-.72.67.67,0,0,0-.63.75.66.66,0,1,0,1.31,0Z"/><path class="cls-2" d="M565.94,399.66a5.55,5.55,0,0,1-2.31.42,4.09,4.09,0,0,1-4.33-4.43,4.36,4.36,0,0,1,4.58-4.61,4.61,4.61,0,0,1,2.08.4l-.28.92a4.09,4.09,0,0,0-1.77-.37c-2,0-3.41,1.32-3.41,3.62a3.18,3.18,0,0,0,3.36,3.52,4.58,4.58,0,0,0,1.85-.36Z"/><path class="cls-2" d="M555.87,423.89c0-.65,0-1.18,0-1.7h1l0,1h0a2.16,2.16,0,0,1,2-1.16,1.88,1.88,0,0,1,1.79,1.26h0a2.57,2.57,0,0,1,.7-.81,2.15,2.15,0,0,1,1.39-.45c.84,0,2.07.55,2.07,2.73v3.71h-1.12v-3.56c0-1.21-.44-1.94-1.36-1.94a1.47,1.47,0,0,0-1.35,1,1.62,1.62,0,0,0-.09.57v3.89h-1.12v-3.77c0-1-.44-1.73-1.32-1.73a1.56,1.56,0,0,0-1.41,1.14,1.5,1.5,0,0,0-.09.56v3.8h-1.12Z"/><path class="cls-2" d="M566.71,423.89c0-.65,0-1.18-.05-1.7h1l.05,1h0a2.17,2.17,0,0,1,2-1.16,1.87,1.87,0,0,1,1.78,1.26h0a2.7,2.7,0,0,1,.7-.81,2.16,2.16,0,0,1,1.4-.45c.83,0,2.06.55,2.06,2.73v3.71h-1.11v-3.56c0-1.21-.45-1.94-1.37-1.94a1.47,1.47,0,0,0-1.35,1,1.89,1.89,0,0,0-.09.57v3.89h-1.12v-3.77c0-1-.44-1.73-1.31-1.73a1.56,1.56,0,0,0-1.42,1.14,1.5,1.5,0,0,0-.09.56v3.8h-1.12Z"/><path class="cls-2" d="M578.72,419.72v3.66H583v-3.66h1.14v8.76H583v-4.11h-4.24v4.11h-1.13v-8.76Z"/><path class="cls-2" d="M591.45,422.19c0,.45-.05,1-.05,1.73v3.65a3.61,3.61,0,0,1-.9,2.87,3.36,3.36,0,0,1-2.29.76,4.15,4.15,0,0,1-2.09-.52l.28-.88a3.57,3.57,0,0,0,1.85.5c1.17,0,2-.61,2-2.2v-.7h0a2.24,2.24,0,0,1-2,1.05,2.81,2.81,0,0,1-2.68-3.07c0-2.13,1.39-3.34,2.84-3.34a2.1,2.1,0,0,1,2,1.09h0l.05-.94Zm-1.18,2.48a1.64,1.64,0,0,0-.07-.52,1.66,1.66,0,0,0-1.6-1.21c-1.09,0-1.87.92-1.87,2.38,0,1.23.62,2.26,1.86,2.26a1.66,1.66,0,0,0,1.58-1.17,1.81,1.81,0,0,0,.1-.61Z"/><path class="cls-2" d="M410.71,593.67h-3.4v3.16h3.79v.95h-4.92V589h4.73v1h-3.6v2.77h3.4Z"/><path class="cls-2" d="M414.61,597.78,411.75,589H413l1.37,4.32c.38,1.18.7,2.25.94,3.28h0c.25-1,.61-2.12,1-3.27l1.48-4.33H419l-3.13,8.77Z"/><path class="cls-2" d="M420.62,595l-.91,2.76h-1.17l3-8.77h1.36l3,8.77h-1.21l-.93-2.76Zm2.87-.88-.86-2.53c-.19-.57-.32-1.09-.45-1.59h0c-.13.52-.27,1.05-.44,1.58l-.86,2.54Z"/><path class="cls-2" d="M437.4,593.3c0,3-1.83,4.62-4.07,4.62s-3.94-1.79-3.94-4.45,1.73-4.6,4.07-4.6S437.4,590.7,437.4,593.3Zm-6.8.15c0,1.87,1,3.55,2.8,3.55s2.81-1.65,2.81-3.64c0-1.75-.91-3.57-2.8-3.57S430.6,591.52,430.6,593.45Z"/><path class="cls-2" d="M438,599.21l.82-.77c1.08-1,1.64-1.59,1.64-2.25a.89.89,0,0,0-1-.91,1.94,1.94,0,0,0-1.09.4l-.28-.58a2.53,2.53,0,0,1,1.59-.55,1.52,1.52,0,0,1,1.73,1.47c0,1-.74,1.69-1.73,2.56l-.4.37v0h2.22v.72H438Z"/><path class="cls-2" d="M446.8,590h-2.66v-1h6.48v1h-2.68v7.8H446.8Z"/><path class="cls-2" d="M454.21,597.78l-.09-.8h0a2.33,2.33,0,0,1-1.92.94,1.8,1.8,0,0,1-1.93-1.81c0-1.52,1.35-2.35,3.79-2.34v-.13a1.3,1.3,0,0,0-1.43-1.45,3.17,3.17,0,0,0-1.64.46l-.26-.75a3.87,3.87,0,0,1,2.06-.56c1.93,0,2.4,1.31,2.4,2.58v2.35a8.76,8.76,0,0,0,.1,1.51Zm-.17-3.21c-1.25,0-2.66.19-2.66,1.41a1,1,0,0,0,1.08,1.09A1.58,1.58,0,0,0,454,596a1.18,1.18,0,0,0,.06-.36Z"/><path class="cls-2" d="M457,593.19c0-.65,0-1.19-.05-1.71h1l.07,1h0a2.32,2.32,0,0,1,2.08-1.18c.87,0,2.22.52,2.22,2.68v3.76H461.2v-3.63c0-1-.37-1.86-1.45-1.86a1.63,1.63,0,0,0-1.54,1.17,1.7,1.7,0,0,0-.07.53v3.79H457Z"/><path class="cls-2" d="M465.34,594.37h0c.16-.22.38-.49.56-.71l1.85-2.18h1.38l-2.43,2.59,2.77,3.71h-1.4l-2.17-3-.58.65v2.37h-1.13v-9.23h1.13Z"/><path class="cls-2" d="M509.73,566.48a13.23,13.23,0,0,1,2.17-.17,3.59,3.59,0,0,1,2.46.73,2.36,2.36,0,0,1,.77,1.83,2.61,2.61,0,0,1-.68,1.88,3.66,3.66,0,0,1-2.68,1,4.22,4.22,0,0,1-.91-.08v3.51h-1.13Zm1.13,4.23a4.1,4.1,0,0,0,.94.09c1.36,0,2.2-.67,2.2-1.88s-.82-1.71-2.07-1.71a5,5,0,0,0-1.07.09Z"/><path class="cls-2" d="M516.4,570.81c0-.74,0-1.38,0-2h1l0,1.23h.05a1.9,1.9,0,0,1,1.74-1.38,1.66,1.66,0,0,1,.33,0v1.08a2.23,2.23,0,0,0-.39,0,1.61,1.61,0,0,0-1.54,1.47,4.15,4.15,0,0,0-.05.54v3.35H516.4Z"/><path class="cls-2" d="M521.16,572.2a2,2,0,0,0,2.16,2.19,4.15,4.15,0,0,0,1.74-.33l.19.82a5.11,5.11,0,0,1-2.09.39,2.91,2.91,0,0,1-3.09-3.17c0-1.9,1.12-3.4,2.95-3.4,2.05,0,2.6,1.81,2.6,3a5,5,0,0,1,0,.53Zm3.35-.82a1.62,1.62,0,0,0-1.58-1.86,1.9,1.9,0,0,0-1.76,1.86Z"/><path class="cls-2" d="M526.88,574a3,3,0,0,0,1.51.45c.83,0,1.22-.41,1.22-.93s-.33-.85-1.17-1.16c-1.13-.4-1.66-1-1.66-1.78A1.94,1.94,0,0,1,529,568.7a3.22,3.22,0,0,1,1.54.39l-.28.84a2.41,2.41,0,0,0-1.29-.37c-.68,0-1,.39-1,.86s.37.75,1.19,1.07c1.1.41,1.65,1,1.65,1.89,0,1.11-.85,1.89-2.35,1.89a3.62,3.62,0,0,1-1.77-.43Z"/><path class="cls-2" d="M532,574a3,3,0,0,0,1.51.45c.83,0,1.22-.41,1.22-.93s-.33-.85-1.17-1.16c-1.13-.4-1.67-1-1.67-1.78a2,2,0,0,1,2.17-1.85,3.23,3.23,0,0,1,1.55.39l-.28.84a2.44,2.44,0,0,0-1.29-.37c-.68,0-1.05.39-1.05.86s.37.75,1.19,1.07c1.09.41,1.65,1,1.65,1.89,0,1.11-.86,1.89-2.35,1.89a3.59,3.59,0,0,1-1.77-.43Z"/><path class="cls-2" d="M542.6,573.42c0,.65,0,1.23,0,1.72h-1l-.06-1h0a2.36,2.36,0,0,1-2.08,1.17c-1,0-2.17-.54-2.17-2.75v-3.68h1.15v3.48c0,1.2.36,2,1.4,2a1.65,1.65,0,0,0,1.51-1,1.76,1.76,0,0,0,.1-.58v-3.86h1.15Z"/><path class="cls-2" d="M544.49,570.81c0-.74,0-1.38,0-2h1l0,1.23h0a1.91,1.91,0,0,1,1.75-1.38,1.47,1.47,0,0,1,.32,0v1.08a2.13,2.13,0,0,0-.39,0,1.6,1.6,0,0,0-1.53,1.47,2.92,2.92,0,0,0,0,.54v3.35h-1.14Z"/><path class="cls-2" d="M549.25,572.2a2,2,0,0,0,2.16,2.19,4.15,4.15,0,0,0,1.74-.33l.2.82a5.16,5.16,0,0,1-2.1.39,2.92,2.92,0,0,1-3.09-3.17c0-1.9,1.12-3.4,3-3.4,2.06,0,2.6,1.81,2.6,3a3.26,3.26,0,0,1,0,.53Zm3.36-.82a1.63,1.63,0,0,0-1.59-1.86,1.89,1.89,0,0,0-1.75,1.86Z"/><path class="cls-2" d="M620.07,575.14l-2.86-8.76h1.22l1.37,4.31c.37,1.19.7,2.25.93,3.28h0c.25-1,.61-2.12,1-3.26l1.48-4.33h1.21l-3.13,8.76Z"/><path class="cls-2" d="M628.42,575.14l-.09-.79h0a2.36,2.36,0,0,1-1.93.93,1.79,1.79,0,0,1-1.92-1.8c0-1.53,1.35-2.36,3.78-2.34V571a1.3,1.3,0,0,0-1.43-1.45,3.14,3.14,0,0,0-1.64.47l-.26-.76a3.91,3.91,0,0,1,2.07-.56c1.92,0,2.39,1.32,2.39,2.58v2.35a8.62,8.62,0,0,0,.11,1.51Zm-.17-3.21c-1.25,0-2.67.19-2.67,1.42a1,1,0,0,0,1.08,1.09,1.56,1.56,0,0,0,1.52-1.06,1.1,1.1,0,0,0,.07-.36Z"/><path class="cls-2" d="M631.2,565.91h1.14v9.23H631.2Z"/><path class="cls-2" d="M634.71,568.85l1.23,3.53a16.48,16.48,0,0,1,.51,1.62h0c.14-.52.32-1,.53-1.62l1.22-3.53h1.2L637,575.14h-1.09l-2.39-6.29Z"/><path class="cls-2" d="M641,572.2a2,2,0,0,0,2.15,2.19,4.2,4.2,0,0,0,1.75-.33l.19.82a5.11,5.11,0,0,1-2.09.39,2.92,2.92,0,0,1-3.1-3.17c0-1.9,1.12-3.4,3-3.4,2.05,0,2.6,1.81,2.6,3a5,5,0,0,1,0,.53Zm3.35-.82a1.63,1.63,0,0,0-1.59-1.86,1.9,1.9,0,0,0-1.75,1.86Z"/><path class="cls-2" d="M649.7,566.48a13.13,13.13,0,0,1,2.17-.17,3.61,3.61,0,0,1,2.46.73,2.35,2.35,0,0,1,.76,1.83,2.6,2.6,0,0,1-.67,1.88,3.67,3.67,0,0,1-2.68,1,4.16,4.16,0,0,1-.91-.08v3.51H649.7Zm1.13,4.23a4.06,4.06,0,0,0,.93.09c1.37,0,2.2-.67,2.2-1.88s-.82-1.71-2.07-1.71a4.82,4.82,0,0,0-1.06.09Z"/><path class="cls-2" d="M661.94,571.94a3.07,3.07,0,0,1-3.13,3.34,3,3,0,0,1-3-3.24,3.08,3.08,0,0,1,3.12-3.34A3,3,0,0,1,661.94,571.94Zm-5,.07c0,1.37.79,2.41,1.91,2.41s1.91-1,1.91-2.44c0-1.07-.53-2.42-1.88-2.42S657,570.81,657,572Z"/><path class="cls-2" d="M663.23,574a3,3,0,0,0,1.51.45c.83,0,1.22-.41,1.22-.93s-.33-.85-1.17-1.16c-1.13-.4-1.67-1-1.67-1.78a2,2,0,0,1,2.18-1.85,3.22,3.22,0,0,1,1.54.39l-.28.84a2.41,2.41,0,0,0-1.29-.37c-.68,0-1,.39-1,.86s.37.75,1.19,1.07c1.1.41,1.65,1,1.65,1.89,0,1.11-.85,1.89-2.35,1.89a3.62,3.62,0,0,1-1.77-.43Z"/><path class="cls-2" d="M669.81,567.08a.71.71,0,0,1-1.42,0,.7.7,0,0,1,.72-.72A.69.69,0,0,1,669.81,567.08Zm-1.28,8.06v-6.29h1.15v6.29Z"/><path class="cls-2" d="M673,567v1.81h1.64v.87H673v3.39c0,.78.22,1.22.86,1.22a3.06,3.06,0,0,0,.66-.07l.06.85a2.85,2.85,0,0,1-1,.16,1.58,1.58,0,0,1-1.23-.48,2.32,2.32,0,0,1-.45-1.64v-3.43h-1v-.87h1v-1.51Z"/><path class="cls-2" d="M677.15,567.08a.71.71,0,0,1-1.41,0,.7.7,0,0,1,.71-.72A.68.68,0,0,1,677.15,567.08Zm-1.27,8.06v-6.29H677v6.29Z"/><path class="cls-2" d="M684.61,571.94a3.07,3.07,0,0,1-3.13,3.34,3,3,0,0,1-3-3.24,3.08,3.08,0,0,1,3.12-3.34A3,3,0,0,1,684.61,571.94Zm-5,.07c0,1.37.8,2.41,1.91,2.41s1.91-1,1.91-2.44c0-1.07-.53-2.42-1.88-2.42S679.62,570.81,679.62,572Z"/><path class="cls-2" d="M686.06,570.55c0-.65,0-1.18-.06-1.7h1l.06,1h0a2.31,2.31,0,0,1,2.08-1.19c.87,0,2.22.52,2.22,2.68v3.76h-1.14v-3.63c0-1-.38-1.86-1.46-1.86a1.63,1.63,0,0,0-1.53,1.17,1.75,1.75,0,0,0-.08.54v3.78h-1.14Z"/><path class="cls-2" d="M406.19,626.3v-8.76h1.23l2.81,4.44a23.82,23.82,0,0,1,1.57,2.84h0c-.1-1.17-.13-2.24-.13-3.6v-3.67h1.07v8.76h-1.15l-2.78-4.44a28.12,28.12,0,0,1-1.64-2.93l0,0c.07,1.1.09,2.15.09,3.61v3.74Z"/><path class="cls-2" d="M413.91,627.74l.82-.77c1.08-1,1.64-1.59,1.64-2.25a.88.88,0,0,0-1-.91,1.94,1.94,0,0,0-1.09.4l-.28-.58a2.53,2.53,0,0,1,1.59-.55,1.52,1.52,0,0,1,1.73,1.47c0,1-.74,1.69-1.73,2.56l-.4.36v0h2.22v.72h-3.51Z"/><path class="cls-2" d="M422.67,618.5H420v-1h6.48v1h-2.67v7.8h-1.15Z"/><path class="cls-2" d="M430.08,626.3l-.09-.79h0a2.33,2.33,0,0,1-1.92.94,1.8,1.8,0,0,1-1.93-1.81c0-1.52,1.36-2.35,3.79-2.34v-.13a1.3,1.3,0,0,0-1.43-1.46,3.18,3.18,0,0,0-1.64.47l-.26-.75a3.88,3.88,0,0,1,2.07-.56c1.92,0,2.39,1.31,2.39,2.57v2.36a8.57,8.57,0,0,0,.1,1.5Zm-.17-3.21c-1.24,0-2.66.2-2.66,1.42a1,1,0,0,0,1.08,1.09,1.56,1.56,0,0,0,1.52-1.05,1.18,1.18,0,0,0,.06-.36Z"/><path class="cls-2" d="M432.86,621.72c0-.65,0-1.19-.05-1.71h1l.06,1h0a2.32,2.32,0,0,1,2.08-1.18c.87,0,2.22.52,2.22,2.68v3.75h-1.14v-3.62c0-1-.38-1.86-1.46-1.86a1.62,1.62,0,0,0-1.53,1.17,1.44,1.44,0,0,0-.08.53v3.78h-1.15Z"/><path class="cls-2" d="M441.21,622.9h0c.15-.22.37-.5.55-.72l1.85-2.17H445l-2.43,2.59,2.77,3.7H444l-2.18-3-.58.65v2.36h-1.13v-9.23h1.13Z"/><path class="cls-2" d="M413.66,650.36c0,3-1.83,4.62-4.07,4.62s-3.93-1.8-3.93-4.45,1.72-4.6,4.06-4.6S413.66,647.76,413.66,650.36Zm-6.8.14c0,1.88,1,3.55,2.8,3.55s2.81-1.65,2.81-3.64c0-1.74-.91-3.56-2.8-3.56S406.86,648.58,406.86,650.5Z"/><path class="cls-2" d="M414.3,656.26l.82-.76c1.08-1,1.64-1.59,1.64-2.25a.88.88,0,0,0-1-.91,1.94,1.94,0,0,0-1.09.4l-.28-.59a2.61,2.61,0,0,1,1.59-.54,1.52,1.52,0,0,1,1.73,1.47c0,1-.74,1.69-1.73,2.56l-.4.36v0h2.22v.71H414.3Z"/><path class="cls-2" d="M423.06,647H420.4v-1h6.48v1h-2.67v7.8h-1.15Z"/><path class="cls-2" d="M430.47,654.83l-.09-.79h0a2.34,2.34,0,0,1-1.92.94,1.8,1.8,0,0,1-1.93-1.81c0-1.52,1.36-2.35,3.79-2.34v-.13a1.3,1.3,0,0,0-1.43-1.46,3.09,3.09,0,0,0-1.64.47L427,649a3.88,3.88,0,0,1,2.07-.56c1.92,0,2.39,1.31,2.39,2.57v2.35a8.69,8.69,0,0,0,.1,1.51Zm-.17-3.21c-1.24,0-2.66.2-2.66,1.42a1,1,0,0,0,1.08,1.09,1.56,1.56,0,0,0,1.52-1,1.19,1.19,0,0,0,.06-.37Z"/><path class="cls-2" d="M433.25,650.24c0-.65,0-1.18-.05-1.7h1l.06,1h0a2.31,2.31,0,0,1,2.08-1.18c.87,0,2.22.52,2.22,2.68v3.75h-1.14v-3.62c0-1-.38-1.86-1.46-1.86a1.62,1.62,0,0,0-1.53,1.17,1.41,1.41,0,0,0-.08.53v3.78h-1.15Z"/><path class="cls-2" d="M441.6,651.43h0a8.79,8.79,0,0,1,.56-.72l1.84-2.17h1.38L443,651.13l2.77,3.7h-1.39l-2.17-3-.59.65v2.36h-1.13V645.6h1.13Z"/><path class="cls-2" d="M561.29,594.37h0a8.68,8.68,0,0,1,.56-.71l1.84-2.18h1.38l-2.43,2.59,2.77,3.71h-1.39l-2.17-3-.59.65v2.37h-1.13v-9.23h1.13Z"/><path class="cls-2" d="M566.3,589.12a13.13,13.13,0,0,1,2.17-.17,3.58,3.58,0,0,1,2.45.73,2.35,2.35,0,0,1,.77,1.83,2.54,2.54,0,0,1-.68,1.87,3.59,3.59,0,0,1-2.67,1,4.21,4.21,0,0,1-.91-.07v3.51H566.3Zm1.13,4.22a3.52,3.52,0,0,0,.93.09c1.37,0,2.2-.66,2.2-1.87s-.82-1.71-2.07-1.71a4.82,4.82,0,0,0-1.06.09Z"/><path class="cls-2" d="M576.32,597.78l-.09-.8h0a2.34,2.34,0,0,1-1.93.94,1.79,1.79,0,0,1-1.92-1.81c0-1.52,1.35-2.35,3.78-2.34v-.13a1.29,1.29,0,0,0-1.43-1.45,3.17,3.17,0,0,0-1.63.46l-.26-.75a3.87,3.87,0,0,1,2.06-.56c1.93,0,2.39,1.31,2.39,2.58v2.35a8.7,8.7,0,0,0,.11,1.51Zm-.17-3.21c-1.25,0-2.67.19-2.67,1.41a1,1,0,0,0,1.08,1.09,1.56,1.56,0,0,0,1.52-1.05,1.21,1.21,0,0,0,.07-.36Z"/><path class="cls-2" d="M561.3,622.9h0c.16-.22.38-.5.56-.72l1.84-2.17h1.38l-2.43,2.59,2.77,3.7h-1.39l-2.17-3-.59.65v2.36h-1.13v-9.23h1.13Z"/><path class="cls-2" d="M566.31,617.65a13.13,13.13,0,0,1,2.17-.17,3.59,3.59,0,0,1,2.46.73,2.34,2.34,0,0,1,.76,1.83,2.58,2.58,0,0,1-.67,1.87,4.42,4.42,0,0,1-3.59.88v3.51h-1.13Zm1.13,4.22a3.6,3.6,0,0,0,.94.09c1.36,0,2.19-.66,2.19-1.87s-.82-1.71-2.06-1.71a4.3,4.3,0,0,0-1.07.09Z"/><path class="cls-2" d="M576.33,626.3l-.09-.79h0a2.33,2.33,0,0,1-1.92.94,1.8,1.8,0,0,1-1.93-1.81c0-1.52,1.36-2.35,3.79-2.34v-.13a1.3,1.3,0,0,0-1.43-1.46,3.18,3.18,0,0,0-1.64.47l-.26-.75a3.88,3.88,0,0,1,2.07-.56c1.92,0,2.39,1.31,2.39,2.57v2.36a8.57,8.57,0,0,0,.1,1.5Zm-.17-3.21c-1.25,0-2.66.2-2.66,1.42a1,1,0,0,0,1.08,1.09,1.56,1.56,0,0,0,1.52-1.05,1.18,1.18,0,0,0,.06-.36Z"/><path class="cls-2" d="M561.29,651.43h0a8.79,8.79,0,0,1,.56-.72l1.84-2.17h1.38l-2.43,2.59,2.77,3.7h-1.39l-2.17-3-.59.65v2.36h-1.13V645.6h1.13Z"/><path class="cls-2" d="M566.3,646.17a13.3,13.3,0,0,1,2.17-.16,3.64,3.64,0,0,1,2.45.72,2.38,2.38,0,0,1,.77,1.84,2.56,2.56,0,0,1-.68,1.87,4.39,4.39,0,0,1-3.58.88v3.51H566.3Zm1.13,4.23a4,4,0,0,0,.93.09c1.37,0,2.2-.66,2.2-1.87s-.82-1.72-2.07-1.72a4.82,4.82,0,0,0-1.06.09Z"/><path class="cls-2" d="M576.32,654.83l-.09-.79h0a2.36,2.36,0,0,1-1.93.94,1.79,1.79,0,0,1-1.92-1.81c0-1.52,1.35-2.35,3.78-2.34v-.13a1.3,1.3,0,0,0-1.43-1.46,3.08,3.08,0,0,0-1.63.47l-.26-.75a3.87,3.87,0,0,1,2.06-.56c1.93,0,2.39,1.31,2.39,2.57v2.35a8.62,8.62,0,0,0,.11,1.51Zm-.17-3.21c-1.25,0-2.67.2-2.67,1.42a1,1,0,0,0,1.08,1.09,1.56,1.56,0,0,0,1.52-1,1.21,1.21,0,0,0,.07-.37Z"/><path class="cls-2" d="M187.81,573.31a13.13,13.13,0,0,1,2.17-.17,3.58,3.58,0,0,1,2.45.73,2.35,2.35,0,0,1,.77,1.83,2.54,2.54,0,0,1-.68,1.87,3.59,3.59,0,0,1-2.67,1,4.21,4.21,0,0,1-.91-.07V582h-1.13Zm1.13,4.22a3.52,3.52,0,0,0,.93.09c1.37,0,2.2-.66,2.2-1.87S191.25,574,190,574a4.26,4.26,0,0,0-1.06.09Z"/><path class="cls-2" d="M194.47,577.64c0-.74,0-1.38-.05-2h1l0,1.24h0a1.89,1.89,0,0,1,1.75-1.38,1,1,0,0,1,.32,0v1.08a1.51,1.51,0,0,0-.39,0,1.6,1.6,0,0,0-1.53,1.47,2.81,2.81,0,0,0,0,.53V582h-1.14Z"/><path class="cls-2" d="M199.23,579a2,2,0,0,0,2.16,2.18,4.17,4.17,0,0,0,1.74-.32l.2.82a5.16,5.16,0,0,1-2.1.39,2.93,2.93,0,0,1-3.09-3.18c0-1.89,1.12-3.39,3-3.39,2.06,0,2.6,1.81,2.6,3a3.31,3.31,0,0,1,0,.54Zm3.36-.82a1.63,1.63,0,0,0-1.59-1.86,1.89,1.89,0,0,0-1.75,1.86Z"/><path class="cls-2" d="M205,580.8a3,3,0,0,0,1.51.45c.83,0,1.22-.42,1.22-.94s-.32-.84-1.17-1.15c-1.13-.41-1.66-1-1.66-1.78a1.94,1.94,0,0,1,2.17-1.85,3.12,3.12,0,0,1,1.55.39l-.29.83a2.52,2.52,0,0,0-1.29-.36c-.67,0-1.05.39-1.05.86s.38.75,1.2,1.06c1.09.42,1.65,1,1.65,1.9,0,1.11-.86,1.89-2.36,1.89a3.58,3.58,0,0,1-1.76-.43Z"/><path class="cls-2" d="M210.1,580.8a3,3,0,0,0,1.51.45c.83,0,1.22-.42,1.22-.94s-.32-.84-1.17-1.15c-1.13-.41-1.66-1-1.66-1.78a1.94,1.94,0,0,1,2.17-1.85,3.11,3.11,0,0,1,1.54.39l-.28.83a2.52,2.52,0,0,0-1.29-.36c-.67,0-1,.39-1,.86s.38.75,1.19,1.06c1.1.42,1.66,1,1.66,1.9,0,1.11-.86,1.89-2.36,1.89a3.62,3.62,0,0,1-1.77-.43Z"/><path class="cls-2" d="M220.67,580.25c0,.65,0,1.22.05,1.72h-1l-.07-1h0a2.37,2.37,0,0,1-2.08,1.17c-1,0-2.17-.55-2.17-2.76v-3.68h1.14v3.49c0,1.19.36,2,1.4,2a1.65,1.65,0,0,0,1.51-1,1.59,1.59,0,0,0,.11-.59v-3.86h1.14Z"/><path class="cls-2" d="M222.57,577.64c0-.74,0-1.38,0-2h1l0,1.24h.05a1.87,1.87,0,0,1,1.74-1.38,1,1,0,0,1,.32,0v1.08a1.46,1.46,0,0,0-.39,0,1.61,1.61,0,0,0-1.53,1.47,2.81,2.81,0,0,0-.05.53V582h-1.13Z"/><path class="cls-2" d="M227.33,579a2,2,0,0,0,2.15,2.18,4.22,4.22,0,0,0,1.75-.32l.19.82a5.11,5.11,0,0,1-2.09.39,2.93,2.93,0,0,1-3.1-3.18c0-1.89,1.12-3.39,3-3.39,2.06,0,2.6,1.81,2.6,3,0,.24,0,.42,0,.54Zm3.35-.82a1.63,1.63,0,0,0-1.59-1.86,1.9,1.9,0,0,0-1.75,1.86Z"/><path class="cls-2" d="M187.82,601.85h4.72v.95H189v2.91h3.31v.94H189v4h-1.13Z"/><path class="cls-2" d="M197,610.61l-.09-.79h0a2.35,2.35,0,0,1-1.92.93A1.79,1.79,0,0,1,193,609c0-1.52,1.35-2.36,3.78-2.34v-.13a1.3,1.3,0,0,0-1.43-1.46,3.08,3.08,0,0,0-1.63.47l-.26-.76a4,4,0,0,1,2.06-.55c1.93,0,2.4,1.31,2.4,2.57v2.35a8.69,8.69,0,0,0,.1,1.51Zm-.17-3.21c-1.25,0-2.66.19-2.66,1.42a1,1,0,0,0,1.07,1.09,1.47,1.47,0,0,0,1.59-1.42Z"/><path class="cls-2" d="M199.79,606c0-.65,0-1.18,0-1.7h1l.07,1h0a2.32,2.32,0,0,1,2.08-1.18c.88,0,2.23.52,2.23,2.67v3.76H204V607c0-1-.37-1.86-1.45-1.86a1.64,1.64,0,0,0-1.54,1.17,1.77,1.77,0,0,0-.07.54v3.78h-1.15Z"/><path class="cls-2" d="M209.65,609.23a4,4,0,0,0,2,.57c1.16,0,1.84-.61,1.84-1.49s-.47-1.29-1.66-1.74c-1.43-.51-2.31-1.25-2.31-2.49s1.13-2.37,2.84-2.37a4,4,0,0,1,1.93.42l-.31.93a3.44,3.44,0,0,0-1.66-.42c-1.2,0-1.65.72-1.65,1.32,0,.81.53,1.22,1.74,1.68,1.48.58,2.23,1.29,2.23,2.58s-1,2.52-3.06,2.52a4.56,4.56,0,0,1-2.24-.56Z"/><path class="cls-2" d="M217.51,602.51v1.81h1.64v.87h-1.64v3.39c0,.78.22,1.22.86,1.22a2.52,2.52,0,0,0,.66-.07l.05.85a2.59,2.59,0,0,1-1,.16,1.62,1.62,0,0,1-1.24-.48,2.37,2.37,0,0,1-.44-1.64v-3.43h-1v-.87h1v-1.51Z"/><path class="cls-2" d="M223.92,610.61l-.09-.79h0a2.36,2.36,0,0,1-1.93.93,1.79,1.79,0,0,1-1.92-1.8c0-1.52,1.35-2.36,3.78-2.34v-.13a1.3,1.3,0,0,0-1.43-1.46,3.08,3.08,0,0,0-1.63.47l-.26-.76a4,4,0,0,1,2.06-.55c1.93,0,2.39,1.31,2.39,2.57v2.35a8.62,8.62,0,0,0,.11,1.51Zm-.17-3.21c-1.25,0-2.67.19-2.67,1.42a1,1,0,0,0,1.08,1.09,1.47,1.47,0,0,0,1.59-1.42Z"/><path class="cls-2" d="M228,602.51v1.81h1.64v.87H228v3.39c0,.78.22,1.22.86,1.22a2.58,2.58,0,0,0,.66-.07l0,.85a2.59,2.59,0,0,1-1,.16,1.59,1.59,0,0,1-1.24-.48,2.37,2.37,0,0,1-.44-1.64v-3.43h-1v-.87h1v-1.51Z"/><path class="cls-2" d="M236.22,608.89c0,.65,0,1.23.05,1.72h-1l-.06-1h0a2.35,2.35,0,0,1-2.08,1.17c-1,0-2.17-.54-2.17-2.75v-3.68h1.15v3.48c0,1.2.36,2,1.4,2a1.65,1.65,0,0,0,1.51-1,1.72,1.72,0,0,0,.1-.58v-3.86h1.15Z"/><path class="cls-2" d="M238,609.44a3,3,0,0,0,1.51.46c.83,0,1.22-.42,1.22-.94s-.33-.84-1.17-1.16c-1.13-.4-1.67-1-1.67-1.78a1.94,1.94,0,0,1,2.18-1.84,3.11,3.11,0,0,1,1.54.39l-.28.83A2.44,2.44,0,0,0,240,605c-.68,0-1.05.39-1.05.86s.37.76,1.19,1.07c1.1.41,1.65,1,1.65,1.9,0,1.1-.85,1.88-2.35,1.88a3.62,3.62,0,0,1-1.77-.43Z"/><path class="cls-2" d="M193.93,642a5.6,5.6,0,0,1-2.32.42,4.09,4.09,0,0,1-4.32-4.44,4.35,4.35,0,0,1,4.57-4.6,4.65,4.65,0,0,1,2.08.39l-.27.92a4.25,4.25,0,0,0-1.77-.36,3.26,3.26,0,0,0-3.42,3.61,3.19,3.19,0,0,0,3.37,3.53,4.49,4.49,0,0,0,1.84-.37Z"/><path class="cls-2" d="M195.27,638c0-.74,0-1.38-.05-2h1l0,1.24h.05a1.87,1.87,0,0,1,1.74-1.38,1,1,0,0,1,.32,0V637a1.46,1.46,0,0,0-.39,0,1.61,1.61,0,0,0-1.53,1.47,2.89,2.89,0,0,0,0,.53v3.36h-1.13Z"/><path class="cls-2" d="M200,639.38a2,2,0,0,0,2.15,2.18,4.22,4.22,0,0,0,1.75-.32l.19.82a5.11,5.11,0,0,1-2.09.39,2.93,2.93,0,0,1-3.1-3.18c0-1.89,1.12-3.39,2.95-3.39,2.06,0,2.6,1.81,2.6,3,0,.23,0,.41,0,.53Zm3.35-.82a1.63,1.63,0,0,0-1.59-1.86,1.9,1.9,0,0,0-1.75,1.86Z"/><path class="cls-2" d="M206.36,636l.83,3.2c.18.7.35,1.35.47,2h0c.14-.63.35-1.31.55-2l1-3.22h1l1,3.15c.23.75.41,1.42.56,2.05h0a17.85,17.85,0,0,1,.48-2l.89-3.16h1.14l-2,6.3h-1l-1-3a17.34,17.34,0,0,1-.56-2.06h0a20.31,20.31,0,0,1-.57,2.08l-1,3h-1l-1.89-6.3Z"/><path class="cls-2" d="M215.47,633.09h1.14v9.23h-1.14Z"/><path class="cls-2" d="M224.23,639.12a3.07,3.07,0,0,1-3.13,3.34,3,3,0,0,1-3-3.24,3.08,3.08,0,0,1,3.12-3.34A3,3,0,0,1,224.23,639.12Zm-5,.06c0,1.38.79,2.42,1.91,2.42s1.91-1,1.91-2.44c0-1.07-.53-2.42-1.88-2.42S219.24,638,219.24,639.18Z"/><path class="cls-2" d="M230.16,642.08a4.14,4.14,0,0,1-1.81.37,3,3,0,0,1-3.13-3.21,3.2,3.2,0,0,1,3.38-3.35,3.73,3.73,0,0,1,1.58.33l-.26.88a2.69,2.69,0,0,0-1.32-.3,2.18,2.18,0,0,0-2.22,2.38,2.16,2.16,0,0,0,2.18,2.36,3.1,3.1,0,0,0,1.4-.32Z"/><path class="cls-2" d="M232.63,638.91h0c.16-.22.38-.49.56-.71l1.85-2.18h1.38L234,638.61l2.77,3.71h-1.4l-2.17-3-.58.65v2.37H231.5v-9.23h1.13Z"/><path class="cls-2" d="M187.81,649.26a13.13,13.13,0,0,1,2.17-.17,3.58,3.58,0,0,1,2.45.73,2.35,2.35,0,0,1,.77,1.83,2.54,2.54,0,0,1-.68,1.87,3.59,3.59,0,0,1-2.67,1,4.21,4.21,0,0,1-.91-.07v3.51h-1.13Zm1.13,4.22a3.52,3.52,0,0,0,.93.09c1.37,0,2.2-.66,2.2-1.87S191.25,650,190,650a4.82,4.82,0,0,0-1.06.09Z"/><path class="cls-2" d="M194.47,653.59c0-.74,0-1.38-.05-2h1l0,1.24h0a1.89,1.89,0,0,1,1.75-1.38,1,1,0,0,1,.32,0v1.08a1.51,1.51,0,0,0-.39,0,1.6,1.6,0,0,0-1.53,1.47,2.89,2.89,0,0,0,0,.53v3.36h-1.14Z"/><path class="cls-2" d="M199.23,655a2,2,0,0,0,2.16,2.18,4.17,4.17,0,0,0,1.74-.32l.2.82a5.16,5.16,0,0,1-2.1.39,2.92,2.92,0,0,1-3.09-3.17c0-1.9,1.12-3.4,3-3.4,2.06,0,2.6,1.81,2.6,3a3.26,3.26,0,0,1,0,.53Zm3.36-.82A1.63,1.63,0,0,0,201,652.3a1.89,1.89,0,0,0-1.75,1.86Z"/><path class="cls-2" d="M205,656.75a3,3,0,0,0,1.51.45c.83,0,1.22-.41,1.22-.93s-.32-.85-1.17-1.16c-1.13-.4-1.66-1-1.66-1.78a1.94,1.94,0,0,1,2.17-1.85,3.12,3.12,0,0,1,1.55.39l-.29.83a2.52,2.52,0,0,0-1.29-.36c-.67,0-1.05.39-1.05.86s.38.75,1.2,1.06c1.09.42,1.65,1,1.65,1.9,0,1.11-.86,1.89-2.36,1.89a3.58,3.58,0,0,1-1.76-.43Z"/><path class="cls-2" d="M210.1,656.75a3,3,0,0,0,1.51.45c.83,0,1.22-.41,1.22-.93s-.32-.85-1.17-1.16c-1.13-.4-1.66-1-1.66-1.78a1.94,1.94,0,0,1,2.17-1.85,3.11,3.11,0,0,1,1.54.39l-.28.83a2.52,2.52,0,0,0-1.29-.36c-.67,0-1,.39-1,.86s.38.75,1.19,1.06c1.1.42,1.66,1,1.66,1.9,0,1.11-.86,1.89-2.36,1.89a3.62,3.62,0,0,1-1.77-.43Z"/><path class="cls-2" d="M220.67,656.2c0,.65,0,1.22.05,1.72h-1l-.07-1h0a2.37,2.37,0,0,1-2.08,1.17c-1,0-2.17-.55-2.17-2.76v-3.68h1.14v3.49c0,1.19.36,2,1.4,2a1.65,1.65,0,0,0,1.51-1,1.58,1.58,0,0,0,.11-.58v-3.87h1.14Z"/><path class="cls-2" d="M222.57,653.59c0-.74,0-1.38,0-2h1l0,1.24h.05a1.87,1.87,0,0,1,1.74-1.38,1,1,0,0,1,.32,0v1.08a1.46,1.46,0,0,0-.39,0,1.61,1.61,0,0,0-1.53,1.47,2.89,2.89,0,0,0-.05.53v3.36h-1.13Z"/><path class="cls-2" d="M227.33,655a2,2,0,0,0,2.15,2.18,4.22,4.22,0,0,0,1.75-.32l.19.82a5.11,5.11,0,0,1-2.09.39,2.93,2.93,0,0,1-3.1-3.17c0-1.9,1.12-3.4,3-3.4,2.06,0,2.6,1.81,2.6,3,0,.23,0,.41,0,.53Zm3.35-.82a1.63,1.63,0,0,0-1.59-1.86,1.9,1.9,0,0,0-1.75,1.86Z"/><path class="cls-2" d="M306.44,577.38c0-.65,0-1.19-.06-1.71h1l.06,1h0a2.16,2.16,0,0,1,2-1.16,1.85,1.85,0,0,1,1.78,1.26h0a2.59,2.59,0,0,1,.7-.82,2.18,2.18,0,0,1,1.39-.44c.83,0,2.07.55,2.07,2.73V582H314.3V578.4c0-1.21-.44-1.93-1.36-1.93a1.5,1.5,0,0,0-1.36,1,1.89,1.89,0,0,0-.09.57V582h-1.12V578.2c0-1-.44-1.73-1.31-1.73a1.58,1.58,0,0,0-1.42,1.14,1.69,1.69,0,0,0-.09.56V582h-1.11Z"/><path class="cls-2" d="M317.28,577.38c0-.65,0-1.19-.06-1.71h1l0,1h0a2.16,2.16,0,0,1,2-1.16,1.85,1.85,0,0,1,1.78,1.26h0a2.59,2.59,0,0,1,.7-.82,2.18,2.18,0,0,1,1.39-.44c.83,0,2.07.55,2.07,2.73V582h-1.12V578.4c0-1.21-.44-1.93-1.36-1.93a1.5,1.5,0,0,0-1.36,1,1.89,1.89,0,0,0-.09.57V582h-1.11V578.2c0-1-.45-1.73-1.32-1.73a1.56,1.56,0,0,0-1.41,1.14,1.47,1.47,0,0,0-.1.56V582h-1.11Z"/><path class="cls-2" d="M329.29,573.2v3.67h4.24V573.2h1.14V582h-1.14v-4.11h-4.24V582h-1.13V573.2Z"/><path class="cls-2" d="M342,575.67c0,.46-.06,1-.06,1.73v3.66a3.62,3.62,0,0,1-.89,2.87,3.35,3.35,0,0,1-2.29.75,4,4,0,0,1-2.09-.52l.28-.87a3.57,3.57,0,0,0,1.85.5c1.17,0,2-.62,2-2.2v-.7h0a2.26,2.26,0,0,1-2,1.05,2.82,2.82,0,0,1-2.68-3.07c0-2.13,1.39-3.34,2.83-3.34a2.1,2.1,0,0,1,2,1.09h0l.05-1Zm-1.19,2.49a1.66,1.66,0,0,0-1.66-1.73c-1.09,0-1.87.92-1.87,2.38,0,1.23.62,2.26,1.86,2.26a1.67,1.67,0,0,0,1.58-1.17,1.88,1.88,0,0,0,.09-.61Z"/><path class="cls-2" d="M306.44,645.53c0-.65,0-1.19-.06-1.71h1l.06,1h0a2.16,2.16,0,0,1,2-1.16,1.85,1.85,0,0,1,1.78,1.26h0a2.59,2.59,0,0,1,.7-.82,2.18,2.18,0,0,1,1.39-.44c.83,0,2.07.55,2.07,2.73v3.71H314.3v-3.57c0-1.2-.44-1.93-1.36-1.93a1.5,1.5,0,0,0-1.36,1,1.89,1.89,0,0,0-.09.57v3.89h-1.12v-3.77c0-1-.44-1.73-1.31-1.73a1.58,1.58,0,0,0-1.42,1.14,1.69,1.69,0,0,0-.09.56v3.8h-1.11Z"/><path class="cls-2" d="M317.28,645.53c0-.65,0-1.19-.06-1.71h1l0,1h0a2.16,2.16,0,0,1,2-1.16,1.85,1.85,0,0,1,1.78,1.26h0a2.59,2.59,0,0,1,.7-.82,2.18,2.18,0,0,1,1.39-.44c.83,0,2.07.55,2.07,2.73v3.71h-1.12v-3.57c0-1.2-.44-1.93-1.36-1.93a1.5,1.5,0,0,0-1.36,1,1.89,1.89,0,0,0-.09.57v3.89h-1.11v-3.77c0-1-.45-1.73-1.32-1.73a1.56,1.56,0,0,0-1.41,1.14,1.47,1.47,0,0,0-.1.56v3.8h-1.11Z"/><path class="cls-2" d="M329.29,641.35V645h4.24v-3.67h1.14v8.77h-1.14V646h-4.24v4.11h-1.13v-8.77Z"/><path class="cls-2" d="M342,643.82c0,.46-.06,1-.06,1.73v3.66a3.62,3.62,0,0,1-.89,2.87,3.35,3.35,0,0,1-2.29.75,4,4,0,0,1-2.09-.52l.28-.87a3.57,3.57,0,0,0,1.85.5c1.17,0,2-.61,2-2.2V649h0a2.26,2.26,0,0,1-2,1.05,2.82,2.82,0,0,1-2.68-3.07c0-2.13,1.39-3.34,2.83-3.34a2.1,2.1,0,0,1,2,1.09h0l.05-.95Zm-1.19,2.49a1.66,1.66,0,0,0-1.66-1.73c-1.09,0-1.87.92-1.87,2.38,0,1.23.62,2.26,1.86,2.26a1.67,1.67,0,0,0,1.58-1.17,1.88,1.88,0,0,0,.09-.61Z"/><path class="cls-2" d="M847.79,365.34a13.13,13.13,0,0,1,2.17-.17,3.61,3.61,0,0,1,2.46.73,2.34,2.34,0,0,1,.76,1.83,2.58,2.58,0,0,1-.67,1.87,3.63,3.63,0,0,1-2.68,1,4.21,4.21,0,0,1-.91-.07V374h-1.13Zm1.13,4.22a3.57,3.57,0,0,0,.93.09c1.37,0,2.2-.66,2.2-1.87s-.82-1.71-2.07-1.71a4.82,4.82,0,0,0-1.06.09Z"/><path class="cls-2" d="M854.46,369.67c0-.74,0-1.38-.06-2h1l0,1.23h.06a1.87,1.87,0,0,1,1.74-1.38,1,1,0,0,1,.32,0v1.08a1.46,1.46,0,0,0-.39,0,1.6,1.6,0,0,0-1.53,1.47,2.89,2.89,0,0,0,0,.53V374h-1.13Z"/><path class="cls-2" d="M859.21,371.06a2,2,0,0,0,2.16,2.18,4.17,4.17,0,0,0,1.74-.32l.2.82a5.11,5.11,0,0,1-2.09.39,2.93,2.93,0,0,1-3.1-3.17c0-1.9,1.12-3.4,3-3.4,2.06,0,2.6,1.81,2.6,3a3.26,3.26,0,0,1,0,.53Zm3.36-.82a1.63,1.63,0,0,0-1.59-1.86,1.9,1.9,0,0,0-1.75,1.86Z"/><path class="cls-2" d="M864.93,372.83a3,3,0,0,0,1.51.45c.83,0,1.22-.41,1.22-.93s-.32-.85-1.17-1.16c-1.13-.4-1.66-1-1.66-1.78a1.94,1.94,0,0,1,2.17-1.85,3.12,3.12,0,0,1,1.55.39l-.29.83a2.52,2.52,0,0,0-1.29-.36c-.67,0-1.05.39-1.05.86s.38.75,1.2,1.06c1.09.42,1.65,1,1.65,1.9,0,1.11-.86,1.89-2.35,1.89a3.59,3.59,0,0,1-1.77-.43Z"/><path class="cls-2" d="M870.08,372.83a3,3,0,0,0,1.51.45c.83,0,1.22-.41,1.22-.93s-.32-.85-1.17-1.16c-1.13-.4-1.66-1-1.66-1.78a1.94,1.94,0,0,1,2.17-1.85,3.15,3.15,0,0,1,1.55.39l-.29.83a2.52,2.52,0,0,0-1.29-.36c-.67,0-1,.39-1,.86s.38.75,1.2,1.06c1.09.42,1.65,1,1.65,1.9,0,1.11-.86,1.89-2.36,1.89a3.62,3.62,0,0,1-1.77-.43Z"/><path class="cls-2" d="M880.65,372.28c0,.65,0,1.22.05,1.72h-1l-.07-1h0a2.36,2.36,0,0,1-2.08,1.17c-1,0-2.17-.55-2.17-2.76v-3.67h1.14v3.48c0,1.19.36,2,1.4,2a1.65,1.65,0,0,0,1.51-1,1.58,1.58,0,0,0,.11-.58v-3.86h1.14Z"/><path class="cls-2" d="M882.55,369.67c0-.74,0-1.38,0-2h1l0,1.23h.05a1.87,1.87,0,0,1,1.74-1.38,1.15,1.15,0,0,1,.33,0v1.08a1.56,1.56,0,0,0-.39,0,1.61,1.61,0,0,0-1.54,1.47,4.15,4.15,0,0,0-.05.53V374h-1.13Z"/><path class="cls-2" d="M887.31,371.06a2,2,0,0,0,2.15,2.18,4.22,4.22,0,0,0,1.75-.32l.19.82a5.11,5.11,0,0,1-2.09.39,2.93,2.93,0,0,1-3.1-3.17c0-1.9,1.12-3.4,3-3.4,2.05,0,2.6,1.81,2.6,3a5,5,0,0,1,0,.53Zm3.35-.82a1.63,1.63,0,0,0-1.59-1.86,1.9,1.9,0,0,0-1.75,1.86Z"/><path class="cls-2" d="M853.92,401.28a5.75,5.75,0,0,1-2.31.41,4.09,4.09,0,0,1-4.33-4.43,4.36,4.36,0,0,1,4.58-4.6,4.65,4.65,0,0,1,2.08.39l-.28.92a4.1,4.1,0,0,0-1.77-.36c-2,0-3.41,1.31-3.41,3.61a3.18,3.18,0,0,0,3.36,3.52,4.58,4.58,0,0,0,1.85-.36Z"/><path class="cls-2" d="M860.85,398.36a3.08,3.08,0,0,1-3.13,3.35,3,3,0,0,1-3-3.24,3.07,3.07,0,0,1,3.12-3.34A3,3,0,0,1,860.85,398.36Zm-5,.07c0,1.38.79,2.42,1.91,2.42s1.91-1,1.91-2.45c0-1.06-.53-2.41-1.88-2.41S855.86,397.23,855.86,398.43Z"/><path class="cls-2" d="M868,398.36a3.08,3.08,0,0,1-3.13,3.35,3,3,0,0,1-3-3.24,3.07,3.07,0,0,1,3.12-3.34A3,3,0,0,1,868,398.36Zm-5,.07c0,1.38.79,2.42,1.91,2.42s1.91-1,1.91-2.45c0-1.06-.53-2.41-1.89-2.41S863,397.23,863,398.43Z"/><path class="cls-2" d="M869.43,392.33h1.15v9.23h-1.15Z"/><path class="cls-2" d="M876,401.56l-.09-.79h0a2.34,2.34,0,0,1-1.92.94A1.8,1.8,0,0,1,872,399.9c0-1.52,1.36-2.36,3.79-2.34v-.13a1.3,1.3,0,0,0-1.43-1.46,3.09,3.09,0,0,0-1.64.47l-.26-.75a3.88,3.88,0,0,1,2.07-.56c1.92,0,2.39,1.31,2.39,2.57v2.35a9.8,9.8,0,0,0,.1,1.51Zm-.17-3.21c-1.24,0-2.66.2-2.66,1.42a1,1,0,0,0,1.08,1.09,1.56,1.56,0,0,0,1.52-1.05,1.19,1.19,0,0,0,.06-.37Z"/><path class="cls-2" d="M878.77,397c0-.65,0-1.18-.06-1.7h1l.06,1h0a2.31,2.31,0,0,1,2.08-1.18c.87,0,2.22.52,2.22,2.67v3.76H883v-3.62c0-1-.38-1.86-1.46-1.86a1.62,1.62,0,0,0-1.53,1.17,1.64,1.64,0,0,0-.08.53v3.78h-1.14Z"/><path class="cls-2" d="M887.31,393.46v1.81h1.63v.87h-1.63v3.39c0,.78.22,1.23.85,1.23a2.58,2.58,0,0,0,.67-.08l0,.86a2.82,2.82,0,0,1-1,.15,1.59,1.59,0,0,1-1.24-.48,2.37,2.37,0,0,1-.44-1.64v-3.43h-1v-.87h1v-1.51Z"/><path class="cls-2" d="M849.46,409.36H846.8v-1h6.49v1h-2.68v7.8h-1.15Z"/><path class="cls-2" d="M853.94,414.22a2,2,0,0,0,2.15,2.19,4,4,0,0,0,1.75-.33l.19.82a5.11,5.11,0,0,1-2.09.39,2.92,2.92,0,0,1-3.1-3.17c0-1.9,1.12-3.39,2.95-3.39a2.67,2.67,0,0,1,2.61,3,4.61,4.61,0,0,1,0,.53Zm3.35-.81a1.63,1.63,0,0,0-1.59-1.86,1.89,1.89,0,0,0-1.75,1.86Z"/><path class="cls-2" d="M859.81,412.57c0-.65,0-1.18,0-1.7h1l0,1h0a2.18,2.18,0,0,1,2-1.15,1.85,1.85,0,0,1,1.78,1.26h0a2.63,2.63,0,0,1,.71-.82,2.1,2.1,0,0,1,1.39-.44c.83,0,2.06.54,2.06,2.73v3.7h-1.11V413.6c0-1.21-.45-1.94-1.37-1.94a1.47,1.47,0,0,0-1.35,1,2,2,0,0,0-.09.58v3.88h-1.12v-3.77c0-1-.44-1.73-1.31-1.73a1.57,1.57,0,0,0-1.42,1.15,1.69,1.69,0,0,0-.09.56v3.79h-1.12Z"/><path class="cls-2" d="M870.65,412.92c0-.8,0-1.45,0-2.05h1l0,1.08h0a2.46,2.46,0,0,1,2.23-1.22c1.52,0,2.67,1.28,2.67,3.2,0,2.26-1.38,3.38-2.86,3.38a2.23,2.23,0,0,1-1.94-1h0v3.42h-1.13Zm1.13,1.68a2.23,2.23,0,0,0,.06.47,1.75,1.75,0,0,0,1.71,1.34c1.21,0,1.91-1,1.91-2.43,0-1.26-.66-2.34-1.87-2.34a1.83,1.83,0,0,0-1.73,1.41,1.93,1.93,0,0,0-.08.47Z"/><path class="cls-2" d="M847.75,438.08c0-.81,0-1.46,0-2.06h1l0,1.08h0a2.49,2.49,0,0,1,2.24-1.22c1.52,0,2.66,1.29,2.66,3.2,0,2.26-1.38,3.38-2.86,3.38a2.21,2.21,0,0,1-1.94-1h0v3.42h-1.13Zm1.13,1.68a2.24,2.24,0,0,0,0,.46,1.76,1.76,0,0,0,1.72,1.34c1.21,0,1.91-1,1.91-2.43,0-1.26-.67-2.34-1.87-2.34a1.83,1.83,0,0,0-1.73,1.42,1.78,1.78,0,0,0-.08.47Z"/><path class="cls-2" d="M855.14,438.08c0-.81,0-1.46,0-2.06h1l0,1.08h0a2.49,2.49,0,0,1,2.23-1.22c1.53,0,2.67,1.29,2.67,3.2,0,2.26-1.38,3.38-2.86,3.38a2.21,2.21,0,0,1-1.94-1h0v3.42h-1.14Zm1.14,1.68a2.24,2.24,0,0,0,.05.46,1.75,1.75,0,0,0,1.71,1.34c1.21,0,1.92-1,1.92-2.43,0-1.26-.67-2.34-1.88-2.34a1.83,1.83,0,0,0-1.73,1.42,1.78,1.78,0,0,0-.07.47Z"/><path class="cls-2" d="M870.07,437.84c0,3-1.83,4.62-4.07,4.62s-3.94-1.79-3.94-4.45,1.73-4.6,4.07-4.6S870.07,435.24,870.07,437.84Zm-6.8.15c0,1.87,1,3.55,2.79,3.55s2.81-1.65,2.81-3.64c0-1.75-.91-3.57-2.79-3.57S863.27,436.06,863.27,438Z"/><path class="cls-2" d="M870.71,443.75l.81-.77c1.08-1,1.64-1.59,1.64-2.25a.88.88,0,0,0-1-.91,2,2,0,0,0-1.09.4l-.27-.58a2.53,2.53,0,0,1,1.59-.55,1.52,1.52,0,0,1,1.72,1.47c0,1-.74,1.69-1.72,2.56l-.41.37v0h2.23v.72h-3.51Z"/><path class="cls-2" d="M962.31,369.41c0-.65,0-1.19,0-1.7h1l0,1h0a2.17,2.17,0,0,1,2-1.16,1.86,1.86,0,0,1,1.78,1.26h0a2.75,2.75,0,0,1,.71-.82,2.16,2.16,0,0,1,1.39-.44c.83,0,2.06.55,2.06,2.73V374h-1.11v-3.57c0-1.2-.45-1.93-1.37-1.93a1.47,1.47,0,0,0-1.35,1,1.89,1.89,0,0,0-.09.57V374h-1.12v-3.77c0-1-.44-1.73-1.31-1.73a1.56,1.56,0,0,0-1.42,1.14,1.73,1.73,0,0,0-.09.56V374h-1.12Z"/><path class="cls-2" d="M973.15,369.41c0-.65,0-1.19,0-1.7h1l0,1h0a2.17,2.17,0,0,1,2-1.16,1.85,1.85,0,0,1,1.78,1.26h0a2.59,2.59,0,0,1,.7-.82,2.16,2.16,0,0,1,1.39-.44c.83,0,2.07.55,2.07,2.73V374H981v-3.57c0-1.2-.44-1.93-1.37-1.93a1.48,1.48,0,0,0-1.35,1,1.89,1.89,0,0,0-.09.57V374h-1.12v-3.77c0-1-.44-1.73-1.31-1.73a1.56,1.56,0,0,0-1.42,1.14,1.73,1.73,0,0,0-.09.56V374h-1.12Z"/><path class="cls-2" d="M985.17,365.23v3.67h4.23v-3.67h1.15V374H989.4v-4.11h-4.23V374H984v-8.77Z"/><path class="cls-2" d="M997.89,367.71c0,.45,0,1,0,1.72v3.66a3.62,3.62,0,0,1-.9,2.87,3.32,3.32,0,0,1-2.28.75,4.06,4.06,0,0,1-2.1-.52l.29-.87a3.51,3.51,0,0,0,1.84.5c1.17,0,2-.61,2-2.2v-.7h0a2.27,2.27,0,0,1-2,1.05A2.81,2.81,0,0,1,992,370.9c0-2.13,1.39-3.34,2.83-3.34a2.09,2.09,0,0,1,2,1.09h0l0-.94Zm-1.18,2.48a1.4,1.4,0,0,0-.07-.52,1.63,1.63,0,0,0-1.6-1.21c-1.09,0-1.87.92-1.87,2.38,0,1.23.63,2.26,1.86,2.26a1.68,1.68,0,0,0,1.59-1.17,2.2,2.2,0,0,0,.09-.61Z"/><path class="cls-2" d="M961.91,401.2a1.23,1.23,0,0,1,1.32-1.24,1.21,1.21,0,1,1-1.32,1.24Zm2,0a.67.67,0,0,0-.67-.71.66.66,0,0,0-.64.74.66.66,0,1,0,1.31,0Z"/><path class="cls-2" d="M972.39,409.08a5.63,5.63,0,0,1-2.32.41,4.09,4.09,0,0,1-4.33-4.43,4.36,4.36,0,0,1,4.58-4.6,4.65,4.65,0,0,1,2.08.39l-.27.92a4.1,4.1,0,0,0-1.77-.36c-2.06,0-3.42,1.31-3.42,3.61a3.18,3.18,0,0,0,3.37,3.52,4.5,4.5,0,0,0,1.84-.36Z"/><path class="cls-2" d="M962.31,437.73c0-.65,0-1.19,0-1.71h1l0,1h0a2.17,2.17,0,0,1,2-1.16,1.86,1.86,0,0,1,1.78,1.26h0a2.75,2.75,0,0,1,.71-.82,2.16,2.16,0,0,1,1.39-.44c.83,0,2.06.55,2.06,2.73v3.71h-1.11v-3.57c0-1.2-.45-1.93-1.37-1.93a1.47,1.47,0,0,0-1.35,1,1.89,1.89,0,0,0-.09.57v3.89h-1.12v-3.77c0-1-.44-1.73-1.31-1.73a1.56,1.56,0,0,0-1.42,1.14,1.73,1.73,0,0,0-.09.56v3.8h-1.12Z"/><path class="cls-2" d="M973.15,437.73c0-.65,0-1.19,0-1.71h1l0,1h0a2.17,2.17,0,0,1,2-1.16,1.85,1.85,0,0,1,1.78,1.26h0a2.59,2.59,0,0,1,.7-.82,2.16,2.16,0,0,1,1.39-.44c.83,0,2.07.55,2.07,2.73v3.71H981v-3.57c0-1.2-.44-1.93-1.37-1.93a1.48,1.48,0,0,0-1.35,1,1.89,1.89,0,0,0-.09.57v3.89h-1.12v-3.77c0-1-.44-1.73-1.31-1.73a1.56,1.56,0,0,0-1.42,1.14,1.73,1.73,0,0,0-.09.56v3.8h-1.12Z"/><path class="cls-2" d="M985.17,433.55v3.67h4.23v-3.67h1.15v8.77H989.4v-4.11h-4.23v4.11H984v-8.77Z"/><path class="cls-2" d="M997.89,436c0,.46,0,1,0,1.73v3.66a3.62,3.62,0,0,1-.9,2.87,3.32,3.32,0,0,1-2.28.75,4.06,4.06,0,0,1-2.1-.52l.29-.87a3.51,3.51,0,0,0,1.84.5c1.17,0,2-.61,2-2.2v-.7h0a2.27,2.27,0,0,1-2,1.05,2.81,2.81,0,0,1-2.67-3.07c0-2.13,1.39-3.34,2.83-3.34a2.09,2.09,0,0,1,2,1.09h0l0-1Zm-1.18,2.49a1.4,1.4,0,0,0-.07-.52,1.63,1.63,0,0,0-1.6-1.21c-1.09,0-1.87.92-1.87,2.38,0,1.23.63,2.26,1.86,2.26a1.68,1.68,0,0,0,1.59-1.17,2.2,2.2,0,0,0,.09-.61Z"/><path class="cls-2" d="M555.87,452.42c0-.65,0-1.19,0-1.71h1l0,1h0a2.16,2.16,0,0,1,2-1.16,1.88,1.88,0,0,1,1.79,1.26h0a2.73,2.73,0,0,1,.7-.82,2.2,2.2,0,0,1,1.39-.44c.84,0,2.07.55,2.07,2.73V457h-1.12v-3.56c0-1.21-.44-1.94-1.36-1.94a1.47,1.47,0,0,0-1.35,1,1.62,1.62,0,0,0-.09.57V457h-1.12v-3.77c0-1-.44-1.73-1.32-1.73a1.56,1.56,0,0,0-1.41,1.14,1.5,1.5,0,0,0-.09.56V457h-1.12Z"/><path class="cls-2" d="M566.71,452.42c0-.65,0-1.19-.05-1.71h1l.05,1h0a2.17,2.17,0,0,1,2-1.16,1.87,1.87,0,0,1,1.78,1.26h0a2.88,2.88,0,0,1,.7-.82,2.21,2.21,0,0,1,1.4-.44c.83,0,2.06.55,2.06,2.73V457h-1.11v-3.56c0-1.21-.45-1.94-1.37-1.94a1.47,1.47,0,0,0-1.35,1,1.89,1.89,0,0,0-.09.57V457h-1.12v-3.77c0-1-.44-1.73-1.31-1.73a1.56,1.56,0,0,0-1.42,1.14,1.5,1.5,0,0,0-.09.56V457h-1.12Z"/><path class="cls-2" d="M578.72,448.25v3.66H583v-3.66h1.14V457H583V452.9h-4.24V457h-1.13v-8.76Z"/><path class="cls-2" d="M591.45,450.71c0,.46-.05,1-.05,1.73v3.66a3.62,3.62,0,0,1-.9,2.87,3.35,3.35,0,0,1-2.29.75,4,4,0,0,1-2.09-.52l.28-.87a3.57,3.57,0,0,0,1.85.5c1.17,0,2-.61,2-2.2v-.7h0a2.24,2.24,0,0,1-2,1.05,2.81,2.81,0,0,1-2.68-3.07c0-2.13,1.39-3.34,2.84-3.34a2.09,2.09,0,0,1,2,1.09h0l.05-1Zm-1.18,2.49a1.69,1.69,0,0,0-1.67-1.73c-1.09,0-1.87.92-1.87,2.38,0,1.23.62,2.26,1.86,2.26a1.66,1.66,0,0,0,1.58-1.17,1.86,1.86,0,0,0,.1-.61Z"/><path class="cls-2" d="M555.87,481c0-.65,0-1.19,0-1.71h1l0,1h0a2.16,2.16,0,0,1,2-1.16,1.88,1.88,0,0,1,1.79,1.26h0a2.73,2.73,0,0,1,.7-.82,2.2,2.2,0,0,1,1.39-.44c.84,0,2.07.55,2.07,2.73v3.71h-1.12V482c0-1.21-.44-1.93-1.36-1.93a1.47,1.47,0,0,0-1.35,1,1.62,1.62,0,0,0-.09.57v3.89h-1.12v-3.77c0-1-.44-1.73-1.32-1.73a1.56,1.56,0,0,0-1.41,1.14,1.46,1.46,0,0,0-.09.56v3.8h-1.12Z"/><path class="cls-2" d="M566.71,481c0-.65,0-1.19-.05-1.71h1l.05,1h0a2.17,2.17,0,0,1,2-1.16,1.87,1.87,0,0,1,1.78,1.26h0a2.88,2.88,0,0,1,.7-.82,2.21,2.21,0,0,1,1.4-.44c.83,0,2.06.55,2.06,2.73v3.71h-1.11V482c0-1.21-.45-1.93-1.37-1.93a1.47,1.47,0,0,0-1.35,1,1.89,1.89,0,0,0-.09.57v3.89h-1.12v-3.77c0-1-.44-1.73-1.31-1.73a1.56,1.56,0,0,0-1.42,1.14,1.46,1.46,0,0,0-.09.56v3.8h-1.12Z"/><path class="cls-2" d="M578.72,476.77v3.67H583v-3.67h1.14v8.77H583v-4.11h-4.24v4.11h-1.13v-8.77Z"/><path class="cls-2" d="M591.45,479.24c0,.46-.05,1-.05,1.73v3.65a3.63,3.63,0,0,1-.9,2.88,3.35,3.35,0,0,1-2.29.75,4,4,0,0,1-2.09-.52l.28-.87a3.57,3.57,0,0,0,1.85.5c1.17,0,2-.62,2-2.2v-.7h0a2.24,2.24,0,0,1-2,1.05,2.82,2.82,0,0,1-2.68-3.07c0-2.13,1.39-3.34,2.84-3.34a2.09,2.09,0,0,1,2,1.09h0l.05-.95Zm-1.18,2.49A1.69,1.69,0,0,0,588.6,480c-1.09,0-1.87.92-1.87,2.38,0,1.23.62,2.26,1.86,2.26a1.66,1.66,0,0,0,1.58-1.17,1.9,1.9,0,0,0,.1-.61Z"/><path class="cls-2" d="M309.08,74.61c0-.65,0-1.18-.05-1.7h1l.06,1h0a2.18,2.18,0,0,1,2-1.16A1.85,1.85,0,0,1,313.88,74h0a2.45,2.45,0,0,1,.7-.81,2.13,2.13,0,0,1,1.39-.45c.83,0,2.07.55,2.07,2.73V79.2H317V75.64c0-1.21-.44-1.94-1.37-1.94a1.49,1.49,0,0,0-1.35,1,2,2,0,0,0-.09.57V79.2H313V75.43c0-1-.44-1.73-1.31-1.73a1.58,1.58,0,0,0-1.42,1.14,1.73,1.73,0,0,0-.09.56v3.8h-1.12Z"/><path class="cls-2" d="M319.93,74.61c0-.65,0-1.18-.06-1.7h1l.05,1h0a2.16,2.16,0,0,1,2-1.16A1.85,1.85,0,0,1,324.72,74h0a2.45,2.45,0,0,1,.7-.81,2.13,2.13,0,0,1,1.39-.45c.83,0,2.07.55,2.07,2.73V79.2h-1.12V75.64c0-1.21-.44-1.94-1.36-1.94a1.5,1.5,0,0,0-1.36,1,2,2,0,0,0-.09.57V79.2h-1.11V75.43c0-1-.45-1.73-1.32-1.73a1.56,1.56,0,0,0-1.41,1.14,1.5,1.5,0,0,0-.1.56v3.8h-1.11Z"/><path class="cls-2" d="M331.94,70.44V74.1h4.24V70.44h1.14V79.2h-1.14V75.09h-4.24V79.2h-1.13V70.44Z"/><path class="cls-2" d="M344.67,72.91c0,.45-.06,1-.06,1.73v3.65a3.61,3.61,0,0,1-.89,2.87,3.36,3.36,0,0,1-2.29.76,4.09,4.09,0,0,1-2.09-.52l.28-.87a3.58,3.58,0,0,0,1.85.49c1.17,0,2-.61,2-2.2v-.7h0a2.24,2.24,0,0,1-2,1,2.81,2.81,0,0,1-2.68-3.07c0-2.13,1.39-3.34,2.83-3.34a2.11,2.11,0,0,1,2,1.1h0l.05-1Zm-1.19,2.48a1.73,1.73,0,0,0-.06-.52,1.66,1.66,0,0,0-1.6-1.21c-1.09,0-1.87.92-1.87,2.38,0,1.24.62,2.26,1.86,2.26a1.67,1.67,0,0,0,1.58-1.17,1.81,1.81,0,0,0,.09-.61Z"/><path class="cls-2" d="M308.67,107A1.22,1.22,0,0,1,310,105.8a1.21,1.21,0,0,1,1.29,1.22,1.31,1.31,0,0,1-2.61,0Zm2,0a.68.68,0,0,0-.68-.72.67.67,0,0,0-.64.74.66.66,0,1,0,1.32,0Z"/><path class="cls-2" d="M319.15,114.91a5.6,5.6,0,0,1-2.32.42,4.1,4.1,0,0,1-4.33-4.44,4.36,4.36,0,0,1,4.58-4.6,4.8,4.8,0,0,1,2.08.39l-.27.93a4.09,4.09,0,0,0-1.77-.37c-2.06,0-3.42,1.31-3.42,3.62a3.18,3.18,0,0,0,3.37,3.52,4.33,4.33,0,0,0,1.84-.37Z"/><path class="cls-2" d="M309.08,146.61c0-.65,0-1.19-.05-1.71h1l.06,1h0a2.18,2.18,0,0,1,2-1.16,1.85,1.85,0,0,1,1.78,1.26h0a2.59,2.59,0,0,1,.7-.82,2.18,2.18,0,0,1,1.39-.44c.83,0,2.07.55,2.07,2.73v3.71H317v-3.57c0-1.21-.44-1.93-1.37-1.93a1.49,1.49,0,0,0-1.35,1,1.89,1.89,0,0,0-.09.57v3.89H313v-3.77c0-1-.44-1.73-1.31-1.73a1.58,1.58,0,0,0-1.42,1.14,1.69,1.69,0,0,0-.09.56v3.8h-1.12Z"/><path class="cls-2" d="M319.93,146.61c0-.65,0-1.19-.06-1.71h1l.05,1h0a2.16,2.16,0,0,1,2-1.16,1.85,1.85,0,0,1,1.78,1.26h0a2.59,2.59,0,0,1,.7-.82,2.18,2.18,0,0,1,1.39-.44c.83,0,2.07.55,2.07,2.73v3.71h-1.12v-3.57c0-1.21-.44-1.93-1.36-1.93a1.5,1.5,0,0,0-1.36,1,1.89,1.89,0,0,0-.09.57v3.89h-1.11v-3.77c0-1-.45-1.73-1.32-1.73a1.56,1.56,0,0,0-1.41,1.14,1.47,1.47,0,0,0-.1.56v3.8h-1.11Z"/><path class="cls-2" d="M331.94,142.43v3.67h4.24v-3.67h1.14v8.77h-1.14v-4.11h-4.24v4.11h-1.13v-8.77Z"/><path class="cls-2" d="M344.67,144.9c0,.46-.06,1-.06,1.73v3.66a3.62,3.62,0,0,1-.89,2.87,3.35,3.35,0,0,1-2.29.75,4,4,0,0,1-2.09-.52l.28-.87a3.57,3.57,0,0,0,1.85.5c1.17,0,2-.62,2-2.2v-.7h0a2.26,2.26,0,0,1-2,1,2.82,2.82,0,0,1-2.68-3.07c0-2.13,1.39-3.34,2.83-3.34a2.1,2.1,0,0,1,2,1.09h0l.05-.95Zm-1.19,2.49a1.66,1.66,0,0,0-1.66-1.73c-1.09,0-1.87.92-1.87,2.38,0,1.23.62,2.26,1.86,2.26a1.67,1.67,0,0,0,1.58-1.17,1.88,1.88,0,0,0,.09-.61Z"/><path class="cls-2" d="M309.08,182.6c0-.64,0-1.18-.05-1.7h1l.06,1h0a2.18,2.18,0,0,1,2-1.16,1.85,1.85,0,0,1,1.78,1.26h0a2.59,2.59,0,0,1,.7-.82,2.18,2.18,0,0,1,1.39-.44c.83,0,2.07.55,2.07,2.73v3.7H317v-3.56c0-1.21-.44-1.93-1.37-1.93a1.49,1.49,0,0,0-1.35,1,1.89,1.89,0,0,0-.09.57v3.88H313v-3.77c0-1-.44-1.72-1.31-1.72a1.58,1.58,0,0,0-1.42,1.14,1.69,1.69,0,0,0-.09.56v3.79h-1.12Z"/><path class="cls-2" d="M319.93,182.6c0-.64,0-1.18-.06-1.7h1l.05,1h0a2.16,2.16,0,0,1,2-1.16,1.85,1.85,0,0,1,1.78,1.26h0a2.59,2.59,0,0,1,.7-.82,2.18,2.18,0,0,1,1.39-.44c.83,0,2.07.55,2.07,2.73v3.7h-1.12v-3.56c0-1.21-.44-1.93-1.36-1.93a1.5,1.5,0,0,0-1.36,1,1.89,1.89,0,0,0-.09.57v3.88h-1.11v-3.77c0-1-.45-1.72-1.32-1.72a1.56,1.56,0,0,0-1.41,1.14,1.47,1.47,0,0,0-.1.56v3.79h-1.11Z"/><path class="cls-2" d="M331.94,178.43v3.67h4.24v-3.67h1.14v8.76h-1.14v-4.1h-4.24v4.1h-1.13v-8.76Z"/><path class="cls-2" d="M344.67,180.9c0,.46-.06,1-.06,1.73v3.65a3.64,3.64,0,0,1-.89,2.88,3.35,3.35,0,0,1-2.29.75,4,4,0,0,1-2.09-.52l.28-.87a3.58,3.58,0,0,0,1.85.49c1.17,0,2-.61,2-2.19v-.7h0a2.26,2.26,0,0,1-2,1,2.82,2.82,0,0,1-2.68-3.07c0-2.13,1.39-3.34,2.83-3.34a2.1,2.1,0,0,1,2,1.09h0l.05-.95Zm-1.19,2.49a1.66,1.66,0,0,0-1.66-1.73c-1.09,0-1.87.92-1.87,2.38,0,1.23.62,2.26,1.86,2.26a1.67,1.67,0,0,0,1.58-1.17,1.88,1.88,0,0,0,.09-.61Z"/><path class="cls-2" d="M309.08,218.6c0-.65,0-1.18-.05-1.7h1l.06,1h0a2.2,2.2,0,0,1,2-1.15,1.85,1.85,0,0,1,1.78,1.26h0a2.49,2.49,0,0,1,.7-.82,2.12,2.12,0,0,1,1.39-.44c.83,0,2.07.54,2.07,2.73v3.7H317v-3.56c0-1.21-.44-1.94-1.37-1.94a1.49,1.49,0,0,0-1.35,1,2,2,0,0,0-.09.58v3.88H313v-3.77c0-1-.44-1.73-1.31-1.73a1.59,1.59,0,0,0-1.42,1.15,1.69,1.69,0,0,0-.09.56v3.79h-1.12Z"/><path class="cls-2" d="M319.93,218.6c0-.65,0-1.18-.06-1.7h1l.05,1h0a2.17,2.17,0,0,1,2-1.15,1.85,1.85,0,0,1,1.78,1.26h0a2.49,2.49,0,0,1,.7-.82,2.12,2.12,0,0,1,1.39-.44c.83,0,2.07.54,2.07,2.73v3.7h-1.12v-3.56c0-1.21-.44-1.94-1.36-1.94a1.5,1.5,0,0,0-1.36,1,2,2,0,0,0-.09.58v3.88h-1.11v-3.77c0-1-.45-1.73-1.32-1.73a1.57,1.57,0,0,0-1.41,1.15,1.47,1.47,0,0,0-.1.56v3.79h-1.11Z"/><path class="cls-2" d="M331.94,214.43v3.67h4.24v-3.67h1.14v8.76h-1.14v-4.11h-4.24v4.11h-1.13v-8.76Z"/><path class="cls-2" d="M344.67,216.9c0,.46-.06,1-.06,1.73v3.65a3.64,3.64,0,0,1-.89,2.88,3.35,3.35,0,0,1-2.29.75,4,4,0,0,1-2.09-.52l.28-.87a3.58,3.58,0,0,0,1.85.49c1.17,0,2-.61,2-2.19v-.71h0a2.24,2.24,0,0,1-2,1.06,2.82,2.82,0,0,1-2.68-3.07c0-2.13,1.39-3.34,2.83-3.34a2.1,2.1,0,0,1,2,1.09h0l.05-.95Zm-1.19,2.48a1.73,1.73,0,0,0-.06-.52,1.66,1.66,0,0,0-1.6-1.21c-1.09,0-1.87.93-1.87,2.38,0,1.24.62,2.27,1.86,2.27a1.68,1.68,0,0,0,1.58-1.17,1.9,1.9,0,0,0,.09-.62Z"/><path class="cls-2" d="M187.81,250.43h4.71v.95h-3.58v2.91h3.31v.94h-3.31v4h-1.13Z"/><path class="cls-2" d="M197,259.19l-.09-.79h0a2.36,2.36,0,0,1-1.93.93,1.79,1.79,0,0,1-1.92-1.8c0-1.52,1.35-2.36,3.78-2.34v-.13a1.3,1.3,0,0,0-1.43-1.46,3.14,3.14,0,0,0-1.64.47l-.26-.76a4,4,0,0,1,2.07-.55c1.92,0,2.39,1.31,2.39,2.57v2.35a8.62,8.62,0,0,0,.11,1.51Zm-.17-3.21c-1.25,0-2.67.19-2.67,1.42a1,1,0,0,0,1.08,1.09,1.56,1.56,0,0,0,1.52-1.05,1.21,1.21,0,0,0,.07-.37Z"/><path class="cls-2" d="M199.78,254.6c0-.65,0-1.18-.05-1.7h1l.07,1h0a2.31,2.31,0,0,1,2.08-1.18c.87,0,2.22.52,2.22,2.67v3.76H204v-3.63c0-1-.38-1.86-1.46-1.86a1.64,1.64,0,0,0-1.53,1.17,1.75,1.75,0,0,0-.08.54v3.78h-1.14Z"/><path class="cls-2" d="M209.63,257.81a4,4,0,0,0,2,.57c1.16,0,1.83-.61,1.83-1.49s-.46-1.29-1.65-1.74c-1.43-.51-2.31-1.25-2.31-2.49s1.13-2.37,2.83-2.37a4,4,0,0,1,1.94.42l-.31.93a3.45,3.45,0,0,0-1.67-.42c-1.19,0-1.65.72-1.65,1.31,0,.82.54,1.23,1.74,1.69,1.49.58,2.24,1.29,2.24,2.58s-1,2.52-3.07,2.52a4.52,4.52,0,0,1-2.23-.56Z"/><path class="cls-2" d="M217.5,251.09v1.81h1.64v.87H217.5v3.39c0,.78.22,1.22.86,1.22a2.58,2.58,0,0,0,.66-.07l0,.86a2.82,2.82,0,0,1-1,.15,1.59,1.59,0,0,1-1.24-.48,2.37,2.37,0,0,1-.44-1.64v-3.43h-1v-.87h1v-1.51Z"/><path class="cls-2" d="M223.91,259.19l-.09-.79h0a2.36,2.36,0,0,1-1.93.93,1.79,1.79,0,0,1-1.92-1.8c0-1.52,1.35-2.36,3.78-2.34v-.13a1.3,1.3,0,0,0-1.43-1.46,3.11,3.11,0,0,0-1.64.47l-.26-.76a4,4,0,0,1,2.07-.55c1.92,0,2.39,1.31,2.39,2.57v2.35a8.62,8.62,0,0,0,.11,1.51Zm-.17-3.21c-1.25,0-2.67.19-2.67,1.42a1,1,0,0,0,1.08,1.09,1.56,1.56,0,0,0,1.52-1.05,1.21,1.21,0,0,0,.07-.37Z"/><path class="cls-2" d="M228,251.09v1.81h1.64v.87H228v3.39c0,.78.23,1.22.86,1.22a2.67,2.67,0,0,0,.67-.07l.05.86a2.85,2.85,0,0,1-1,.15,1.58,1.58,0,0,1-1.23-.48,2.32,2.32,0,0,1-.44-1.64v-3.43h-1v-.87h1v-1.51Z"/><path class="cls-2" d="M236.2,257.48c0,.64,0,1.22.06,1.71h-1l-.06-1h0a2.36,2.36,0,0,1-2.08,1.17c-1,0-2.17-.54-2.17-2.75V252.9H232v3.48c0,1.2.37,2,1.41,2a1.65,1.65,0,0,0,1.51-1,1.72,1.72,0,0,0,.1-.58V252.9h1.14Z"/><path class="cls-2" d="M238,258a3,3,0,0,0,1.5.46c.84,0,1.23-.42,1.23-.94s-.33-.85-1.17-1.16c-1.13-.4-1.67-1-1.67-1.78a1.94,1.94,0,0,1,2.17-1.84,3.12,3.12,0,0,1,1.55.39l-.29.83a2.37,2.37,0,0,0-1.28-.37c-.68,0-1.06.39-1.06.86s.38.76,1.2,1.07c1.09.41,1.65,1,1.65,1.9,0,1.1-.86,1.88-2.35,1.88a3.59,3.59,0,0,1-1.77-.43Z"/><rect class="cls-2" x="250.51" y="297.16" width="32.44" height="26.48"/><rect class="cls-2" x="250.51" y="511.35" width="32.44" height="26.48"/><rect class="cls-2" x="355.94" y="404.26" width="32.44" height="26.48"/><rect class="cls-2" x="907.06" y="297.16" width="32.44" height="26.48"/><rect class="cls-2" x="907.06" y="511.35" width="32.44" height="26.48"/><rect class="cls-2" x="800.86" y="404.26" width="32.44" height="26.48"/><path class="cls-2" d="M698.89,670.51H407a12.51,12.51,0,0,1-12.5-12.5V554.63a12.5,12.5,0,0,1,12.5-12.5H698.89a12.5,12.5,0,0,1,12.5,12.5V658A12.51,12.51,0,0,1,698.89,670.51ZM407,543.13a11.51,11.51,0,0,0-11.5,11.5V658a11.51,11.51,0,0,0,11.5,11.5H698.89a11.51,11.51,0,0,0,11.5-11.5V554.63a11.51,11.51,0,0,0-11.5-11.5Z"/><path class="cls-2" d="M32.61,562.71,29.75,554H31l1.37,4.31c.38,1.19.7,2.25.93,3.28h0c.25-1,.61-2.12,1-3.26L35.78,554H37l-3.13,8.76Z"/><path class="cls-2" d="M41,562.71l-.09-.79h0a2.36,2.36,0,0,1-1.93.93,1.79,1.79,0,0,1-1.92-1.8c0-1.52,1.35-2.36,3.78-2.34v-.13a1.3,1.3,0,0,0-1.43-1.46,3.14,3.14,0,0,0-1.64.47l-.26-.76a4,4,0,0,1,2.07-.55c1.93,0,2.39,1.31,2.39,2.57v2.35a8.62,8.62,0,0,0,.11,1.51Zm-.17-3.21c-1.25,0-2.67.2-2.67,1.42A1,1,0,0,0,39.2,562a1.56,1.56,0,0,0,1.52-1,1.21,1.21,0,0,0,.07-.37Z"/><path class="cls-2" d="M48.22,562.48a4.27,4.27,0,0,1-1.8.36,3,3,0,0,1-3.13-3.21,3.19,3.19,0,0,1,3.38-3.34,3.92,3.92,0,0,1,1.58.32l-.26.89a2.59,2.59,0,0,0-1.32-.3,2.37,2.37,0,0,0,0,4.73,3.26,3.26,0,0,0,1.4-.31Z"/><path class="cls-2" d="M54.83,561c0,.65,0,1.22.05,1.71h-1l-.07-1h0a2.37,2.37,0,0,1-2.08,1.17c-1,0-2.17-.54-2.17-2.75v-3.68h1.14v3.48c0,1.2.36,2,1.4,2a1.67,1.67,0,0,0,1.51-1,1.59,1.59,0,0,0,.11-.59v-3.86h1.14Z"/><path class="cls-2" d="M62,561c0,.65,0,1.22,0,1.71H61l-.07-1h0a2.36,2.36,0,0,1-2.08,1.17c-1,0-2.17-.54-2.17-2.75v-3.68h1.14v3.48c0,1.2.37,2,1.41,2a1.65,1.65,0,0,0,1.5-1,1.59,1.59,0,0,0,.11-.59v-3.86H62Z"/><path class="cls-2" d="M63.89,558.12c0-.65,0-1.18,0-1.7h1l0,1h0a2.17,2.17,0,0,1,2-1.15,1.87,1.87,0,0,1,1.78,1.26h0a2.63,2.63,0,0,1,.71-.82,2.1,2.1,0,0,1,1.39-.44c.83,0,2.06.54,2.06,2.73v3.7H71.76v-3.56c0-1.21-.45-1.94-1.37-1.94a1.47,1.47,0,0,0-1.35,1,2,2,0,0,0-.09.57v3.89H67.83v-3.77c0-1-.44-1.73-1.31-1.73a1.56,1.56,0,0,0-1.42,1.15,1.46,1.46,0,0,0-.09.56v3.79H63.89Z"/><path class="cls-2" d="M82.06,558.6h-3.4v3.16h3.79v1H77.53V554h4.73v.95h-3.6v2.77h3.4Z"/><path class="cls-2" d="M84.42,556.42l.89,1.35c.24.35.43.68.64,1h0c.21-.38.42-.7.62-1l.89-1.34h1.23l-2.14,3,2.21,3.25H87.5l-.92-1.42c-.25-.36-.46-.71-.68-1.09h0c-.2.38-.43.72-.66,1.09l-.91,1.42H83l2.24-3.21-2.14-3.08Z"/><path class="cls-2" d="M89.9,553.48h1.15v3.93h0a2.13,2.13,0,0,1,.82-.81,2.41,2.41,0,0,1,1.17-.32c.85,0,2.2.52,2.2,2.69v3.74H94.12V559.1c0-1-.38-1.88-1.46-1.88a1.67,1.67,0,0,0-1.54,1.15,1.5,1.5,0,0,0-.07.55v3.79H89.9Z"/><path class="cls-2" d="M100.6,562.71l-.09-.79h0a2.34,2.34,0,0,1-1.92.93,1.79,1.79,0,0,1-1.93-1.8c0-1.52,1.36-2.36,3.79-2.34v-.13A1.3,1.3,0,0,0,99,557.12a3.09,3.09,0,0,0-1.64.47l-.26-.76a4,4,0,0,1,2.07-.55c1.92,0,2.39,1.31,2.39,2.57v2.35a8.69,8.69,0,0,0,.1,1.51Zm-.17-3.21c-1.25,0-2.66.2-2.66,1.42A1,1,0,0,0,98.85,562a1.56,1.56,0,0,0,1.52-1,1.19,1.19,0,0,0,.06-.37Z"/><path class="cls-2" d="M108.65,561c0,.65,0,1.22,0,1.71h-1l-.07-1h0a2.37,2.37,0,0,1-2.08,1.17c-1,0-2.18-.54-2.18-2.75v-3.68h1.15v3.48c0,1.2.36,2,1.4,2a1.67,1.67,0,0,0,1.51-1,1.59,1.59,0,0,0,.1-.59v-3.86h1.15Z"/><path class="cls-2" d="M110.39,561.54a3,3,0,0,0,1.51.46c.83,0,1.22-.42,1.22-.94s-.32-.85-1.17-1.16c-1.13-.4-1.66-1-1.66-1.78a1.94,1.94,0,0,1,2.17-1.84,3.11,3.11,0,0,1,1.54.39l-.28.83a2.41,2.41,0,0,0-1.29-.37c-.67,0-1.05.39-1.05.86s.38.76,1.2,1.07c1.09.41,1.65,1,1.65,1.9,0,1.1-.86,1.88-2.36,1.88a3.62,3.62,0,0,1-1.77-.43Z"/><path class="cls-2" d="M117.07,554.61v1.81h1.64v.87h-1.64v3.39c0,.78.22,1.23.86,1.23a2.44,2.44,0,0,0,.66-.08l.06.86a2.93,2.93,0,0,1-1,.15,1.58,1.58,0,0,1-1.23-.48,2.32,2.32,0,0,1-.44-1.64v-3.43h-1v-.87h1v-1.51Z"/><path class="cls-2" d="M62.89,578.31,60,569.55h1.22l1.37,4.32c.37,1.18.7,2.24.93,3.27h0c.24-1,.61-2.12,1-3.26l1.48-4.33h1.21l-3.13,8.76Z"/><path class="cls-2" d="M71.23,578.31l-.09-.79h0a2.34,2.34,0,0,1-1.92.93,1.79,1.79,0,0,1-1.92-1.8c0-1.52,1.35-2.36,3.78-2.34v-.13a1.3,1.3,0,0,0-1.43-1.46,3.09,3.09,0,0,0-1.64.47l-.26-.76a4,4,0,0,1,2.07-.55c1.92,0,2.39,1.31,2.39,2.57v2.35a9.8,9.8,0,0,0,.1,1.51Zm-.16-3.21c-1.25,0-2.67.19-2.67,1.42a1,1,0,0,0,1.08,1.09A1.56,1.56,0,0,0,71,576.56a1.21,1.21,0,0,0,.07-.37Z"/><path class="cls-2" d="M74,569.08h1.14v9.23H74Z"/><path class="cls-2" d="M77.53,572l1.23,3.53a16.48,16.48,0,0,1,.51,1.62h0c.14-.52.32-1,.53-1.62L81.06,572h1.2l-2.47,6.29H78.7L76.3,572Z"/><path class="cls-2" d="M83.84,575.37A2,2,0,0,0,86,577.56a4.2,4.2,0,0,0,1.75-.33l.19.82a5.11,5.11,0,0,1-2.09.39,2.92,2.92,0,0,1-3.1-3.17c0-1.9,1.12-3.39,3-3.39,2.06,0,2.6,1.8,2.6,3a3.17,3.17,0,0,1,0,.53Zm3.36-.82a1.63,1.63,0,0,0-1.59-1.85,1.89,1.89,0,0,0-1.75,1.85Z"/><path class="cls-2" d="M29.17,622.16l-2.86-8.77h1.22l1.37,4.32c.38,1.18.7,2.25.94,3.28h0c.25-1,.61-2.12,1-3.27l1.49-4.33h1.2l-3.13,8.77Z"/><path class="cls-2" d="M37.52,622.16l-.09-.8h0a2.34,2.34,0,0,1-1.93.94,1.79,1.79,0,0,1-1.92-1.81c0-1.52,1.35-2.35,3.78-2.34V618a1.29,1.29,0,0,0-1.43-1.45,3.08,3.08,0,0,0-1.63.47l-.26-.76a3.87,3.87,0,0,1,2.06-.56c1.93,0,2.4,1.32,2.4,2.58v2.35a8.69,8.69,0,0,0,.1,1.51ZM37.35,619c-1.25,0-2.66.19-2.66,1.41a1,1,0,0,0,1.07,1.1,1.58,1.58,0,0,0,1.53-1.06,1.43,1.43,0,0,0,.06-.36Z"/><path class="cls-2" d="M44.79,621.92a4.17,4.17,0,0,1-1.81.37,3,3,0,0,1-3.13-3.21,3.2,3.2,0,0,1,3.38-3.35,3.73,3.73,0,0,1,1.58.33l-.26.88a2.69,2.69,0,0,0-1.32-.3,2.38,2.38,0,0,0,0,4.74,3.26,3.26,0,0,0,1.4-.31Z"/><path class="cls-2" d="M51.39,620.44c0,.65,0,1.22,0,1.72h-1l-.07-1h0a2.36,2.36,0,0,1-2.08,1.17c-1,0-2.17-.55-2.17-2.76v-3.67h1.14v3.48c0,1.19.36,2,1.4,2a1.65,1.65,0,0,0,1.51-1,1.58,1.58,0,0,0,.11-.58v-3.86h1.14Z"/><path class="cls-2" d="M58.55,620.44c0,.65,0,1.22.06,1.72h-1l-.06-1h0a2.36,2.36,0,0,1-2.08,1.17c-1,0-2.17-.55-2.17-2.76v-3.67h1.14v3.48c0,1.19.37,2,1.41,2a1.66,1.66,0,0,0,1.51-1,1.81,1.81,0,0,0,.1-.58v-3.86h1.14Z"/><path class="cls-2" d="M60.45,617.57c0-.65,0-1.19-.05-1.7h1l.05,1h0a2.17,2.17,0,0,1,2-1.16A1.85,1.85,0,0,1,65.25,617h0a2.75,2.75,0,0,1,.71-.82,2.16,2.16,0,0,1,1.39-.44c.83,0,2.07.55,2.07,2.73v3.71H68.32V618.6c0-1.21-.45-1.94-1.37-1.94a1.47,1.47,0,0,0-1.35,1,1.89,1.89,0,0,0-.09.57v3.89H64.39v-3.77c0-1-.44-1.73-1.31-1.73a1.56,1.56,0,0,0-1.42,1.14,1.73,1.73,0,0,0-.09.56v3.8H60.45Z"/><path class="cls-2" d="M74.09,613.51a11.51,11.51,0,0,1,2.17-.18,3.58,3.58,0,0,1,2.53.71,2.18,2.18,0,0,1,.69,1.67A2.3,2.3,0,0,1,77.83,618v0a2.2,2.2,0,0,1,1.29,1.77,13.67,13.67,0,0,0,.68,2.41H78.63a10.9,10.9,0,0,1-.59-2.1c-.26-1.2-.73-1.66-1.75-1.7H75.22v3.8H74.09Zm1.13,4h1.16c1.21,0,2-.66,2-1.66s-.82-1.63-2-1.64a4.81,4.81,0,0,0-1.12.1Z"/><path class="cls-2" d="M81.73,619.22a2,2,0,0,0,2.16,2.18,4.17,4.17,0,0,0,1.74-.32l.2.82a5.16,5.16,0,0,1-2.1.39,2.92,2.92,0,0,1-3.09-3.17c0-1.9,1.12-3.4,3-3.4,2.06,0,2.6,1.81,2.6,3a3.26,3.26,0,0,1,0,.53Zm3.36-.82a1.63,1.63,0,0,0-1.59-1.86,1.89,1.89,0,0,0-1.75,1.86Z"/><path class="cls-2" d="M87.45,621a3,3,0,0,0,1.51.45c.83,0,1.22-.41,1.22-.93s-.32-.85-1.17-1.16c-1.13-.4-1.66-1-1.66-1.78a1.94,1.94,0,0,1,2.17-1.85,3.15,3.15,0,0,1,1.55.39l-.29.83a2.52,2.52,0,0,0-1.29-.36c-.67,0-1,.39-1,.86s.38.75,1.2,1.06c1.09.42,1.65,1,1.65,1.9,0,1.11-.86,1.89-2.36,1.89a3.55,3.55,0,0,1-1.76-.43Z"/><path class="cls-2" d="M98.45,619a3.07,3.07,0,0,1-3.13,3.34,3,3,0,0,1-3-3.24,3.08,3.08,0,0,1,3.12-3.34A3,3,0,0,1,98.45,619Zm-5,.06c0,1.38.79,2.42,1.91,2.42s1.91-1,1.91-2.44c0-1.07-.53-2.42-1.88-2.42S93.46,617.83,93.46,619Z"/><path class="cls-2" d="M105.16,620.44c0,.65,0,1.22,0,1.72h-1l-.07-1h0A2.35,2.35,0,0,1,102,622.3c-1,0-2.17-.55-2.17-2.76v-3.67H101v3.48c0,1.19.36,2,1.4,2a1.65,1.65,0,0,0,1.51-1,1.81,1.81,0,0,0,.1-.58v-3.86h1.15Z"/><path class="cls-2" d="M107.06,617.83c0-.74,0-1.38-.06-2h1l0,1.23h.06a1.87,1.87,0,0,1,1.74-1.38,1,1,0,0,1,.32,0v1.08a1.46,1.46,0,0,0-.39,0,1.6,1.6,0,0,0-1.53,1.47,2.89,2.89,0,0,0,0,.53v3.36h-1.13Z"/><path class="cls-2" d="M115.66,621.92a4.14,4.14,0,0,1-1.81.37,3,3,0,0,1-3.13-3.21,3.2,3.2,0,0,1,3.38-3.35,3.75,3.75,0,0,1,1.59.33l-.26.88a2.74,2.74,0,0,0-1.33-.3,2.18,2.18,0,0,0-2.22,2.38,2.16,2.16,0,0,0,2.18,2.36,3.35,3.35,0,0,0,1.41-.31Z"/><path class="cls-2" d="M117.56,619.22a2,2,0,0,0,2.16,2.18,4.17,4.17,0,0,0,1.74-.32l.19.82a5.11,5.11,0,0,1-2.09.39,2.92,2.92,0,0,1-3.09-3.17c0-1.9,1.12-3.4,3-3.4,2,0,2.6,1.81,2.6,3a5,5,0,0,1,0,.53Zm3.35-.82a1.62,1.62,0,0,0-1.58-1.86,1.9,1.9,0,0,0-1.76,1.86Z"/><path class="cls-2" d="M62.89,637.76,60,629h1.22l1.37,4.31c.37,1.18.7,2.25.93,3.28h0c.24-1,.61-2.12,1-3.27L66.06,629h1.21l-3.13,8.76Z"/><path class="cls-2" d="M71.23,637.76l-.09-.8h0a2.32,2.32,0,0,1-1.92.94,1.79,1.79,0,0,1-1.92-1.81c0-1.52,1.35-2.35,3.78-2.34v-.13a1.29,1.29,0,0,0-1.43-1.45,3.17,3.17,0,0,0-1.64.46l-.26-.75a3.91,3.91,0,0,1,2.07-.56c1.92,0,2.39,1.31,2.39,2.58v2.35a9.89,9.89,0,0,0,.1,1.51Zm-.16-3.21c-1.25,0-2.67.19-2.67,1.41a1,1,0,0,0,1.08,1.09A1.55,1.55,0,0,0,71,636a1.15,1.15,0,0,0,.07-.36Z"/><path class="cls-2" d="M74,628.53h1.14v9.23H74Z"/><path class="cls-2" d="M77.53,631.46,78.76,635a15.54,15.54,0,0,1,.51,1.61h0c.14-.52.32-1,.53-1.61l1.22-3.54h1.2l-2.47,6.3H78.7l-2.4-6.3Z"/><path class="cls-2" d="M83.84,634.82A2,2,0,0,0,86,637a4.13,4.13,0,0,0,1.74-.32l.2.82a5.11,5.11,0,0,1-2.09.39,2.93,2.93,0,0,1-3.1-3.18c0-1.89,1.12-3.39,3-3.39,2.06,0,2.6,1.81,2.6,3a3.26,3.26,0,0,1,0,.53ZM87.2,634a1.63,1.63,0,0,0-1.59-1.86A1.9,1.9,0,0,0,83.86,634Z"/><path class="cls-2" d="M126.07,670.51H22.68A12.52,12.52,0,0,1,10.18,658V554.63a12.51,12.51,0,0,1,12.5-12.5H126.07a12.51,12.51,0,0,1,12.5,12.5V658A12.52,12.52,0,0,1,126.07,670.51ZM22.68,543.13a11.51,11.51,0,0,0-11.5,11.5V658a11.51,11.51,0,0,0,11.5,11.5H126.07a11.51,11.51,0,0,0,11.5-11.5V554.63a11.51,11.51,0,0,0-11.5-11.5Z"/><rect class="cls-2" x="138.07" y="610.18" width="14.89" height="1" transform="translate(-5.36 1.3) rotate(-0.5)"/><rect class="cls-2" x="380.5" y="610.11" width="14.46" height="1"/></g></svg>