<svg xmlns="http://www.w3.org/2000/svg" viewBox="0 0 1190 700"><defs><style>.cls-1,.cls-2{fill:#434444;}.cls-1,.cls-3,.cls-5,.cls-54,.cls-55,.cls-56,.cls-6,.cls-7{stroke:#fff;}.cls-1,.cls-5,.cls-6,.cls-7{stroke-miterlimit:10;}.cls-3,.cls-7{fill:none;}.cls-3,.cls-54,.cls-55,.cls-56{stroke-linejoin:round;}.cls-3{stroke-width:3px;}.cls-28,.cls-4,.cls-8{fill:#fff;}.cls-5{fill:#606161;}.cls-6{fill:#bababa;}.cls-8{font-size:14px;font-family:MyriadPro-Bold, Myriad Pro;font-weight:700;}.cls-9{letter-spacing:0em;}.cls-10{letter-spacing:-0.09em;}.cls-11{letter-spacing:0em;}.cls-12{letter-spacing:-0.06em;}.cls-13{letter-spacing:-0.02em;}.cls-14{letter-spacing:0em;}.cls-15{letter-spacing:-0.05em;}.cls-16{letter-spacing:-0.08em;}.cls-17{letter-spacing:0em;}.cls-18{letter-spacing:-0.09em;}.cls-19{letter-spacing:0.03em;}.cls-20{letter-spacing:-0.03em;}.cls-21{letter-spacing:-0.08em;}.cls-22{letter-spacing:-0.03em;}.cls-23{letter-spacing:0.01em;}.cls-24{letter-spacing:-0.05em;}.cls-25{letter-spacing:0.01em;}.cls-26{letter-spacing:-0.03em;}.cls-27{letter-spacing:-0.02em;}.cls-28{font-size:13px;font-family:MyriadPro-Regular, Myriad Pro;}.cls-29{letter-spacing:0em;}.cls-30{letter-spacing:-0.04em;}.cls-31{letter-spacing:-0.06em;}.cls-32{letter-spacing:-0.01em;}.cls-33{letter-spacing:-0.01em;}.cls-34{letter-spacing:0em;}.cls-35{letter-spacing:0em;}.cls-36{letter-spacing:0.01em;}.cls-37{letter-spacing:0em;}.cls-38{letter-spacing:0em;}.cls-39{letter-spacing:0em;}.cls-40{letter-spacing:-0.01em;}.cls-41{letter-spacing:0em;}.cls-42{letter-spacing:-0.01em;}.cls-43{letter-spacing:-0.02em;}.cls-44{letter-spacing:0.01em;}.cls-45{letter-spacing:0.01em;}.cls-46{letter-spacing:-0.01em;}.cls-47{letter-spacing:0em;}.cls-48{letter-spacing:0.01em;}.cls-49{letter-spacing:0em;}.cls-50{letter-spacing:-0.01em;}.cls-51{letter-spacing:-0.03em;}.cls-52{letter-spacing:-0.07em;}.cls-53{letter-spacing:-0.04em;}.cls-54{fill:#b3b4b4;}.cls-55{fill:#878787;}.cls-56{fill:#dddede;}</style></defs><g id="Layer_1" data-name="Layer 1"><rect class="cls-1" x="-6.71" y="-8.42" width="1203.43" height="716.84"/><path class="cls-2" d="M446.85,296.36h116a9.58,9.58,0,0,0,9.58-9.58V178.34a9.85,9.85,0,0,1,9.85-9.85h90.86"/><path class="cls-3" d="M446.85,296.36h116a9.58,9.58,0,0,0,9.58-9.58V178.34a9.85,9.85,0,0,1,9.85-9.85h73"/><polygon class="cls-4" points="646.81 179.6 651.53 168.5 646.81 157.38 673.15 168.5 646.81 179.6"/><path class="cls-2" d="M673.15,168.49H582.31a9.87,9.87,0,0,1-9.87-9.87V91a9.87,9.87,0,0,0-9.87-9.88H152.31"/><path class="cls-3" d="M655.24,168.49H582.31a9.87,9.87,0,0,1-9.87-9.87V91a9.87,9.87,0,0,0-9.87-9.88H152.31"/><polygon class="cls-4" points="646.81 157.38 651.53 168.5 646.81 179.6 673.15 168.5 646.81 157.38"/><path class="cls-2" d="M446.85,567.66H562.4a10,10,0,0,0,10-10h0a9.85,9.85,0,0,1,9.85-9.85h90.86"/><path class="cls-3" d="M464.76,567.66H562.4a10,10,0,0,0,10-10h0a9.85,9.85,0,0,1,9.85-9.85h90.86"/><polygon class="cls-4" points="473.19 578.77 468.47 567.66 473.19 556.55 446.85 567.66 473.19 578.77"/><path class="cls-2" d="M673.15,547.78H582.23a9.79,9.79,0,0,1-9.79-9.8V457.49a9.79,9.79,0,0,0-9.79-9.79H152.31"/><path class="cls-3" d="M673.15,547.78H582.23a9.79,9.79,0,0,1-9.79-9.8V457.49a9.79,9.79,0,0,0-9.79-9.79H170.22"/><polygon class="cls-4" points="178.64 436.59 173.92 447.7 178.64 458.81 152.31 447.7 178.64 436.59"/><line class="cls-3" x1="711.39" y1="222.77" x2="711.39" y2="285.01"/><polygon class="cls-4" points="700.28 276.58 711.38 281.3 722.49 276.58 711.38 302.92 700.28 276.58"/><line class="cls-3" x1="711.39" y1="386.04" x2="711.39" y2="465.54"/><polygon class="cls-4" points="700.28 457.12 711.38 461.83 722.49 457.12 711.38 483.45 700.28 457.12"/></g><g id="Layer_2" data-name="Layer 2"><path class="cls-5" d="M673.15,114.22v98.51c0,5.55,17.12,10,38.24,10s38.23-4.49,38.23-10V114.22Z"/><ellipse class="cls-6" cx="711.39" cy="114.22" rx="38.24" ry="10.05"/><path class="cls-5" d="M673.15,493.5V592c0,5.55,17.12,10,38.24,10s38.23-4.49,38.23-10V493.5Z"/><ellipse class="cls-6" cx="711.39" cy="493.5" rx="38.24" ry="10.05"/><path class="cls-5" d="M224.9,232.4v98.52c0,5.54,17.12,10,38.24,10s38.24-4.5,38.24-10V232.4Z"/><ellipse class="cls-6" cx="263.14" cy="232.4" rx="38.24" ry="10.05"/><rect class="cls-7" x="203.28" y="153.03" width="243.57" height="205.38" rx="12"/><rect class="cls-7" x="203.28" y="508.77" width="243.57" height="117.78" rx="12"/><rect class="cls-7" x="627.84" y="81.14" width="358.88" height="545.41" rx="12"/><text class="cls-8" transform="translate(213.01 147.55)">URINE P<tspan class="cls-9" x="49.94" y="0">R</tspan><tspan x="58.18" y="0">OCESSOR ASSEMB</tspan><tspan class="cls-10" x="172.39" y="0">L</tspan><tspan class="cls-11" x="178.29" y="0">Y (U</tspan><tspan class="cls-12" x="203.5" y="0">P</tspan><tspan class="cls-13" x="210.8" y="0">A</tspan><tspan class="cls-14" x="219.73" y="0">)</tspan></text><text class="cls-8" transform="translate(691.5 73.45)"><tspan class="cls-15">W</tspan><tspan class="cls-16" x="11.68" y="0">A</tspan><tspan x="19.7" y="0">TER P</tspan><tspan class="cls-9" x="54.11" y="0">R</tspan><tspan class="cls-17" x="62.36" y="0">OCESSOR ASSEMB</tspan><tspan class="cls-18" x="176.57" y="0">L</tspan><tspan class="cls-11" x="182.46" y="0">Y </tspan><tspan class="cls-19" x="193.73" y="0">(</tspan><tspan x="198.5" y="0">W</tspan><tspan class="cls-12" x="210.94" y="0">P</tspan><tspan class="cls-13" x="218.23" y="0">A</tspan><tspan class="cls-14" x="227.16" y="0">)</tspan></text><text class="cls-8" transform="translate(202.45 57.22)"><tspan class="cls-20">C</tspan><tspan x="7.91" y="0">ONDENS</tspan><tspan class="cls-21" x="62.05" y="0">A</tspan><tspan x="70.07" y="0">TION</tspan></text><text class="cls-8" transform="translate(204.62 500.74)"><tspan class="cls-22">O</tspan><tspan class="cls-23" x="9.58" y="0">X</tspan><tspan class="cls-24" x="18.33" y="0">Y</tspan><tspan x="26.11" y="0">GEN GENE</tspan><tspan class="cls-25" x="89.78" y="0">R</tspan><tspan class="cls-16" x="98.21" y="0">A</tspan><tspan class="cls-26" x="106.23" y="0">T</tspan><tspan x="113.5" y="0">OR ASSEMB</tspan><tspan class="cls-10" x="186.74" y="0">L</tspan><tspan class="cls-11" x="192.64" y="0">Y </tspan><tspan class="cls-27" x="203.91" y="0">(</tspan><tspan x="207.98" y="0">OG</tspan><tspan class="cls-13" x="227.57" y="0">A</tspan><tspan class="cls-14" x="236.5" y="0">)</tspan></text><text class="cls-28" transform="translate(325.55 241.96)">U<tspan class="cls-29" x="8.41" y="0">r</tspan><tspan x="12.71" y="0">ine</tspan><tspan class="cls-30" x="29.48" y="0"> </tspan><tspan class="cls-31" x="31.71" y="0">T</tspan><tspan x="37.34" y="0">ank </tspan><tspan class="cls-32" x="59.67" y="0">L</tspan><tspan x="65.62" y="0">e</tspan><tspan class="cls-33" x="72.14" y="0">v</tspan><tspan class="cls-34" x="78.26" y="0">el</tspan></text><path class="cls-4" d="M777,119.47l-2.22-8.76H776l1,4.44c.26,1.09.5,2.18.65,3h0c.14-.87.42-1.91.72-3l1.17-4.42h1.18l1.06,4.45c.25,1,.48,2.08.61,3h0c.18-1,.43-1.94.7-3l1.16-4.42h1.16L783,119.47h-1.18l-1.1-4.56a25.46,25.46,0,0,1-.58-2.86h0a27.24,27.24,0,0,1-.68,2.86l-1.25,4.56Z"/><path class="cls-4" d="M789.58,119.47l-.09-.79h0a2.35,2.35,0,0,1-1.93.94,1.79,1.79,0,0,1-1.92-1.81c0-1.52,1.35-2.35,3.78-2.34v-.13a1.3,1.3,0,0,0-1.43-1.46,3.21,3.21,0,0,0-1.64.47l-.26-.75a3.91,3.91,0,0,1,2.07-.56c1.92,0,2.39,1.31,2.39,2.57V118a9.75,9.75,0,0,0,.1,1.5Zm-.16-3.21c-1.25,0-2.67.2-2.67,1.42a1,1,0,0,0,1.08,1.09,1.56,1.56,0,0,0,1.52-1,1.21,1.21,0,0,0,.07-.37Z"/><path class="cls-4" d="M792.21,118.3a3,3,0,0,0,1.51.46c.83,0,1.22-.42,1.22-.94s-.32-.84-1.17-1.15c-1.13-.41-1.66-1-1.66-1.79a1.94,1.94,0,0,1,2.17-1.84,3.15,3.15,0,0,1,1.55.39l-.29.83a2.42,2.42,0,0,0-1.29-.36c-.67,0-1,.39-1,.85s.38.76,1.19,1.07c1.1.42,1.66,1,1.66,1.9,0,1.1-.86,1.88-2.36,1.88a3.62,3.62,0,0,1-1.77-.42Z"/><path class="cls-4" d="M798.89,111.38v1.8h1.64v.87h-1.64v3.4c0,.78.22,1.22.86,1.22a2.44,2.44,0,0,0,.66-.08l.06.86a2.89,2.89,0,0,1-1,.15,1.55,1.55,0,0,1-1.23-.48,2.28,2.28,0,0,1-.45-1.64v-3.43h-1v-.87h1v-1.51Z"/><path class="cls-4" d="M802.38,116.54a2,2,0,0,0,2.16,2.18,4.2,4.2,0,0,0,1.74-.32l.19.81a4.94,4.94,0,0,1-2.09.39,2.91,2.91,0,0,1-3.09-3.17c0-1.9,1.11-3.39,3-3.39a2.67,2.67,0,0,1,2.6,3,5.05,5.05,0,0,1,0,.54Zm3.35-.82a1.63,1.63,0,0,0-1.59-1.86,1.89,1.89,0,0,0-1.75,1.86Z"/><path class="cls-4" d="M812,119.47l-2.22-8.76H811l1,4.44c.26,1.09.5,2.18.65,3h0c.14-.87.41-1.91.71-3l1.17-4.42h1.19l1.06,4.45c.25,1,.48,2.08.61,3h0c.18-1,.43-1.94.7-3l1.16-4.42h1.16L818,119.47h-1.18l-1.11-4.56a27.65,27.65,0,0,1-.57-2.86h0a27.24,27.24,0,0,1-.68,2.86l-1.25,4.56Z"/><path class="cls-4" d="M824.59,119.47l-.09-.79h0a2.32,2.32,0,0,1-1.92.94,1.79,1.79,0,0,1-1.92-1.81c0-1.52,1.35-2.35,3.78-2.34v-.13a1.3,1.3,0,0,0-1.43-1.46,3.18,3.18,0,0,0-1.64.47l-.26-.75a3.88,3.88,0,0,1,2.07-.56c1.92,0,2.39,1.31,2.39,2.57V118a9.75,9.75,0,0,0,.1,1.5Zm-.17-3.21c-1.24,0-2.66.2-2.66,1.42a1,1,0,0,0,1.08,1.09,1.56,1.56,0,0,0,1.52-1,1.19,1.19,0,0,0,.06-.37Z"/><path class="cls-4" d="M828.7,111.38v1.8h1.64v.87H828.7v3.4c0,.78.22,1.22.86,1.22a2.44,2.44,0,0,0,.66-.08l0,.86a2.82,2.82,0,0,1-1,.15,1.55,1.55,0,0,1-1.23-.48,2.28,2.28,0,0,1-.45-1.64v-3.43h-1v-.87h1v-1.51Z"/><path class="cls-4" d="M832.19,116.54a2,2,0,0,0,2.15,2.18,4.22,4.22,0,0,0,1.75-.32l.19.81a4.94,4.94,0,0,1-2.09.39,2.92,2.92,0,0,1-3.1-3.17c0-1.9,1.12-3.39,2.95-3.39,2.06,0,2.6,1.81,2.6,3,0,.24,0,.42,0,.54Zm3.35-.82a1.63,1.63,0,0,0-1.59-1.86,1.89,1.89,0,0,0-1.75,1.86Z"/><path class="cls-4" d="M838.06,115.15c0-.75,0-1.38,0-2h1l0,1.24h.05a1.89,1.89,0,0,1,1.74-1.38,1.15,1.15,0,0,1,.33,0v1.08a1.56,1.56,0,0,0-.39,0,1.61,1.61,0,0,0-1.54,1.47,3.83,3.83,0,0,0,0,.53v3.35h-1.13Z"/><path class="cls-4" d="M782.56,127.27h-2.67v-1h6.49v1H783.7v7.8h-1.14Z"/><path class="cls-4" d="M790,135.07l-.09-.79h0a2.34,2.34,0,0,1-1.93.94,1.79,1.79,0,0,1-1.92-1.81c0-1.52,1.35-2.35,3.78-2.34v-.13a1.3,1.3,0,0,0-1.43-1.46,3.17,3.17,0,0,0-1.63.47l-.26-.75a3.87,3.87,0,0,1,2.06-.56c1.93,0,2.39,1.31,2.39,2.57v2.36a8.5,8.5,0,0,0,.11,1.5Zm-.17-3.21c-1.25,0-2.67.2-2.67,1.42a1,1,0,0,0,1.08,1.09,1.56,1.56,0,0,0,1.52-1.05,1.21,1.21,0,0,0,.07-.36Z"/><path class="cls-4" d="M792.75,130.48c0-.65,0-1.18,0-1.7h1l.07,1h0a2.32,2.32,0,0,1,2.08-1.18c.87,0,2.23.52,2.23,2.68v3.75H797v-3.62c0-1-.37-1.86-1.45-1.86a1.63,1.63,0,0,0-1.54,1.17,1.69,1.69,0,0,0-.08.53v3.78h-1.14Z"/><path class="cls-4" d="M801.1,131.67h0c.16-.22.38-.5.56-.72l1.85-2.17h1.38l-2.44,2.59,2.77,3.7h-1.39l-2.17-3-.58.65v2.36H800v-9.23h1.13Z"/><path class="cls-4" d="M808.86,126.31H810v7.81h3.74v.95h-4.87Z"/><path class="cls-4" d="M815.41,132.14a2,2,0,0,0,2.16,2.18,4.17,4.17,0,0,0,1.74-.32l.19.81a4.94,4.94,0,0,1-2.09.39,2.91,2.91,0,0,1-3.09-3.17c0-1.9,1.11-3.39,2.95-3.39a2.67,2.67,0,0,1,2.6,3,5.05,5.05,0,0,1,0,.54Zm3.35-.82a1.62,1.62,0,0,0-1.58-1.86,1.89,1.89,0,0,0-1.76,1.86Z"/><path class="cls-4" d="M821.73,128.78l1.23,3.54a15.54,15.54,0,0,1,.51,1.61h0c.14-.52.32-1,.53-1.61l1.22-3.54h1.2L824,135.07H822.9l-2.4-6.29Z"/><path class="cls-4" d="M828,132.14a2,2,0,0,0,2.16,2.18A4.22,4.22,0,0,0,832,134l.19.81a4.94,4.94,0,0,1-2.09.39A2.92,2.92,0,0,1,827,132c0-1.9,1.12-3.39,2.95-3.39,2.06,0,2.6,1.81,2.6,3a3.31,3.31,0,0,1,0,.54Zm3.36-.82a1.63,1.63,0,0,0-1.59-1.86,1.89,1.89,0,0,0-1.75,1.86Z"/><path class="cls-4" d="M833.92,125.84h1.15v9.23h-1.15Z"/><path class="cls-4" d="M828.07,296.22l-2.23-8.76H827l1,4.43c.26,1.09.5,2.19.65,3h0c.14-.87.41-1.91.71-3l1.17-4.42h1.19l1.06,4.45c.25,1,.48,2.08.61,3h0c.18-1,.43-1.94.7-3l1.16-4.42h1.15l-2.48,8.76h-1.18l-1.11-4.56a28.18,28.18,0,0,1-.57-2.86h0a27,27,0,0,1-.67,2.86l-1.25,4.56Z"/><path class="cls-4" d="M840.65,296.22l-.09-.79h0a2.34,2.34,0,0,1-1.92.94,1.8,1.8,0,0,1-1.93-1.81c0-1.52,1.36-2.35,3.79-2.34v-.13a1.3,1.3,0,0,0-1.43-1.46,3.09,3.09,0,0,0-1.64.47l-.26-.75a3.88,3.88,0,0,1,2.07-.56c1.92,0,2.39,1.31,2.39,2.57v2.35a8.69,8.69,0,0,0,.1,1.51Zm-.17-3.21c-1.25,0-2.66.2-2.66,1.42a1,1,0,0,0,1.08,1.09,1.56,1.56,0,0,0,1.52-1,1.19,1.19,0,0,0,.06-.37Z"/><path class="cls-4" d="M844.76,288.12v1.81h1.64v.87h-1.64v3.39c0,.78.22,1.23.86,1.23a2.44,2.44,0,0,0,.66-.08l.05.86a2.82,2.82,0,0,1-1,.15,1.62,1.62,0,0,1-1.24-.48,2.37,2.37,0,0,1-.44-1.64V290.8h-1v-.87h1v-1.51Z"/><path class="cls-4" d="M848.24,293.28a2,2,0,0,0,2.16,2.19,4,4,0,0,0,1.74-.33l.2.82a5.11,5.11,0,0,1-2.09.39,2.92,2.92,0,0,1-3.1-3.17c0-1.9,1.12-3.39,3-3.39,2.06,0,2.6,1.8,2.6,3a3.17,3.17,0,0,1,0,.53Zm3.36-.82a1.63,1.63,0,0,0-1.59-1.85,1.88,1.88,0,0,0-1.75,1.85Z"/><path class="cls-4" d="M854.12,291.89c0-.74,0-1.37,0-2h1l0,1.24h0a1.88,1.88,0,0,1,1.74-1.38,1.15,1.15,0,0,1,.33,0v1.07a2.29,2.29,0,0,0-.39,0,1.61,1.61,0,0,0-1.54,1.46,4.15,4.15,0,0,0,0,.54v3.35h-1.13Z"/><path class="cls-4" d="M861.17,287.56a13.3,13.3,0,0,1,2.17-.16,3.57,3.57,0,0,1,2.45.72,2.38,2.38,0,0,1,.77,1.84,2.56,2.56,0,0,1-.68,1.87,4.39,4.39,0,0,1-3.58.88v3.51h-1.13Zm1.13,4.23a4,4,0,0,0,.93.09c1.37,0,2.2-.66,2.2-1.87s-.82-1.72-2.07-1.72a4.82,4.82,0,0,0-1.06.09Z"/><path class="cls-4" d="M867.83,291.89c0-.74,0-1.37-.05-2h1l0,1.24h.06a1.87,1.87,0,0,1,1.74-1.38,1,1,0,0,1,.32,0v1.07a2.21,2.21,0,0,0-.39,0,1.6,1.6,0,0,0-1.53,1.46,2.92,2.92,0,0,0,0,.54v3.35h-1.14Z"/><path class="cls-4" d="M877.65,293a3.08,3.08,0,0,1-3.13,3.35,3,3,0,0,1-3-3.24,3.07,3.07,0,0,1,3.12-3.34A3,3,0,0,1,877.65,293Zm-5,.07c0,1.38.79,2.42,1.91,2.42s1.91-1,1.91-2.45c0-1.06-.53-2.41-1.89-2.41S872.66,291.89,872.66,293.09Z"/><path class="cls-4" d="M883.58,296a4.32,4.32,0,0,1-1.81.36,3,3,0,0,1-3.13-3.21A3.19,3.19,0,0,1,882,289.8a3.92,3.92,0,0,1,1.58.32l-.26.89a2.59,2.59,0,0,0-1.32-.3,2.37,2.37,0,0,0,0,4.73,3.26,3.26,0,0,0,1.4-.31Z"/><path class="cls-4" d="M885.48,293.28a2,2,0,0,0,2.15,2.19,4,4,0,0,0,1.75-.33l.19.82a5.11,5.11,0,0,1-2.09.39,2.92,2.92,0,0,1-3.1-3.17c0-1.9,1.12-3.39,3-3.39,2.06,0,2.6,1.8,2.6,3,0,.23,0,.42,0,.53Zm3.35-.82a1.63,1.63,0,0,0-1.59-1.85,1.89,1.89,0,0,0-1.75,1.85Z"/><path class="cls-4" d="M891.2,295.05a3,3,0,0,0,1.5.46c.84,0,1.22-.42,1.22-.94s-.32-.84-1.17-1.16c-1.13-.4-1.66-1-1.66-1.78a1.94,1.94,0,0,1,2.17-1.84,3.12,3.12,0,0,1,1.55.39l-.29.83a2.38,2.38,0,0,0-1.28-.36c-.68,0-1.06.39-1.06.85s.38.76,1.2,1.07c1.09.41,1.65,1,1.65,1.9,0,1.1-.86,1.88-2.35,1.88a3.59,3.59,0,0,1-1.77-.43Z"/><path class="cls-4" d="M896.34,295.05a3,3,0,0,0,1.51.46c.83,0,1.22-.42,1.22-.94s-.32-.84-1.17-1.16c-1.13-.4-1.66-1-1.66-1.78a1.94,1.94,0,0,1,2.17-1.84,3.12,3.12,0,0,1,1.55.39l-.29.83a2.42,2.42,0,0,0-1.29-.36c-.67,0-1,.39-1,.85s.38.76,1.2,1.07c1.09.41,1.65,1,1.65,1.9,0,1.1-.86,1.88-2.35,1.88a3.59,3.59,0,0,1-1.77-.43Z"/><path class="cls-4" d="M907.34,293a3.08,3.08,0,0,1-3.13,3.35,3,3,0,0,1-3-3.24,3.07,3.07,0,0,1,3.12-3.34A3,3,0,0,1,907.34,293Zm-5,.07c0,1.38.79,2.42,1.91,2.42s1.91-1,1.91-2.45c0-1.06-.53-2.41-1.88-2.41S902.35,291.89,902.35,293.09Z"/><path class="cls-4" d="M908.78,291.89c0-.74,0-1.37,0-2h1l0,1.24h.05a1.89,1.89,0,0,1,1.75-1.38,1,1,0,0,1,.32,0v1.07a2.21,2.21,0,0,0-.39,0,1.6,1.6,0,0,0-1.53,1.46,2.92,2.92,0,0,0-.05.54v3.35h-1.14Z"/><path class="cls-4" d="M834.61,307.35c0,3-1.84,4.62-4.07,4.62s-3.94-1.8-3.94-4.45,1.73-4.6,4.07-4.6S834.61,304.75,834.61,307.35Zm-6.8.14c0,1.88,1,3.55,2.79,3.55s2.81-1.65,2.81-3.64c0-1.74-.91-3.56-2.79-3.56S827.81,305.57,827.81,307.49Z"/><path class="cls-4" d="M836,307.58c0-.8,0-1.45,0-2.05h1l0,1.08h0a2.47,2.47,0,0,1,2.24-1.22c1.52,0,2.66,1.28,2.66,3.19,0,2.27-1.38,3.39-2.86,3.39a2.23,2.23,0,0,1-1.94-1h0v3.42H836Zm1.13,1.68a2.26,2.26,0,0,0,.05.47,1.77,1.77,0,0,0,1.72,1.34c1.21,0,1.91-1,1.91-2.43,0-1.26-.67-2.34-1.87-2.34a1.83,1.83,0,0,0-1.73,1.41,1.93,1.93,0,0,0-.08.47Z"/><path class="cls-4" d="M844.07,308.88a2,2,0,0,0,2.16,2.19,4,4,0,0,0,1.74-.33l.2.82a5.2,5.2,0,0,1-2.1.39,2.92,2.92,0,0,1-3.09-3.17c0-1.9,1.12-3.39,2.95-3.39,2.05,0,2.6,1.8,2.6,3a4.82,4.82,0,0,1,0,.53Zm3.35-.82a1.61,1.61,0,0,0-1.58-1.85,1.89,1.89,0,0,0-1.76,1.85Z"/><path class="cls-4" d="M850,307.49c0-.74,0-1.37-.06-2h1l0,1.24H851a1.87,1.87,0,0,1,1.74-1.38,1,1,0,0,1,.32,0v1.07a2.13,2.13,0,0,0-.39,0,1.61,1.61,0,0,0-1.53,1.47,2.73,2.73,0,0,0,0,.53v3.35H850Z"/><path class="cls-4" d="M857.62,311.82l-.09-.79h0a2.36,2.36,0,0,1-1.93.94,1.79,1.79,0,0,1-1.92-1.81c0-1.52,1.35-2.35,3.78-2.34v-.13a1.3,1.3,0,0,0-1.43-1.46,3.14,3.14,0,0,0-1.64.47l-.26-.75a3.91,3.91,0,0,1,2.07-.56c1.92,0,2.39,1.31,2.39,2.57v2.35a8.62,8.62,0,0,0,.11,1.51Zm-.17-3.21c-1.25,0-2.67.2-2.67,1.42a1,1,0,0,0,1.08,1.09,1.56,1.56,0,0,0,1.52-1.05,1.21,1.21,0,0,0,.07-.37Z"/><path class="cls-4" d="M861.72,303.72v1.81h1.64v.87h-1.64v3.39c0,.78.23,1.23.86,1.23a2.58,2.58,0,0,0,.67-.08l0,.86a2.85,2.85,0,0,1-1,.15,1.58,1.58,0,0,1-1.23-.48,2.32,2.32,0,0,1-.44-1.64V306.4h-1v-.87h1V304Z"/><path class="cls-4" d="M865.92,303.76a.67.67,0,0,1-.72.7.68.68,0,0,1-.69-.7.69.69,0,0,1,.71-.71A.67.67,0,0,1,865.92,303.76Zm-1.27,8.06v-6.29h1.14v6.29Z"/><path class="cls-4" d="M867.69,307.23c0-.65,0-1.18-.05-1.7h1l.07,1h0a2.32,2.32,0,0,1,2.08-1.18c.88,0,2.23.52,2.23,2.67v3.76H871.9V308.2c0-1-.37-1.86-1.45-1.86a1.63,1.63,0,0,0-1.54,1.17,1.66,1.66,0,0,0-.07.53v3.78h-1.15Z"/><path class="cls-4" d="M880.33,305.53c0,.45-.05,1-.05,1.73v3.65a3.63,3.63,0,0,1-.9,2.88,3.35,3.35,0,0,1-2.29.75A4,4,0,0,1,875,314l.28-.87a3.58,3.58,0,0,0,1.85.49c1.17,0,2-.61,2-2.19v-.71h0a2.24,2.24,0,0,1-2,1.06,2.82,2.82,0,0,1-2.68-3.07c0-2.13,1.39-3.34,2.84-3.34a2.09,2.09,0,0,1,2,1.09h0l.05-1ZM879.14,308a1.73,1.73,0,0,0-.06-.52,1.66,1.66,0,0,0-1.6-1.21c-1.09,0-1.87.93-1.87,2.38,0,1.24.62,2.27,1.86,2.27a1.67,1.67,0,0,0,1.58-1.17,1.9,1.9,0,0,0,.09-.62Z"/><path class="cls-4" d="M884.81,310.44a4,4,0,0,0,2,.58c1.16,0,1.83-.61,1.83-1.5s-.46-1.29-1.65-1.74c-1.43-.51-2.31-1.25-2.31-2.48s1.13-2.38,2.83-2.38a3.88,3.88,0,0,1,1.94.43l-.31.92a3.45,3.45,0,0,0-1.67-.42c-1.19,0-1.65.72-1.65,1.32,0,.81.54,1.22,1.74,1.69,1.49.57,2.24,1.28,2.24,2.57s-1,2.52-3.07,2.52a4.41,4.41,0,0,1-2.23-.56Z"/><path class="cls-4" d="M892.68,303.72v1.81h1.64v.87h-1.64v3.39c0,.78.22,1.23.86,1.23a2.49,2.49,0,0,0,.66-.08l0,.86a2.82,2.82,0,0,1-1,.15,1.59,1.59,0,0,1-1.24-.48,2.37,2.37,0,0,1-.44-1.64V306.4h-1v-.87h1V304Z"/><path class="cls-4" d="M899.09,311.82,899,311h0A2.36,2.36,0,0,1,897,312a1.79,1.79,0,0,1-1.92-1.81c0-1.52,1.35-2.35,3.78-2.34v-.13a1.3,1.3,0,0,0-1.43-1.46,3.14,3.14,0,0,0-1.64.47l-.26-.75a3.91,3.91,0,0,1,2.07-.56c1.92,0,2.39,1.31,2.39,2.57v2.35a8.62,8.62,0,0,0,.11,1.51Zm-.17-3.21c-1.25,0-2.67.2-2.67,1.42a1,1,0,0,0,1.08,1.09,1.56,1.56,0,0,0,1.52-1.05,1.21,1.21,0,0,0,.07-.37Z"/><path class="cls-4" d="M903.19,303.72v1.81h1.64v.87h-1.64v3.39c0,.78.23,1.23.86,1.23a2.58,2.58,0,0,0,.67-.08l0,.86a2.85,2.85,0,0,1-1,.15,1.58,1.58,0,0,1-1.23-.48,2.32,2.32,0,0,1-.44-1.64V306.4h-1v-.87h1V304Z"/><path class="cls-4" d="M906.68,308.88a2,2,0,0,0,2.16,2.19,4,4,0,0,0,1.74-.33l.19.82a5.11,5.11,0,0,1-2.09.39,2.91,2.91,0,0,1-3.09-3.17c0-1.9,1.11-3.39,2.95-3.39,2.05,0,2.6,1.8,2.6,3a4.82,4.82,0,0,1,0,.53Zm3.35-.82a1.63,1.63,0,0,0-1.58-1.85,1.89,1.89,0,0,0-1.76,1.85Z"/><text class="cls-28" transform="translate(232.63 530.91)"><tspan class="cls-35">O</tspan><tspan class="cls-36" x="8.89" y="0">x</tspan><tspan class="cls-33" x="15.11" y="0">y</tspan><tspan class="cls-37" x="21.1" y="0">gen </tspan><tspan class="cls-38" x="44.85" y="0">G</tspan><tspan x="53.31" y="0">ene</tspan><tspan class="cls-35" x="73.55" y="0">r</tspan><tspan class="cls-39" x="77.74" y="0">a</tspan><tspan class="cls-40" x="83.95" y="0">t</tspan><tspan x="88.18" y="0">or Ope</tspan><tspan class="cls-35" x="125.19" y="0">r</tspan><tspan class="cls-39" x="129.37" y="0">a</tspan><tspan class="cls-34" x="135.59" y="0">ting </tspan><tspan class="cls-41" x="160.17" y="0">S</tspan><tspan class="cls-34" x="166.54" y="0">t</tspan><tspan class="cls-39" x="170.84" y="0">a</tspan><tspan class="cls-42" x="177.06" y="0">t</tspan><tspan class="cls-34" x="181.28" y="0">e</tspan></text><text class="cls-28" transform="translate(275.15 585.67)">O₂ <tspan class="cls-43" x="15.76" y="0">P</tspan><tspan class="cls-33" x="22.46" y="0">r</tspan><tspan x="26.58" y="0">odu</tspan><tspan class="cls-44" x="48.22" y="0">c</tspan><tspan x="54.21" y="0">tion </tspan><tspan class="cls-45" x="78.66" y="0">R</tspan><tspan class="cls-39" x="85.81" y="0">a</tspan><tspan class="cls-42" x="92.03" y="0">t</tspan><tspan class="cls-34" x="96.25" y="0">e</tspan></text><path class="cls-4" d="M828.07,382.73,825.84,374H827l1,4.44c.26,1.09.5,2.18.65,3h0c.14-.87.41-1.91.71-3l1.17-4.42h1.19l1.06,4.45c.25,1,.48,2.08.61,3h0c.18-1,.43-1.94.7-3l1.16-4.42h1.15l-2.48,8.76h-1.18l-1.11-4.56a27.65,27.65,0,0,1-.57-2.86h0a27,27,0,0,1-.67,2.86l-1.25,4.56Z"/><path class="cls-4" d="M840.65,382.73l-.09-.79h0a2.32,2.32,0,0,1-1.92.94,1.8,1.8,0,0,1-1.93-1.81c0-1.52,1.36-2.35,3.79-2.34v-.13a1.3,1.3,0,0,0-1.43-1.46,3.18,3.18,0,0,0-1.64.47l-.26-.75a3.88,3.88,0,0,1,2.07-.56c1.92,0,2.39,1.31,2.39,2.57v2.36a8.57,8.57,0,0,0,.1,1.5Zm-.17-3.21c-1.25,0-2.66.2-2.66,1.42A1,1,0,0,0,838.9,382a1.56,1.56,0,0,0,1.52-1,1.18,1.18,0,0,0,.06-.36Z"/><path class="cls-4" d="M844.76,374.64v1.8h1.64v.87h-1.64v3.4c0,.78.22,1.22.86,1.22a2.44,2.44,0,0,0,.66-.08l.05.86a2.82,2.82,0,0,1-1,.15,1.58,1.58,0,0,1-1.24-.48,2.32,2.32,0,0,1-.44-1.63v-3.44h-1v-.87h1v-1.51Z"/><path class="cls-4" d="M848.24,379.8A2,2,0,0,0,850.4,382a4.17,4.17,0,0,0,1.74-.32l.2.81a4.94,4.94,0,0,1-2.09.39,2.92,2.92,0,0,1-3.1-3.17c0-1.9,1.12-3.39,3-3.39,2.06,0,2.6,1.81,2.6,3a3.31,3.31,0,0,1,0,.54Zm3.36-.82a1.63,1.63,0,0,0-1.59-1.86,1.88,1.88,0,0,0-1.75,1.86Z"/><path class="cls-4" d="M854.12,378.41c0-.75,0-1.38,0-2h1l0,1.24h0a1.88,1.88,0,0,1,1.74-1.38,1.15,1.15,0,0,1,.33,0v1.08a1.56,1.56,0,0,0-.39,0,1.61,1.61,0,0,0-1.54,1.47,4,4,0,0,0,0,.53v3.35h-1.13Z"/><path class="cls-4" d="M861.17,374.08a13.13,13.13,0,0,1,2.17-.17,3.57,3.57,0,0,1,2.45.73,2.35,2.35,0,0,1,.77,1.83,2.54,2.54,0,0,1-.68,1.87,4.39,4.39,0,0,1-3.58.88v3.51h-1.13Zm1.13,4.22a3.52,3.52,0,0,0,.93.09c1.37,0,2.2-.66,2.2-1.87s-.82-1.72-2.07-1.72a4.13,4.13,0,0,0-1.06.1Z"/><path class="cls-4" d="M867.83,378.41c0-.75,0-1.38-.05-2h1l0,1.24h.06a1.87,1.87,0,0,1,1.74-1.38,1,1,0,0,1,.32,0v1.08a1.51,1.51,0,0,0-.39,0,1.6,1.6,0,0,0-1.53,1.47,2.81,2.81,0,0,0,0,.53v3.35h-1.14Z"/><path class="cls-4" d="M877.65,379.54a3.08,3.08,0,0,1-3.13,3.34,3,3,0,0,1-3-3.24,3.07,3.07,0,0,1,3.12-3.34A3,3,0,0,1,877.65,379.54Zm-5,.06c0,1.38.79,2.42,1.91,2.42s1.91-1,1.91-2.44c0-1.07-.53-2.42-1.89-2.42S872.66,378.41,872.66,379.6Z"/><path class="cls-4" d="M883.58,382.5a4.17,4.17,0,0,1-1.81.36,3,3,0,0,1-3.13-3.21,3.2,3.2,0,0,1,3.38-3.34,3.73,3.73,0,0,1,1.58.33l-.26.88a2.69,2.69,0,0,0-1.32-.3,2.18,2.18,0,0,0-2.23,2.38A2.16,2.16,0,0,0,882,382a3.12,3.12,0,0,0,1.4-.31Z"/><path class="cls-4" d="M885.48,379.8a2,2,0,0,0,2.15,2.18,4.22,4.22,0,0,0,1.75-.32l.19.81a4.94,4.94,0,0,1-2.09.39,2.92,2.92,0,0,1-3.1-3.17c0-1.9,1.12-3.39,3-3.39,2.06,0,2.6,1.81,2.6,3,0,.24,0,.42,0,.54Zm3.35-.82a1.63,1.63,0,0,0-1.59-1.86,1.89,1.89,0,0,0-1.75,1.86Z"/><path class="cls-4" d="M891.2,381.56a2.87,2.87,0,0,0,1.5.46c.84,0,1.22-.42,1.22-.94s-.32-.84-1.17-1.15c-1.13-.41-1.66-1-1.66-1.78a1.94,1.94,0,0,1,2.17-1.85,3.12,3.12,0,0,1,1.55.39l-.29.83a2.47,2.47,0,0,0-1.28-.36c-.68,0-1.06.39-1.06.86s.38.75,1.2,1.06c1.09.42,1.65,1,1.65,1.9,0,1.1-.86,1.88-2.35,1.88a3.59,3.59,0,0,1-1.77-.42Z"/><path class="cls-4" d="M896.34,381.56a2.93,2.93,0,0,0,1.51.46c.83,0,1.22-.42,1.22-.94s-.32-.84-1.17-1.15c-1.13-.41-1.66-1-1.66-1.78a1.94,1.94,0,0,1,2.17-1.85,3.12,3.12,0,0,1,1.55.39l-.29.83a2.52,2.52,0,0,0-1.29-.36c-.67,0-1,.39-1,.86s.38.75,1.2,1.06c1.09.42,1.65,1,1.65,1.9,0,1.1-.86,1.88-2.35,1.88a3.59,3.59,0,0,1-1.77-.42Z"/><path class="cls-4" d="M907.34,379.54a3.08,3.08,0,0,1-3.13,3.34,3,3,0,0,1-3-3.24,3.07,3.07,0,0,1,3.12-3.34A3,3,0,0,1,907.34,379.54Zm-5,.06c0,1.38.79,2.42,1.91,2.42s1.91-1,1.91-2.44c0-1.07-.53-2.42-1.88-2.42S902.35,378.41,902.35,379.6Z"/><path class="cls-4" d="M908.78,378.41c0-.75,0-1.38,0-2h1l0,1.24h.05a1.89,1.89,0,0,1,1.75-1.38,1,1,0,0,1,.32,0v1.08a1.51,1.51,0,0,0-.39,0,1.6,1.6,0,0,0-1.53,1.47,2.81,2.81,0,0,0-.05.53v3.35h-1.14Z"/><path class="cls-4" d="M836.17,393.86c0,3-1.84,4.62-4.07,4.62s-3.94-1.8-3.94-4.45,1.73-4.6,4.07-4.6S836.17,391.26,836.17,393.86Zm-6.8.15c0,1.87,1,3.54,2.79,3.54s2.81-1.65,2.81-3.64c0-1.74-.91-3.56-2.79-3.56S829.37,392.08,829.37,394Z"/><path class="cls-4" d="M837.6,394.1c0-.81,0-1.46-.06-2.06h1l0,1.08h0a2.47,2.47,0,0,1,2.24-1.22c1.52,0,2.66,1.29,2.66,3.2,0,2.26-1.38,3.38-2.86,3.38a2.23,2.23,0,0,1-1.94-1h0v3.42H837.6Zm1.13,1.67a2.26,2.26,0,0,0,0,.47,1.77,1.77,0,0,0,1.72,1.34c1.21,0,1.91-1,1.91-2.43,0-1.26-.67-2.34-1.87-2.34a1.82,1.82,0,0,0-1.73,1.42,1.77,1.77,0,0,0-.08.46Z"/><path class="cls-4" d="M845.63,395.4a2,2,0,0,0,2.16,2.18,4.17,4.17,0,0,0,1.74-.32l.2.81a5,5,0,0,1-2.1.39,2.92,2.92,0,0,1-3.09-3.17c0-1.9,1.12-3.39,3-3.39a2.67,2.67,0,0,1,2.6,3,5.05,5.05,0,0,1,0,.54Zm3.36-.82a1.63,1.63,0,0,0-1.59-1.86,1.89,1.89,0,0,0-1.76,1.86Z"/><path class="cls-4" d="M851.51,394c0-.75,0-1.38,0-2h1l0,1.24h0a1.87,1.87,0,0,1,1.74-1.38,1,1,0,0,1,.32,0V393a1.46,1.46,0,0,0-.39,0,1.61,1.61,0,0,0-1.53,1.47,2.81,2.81,0,0,0-.05.53v3.35h-1.13Z"/><path class="cls-4" d="M859.18,398.33l-.09-.79h0a2.34,2.34,0,0,1-1.93.94,1.79,1.79,0,0,1-1.92-1.81c0-1.52,1.35-2.35,3.78-2.34v-.13a1.3,1.3,0,0,0-1.43-1.46,3.24,3.24,0,0,0-1.64.47l-.26-.75a3.91,3.91,0,0,1,2.07-.56c1.93,0,2.39,1.31,2.39,2.57v2.36a8.5,8.5,0,0,0,.11,1.5Zm-.17-3.21c-1.25,0-2.67.2-2.67,1.42a1,1,0,0,0,1.08,1.09,1.56,1.56,0,0,0,1.52-1.05,1.21,1.21,0,0,0,.07-.36Z"/><path class="cls-4" d="M863.29,390.24V392h1.63v.87h-1.63v3.4c0,.78.22,1.22.85,1.22a2.58,2.58,0,0,0,.67-.08l.05.86a2.85,2.85,0,0,1-1,.15,1.55,1.55,0,0,1-1.23-.48,2.27,2.27,0,0,1-.44-1.63v-3.44h-1V392h1v-1.51Z"/><path class="cls-4" d="M867.48,390.27a.67.67,0,0,1-.72.71.68.68,0,0,1-.69-.71.69.69,0,0,1,.71-.71A.67.67,0,0,1,867.48,390.27Zm-1.27,8.06V392h1.14v6.29Z"/><path class="cls-4" d="M869.25,393.75c0-.65,0-1.19,0-1.71h1l.07,1h0a2.32,2.32,0,0,1,2.08-1.18c.88,0,2.23.52,2.23,2.68v3.75h-1.15v-3.62c0-1-.37-1.86-1.45-1.86a1.63,1.63,0,0,0-1.54,1.17,1.7,1.7,0,0,0-.07.53v3.78h-1.15Z"/><path class="cls-4" d="M881.89,392c0,.46,0,1,0,1.73v3.65a3.63,3.63,0,0,1-.9,2.88,3.35,3.35,0,0,1-2.29.75,4,4,0,0,1-2.09-.52l.28-.87a3.58,3.58,0,0,0,1.85.49c1.17,0,2-.61,2-2.19v-.7h0a2.26,2.26,0,0,1-2,1.05,2.82,2.82,0,0,1-2.68-3.07c0-2.13,1.39-3.34,2.84-3.34a2.09,2.09,0,0,1,2,1.09h0l.06-.95Zm-1.19,2.49A1.66,1.66,0,0,0,879,392.8c-1.09,0-1.87.92-1.87,2.38,0,1.23.62,2.26,1.86,2.26a1.66,1.66,0,0,0,1.58-1.17,1.88,1.88,0,0,0,.09-.61Z"/><path class="cls-4" d="M886.37,397a4,4,0,0,0,2,.57c1.16,0,1.83-.61,1.83-1.5s-.46-1.28-1.65-1.74c-1.43-.51-2.31-1.25-2.31-2.48s1.13-2.38,2.83-2.38a4,4,0,0,1,1.94.43l-.31.92a3.47,3.47,0,0,0-1.67-.41c-1.19,0-1.65.71-1.65,1.31,0,.82.54,1.22,1.74,1.69,1.49.57,2.24,1.29,2.24,2.57s-1,2.52-3.07,2.52a4.52,4.52,0,0,1-2.23-.55Z"/><path class="cls-4" d="M894.24,390.24V392h1.64v.87h-1.64v3.4c0,.78.22,1.22.86,1.22a2.49,2.49,0,0,0,.66-.08l0,.86a2.82,2.82,0,0,1-1,.15,1.55,1.55,0,0,1-1.24-.48,2.32,2.32,0,0,1-.44-1.63v-3.44h-1V392h1v-1.51Z"/><path class="cls-4" d="M897.72,395.4a2,2,0,0,0,2.16,2.18,4.17,4.17,0,0,0,1.74-.32l.2.81a5,5,0,0,1-2.1.39,2.92,2.92,0,0,1-3.09-3.17c0-1.9,1.12-3.39,3-3.39a2.67,2.67,0,0,1,2.6,3,5.05,5.05,0,0,1,0,.54Zm3.36-.82a1.63,1.63,0,0,0-1.59-1.86,1.9,1.9,0,0,0-1.76,1.86Z"/><path class="cls-4" d="M903.6,394.1c0-.81,0-1.46-.06-2.06h1l0,1.08h0a2.47,2.47,0,0,1,2.24-1.22c1.52,0,2.66,1.29,2.66,3.2,0,2.26-1.38,3.38-2.86,3.38a2.23,2.23,0,0,1-1.94-1h0v3.42H903.6Zm1.13,1.67a2.26,2.26,0,0,0,0,.47,1.77,1.77,0,0,0,1.72,1.34c1.21,0,1.91-1,1.91-2.43,0-1.26-.67-2.34-1.87-2.34a1.82,1.82,0,0,0-1.73,1.42,1.77,1.77,0,0,0-.08.46Z"/><text class="cls-28" transform="translate(657.96 314.28)"><tspan class="cls-46">C</tspan><tspan class="cls-39" x="7.45" y="0">a</tspan><tspan x="13.66" y="0">talytic </tspan><tspan class="cls-47" x="49.35" y="0">R</tspan><tspan class="cls-34" x="56.39" y="0">ea</tspan><tspan class="cls-48" x="69.17" y="0">c</tspan><tspan class="cls-40" x="75.16" y="0">t</tspan><tspan class="cls-34" x="79.39" y="0">or</tspan></text><path class="cls-4" d="M782.75,503.26a5.71,5.71,0,0,1-2.31.41,4.09,4.09,0,0,1-4.33-4.43,4.36,4.36,0,0,1,4.58-4.6,4.65,4.65,0,0,1,2.08.39l-.28.92a4.09,4.09,0,0,0-1.76-.36c-2.06,0-3.42,1.31-3.42,3.61a3.18,3.18,0,0,0,3.36,3.52,4.58,4.58,0,0,0,1.85-.36Z"/><path class="cls-4" d="M784.13,494.31h1.15v9.23h-1.15Z"/><path class="cls-4" d="M787.84,500.6a2,2,0,0,0,2.15,2.19,4.2,4.2,0,0,0,1.75-.33l.19.82a5.11,5.11,0,0,1-2.09.39,2.92,2.92,0,0,1-3.1-3.17c0-1.9,1.12-3.39,3-3.39,2,0,2.6,1.8,2.6,3a4.82,4.82,0,0,1,0,.53Zm3.35-.82a1.63,1.63,0,0,0-1.59-1.85,1.89,1.89,0,0,0-1.75,1.85Z"/><path class="cls-4" d="M797.2,503.54l-.09-.79h0a2.37,2.37,0,0,1-1.93.93,1.79,1.79,0,0,1-1.92-1.8c0-1.52,1.35-2.36,3.78-2.34v-.13a1.3,1.3,0,0,0-1.43-1.46,3.14,3.14,0,0,0-1.64.47l-.26-.75a3.91,3.91,0,0,1,2.07-.56c1.92,0,2.39,1.31,2.39,2.57V502a8.62,8.62,0,0,0,.11,1.51Zm-.17-3.21c-1.25,0-2.67.2-2.67,1.42a1,1,0,0,0,1.08,1.09,1.56,1.56,0,0,0,1.52-1,1.21,1.21,0,0,0,.07-.37Z"/><path class="cls-4" d="M800,499c0-.65,0-1.18-.05-1.7h1l.06,1h0a2.31,2.31,0,0,1,2.08-1.18c.87,0,2.22.52,2.22,2.67v3.76h-1.14v-3.62c0-1-.38-1.86-1.46-1.86a1.63,1.63,0,0,0-1.53,1.17,1.64,1.64,0,0,0-.08.53v3.78H800Z"/><path class="cls-4" d="M811,503.54l-2.22-8.76h1.19l1,4.43c.26,1.09.5,2.19.65,3h0c.14-.87.41-1.91.71-3l1.17-4.42h1.19l1.06,4.45c.25,1,.48,2.08.61,3h0c.18-1,.43-1.94.7-3l1.16-4.42h1.16l-2.49,8.76h-1.18L814.65,499a28.18,28.18,0,0,1-.57-2.86h0a27.24,27.24,0,0,1-.68,2.86l-1.25,4.56Z"/><path class="cls-4" d="M823.53,503.54l-.09-.79h0a2.34,2.34,0,0,1-1.92.93,1.79,1.79,0,0,1-1.92-1.8c0-1.52,1.35-2.36,3.78-2.34v-.13a1.3,1.3,0,0,0-1.43-1.46,3.09,3.09,0,0,0-1.64.47l-.26-.75a3.91,3.91,0,0,1,2.07-.56c1.92,0,2.39,1.31,2.39,2.57V502a9.8,9.8,0,0,0,.1,1.51Zm-.16-3.21c-1.25,0-2.67.2-2.67,1.42a1,1,0,0,0,1.08,1.09,1.56,1.56,0,0,0,1.52-1,1.21,1.21,0,0,0,.07-.37Z"/><path class="cls-4" d="M827.64,495.44v1.81h1.64v.87h-1.64v3.39c0,.78.22,1.23.86,1.23a2.44,2.44,0,0,0,.66-.08l.05.86a2.82,2.82,0,0,1-1,.15,1.58,1.58,0,0,1-1.23-.48,2.32,2.32,0,0,1-.45-1.64v-3.43h-1v-.87h1v-1.51Z"/><path class="cls-4" d="M831.13,500.6a2,2,0,0,0,2.15,2.19,4.2,4.2,0,0,0,1.75-.33l.19.82a5.11,5.11,0,0,1-2.09.39,2.92,2.92,0,0,1-3.1-3.17c0-1.9,1.12-3.39,3-3.39,2,0,2.59,1.8,2.59,3,0,.23,0,.42,0,.53Zm3.35-.82a1.63,1.63,0,0,0-1.59-1.85,1.89,1.89,0,0,0-1.75,1.85Z"/><path class="cls-4" d="M837,499.21c0-.74,0-1.38,0-2h1l0,1.23h0a1.89,1.89,0,0,1,1.74-1.37,1.15,1.15,0,0,1,.33,0v1.07a2.21,2.21,0,0,0-.39,0,1.61,1.61,0,0,0-1.54,1.46,4.15,4.15,0,0,0,0,.54v3.35H837Z"/><path class="cls-4" d="M782.56,511.34h-2.67v-1h6.49v1H783.7v7.8h-1.14Z"/><path class="cls-4" d="M790,519.14l-.09-.79h0a2.36,2.36,0,0,1-1.93.94,1.79,1.79,0,0,1-1.92-1.81c0-1.52,1.35-2.36,3.78-2.34V515a1.3,1.3,0,0,0-1.43-1.46,3.08,3.08,0,0,0-1.63.47l-.26-.75a3.87,3.87,0,0,1,2.06-.56c1.93,0,2.39,1.31,2.39,2.57v2.35a8.62,8.62,0,0,0,.11,1.51Zm-.17-3.21c-1.25,0-2.67.2-2.67,1.42a1,1,0,0,0,1.08,1.09,1.56,1.56,0,0,0,1.52-1.05,1.21,1.21,0,0,0,.07-.37Z"/><path class="cls-4" d="M792.75,514.55c0-.65,0-1.18,0-1.7h1l.07,1h0a2.32,2.32,0,0,1,2.08-1.18c.87,0,2.23.52,2.23,2.67v3.76H797v-3.63c0-1-.37-1.85-1.45-1.85a1.68,1.68,0,0,0-1.62,1.7v3.78h-1.14Z"/><path class="cls-4" d="M801.1,515.74h0c.16-.23.38-.5.56-.72l1.85-2.17h1.38l-2.44,2.59,2.77,3.7h-1.39l-2.17-3-.58.65v2.36H800v-9.23h1.13Z"/><path class="cls-4" d="M808.86,510.38H810v7.81h3.74v.95h-4.87Z"/><path class="cls-4" d="M815.41,516.2a2,2,0,0,0,2.16,2.19,4,4,0,0,0,1.74-.33l.19.82a5.11,5.11,0,0,1-2.09.39,2.91,2.91,0,0,1-3.09-3.17c0-1.9,1.11-3.39,2.95-3.39,2.05,0,2.6,1.8,2.6,3a4.82,4.82,0,0,1,0,.53Zm3.35-.82a1.62,1.62,0,0,0-1.58-1.85,1.89,1.89,0,0,0-1.76,1.85Z"/><path class="cls-4" d="M821.73,512.85l1.23,3.54a15.54,15.54,0,0,1,.51,1.61h0c.14-.52.32-1,.53-1.61l1.22-3.54h1.2L824,519.14H822.9l-2.4-6.29Z"/><path class="cls-4" d="M828,516.2a2,2,0,0,0,2.16,2.19,4,4,0,0,0,1.75-.33l.19.82a5.11,5.11,0,0,1-2.09.39,2.92,2.92,0,0,1-3.1-3.17c0-1.9,1.12-3.39,2.95-3.39,2.06,0,2.6,1.8,2.6,3a3.17,3.17,0,0,1,0,.53Zm3.36-.82a1.63,1.63,0,0,0-1.59-1.85,1.89,1.89,0,0,0-1.75,1.85Z"/><path class="cls-4" d="M833.92,509.91h1.15v9.23h-1.15Z"/><text class="cls-28" transform="translate(238.47 171.87)">U<tspan class="cls-29" x="8.41" y="0">r</tspan><tspan x="12.71" y="0">ine </tspan><tspan class="cls-43" x="32.24" y="0">P</tspan><tspan class="cls-33" x="38.95" y="0">r</tspan><tspan class="cls-34" x="43.07" y="0">o</tspan><tspan class="cls-42" x="50.21" y="0">c</tspan><tspan class="cls-34" x="55.95" y="0">essor Ope</tspan><tspan class="cls-35" x="109.77" y="0">r</tspan><tspan class="cls-49" x="113.96" y="0">a</tspan><tspan x="120.17" y="0">ting </tspan><tspan class="cls-41" x="144.75" y="0">S</tspan><tspan x="151.12" y="0">t</tspan><tspan class="cls-49" x="155.43" y="0">a</tspan><tspan class="cls-50" x="161.64" y="0">t</tspan><tspan x="165.87" y="0">e</tspan></text><text class="cls-28" transform="translate(196.64 70.92)">f<tspan class="cls-33" x="3.8" y="0">r</tspan><tspan x="7.92" y="0">om air </tspan><tspan class="cls-40" x="44.97" y="0">c</tspan><tspan class="cls-34" x="50.71" y="0">onditioners</tspan></text><text class="cls-8" transform="translate(206.05 421.04)">P<tspan class="cls-51" x="8.13" y="0">O</tspan><tspan class="cls-52" x="17.78" y="0">T</tspan><tspan x="24.44" y="0">ABLE</tspan><tspan class="cls-53" x="56.71" y="0"> </tspan><tspan class="cls-15" x="59.02" y="0">W</tspan><tspan class="cls-21" x="70.7" y="0">A</tspan><tspan x="78.72" y="0">TER</tspan></text><text class="cls-28" transform="translate(192.67 434.74)"><tspan class="cls-40">t</tspan><tspan x="4.23" y="0">o c</tspan><tspan class="cls-33" x="19.94" y="0">r</tspan><tspan x="24.06" y="0">ew </tspan><tspan class="cls-49" x="42.9" y="0">wa</tspan><tspan class="cls-40" x="58.63" y="0">t</tspan><tspan x="62.85" y="0">er dispenser</tspan></text><rect class="cls-54" x="680.2" y="342.14" width="84.86" height="43.9"/><polyline class="cls-55" points="657.71 364.09 680.2 386.04 657.71 364.09 657.71 320.19 680.2 342.14 680.2 386.04"/><polygon class="cls-56" points="657.71 320.19 742.57 320.19 765.06 342.14 680.2 342.14 657.71 320.19"/></g></svg>