<svg xmlns="http://www.w3.org/2000/svg" viewBox="0 0 1190 700"><defs><style>.cls-1{fill:#434444;}.cls-2{fill:#4f87bf;}.cls-3{fill:#c2524f;}.cls-4{fill:#606161;}.cls-5{fill:#fff;}.cls-6{fill:#bababa;}</style></defs><g id="Layer_1" data-name="Layer 1"><rect class="cls-1" x="-9.89" y="-7.24" width="1208.97" height="716.84"/><path class="cls-2" d="M936.21,186.29h-3a46,46,0,0,0-46-46v-3A49,49,0,0,1,936.21,186.29Z"/><path class="cls-3" d="M887.24,355.66v-3a46,46,0,0,0,46-46h3A49,49,0,0,1,887.24,355.66Z"/><path class="cls-3" d="M553.66,355.66a49,49,0,0,1-49-49h3a46,46,0,0,0,46,46Z"/><rect class="cls-2" x="529.71" y="137.32" width="357.52" height="3"/><rect class="cls-2" x="327.56" y="137.32" width="129.13" height="3"/><polygon class="cls-2" points="448.26 127.71 452.98 138.82 448.26 149.93 474.59 138.82 448.26 127.71"/><rect class="cls-2" x="933.21" y="186.29" width="3" height="8.2"/><polygon class="cls-2" points="923.6 186.06 934.71 190.78 945.82 186.06 934.71 212.4 923.6 186.06"/><rect class="cls-3" x="504.68" y="187.11" width="3" height="119.58"/><polygon class="cls-3" points="517.29 195.53 506.18 190.81 495.07 195.53 506.18 169.2 517.29 195.53"/><polygon class="cls-4" points="513.73 153.59 515.34 150.79 535.86 138.95 515.34 127.11 513.73 124.31 496.82 124.31 491.54 133.46 476.51 124.79 476.51 151.24 490.73 143.03 496.82 153.59 500.99 153.59 493.05 167.35 517.51 167.35 509.56 153.59 513.73 153.59"/><path class="cls-5" d="M520.1,168.85H490.45l7.95-13.76H496l-5.78-10L475,153.84V122.19l16,9.22,5-8.6H514.6l1.84,3.2L538.85,139l-22.41,12.94-1.84,3.2h-2.44Zm-24.46-3h19.27L507,152.09h5.9l1.39-2.4L532.85,139l-18.6-10.75-1.39-2.39H497.69l-5.6,9.7L478,127.38v21.26L491.28,141l6.41,11.11h5.9Z"/><rect class="cls-3" x="345.47" y="352.66" width="541.77" height="3"/><polygon class="cls-3" points="353.89 343.05 349.17 354.16 353.89 365.27 327.56 354.16 353.89 343.05"/><path class="cls-5" d="M462.91,77.9h-2.54V76.11h7.26V77.9h-2.58v7.65h-2.14Z"/><path class="cls-5" d="M474.37,81.56H470.9V83.8h3.88v1.75h-6V76.11h5.82v1.75H470.9v2h3.47Z"/><path class="cls-5" d="M484.22,81.94c-.05-1.14-.09-2.51-.09-3.88h0c-.29,1.2-.69,2.55-1,3.65l-1.15,3.69h-1.67l-1-3.66c-.31-1.11-.63-2.45-.86-3.68h0c-.05,1.27-.09,2.73-.16,3.91L478,85.55h-2l.6-9.44h2.85l.92,3.15c.3,1.09.59,2.27.8,3.38h0c.27-1.09.59-2.34.9-3.39l1-3.14h2.79l.51,9.44h-2.08Z"/><path class="cls-5" d="M488.08,76.24A16.43,16.43,0,0,1,491,76a4.5,4.5,0,0,1,2.89.76,2.75,2.75,0,0,1,1,2.18,3,3,0,0,1-.87,2.24,4.37,4.37,0,0,1-3.07,1,7.27,7.27,0,0,1-.73,0v3.37h-2.11Zm2.11,4.28a2.83,2.83,0,0,0,.72.06c1.13,0,1.83-.58,1.83-1.54s-.6-1.39-1.67-1.39a3.23,3.23,0,0,0-.88.09Z"/><path class="cls-5" d="M501.83,81.56h-3.48V83.8h3.88v1.75h-6V76.11H502v1.75h-3.69v2h3.48Z"/><path class="cls-5" d="M503.69,76.24a17.55,17.55,0,0,1,2.84-.2,4.82,4.82,0,0,1,3.05.74,2.41,2.41,0,0,1,.87,2,2.49,2.49,0,0,1-1.67,2.32v0A2.37,2.37,0,0,1,510,82.89a26.19,26.19,0,0,0,.78,2.66h-2.19a11.74,11.74,0,0,1-.66-2.2c-.25-1.17-.66-1.5-1.52-1.51h-.65v3.71h-2.11Zm2.11,4.06h.84c1.07,0,1.7-.53,1.7-1.36s-.59-1.3-1.57-1.32a6.36,6.36,0,0,0-1,.07Z"/><path class="cls-5" d="M514.31,83.13l-.67,2.42h-2.21l2.88-9.44h2.8L520,85.55h-2.3L517,83.13Zm2.4-1.6-.59-2c-.17-.56-.34-1.26-.48-1.82h0c-.14.56-.29,1.27-.44,1.82l-.56,2Z"/><path class="cls-5" d="M522,77.9h-2.54V76.11h7.26V77.9H524.1v7.65H522Z"/><path class="cls-5" d="M529.94,76.11v5.44c0,1.62.61,2.45,1.71,2.45s1.73-.79,1.73-2.45V76.11h2.13v5.3c0,2.91-1.47,4.3-3.93,4.3s-3.79-1.32-3.79-4.33V76.11Z"/><path class="cls-5" d="M537.36,76.24a17.55,17.55,0,0,1,2.84-.2,4.82,4.82,0,0,1,3,.74,2.41,2.41,0,0,1,.87,2,2.49,2.49,0,0,1-1.67,2.32v0a2.37,2.37,0,0,1,1.26,1.77,26.19,26.19,0,0,0,.78,2.66H542.3a11.74,11.74,0,0,1-.66-2.2c-.25-1.17-.66-1.5-1.53-1.51h-.64v3.71h-2.11Zm2.11,4.06h.84c1.07,0,1.7-.53,1.7-1.36s-.59-1.3-1.57-1.32a6.23,6.23,0,0,0-1,.07Z"/><path class="cls-5" d="M551.27,81.56H547.8V83.8h3.88v1.75h-6V76.11h5.82v1.75H547.8v2h3.47Z"/><path class="cls-5" d="M462.55,102.08a6,6,0,0,1-2.42.41c-3.27,0-4.95-2-4.95-4.72a4.81,4.81,0,0,1,5.16-5,5.47,5.47,0,0,1,2.32.42l-.43,1.69a4.68,4.68,0,0,0-1.79-.35,3.11,3.11,0,0,0,0,6.21,5.31,5.31,0,0,0,1.78-.31Z"/><path class="cls-5" d="M472.17,97.53c0,3.1-1.88,5-4.64,5s-4.44-2.12-4.44-4.81,1.81-4.94,4.6-4.94S472.17,94.93,472.17,97.53Zm-6.82.13c0,1.85.87,3.15,2.3,3.15s2.26-1.37,2.26-3.21c0-1.69-.81-3.15-2.28-3.15S465.35,95.82,465.35,97.66Z"/><path class="cls-5" d="M473.56,102.35V92.91h2.5l2,3.46a27.44,27.44,0,0,1,1.54,3.24h0a35.23,35.23,0,0,1-.18-3.94V92.91h2v9.44h-2.24l-2-3.64c-.56-1-1.17-2.23-1.64-3.33h0c.06,1.25.09,2.58.09,4.12v2.84Z"/><path class="cls-5" d="M485.05,94.7h-2.54V92.91h7.26V94.7h-2.58v7.65h-2.14Z"/><path class="cls-5" d="M490.9,93a17.64,17.64,0,0,1,2.84-.2,4.82,4.82,0,0,1,3.05.74,2.41,2.41,0,0,1,.87,2A2.5,2.5,0,0,1,496,97.88v0a2.42,2.42,0,0,1,1.26,1.77,25,25,0,0,0,.77,2.66h-2.19a12,12,0,0,1-.66-2.2c-.25-1.17-.66-1.5-1.52-1.51H493v3.71H490.9ZM493,97.1h.84c1.07,0,1.7-.53,1.7-1.36s-.59-1.3-1.57-1.32a5.23,5.23,0,0,0-1,.07Z"/><path class="cls-5" d="M507.79,97.53c0,3.1-1.88,5-4.64,5s-4.44-2.12-4.44-4.81,1.81-4.94,4.59-4.94S507.79,94.93,507.79,97.53Zm-6.83.13c0,1.85.87,3.15,2.3,3.15s2.27-1.37,2.27-3.21c0-1.69-.81-3.15-2.28-3.15S501,95.82,501,97.66Z"/><path class="cls-5" d="M509.18,92.91h2.14v7.65h3.76v1.79h-5.9Z"/><path class="cls-5" d="M520.87,102.35l-3-9.44h2.34l1.14,4a33.38,33.38,0,0,1,.84,3.38h.05c.23-1.14.53-2.26.85-3.34l1.21-4h2.26l-3.17,9.44Z"/><path class="cls-5" d="M529,99.93l-.67,2.42h-2.21L529,92.91h2.8l2.93,9.44h-2.3l-.73-2.42Zm2.4-1.6-.59-2c-.17-.56-.34-1.26-.48-1.82h0c-.14.56-.28,1.27-.43,1.82l-.56,2Z"/><path class="cls-5" d="M536,92.91h2.14v7.65h3.75v1.79H536Z"/><path class="cls-5" d="M544.45,102.35l-3-9.44h2.34l1.15,4c.32,1.12.62,2.2.84,3.38h0c.24-1.14.53-2.26.86-3.34l1.2-4h2.27l-3.18,9.44Z"/><path class="cls-5" d="M556.74,98.36h-3.47v2.24h3.88v1.75h-6V92.91H557v1.75h-3.68v2h3.47Z"/><path class="cls-5" d="M783.06,93a16.65,16.65,0,0,1,2.89-.2,4.47,4.47,0,0,1,2.88.76,2.72,2.72,0,0,1,1,2.18A3,3,0,0,1,789,98a4.33,4.33,0,0,1-3.06,1,7.27,7.27,0,0,1-.73,0v3.37h-2.12Zm2.12,4.28a2.75,2.75,0,0,0,.71.06c1.14,0,1.84-.58,1.84-1.54s-.6-1.39-1.67-1.39a3.17,3.17,0,0,0-.88.09Z"/><path class="cls-5" d="M793.33,92.91v5.44c0,1.62.61,2.45,1.71,2.45s1.73-.79,1.73-2.45V92.91h2.13v5.3c0,2.91-1.47,4.3-3.94,4.3s-3.78-1.32-3.78-4.33V92.91Z"/><path class="cls-5" d="M808.73,98.74c0-1.14-.08-2.51-.08-3.88h0c-.29,1.2-.68,2.55-1.05,3.65l-1.15,3.69h-1.66l-1-3.66c-.31-1.11-.63-2.45-.86-3.68h0c-.06,1.27-.1,2.73-.17,3.91l-.17,3.58h-2l.6-9.44H804l.93,3.15c.29,1.09.58,2.27.79,3.38h0c.26-1.09.58-2.34.89-3.39l1-3.14h2.79l.52,9.44h-2.09Z"/><path class="cls-5" d="M812.59,93a16.51,16.51,0,0,1,2.88-.2,4.5,4.5,0,0,1,2.89.76,2.75,2.75,0,0,1,1,2.18A3,3,0,0,1,818.5,98a4.37,4.37,0,0,1-3.07,1,7.27,7.27,0,0,1-.73,0v3.37h-2.11Zm2.11,4.28a2.88,2.88,0,0,0,.72.06c1.13,0,1.83-.58,1.83-1.54s-.6-1.39-1.66-1.39a3.26,3.26,0,0,0-.89.09Z"/><path class="cls-5" d="M691.6,70.51a6.29,6.29,0,0,1-2.43.4c-3.26,0-4.94-2-4.94-4.72a4.81,4.81,0,0,1,5.15-5,5.52,5.52,0,0,1,2.33.42l-.44,1.69a4.6,4.6,0,0,0-1.79-.35,2.85,2.85,0,0,0-3,3.13,2.82,2.82,0,0,0,3,3.08,5.26,5.26,0,0,0,1.78-.31Z"/><path class="cls-5" d="M701.21,66c0,3.09-1.87,5-4.63,5s-4.44-2.12-4.44-4.81,1.8-4.94,4.59-4.94S701.21,63.35,701.21,66Zm-6.82.12c0,1.85.87,3.15,2.3,3.15S699,67.86,699,66c0-1.69-.81-3.15-2.28-3.15S694.39,64.25,694.39,66.08Z"/><path class="cls-5" d="M711.25,66c0,3.09-1.87,5-4.63,5s-4.45-2.12-4.45-4.81,1.81-4.94,4.6-4.94S711.25,63.35,711.25,66Zm-6.82.12c0,1.85.87,3.15,2.3,3.15S709,67.86,709,66c0-1.69-.82-3.15-2.29-3.15S704.43,64.25,704.43,66.08Z"/><path class="cls-5" d="M712.65,61.33h2.14V69h3.75v1.79h-5.89Z"/><path class="cls-5" d="M722.08,68.35l-.67,2.42H719.2l2.88-9.44h2.81l2.92,9.44h-2.29l-.73-2.42Zm2.4-1.6-.59-2c-.17-.56-.33-1.26-.47-1.82h0c-.14.56-.28,1.27-.44,1.82l-.56,2Z"/><path class="cls-5" d="M729.07,70.77V61.33h2.49l2,3.46A27.44,27.44,0,0,1,735.06,68h.05a35,35,0,0,1-.19-3.94V61.33h2v9.44h-2.25l-2-3.64A35.5,35.5,0,0,1,731,63.8h0c0,1.25.08,2.58.08,4.12v2.84Z"/><path class="cls-5" d="M740.55,63.12H738V61.33h7.26v1.79h-2.58v7.65h-2.14Z"/><path class="cls-5" d="M700.3,79.92h-2.54V78.13H705v1.79h-2.58v7.65H700.3Z"/><path class="cls-5" d="M707.34,85.15l-.67,2.42h-2.21l2.88-9.44h2.8l2.93,9.44h-2.3l-.72-2.42Zm2.4-1.6-.59-2c-.17-.56-.34-1.26-.48-1.82h0c-.15.56-.28,1.27-.44,1.82l-.56,2Z"/><path class="cls-5" d="M714.33,87.57V78.13h2.49l2,3.46a27.44,27.44,0,0,1,1.54,3.24h0a32.82,32.82,0,0,1-.19-3.94V78.13h2v9.44H719.9l-2-3.64a35.5,35.5,0,0,1-1.64-3.33h0c0,1.25.08,2.58.08,4.12v2.84Z"/><path class="cls-5" d="M724,78.13h2.11v4.18h0c.21-.37.43-.7.64-1l2.14-3.14h2.62l-3.12,4,3.29,5.42h-2.49l-2.31-4.07-.82,1v3.08H724Z"/><path class="cls-5" d="M345.76,131.43a6.06,6.06,0,0,1-2.43.41c-3.26,0-4.94-2-4.94-4.72a4.81,4.81,0,0,1,5.15-5,5.69,5.69,0,0,1,2.33.42l-.44,1.7a4.43,4.43,0,0,0-1.79-.35,3.1,3.1,0,0,0,0,6.2,5.26,5.26,0,0,0,1.78-.31Z"/><path class="cls-5" d="M355.37,126.88c0,3.09-1.87,5-4.63,5s-4.44-2.11-4.44-4.8,1.8-5,4.59-5S355.37,124.27,355.37,126.88Zm-6.82.12c0,1.85.87,3.16,2.3,3.16s2.27-1.38,2.27-3.21-.81-3.15-2.28-3.15S348.55,125.17,348.55,127Z"/><path class="cls-5" d="M365.41,126.88c0,3.09-1.87,5-4.63,5s-4.44-2.11-4.44-4.8,1.8-5,4.59-5S365.41,124.27,365.41,126.88Zm-6.82.12c0,1.85.87,3.16,2.3,3.16s2.27-1.38,2.27-3.21-.82-3.15-2.29-3.15S358.59,125.17,358.59,127Z"/><path class="cls-5" d="M366.81,122.25H369v7.65h3.76v1.8h-5.9Z"/><path class="cls-5" d="M377.8,131.7l-2.24-9.45h2.28l.71,3.9c.22,1.12.41,2.34.57,3.29h0c.16-1,.38-2.16.62-3.32l.8-3.87h2.27l.75,4c.21,1.11.37,2.12.51,3.17h0c.14-1.05.35-2.16.54-3.28l.77-3.87h2.17l-2.43,9.45h-2.32l-.79-4.07a29.21,29.21,0,0,1-.45-2.91h0c-.17,1.07-.32,2-.55,2.91l-.89,4.07Z"/><path class="cls-5" d="M390.15,129.27l-.67,2.43h-2.22l2.89-9.45H393l2.93,9.45h-2.3l-.73-2.43Zm2.39-1.59-.59-2c-.16-.56-.33-1.26-.47-1.82h0c-.14.56-.28,1.28-.43,1.82l-.56,2Z"/><path class="cls-5" d="M397.79,124.05h-2.53v-1.8h7.25v1.8h-2.58v7.65h-2.14Z"/><path class="cls-5" d="M409.26,127.7h-3.48V130h3.88v1.75h-6v-9.45h5.83V124h-3.69v2h3.48Z"/><path class="cls-5" d="M411.12,122.38a19.08,19.08,0,0,1,2.84-.19,4.82,4.82,0,0,1,3.05.74,2.39,2.39,0,0,1,.87,2,2.51,2.51,0,0,1-1.66,2.33v0a2.42,2.42,0,0,1,1.26,1.77,25.77,25.77,0,0,0,.77,2.66h-2.19a12.3,12.3,0,0,1-.66-2.2c-.25-1.18-.65-1.5-1.52-1.52h-.65v3.72h-2.11Zm2.11,4.06h.84c1.07,0,1.7-.53,1.7-1.36s-.59-1.3-1.57-1.31a5.23,5.23,0,0,0-1,.07Z"/><path class="cls-5" d="M236.82,225.32h-3.47v2.25h3.88v1.75h-6v-9.44H237v1.75h-3.68v2h3.47Z"/><path class="cls-5" d="M243.65,229.32l-.85-1.71c-.35-.66-.57-1.15-.84-1.7h0c-.19.55-.43,1-.73,1.7l-.78,1.71H238l2.73-4.78-2.63-4.66h2.45l.83,1.72c.28.57.49,1,.71,1.57h0c.22-.61.41-1,.64-1.57l.8-1.72H246l-2.66,4.6,2.8,4.84Z"/><path class="cls-5" d="M249.17,221.67h-2.54v-1.79h7.26v1.79h-2.58v7.65h-2.14Z"/><path class="cls-5" d="M260.64,225.32h-3.48v2.25H261v1.75h-6v-9.44h5.83v1.75h-3.69v2h3.48Z"/><path class="cls-5" d="M262.5,220a19,19,0,0,1,2.84-.19,4.82,4.82,0,0,1,3.05.74,2.39,2.39,0,0,1,.87,2,2.5,2.5,0,0,1-1.67,2.33v0a2.4,2.4,0,0,1,1.27,1.77,25.77,25.77,0,0,0,.77,2.66h-2.19a12.3,12.3,0,0,1-.66-2.2c-.25-1.18-.66-1.5-1.52-1.52h-.65v3.72H262.5Zm2.11,4.06h.84c1.07,0,1.7-.53,1.7-1.35s-.59-1.31-1.57-1.32a5.23,5.23,0,0,0-1,.07Z"/><path class="cls-5" d="M270.8,229.32v-9.44h2.49l2,3.45a28.21,28.21,0,0,1,1.54,3.24h0a35.12,35.12,0,0,1-.18-3.94v-2.75h2v9.44h-2.24l-2-3.65a31.21,31.21,0,0,1-1.64-3.33h-.05c.06,1.25.09,2.58.09,4.12v2.85Z"/><path class="cls-5" d="M282.66,226.89l-.68,2.43h-2.21l2.89-9.44h2.8l2.93,9.44h-2.3l-.73-2.43Zm2.39-1.59-.59-2c-.16-.56-.33-1.26-.47-1.82h0c-.14.56-.28,1.28-.43,1.82l-.57,2Z"/><path class="cls-5" d="M289.64,219.88h2.14v7.64h3.76v1.8h-5.9Z"/><path class="cls-5" d="M241.77,245.85a6.06,6.06,0,0,1-2.43.41c-3.26,0-4.94-2-4.94-4.72a4.81,4.81,0,0,1,5.15-5,5.69,5.69,0,0,1,2.33.42l-.44,1.7a4.43,4.43,0,0,0-1.79-.35,3.1,3.1,0,0,0,0,6.2,5.26,5.26,0,0,0,1.78-.31Z"/><path class="cls-5" d="M251.38,241.3c0,3.09-1.87,5-4.63,5s-4.44-2.11-4.44-4.8,1.8-4.95,4.59-4.95S251.38,238.69,251.38,241.3Zm-6.82.12c0,1.85.87,3.16,2.3,3.16s2.27-1.38,2.27-3.21-.81-3.15-2.28-3.15S244.56,239.59,244.56,241.42Z"/><path class="cls-5" d="M261.42,241.3c0,3.09-1.88,5-4.63,5s-4.44-2.11-4.44-4.8,1.8-4.95,4.59-4.95S261.42,238.69,261.42,241.3Zm-6.82.12c0,1.85.87,3.16,2.3,3.16s2.27-1.38,2.27-3.21-.82-3.15-2.29-3.15S254.6,239.59,254.6,241.42Z"/><path class="cls-5" d="M262.82,236.67H265v7.65h3.75v1.8h-5.89Z"/><path class="cls-5" d="M272.11,236.67v9.45H270v-9.45Z"/><path class="cls-5" d="M274,246.12v-9.45h2.5l2,3.46a28.21,28.21,0,0,1,1.54,3.24h0a35.12,35.12,0,0,1-.18-3.94v-2.76h2v9.45h-2.24l-2-3.65a33.23,33.23,0,0,1-1.64-3.33h0c.05,1.25.08,2.58.08,4.12v2.85Z"/><path class="cls-5" d="M291.51,245.68a10.43,10.43,0,0,1-3.15.53,5.26,5.26,0,0,1-3.84-1.27,4.54,4.54,0,0,1-1.33-3.43c0-3.14,2.29-4.93,5.39-4.93a6.57,6.57,0,0,1,2.62.46l-.45,1.71a5.13,5.13,0,0,0-2.2-.41,3.08,3.08,0,0,0-.15,6.15,2.74,2.74,0,0,0,1.05-.14v-2H288v-1.67h3.52Z"/><path class="cls-5" d="M239,260.72a5.46,5.46,0,0,0,2.36.58c1,0,1.5-.4,1.5-1s-.45-.92-1.58-1.33c-1.57-.54-2.59-1.41-2.59-2.79,0-1.61,1.34-2.84,3.57-2.84a5.67,5.67,0,0,1,2.41.48l-.48,1.72a4.51,4.51,0,0,0-2-.45c-.93,0-1.37.42-1.37.91s.53.87,1.75,1.33c1.66.62,2.45,1.49,2.45,2.82,0,1.58-1.22,2.93-3.81,2.93a6.1,6.1,0,0,1-2.68-.58Z"/><path class="cls-5" d="M248.67,262.92v-3.87l-3-5.58h2.44l1,2.27c.3.69.49,1.19.73,1.81h0c.21-.59.43-1.13.71-1.81l1-2.27h2.39L250.8,259v3.94Z"/><path class="cls-5" d="M254.59,260.72a5.55,5.55,0,0,0,2.37.58c1,0,1.5-.4,1.5-1s-.45-.92-1.58-1.33c-1.57-.54-2.6-1.41-2.6-2.79,0-1.61,1.35-2.84,3.58-2.84a5.67,5.67,0,0,1,2.41.48l-.48,1.72a4.53,4.53,0,0,0-2-.45c-.92,0-1.37.42-1.37.91s.53.87,1.75,1.33c1.67.62,2.45,1.49,2.45,2.82,0,1.58-1.21,2.93-3.81,2.93a6.08,6.08,0,0,1-2.67-.58Z"/><path class="cls-5" d="M263.9,255.27h-2.53v-1.8h7.25v1.8h-2.57v7.65H263.9Z"/><path class="cls-5" d="M275.37,258.92H271.9v2.25h3.88v1.75h-6v-9.45h5.83v1.76H271.9v2h3.47Z"/><path class="cls-5" d="M285.21,259.3c0-1.13-.08-2.51-.08-3.88h0c-.3,1.21-.69,2.55-1,3.66l-1.15,3.68h-1.67l-1-3.65c-.31-1.11-.63-2.46-.85-3.69h0c-.06,1.28-.1,2.73-.17,3.91l-.17,3.59h-2l.6-9.45h2.84l.93,3.16c.29,1.09.59,2.27.8,3.37h0c.27-1.09.59-2.34.9-3.39l1-3.14h2.79l.52,9.45h-2.09Z"/><path class="cls-5" d="M371.38,335.62v3.63h3.51v-3.63H377v9.44h-2.13v-3.95h-3.51v3.95h-2.15v-9.44Z"/><path class="cls-5" d="M387.52,340.24c0,3.1-1.88,5-4.64,5s-4.44-2.11-4.44-4.8,1.81-5,4.6-5S387.52,337.64,387.52,340.24Zm-6.82.13c0,1.85.87,3.15,2.3,3.15s2.27-1.37,2.27-3.21-.82-3.15-2.29-3.15S380.7,338.53,380.7,340.37Z"/><path class="cls-5" d="M390.35,337.41h-2.54v-1.79h7.26v1.79h-2.58v7.65h-2.14Z"/><path class="cls-5" d="M400,345.06l-2.24-9.44h2.29l.71,3.89c.21,1.12.41,2.34.56,3.29h0c.15-1,.38-2.15.62-3.32l.79-3.86h2.27l.76,4c.21,1.1.36,2.11.5,3.16h0c.14-1.05.35-2.16.55-3.28l.77-3.86h2.17l-2.44,9.44h-2.31l-.8-4.06c-.18-1-.33-1.84-.45-2.92h0c-.17,1.07-.33,2-.55,2.92l-.9,4.06Z"/><path class="cls-5" d="M412.38,342.64l-.67,2.42H409.5l2.88-9.44h2.8l2.93,9.44h-2.3l-.73-2.42Zm2.4-1.6-.59-2c-.17-.56-.34-1.27-.48-1.83h0c-.14.56-.28,1.28-.43,1.83l-.56,2Z"/><path class="cls-5" d="M420,337.41h-2.54v-1.79h7.26v1.79h-2.58v7.65H420Z"/><path class="cls-5" d="M431.49,341.07H428v2.24h3.88v1.75h-6v-9.44h5.82v1.75H428v2h3.47Z"/><path class="cls-5" d="M433.35,335.74a19.23,19.23,0,0,1,2.85-.19,4.82,4.82,0,0,1,3.05.74,2.41,2.41,0,0,1,.87,2,2.5,2.5,0,0,1-1.67,2.32v0a2.39,2.39,0,0,1,1.26,1.77c.3,1.06.59,2.29.77,2.66H438.3a11.47,11.47,0,0,1-.66-2.2c-.25-1.18-.66-1.5-1.53-1.51h-.64v3.71h-2.12Zm2.12,4.07h.84c1.06,0,1.69-.54,1.69-1.36s-.59-1.3-1.57-1.32a5.09,5.09,0,0,0-1,.07Z"/><path class="cls-5" d="M1002.23,308.19h-135a13.52,13.52,0,0,1-13.5-13.5V224.4a13.52,13.52,0,0,1,13.5-13.5h135a13.52,13.52,0,0,1,13.5,13.5v70.29A13.52,13.52,0,0,1,1002.23,308.19Zm-135-94.29a10.51,10.51,0,0,0-10.5,10.5v70.29a10.51,10.51,0,0,0,10.5,10.5h135a10.51,10.51,0,0,0,10.5-10.5V224.4a10.51,10.51,0,0,0-10.5-10.5Z"/><path class="cls-5" d="M902.27,224.09v3.62h3.52v-3.62h2.13v9.44h-2.13v-3.95h-3.52v3.95h-2.14v-9.44Z"/><path class="cls-5" d="M915.39,229.54h-3.47v2.24h3.88v1.75h-6v-9.44h5.82v1.75h-3.68v2h3.47Z"/><path class="cls-5" d="M919.45,231.11l-.67,2.42h-2.21l2.88-9.44h2.8l2.93,9.44h-2.3l-.73-2.42Zm2.4-1.6-.59-2c-.17-.56-.34-1.26-.48-1.82h0c-.14.56-.28,1.28-.43,1.82l-.56,2Z"/><path class="cls-5" d="M927.1,225.88h-2.54v-1.79h7.26v1.79h-2.58v7.65H927.1Z"/><path class="cls-5" d="M935.77,224.09h2.15v7.65h3.75v1.79h-5.9Z"/><path class="cls-5" d="M951,228.71c0,3.1-1.88,5-4.64,5s-4.44-2.11-4.44-4.8,1.81-4.95,4.6-4.95S951,226.1,951,228.71Zm-6.82.13c0,1.84.87,3.15,2.3,3.15s2.26-1.37,2.26-3.21-.81-3.15-2.28-3.15S944.22,227,944.22,228.84Z"/><path class="cls-5" d="M954.41,231.11l-.67,2.42h-2.22l2.89-9.44h2.8l2.93,9.44h-2.3l-.73-2.42Zm2.39-1.6-.58-2c-.17-.56-.34-1.26-.48-1.82h0c-.14.56-.28,1.28-.43,1.82l-.56,2Z"/><path class="cls-5" d="M961.39,224.21a20.07,20.07,0,0,1,2.89-.19,6.07,6.07,0,0,1,3.87,1,4.16,4.16,0,0,1,1.59,3.55,4.8,4.8,0,0,1-1.57,3.83,6.79,6.79,0,0,1-4.35,1.22,18.67,18.67,0,0,1-2.43-.14Zm2.15,7.71a4.06,4.06,0,0,0,.74,0c1.93,0,3.19-1.05,3.19-3.31a2.7,2.7,0,0,0-3-3,4.61,4.61,0,0,0-1,.08Z"/><path class="cls-5" d="M911,252.43l-.91,2.76h-1.17l3-8.76h1.36l3,8.76h-1.21l-.94-2.76Zm2.87-.88L913,249c-.19-.58-.32-1.1-.45-1.6h0c-.13.52-.27,1-.44,1.58l-.86,2.54Z"/><path class="cls-5" d="M918.79,255.19l-2.86-8.76h1.22l1.37,4.31c.38,1.19.7,2.25.94,3.28h0c.25-1,.61-2.12,1-3.26l1.48-4.33h1.21L920,255.19Z"/><path class="cls-5" d="M925.25,246.43v8.76h-1.13v-8.76Z"/><path class="cls-5" d="M934.72,250.72c0,3-1.84,4.61-4.07,4.61s-3.94-1.79-3.94-4.44,1.73-4.61,4.07-4.61S934.72,248.12,934.72,250.72Zm-6.8.14c0,1.87,1,3.55,2.79,3.55s2.81-1.65,2.81-3.64c0-1.74-.91-3.56-2.79-3.56S927.92,248.94,927.92,250.86Z"/><path class="cls-5" d="M936.19,255.19v-8.76h1.23l2.81,4.43a23.89,23.89,0,0,1,1.57,2.85l0,0c-.11-1.17-.13-2.23-.13-3.6v-3.66h1.06v8.76h-1.14l-2.78-4.45a27,27,0,0,1-1.64-2.92h0c.07,1.11.09,2.16.09,3.61v3.75Z"/><path class="cls-5" d="M945.87,246.43v8.76h-1.13v-8.76Z"/><path class="cls-5" d="M954,254.9a5.58,5.58,0,0,1-2.31.42,4.09,4.09,0,0,1-4.33-4.43,4.36,4.36,0,0,1,4.57-4.61,4.8,4.8,0,0,1,2.08.39l-.27.93a4.09,4.09,0,0,0-1.77-.37,3.27,3.27,0,0,0-3.42,3.62,3.19,3.19,0,0,0,3.37,3.52,4.58,4.58,0,0,0,1.85-.36Z"/><path class="cls-5" d="M955.23,253.81a4,4,0,0,0,2,.57c1.16,0,1.83-.61,1.83-1.49s-.47-1.29-1.65-1.74c-1.43-.51-2.31-1.25-2.31-2.49s1.13-2.38,2.83-2.38a4,4,0,0,1,1.94.43l-.32.93a3.41,3.41,0,0,0-1.66-.42c-1.19,0-1.65.71-1.65,1.31,0,.82.53,1.22,1.74,1.69,1.48.57,2.24,1.29,2.24,2.58s-1,2.52-3.07,2.52a4.56,4.56,0,0,1-2.24-.56Z"/><path class="cls-5" d="M902.52,270.46h-3.4v3.16h3.79v.95H898v-8.76h4.73v.95h-3.6v2.77h3.4Z"/><path class="cls-5" d="M909.18,274.57l-1.12-1.93c-.45-.75-.74-1.23-1-1.73h0c-.25.5-.49,1-.95,1.74L905,274.57h-1.3l2.68-4.43-2.58-4.33h1.32l1.15,2.05c.33.58.57,1,.81,1.49h0c.24-.52.47-.93.79-1.49l1.2-2.05h1.3l-2.67,4.26,2.73,4.5Z"/><path class="cls-5" d="M911.8,265.91a13.54,13.54,0,0,1,2.18-.16,3.64,3.64,0,0,1,2.45.72,2.38,2.38,0,0,1,.77,1.84,2.56,2.56,0,0,1-.68,1.87,4.39,4.39,0,0,1-3.58.88v3.51H911.8Zm1.14,4.23a3.94,3.94,0,0,0,.93.09c1.37,0,2.2-.66,2.2-1.87s-.82-1.72-2.07-1.72a4.82,4.82,0,0,0-1.06.09Z"/><path class="cls-5" d="M923.26,270.46h-3.41v3.16h3.8v.95h-4.93v-8.76h4.73v.95h-3.6v2.77h3.41Z"/><path class="cls-5" d="M925.12,265.93a11.51,11.51,0,0,1,2.17-.18,3.58,3.58,0,0,1,2.53.71,2.19,2.19,0,0,1,.69,1.66,2.3,2.3,0,0,1-1.65,2.24v0a2.18,2.18,0,0,1,1.29,1.77,13.76,13.76,0,0,0,.67,2.4h-1.17a11.84,11.84,0,0,1-.58-2.09c-.26-1.21-.73-1.66-1.76-1.7h-1.06v3.79h-1.13Zm1.13,4h1.15c1.21,0,2-.66,2-1.67s-.82-1.62-2-1.63a4.81,4.81,0,0,0-1.12.1Z"/><path class="cls-5" d="M933.24,265.81v8.76h-1.13v-8.76Z"/><path class="cls-5" d="M942.6,270.72c-.06-1.22-.14-2.69-.13-3.78h0c-.3,1-.66,2.12-1.1,3.33l-1.55,4.25h-.86l-1.41-4.17c-.42-1.24-.77-2.37-1-3.41h0c0,1.09-.1,2.56-.17,3.88l-.24,3.75H935l.61-8.76H937l1.49,4.24c.37,1.08.67,2,.89,2.95h0c.22-.88.53-1.85.92-2.95l1.56-4.24h1.44l.55,8.76h-1.11Z"/><path class="cls-5" d="M950.21,270.46H946.8v3.16h3.8v.95h-4.93v-8.76h4.73v.95h-3.6v2.77h3.41Z"/><path class="cls-5" d="M952.07,274.57v-8.76h1.23l2.81,4.43a23.89,23.89,0,0,1,1.57,2.85h0c-.11-1.17-.13-2.24-.13-3.6v-3.67h1.06v8.76H957.5l-2.78-4.44a28.12,28.12,0,0,1-1.64-2.93h0c.07,1.11.09,2.16.09,3.62v3.74Z"/><path class="cls-5" d="M962.28,266.77h-2.66v-1h6.48v1h-2.67v7.8h-1.15Z"/><path class="cls-5" d="M966.85,273.19a3.88,3.88,0,0,0,2,.58c1.16,0,1.84-.61,1.84-1.5s-.47-1.29-1.65-1.74c-1.43-.51-2.32-1.25-2.32-2.48s1.13-2.38,2.84-2.38a4,4,0,0,1,1.93.43l-.31.92a3.41,3.41,0,0,0-1.66-.42c-1.2,0-1.65.72-1.65,1.32,0,.82.53,1.22,1.74,1.69,1.48.57,2.23,1.28,2.23,2.57s-1,2.52-3.06,2.52a4.45,4.45,0,0,1-2.24-.56Z"/><path class="cls-5" d="M884.87,291.2,884,294h-1.17l3-8.76h1.36l3,8.76h-1.21L888,291.2Zm2.87-.88-.86-2.52c-.19-.58-.32-1.1-.45-1.6h0c-.13.52-.27,1.05-.44,1.58l-.86,2.54Z"/><path class="cls-5" d="M892.54,285.2V294h-1.13V285.2Z"/><path class="cls-5" d="M894.51,285.31a12.62,12.62,0,0,1,2.18-.18,3.56,3.56,0,0,1,2.53.72,2.18,2.18,0,0,1,.69,1.66,2.31,2.31,0,0,1-1.65,2.24v0a2.19,2.19,0,0,1,1.28,1.77,14.65,14.65,0,0,0,.68,2.41h-1.17a11.18,11.18,0,0,1-.58-2.1c-.26-1.2-.73-1.66-1.76-1.7h-1.06V294h-1.14Zm1.14,4h1.15c1.21,0,2-.66,2-1.66s-.82-1.63-2-1.64a4.77,4.77,0,0,0-1.11.1Z"/><path class="cls-5" d="M910.39,293.67a5.6,5.6,0,0,1-2.32.42,4.1,4.1,0,0,1-4.33-4.44,4.36,4.36,0,0,1,4.58-4.6,4.8,4.8,0,0,1,2.08.39l-.27.93a4.09,4.09,0,0,0-1.77-.37c-2.05,0-3.42,1.31-3.42,3.62a3.18,3.18,0,0,0,3.37,3.52,4.33,4.33,0,0,0,1.84-.37Z"/><path class="cls-5" d="M919,289.49c0,3-1.83,4.61-4.07,4.61s-3.94-1.79-3.94-4.45,1.73-4.6,4.07-4.6S919,286.89,919,289.49Zm-6.8.14c0,1.87,1,3.55,2.8,3.55s2.8-1.65,2.8-3.64c0-1.74-.91-3.56-2.79-3.56S912.22,287.7,912.22,289.63Z"/><path class="cls-5" d="M920.49,294V285.2h1.23l2.81,4.43a23.89,23.89,0,0,1,1.57,2.85l0,0c-.1-1.17-.13-2.23-.13-3.6V285.2h1.07V294h-1.15l-2.78-4.45a27,27,0,0,1-1.64-2.92h0c.07,1.1.09,2.16.09,3.61V294Z"/><path class="cls-5" d="M929,285.31a16.83,16.83,0,0,1,2.41-.18,5.06,5.06,0,0,1,3.55,1.09,4,4,0,0,1,1.23,3.15,4.61,4.61,0,0,1-1.26,3.4A5.39,5.39,0,0,1,931.1,294a17,17,0,0,1-2.06-.11Zm1.13,7.75a7.44,7.44,0,0,0,1.15.07,3.37,3.37,0,0,0,3.73-3.72c0-2.07-1.16-3.38-3.55-3.38a6.93,6.93,0,0,0-1.33.11Z"/><path class="cls-5" d="M938.83,285.2V294H937.7V285.2Z"/><path class="cls-5" d="M942.47,286.16h-2.66v-1h6.48v1h-2.67V294h-1.15Z"/><path class="cls-5" d="M948.4,285.2V294h-1.13V285.2Z"/><path class="cls-5" d="M957.86,289.49c0,3-1.83,4.61-4.07,4.61s-3.94-1.79-3.94-4.45,1.73-4.6,4.07-4.6S957.86,286.89,957.86,289.49Zm-6.8.14c0,1.87,1,3.55,2.8,3.55s2.81-1.65,2.81-3.64c0-1.74-.91-3.56-2.8-3.56S951.06,287.7,951.06,289.63Z"/><path class="cls-5" d="M959.33,294V285.2h1.24l2.81,4.43a27.11,27.11,0,0,1,1.57,2.85l0,0c-.1-1.17-.13-2.23-.13-3.6V285.2h1.07V294h-1.14L962,289.51a26.89,26.89,0,0,1-1.63-2.92h0c.06,1.1.09,2.16.09,3.61V294Z"/><path class="cls-5" d="M969,285.2V294h-1.13V285.2Z"/><path class="cls-5" d="M971,294V285.2h1.24l2.81,4.43a25.4,25.4,0,0,1,1.57,2.85l0,0c-.1-1.17-.13-2.23-.13-3.6V285.2h1.07V294h-1.14l-2.79-4.45a26.89,26.89,0,0,1-1.63-2.92h0c.06,1.1.09,2.16.09,3.61V294Z"/><path class="cls-5" d="M986.21,293.57a8.14,8.14,0,0,1-2.69.48,4.12,4.12,0,0,1-4.49-4.42,4.39,4.39,0,0,1,4.74-4.53,5.45,5.45,0,0,1,2.19.41l-.28.92a4.49,4.49,0,0,0-1.93-.38,3.28,3.28,0,0,0-3.53,3.53,3.21,3.21,0,0,0,3.38,3.53,3.72,3.72,0,0,0,1.51-.23v-2.61h-1.78v-.91h2.88Z"/><path class="cls-4" d="M687.31,103.66V174c0,4,12.22,7.17,27.3,7.17s27.29-3.21,27.29-7.17V103.66Z"/><path class="cls-5" d="M714.61,181.65c-13.67,0-27.8-2.87-27.8-7.67V103.16H742.4V174C742.4,178.78,728.27,181.65,714.61,181.65Zm-26.8-77.49V174c0,3.22,10.77,6.67,26.8,6.67S741.4,177.2,741.4,174V104.16Z"/><ellipse class="cls-6" cx="714.61" cy="103.66" rx="27.3" ry="7.17"/><path class="cls-5" d="M714.61,111.33c-13.67,0-27.8-2.87-27.8-7.67S700.94,96,714.61,96s27.79,2.87,27.79,7.68S728.27,111.33,714.61,111.33Zm0-14.35c-16,0-26.8,3.45-26.8,6.68s10.77,6.67,26.8,6.67,26.79-3.45,26.79-6.67S730.64,97,714.61,97Z"/><path class="cls-5" d="M329.06,386.38h-132V91.26h132Zm-129-3h126V94.26h-126Z"/></g><g id="Layer_2" data-name="Layer 2"><path class="cls-2" d="M816.12,132a18.19,18.19,0,1,0-17.55,13.45h27.89V132Z"/><path class="cls-5" d="M828,146.91H798.57A19.77,19.77,0,1,1,818,130.46h10Zm-29.39-36.39a16.7,16.7,0,1,0,0,33.39H825V133.46h-10.8l.51-1.89a16.53,16.53,0,0,0,.6-4.36A16.71,16.71,0,0,0,798.57,110.52Z"/><path class="cls-5" d="M184.63,500.44a16.83,16.83,0,0,1,2.41-.18,5.06,5.06,0,0,1,3.55,1.09,4,4,0,0,1,1.23,3.15,4.61,4.61,0,0,1-1.26,3.4,5.39,5.39,0,0,1-3.87,1.27,17.16,17.16,0,0,1-2.06-.11Zm1.13,7.75a7.44,7.44,0,0,0,1.15.07,3.37,3.37,0,0,0,3.73-3.72c0-2.07-1.16-3.38-3.55-3.38a7,7,0,0,0-1.33.11Z"/><path class="cls-5" d="M193.94,506.15a2,2,0,0,0,2.16,2.18,4.17,4.17,0,0,0,1.74-.32l.2.82a5.2,5.2,0,0,1-2.1.39,2.92,2.92,0,0,1-3.09-3.17c0-1.9,1.12-3.4,3-3.4,2,0,2.6,1.81,2.6,3a5,5,0,0,1,0,.53Zm3.35-.82a1.62,1.62,0,0,0-1.58-1.86,1.9,1.9,0,0,0-1.76,1.86Z"/><path class="cls-5" d="M199.66,507.92a3,3,0,0,0,1.51.45c.83,0,1.22-.41,1.22-.93s-.32-.85-1.17-1.16c-1.13-.4-1.66-1-1.66-1.78a1.94,1.94,0,0,1,2.17-1.85,3.11,3.11,0,0,1,1.54.39l-.28.83a2.52,2.52,0,0,0-1.29-.36c-.67,0-1,.39-1,.86s.38.75,1.19,1.06c1.1.42,1.66,1,1.66,1.9,0,1.11-.86,1.89-2.36,1.89a3.62,3.62,0,0,1-1.77-.43Z"/><path class="cls-5" d="M206.34,501v1.81H208v.87h-1.64v3.39c0,.78.22,1.22.86,1.22a2.44,2.44,0,0,0,.66-.08l.06.86a2.89,2.89,0,0,1-1,.16,1.58,1.58,0,0,1-1.23-.48,2.32,2.32,0,0,1-.45-1.64v-3.43h-1v-.87h1v-1.51Z"/><path class="cls-5" d="M210.54,501a.71.71,0,0,1-1.42,0,.7.7,0,0,1,.72-.72A.68.68,0,0,1,210.54,501Zm-1.27,8.06V502.8h1.14v6.29Z"/><path class="cls-5" d="M212.31,504.5c0-.65,0-1.18-.05-1.7h1l.07,1h0a2.31,2.31,0,0,1,2.08-1.19c.87,0,2.23.52,2.23,2.68v3.76h-1.15v-3.63c0-1-.38-1.86-1.45-1.86a1.63,1.63,0,0,0-1.54,1.17,1.69,1.69,0,0,0-.08.53v3.79h-1.14Z"/><path class="cls-5" d="M219.77,502.8l1.38,3.71c.14.42.3.91.4,1.29h0c.12-.38.25-.86.4-1.31l1.25-3.69h1.21l-1.72,4.48c-.82,2.16-1.38,3.26-2.16,3.94a3,3,0,0,1-1.4.74l-.28-1a3,3,0,0,0,1-.56,3.54,3.54,0,0,0,1-1.27.88.88,0,0,0,.09-.28,1.21,1.21,0,0,0-.08-.3l-2.33-5.79Z"/><path class="cls-5" d="M228.27,500.33h1.13v7.81h3.75v.95h-4.88Z"/><path class="cls-5" d="M237.85,509.09l-.09-.8h0a2.32,2.32,0,0,1-1.92.94,1.79,1.79,0,0,1-1.92-1.81c0-1.52,1.35-2.35,3.78-2.34V505a1.29,1.29,0,0,0-1.43-1.45,3.09,3.09,0,0,0-1.64.47l-.26-.76a3.91,3.91,0,0,1,2.07-.56c1.92,0,2.39,1.32,2.39,2.58v2.35a9.8,9.8,0,0,0,.1,1.51Zm-.16-3.21c-1.25,0-2.67.19-2.67,1.41a1,1,0,0,0,1.08,1.1,1.56,1.56,0,0,0,1.52-1.06,1.1,1.1,0,0,0,.07-.36Z"/><path class="cls-5" d="M240.58,509.09c0-.43.06-1.07.06-1.63v-7.6h1.13v3.95h0a2.36,2.36,0,0,1,2.15-1.16c1.56,0,2.66,1.3,2.65,3.21,0,2.25-1.42,3.37-2.82,3.37a2.25,2.25,0,0,1-2.11-1.18h0l-.05,1Zm1.19-2.52a1.84,1.84,0,0,0,0,.41,1.77,1.77,0,0,0,1.72,1.34c1.19,0,1.91-1,1.91-2.42,0-1.26-.65-2.34-1.88-2.34a1.83,1.83,0,0,0-1.74,1.41,2.72,2.72,0,0,0-.06.46Z"/><path class="cls-5" d="M325.94,455.1h1.13v7.82h3.74v.95h-4.87Z"/><path class="cls-5" d="M337.55,460.67a3.08,3.08,0,0,1-3.13,3.34,3,3,0,0,1-3-3.24,3.08,3.08,0,0,1,3.12-3.34A3,3,0,0,1,337.55,460.67Zm-5,.06c0,1.38.79,2.42,1.91,2.42s1.91-1,1.91-2.44c0-1.07-.53-2.42-1.89-2.42S332.56,459.54,332.56,460.73Z"/><path class="cls-5" d="M339.35,457.57l.84,3.2c.18.7.35,1.35.46,2h0c.15-.63.35-1.31.56-2l1-3.21h1l1,3.15c.23.75.41,1.42.56,2h0a20.48,20.48,0,0,1,.49-2l.89-3.16h1.13l-2,6.3h-1l-1-3c-.22-.7-.4-1.32-.56-2.07h0a19.82,19.82,0,0,1-.57,2.09l-1,3h-1l-1.9-6.3Z"/><path class="cls-5" d="M352.39,456.06h-2.66v-1h6.49v1h-2.68v7.81h-1.15Z"/><path class="cls-5" d="M356.87,460.93a2,2,0,0,0,2.15,2.18,4.22,4.22,0,0,0,1.75-.32l.19.82a5.11,5.11,0,0,1-2.09.39,2.93,2.93,0,0,1-3.1-3.18c0-1.9,1.12-3.39,3-3.39a2.67,2.67,0,0,1,2.6,3,5.05,5.05,0,0,1,0,.54Zm3.35-.82a1.63,1.63,0,0,0-1.59-1.86,1.89,1.89,0,0,0-1.75,1.86Z"/><path class="cls-5" d="M362.74,459.28c0-.65,0-1.19-.05-1.71h1l.05,1h0a2.17,2.17,0,0,1,2-1.16,1.85,1.85,0,0,1,1.78,1.26h0a2.75,2.75,0,0,1,.71-.82,2.16,2.16,0,0,1,1.39-.44c.83,0,2.07.55,2.07,2.73v3.71h-1.12V460.3c0-1.21-.45-1.93-1.37-1.93a1.47,1.47,0,0,0-1.35,1,1.89,1.89,0,0,0-.09.57v3.89h-1.12v-3.78c0-1-.44-1.72-1.31-1.72a1.56,1.56,0,0,0-1.42,1.14,1.69,1.69,0,0,0-.09.56v3.8h-1.12Z"/><path class="cls-5" d="M373.58,459.63c0-.81,0-1.46-.05-2.06h1l.05,1.08h0a2.46,2.46,0,0,1,2.23-1.22c1.52,0,2.67,1.29,2.67,3.2,0,2.26-1.38,3.38-2.86,3.38a2.23,2.23,0,0,1-1.94-1h0v3.42h-1.13Zm1.13,1.67a2.23,2.23,0,0,0,.06.47,1.74,1.74,0,0,0,1.71,1.34c1.21,0,1.91-1,1.91-2.43,0-1.26-.66-2.34-1.87-2.34a1.83,1.83,0,0,0-1.73,1.42,1.77,1.77,0,0,0-.08.46Z"/><path class="cls-5" d="M381.62,460.93a2,2,0,0,0,2.16,2.18,4.2,4.2,0,0,0,1.74-.32l.19.82a5.11,5.11,0,0,1-2.09.39,2.92,2.92,0,0,1-3.09-3.18c0-1.9,1.11-3.39,3-3.39a2.67,2.67,0,0,1,2.6,3,5.05,5.05,0,0,1,0,.54Zm3.35-.82a1.63,1.63,0,0,0-1.58-1.86,1.89,1.89,0,0,0-1.76,1.86Z"/><path class="cls-5" d="M387.49,459.54c0-.75,0-1.38-.05-2h1l0,1.24h0a1.89,1.89,0,0,1,1.74-1.38,1.06,1.06,0,0,1,.33,0v1.08a1.51,1.51,0,0,0-.39,0,1.59,1.59,0,0,0-1.53,1.47,2.76,2.76,0,0,0-.06.53v3.36h-1.13Z"/><path class="cls-5" d="M395.16,463.87l-.09-.8h0a2.32,2.32,0,0,1-1.92.94,1.79,1.79,0,0,1-1.92-1.81c0-1.52,1.35-2.35,3.78-2.34v-.13a1.3,1.3,0,0,0-1.43-1.46,3.18,3.18,0,0,0-1.64.47l-.26-.75a3.88,3.88,0,0,1,2.07-.56c1.92,0,2.39,1.31,2.39,2.57v2.36a8.76,8.76,0,0,0,.1,1.51Zm-.17-3.22c-1.24,0-2.66.2-2.66,1.42a1,1,0,0,0,1.08,1.09,1.56,1.56,0,0,0,1.52-1.05,1.18,1.18,0,0,0,.06-.36Z"/><path class="cls-5" d="M399.27,455.77v1.8h1.64v.87h-1.64v3.4c0,.78.22,1.22.86,1.22a2.44,2.44,0,0,0,.66-.08l0,.86a2.79,2.79,0,0,1-1,.16,1.55,1.55,0,0,1-1.23-.49,2.27,2.27,0,0,1-.45-1.63v-3.44h-1v-.87h1v-1.51Z"/><path class="cls-5" d="M407.46,462.15c0,.65,0,1.22.05,1.72h-1l-.07-1h0a2.38,2.38,0,0,1-2.08,1.17c-1,0-2.17-.55-2.17-2.76v-3.68h1.14v3.49c0,1.19.37,2,1.41,2a1.64,1.64,0,0,0,1.5-1,1.59,1.59,0,0,0,.11-.59v-3.86h1.14Z"/><path class="cls-5" d="M409.36,459.54c0-.75,0-1.38-.05-2h1l0,1.24h0a1.88,1.88,0,0,1,1.74-1.38,1.15,1.15,0,0,1,.33,0v1.08a1.56,1.56,0,0,0-.39,0,1.61,1.61,0,0,0-1.54,1.47,4,4,0,0,0-.05.53v3.36h-1.13Z"/><path class="cls-5" d="M414.12,460.93a2,2,0,0,0,2.16,2.18,4.2,4.2,0,0,0,1.74-.32l.19.82a5.11,5.11,0,0,1-2.09.39,2.92,2.92,0,0,1-3.09-3.18c0-1.9,1.11-3.39,3-3.39a2.67,2.67,0,0,1,2.6,3,5.05,5.05,0,0,1,0,.54Zm3.35-.82a1.63,1.63,0,0,0-1.58-1.86,1.89,1.89,0,0,0-1.76,1.86Z"/><path class="cls-5" d="M422.79,455.1h1.13v7.82h3.74v.95h-4.87Z"/><path class="cls-5" d="M434.4,460.67a3.08,3.08,0,0,1-3.14,3.34,3,3,0,0,1-3-3.24,3.08,3.08,0,0,1,3.12-3.34A3,3,0,0,1,434.4,460.67Zm-5,.06c0,1.38.8,2.42,1.92,2.42s1.91-1,1.91-2.44c0-1.07-.54-2.42-1.89-2.42S429.4,459.54,429.4,460.73Z"/><path class="cls-5" d="M441.53,460.67A3.08,3.08,0,0,1,438.4,464a3,3,0,0,1-3-3.24,3.08,3.08,0,0,1,3.12-3.34A3,3,0,0,1,441.53,460.67Zm-5,.06c0,1.38.79,2.42,1.91,2.42s1.91-1,1.91-2.44c0-1.07-.53-2.42-1.88-2.42S436.54,459.54,436.54,460.73Z"/><path class="cls-5" d="M443,459.63c0-.81,0-1.46-.06-2.06h1l.05,1.08h0a2.47,2.47,0,0,1,2.24-1.22c1.52,0,2.66,1.29,2.66,3.2,0,2.26-1.38,3.38-2.86,3.38a2.23,2.23,0,0,1-1.94-1h0v3.42H443Zm1.13,1.67a2.26,2.26,0,0,0,.05.47,1.76,1.76,0,0,0,1.72,1.34c1.2,0,1.91-1,1.91-2.43,0-1.26-.67-2.34-1.88-2.34a1.82,1.82,0,0,0-1.72,1.42,1.77,1.77,0,0,0-.08.46Z"/><path class="cls-5" d="M341.93,479.18a5.62,5.62,0,0,1-2.31.41,4.09,4.09,0,0,1-4.33-4.43,4.36,4.36,0,0,1,4.57-4.6,4.65,4.65,0,0,1,2.08.39l-.27.92a4.25,4.25,0,0,0-1.77-.36,3.26,3.26,0,0,0-3.42,3.61,3.19,3.19,0,0,0,3.37,3.53,4.57,4.57,0,0,0,1.85-.37Z"/><path class="cls-5" d="M348.86,476.27a3.08,3.08,0,0,1-3.13,3.34,3,3,0,0,1-3-3.24,3.07,3.07,0,0,1,3.12-3.34A3,3,0,0,1,348.86,476.27Zm-5,.06c0,1.38.79,2.42,1.91,2.42s1.91-1,1.91-2.44c0-1.07-.53-2.42-1.89-2.42S343.87,475.14,343.87,476.33Z"/><path class="cls-5" d="M356,476.27a3.08,3.08,0,0,1-3.14,3.34,3,3,0,0,1-3-3.24A3.07,3.07,0,0,1,353,473,3,3,0,0,1,356,476.27Zm-5,.06c0,1.38.8,2.42,1.91,2.42s1.92-1,1.92-2.44c0-1.07-.54-2.42-1.89-2.42S351,475.14,351,476.33Z"/><path class="cls-5" d="M357.44,470.23h1.14v9.23h-1.14Z"/><path class="cls-5" d="M364,479.46l-.09-.79h0a2.33,2.33,0,0,1-1.92.94A1.8,1.8,0,0,1,360,477.8c0-1.52,1.35-2.35,3.79-2.34v-.13a1.3,1.3,0,0,0-1.43-1.45,3.17,3.17,0,0,0-1.64.46l-.26-.75a3.87,3.87,0,0,1,2.06-.56c1.93,0,2.4,1.31,2.4,2.57V478a8.57,8.57,0,0,0,.1,1.5Zm-.17-3.21c-1.25,0-2.66.2-2.66,1.42a1,1,0,0,0,1.08,1.09,1.58,1.58,0,0,0,1.52-1.05,1.18,1.18,0,0,0,.06-.36Z"/><path class="cls-5" d="M366.77,474.88c0-.65,0-1.19,0-1.71h1l.07,1h0A2.34,2.34,0,0,1,369.9,473c.88,0,2.23.52,2.23,2.68v3.75H371v-3.62c0-1-.37-1.86-1.45-1.86a1.63,1.63,0,0,0-1.54,1.17,1.7,1.7,0,0,0-.07.53v3.78h-1.15Z"/><path class="cls-5" d="M375.31,471.37v1.8H377V474h-1.64v3.4c0,.78.22,1.22.86,1.22a2.44,2.44,0,0,0,.66-.08l.06.86a2.89,2.89,0,0,1-1,.15,1.55,1.55,0,0,1-1.23-.48,2.27,2.27,0,0,1-.45-1.63V474h-1v-.87h1v-1.5Z"/><path class="cls-5" d="M388.26,480.75c-1.18-.31-2.34-.66-3.35-1a1.63,1.63,0,0,0-.54-.13c-2.08-.08-3.86-1.61-3.86-4.44s1.72-4.61,4.08-4.61,3.93,1.85,3.93,4.43c0,2.25-1,3.7-2.5,4.2v.05c.88.22,1.82.43,2.57.56Zm-.94-5.71c0-1.75-.91-3.56-2.76-3.56s-2.85,1.77-2.84,3.67,1,3.54,2.78,3.54S387.32,477.05,387.32,475Z"/><path class="cls-5" d="M395.25,477.75q0,1,.06,1.71h-1l-.06-1h0a2.36,2.36,0,0,1-2.08,1.17c-1,0-2.17-.55-2.17-2.76v-3.68h1.14v3.49c0,1.19.37,2,1.41,2a1.65,1.65,0,0,0,1.51-1,1.82,1.82,0,0,0,.1-.59v-3.86h1.14Z"/><path class="cls-5" d="M400.64,479.46l-.09-.79h0a2.34,2.34,0,0,1-1.93.94,1.79,1.79,0,0,1-1.92-1.81c0-1.52,1.35-2.35,3.78-2.34v-.13a1.29,1.29,0,0,0-1.43-1.45,3.23,3.23,0,0,0-1.64.46l-.26-.75a3.91,3.91,0,0,1,2.07-.56c1.92,0,2.39,1.31,2.39,2.57V478a8.5,8.5,0,0,0,.11,1.5Zm-.17-3.21c-1.25,0-2.67.2-2.67,1.42a1,1,0,0,0,1.08,1.09,1.56,1.56,0,0,0,1.52-1.05,1.21,1.21,0,0,0,.07-.36Z"/><path class="cls-5" d="M403.42,470.23h1.14v9.23h-1.14Z"/><path class="cls-5" d="M407.76,471.41a.68.68,0,0,1-.73.7.69.69,0,0,1-.69-.7.7.7,0,0,1,.72-.72A.68.68,0,0,1,407.76,471.41Zm-1.27,8v-6.29h1.14v6.29Z"/><path class="cls-5" d="M410.91,471.37v1.8h1.63V474h-1.63v3.4c0,.78.22,1.22.85,1.22a2.58,2.58,0,0,0,.67-.08l.05.86a2.82,2.82,0,0,1-1,.15,1.55,1.55,0,0,1-1.24-.48,2.32,2.32,0,0,1-.44-1.63V474h-1v-.87h1v-1.5Z"/><path class="cls-5" d="M414.36,473.17l1.38,3.72c.15.42.3.91.41,1.29h0c.12-.38.25-.86.4-1.31l1.25-3.7H419l-1.72,4.49c-.81,2.16-1.37,3.26-2.15,3.94a3.11,3.11,0,0,1-1.41.74l-.28-1a3.21,3.21,0,0,0,1-.56,3.5,3.5,0,0,0,1-1.28.84.84,0,0,0,.09-.27.82.82,0,0,0-.08-.3l-2.32-5.8Z"/><path class="cls-5" d="M425.31,470.44a8.6,8.6,0,0,0-1.64,5.32,8.8,8.8,0,0,0,1.64,5.28h-.9a8.42,8.42,0,0,1-1.7-5.28,8.59,8.59,0,0,1,1.7-5.32Z"/><path class="cls-5" d="M430,473.39c0,1.78-.93,2.67-2,2.67s-2-.85-2-2.55.92-2.64,2-2.64S430,471.78,430,473.39Zm-3.09.08c0,1.08.38,1.9,1.09,1.9s1.09-.81,1.09-1.92-.3-1.89-1.09-1.89S426.87,472.41,426.87,473.47Zm1,6.14,5-8.74h.73l-5,8.74Zm7.6-2.72c0,1.78-.93,2.67-2,2.67s-2-.85-2-2.54.93-2.65,2-2.65S435.46,475.28,435.46,476.89Zm-3.09.08c0,1.08.4,1.9,1.1,1.9s1.1-.81,1.1-1.93-.3-1.88-1.1-1.88S432.37,475.9,432.37,477Z"/><path class="cls-5" d="M436.13,481a8.83,8.83,0,0,0,1.63-5.32,8.66,8.66,0,0,0-1.63-5.28H437a8.3,8.3,0,0,1,1.7,5.29A8.48,8.48,0,0,1,437,481Z"/><path class="cls-5" d="M494.46,460c-.06-1.23-.14-2.69-.13-3.79h0c-.29,1-.66,2.12-1.1,3.33l-1.55,4.25h-.86l-1.41-4.17c-.42-1.23-.77-2.37-1-3.41h0c0,1.1-.09,2.56-.17,3.88l-.24,3.76h-1.07l.61-8.77h1.44l1.49,4.24c.37,1.08.67,2,.89,3h0c.22-.88.53-1.84.92-3l1.56-4.24h1.44l.55,8.77h-1.11Z"/><path class="cls-5" d="M503.26,460.67a3.08,3.08,0,0,1-3.13,3.34,3,3,0,0,1-3-3.24,3.07,3.07,0,0,1,3.12-3.34A3,3,0,0,1,503.26,460.67Zm-5,.06c0,1.38.8,2.42,1.91,2.42s1.91-1,1.91-2.44c0-1.07-.53-2.42-1.88-2.42S498.27,459.54,498.27,460.73Z"/><path class="cls-5" d="M510.14,454.63v7.61c0,.56,0,1.2.05,1.63h-1l-.06-1.1h0a2.34,2.34,0,0,1-2.15,1.24c-1.52,0-2.69-1.29-2.69-3.2,0-2.09,1.29-3.38,2.82-3.38a2.08,2.08,0,0,1,1.9,1h0v-3.76Zm-1.14,5.5a2,2,0,0,0-.06-.48,1.67,1.67,0,0,0-1.65-1.32c-1.18,0-1.88,1-1.88,2.43s.62,2.32,1.86,2.32a1.7,1.7,0,0,0,1.67-1.36,1.93,1.93,0,0,0,.06-.49Z"/><path class="cls-5" d="M512.68,460.93a2,2,0,0,0,2.15,2.18,4.22,4.22,0,0,0,1.75-.32l.19.82a5.11,5.11,0,0,1-2.09.39,2.93,2.93,0,0,1-3.1-3.18c0-1.9,1.12-3.39,3-3.39a2.67,2.67,0,0,1,2.6,3,5.05,5.05,0,0,1,0,.54Zm3.35-.82a1.63,1.63,0,0,0-1.59-1.86,1.89,1.89,0,0,0-1.75,1.86Z"/><path class="cls-5" d="M518.55,459.54c0-.75,0-1.38,0-2h1l0,1.24h.05a1.89,1.89,0,0,1,1.74-1.38,1.15,1.15,0,0,1,.33,0v1.08a1.56,1.56,0,0,0-.39,0,1.61,1.61,0,0,0-1.54,1.47,4,4,0,0,0-.05.53v3.36h-1.13Z"/><path class="cls-5" d="M526.22,463.87l-.09-.8h0a2.33,2.33,0,0,1-1.92.94,1.8,1.8,0,0,1-1.93-1.81c0-1.52,1.36-2.35,3.79-2.34v-.13a1.3,1.3,0,0,0-1.43-1.46,3.18,3.18,0,0,0-1.64.47l-.26-.75a3.88,3.88,0,0,1,2.07-.56c1.92,0,2.39,1.31,2.39,2.57v2.36a8.76,8.76,0,0,0,.1,1.51Zm-.17-3.22c-1.25,0-2.66.2-2.66,1.42a1,1,0,0,0,1.08,1.09,1.56,1.56,0,0,0,1.52-1.05,1.18,1.18,0,0,0,.06-.36Z"/><path class="cls-5" d="M530.33,455.77v1.8H532v.87h-1.64v3.4c0,.78.22,1.22.86,1.22a2.44,2.44,0,0,0,.66-.08l0,.86a2.79,2.79,0,0,1-1,.16,1.59,1.59,0,0,1-1.24-.49,2.32,2.32,0,0,1-.44-1.63v-3.44h-1v-.87h1v-1.51Z"/><path class="cls-5" d="M533.81,460.93a2,2,0,0,0,2.16,2.18,4.17,4.17,0,0,0,1.74-.32l.2.82a5.11,5.11,0,0,1-2.09.39,2.93,2.93,0,0,1-3.1-3.18c0-1.9,1.12-3.39,2.95-3.39,2.06,0,2.6,1.81,2.6,3a3.31,3.31,0,0,1,0,.54Zm3.36-.82a1.63,1.63,0,0,0-1.59-1.86,1.88,1.88,0,0,0-1.75,1.86Z"/><path class="cls-5" d="M543.62,456.06H541v-1h6.49v1h-2.68v7.81h-1.14Z"/><path class="cls-5" d="M548.09,460.93a2,2,0,0,0,2.16,2.18,4.2,4.2,0,0,0,1.74-.32l.19.82a5.11,5.11,0,0,1-2.09.39,2.92,2.92,0,0,1-3.09-3.18c0-1.9,1.11-3.39,3-3.39a2.67,2.67,0,0,1,2.6,3,5.05,5.05,0,0,1,0,.54Zm3.35-.82a1.63,1.63,0,0,0-1.59-1.86,1.89,1.89,0,0,0-1.75,1.86Z"/><path class="cls-5" d="M554,459.28c0-.65,0-1.19-.05-1.71h1l.05,1h0a2.17,2.17,0,0,1,2-1.16,1.85,1.85,0,0,1,1.78,1.26h0a2.59,2.59,0,0,1,.7-.82,2.16,2.16,0,0,1,1.39-.44c.83,0,2.07.55,2.07,2.73v3.71h-1.12V460.3c0-1.21-.44-1.93-1.37-1.93a1.48,1.48,0,0,0-1.35,1,1.89,1.89,0,0,0-.09.57v3.89H557.9v-3.78c0-1-.44-1.72-1.31-1.72a1.56,1.56,0,0,0-1.42,1.14,1.69,1.69,0,0,0-.09.56v3.8H554Z"/><path class="cls-5" d="M564.8,459.63c0-.81,0-1.46,0-2.06h1l.05,1.08h0a2.47,2.47,0,0,1,2.23-1.22c1.52,0,2.67,1.29,2.67,3.2,0,2.26-1.38,3.38-2.86,3.38a2.23,2.23,0,0,1-1.94-1h0v3.42H564.8Zm1.14,1.67a2.26,2.26,0,0,0,0,.47,1.75,1.75,0,0,0,1.71,1.34c1.21,0,1.91-1,1.91-2.43,0-1.26-.66-2.34-1.87-2.34a1.83,1.83,0,0,0-1.73,1.42,1.77,1.77,0,0,0-.07.46Z"/><path class="cls-5" d="M572.84,460.93a2,2,0,0,0,2.16,2.18,4.17,4.17,0,0,0,1.74-.32l.19.82a5.11,5.11,0,0,1-2.09.39,2.92,2.92,0,0,1-3.09-3.18c0-1.9,1.11-3.39,3-3.39a2.67,2.67,0,0,1,2.6,3,5.05,5.05,0,0,1,0,.54Zm3.35-.82a1.62,1.62,0,0,0-1.58-1.86,1.89,1.89,0,0,0-1.76,1.86Z"/><path class="cls-5" d="M578.71,459.54c0-.75,0-1.38-.05-2h1l0,1.24h0a1.89,1.89,0,0,1,1.75-1.38,1,1,0,0,1,.32,0v1.08a1.51,1.51,0,0,0-.39,0A1.59,1.59,0,0,0,579.9,460a2.81,2.81,0,0,0,0,.53v3.36h-1.14Z"/><path class="cls-5" d="M586.38,463.87l-.09-.8h0a2.32,2.32,0,0,1-1.92.94,1.79,1.79,0,0,1-1.92-1.81c0-1.52,1.35-2.35,3.78-2.34v-.13a1.3,1.3,0,0,0-1.43-1.46,3.18,3.18,0,0,0-1.64.47l-.26-.75a3.91,3.91,0,0,1,2.07-.56c1.92,0,2.39,1.31,2.39,2.57v2.36a9.89,9.89,0,0,0,.1,1.51Zm-.16-3.22c-1.25,0-2.67.2-2.67,1.42a1,1,0,0,0,1.08,1.09,1.56,1.56,0,0,0,1.52-1.05,1.21,1.21,0,0,0,.07-.36Z"/><path class="cls-5" d="M590.49,455.77v1.8h1.64v.87h-1.64v3.4c0,.78.22,1.22.86,1.22A2.44,2.44,0,0,0,592,463l.06.86a2.89,2.89,0,0,1-1,.16,1.55,1.55,0,0,1-1.23-.49,2.27,2.27,0,0,1-.45-1.63v-3.44h-1v-.87h1v-1.51Z"/><path class="cls-5" d="M598.68,462.15c0,.65,0,1.22.05,1.72h-1l-.06-1h0a2.38,2.38,0,0,1-2.08,1.17c-1,0-2.17-.55-2.17-2.76v-3.68h1.14v3.49c0,1.19.37,2,1.41,2a1.64,1.64,0,0,0,1.5-1,1.59,1.59,0,0,0,.11-.59v-3.86h1.14Z"/><path class="cls-5" d="M600.58,459.54c0-.75,0-1.38-.05-2h1l0,1.24h0a1.89,1.89,0,0,1,1.74-1.38,1.15,1.15,0,0,1,.33,0v1.08a1.56,1.56,0,0,0-.39,0,1.61,1.61,0,0,0-1.54,1.47,4,4,0,0,0,0,.53v3.36h-1.13Z"/><path class="cls-5" d="M605.34,460.93a2,2,0,0,0,2.16,2.18,4.17,4.17,0,0,0,1.74-.32l.19.82a5.11,5.11,0,0,1-2.09.39,2.92,2.92,0,0,1-3.09-3.18c0-1.9,1.11-3.39,3-3.39a2.67,2.67,0,0,1,2.6,3,5.05,5.05,0,0,1,0,.54Zm3.35-.82a1.62,1.62,0,0,0-1.58-1.86,1.89,1.89,0,0,0-1.76,1.86Z"/><path class="cls-5" d="M614,455.1h1.13v7.82h3.74v.95H614Z"/><path class="cls-5" d="M625.62,460.67a3.08,3.08,0,0,1-3.14,3.34,3,3,0,0,1-3-3.24,3.08,3.08,0,0,1,3.12-3.34A3,3,0,0,1,625.62,460.67Zm-5,.06c0,1.38.8,2.42,1.92,2.42s1.91-1,1.91-2.44c0-1.07-.53-2.42-1.89-2.42S620.62,459.54,620.62,460.73Z"/><path class="cls-5" d="M632.75,460.67a3.08,3.08,0,0,1-3.13,3.34,3,3,0,0,1-3-3.24,3.07,3.07,0,0,1,3.12-3.34A3,3,0,0,1,632.75,460.67Zm-5,.06c0,1.38.8,2.42,1.91,2.42s1.91-1,1.91-2.44c0-1.07-.53-2.42-1.88-2.42S627.76,459.54,627.76,460.73Z"/><path class="cls-5" d="M634.2,459.63c0-.81,0-1.46-.06-2.06h1l.05,1.08h0a2.47,2.47,0,0,1,2.24-1.22c1.52,0,2.66,1.29,2.66,3.2,0,2.26-1.38,3.38-2.86,3.38a2.23,2.23,0,0,1-1.94-1h0v3.42H634.2Zm1.13,1.67a2.26,2.26,0,0,0,0,.47,1.76,1.76,0,0,0,1.72,1.34c1.2,0,1.91-1,1.91-2.43,0-1.26-.67-2.34-1.88-2.34a1.82,1.82,0,0,0-1.72,1.42,1.77,1.77,0,0,0-.08.46Z"/><path class="cls-5" d="M518.11,479.18a5.62,5.62,0,0,1-2.31.41,4.09,4.09,0,0,1-4.33-4.43,4.36,4.36,0,0,1,4.57-4.6,4.61,4.61,0,0,1,2.08.39l-.27.92a4.25,4.25,0,0,0-1.77-.36,3.26,3.26,0,0,0-3.42,3.61,3.19,3.19,0,0,0,3.37,3.53,4.57,4.57,0,0,0,1.85-.37Z"/><path class="cls-5" d="M525,476.27a3.08,3.08,0,0,1-3.13,3.34,3,3,0,0,1-3-3.24A3.07,3.07,0,0,1,522,473,3,3,0,0,1,525,476.27Zm-5,.06c0,1.38.79,2.42,1.91,2.42s1.91-1,1.91-2.44c0-1.07-.53-2.42-1.89-2.42S520.05,475.14,520.05,476.33Z"/><path class="cls-5" d="M532.18,476.27a3.08,3.08,0,0,1-3.14,3.34,3,3,0,0,1-3-3.24,3.07,3.07,0,0,1,3.12-3.34A3,3,0,0,1,532.18,476.27Zm-5,.06c0,1.38.8,2.42,1.92,2.42s1.91-1,1.91-2.44c0-1.07-.54-2.42-1.89-2.42S527.18,475.14,527.18,476.33Z"/><path class="cls-5" d="M533.62,470.23h1.14v9.23h-1.14Z"/><path class="cls-5" d="M540.17,479.46l-.09-.79h0a2.33,2.33,0,0,1-1.92.94,1.8,1.8,0,0,1-1.93-1.81c0-1.52,1.36-2.35,3.79-2.34v-.13a1.3,1.3,0,0,0-1.43-1.45,3.17,3.17,0,0,0-1.64.46l-.26-.75a3.88,3.88,0,0,1,2.07-.56c1.92,0,2.39,1.31,2.39,2.57V478a8.57,8.57,0,0,0,.1,1.5Zm-.17-3.21c-1.25,0-2.66.2-2.66,1.42a1,1,0,0,0,1.08,1.09,1.56,1.56,0,0,0,1.52-1.05,1.18,1.18,0,0,0,.06-.36Z"/><path class="cls-5" d="M543,474.88c0-.65,0-1.19-.05-1.71h1l.06,1h0a2.32,2.32,0,0,1,2.08-1.18c.87,0,2.22.52,2.22,2.68v3.75h-1.14v-3.62c0-1-.38-1.86-1.46-1.86a1.64,1.64,0,0,0-1.54,1.17,1.7,1.7,0,0,0-.07.53v3.78H543Z"/><path class="cls-5" d="M551.49,471.37v1.8h1.64V474h-1.64v3.4c0,.78.22,1.22.86,1.22a2.58,2.58,0,0,0,.67-.08l.05.86a2.85,2.85,0,0,1-1,.15,1.55,1.55,0,0,1-1.23-.48,2.27,2.27,0,0,1-.44-1.63V474h-1v-.87h1v-1.5Z"/><path class="cls-5" d="M564.44,480.75c-1.18-.31-2.34-.66-3.35-1a1.58,1.58,0,0,0-.54-.13c-2.08-.08-3.86-1.61-3.86-4.44s1.72-4.61,4.09-4.61,3.92,1.85,3.92,4.43c0,2.25-1,3.7-2.49,4.2v.05c.87.22,1.82.43,2.56.56Zm-.93-5.71c0-1.75-.91-3.56-2.77-3.56s-2.85,1.77-2.84,3.67,1,3.54,2.78,3.54S563.51,477.05,563.51,475Z"/><path class="cls-5" d="M571.44,477.75c0,.65,0,1.22,0,1.71h-1l-.06-1h0a2.36,2.36,0,0,1-2.08,1.17c-1,0-2.17-.55-2.17-2.76v-3.68h1.15v3.49c0,1.19.36,2,1.4,2a1.65,1.65,0,0,0,1.51-1,1.82,1.82,0,0,0,.1-.59v-3.86h1.15Z"/><path class="cls-5" d="M576.82,479.46l-.09-.79h0a2.34,2.34,0,0,1-1.93.94,1.79,1.79,0,0,1-1.92-1.81c0-1.52,1.35-2.35,3.78-2.34v-.13a1.29,1.29,0,0,0-1.43-1.45,3.23,3.23,0,0,0-1.64.46l-.26-.75a3.91,3.91,0,0,1,2.07-.56c1.93,0,2.39,1.31,2.39,2.57V478a8.5,8.5,0,0,0,.11,1.5Zm-.17-3.21c-1.25,0-2.67.2-2.67,1.42a1,1,0,0,0,1.08,1.09,1.56,1.56,0,0,0,1.52-1.05,1.21,1.21,0,0,0,.07-.36Z"/><path class="cls-5" d="M579.6,470.23h1.14v9.23H579.6Z"/><path class="cls-5" d="M583.94,471.41a.67.67,0,0,1-.73.7.69.69,0,0,1-.69-.7.7.7,0,0,1,.72-.72A.68.68,0,0,1,583.94,471.41Zm-1.27,8v-6.29h1.14v6.29Z"/><path class="cls-5" d="M587.09,471.37v1.8h1.64V474h-1.64v3.4c0,.78.22,1.22.86,1.22a2.44,2.44,0,0,0,.66-.08l0,.86a2.82,2.82,0,0,1-1,.15,1.55,1.55,0,0,1-1.24-.48,2.32,2.32,0,0,1-.44-1.63V474h-1v-.87h1v-1.5Z"/><path class="cls-5" d="M590.55,473.17l1.37,3.72c.15.42.3.91.41,1.29h0c.12-.38.25-.86.41-1.31l1.24-3.7h1.21l-1.71,4.49c-.82,2.16-1.38,3.26-2.16,3.94a3.11,3.11,0,0,1-1.41.74l-.28-1a3.21,3.21,0,0,0,1-.56,3.5,3.5,0,0,0,1-1.28.84.84,0,0,0,.09-.27.82.82,0,0,0-.08-.3l-2.32-5.8Z"/><path class="cls-5" d="M601.49,470.44a8.6,8.6,0,0,0-1.64,5.32,8.8,8.8,0,0,0,1.64,5.28h-.9a8.48,8.48,0,0,1-1.7-5.28,8.65,8.65,0,0,1,1.7-5.32Z"/><path class="cls-5" d="M606.14,473.39c0,1.78-.93,2.67-2,2.67s-2-.85-2-2.55.92-2.64,2-2.64S606.14,471.78,606.14,473.39Zm-3.09.08c0,1.08.38,1.9,1.09,1.9s1.1-.81,1.1-1.92-.3-1.89-1.1-1.89S603.05,472.41,603.05,473.47Zm1,6.14,5-8.74h.73l-5,8.74Zm7.6-2.72c0,1.78-.93,2.67-2,2.67s-2-.85-2-2.54.93-2.65,2-2.65S611.64,475.28,611.64,476.89Zm-3.09.08c0,1.08.4,1.9,1.11,1.9s1.09-.81,1.09-1.93-.3-1.88-1.09-1.88S608.55,475.9,608.55,477Z"/><path class="cls-5" d="M612.31,481a8.83,8.83,0,0,0,1.63-5.32,8.66,8.66,0,0,0-1.63-5.28h.88a8.3,8.3,0,0,1,1.7,5.29,8.48,8.48,0,0,1-1.7,5.31Z"/><path class="cls-5" d="M678.3,455.1h1.13v7.82h3.75v.95H678.3Z"/><path class="cls-5" d="M689.91,460.67a3.08,3.08,0,0,1-3.13,3.34,3,3,0,0,1-3-3.24,3.08,3.08,0,0,1,3.12-3.34A3,3,0,0,1,689.91,460.67Zm-5,.06c0,1.38.79,2.42,1.91,2.42s1.91-1,1.91-2.44c0-1.07-.53-2.42-1.89-2.42S684.92,459.54,684.92,460.73Z"/><path class="cls-5" d="M691.72,457.57l.83,3.2c.18.7.35,1.35.47,2h0c.14-.63.35-1.31.55-2l1-3.21h1l1,3.15c.23.75.41,1.42.56,2h0a17.85,17.85,0,0,1,.48-2l.89-3.16h1.14l-2,6.3h-1l-1-3a17,17,0,0,1-.56-2.07h0a19.82,19.82,0,0,1-.57,2.09l-1,3h-1l-1.89-6.3Z"/><path class="cls-5" d="M704.76,456.06h-2.67v-1h6.49v1H705.9v7.81h-1.14Z"/><path class="cls-5" d="M709.23,460.93a2,2,0,0,0,2.16,2.18,4.2,4.2,0,0,0,1.74-.32l.19.82a5.11,5.11,0,0,1-2.09.39,2.92,2.92,0,0,1-3.09-3.18c0-1.9,1.11-3.39,3-3.39a2.67,2.67,0,0,1,2.6,3,5.05,5.05,0,0,1,0,.54Zm3.35-.82a1.63,1.63,0,0,0-1.58-1.86,1.89,1.89,0,0,0-1.76,1.86Z"/><path class="cls-5" d="M715.1,459.28c0-.65,0-1.19-.05-1.71h1l.05,1h0a2.17,2.17,0,0,1,2-1.16,1.85,1.85,0,0,1,1.78,1.26h0a2.59,2.59,0,0,1,.7-.82,2.16,2.16,0,0,1,1.39-.44c.83,0,2.07.55,2.07,2.73v3.71H723V460.3c0-1.21-.44-1.93-1.37-1.93a1.48,1.48,0,0,0-1.35,1,1.89,1.89,0,0,0-.09.57v3.89H719v-3.78c0-1-.44-1.72-1.31-1.72a1.56,1.56,0,0,0-1.42,1.14,1.69,1.69,0,0,0-.09.56v3.8H715.1Z"/><path class="cls-5" d="M726,459.63c0-.81,0-1.46-.06-2.06h1l.05,1.08h0a2.47,2.47,0,0,1,2.23-1.22c1.52,0,2.67,1.29,2.67,3.2,0,2.26-1.38,3.38-2.86,3.38a2.23,2.23,0,0,1-1.94-1h0v3.42H726Zm1.13,1.67a2.26,2.26,0,0,0,0,.47,1.76,1.76,0,0,0,1.71,1.34c1.21,0,1.91-1,1.91-2.43,0-1.26-.66-2.34-1.87-2.34a1.84,1.84,0,0,0-1.73,1.42,2.32,2.32,0,0,0-.07.46Z"/><path class="cls-5" d="M734,460.93a2,2,0,0,0,2.16,2.18,4.17,4.17,0,0,0,1.74-.32l.19.82A5.11,5.11,0,0,1,736,464a2.92,2.92,0,0,1-3.09-3.18c0-1.9,1.11-3.39,3-3.39a2.67,2.67,0,0,1,2.6,3,5.05,5.05,0,0,1,0,.54Zm3.35-.82a1.62,1.62,0,0,0-1.58-1.86,1.89,1.89,0,0,0-1.76,1.86Z"/><path class="cls-5" d="M739.85,459.54c0-.75,0-1.38-.05-2h1l0,1.24h0a1.89,1.89,0,0,1,1.75-1.38,1,1,0,0,1,.32,0v1.08a1.51,1.51,0,0,0-.39,0A1.6,1.6,0,0,0,741,460a2.81,2.81,0,0,0,0,.53v3.36h-1.14Z"/><path class="cls-5" d="M747.52,463.87l-.09-.8h0a2.32,2.32,0,0,1-1.92.94,1.79,1.79,0,0,1-1.92-1.81c0-1.52,1.35-2.35,3.78-2.34v-.13a1.3,1.3,0,0,0-1.43-1.46,3.18,3.18,0,0,0-1.64.47L744,458a3.91,3.91,0,0,1,2.07-.56c1.92,0,2.39,1.31,2.39,2.57v2.36a9.89,9.89,0,0,0,.1,1.51Zm-.16-3.22c-1.25,0-2.67.2-2.67,1.42a1,1,0,0,0,1.08,1.09,1.56,1.56,0,0,0,1.52-1.05,1.21,1.21,0,0,0,.07-.36Z"/><path class="cls-5" d="M751.63,455.77v1.8h1.64v.87h-1.64v3.4c0,.78.22,1.22.86,1.22a2.44,2.44,0,0,0,.66-.08l.06.86a2.85,2.85,0,0,1-1,.16,1.55,1.55,0,0,1-1.23-.49,2.27,2.27,0,0,1-.45-1.63v-3.44h-1v-.87h1v-1.51Z"/><path class="cls-5" d="M759.82,462.15c0,.65,0,1.22.06,1.72h-1l-.06-1h0a2.38,2.38,0,0,1-2.08,1.17c-1,0-2.17-.55-2.17-2.76v-3.68h1.14v3.49c0,1.19.37,2,1.41,2a1.66,1.66,0,0,0,1.51-1,1.82,1.82,0,0,0,.1-.59v-3.86h1.14Z"/><path class="cls-5" d="M761.72,459.54c0-.75,0-1.38-.05-2h1l0,1.24h0a1.89,1.89,0,0,1,1.74-1.38,1.15,1.15,0,0,1,.33,0v1.08a1.56,1.56,0,0,0-.39,0A1.61,1.61,0,0,0,762.9,460a4,4,0,0,0,0,.53v3.36h-1.13Z"/><path class="cls-5" d="M766.48,460.93a2,2,0,0,0,2.16,2.18,4.17,4.17,0,0,0,1.74-.32l.19.82a5.11,5.11,0,0,1-2.09.39,2.92,2.92,0,0,1-3.09-3.18c0-1.9,1.11-3.39,3-3.39a2.67,2.67,0,0,1,2.6,3,5.05,5.05,0,0,1,0,.54Zm3.35-.82a1.62,1.62,0,0,0-1.58-1.86,1.89,1.89,0,0,0-1.76,1.86Z"/><path class="cls-5" d="M775.15,455.1h1.13v7.82H780v.95h-4.87Z"/><path class="cls-5" d="M786.76,460.67a3.08,3.08,0,0,1-3.14,3.34,3,3,0,0,1-3-3.24,3.08,3.08,0,0,1,3.12-3.34A3,3,0,0,1,786.76,460.67Zm-5,.06c0,1.38.79,2.42,1.91,2.42s1.91-1,1.91-2.44c0-1.07-.53-2.42-1.89-2.42S781.77,459.54,781.77,460.73Z"/><path class="cls-5" d="M793.89,460.67a3.08,3.08,0,0,1-3.13,3.34,3,3,0,0,1-3-3.24,3.07,3.07,0,0,1,3.12-3.34A3,3,0,0,1,793.89,460.67Zm-5,.06c0,1.38.8,2.42,1.91,2.42s1.91-1,1.91-2.44c0-1.07-.53-2.42-1.88-2.42S788.9,459.54,788.9,460.73Z"/><path class="cls-5" d="M795.34,459.63c0-.81,0-1.46-.05-2.06h1l.05,1.08h0a2.47,2.47,0,0,1,2.24-1.22c1.52,0,2.66,1.29,2.66,3.2,0,2.26-1.38,3.38-2.86,3.38a2.23,2.23,0,0,1-1.94-1h0v3.42h-1.13Zm1.13,1.67a2.26,2.26,0,0,0,0,.47,1.76,1.76,0,0,0,1.72,1.34c1.21,0,1.91-1,1.91-2.43,0-1.26-.67-2.34-1.87-2.34a1.83,1.83,0,0,0-1.73,1.42,1.77,1.77,0,0,0-.08.46Z"/><path class="cls-5" d="M678.76,479.18a5.58,5.58,0,0,1-2.31.41,4.09,4.09,0,0,1-4.33-4.43,4.36,4.36,0,0,1,4.58-4.6,4.65,4.65,0,0,1,2.08.39l-.28.92a4.25,4.25,0,0,0-1.77-.36c-2.05,0-3.41,1.31-3.41,3.61a3.18,3.18,0,0,0,3.36,3.53,4.57,4.57,0,0,0,1.85-.37Z"/><path class="cls-5" d="M685.69,476.27a3.08,3.08,0,0,1-3.13,3.34,3,3,0,0,1-3-3.24,3.07,3.07,0,0,1,3.12-3.34A3,3,0,0,1,685.69,476.27Zm-5,.06c0,1.38.79,2.42,1.91,2.42s1.91-1,1.91-2.44c0-1.07-.53-2.42-1.88-2.42S680.7,475.14,680.7,476.33Z"/><path class="cls-5" d="M692.83,476.27a3.08,3.08,0,0,1-3.13,3.34,3,3,0,0,1-3-3.24A3.07,3.07,0,0,1,689.8,473,3,3,0,0,1,692.83,476.27Zm-5,.06c0,1.38.79,2.42,1.91,2.42s1.91-1,1.91-2.44c0-1.07-.53-2.42-1.89-2.42S687.84,475.14,687.84,476.33Z"/><path class="cls-5" d="M694.27,470.23h1.15v9.23h-1.15Z"/><path class="cls-5" d="M700.82,479.46l-.09-.79h0a2.32,2.32,0,0,1-1.92.94,1.8,1.8,0,0,1-1.93-1.81c0-1.52,1.36-2.35,3.79-2.34v-.13a1.3,1.3,0,0,0-1.43-1.45,3.17,3.17,0,0,0-1.64.46l-.26-.75a3.88,3.88,0,0,1,2.07-.56c1.92,0,2.39,1.31,2.39,2.57V478a8.57,8.57,0,0,0,.1,1.5Zm-.17-3.21c-1.24,0-2.66.2-2.66,1.42a1,1,0,0,0,1.08,1.09,1.56,1.56,0,0,0,1.52-1.05,1.18,1.18,0,0,0,.06-.36Z"/><path class="cls-5" d="M703.61,474.88c0-.65,0-1.19-.06-1.71h1l.06,1h0a2.32,2.32,0,0,1,2.08-1.18c.87,0,2.22.52,2.22,2.68v3.75h-1.14v-3.62c0-1-.38-1.86-1.46-1.86a1.62,1.62,0,0,0-1.53,1.17,1.69,1.69,0,0,0-.08.53v3.78h-1.14Z"/><path class="cls-5" d="M712.15,471.37v1.8h1.63V474h-1.63v3.4c0,.78.22,1.22.85,1.22a2.58,2.58,0,0,0,.67-.08l.05.86a2.82,2.82,0,0,1-1,.15,1.55,1.55,0,0,1-1.24-.48,2.27,2.27,0,0,1-.44-1.63V474h-1v-.87h1v-1.5Z"/><path class="cls-5" d="M719,471.67h-2.67v-1h6.49v1h-2.68v7.79H719Z"/><path class="cls-5" d="M723.47,476.53a2,2,0,0,0,2.16,2.18,4.17,4.17,0,0,0,1.74-.32l.19.82a5.14,5.14,0,0,1-2.09.38,2.91,2.91,0,0,1-3.09-3.17c0-1.89,1.12-3.39,3-3.39a2.67,2.67,0,0,1,2.6,3,5.05,5.05,0,0,1,0,.54Zm3.35-.82a1.62,1.62,0,0,0-1.58-1.86,1.9,1.9,0,0,0-1.76,1.86Z"/><path class="cls-5" d="M729.34,474.88c0-.65,0-1.19-.05-1.71h1l.06,1h0a2.18,2.18,0,0,1,2-1.16,1.85,1.85,0,0,1,1.78,1.26h0a2.59,2.59,0,0,1,.7-.82,2.18,2.18,0,0,1,1.39-.44c.83,0,2.07.55,2.07,2.73v3.7h-1.12V475.9c0-1.21-.44-1.93-1.37-1.93a1.48,1.48,0,0,0-1.35,1,1.89,1.89,0,0,0-.09.57v3.88h-1.12V475.7c0-1-.44-1.73-1.31-1.73a1.58,1.58,0,0,0-1.42,1.14,1.69,1.69,0,0,0-.09.56v3.79h-1.12Z"/><path class="cls-5" d="M740.19,475.23c0-.81,0-1.46-.06-2.06h1l.05,1.08h0a2.49,2.49,0,0,1,2.24-1.22c1.52,0,2.66,1.29,2.66,3.2,0,2.26-1.38,3.38-2.86,3.38a2.23,2.23,0,0,1-1.94-1h0V482h-1.13Zm1.13,1.67a2.26,2.26,0,0,0,0,.47,1.76,1.76,0,0,0,1.71,1.34c1.21,0,1.92-1,1.92-2.43,0-1.26-.67-2.34-1.88-2.34a1.82,1.82,0,0,0-1.72,1.42,1.78,1.78,0,0,0-.08.47Z"/><path class="cls-5" d="M748.22,476.53a2,2,0,0,0,2.16,2.18,4.17,4.17,0,0,0,1.74-.32l.2.82a5.24,5.24,0,0,1-2.1.38,2.92,2.92,0,0,1-3.09-3.17c0-1.89,1.12-3.39,3-3.39a2.67,2.67,0,0,1,2.6,3,5.05,5.05,0,0,1,0,.54Zm3.35-.82a1.62,1.62,0,0,0-1.58-1.86,1.9,1.9,0,0,0-1.76,1.86Z"/><path class="cls-5" d="M754.1,475.14c0-.75,0-1.38-.06-2h1l0,1.24h.06a1.87,1.87,0,0,1,1.74-1.38,1,1,0,0,1,.32,0v1.08a1.46,1.46,0,0,0-.39,0,1.6,1.6,0,0,0-1.53,1.47,2.81,2.81,0,0,0,0,.53v3.35H754.1Z"/><path class="cls-5" d="M761.77,479.46l-.1-.79h0a2.34,2.34,0,0,1-1.93.94,1.79,1.79,0,0,1-1.92-1.81c0-1.52,1.35-2.35,3.78-2.34v-.13a1.29,1.29,0,0,0-1.43-1.45,3.23,3.23,0,0,0-1.64.46l-.26-.75a3.91,3.91,0,0,1,2.07-.56c1.92,0,2.39,1.31,2.39,2.57V478a8.5,8.5,0,0,0,.11,1.5Zm-.17-3.21c-1.25,0-2.67.2-2.67,1.42a1,1,0,0,0,1.08,1.09,1.56,1.56,0,0,0,1.52-1.05,1.21,1.21,0,0,0,.07-.36Z"/><path class="cls-5" d="M765.87,471.37v1.8h1.64V474h-1.64v3.4c0,.78.22,1.22.86,1.22a2.44,2.44,0,0,0,.66-.08l.06.86a2.85,2.85,0,0,1-1,.15,1.55,1.55,0,0,1-1.23-.48,2.27,2.27,0,0,1-.44-1.63V474h-1v-.87h1v-1.5Z"/><path class="cls-5" d="M774.06,477.75q0,1,.06,1.71h-1l-.06-1h0a2.36,2.36,0,0,1-2.08,1.17c-1,0-2.17-.55-2.17-2.76v-3.68h1.14v3.49c0,1.19.37,2,1.41,2a1.66,1.66,0,0,0,1.51-1,1.82,1.82,0,0,0,.1-.59v-3.86h1.14Z"/><path class="cls-5" d="M776,475.14c0-.75,0-1.38-.05-2h1l0,1.24h0a1.89,1.89,0,0,1,1.74-1.38,1.15,1.15,0,0,1,.33,0v1.08a1.56,1.56,0,0,0-.39,0,1.61,1.61,0,0,0-1.54,1.47,4,4,0,0,0,0,.53v3.35H776Z"/><path class="cls-5" d="M780.72,476.53a2,2,0,0,0,2.16,2.18,4.17,4.17,0,0,0,1.74-.32l.19.82a5.14,5.14,0,0,1-2.09.38,2.91,2.91,0,0,1-3.09-3.17c0-1.89,1.12-3.39,3-3.39a2.67,2.67,0,0,1,2.6,3,5.05,5.05,0,0,1,0,.54Zm3.35-.82a1.62,1.62,0,0,0-1.58-1.86,1.9,1.9,0,0,0-1.76,1.86Z"/><path class="cls-5" d="M791.83,470.44a8.6,8.6,0,0,0-1.63,5.32,8.8,8.8,0,0,0,1.63,5.28h-.89a8.42,8.42,0,0,1-1.71-5.28,8.65,8.65,0,0,1,1.71-5.32Z"/><path class="cls-5" d="M792.63,471.3a1.31,1.31,0,1,1,1.31,1.18A1.22,1.22,0,0,1,792.63,471.3Zm2,0a.66.66,0,1,0-1.31,0,.66.66,0,1,0,1.31,0Z"/><path class="cls-5" d="M803.11,479.18a5.63,5.63,0,0,1-2.32.41,4.09,4.09,0,0,1-4.33-4.43,4.36,4.36,0,0,1,4.58-4.6,4.65,4.65,0,0,1,2.08.39l-.28.92a4.2,4.2,0,0,0-1.76-.36c-2.06,0-3.42,1.31-3.42,3.61a3.19,3.19,0,0,0,3.37,3.53,4.52,4.52,0,0,0,1.84-.37Z"/><path class="cls-5" d="M804,481a8.83,8.83,0,0,0,1.63-5.32,8.66,8.66,0,0,0-1.63-5.28h.88a8.3,8.3,0,0,1,1.7,5.29,8.48,8.48,0,0,1-1.7,5.31Z"/><path class="cls-5" d="M846.83,460c-.07-1.23-.15-2.69-.14-3.79h0c-.3,1-.67,2.12-1.11,3.33L844,463.81h-.85l-1.42-4.17c-.42-1.23-.77-2.37-1-3.41h0c0,1.1-.09,2.56-.17,3.88l-.23,3.76h-1.08l.61-8.77h1.44l1.5,4.24c.36,1.08.66,2,.88,3h0c.22-.88.53-1.84.92-3l1.56-4.24h1.44l.55,8.77h-1.1Z"/><path class="cls-5" d="M855.62,460.67a3.08,3.08,0,0,1-3.13,3.34,3,3,0,0,1-3-3.24,3.07,3.07,0,0,1,3.12-3.34A3,3,0,0,1,855.62,460.67Zm-5,.06c0,1.38.8,2.42,1.91,2.42s1.92-1,1.92-2.44c0-1.07-.54-2.42-1.89-2.42S850.63,459.54,850.63,460.73Z"/><path class="cls-5" d="M862.5,454.63v7.61c0,.56,0,1.2,0,1.63h-1l0-1.1h0A2.34,2.34,0,0,1,859.3,464c-1.52,0-2.69-1.29-2.69-3.2,0-2.09,1.29-3.38,2.82-3.38a2.08,2.08,0,0,1,1.9,1h0v-3.76Zm-1.14,5.5a2.7,2.7,0,0,0-.05-.48,1.68,1.68,0,0,0-1.65-1.32c-1.19,0-1.89,1-1.89,2.43s.62,2.32,1.86,2.32a1.72,1.72,0,0,0,1.68-1.36,2.54,2.54,0,0,0,.05-.49Z"/><path class="cls-5" d="M865,460.93a2,2,0,0,0,2.16,2.18,4.2,4.2,0,0,0,1.74-.32l.19.82A5.11,5.11,0,0,1,867,464a2.92,2.92,0,0,1-3.09-3.18c0-1.9,1.11-3.39,2.95-3.39a2.67,2.67,0,0,1,2.6,3,5.05,5.05,0,0,1,0,.54Zm3.35-.82a1.63,1.63,0,0,0-1.59-1.86,1.89,1.89,0,0,0-1.75,1.86Z"/><path class="cls-5" d="M870.91,459.54c0-.75,0-1.38,0-2h1l0,1.24H872a1.89,1.89,0,0,1,1.74-1.38,1.06,1.06,0,0,1,.33,0v1.08a1.51,1.51,0,0,0-.39,0A1.59,1.59,0,0,0,872.1,460a2.76,2.76,0,0,0-.06.53v3.36h-1.13Z"/><path class="cls-5" d="M878.58,463.87l-.09-.8h0a2.32,2.32,0,0,1-1.92.94,1.8,1.8,0,0,1-1.93-1.81c0-1.52,1.36-2.35,3.79-2.34v-.13a1.3,1.3,0,0,0-1.43-1.46,3.18,3.18,0,0,0-1.64.47l-.26-.75a3.88,3.88,0,0,1,2.07-.56c1.92,0,2.39,1.31,2.39,2.57v2.36a8.76,8.76,0,0,0,.1,1.51Zm-.17-3.22c-1.24,0-2.66.2-2.66,1.42a1,1,0,0,0,1.08,1.09,1.56,1.56,0,0,0,1.52-1.05,1.18,1.18,0,0,0,.06-.36Z"/><path class="cls-5" d="M882.69,455.77v1.8h1.64v.87h-1.64v3.4c0,.78.22,1.22.86,1.22a2.44,2.44,0,0,0,.66-.08l0,.86a2.79,2.79,0,0,1-1,.16,1.59,1.59,0,0,1-1.24-.49,2.32,2.32,0,0,1-.44-1.63v-3.44h-1v-.87h1v-1.51Z"/><path class="cls-5" d="M886.17,460.93a2,2,0,0,0,2.16,2.18,4.22,4.22,0,0,0,1.75-.32l.19.82a5.11,5.11,0,0,1-2.09.39,2.93,2.93,0,0,1-3.1-3.18c0-1.9,1.12-3.39,2.95-3.39,2.06,0,2.6,1.81,2.6,3a3.31,3.31,0,0,1,0,.54Zm3.36-.82a1.63,1.63,0,0,0-1.59-1.86,1.89,1.89,0,0,0-1.75,1.86Z"/><path class="cls-5" d="M896,456.06h-2.67v-1h6.49v1h-2.68v7.81H896Z"/><path class="cls-5" d="M900.45,460.93a2,2,0,0,0,2.16,2.18,4.2,4.2,0,0,0,1.74-.32l.19.82a5.11,5.11,0,0,1-2.09.39,2.92,2.92,0,0,1-3.09-3.18c0-1.9,1.11-3.39,2.95-3.39a2.67,2.67,0,0,1,2.6,3,5.05,5.05,0,0,1,0,.54Zm3.35-.82a1.62,1.62,0,0,0-1.58-1.86,1.89,1.89,0,0,0-1.76,1.86Z"/><path class="cls-5" d="M906.32,459.28c0-.65,0-1.19-.05-1.71h1l.06,1h0a2.17,2.17,0,0,1,2-1.16,1.85,1.85,0,0,1,1.78,1.26h0a2.59,2.59,0,0,1,.7-.82,2.18,2.18,0,0,1,1.39-.44c.83,0,2.07.55,2.07,2.73v3.71h-1.12V460.3c0-1.21-.44-1.93-1.37-1.93a1.48,1.48,0,0,0-1.35,1,1.89,1.89,0,0,0-.09.57v3.89h-1.12v-3.78c0-1-.44-1.72-1.31-1.72a1.57,1.57,0,0,0-1.42,1.14,1.69,1.69,0,0,0-.09.56v3.8h-1.12Z"/><path class="cls-5" d="M917.17,459.63c0-.81,0-1.46-.06-2.06h1l.05,1.08h0a2.47,2.47,0,0,1,2.24-1.22c1.52,0,2.66,1.29,2.66,3.2,0,2.26-1.38,3.38-2.86,3.38a2.23,2.23,0,0,1-1.94-1h0v3.42h-1.13Zm1.13,1.67a2.26,2.26,0,0,0,.05.47,1.76,1.76,0,0,0,1.71,1.34c1.21,0,1.92-1,1.92-2.43,0-1.26-.67-2.34-1.88-2.34a1.82,1.82,0,0,0-1.72,1.42,1.77,1.77,0,0,0-.08.46Z"/><path class="cls-5" d="M925.2,460.93a2,2,0,0,0,2.16,2.18,4.17,4.17,0,0,0,1.74-.32l.19.82a5.11,5.11,0,0,1-2.09.39,2.92,2.92,0,0,1-3.09-3.18c0-1.9,1.12-3.39,2.95-3.39a2.67,2.67,0,0,1,2.6,3,5.05,5.05,0,0,1,0,.54Zm3.35-.82a1.62,1.62,0,0,0-1.58-1.86,1.89,1.89,0,0,0-1.76,1.86Z"/><path class="cls-5" d="M931.08,459.54c0-.75,0-1.38-.06-2h1l0,1.24h.06a1.87,1.87,0,0,1,1.74-1.38,1,1,0,0,1,.32,0v1.08a1.46,1.46,0,0,0-.39,0,1.6,1.6,0,0,0-1.53,1.47,2.81,2.81,0,0,0,0,.53v3.36h-1.13Z"/><path class="cls-5" d="M938.75,463.87l-.1-.8h0a2.35,2.35,0,0,1-1.93.94,1.79,1.79,0,0,1-1.92-1.81c0-1.52,1.35-2.35,3.78-2.34v-.13a1.3,1.3,0,0,0-1.43-1.46,3.21,3.21,0,0,0-1.64.47l-.26-.75a3.91,3.91,0,0,1,2.07-.56c1.92,0,2.39,1.31,2.39,2.57v2.36a8.7,8.7,0,0,0,.11,1.51Zm-.17-3.22c-1.25,0-2.67.2-2.67,1.42a1,1,0,0,0,1.08,1.09,1.56,1.56,0,0,0,1.52-1.05,1.21,1.21,0,0,0,.07-.36Z"/><path class="cls-5" d="M942.85,455.77v1.8h1.64v.87h-1.64v3.4c0,.78.23,1.22.86,1.22a2.58,2.58,0,0,0,.67-.08l0,.86a2.85,2.85,0,0,1-1,.16,1.55,1.55,0,0,1-1.23-.49,2.27,2.27,0,0,1-.44-1.63v-3.44h-1v-.87h1v-1.51Z"/><path class="cls-5" d="M951,462.15c0,.65,0,1.22.06,1.72h-1l-.06-1h0a2.38,2.38,0,0,1-2.08,1.17c-1,0-2.17-.55-2.17-2.76v-3.68h1.14v3.49c0,1.19.37,2,1.41,2a1.66,1.66,0,0,0,1.51-1,1.82,1.82,0,0,0,.1-.59v-3.86H951Z"/><path class="cls-5" d="M952.94,459.54c0-.75,0-1.38-.05-2h1l0,1.24H954a1.89,1.89,0,0,1,1.74-1.38,1.15,1.15,0,0,1,.33,0v1.08a1.56,1.56,0,0,0-.39,0,1.61,1.61,0,0,0-1.54,1.47,4,4,0,0,0,0,.53v3.36h-1.13Z"/><path class="cls-5" d="M957.7,460.93a2,2,0,0,0,2.16,2.18,4.17,4.17,0,0,0,1.74-.32l.19.82a5.11,5.11,0,0,1-2.09.39,2.92,2.92,0,0,1-3.09-3.18c0-1.9,1.12-3.39,2.95-3.39a2.67,2.67,0,0,1,2.6,3,5.05,5.05,0,0,1,0,.54Zm3.35-.82a1.62,1.62,0,0,0-1.58-1.86,1.89,1.89,0,0,0-1.76,1.86Z"/><path class="cls-5" d="M966.37,455.1h1.13v7.82h3.75v.95h-4.88Z"/><path class="cls-5" d="M978,460.67a3.08,3.08,0,0,1-3.13,3.34,3,3,0,0,1-3-3.24,3.08,3.08,0,0,1,3.12-3.34A3,3,0,0,1,978,460.67Zm-5,.06c0,1.38.79,2.42,1.91,2.42s1.91-1,1.91-2.44c0-1.07-.53-2.42-1.89-2.42S973,459.54,973,460.73Z"/><path class="cls-5" d="M985.12,460.67A3.08,3.08,0,0,1,982,464a3,3,0,0,1-3-3.24,3.07,3.07,0,0,1,3.12-3.34A3,3,0,0,1,985.12,460.67Zm-5,.06c0,1.38.8,2.42,1.91,2.42s1.92-1,1.92-2.44c0-1.07-.54-2.42-1.89-2.42S980.12,459.54,980.12,460.73Z"/><path class="cls-5" d="M986.56,459.63c0-.81,0-1.46,0-2.06h1l.05,1.08h0a2.47,2.47,0,0,1,2.24-1.22c1.52,0,2.66,1.29,2.66,3.2,0,2.26-1.38,3.38-2.86,3.38a2.23,2.23,0,0,1-1.94-1h0v3.42h-1.13Zm1.13,1.67a2.26,2.26,0,0,0,0,.47,1.76,1.76,0,0,0,1.72,1.34c1.21,0,1.91-1,1.91-2.43,0-1.26-.66-2.34-1.87-2.34a1.83,1.83,0,0,0-1.73,1.42,1.77,1.77,0,0,0-.08.46Z"/><path class="cls-5" d="M854.94,479.18a5.54,5.54,0,0,1-2.31.41,4.09,4.09,0,0,1-4.33-4.43,4.36,4.36,0,0,1,4.58-4.6A4.65,4.65,0,0,1,855,471l-.28.92a4.24,4.24,0,0,0-1.76-.36c-2.06,0-3.42,1.31-3.42,3.61a3.18,3.18,0,0,0,3.36,3.53,4.57,4.57,0,0,0,1.85-.37Z"/><path class="cls-5" d="M861.87,476.27a3.08,3.08,0,0,1-3.13,3.34,3,3,0,0,1-3-3.24,3.07,3.07,0,0,1,3.12-3.34A3,3,0,0,1,861.87,476.27Zm-5,.06c0,1.38.79,2.42,1.91,2.42s1.91-1,1.91-2.44c0-1.07-.53-2.42-1.88-2.42S856.88,475.14,856.88,476.33Z"/><path class="cls-5" d="M869,476.27a3.08,3.08,0,0,1-3.13,3.34,3,3,0,0,1-3-3.24A3.07,3.07,0,0,1,866,473,3,3,0,0,1,869,476.27Zm-5,.06c0,1.38.79,2.42,1.91,2.42s1.91-1,1.91-2.44c0-1.07-.53-2.42-1.89-2.42S864,475.14,864,476.33Z"/><path class="cls-5" d="M870.45,470.23h1.15v9.23h-1.15Z"/><path class="cls-5" d="M877,479.46l-.09-.79h0a2.32,2.32,0,0,1-1.92.94A1.79,1.79,0,0,1,873,477.8c0-1.52,1.35-2.35,3.78-2.34v-.13a1.29,1.29,0,0,0-1.43-1.45,3.17,3.17,0,0,0-1.64.46l-.26-.75a3.88,3.88,0,0,1,2.07-.56c1.92,0,2.39,1.31,2.39,2.57V478a8.57,8.57,0,0,0,.1,1.5Zm-.17-3.21c-1.24,0-2.66.2-2.66,1.42a1,1,0,0,0,1.08,1.09,1.56,1.56,0,0,0,1.52-1.05,1.18,1.18,0,0,0,.06-.36Z"/><path class="cls-5" d="M879.79,474.88c0-.65,0-1.19-.06-1.71h1l.06,1h0a2.32,2.32,0,0,1,2.08-1.18c.87,0,2.22.52,2.22,2.68v3.75H884v-3.62c0-1-.38-1.86-1.46-1.86a1.62,1.62,0,0,0-1.53,1.17,1.69,1.69,0,0,0-.08.53v3.78h-1.14Z"/><path class="cls-5" d="M888.33,471.37v1.8H890V474h-1.63v3.4c0,.78.22,1.22.85,1.22a2.58,2.58,0,0,0,.67-.08l0,.86a2.82,2.82,0,0,1-1,.15,1.55,1.55,0,0,1-1.24-.48,2.32,2.32,0,0,1-.44-1.63V474h-1v-.87h1v-1.5Z"/><path class="cls-5" d="M895.18,471.67h-2.67v-1H899v1h-2.68v7.79h-1.14Z"/><path class="cls-5" d="M899.65,476.53a2,2,0,0,0,2.16,2.18,4.17,4.17,0,0,0,1.74-.32l.19.82a5.14,5.14,0,0,1-2.09.38,2.91,2.91,0,0,1-3.09-3.17c0-1.89,1.12-3.39,3-3.39a2.67,2.67,0,0,1,2.6,3,5.05,5.05,0,0,1,0,.54Zm3.35-.82a1.62,1.62,0,0,0-1.58-1.86,1.9,1.9,0,0,0-1.76,1.86Z"/><path class="cls-5" d="M905.53,474.88c0-.65,0-1.19-.06-1.71h1l.06,1h0a2.16,2.16,0,0,1,2-1.16,1.85,1.85,0,0,1,1.78,1.26h0a2.59,2.59,0,0,1,.7-.82,2.18,2.18,0,0,1,1.39-.44c.83,0,2.07.55,2.07,2.73v3.7h-1.12V475.9c0-1.21-.44-1.93-1.36-1.93a1.5,1.5,0,0,0-1.36,1,1.89,1.89,0,0,0-.09.57v3.88h-1.12V475.7c0-1-.44-1.73-1.31-1.73a1.58,1.58,0,0,0-1.42,1.14,1.69,1.69,0,0,0-.09.56v3.79h-1.11Z"/><path class="cls-5" d="M916.37,475.23c0-.81,0-1.46-.06-2.06h1l0,1.08h0a2.49,2.49,0,0,1,2.24-1.22c1.52,0,2.66,1.29,2.66,3.2,0,2.26-1.38,3.38-2.86,3.38a2.23,2.23,0,0,1-1.94-1h0V482h-1.13Zm1.13,1.67a2.26,2.26,0,0,0,0,.47,1.76,1.76,0,0,0,1.72,1.34c1.2,0,1.91-1,1.91-2.43,0-1.26-.67-2.34-1.88-2.34a1.82,1.82,0,0,0-1.72,1.42,1.78,1.78,0,0,0-.08.47Z"/><path class="cls-5" d="M924.4,476.53a2,2,0,0,0,2.16,2.18,4.17,4.17,0,0,0,1.74-.32l.2.82a5.24,5.24,0,0,1-2.1.38,2.92,2.92,0,0,1-3.09-3.17c0-1.89,1.12-3.39,3-3.39a2.67,2.67,0,0,1,2.6,3,5.05,5.05,0,0,1,0,.54Zm3.35-.82a1.62,1.62,0,0,0-1.58-1.86,1.9,1.9,0,0,0-1.76,1.86Z"/><path class="cls-5" d="M930.28,475.14c0-.75,0-1.38-.06-2h1l0,1.24h.06a1.87,1.87,0,0,1,1.74-1.38,1,1,0,0,1,.32,0v1.08a1.46,1.46,0,0,0-.39,0,1.61,1.61,0,0,0-1.53,1.47,2.81,2.81,0,0,0-.05.53v3.35h-1.13Z"/><path class="cls-5" d="M938,479.46l-.09-.79h0a2.34,2.34,0,0,1-1.93.94A1.79,1.79,0,0,1,934,477.8c0-1.52,1.35-2.35,3.78-2.34v-.13a1.29,1.29,0,0,0-1.43-1.45,3.23,3.23,0,0,0-1.64.46l-.26-.75a3.91,3.91,0,0,1,2.07-.56c1.93,0,2.39,1.31,2.39,2.57V478a8.5,8.5,0,0,0,.11,1.5Zm-.17-3.21c-1.25,0-2.67.2-2.67,1.42a1,1,0,0,0,1.08,1.09,1.56,1.56,0,0,0,1.52-1.05,1.21,1.21,0,0,0,.07-.36Z"/><path class="cls-5" d="M942.05,471.37v1.8h1.64V474h-1.64v3.4c0,.78.23,1.22.86,1.22a2.58,2.58,0,0,0,.67-.08l0,.86a2.85,2.85,0,0,1-1,.15,1.55,1.55,0,0,1-1.23-.48,2.27,2.27,0,0,1-.44-1.63V474h-1v-.87h1v-1.5Z"/><path class="cls-5" d="M950.24,477.75q0,1,.06,1.71h-1l-.06-1h0a2.36,2.36,0,0,1-2.08,1.17c-1,0-2.17-.55-2.17-2.76v-3.68h1.14v3.49c0,1.19.37,2,1.41,2a1.66,1.66,0,0,0,1.51-1,1.82,1.82,0,0,0,.1-.59v-3.86h1.14Z"/><path class="cls-5" d="M952.14,475.14c0-.75,0-1.38,0-2h1l0,1.24h0a1.89,1.89,0,0,1,1.74-1.38,1.11,1.11,0,0,1,.33,0v1.08a1.51,1.51,0,0,0-.39,0,1.59,1.59,0,0,0-1.53,1.47,2.76,2.76,0,0,0-.06.53v3.35h-1.13Z"/><path class="cls-5" d="M956.9,476.53a2,2,0,0,0,2.16,2.18,4.17,4.17,0,0,0,1.74-.32l.2.82a5.24,5.24,0,0,1-2.1.38,2.91,2.91,0,0,1-3.09-3.17c0-1.89,1.12-3.39,3-3.39a2.67,2.67,0,0,1,2.6,3,5.05,5.05,0,0,1,0,.54Zm3.35-.82a1.62,1.62,0,0,0-1.58-1.86,1.9,1.9,0,0,0-1.76,1.86Z"/><path class="cls-5" d="M968,470.44a8.66,8.66,0,0,0-1.63,5.32A8.8,8.8,0,0,0,968,481h-.89a8.42,8.42,0,0,1-1.7-5.28,8.59,8.59,0,0,1,1.7-5.32Z"/><path class="cls-5" d="M968.81,471.3a1.31,1.31,0,1,1,1.31,1.18A1.22,1.22,0,0,1,968.81,471.3Zm2,0a.66.66,0,1,0-1.31,0,.66.66,0,1,0,1.31,0Z"/><path class="cls-5" d="M979.29,479.18a5.63,5.63,0,0,1-2.32.41,4.09,4.09,0,0,1-4.33-4.43,4.36,4.36,0,0,1,4.58-4.6,4.65,4.65,0,0,1,2.08.39l-.27.92a4.25,4.25,0,0,0-1.77-.36c-2.06,0-3.42,1.31-3.42,3.61a3.19,3.19,0,0,0,3.37,3.53,4.52,4.52,0,0,0,1.84-.37Z"/><path class="cls-5" d="M980.2,481a8.83,8.83,0,0,0,1.63-5.32,8.66,8.66,0,0,0-1.63-5.28h.88a8.3,8.3,0,0,1,1.7,5.29,8.48,8.48,0,0,1-1.7,5.31Z"/><path class="cls-5" d="M185.76,548.34V552H190v-3.67h1.15v8.77H190V553h-4.24v4.11h-1.13v-8.77Z"/><path class="cls-5" d="M196.55,557.11l-.09-.8h0a2.32,2.32,0,0,1-1.92.94,1.79,1.79,0,0,1-1.92-1.81c0-1.52,1.35-2.35,3.78-2.34V553a1.29,1.29,0,0,0-1.43-1.45,3.17,3.17,0,0,0-1.64.46l-.26-.75a3.91,3.91,0,0,1,2.07-.56c1.92,0,2.39,1.31,2.39,2.57v2.36a9.89,9.89,0,0,0,.1,1.51Zm-.16-3.22c-1.25,0-2.67.2-2.67,1.42a1,1,0,0,0,1.08,1.09,1.56,1.56,0,0,0,1.52-1,1.21,1.21,0,0,0,.07-.36Z"/><path class="cls-5" d="M199.34,552.78c0-.74,0-1.38-.06-2h1l0,1.24h.06a1.87,1.87,0,0,1,1.74-1.38,1,1,0,0,1,.32,0v1.08a1.46,1.46,0,0,0-.39,0,1.61,1.61,0,0,0-1.53,1.47,2.89,2.89,0,0,0-.05.53v3.36h-1.13Z"/><path class="cls-5" d="M203.64,552.52c0-.65,0-1.19,0-1.71h1l0,1h0a2.17,2.17,0,0,1,2-1.16,1.87,1.87,0,0,1,1.78,1.26h0a2.73,2.73,0,0,1,.7-.82,2.21,2.21,0,0,1,1.4-.44c.83,0,2.06.55,2.06,2.73v3.71H211.5v-3.57c0-1.21-.44-1.93-1.36-1.93a1.47,1.47,0,0,0-1.35,1,1.89,1.89,0,0,0-.09.57v3.89h-1.12v-3.77c0-1-.44-1.73-1.31-1.73a1.56,1.56,0,0,0-1.42,1.14,1.46,1.46,0,0,0-.09.56v3.8h-1.12Z"/><path class="cls-5" d="M220.18,553.91a3.08,3.08,0,0,1-3.14,3.34,3,3,0,0,1-3-3.24,3.07,3.07,0,0,1,3.12-3.34A3,3,0,0,1,220.18,553.91Zm-5,.06c0,1.38.8,2.42,1.91,2.42s1.92-1,1.92-2.44c0-1.07-.54-2.42-1.89-2.42S215.18,552.78,215.18,554Z"/><path class="cls-5" d="M221.62,552.52c0-.65,0-1.19-.05-1.71h1l.07,1h0a2.32,2.32,0,0,1,2.08-1.18c.87,0,2.22.52,2.22,2.68v3.76h-1.14v-3.63c0-1-.38-1.86-1.46-1.86a1.63,1.63,0,0,0-1.53,1.17,1.69,1.69,0,0,0-.08.53v3.79h-1.14Z"/><path class="cls-5" d="M229.08,550.81l1.38,3.72c.14.42.3.91.4,1.29h0c.11-.38.24-.86.4-1.31l1.25-3.7h1.21L232,555.3c-.82,2.16-1.38,3.26-2.16,3.94a3.09,3.09,0,0,1-1.4.74l-.29-1a3,3,0,0,0,1-.56,3.4,3.4,0,0,0,1-1.28.77.77,0,0,0,.09-.27,1.11,1.11,0,0,0-.08-.3l-2.33-5.8Z"/><path class="cls-5" d="M237.58,557.11v-8.77h1.24l2.81,4.44a25.32,25.32,0,0,1,1.57,2.84h0c-.1-1.17-.13-2.23-.13-3.6v-3.67h1.07v8.77H243l-2.79-4.45a28,28,0,0,1-1.63-2.93l0,0c.06,1.1.09,2.16.09,3.61v3.75Z"/><path class="cls-5" d="M251.79,553.91a3.08,3.08,0,0,1-3.13,3.34,3,3,0,0,1-3-3.24,3.08,3.08,0,0,1,3.12-3.34A3,3,0,0,1,251.79,553.91Zm-5,.06c0,1.38.79,2.42,1.91,2.42s1.91-1,1.91-2.44c0-1.07-.53-2.42-1.88-2.42S246.8,552.78,246.8,554Z"/><path class="cls-5" d="M258.67,547.88v7.6c0,.56,0,1.2.05,1.63h-1l-.05-1.1h0a2.3,2.3,0,0,1-2.14,1.24c-1.52,0-2.69-1.29-2.69-3.2,0-2.09,1.29-3.38,2.82-3.38a2.11,2.11,0,0,1,1.9,1h0v-3.75Zm-1.15,5.5a2,2,0,0,0,0-.49,1.68,1.68,0,0,0-1.65-1.32c-1.18,0-1.88,1-1.88,2.43s.62,2.33,1.85,2.33a1.72,1.72,0,0,0,1.68-1.37,1.94,1.94,0,0,0,0-.49Z"/><path class="cls-5" d="M261.2,554.17a2,2,0,0,0,2.16,2.18,4.17,4.17,0,0,0,1.74-.32l.2.82a5.11,5.11,0,0,1-2.09.39,2.93,2.93,0,0,1-3.1-3.18c0-1.89,1.12-3.39,2.95-3.39,2.06,0,2.6,1.81,2.6,3a3.31,3.31,0,0,1,0,.54Zm3.36-.82a1.63,1.63,0,0,0-1.59-1.86,1.89,1.89,0,0,0-1.75,1.86Z"/><path class="cls-5" d="M186.31,597.32h-2.66v-1h6.48v1h-2.68v7.8h-1.14Z"/><path class="cls-5" d="M190.48,600.79c0-.74,0-1.37,0-2h1l0,1.24h.05a1.89,1.89,0,0,1,1.75-1.38,1,1,0,0,1,.32,0v1.07a2.21,2.21,0,0,0-.39,0,1.59,1.59,0,0,0-1.53,1.47,2.67,2.67,0,0,0-.06.53v3.35h-1.13Z"/><path class="cls-5" d="M198.15,605.12l-.09-.79h0a2.34,2.34,0,0,1-1.92.94,1.79,1.79,0,0,1-1.92-1.81c0-1.52,1.35-2.35,3.78-2.34V601a1.3,1.3,0,0,0-1.43-1.46,3.09,3.09,0,0,0-1.64.47l-.26-.75a3.88,3.88,0,0,1,2.07-.56c1.92,0,2.39,1.31,2.39,2.57v2.36a9.75,9.75,0,0,0,.1,1.5Zm-.17-3.21c-1.24,0-2.66.2-2.66,1.42a1,1,0,0,0,1.08,1.09,1.56,1.56,0,0,0,1.52-1A1.19,1.19,0,0,0,198,603Z"/><path class="cls-5" d="M200.94,600.53c0-.65,0-1.18-.06-1.7h1l.06,1h0a2.31,2.31,0,0,1,2.08-1.18c.87,0,2.22.52,2.22,2.68v3.75h-1.14V601.5c0-1-.38-1.86-1.46-1.86a1.62,1.62,0,0,0-1.53,1.17,1.64,1.64,0,0,0-.08.53v3.78h-1.14Z"/><path class="cls-5" d="M212.44,604.15h0a2.24,2.24,0,0,1-2,1.12c-1.47,0-2.66-1.28-2.66-3.19,0-2.35,1.52-3.39,2.84-3.39a2.07,2.07,0,0,1,1.94,1.09h0l0-.95h1.08c0,.53,0,1.08,0,1.73v7.14h-1.14Zm0-2.77a1.86,1.86,0,0,0-.05-.48,1.68,1.68,0,0,0-1.64-1.3c-1.18,0-1.9,1-1.9,2.42,0,1.24.6,2.34,1.86,2.34a1.71,1.71,0,0,0,1.64-1.25,2,2,0,0,0,.09-.55Z"/><path class="cls-5" d="M220.73,603.41q0,1,.06,1.71h-1l-.06-1h0a2.38,2.38,0,0,1-2.08,1.17c-1,0-2.17-.55-2.17-2.76v-3.68h1.14v3.48c0,1.2.37,2,1.41,2a1.67,1.67,0,0,0,1.51-1,1.82,1.82,0,0,0,.1-.59v-3.86h1.14Z"/><path class="cls-5" d="M223.91,597.06a.71.71,0,0,1-1.42,0,.69.69,0,0,1,.71-.71A.68.68,0,0,1,223.91,597.06Zm-1.28,8.06v-6.29h1.15v6.29Z"/><path class="cls-5" d="M225.67,595.89h1.15v9.23h-1.15Z"/><path class="cls-5" d="M230,597.06a.71.71,0,0,1-1.42,0,.69.69,0,0,1,.71-.71A.68.68,0,0,1,230,597.06Zm-1.28,8.06v-6.29h1.15v6.29Z"/><path class="cls-5" d="M233.16,597v1.81h1.64v.87h-1.64v3.39c0,.79.22,1.23.86,1.23a2.44,2.44,0,0,0,.66-.08l.06.86a2.93,2.93,0,0,1-1,.15,1.58,1.58,0,0,1-1.23-.48,2.3,2.3,0,0,1-.45-1.64V599.7h-1v-.87h1v-1.51Z"/><path class="cls-5" d="M236.62,598.83l1.38,3.72c.14.41.3.91.4,1.29h0c.11-.38.24-.86.4-1.32l1.25-3.69h1.21l-1.72,4.49c-.82,2.15-1.38,3.26-2.16,3.93a3.19,3.19,0,0,1-1.4.75l-.29-1a2.83,2.83,0,0,0,1-.56,3.28,3.28,0,0,0,1-1.27.92.92,0,0,0,.09-.27,1,1,0,0,0-.08-.3l-2.33-5.8Z"/><path class="cls-5" d="M245.12,605.12v-8.76h1.24l2.8,4.43a25.58,25.58,0,0,1,1.58,2.85h0c-.1-1.17-.13-2.24-.13-3.6v-3.67h1.07v8.76h-1.14l-2.79-4.44a28,28,0,0,1-1.63-2.93h0c.06,1.11.09,2.16.09,3.62v3.74Z"/><path class="cls-5" d="M259.33,601.92a3.08,3.08,0,0,1-3.13,3.35,3,3,0,0,1-3-3.24,3.07,3.07,0,0,1,3.12-3.34A3,3,0,0,1,259.33,601.92Zm-5,.07c0,1.38.79,2.42,1.91,2.42s1.91-1,1.91-2.45c0-1.06-.53-2.42-1.88-2.42S254.34,600.79,254.34,602Z"/><path class="cls-5" d="M266.21,595.89v7.61c0,.56,0,1.19.05,1.62h-1l-.05-1.09h0a2.32,2.32,0,0,1-2.14,1.24c-1.52,0-2.69-1.29-2.69-3.2,0-2.1,1.28-3.38,2.82-3.38a2.11,2.11,0,0,1,1.9,1h0v-3.76Zm-1.15,5.5a2,2,0,0,0-.05-.48,1.68,1.68,0,0,0-1.65-1.33c-1.18,0-1.89,1-1.89,2.44s.63,2.32,1.86,2.32A1.72,1.72,0,0,0,265,603a2,2,0,0,0,.05-.5Z"/><path class="cls-5" d="M268.74,602.18a2,2,0,0,0,2.16,2.19,4,4,0,0,0,1.74-.33l.2.82a5.16,5.16,0,0,1-2.1.39,2.92,2.92,0,0,1-3.09-3.17c0-1.9,1.12-3.39,3-3.39,2,0,2.6,1.8,2.6,3a4.82,4.82,0,0,1,0,.53Zm3.36-.81a1.63,1.63,0,0,0-1.59-1.86,1.9,1.9,0,0,0-1.76,1.86Z"/><path class="cls-5" d="M1029.43,641.65H159.76a12.51,12.51,0,0,1-12.5-12.5V450.21a12.52,12.52,0,0,1,12.5-12.5h869.67a12.52,12.52,0,0,1,12.5,12.5V629.15A12.51,12.51,0,0,1,1029.43,641.65ZM159.76,438.71a11.51,11.51,0,0,0-11.5,11.5V629.15a11.51,11.51,0,0,0,11.5,11.5h869.67a11.51,11.51,0,0,0,11.5-11.5V450.21a11.51,11.51,0,0,0-11.5-11.5Z"/></g></svg>