<svg xmlns="http://www.w3.org/2000/svg" viewBox="0 0 332.31 97.32"><defs><style>.cls-1{fill:#fff;}.cls-2,.cls-3{fill:none;stroke:#fff;}.cls-2{stroke-width:3px;}.cls-3{stroke-linecap:round;stroke-width:4px;}</style></defs><g id="Layer_2" data-name="Layer 2"><rect class="cls-1" x="161.06" y="56.38" width="9" height="22.55"/><polygon class="cls-1" points="10.23 18.52 53.74 50.38 62.98 50.38 23.94 18.52 10.23 18.52"/><polygon class="cls-1" points="31.59 18.52 69.57 50.38 78.8 50.38 45.3 18.52 31.59 18.52"/><polygon class="cls-1" points="53.74 18.52 84.34 50.38 94.89 50.38 66.93 18.52 53.74 18.52"/><polygon class="cls-1" points="73.26 18.52 99.37 50.38 110.45 50.38 86.97 18.52 73.26 18.52"/><polygon class="cls-1" points="105.44 58.88 114.41 58.88 125.22 73.13 117.31 73.13 105.44 58.88"/><polygon class="cls-1" points="100.96 58.88 91.73 58.88 105.44 73.13 113.36 73.13 100.96 58.88"/><polygon class="cls-1" points="85.14 58.88 75.38 58.88 91.73 73.13 99.38 73.13 85.14 58.88"/><polygon class="cls-1" points="69.84 58.88 60.35 58.88 78.81 73.13 87.38 73.13 69.84 58.88"/><rect class="cls-1" x="62.46" y="58.88" width="7.38" height="22.95"/><rect class="cls-1" x="94.37" y="58.88" width="6.59" height="22.95"/><polygon class="cls-1" points="125.22 58.88 168.07 58.88 168.07 48.07 119.42 48.07 123.74 56.11 125.22 58.88"/><line class="cls-2" x1="69.84" y1="54.4" x2="165.18" y2="54.4"/><circle class="cls-1" cx="67.4" cy="54.52" r="3.26"/><circle class="cls-1" cx="98.35" cy="54.52" r="3.26"/><line class="cls-3" x1="168.07" y1="7.72" x2="168.07" y2="87.83"/><line class="cls-3" x1="159.48" y1="12.66" x2="176.49" y2="12.66"/><circle class="cls-1" cx="167.98" cy="24.68" r="4.5"/><circle class="cls-1" cx="168.07" cy="38.39" r="6.53"/><polygon class="cls-1" points="167.98 42.34 167.98 34.45 125.95 34.45 129.81 42.34 167.98 42.34"/><path class="cls-1" d="M170.06,76.55H147.8c-4.44,0-8.07,3.39-8.07,7.52h0a7.83,7.83,0,0,0,8.07,7.52h22.26Z"/><rect class="cls-1" x="165.91" y="56.39" width="9" height="22.55" transform="translate(340.81 135.33) rotate(-180)"/><polygon class="cls-1" points="325.74 18.54 282.22 50.39 272.99 50.39 312.02 18.54 325.74 18.54"/><polygon class="cls-1" points="304.38 18.54 266.4 50.39 257.17 50.39 290.66 18.54 304.38 18.54"/><polygon class="cls-1" points="282.22 18.54 251.63 50.39 241.08 50.39 269.04 18.54 282.22 18.54"/><polygon class="cls-1" points="262.71 18.54 236.6 50.39 225.52 50.39 248.99 18.54 262.71 18.54"/><polygon class="cls-1" points="230.52 58.9 221.56 58.9 210.74 73.14 218.65 73.14 230.52 58.9"/><polygon class="cls-1" points="235 58.9 244.24 58.9 230.52 73.14 222.61 73.14 235 58.9"/><polygon class="cls-1" points="250.83 58.9 260.59 58.9 244.24 73.14 236.59 73.14 250.83 58.9"/><polygon class="cls-1" points="266.13 58.9 275.62 58.9 257.16 73.14 248.59 73.14 266.13 58.9"/><rect class="cls-1" x="266.13" y="58.9" width="7.38" height="22.95"/><rect class="cls-1" x="235.01" y="58.9" width="6.59" height="22.95"/><polygon class="cls-1" points="210.74 58.9 167.9 58.9 167.9 48.08 216.54 48.08 212.23 56.12 210.74 58.9"/><line class="cls-2" x1="266.13" y1="54.41" x2="170.79" y2="54.41"/><circle class="cls-1" cx="268.57" cy="54.53" r="3.26"/><circle class="cls-1" cx="237.62" cy="54.53" r="3.26"/><line class="cls-3" x1="167.9" y1="7.73" x2="167.9" y2="87.84"/><line class="cls-3" x1="176.49" y1="12.68" x2="159.48" y2="12.68"/><circle class="cls-1" cx="167.98" cy="24.69" r="4.5"/><circle class="cls-1" cx="167.9" cy="38.4" r="6.53"/><polygon class="cls-1" points="167.98 42.35 167.98 34.46 210.02 34.46 206.16 42.35 167.98 42.35"/><path class="cls-1" d="M165.91,76.57h22.26c4.44,0,8.07,3.38,8.07,7.51h0a7.83,7.83,0,0,1-8.07,7.52H165.91Z"/></g></svg>