<svg xmlns="http://www.w3.org/2000/svg" viewBox="0 0 1190 700"><defs><style>.cls-1{fill:#fff;}.cls-2{fill:#ddd;}.cls-3{fill:#b3b3b3;}.cls-4{fill:#434343;}.cls-5{fill:#4f87bf;}.cls-6{fill:#c1514e;}</style></defs><g id="Layer_2" data-name="Layer 2"><path class="cls-1" d="M362.69,407v-8.77h1.24l2.81,4.44a25.32,25.32,0,0,1,1.57,2.84h0c-.11-1.17-.13-2.24-.13-3.6v-3.67h1.06V407h-1.14l-2.78-4.45a26.4,26.4,0,0,1-1.64-2.93l0,0c.06,1.1.09,2.16.09,3.61V407Z"/><path class="cls-1" d="M372.38,398.19v3.67h4.24v-3.67h1.14V407h-1.14v-4.11h-4.24V407h-1.13v-8.77Z"/><path class="cls-1" d="M379.1,402.22a3,3,0,0,1,1.49-.4c1.12,0,1.59.6,1.59,1.22a1.29,1.29,0,0,1-1,1.17v0a1.3,1.3,0,0,1,1.21,1.26c0,.81-.73,1.52-2.06,1.52a2.94,2.94,0,0,1-1.48-.36l.24-.65a2.43,2.43,0,0,0,1.2.33c.8,0,1.15-.46,1.14-.87,0-.65-.69-.91-1.38-.91h-.35V404h.36c.48,0,1.17-.22,1.18-.84,0-.31-.23-.63-.82-.63a2.14,2.14,0,0,0-1.1.33Z"/><path class="cls-1" d="M386.44,398.19h4.72v.95h-3.59v2.91h3.32V403h-3.32v4h-1.13Z"/><path class="cls-1" d="M392.77,398.19h1.14V406h3.74V407h-4.88Z"/><path class="cls-1" d="M405.89,402.48c0,3-1.83,4.62-4.07,4.62s-3.94-1.8-3.94-4.45,1.73-4.6,4.07-4.6S405.89,399.88,405.89,402.48Zm-6.8.15c0,1.87,1,3.55,2.8,3.55s2.81-1.66,2.81-3.64c0-1.75-.91-3.57-2.8-3.57S399.09,400.7,399.09,402.63Z"/><path class="cls-1" d="M408.79,407l-2.22-8.77h1.19l1,4.44c.26,1.09.5,2.18.65,3h0c.14-.87.42-1.91.71-3.05l1.17-4.42h1.19l1.06,4.45c.25,1,.48,2.08.61,3h0c.18-1,.43-1.93.7-3l1.16-4.42h1.16L414.78,407H413.6l-1.1-4.57a25.46,25.46,0,0,1-.58-2.86h0a27.24,27.24,0,0,1-.68,2.86L410,407Z"/><path class="cls-1" d="M418.36,398.31a11.51,11.51,0,0,1,2.17-.18,3.58,3.58,0,0,1,2.53.71,2.16,2.16,0,0,1,.69,1.67,2.28,2.28,0,0,1-1.65,2.23v0a2.2,2.2,0,0,1,1.29,1.77,13.67,13.67,0,0,0,.68,2.41H422.9a10.9,10.9,0,0,1-.59-2.1c-.26-1.21-.73-1.66-1.75-1.7h-1.07V407h-1.13Zm1.13,4h1.16c1.21,0,2-.66,2-1.66s-.82-1.63-2-1.64a4.81,4.81,0,0,0-1.12.1Z"/><path class="cls-1" d="M426.83,404.2l-.91,2.76h-1.17l3-8.77h1.37l3,8.77h-1.21l-.94-2.76Zm2.88-.88-.86-2.53a15.15,15.15,0,0,1-.45-1.6h0c-.13.52-.27,1.06-.44,1.59l-.86,2.54Z"/><path class="cls-1" d="M434,399.16h-2.67v-1h6.49v1h-2.68V407H434Z"/><path class="cls-1" d="M443.37,402.85H440V406h3.8V407h-4.93v-8.77h4.74v.95H440v2.77h3.41Z"/><path class="cls-1" d="M362.69,469.2v-8.76h1.24l2.81,4.43a25.4,25.4,0,0,1,1.57,2.85h0c-.11-1.17-.13-2.24-.13-3.6v-3.67h1.06v8.76h-1.14l-2.78-4.44a26.4,26.4,0,0,1-1.64-2.93h0c.06,1.11.09,2.16.09,3.62v3.74Z"/><path class="cls-1" d="M372.38,460.44v3.67h4.24v-3.67h1.14v8.76h-1.14v-4.11h-4.24v4.11h-1.13v-8.76Z"/><path class="cls-1" d="M379.1,464.47a3,3,0,0,1,1.49-.4c1.12,0,1.59.6,1.59,1.22a1.29,1.29,0,0,1-1,1.17v0a1.29,1.29,0,0,1,1.21,1.26c0,.8-.73,1.52-2.06,1.52a2.83,2.83,0,0,1-1.48-.37l.24-.65a2.32,2.32,0,0,0,1.2.34c.8,0,1.15-.47,1.14-.87,0-.65-.69-.91-1.38-.91h-.35v-.6h.36c.48,0,1.17-.22,1.18-.83,0-.31-.23-.64-.82-.64a2.13,2.13,0,0,0-1.1.34Z"/><path class="cls-1" d="M393.93,464.73c0,3-1.83,4.62-4.07,4.62s-3.94-1.8-3.94-4.45,1.73-4.6,4.07-4.6S393.93,462.13,393.93,464.73Zm-6.8.14c0,1.88,1,3.55,2.8,3.55s2.81-1.65,2.81-3.64c0-1.74-.91-3.56-2.8-3.56S387.13,463,387.13,464.87Z"/><path class="cls-1" d="M396.53,460.44v5.19c0,2,.87,2.79,2,2.79s2.14-.85,2.14-2.79v-5.19h1.14v5.11c0,2.69-1.42,3.8-3.32,3.8s-3.14-1-3.14-3.75v-5.16Z"/><path class="cls-1" d="M405.48,461.4h-2.67v-1h6.49v1h-2.68v7.8h-1.14Z"/><path class="cls-1" d="M410.27,460.44h1.13v7.81h3.75v.95h-4.88Z"/><path class="cls-1" d="M421,465.09h-3.41v3.16h3.79v.95h-4.92v-8.76h4.73v.95h-3.6v2.77H421Z"/><path class="cls-1" d="M424.68,461.4H422v-1h6.49v1h-2.68v7.8h-1.14Z"/><path class="cls-1" d="M432.23,460.54a13.3,13.3,0,0,1,2.17-.16,3.65,3.65,0,0,1,2.46.72,2.38,2.38,0,0,1,.76,1.84,2.59,2.59,0,0,1-.67,1.87,4.42,4.42,0,0,1-3.59.88v3.51h-1.13Zm1.13,4.23a4.1,4.1,0,0,0,.94.09c1.36,0,2.19-.66,2.19-1.87s-.82-1.72-2.06-1.72a4.86,4.86,0,0,0-1.07.09Z"/><path class="cls-1" d="M439.14,460.56a11.7,11.7,0,0,1,2.18-.18,3.61,3.61,0,0,1,2.53.71,2.19,2.19,0,0,1,.69,1.66,2.3,2.3,0,0,1-1.65,2.24v0a2.2,2.2,0,0,1,1.29,1.77,13.48,13.48,0,0,0,.67,2.4h-1.17a11,11,0,0,1-.58-2.09c-.26-1.21-.73-1.66-1.76-1.7h-1.06v3.79h-1.14Zm1.14,4h1.15c1.21,0,2-.66,2-1.67s-.82-1.62-2-1.63a4.77,4.77,0,0,0-1.11.1Z"/><path class="cls-1" d="M450.68,465.09h-3.41v3.16h3.8v.95h-4.93v-8.76h4.73v.95h-3.6v2.77h3.41Z"/><path class="cls-1" d="M452.38,467.83a4,4,0,0,0,2,.57c1.15,0,1.83-.61,1.83-1.5s-.47-1.28-1.65-1.74c-1.43-.51-2.32-1.25-2.32-2.48s1.14-2.38,2.84-2.38a4,4,0,0,1,1.94.43l-.32.92a3.41,3.41,0,0,0-1.66-.42c-1.2,0-1.65.72-1.65,1.32,0,.82.53,1.22,1.74,1.69,1.48.57,2.24,1.28,2.24,2.57s-1,2.52-3.07,2.52a4.45,4.45,0,0,1-2.24-.56Z"/><path class="cls-1" d="M458.79,467.83a4,4,0,0,0,2,.57c1.15,0,1.83-.61,1.83-1.5s-.47-1.28-1.65-1.74c-1.43-.51-2.32-1.25-2.32-2.48s1.13-2.38,2.84-2.38a4,4,0,0,1,1.94.43l-.32.92a3.41,3.41,0,0,0-1.66-.42c-1.2,0-1.65.72-1.65,1.32,0,.82.53,1.22,1.74,1.69,1.48.57,2.24,1.28,2.24,2.57s-1,2.52-3.07,2.52a4.45,4.45,0,0,1-2.24-.56Z"/><path class="cls-1" d="M466.48,460.44v5.19c0,2,.88,2.79,2,2.79s2.13-.85,2.13-2.79v-5.19h1.14v5.11c0,2.69-1.42,3.8-3.31,3.8s-3.15-1-3.15-3.75v-5.16Z"/><path class="cls-1" d="M473.76,460.56a11.62,11.62,0,0,1,2.18-.18,3.61,3.61,0,0,1,2.53.71,2.19,2.19,0,0,1,.69,1.66,2.3,2.3,0,0,1-1.65,2.24v0a2.17,2.17,0,0,1,1.28,1.77,14.12,14.12,0,0,0,.68,2.4H478.3a11,11,0,0,1-.58-2.09c-.26-1.21-.73-1.66-1.76-1.7H474.9v3.79h-1.14Zm1.14,4h1.15c1.21,0,2-.66,2-1.67s-.82-1.62-2-1.63a4.77,4.77,0,0,0-1.11.1Z"/><path class="cls-1" d="M485.3,465.09h-3.41v3.16h3.8v.95h-4.93v-8.76h4.73v.95h-3.6v2.77h3.41Z"/><path class="cls-1" d="M362.69,531.45v-8.76h1.24l2.81,4.43a25.4,25.4,0,0,1,1.57,2.85l0,0c-.11-1.17-.13-2.23-.13-3.6v-3.66h1.06v8.76h-1.14L365.35,527a25.42,25.42,0,0,1-1.64-2.92h0c.06,1.11.09,2.16.09,3.62v3.74Z"/><path class="cls-1" d="M372.38,522.69v3.66h4.24v-3.66h1.14v8.76h-1.14v-4.11h-4.24v4.11h-1.13v-8.76Z"/><path class="cls-1" d="M379.1,526.72a2.85,2.85,0,0,1,1.49-.41c1.12,0,1.59.6,1.59,1.23a1.29,1.29,0,0,1-1,1.17v0a1.31,1.31,0,0,1,1.21,1.26c0,.81-.73,1.52-2.06,1.52a2.94,2.94,0,0,1-1.48-.36l.24-.65a2.42,2.42,0,0,0,1.2.34c.8,0,1.15-.47,1.14-.87,0-.65-.69-.91-1.38-.91h-.35v-.6h.36c.48,0,1.17-.22,1.18-.83,0-.32-.23-.64-.82-.64a2,2,0,0,0-1.1.34Z"/><path class="cls-1" d="M393.93,527c0,3-1.83,4.61-4.07,4.61s-3.94-1.79-3.94-4.44,1.73-4.61,4.07-4.61S393.93,524.38,393.93,527Zm-6.8.14c0,1.87,1,3.55,2.8,3.55s2.81-1.65,2.81-3.64c0-1.74-.91-3.56-2.8-3.56S387.13,525.2,387.13,527.12Z"/><path class="cls-1" d="M396.53,522.69v5.18c0,2,.87,2.8,2,2.8s2.14-.86,2.14-2.8v-5.18h1.14v5.11c0,2.69-1.42,3.79-3.32,3.79s-3.14-1-3.14-3.74v-5.16Z"/><path class="cls-1" d="M405.48,523.65h-2.67v-1h6.49v1h-2.68v7.8h-1.14Z"/><path class="cls-1" d="M410.27,522.69h1.13v7.81h3.75v1h-4.88Z"/><path class="cls-1" d="M421,527.34h-3.41v3.16h3.79v1h-4.92v-8.76h4.73v.95h-3.6v2.77H421Z"/><path class="cls-1" d="M424.68,523.65H422v-1h6.49v1h-2.68v7.8h-1.14Z"/><path class="cls-1" d="M433.36,523.65h-2.67v-1h6.49v1H434.5v7.8h-1.14Z"/><path class="cls-1" d="M442.69,527.34h-3.4v3.16h3.79v1h-4.92v-8.76h4.73v.95h-3.6v2.77h3.4Z"/><path class="cls-1" d="M451.94,527.6c-.07-1.22-.15-2.69-.13-3.78h0c-.3,1-.66,2.12-1.11,3.33l-1.54,4.25h-.86l-1.42-4.18a35.34,35.34,0,0,1-1-3.4h0c0,1.09-.09,2.56-.17,3.87l-.23,3.76h-1.08l.61-8.76h1.44l1.5,4.23c.36,1.08.66,2.05.88,3h0c.22-.89.53-1.85.92-3l1.56-4.23h1.45l.54,8.76h-1.1Z"/><path class="cls-1" d="M455,522.79a13.36,13.36,0,0,1,2.18-.17,3.58,3.58,0,0,1,2.45.73,2.36,2.36,0,0,1,.77,1.83,2.52,2.52,0,0,1-.68,1.87,3.6,3.6,0,0,1-2.67,1,4.16,4.16,0,0,1-.91-.08v3.51H455Zm1.14,4.23a3.94,3.94,0,0,0,.93.09c1.37,0,2.2-.67,2.2-1.88s-.82-1.71-2.07-1.71a4.82,4.82,0,0,0-1.06.09Z"/><path class="cls-1" d="M466.46,527.34h-3.41v3.16h3.8v1h-4.93v-8.76h4.73v.95h-3.6v2.77h3.41Z"/><path class="cls-1" d="M468.32,522.8a12.41,12.41,0,0,1,2.17-.18,3.53,3.53,0,0,1,2.53.72,2.19,2.19,0,0,1,.69,1.66,2.31,2.31,0,0,1-1.65,2.24v0a2.16,2.16,0,0,1,1.29,1.76,13.68,13.68,0,0,0,.67,2.41h-1.17a12.13,12.13,0,0,1-.58-2.09c-.26-1.21-.73-1.67-1.76-1.71h-1.06v3.8h-1.13Zm1.13,4h1.15c1.21,0,2-.66,2-1.66s-.82-1.62-2-1.64a4.17,4.17,0,0,0-1.12.11Z"/><path class="cls-1" d="M476.79,528.69l-.91,2.76h-1.17l3-8.76h1.36l3,8.76h-1.2l-.94-2.76Zm2.88-.88-.86-2.52c-.2-.58-.33-1.1-.46-1.6h0c-.13.52-.28,1-.45,1.58l-.85,2.54Z"/><path class="cls-1" d="M484,523.65h-2.66v-1h6.49v1h-2.68v7.8H484Z"/><path class="cls-1" d="M489.92,522.69v5.18c0,2,.87,2.8,2,2.8s2.14-.86,2.14-2.8v-5.18h1.14v5.11c0,2.69-1.42,3.79-3.32,3.79s-3.14-1-3.14-3.74v-5.16Z"/><path class="cls-1" d="M497.2,522.8a12.41,12.41,0,0,1,2.17-.18,3.57,3.57,0,0,1,2.54.72,2.19,2.19,0,0,1,.69,1.66,2.31,2.31,0,0,1-1.65,2.24v0a2.15,2.15,0,0,1,1.28,1.76,14.33,14.33,0,0,0,.68,2.41h-1.17a11.8,11.8,0,0,1-.59-2.09c-.26-1.21-.72-1.67-1.75-1.71h-1.07v3.8H497.2Zm1.13,4h1.16c1.21,0,2-.66,2-1.66s-.82-1.62-2-1.64a4.22,4.22,0,0,0-1.12.11Z"/><path class="cls-1" d="M508.73,527.34h-3.4v3.16h3.79v1H504.2v-8.76h4.73v.95h-3.6v2.77h3.4Z"/><path class="cls-1" d="M362.69,585.05a11.59,11.59,0,0,1,2.17-.18,3.62,3.62,0,0,1,2.54.71,2.2,2.2,0,0,1,.69,1.67,2.29,2.29,0,0,1-1.65,2.23v0a2.19,2.19,0,0,1,1.28,1.77,14.65,14.65,0,0,0,.68,2.41h-1.17a11.18,11.18,0,0,1-.58-2.1c-.26-1.21-.73-1.66-1.76-1.7h-1.07v3.8h-1.13Zm1.13,4H365c1.21,0,2-.66,2-1.66s-.82-1.63-2-1.64a5,5,0,0,0-1.12.1Z"/><path class="cls-1" d="M371.17,590.94l-.91,2.76h-1.17l3-8.77h1.36l3,8.77h-1.21l-.93-2.76Zm2.87-.88-.86-2.53c-.19-.57-.32-1.09-.45-1.59h0c-.13.52-.27,1-.44,1.58l-.86,2.54Z"/><path class="cls-1" d="M377.71,585.05a16.8,16.8,0,0,1,2.4-.18,5,5,0,0,1,3.55,1.09,4.05,4.05,0,0,1,1.24,3.15,4.61,4.61,0,0,1-1.26,3.4,5.4,5.4,0,0,1-3.88,1.26,17.21,17.21,0,0,1-2.05-.1Zm1.13,7.75a7.45,7.45,0,0,0,1.14.06,3.36,3.36,0,0,0,3.73-3.71c0-2.07-1.15-3.38-3.54-3.38a6.93,6.93,0,0,0-1.33.11Z"/><path class="cls-1" d="M387.5,584.93v8.77h-1.13v-8.77Z"/><path class="cls-1" d="M390.89,590.94,390,593.7h-1.17l3-8.77h1.36l3,8.77h-1.21l-.93-2.76Zm2.87-.88-.85-2.53c-.2-.57-.33-1.09-.46-1.59h0c-.13.52-.27,1-.44,1.58l-.86,2.54Z"/><path class="cls-1" d="M398.09,585.9h-2.66v-1h6.48v1h-2.67v7.8h-1.15Z"/><path class="cls-1" d="M410,589.22c0,3-1.84,4.62-4.07,4.62s-3.94-1.79-3.94-4.45,1.73-4.6,4.07-4.6S410,586.62,410,589.22Zm-6.8.15c0,1.87,1,3.55,2.79,3.55s2.81-1.65,2.81-3.64c0-1.75-.91-3.57-2.79-3.57S403.23,587.44,403.23,589.37Z"/><path class="cls-1" d="M411.5,585.05a11.51,11.51,0,0,1,2.17-.18,3.58,3.58,0,0,1,2.53.71,2.2,2.2,0,0,1,.69,1.67,2.29,2.29,0,0,1-1.65,2.23v0a2.2,2.2,0,0,1,1.29,1.77,14,14,0,0,0,.67,2.41H416a11.18,11.18,0,0,1-.58-2.1c-.26-1.21-.73-1.66-1.76-1.7h-1.06v3.8H411.5Zm1.13,4h1.15c1.21,0,2-.66,2-1.66s-.82-1.63-2-1.64a4.77,4.77,0,0,0-1.11.1Z"/><path class="cls-1" d="M421.25,585a13.13,13.13,0,0,1,2.17-.17,3.58,3.58,0,0,1,2.45.73,2.35,2.35,0,0,1,.77,1.83,2.54,2.54,0,0,1-.68,1.87,3.59,3.59,0,0,1-2.67,1,4.21,4.21,0,0,1-.91-.07v3.51h-1.13Zm1.13,4.22a3.52,3.52,0,0,0,.93.09c1.37,0,2.2-.66,2.2-1.87s-.82-1.71-2.07-1.71a4.82,4.82,0,0,0-1.06.09Z"/><path class="cls-1" d="M435.65,589.22c0,3-1.83,4.62-4.07,4.62s-3.94-1.79-3.94-4.45,1.73-4.6,4.07-4.6S435.65,586.62,435.65,589.22Zm-6.8.15c0,1.87,1,3.55,2.8,3.55s2.8-1.65,2.8-3.64c0-1.75-.91-3.57-2.79-3.57S428.85,587.44,428.85,589.37Z"/><path class="cls-1" d="M437,592.32a4,4,0,0,0,2,.57c1.16,0,1.83-.61,1.83-1.49s-.47-1.29-1.65-1.75c-1.43-.5-2.31-1.24-2.31-2.48s1.13-2.38,2.83-2.38a4,4,0,0,1,1.94.43l-.31.92a3.59,3.59,0,0,0-1.67-.41c-1.19,0-1.65.71-1.65,1.31,0,.82.54,1.22,1.74,1.69,1.49.57,2.24,1.29,2.24,2.57s-1,2.53-3.07,2.53a4.52,4.52,0,0,1-2.23-.56Z"/><path class="cls-1" d="M444.66,584.93v8.77h-1.13v-8.77Z"/><path class="cls-1" d="M448.3,585.9h-2.67v-1h6.49v1h-2.68v7.8H448.3Z"/><path class="cls-1" d="M454.23,584.93v8.77h-1.14v-8.77Z"/><path class="cls-1" d="M463.69,589.22c0,3-1.83,4.62-4.07,4.62s-3.94-1.79-3.94-4.45,1.73-4.6,4.07-4.6S463.69,586.62,463.69,589.22Zm-6.8.15c0,1.87,1,3.55,2.8,3.55s2.8-1.65,2.8-3.64c0-1.75-.91-3.57-2.79-3.57S456.89,587.44,456.89,589.37Z"/><path class="cls-1" d="M465.16,593.7v-8.77h1.23l2.81,4.44a25.51,25.51,0,0,1,1.58,2.84h0c-.1-1.17-.13-2.23-.13-3.6v-3.67h1.07v8.77h-1.15l-2.78-4.45a30,30,0,0,1-1.64-2.92h0c.07,1.1.1,2.16.1,3.61v3.75Z"/><path class="cls-1" d="M739.7,407v-8.77h1.24l2.81,4.44a25.32,25.32,0,0,1,1.57,2.84h0c-.1-1.17-.13-2.24-.13-3.6v-3.67h1.07V407h-1.14l-2.79-4.45a28,28,0,0,1-1.63-2.93l0,0c.06,1.1.09,2.16.09,3.61V407Z"/><path class="cls-1" d="M749.39,398.19v3.67h4.24v-3.67h1.14V407h-1.14v-4.11h-4.24V407h-1.13v-8.77Z"/><path class="cls-1" d="M756.11,402.22a3,3,0,0,1,1.49-.4c1.12,0,1.59.6,1.59,1.22a1.29,1.29,0,0,1-1,1.17v0a1.3,1.3,0,0,1,1.21,1.26c0,.81-.73,1.52-2.06,1.52a2.94,2.94,0,0,1-1.48-.36l.24-.65a2.43,2.43,0,0,0,1.2.33c.8,0,1.15-.46,1.14-.87,0-.65-.69-.91-1.38-.91h-.35V404h.36c.48,0,1.17-.22,1.18-.84,0-.31-.23-.63-.82-.63a2.14,2.14,0,0,0-1.1.33Z"/><path class="cls-1" d="M763.45,398.19h4.72v.95h-3.59v2.91h3.32V403h-3.32v4h-1.13Z"/><path class="cls-1" d="M769.78,398.19h1.14V406h3.74V407h-4.88Z"/><path class="cls-1" d="M782.9,402.48c0,3-1.83,4.62-4.07,4.62s-3.94-1.8-3.94-4.45,1.73-4.6,4.07-4.6S782.9,399.88,782.9,402.48Zm-6.8.15c0,1.87,1,3.55,2.8,3.55s2.81-1.66,2.81-3.64c0-1.75-.92-3.57-2.8-3.57S776.1,400.7,776.1,402.63Z"/><path class="cls-1" d="M785.8,407l-2.22-8.77h1.19l1,4.44c.26,1.09.5,2.18.65,3h0c.14-.87.42-1.91.71-3.05l1.17-4.42h1.19l1.06,4.45c.25,1,.48,2.08.61,3h0c.18-1,.43-1.93.7-3l1.16-4.42h1.16L791.79,407h-1.18l-1.11-4.57a27.65,27.65,0,0,1-.57-2.86h0a27.24,27.24,0,0,1-.68,2.86L787,407Z"/><path class="cls-1" d="M795.37,398.31a11.51,11.51,0,0,1,2.17-.18,3.58,3.58,0,0,1,2.53.71,2.16,2.16,0,0,1,.69,1.67,2.28,2.28,0,0,1-1.65,2.23v0a2.2,2.2,0,0,1,1.29,1.77,13.67,13.67,0,0,0,.68,2.41h-1.17a10.9,10.9,0,0,1-.59-2.1c-.26-1.21-.73-1.66-1.75-1.7H796.5V407h-1.13Zm1.13,4h1.16c1.21,0,2-.66,2-1.66s-.82-1.63-2-1.64a4.81,4.81,0,0,0-1.12.1Z"/><path class="cls-1" d="M803.84,404.2l-.91,2.76h-1.17l3-8.77h1.37l3,8.77h-1.21L807,404.2Zm2.88-.88-.86-2.53c-.2-.57-.33-1.09-.46-1.6h0c-.13.52-.27,1.06-.44,1.59l-.86,2.54Z"/><path class="cls-1" d="M811.05,399.16h-2.67v-1h6.49v1h-2.68V407h-1.14Z"/><path class="cls-1" d="M820.38,402.85H817V406h3.8V407h-4.93v-8.77h4.74v.95H817v2.77h3.41Z"/><path class="cls-1" d="M697.78,469.2v-8.76H699l2.81,4.43a25.58,25.58,0,0,1,1.58,2.85h0c-.1-1.17-.13-2.24-.13-3.6v-3.67h1.07v8.76h-1.15l-2.78-4.44a30.08,30.08,0,0,1-1.64-2.93h0c.07,1.11.09,2.16.09,3.62v3.74Z"/><path class="cls-1" d="M707.46,460.44v3.67h4.24v-3.67h1.15v8.76H711.7v-4.11h-4.24v4.11h-1.13v-8.76Z"/><path class="cls-1" d="M714.18,464.47a3,3,0,0,1,1.5-.4c1.12,0,1.59.6,1.59,1.22a1.29,1.29,0,0,1-1,1.17v0a1.28,1.28,0,0,1,1.21,1.26c0,.8-.72,1.52-2.05,1.52a2.81,2.81,0,0,1-1.48-.37l.23-.65a2.39,2.39,0,0,0,1.21.34c.79,0,1.14-.47,1.13-.87,0-.65-.69-.91-1.38-.91h-.35v-.6h.37c.48,0,1.17-.22,1.18-.83,0-.31-.23-.64-.82-.64a2.07,2.07,0,0,0-1.1.34Z"/><path class="cls-1" d="M729,464.73c0,3-1.84,4.62-4.07,4.62s-3.94-1.8-3.94-4.45,1.73-4.6,4.07-4.6S729,462.13,729,464.73Zm-6.8.14c0,1.88,1,3.55,2.79,3.55s2.81-1.65,2.81-3.64c0-1.74-.91-3.56-2.79-3.56S722.22,463,722.22,464.87Z"/><path class="cls-1" d="M731.62,460.44v5.19c0,2,.87,2.79,2,2.79s2.13-.85,2.13-2.79v-5.19h1.14v5.11c0,2.69-1.41,3.8-3.31,3.8s-3.15-1-3.15-3.75v-5.16Z"/><path class="cls-1" d="M740.56,461.4H737.9v-1h6.48v1h-2.67v7.8h-1.15Z"/><path class="cls-1" d="M745.36,460.44h1.13v7.81h3.74v.95h-4.87Z"/><path class="cls-1" d="M756,465.09h-3.41v3.16h3.8v.95h-4.93v-8.76h4.74v.95h-3.61v2.77H756Z"/><path class="cls-1" d="M759.76,461.4H757.1v-1h6.48v1h-2.67v7.8h-1.15Z"/><path class="cls-1" d="M767.31,460.54a13.54,13.54,0,0,1,2.18-.16,3.64,3.64,0,0,1,2.45.72,2.38,2.38,0,0,1,.77,1.84,2.56,2.56,0,0,1-.68,1.87,4.39,4.39,0,0,1-3.58.88v3.51h-1.14Zm1.14,4.23a3.94,3.94,0,0,0,.93.09c1.37,0,2.2-.66,2.2-1.87s-.82-1.72-2.07-1.72a4.82,4.82,0,0,0-1.06.09Z"/><path class="cls-1" d="M774.23,460.56a11.51,11.51,0,0,1,2.17-.18,3.62,3.62,0,0,1,2.54.71,2.19,2.19,0,0,1,.69,1.66A2.3,2.3,0,0,1,778,465v0a2.18,2.18,0,0,1,1.29,1.77,14.12,14.12,0,0,0,.68,2.4h-1.17a10.71,10.71,0,0,1-.59-2.09c-.26-1.21-.72-1.66-1.75-1.7h-1.07v3.79h-1.13Zm1.13,4h1.16c1.21,0,2-.66,2-1.67s-.82-1.62-2-1.63a4.81,4.81,0,0,0-1.12.1Z"/><path class="cls-1" d="M785.76,465.09h-3.4v3.16h3.79v.95h-4.93v-8.76H786v.95h-3.6v2.77h3.4Z"/><path class="cls-1" d="M787.46,467.83a4,4,0,0,0,2,.57c1.16,0,1.84-.61,1.84-1.5s-.47-1.28-1.66-1.74c-1.42-.51-2.31-1.25-2.31-2.48s1.13-2.38,2.83-2.38a4,4,0,0,1,1.94.43l-.31.92a3.44,3.44,0,0,0-1.66-.42c-1.2,0-1.66.72-1.66,1.32,0,.82.54,1.22,1.75,1.69,1.48.57,2.23,1.28,2.23,2.57s-1,2.52-3.06,2.52a4.45,4.45,0,0,1-2.24-.56Z"/><path class="cls-1" d="M793.87,467.83a4,4,0,0,0,2,.57c1.16,0,1.84-.61,1.84-1.5s-.47-1.28-1.66-1.74c-1.43-.51-2.31-1.25-2.31-2.48s1.13-2.38,2.83-2.38a4,4,0,0,1,1.94.43l-.31.92a3.45,3.45,0,0,0-1.67-.42c-1.19,0-1.65.72-1.65,1.32,0,.82.54,1.22,1.75,1.69,1.48.57,2.23,1.28,2.23,2.57s-1,2.52-3.07,2.52a4.44,4.44,0,0,1-2.23-.56Z"/><path class="cls-1" d="M801.57,460.44v5.19c0,2,.87,2.79,2,2.79s2.13-.85,2.13-2.79v-5.19h1.15v5.11c0,2.69-1.42,3.8-3.32,3.8s-3.14-1-3.14-3.75v-5.16Z"/><path class="cls-1" d="M808.85,460.56a11.51,11.51,0,0,1,2.17-.18,3.62,3.62,0,0,1,2.54.71,2.19,2.19,0,0,1,.69,1.66,2.3,2.3,0,0,1-1.66,2.24v0a2.18,2.18,0,0,1,1.29,1.77,14.12,14.12,0,0,0,.68,2.4h-1.17a10.71,10.71,0,0,1-.59-2.09c-.26-1.21-.73-1.66-1.75-1.7H810v3.79h-1.13Zm1.13,4h1.16c1.21,0,2-.66,2-1.67s-.82-1.62-2-1.63a4.81,4.81,0,0,0-1.12.1Z"/><path class="cls-1" d="M820.38,465.09H817v3.16h3.8v.95h-4.93v-8.76h4.74v.95H817v2.77h3.41Z"/><path class="cls-1" d="M674.34,531.45v-8.76h1.24l2.8,4.43A25.58,25.58,0,0,1,680,530l0,0c-.1-1.17-.13-2.23-.13-3.6v-3.66h1.07v8.76h-1.15L677,527a28.83,28.83,0,0,1-1.64-2.92h0c.06,1.11.09,2.16.09,3.62v3.74Z"/><path class="cls-1" d="M684,522.69v3.66h4.23v-3.66h1.15v8.76h-1.15v-4.11H684v4.11h-1.14v-8.76Z"/><path class="cls-1" d="M690.75,526.72a2.79,2.79,0,0,1,1.49-.41c1.12,0,1.59.6,1.59,1.23a1.29,1.29,0,0,1-1,1.17v0A1.31,1.31,0,0,1,694,530c0,.81-.73,1.52-2.06,1.52a2.94,2.94,0,0,1-1.48-.36l.23-.65a2.49,2.49,0,0,0,1.21.34c.8,0,1.15-.47,1.13-.87,0-.65-.69-.91-1.37-.91h-.36v-.6h.37c.48,0,1.17-.22,1.18-.83,0-.32-.23-.64-.82-.64a2,2,0,0,0-1.1.34Z"/><path class="cls-1" d="M705.58,527c0,3-1.83,4.61-4.07,4.61s-3.94-1.79-3.94-4.44,1.73-4.61,4.07-4.61S705.58,524.38,705.58,527Zm-6.8.14c0,1.87,1,3.55,2.8,3.55s2.8-1.65,2.8-3.64c0-1.74-.91-3.56-2.79-3.56S698.78,525.2,698.78,527.12Z"/><path class="cls-1" d="M708.18,522.69v5.18c0,2,.87,2.8,2,2.8s2.13-.86,2.13-2.8v-5.18h1.15v5.11c0,2.69-1.42,3.79-3.32,3.79s-3.14-1-3.14-3.74v-5.16Z"/><path class="cls-1" d="M717.12,523.65h-2.66v-1h6.48v1h-2.67v7.8h-1.15Z"/><path class="cls-1" d="M721.92,522.69h1.13v7.81h3.74v1h-4.87Z"/><path class="cls-1" d="M732.59,527.34h-3.4v3.16H733v1h-4.92v-8.76h4.73v.95h-3.6v2.77h3.4Z"/><path class="cls-1" d="M736.32,523.65h-2.66v-1h6.49v1h-2.68v7.8h-1.15Z"/><path class="cls-1" d="M745,523.65h-2.67v-1h6.49v1h-2.68v7.8H745Z"/><path class="cls-1" d="M754.34,527.34h-3.4v3.16h3.79v1H749.8v-8.76h4.74v.95h-3.6v2.77h3.4Z"/><path class="cls-1" d="M763.58,527.6c-.06-1.22-.14-2.69-.13-3.78h0c-.3,1-.67,2.12-1.11,3.33l-1.55,4.25h-.85l-1.42-4.18c-.42-1.23-.77-2.36-1-3.4h0c0,1.09-.09,2.56-.17,3.87l-.24,3.76H756l.61-8.76H758l1.5,4.23c.36,1.08.66,2.05.88,3h0c.22-.89.53-1.85.92-3l1.56-4.23h1.44l.55,8.76h-1.1Z"/><path class="cls-1" d="M766.65,522.79a13.23,13.23,0,0,1,2.17-.17,3.59,3.59,0,0,1,2.46.73,2.36,2.36,0,0,1,.77,1.83,2.57,2.57,0,0,1-.68,1.87,3.62,3.62,0,0,1-2.68,1,4.16,4.16,0,0,1-.91-.08v3.51h-1.13Zm1.13,4.23a4.1,4.1,0,0,0,.94.09c1.36,0,2.2-.67,2.2-1.88s-.82-1.71-2.07-1.71a4.92,4.92,0,0,0-1.07.09Z"/><path class="cls-1" d="M778.11,527.34H774.7v3.16h3.8v1h-4.93v-8.76h4.73v.95h-3.6v2.77h3.41Z"/><path class="cls-1" d="M780,522.8a12.5,12.5,0,0,1,2.17-.18,3.57,3.57,0,0,1,2.54.72,2.19,2.19,0,0,1,.69,1.66,2.31,2.31,0,0,1-1.65,2.24v0A2.18,2.18,0,0,1,785,529a13.68,13.68,0,0,0,.67,2.41H784.5a11.23,11.23,0,0,1-.58-2.09c-.26-1.21-.73-1.67-1.76-1.71h-1.07v3.8H780Zm1.13,4h1.16c1.21,0,2-.66,2-1.66s-.82-1.62-2-1.64a4.28,4.28,0,0,0-1.12.11Z"/><path class="cls-1" d="M788.44,528.69l-.91,2.76h-1.17l3-8.76h1.36l3,8.76h-1.21l-.93-2.76Zm2.87-.88-.85-2.52c-.2-.58-.33-1.1-.46-1.6h0c-.13.52-.27,1-.44,1.58l-.86,2.54Z"/><path class="cls-1" d="M795.64,523.65H793v-1h6.48v1h-2.67v7.8h-1.15Z"/><path class="cls-1" d="M801.57,522.69v5.18c0,2,.87,2.8,2,2.8s2.13-.86,2.13-2.8v-5.18h1.15v5.11c0,2.69-1.42,3.79-3.32,3.79s-3.14-1-3.14-3.74v-5.16Z"/><path class="cls-1" d="M808.85,522.8a12.41,12.41,0,0,1,2.17-.18,3.57,3.57,0,0,1,2.54.72,2.18,2.18,0,0,1,.68,1.66,2.3,2.3,0,0,1-1.65,2.24v0a2.16,2.16,0,0,1,1.29,1.76,14.33,14.33,0,0,0,.68,2.41h-1.17a11,11,0,0,1-.59-2.09c-.26-1.21-.73-1.67-1.75-1.71H810v3.8h-1.13Zm1.13,4h1.16c1.21,0,2-.66,2-1.66s-.82-1.62-2-1.64a4.17,4.17,0,0,0-1.12.11Z"/><path class="cls-1" d="M820.38,527.34H817v3.16h3.8v1h-4.93v-8.76h4.74v.95H817v2.77h3.41Z"/><path class="cls-1" d="M711.22,585.05a11.51,11.51,0,0,1,2.17-.18,3.62,3.62,0,0,1,2.54.71,2.2,2.2,0,0,1,.69,1.67,2.29,2.29,0,0,1-1.66,2.23v0a2.2,2.2,0,0,1,1.29,1.77,14.65,14.65,0,0,0,.68,2.41h-1.17a10.9,10.9,0,0,1-.59-2.1c-.26-1.21-.73-1.66-1.75-1.7h-1.07v3.8h-1.13Zm1.13,4h1.16c1.21,0,2-.66,2-1.66s-.81-1.63-2-1.64a4.81,4.81,0,0,0-1.12.1Z"/><path class="cls-1" d="M719.7,590.94l-.91,2.76h-1.17l3-8.77H722l3,8.77h-1.21l-.94-2.76Zm2.87-.88-.86-2.53c-.19-.57-.32-1.09-.45-1.59h0c-.13.52-.27,1-.44,1.58l-.86,2.54Z"/><path class="cls-1" d="M726.24,585.05a16.57,16.57,0,0,1,2.4-.18,5,5,0,0,1,3.55,1.09,4,4,0,0,1,1.23,3.15,4.61,4.61,0,0,1-1.26,3.4,5.39,5.39,0,0,1-3.87,1.26,17.09,17.09,0,0,1-2-.1Zm1.13,7.75a7.38,7.38,0,0,0,1.14.06,3.36,3.36,0,0,0,3.73-3.71c0-2.07-1.16-3.38-3.55-3.38a6.89,6.89,0,0,0-1.32.11Z"/><path class="cls-1" d="M736,584.93v8.77h-1.13v-8.77Z"/><path class="cls-1" d="M739.42,590.94l-.91,2.76h-1.17l3-8.77h1.37l3,8.77h-1.21l-.94-2.76Zm2.87-.88-.86-2.53c-.19-.57-.32-1.09-.45-1.59h0c-.13.52-.27,1-.44,1.58l-.86,2.54Z"/><path class="cls-1" d="M746.62,585.9H744v-1h6.49v1h-2.68v7.8h-1.14Z"/><path class="cls-1" d="M758.55,589.22c0,3-1.83,4.62-4.07,4.62s-3.94-1.79-3.94-4.45,1.73-4.6,4.07-4.6S758.55,586.62,758.55,589.22Zm-6.8.15c0,1.87,1,3.55,2.8,3.55s2.81-1.65,2.81-3.64c0-1.75-.91-3.57-2.8-3.57S751.75,587.44,751.75,589.37Z"/><path class="cls-1" d="M760,585.05a11.51,11.51,0,0,1,2.17-.18,3.62,3.62,0,0,1,2.54.71,2.2,2.2,0,0,1,.69,1.67,2.29,2.29,0,0,1-1.65,2.23v0a2.21,2.21,0,0,1,1.28,1.77,14.65,14.65,0,0,0,.68,2.41h-1.17a11.73,11.73,0,0,1-.59-2.1c-.26-1.21-.72-1.66-1.75-1.7h-1.07v3.8H760Zm1.13,4h1.16c1.21,0,2-.66,2-1.66s-.82-1.63-2-1.64a4.81,4.81,0,0,0-1.12.1Z"/><path class="cls-1" d="M769.77,585a13.23,13.23,0,0,1,2.17-.17,3.59,3.59,0,0,1,2.46.73,2.35,2.35,0,0,1,.77,1.83,2.58,2.58,0,0,1-.68,1.87,3.62,3.62,0,0,1-2.68,1,4.21,4.21,0,0,1-.91-.07v3.51h-1.13Zm1.13,4.22a3.6,3.6,0,0,0,.94.09c1.36,0,2.2-.66,2.2-1.87s-.82-1.71-2.07-1.71a4.92,4.92,0,0,0-1.07.09Z"/><path class="cls-1" d="M784.18,589.22c0,3-1.84,4.62-4.07,4.62s-3.94-1.79-3.94-4.45,1.73-4.6,4.07-4.6S784.18,586.62,784.18,589.22Zm-6.8.15c0,1.87,1,3.55,2.79,3.55s2.81-1.65,2.81-3.64c0-1.75-.91-3.57-2.79-3.57S777.38,587.44,777.38,589.37Z"/><path class="cls-1" d="M785.49,592.32a4,4,0,0,0,2,.57c1.15,0,1.83-.61,1.83-1.49s-.47-1.29-1.65-1.75c-1.43-.5-2.32-1.24-2.32-2.48s1.14-2.38,2.84-2.38a4,4,0,0,1,1.94.43l-.32.92a3.54,3.54,0,0,0-1.66-.41c-1.2,0-1.65.71-1.65,1.31,0,.82.53,1.22,1.74,1.69,1.48.57,2.24,1.29,2.24,2.57s-1,2.53-3.07,2.53a4.56,4.56,0,0,1-2.24-.56Z"/><path class="cls-1" d="M793.19,584.93v8.77h-1.14v-8.77Z"/><path class="cls-1" d="M796.83,585.9h-2.67v-1h6.49v1H798v7.8h-1.14Z"/><path class="cls-1" d="M802.75,584.93v8.77h-1.13v-8.77Z"/><path class="cls-1" d="M812.22,589.22c0,3-1.84,4.62-4.07,4.62s-3.94-1.79-3.94-4.45,1.73-4.6,4.07-4.6S812.22,586.62,812.22,589.22Zm-6.8.15c0,1.87,1,3.55,2.79,3.55s2.81-1.65,2.81-3.64c0-1.75-.91-3.57-2.79-3.57S805.42,587.44,805.42,589.37Z"/><path class="cls-1" d="M813.69,593.7v-8.77h1.23l2.81,4.44a23.82,23.82,0,0,1,1.57,2.84h0c-.11-1.17-.13-2.23-.13-3.6v-3.67h1.06v8.77h-1.14l-2.78-4.45a28,28,0,0,1-1.64-2.92h0c.07,1.1.09,2.16.09,3.61v3.75Z"/></g><g id="Layer_5" data-name="Layer 5"><polygon class="cls-2" points="353.45 615.44 215.78 615.44 204.7 649.86 341.98 649.86 353.45 615.44"/><polygon class="cls-3" points="353.32 615.31 215.65 615.31 204.57 579.84 341.85 579.84 353.32 615.31"/><polygon class="cls-2" points="353.45 546.21 215.78 546.21 204.7 579.84 341.98 579.84 353.45 546.21"/><polygon class="cls-3" points="353.32 546.21 215.65 546.21 204.57 510.74 341.85 510.74 353.32 546.21"/><polygon class="cls-2" points="353.45 475.79 215.78 475.79 204.7 511 341.98 511 353.45 475.79"/><polygon class="cls-3" points="352.88 476 216.19 476 205.19 441.16 341.49 441.16 352.88 476"/><polygon class="cls-2" points="353.45 406.67 215.78 406.67 204.7 441.88 341.98 441.88 353.45 406.67"/><polygon class="cls-2" points="353.45 337.54 215.78 337.54 204.7 372.75 341.98 372.75 353.45 337.54"/><polygon class="cls-3" points="352.88 406.88 216.19 406.88 205.19 372.04 341.49 372.04 352.88 406.88"/><polygon class="cls-2" points="985.3 371.96 847.63 371.96 836.55 337.54 973.82 337.54 985.3 371.96"/><polygon class="cls-3" points="985.16 372.09 847.49 372.09 836.42 407.56 973.69 407.56 985.16 372.09"/><polygon class="cls-2" points="985.3 441.19 847.63 441.19 836.55 407.56 973.82 407.56 985.3 441.19"/><polygon class="cls-3" points="985.16 441.19 847.49 441.19 836.42 476.66 973.69 476.66 985.16 441.19"/><polygon class="cls-2" points="985.3 511.61 847.63 511.61 836.55 476.4 973.82 476.4 985.3 511.61"/><polygon class="cls-3" points="984.73 511.39 848.03 511.39 837.03 546.24 973.33 546.24 984.73 511.39"/><polygon class="cls-2" points="985.3 580.73 847.63 580.73 836.55 545.52 973.82 545.52 985.3 580.73"/><polygon class="cls-2" points="985.3 649.86 847.63 649.86 836.55 614.65 973.82 614.65 985.3 649.86"/><polygon class="cls-3" points="984.73 580.52 848.03 580.52 837.03 615.36 973.33 615.36 984.73 580.52"/></g><g id="Layer_1" data-name="Layer 1"><g id="Layer_3" data-name="Layer 3"><polygon class="cls-1" points="206.06 650.35 203.22 649.37 215.05 615.14 203.05 580.41 215.05 545.7 203.05 510.98 215.05 476.26 203.05 441.55 215.05 406.84 203.05 372.13 215.22 336.92 218.06 337.9 206.22 372.13 218.22 406.84 206.22 441.55 218.22 476.26 206.22 510.98 218.22 545.7 206.22 580.41 218.22 615.14 206.06 650.35"/><polygon class="cls-1" points="342.93 650.35 340.1 649.37 351.93 615.14 339.93 580.41 351.93 545.7 339.93 510.98 351.93 476.26 339.93 441.55 351.93 406.84 339.93 372.13 352.1 336.92 354.93 337.9 343.1 372.13 355.1 406.84 343.1 441.55 355.1 476.26 343.1 510.98 355.1 545.7 343.1 580.41 355.1 615.14 342.93 650.35"/><rect class="cls-1" x="215.78" y="335.91" width="137.67" height="3"/><rect class="cls-1" x="204.7" y="648.36" width="137.27" height="3"/><rect class="cls-1" x="204.7" y="370.85" width="137.27" height="1"/><rect class="cls-1" x="215.78" y="406.46" width="137.67" height="1"/><rect class="cls-1" x="204.7" y="440.87" width="137.27" height="1"/><rect class="cls-1" x="215.78" y="475.29" width="137.67" height="1"/><rect class="cls-1" x="204.7" y="510.5" width="135.69" height="1"/><rect class="cls-1" x="215.78" y="545.71" width="137.67" height="1"/><rect class="cls-1" x="204.7" y="579.33" width="135.69" height="1"/><rect class="cls-1" x="215.78" y="614.94" width="137.67" height="1"/><polygon class="cls-1" points="983.88 650.35 971.71 615.14 983.71 580.41 971.71 545.7 983.71 510.98 971.71 476.26 983.71 441.55 971.71 406.84 983.71 372.13 971.88 337.9 974.72 336.92 986.88 372.13 974.88 406.84 986.88 441.55 974.88 476.26 986.88 510.98 974.88 545.7 986.88 580.41 974.88 615.14 986.72 649.37 983.88 650.35"/><polygon class="cls-1" points="847 650.35 834.83 615.14 846.83 580.41 834.83 545.7 846.83 510.98 834.83 476.26 846.83 441.55 834.83 406.84 846.83 372.13 835 337.9 837.84 336.92 850 372.13 838 406.84 850 441.55 838 476.26 850 510.98 838 545.7 850 580.41 838 615.14 849.84 649.37 847 650.35"/><rect class="cls-1" x="836.48" y="335.91" width="137.67" height="3"/><rect class="cls-1" x="847.96" y="648.36" width="137.27" height="3"/><rect class="cls-1" x="847.96" y="370.85" width="137.27" height="1"/><rect class="cls-1" x="836.48" y="406.46" width="137.67" height="1"/><rect class="cls-1" x="847.96" y="440.87" width="137.27" height="1"/><rect class="cls-1" x="836.48" y="475.29" width="137.67" height="1"/><rect class="cls-1" x="849.54" y="510.5" width="135.69" height="1"/><rect class="cls-1" x="836.48" y="545.71" width="137.67" height="1"/><rect class="cls-1" x="849.54" y="579.33" width="135.69" height="1"/><rect class="cls-1" x="836.48" y="614.94" width="137.67" height="1"/></g><path class="cls-4" d="M595,44.19c-40.86,0-74,6.08-74,13.58v261H669v-261C669,50.27,635.86,44.19,595,44.19Z"/><path class="cls-1" d="M670.48,320.24h-151V57.77c0-9.9,38-15.08,75.48-15.08s75.48,5.18,75.48,15.08Zm-148-3h145V57.77c0-5-27.57-12.08-72.48-12.08s-72.48,7-72.48,12.08Z"/><path class="cls-4" d="M556.24,301.54H473.88a9.16,9.16,0,0,1-9.05-9.23,12,12,0,0,0-12-11.82H192.53a12,12,0,0,0-12,12v46a12,12,0,0,0,12,12h48a15,15,0,0,1,15,15V615.53a12,12,0,0,0,12,12h20.31a12,12,0,0,0,12-12V365.45a15,15,0,0,1,15-15h138a12,12,0,0,0,12-12h0a6.26,6.26,0,0,1,6.26-6.27h85.14a5,5,0,0,0,5-5V306.54A5,5,0,0,0,556.24,301.54Z"/><path class="cls-1" d="M287.87,629H267.56a13.52,13.52,0,0,1-13.5-13.5V365.45A13.51,13.51,0,0,0,240.56,352h-48a13.51,13.51,0,0,1-13.5-13.5v-46a13.51,13.51,0,0,1,13.5-13.5h260.3a13.56,13.56,0,0,1,13.5,13.29,7.67,7.67,0,0,0,7.55,7.76h82.36a6.51,6.51,0,0,1,6.5,6.5v20.65a6.51,6.51,0,0,1-6.5,6.5H471.1a4.78,4.78,0,0,0-4.77,4.77,13.51,13.51,0,0,1-13.5,13.5h-138a13.51,13.51,0,0,0-13.5,13.49V615.53A13.52,13.52,0,0,1,287.87,629ZM192.53,282a10.52,10.52,0,0,0-10.5,10.5v46a10.52,10.52,0,0,0,10.5,10.5h48a16.51,16.51,0,0,1,16.5,16.49V615.53a10.51,10.51,0,0,0,10.5,10.5h20.31a10.51,10.51,0,0,0,10.5-10.5V365.45A16.51,16.51,0,0,1,314.87,349h138a10.52,10.52,0,0,0,10.5-10.5,7.78,7.78,0,0,1,7.77-7.77h85.14a3.5,3.5,0,0,0,3.5-3.5V306.54a3.5,3.5,0,0,0-3.5-3.5H473.88a10.64,10.64,0,0,1-10.55-10.71A10.54,10.54,0,0,0,452.83,282Z"/><path class="cls-4" d="M997.86,280.59H737.38a12,12,0,0,0-11.83,12.13,9,9,0,0,1-9,8.92H634.15a5,5,0,0,0-5,5v20.64a5,5,0,0,0,5,5h85.14a6.27,6.27,0,0,1,6.27,6.27h0a12,12,0,0,0,12,12H875.11a15,15,0,0,1,15,15v250a12,12,0,0,0,12,12h20.31a12,12,0,0,0,12-12v-250a14.94,14.94,0,0,1,14.94-14.94h48.48a12,12,0,0,0,12-12v-46A12,12,0,0,0,997.86,280.59Z"/><path class="cls-1" d="M922.44,629H902.13a13.52,13.52,0,0,1-13.5-13.5V365.58a13.54,13.54,0,0,0-13.52-13.53H737.56a13.51,13.51,0,0,1-13.5-13.5,4.78,4.78,0,0,0-4.77-4.77H634.15a6.51,6.51,0,0,1-6.5-6.5V306.64a6.51,6.51,0,0,1,6.5-6.5h82.36a7.57,7.57,0,0,0,7.54-7.44,13.48,13.48,0,0,1,13.33-13.61H997.86a13.51,13.51,0,0,1,13.5,13.5v46a13.51,13.51,0,0,1-13.5,13.5H949.38a13.46,13.46,0,0,0-13.44,13.44v250A13.52,13.52,0,0,1,922.44,629ZM634.15,303.14a3.5,3.5,0,0,0-3.5,3.5v20.64a3.5,3.5,0,0,0,3.5,3.5h85.14a7.78,7.78,0,0,1,7.77,7.77,10.51,10.51,0,0,0,10.5,10.5H875.11a16.55,16.55,0,0,1,16.52,16.53v250a10.51,10.51,0,0,0,10.5,10.5h20.31a10.51,10.51,0,0,0,10.5-10.5v-250a16.46,16.46,0,0,1,16.44-16.44h48.48a10.51,10.51,0,0,0,10.5-10.5v-46a10.51,10.51,0,0,0-10.5-10.5H737.38a10.5,10.5,0,0,0-10.33,10.66,10.58,10.58,0,0,1-10.54,10.39Z"/><rect class="cls-4" x="545.55" y="288.67" width="98.9" height="53.8" rx="5"/><path class="cls-1" d="M639.45,344h-88.9a6.51,6.51,0,0,1-6.5-6.5v-43.8a6.51,6.51,0,0,1,6.5-6.5h88.9a6.51,6.51,0,0,1,6.5,6.5v43.8A6.51,6.51,0,0,1,639.45,344Zm-88.9-53.8a3.5,3.5,0,0,0-3.5,3.5v43.8a3.5,3.5,0,0,0,3.5,3.5h88.9a3.5,3.5,0,0,0,3.5-3.5v-43.8a3.5,3.5,0,0,0-3.5-3.5Z"/><path class="cls-1" d="M566.52,90.27v9.44h-2.14V90.27Z"/><path class="cls-1" d="M568.37,99.71V90.27h2.49l2,3.46A26.71,26.71,0,0,1,574.36,97h0a35.23,35.23,0,0,1-.18-3.94V90.27h2v9.44h-2.24l-2-3.64a34.45,34.45,0,0,1-1.63-3.34l0,0c.06,1.25.09,2.58.09,4.12v2.84Z"/><path class="cls-1" d="M579.85,92.06h-2.54V90.27h7.26v1.79H582v7.65h-2.14Z"/><path class="cls-1" d="M591.31,95.72h-3.47V98h3.88v1.75h-6V90.27h5.82V92h-3.68v2h3.47Z"/><path class="cls-1" d="M593.17,90.4a17.78,17.78,0,0,1,2.85-.2,4.82,4.82,0,0,1,3.05.74,2.41,2.41,0,0,1,.87,2,2.5,2.5,0,0,1-1.67,2.32v0a2.39,2.39,0,0,1,1.26,1.77c.3,1.06.59,2.3.77,2.66h-2.18a11.47,11.47,0,0,1-.66-2.2c-.25-1.18-.66-1.5-1.53-1.51h-.64v3.71h-2.12Zm2.12,4.06h.84c1.06,0,1.69-.53,1.69-1.36s-.58-1.3-1.57-1.32a5.09,5.09,0,0,0-1,.07Z"/><path class="cls-1" d="M601.47,99.71V90.27H604l2,3.46A26.71,26.71,0,0,1,607.47,97h0a35.23,35.23,0,0,1-.18-3.94V90.27h2v9.44h-2.24l-2-3.64a37,37,0,0,1-1.64-3.34l0,0c.06,1.25.09,2.58.09,4.12v2.84Z"/><path class="cls-1" d="M613.33,97.29l-.67,2.42h-2.21l2.88-9.44h2.8l2.93,9.44h-2.29L616,97.29Zm2.4-1.6-.59-2c-.17-.56-.34-1.26-.48-1.82h0c-.14.56-.28,1.27-.44,1.82l-.56,2Z"/><path class="cls-1" d="M620.32,90.27h2.14v7.65h3.75v1.79h-5.89Z"/><path class="cls-1" d="M570.94,116.51l-3-9.44h2.34l1.15,4c.32,1.12.61,2.2.84,3.38h0c.24-1.14.53-2.26.85-3.34l1.21-4h2.27l-3.18,9.44Z"/><path class="cls-1" d="M586.15,111.69c0,3.1-1.88,5-4.64,5s-4.44-2.11-4.44-4.8,1.81-4.94,4.6-4.94S586.15,109.09,586.15,111.69Zm-6.82.13c0,1.85.87,3.15,2.3,3.15s2.27-1.37,2.27-3.21-.82-3.15-2.29-3.15S579.33,110,579.33,111.82Z"/><path class="cls-1" d="M587.55,107.07h2.14v7.65h3.75v1.79h-5.89Z"/><path class="cls-1" d="M596.39,107.07v5.43c0,1.63.62,2.46,1.71,2.46s1.74-.79,1.74-2.46v-5.43H602v5.29c0,2.92-1.47,4.3-3.94,4.3s-3.78-1.31-3.78-4.32v-5.27Z"/><path class="cls-1" d="M611.8,112.9c0-1.14-.09-2.51-.09-3.88h0c-.29,1.2-.68,2.55-1,3.65l-1.15,3.69h-1.66l-1-3.66c-.31-1.11-.63-2.45-.86-3.68h0c0,1.27-.09,2.73-.16,3.9l-.17,3.59h-2l.61-9.44h2.84l.92,3.15c.3,1.09.59,2.27.8,3.38h0c.27-1.1.59-2.34.9-3.39l1-3.14h2.79l.51,9.44h-2.08Z"/><path class="cls-1" d="M621.27,112.52H617.8v2.24h3.88v1.75h-6v-9.44h5.82v1.75H617.8v2h3.47Z"/><path class="cls-1" d="M584.89,128.49c0,3.1-1.88,5-4.64,5s-4.44-2.11-4.44-4.8,1.81-4.94,4.6-4.94S584.89,125.89,584.89,128.49Zm-6.82.13c0,1.85.87,3.15,2.3,3.15s2.27-1.37,2.27-3.21c0-1.69-.82-3.15-2.29-3.15S578.07,126.78,578.07,128.62Z"/><path class="cls-1" d="M586.29,123.87h5.77v1.75h-3.63v2.16h3.39v1.73h-3.39v3.8h-2.14Z"/><path class="cls-1" d="M598.63,123.87v9.44h-2.14v-9.44Z"/><path class="cls-1" d="M600.55,131.11a5.54,5.54,0,0,0,2.37.59c1,0,1.5-.41,1.5-1s-.45-.93-1.59-1.33c-1.56-.55-2.59-1.42-2.59-2.79,0-1.61,1.35-2.84,3.58-2.84a5.8,5.8,0,0,1,2.4.47l-.47,1.72a4.55,4.55,0,0,0-2-.44c-.92,0-1.37.42-1.37.91s.53.86,1.75,1.33c1.67.61,2.45,1.48,2.45,2.81,0,1.58-1.22,2.93-3.81,2.93a6.21,6.21,0,0,1-2.67-.57Z"/><path class="cls-1" d="M608.11,131.11a5.5,5.5,0,0,0,2.37.59c1,0,1.5-.41,1.5-1s-.45-.93-1.59-1.33c-1.56-.55-2.59-1.42-2.59-2.79,0-1.61,1.35-2.84,3.57-2.84a5.81,5.81,0,0,1,2.41.47l-.47,1.72a4.55,4.55,0,0,0-2-.44c-.92,0-1.37.42-1.37.91s.53.86,1.75,1.33c1.67.61,2.45,1.48,2.45,2.81,0,1.58-1.22,2.93-3.81,2.93a6.21,6.21,0,0,1-2.67-.57Z"/><path class="cls-1" d="M431.74,241.63l-.68,2.42h-2.21l2.89-9.44h2.8l2.92,9.44h-2.29l-.73-2.42Zm2.39-1.6-.59-2c-.17-.56-.33-1.26-.47-1.82h0c-.14.56-.28,1.28-.44,1.82l-.56,2Z"/><path class="cls-1" d="M446.7,240.43c0-1.13-.08-2.5-.08-3.88h0c-.3,1.21-.69,2.55-1.05,3.66l-1.15,3.68h-1.67l-1-3.65c-.3-1.11-.63-2.45-.85-3.69h0c-.05,1.28-.1,2.74-.17,3.91l-.16,3.59h-2l.6-9.44H442l.92,3.15c.29,1.09.59,2.27.8,3.38h0c.27-1.1.59-2.34.9-3.4l1-3.13h2.78l.52,9.44h-2.09Z"/><path class="cls-1" d="M458.55,240.43c0-1.13-.09-2.5-.09-3.88h0c-.29,1.21-.68,2.55-1.05,3.66l-1.15,3.68h-1.66l-1-3.65c-.31-1.11-.63-2.45-.86-3.69h0c-.06,1.28-.1,2.74-.17,3.91l-.17,3.59h-2l.61-9.44h2.84l.92,3.15c.3,1.09.59,2.27.8,3.38h0c.27-1.1.59-2.34.9-3.4l1-3.13h2.79l.52,9.44h-2.09Z"/><path class="cls-1" d="M471.05,239.23c0,3.1-1.88,5-4.64,5s-4.44-2.11-4.44-4.8,1.81-5,4.6-5S471.05,236.62,471.05,239.23Zm-6.82.13c0,1.84.87,3.15,2.3,3.15s2.27-1.37,2.27-3.21-.82-3.15-2.29-3.15S464.23,237.52,464.23,239.36Z"/><path class="cls-1" d="M472.45,244.05v-9.44h2.49l2,3.46a27.3,27.3,0,0,1,1.54,3.23h0a34.94,34.94,0,0,1-.18-3.93v-2.76h2v9.44H478l-2-3.64a37,37,0,0,1-1.64-3.34l0,0c.06,1.24.09,2.57.09,4.11v2.85Z"/><path class="cls-1" d="M484.25,234.61v9.44h-2.14v-9.44Z"/><path class="cls-1" d="M488.3,241.63l-.68,2.42h-2.21l2.89-9.44h2.8l2.92,9.44h-2.29l-.73-2.42Zm2.39-1.6-.59-2c-.17-.56-.33-1.26-.47-1.82h0c-.14.56-.28,1.28-.44,1.82l-.56,2Z"/><path class="cls-1" d="M443.58,251.53a17.82,17.82,0,0,1,2.88-.19,4.56,4.56,0,0,1,2.89.75,2.78,2.78,0,0,1,1,2.19,3,3,0,0,1-.87,2.24,4.37,4.37,0,0,1-3.07,1,5.16,5.16,0,0,1-.73,0v3.38h-2.11Zm2.11,4.29a3.45,3.45,0,0,0,.72.06c1.13,0,1.83-.58,1.83-1.55s-.6-1.38-1.66-1.38a3.9,3.9,0,0,0-.89.08Z"/><path class="cls-1" d="M453.84,251.41v5.43c0,1.63.62,2.45,1.71,2.45s1.74-.78,1.74-2.45v-5.43h2.13v5.29c0,2.92-1.47,4.3-3.94,4.3s-3.78-1.31-3.78-4.33v-5.26Z"/><path class="cls-1" d="M469.24,257.23c0-1.13-.08-2.5-.08-3.88h0c-.3,1.21-.69,2.55-1.05,3.66l-1.15,3.68h-1.67l-1-3.65c-.3-1.11-.63-2.45-.85-3.69h0c-.05,1.28-.1,2.74-.17,3.91l-.17,3.59h-2l.6-9.44h2.85l.92,3.15c.29,1.09.59,2.27.8,3.37h0c.27-1.09.59-2.33.9-3.39l1-3.13H471l.52,9.44h-2.09Z"/><path class="cls-1" d="M473.1,251.53a18,18,0,0,1,2.89-.19,4.53,4.53,0,0,1,2.88.75,2.75,2.75,0,0,1,1,2.19,3.05,3.05,0,0,1-.86,2.24,4.37,4.37,0,0,1-3.07,1,5.07,5.07,0,0,1-.73,0v3.38H473.1Zm2.12,4.29a3.35,3.35,0,0,0,.71.06c1.14,0,1.84-.58,1.84-1.55s-.6-1.38-1.67-1.38a3.79,3.79,0,0,0-.88.08Z"/><path class="cls-1" d="M698.77,241.63l-.67,2.42h-2.22l2.89-9.44h2.8l2.93,9.44h-2.3l-.73-2.42Zm2.39-1.6-.58-2c-.17-.56-.34-1.26-.48-1.82h0c-.14.56-.28,1.28-.43,1.82l-.56,2Z"/><path class="cls-1" d="M713.74,240.43c0-1.13-.09-2.5-.09-3.88h0c-.29,1.21-.69,2.55-1.05,3.66l-1.15,3.68h-1.66l-1-3.65c-.31-1.11-.63-2.45-.86-3.69h0c-.05,1.28-.09,2.74-.16,3.91l-.17,3.59h-2l.61-9.44H709l.92,3.15c.3,1.09.59,2.27.8,3.38h0c.27-1.1.59-2.34.9-3.4l1-3.13h2.79l.51,9.44h-2.08Z"/><path class="cls-1" d="M725.58,240.43c0-1.13-.08-2.5-.08-3.88h0c-.3,1.21-.69,2.55-1.06,3.66l-1.14,3.68h-1.67l-1-3.65c-.31-1.11-.63-2.45-.85-3.69h0c-.06,1.28-.1,2.74-.17,3.91l-.17,3.59h-2l.6-9.44h2.84l.93,3.15c.29,1.09.59,2.27.8,3.38h0c.26-1.1.59-2.34.89-3.4l1-3.13h2.79l.52,9.44h-2.09Z"/><path class="cls-1" d="M738.08,239.23c0,3.1-1.87,5-4.63,5s-4.44-2.11-4.44-4.8,1.8-5,4.59-5S738.08,236.62,738.08,239.23Zm-6.82.13c0,1.84.87,3.15,2.3,3.15s2.27-1.37,2.27-3.21-.81-3.15-2.29-3.15S731.26,237.52,731.26,239.36Z"/><path class="cls-1" d="M739.48,244.05v-9.44H742l2,3.46a27.3,27.3,0,0,1,1.54,3.23h0a34.85,34.85,0,0,1-.19-3.93v-2.76h2v9.44h-2.24l-2-3.64a34.5,34.5,0,0,1-1.64-3.34l0,0c0,1.24.08,2.57.08,4.11v2.85Z"/><path class="cls-1" d="M751.28,234.61v9.44h-2.14v-9.44Z"/><path class="cls-1" d="M755.33,241.63l-.67,2.42h-2.22l2.89-9.44h2.8l2.93,9.44h-2.3l-.73-2.42Zm2.39-1.6-.59-2c-.16-.56-.33-1.26-.47-1.82h0c-.14.56-.28,1.28-.43,1.82l-.56,2Z"/><path class="cls-1" d="M710.61,251.53a17.87,17.87,0,0,1,2.89-.19,4.55,4.55,0,0,1,2.88.75,2.78,2.78,0,0,1,1,2.19,3,3,0,0,1-.87,2.24,4.34,4.34,0,0,1-3.06,1,5,5,0,0,1-.73,0v3.38h-2.12Zm2.12,4.29a3.28,3.28,0,0,0,.71.06c1.14,0,1.84-.58,1.84-1.55s-.61-1.38-1.67-1.38a3.72,3.72,0,0,0-.88.08Z"/><path class="cls-1" d="M720.87,251.41v5.43c0,1.63.62,2.45,1.71,2.45s1.74-.78,1.74-2.45v-5.43h2.13v5.29c0,2.92-1.47,4.3-3.94,4.3s-3.78-1.31-3.78-4.33v-5.26Z"/><path class="cls-1" d="M736.28,257.23c0-1.13-.09-2.5-.09-3.88h0c-.29,1.21-.69,2.55-1,3.66L734,260.69h-1.66l-1-3.65c-.31-1.11-.63-2.45-.86-3.69h0c0,1.28-.09,2.74-.16,3.91l-.17,3.59h-2l.61-9.44h2.84l.92,3.15c.3,1.09.59,2.27.8,3.37h0c.27-1.09.59-2.33.9-3.39l1-3.13H738l.51,9.44h-2.08Z"/><path class="cls-1" d="M740.14,251.53a17.73,17.73,0,0,1,2.88-.19,4.56,4.56,0,0,1,2.89.75,2.78,2.78,0,0,1,1,2.19,3,3,0,0,1-.87,2.24,4.37,4.37,0,0,1-3.07,1,5.16,5.16,0,0,1-.73,0v3.38h-2.11Zm2.11,4.29a3.39,3.39,0,0,0,.72.06c1.13,0,1.83-.58,1.83-1.55s-.6-1.38-1.67-1.38a3.86,3.86,0,0,0-.88.08Z"/><path class="cls-1" d="M190.47,263.49a19,19,0,0,1,2.85-.2,4.75,4.75,0,0,1,3.05.75,2.38,2.38,0,0,1,.87,2,2.5,2.5,0,0,1-1.67,2.33v0a2.33,2.33,0,0,1,1.26,1.76c.3,1.07.59,2.3.77,2.66h-2.18a11.81,11.81,0,0,1-.66-2.19c-.25-1.18-.66-1.5-1.53-1.52h-.64v3.71h-2.12Zm2.12,4.06h.84c1.07,0,1.7-.53,1.7-1.36s-.59-1.3-1.57-1.31a5.14,5.14,0,0,0-1,.07Z"/><path class="cls-1" d="M201.1,270.38l-.67,2.42h-2.21l2.88-9.44h2.8l2.93,9.44h-2.3l-.72-2.42Zm2.4-1.6-.59-2c-.17-.56-.34-1.26-.48-1.82h0c-.14.56-.28,1.28-.43,1.82l-.56,2Z"/><path class="cls-1" d="M208.09,263.49a18.39,18.39,0,0,1,2.88-.2,6.11,6.11,0,0,1,3.87,1,4.18,4.18,0,0,1,1.6,3.56,4.78,4.78,0,0,1-1.57,3.82,6.78,6.78,0,0,1-4.36,1.22,18.37,18.37,0,0,1-2.42-.14Zm2.14,7.7a3.31,3.31,0,0,0,.74.05c1.94,0,3.2-1.05,3.2-3.31a2.71,2.71,0,0,0-3-3,3.89,3.89,0,0,0-1,.09Z"/><path class="cls-1" d="M220,263.36v9.44h-2.14v-9.44Z"/><path class="cls-1" d="M224,270.38l-.67,2.42h-2.22l2.89-9.44h2.8l2.93,9.44h-2.3l-.73-2.42Zm2.4-1.6-.59-2c-.17-.56-.34-1.26-.48-1.82h0c-.14.56-.28,1.28-.43,1.82l-.56,2Z"/><path class="cls-1" d="M231.66,265.16h-2.53v-1.8h7.25v1.8h-2.57v7.64h-2.15Z"/><path class="cls-1" d="M245.75,268c0,3.09-1.88,5-4.64,5s-4.44-2.12-4.44-4.81,1.81-4.94,4.6-4.94S245.75,265.38,245.75,268Zm-6.82.12c0,1.85.87,3.15,2.3,3.15s2.27-1.37,2.27-3.2-.82-3.16-2.29-3.16S238.93,266.28,238.93,268.11Z"/><path class="cls-1" d="M247.15,263.49a18.89,18.89,0,0,1,2.84-.2,4.75,4.75,0,0,1,3,.75,2.38,2.38,0,0,1,.87,2,2.51,2.51,0,0,1-1.66,2.33v0a2.38,2.38,0,0,1,1.26,1.76,24.31,24.31,0,0,0,.77,2.66h-2.19a11.81,11.81,0,0,1-.66-2.19c-.25-1.18-.66-1.5-1.52-1.52h-.65v3.71h-2.11Zm2.11,4.06h.84c1.07,0,1.7-.53,1.7-1.36s-.59-1.3-1.57-1.31a5.23,5.23,0,0,0-1,.07Z"/><path class="cls-1" d="M258.28,263.36h2.14V271h3.75v1.79h-5.89Z"/><path class="cls-1" d="M273.54,268c0,3.09-1.87,5-4.63,5s-4.45-2.12-4.45-4.81,1.81-4.94,4.6-4.94S273.54,265.38,273.54,268Zm-6.82.12c0,1.85.87,3.15,2.3,3.15s2.27-1.37,2.27-3.2-.82-3.16-2.29-3.16S266.72,266.28,266.72,268.11Z"/><path class="cls-1" d="M283.58,268c0,3.09-1.88,5-4.64,5s-4.44-2.12-4.44-4.81,1.81-4.94,4.6-4.94S283.58,265.38,283.58,268Zm-6.82.12c0,1.85.87,3.15,2.3,3.15s2.26-1.37,2.26-3.2-.81-3.16-2.28-3.16S276.76,266.28,276.76,268.11Z"/><path class="cls-1" d="M285,263.49a17.48,17.48,0,0,1,2.88-.2,4.56,4.56,0,0,1,2.89.76,2.77,2.77,0,0,1,1,2.19,3,3,0,0,1-.86,2.24,4.42,4.42,0,0,1-3.07,1,5.16,5.16,0,0,1-.73,0v3.37H285Zm2.11,4.29a3.45,3.45,0,0,0,.71.05c1.14,0,1.84-.57,1.84-1.54s-.6-1.39-1.67-1.39a3.63,3.63,0,0,0-.88.09Z"/><path class="cls-1" d="M298.14,270.38l-.68,2.42h-2.21l2.89-9.44h2.8l2.93,9.44h-2.3l-.73-2.42Zm2.39-1.6-.59-2c-.16-.56-.33-1.26-.47-1.82h0c-.14.56-.28,1.28-.44,1.82l-.56,2Z"/><path class="cls-1" d="M886.12,263.49a18.89,18.89,0,0,1,2.84-.2,4.75,4.75,0,0,1,3,.75,2.38,2.38,0,0,1,.87,2,2.51,2.51,0,0,1-1.66,2.33v0a2.38,2.38,0,0,1,1.26,1.76,24.31,24.31,0,0,0,.77,2.66h-2.19a11.81,11.81,0,0,1-.66-2.19c-.25-1.18-.66-1.5-1.52-1.52h-.65v3.71h-2.11Zm2.11,4.06h.84c1.07,0,1.7-.53,1.7-1.36s-.59-1.3-1.57-1.31a5.23,5.23,0,0,0-1,.07Z"/><path class="cls-1" d="M896.74,270.38l-.67,2.42h-2.21l2.88-9.44h2.8l2.93,9.44h-2.29l-.73-2.42Zm2.4-1.6-.59-2c-.17-.56-.34-1.26-.48-1.82h0c-.14.56-.28,1.28-.44,1.82l-.56,2Z"/><path class="cls-1" d="M903.73,263.49a18.48,18.48,0,0,1,2.88-.2,6.11,6.11,0,0,1,3.87,1,4.18,4.18,0,0,1,1.6,3.56,4.78,4.78,0,0,1-1.57,3.82,6.78,6.78,0,0,1-4.36,1.22,18.37,18.37,0,0,1-2.42-.14Zm2.14,7.7a3.31,3.31,0,0,0,.74.05c1.94,0,3.2-1.05,3.2-3.31a2.71,2.71,0,0,0-3-3,3.89,3.89,0,0,0-1,.09Z"/><path class="cls-1" d="M915.62,263.36v9.44h-2.15v-9.44Z"/><path class="cls-1" d="M919.66,270.38,919,272.8h-2.21l2.88-9.44h2.8l2.93,9.44h-2.3l-.72-2.42Zm2.4-1.6-.59-2c-.17-.56-.34-1.26-.48-1.82h0c-.14.56-.28,1.28-.43,1.82l-.56,2Z"/><path class="cls-1" d="M927.31,265.16h-2.54v-1.8H932v1.8h-2.58v7.64h-2.14Z"/><path class="cls-1" d="M941.39,268c0,3.09-1.87,5-4.63,5s-4.44-2.12-4.44-4.81,1.8-4.94,4.59-4.94S941.39,265.38,941.39,268Zm-6.82.12c0,1.85.87,3.15,2.3,3.15s2.27-1.37,2.27-3.2-.81-3.16-2.28-3.16S934.57,266.28,934.57,268.11Z"/><path class="cls-1" d="M942.79,263.49a18.89,18.89,0,0,1,2.84-.2,4.8,4.8,0,0,1,3.06.75,2.37,2.37,0,0,1,.86,2,2.51,2.51,0,0,1-1.66,2.33v0a2.38,2.38,0,0,1,1.26,1.76,26.84,26.84,0,0,0,.77,2.66h-2.19a12.11,12.11,0,0,1-.65-2.19c-.26-1.18-.66-1.5-1.53-1.52h-.65v3.71h-2.11Zm2.11,4.06h.84c1.07,0,1.7-.53,1.7-1.36s-.59-1.3-1.57-1.31a5.23,5.23,0,0,0-1,.07Z"/><path class="cls-1" d="M953.92,263.36h2.14V271h3.75v1.79h-5.89Z"/><path class="cls-1" d="M969.18,268c0,3.09-1.87,5-4.63,5s-4.44-2.12-4.44-4.81,1.8-4.94,4.59-4.94S969.18,265.38,969.18,268Zm-6.82.12c0,1.85.87,3.15,2.3,3.15s2.27-1.37,2.27-3.2-.81-3.16-2.29-3.16S962.36,266.28,962.36,268.11Z"/><path class="cls-1" d="M979.22,268c0,3.09-1.88,5-4.64,5s-4.44-2.12-4.44-4.81,1.81-4.94,4.6-4.94S979.22,265.38,979.22,268Zm-6.82.12c0,1.85.87,3.15,2.3,3.15s2.26-1.37,2.26-3.2-.81-3.16-2.28-3.16S972.4,266.28,972.4,268.11Z"/><path class="cls-1" d="M980.62,263.49a17.58,17.58,0,0,1,2.88-.2,4.56,4.56,0,0,1,2.89.76,2.78,2.78,0,0,1,1,2.19,3,3,0,0,1-.87,2.24,4.42,4.42,0,0,1-3.07,1,5.16,5.16,0,0,1-.73,0v3.37h-2.11Zm2.11,4.29a3.5,3.5,0,0,0,.72.05c1.13,0,1.83-.57,1.83-1.54s-.6-1.39-1.67-1.39a3.63,3.63,0,0,0-.88.09Z"/><path class="cls-1" d="M991.58,263.49a17.12,17.12,0,0,1,2.76-.2,5.13,5.13,0,0,1,2.78.54,2,2,0,0,1,1.14,1.84,2.13,2.13,0,0,1-1.55,2v0a2.36,2.36,0,0,1,1.87,2.32,2.52,2.52,0,0,1-1,2,6,6,0,0,1-3.71.85,16.44,16.44,0,0,1-2.31-.14Zm2.11,3.61h.7c1.12,0,1.73-.46,1.73-1.16s-.55-1.09-1.52-1.09a7.58,7.58,0,0,0-.91,0Zm0,4.19a6.39,6.39,0,0,0,.83,0c1,0,1.82-.36,1.82-1.36s-.85-1.33-1.92-1.33h-.73Z"/><path class="cls-1" d="M581.66,301.54v3.62h3.52v-3.62h2.13V311h-2.13v-4h-3.52v4h-2.14v-9.44Z"/><path class="cls-1" d="M594.78,307h-3.47v2.24h3.88V311h-6v-9.44H595v1.75h-3.68v2h3.47Z"/><path class="cls-1" d="M598.84,308.56l-.67,2.42H596l2.89-9.44h2.8l2.93,9.44h-2.3l-.73-2.42Zm2.39-1.6-.59-2c-.16-.56-.33-1.26-.47-1.82h0c-.14.56-.28,1.28-.43,1.82l-.56,2Z"/><path class="cls-1" d="M606.48,303.33H604v-1.79h7.25v1.79h-2.58V311h-2.14Z"/><path class="cls-1" d="M566.86,323.79h-3.48V326h3.88v1.75h-6v-9.44h5.83v1.75h-3.69v2h3.48Z"/><path class="cls-1" d="M573.69,327.78l-.86-1.71c-.35-.66-.57-1.15-.84-1.7h0c-.2.55-.44,1-.73,1.7l-.79,1.71H568l2.73-4.78-2.64-4.66h2.45l.83,1.72c.28.57.49,1,.72,1.57h0c.23-.6.41-1,.65-1.57l.8-1.72H576l-2.66,4.6,2.8,4.84Z"/><path class="cls-1" d="M583.7,327.51a6,6,0,0,1-2.42.41c-3.27,0-4.95-2-4.95-4.72a4.82,4.82,0,0,1,5.16-5,5.67,5.67,0,0,1,2.32.42l-.43,1.7a4.7,4.7,0,0,0-1.8-.35,3.1,3.1,0,0,0,0,6.2,5.59,5.59,0,0,0,1.78-.3Z"/><path class="cls-1" d="M587.24,318.34V322h3.51v-3.62h2.13v9.44h-2.13v-3.95h-3.51v3.95H585.1v-9.44Z"/><path class="cls-1" d="M596.94,325.35l-.67,2.43h-2.21l2.88-9.44h2.8l2.93,9.44h-2.3l-.73-2.43Zm2.4-1.59-.59-2c-.17-.56-.34-1.26-.48-1.82h0c-.14.56-.28,1.28-.43,1.82l-.56,2Z"/><path class="cls-1" d="M603.92,327.78v-9.44h2.5l2,3.46a27.3,27.3,0,0,1,1.54,3.23h0a34.94,34.94,0,0,1-.18-3.93v-2.76h2v9.44H609.5l-2-3.64a37,37,0,0,1-1.64-3.34l0,0c.06,1.24.09,2.57.09,4.11v2.85Z"/><path class="cls-1" d="M621.47,327.34a10.33,10.33,0,0,1-3.15.54,5.28,5.28,0,0,1-3.84-1.28,4.56,4.56,0,0,1-1.33-3.43c0-3.14,2.3-4.93,5.39-4.93a6.57,6.57,0,0,1,2.62.46l-.45,1.71a5.23,5.23,0,0,0-2.19-.41,3.08,3.08,0,0,0-.16,6.15,2.74,2.74,0,0,0,1-.14v-2H618v-1.67h3.51Z"/><path class="cls-1" d="M628.75,323.79h-3.47V326h3.88v1.75h-6v-9.44H629v1.75h-3.68v2h3.47Z"/><path class="cls-5" d="M474.19,293.42a18.19,18.19,0,1,0-17.55,13.45h27.89V293.42Z"/><path class="cls-1" d="M486,308.37H456.64a19.7,19.7,0,1,1,19.69-19.7,18.94,18.94,0,0,1-.28,3.25h10ZM456.64,272a16.7,16.7,0,1,0,0,33.4H483V294.92h-10.8l.51-1.89a17,17,0,0,0,.59-4.36A16.71,16.71,0,0,0,456.64,272Z"/><path class="cls-5" d="M715.81,293.42a18.19,18.19,0,1,1,17.55,13.45H705.47V293.42Z"/><path class="cls-1" d="M733.36,308.37H704V291.92h10a18.94,18.94,0,0,1-.28-3.25,19.7,19.7,0,1,1,19.69,19.7Zm-26.39-3h26.39a16.7,16.7,0,1,0-16.69-16.7,17,17,0,0,0,.59,4.36l.51,1.89H707Z"/></g><g id="Layer_4" data-name="Layer 4"><rect class="cls-6" x="660.66" y="344.64" width="36.04" height="2"/><polygon class="cls-6" points="691.08 353.04 694.23 345.64 691.08 338.23 708.64 345.64 691.08 353.04"/><rect class="cls-5" x="328.56" y="262.21" width="36.04" height="2"/><polygon class="cls-5" points="358.98 270.62 362.13 263.21 358.98 255.81 376.54 263.21 358.98 270.62"/><line class="cls-1" x1="527.86" y1="345.64" x2="479.88" y2="345.64"/><rect class="cls-6" x="491.82" y="344.64" width="36.04" height="2"/><polygon class="cls-6" points="497.44 338.23 494.29 345.64 497.44 353.04 479.88 345.64 497.44 338.23"/><line class="cls-1" x1="860.41" y1="263.37" x2="812.43" y2="263.37"/><rect class="cls-5" x="824.37" y="262.37" width="36.04" height="2"/><polygon class="cls-5" points="829.99 255.96 826.84 263.37 829.99 270.77 812.43 263.37 829.99 255.96"/></g></svg>