<svg xmlns="http://www.w3.org/2000/svg" viewBox="0 0 1190 700"><defs><style>.cls-1{fill:#434343;}.cls-1,.cls-3,.cls-4{stroke:#fff;stroke-miterlimit:10;}.cls-1,.cls-3{stroke-width:3px;}.cls-11,.cls-2,.cls-5{fill:#fff;}.cls-3{fill:#465ca9;}.cls-4{fill:none;}.cls-5{font-size:14px;font-family:MyriadPro-Bold, Myriad Pro;font-weight:700;}.cls-6{letter-spacing:-0.06em;}.cls-7{letter-spacing:-0.07em;}.cls-8{letter-spacing:0em;}.cls-9{letter-spacing:-0.02em;}.cls-10{letter-spacing:0em;}.cls-11{font-size:13px;font-family:MyriadPro-Regular, Myriad Pro;}.cls-12{letter-spacing:-0.09em;}.cls-13{letter-spacing:-0.07em;}.cls-14{letter-spacing:-0.02em;}.cls-15{letter-spacing:-0.08em;}</style></defs><g id="Layer_1" data-name="Layer 1"><rect class="cls-1" x="143.37" y="321.54" width="152.03" height="56.91" rx="5"/><rect class="cls-1" x="305.98" y="321.54" width="152.03" height="56.91" rx="5"/><rect class="cls-1" x="731.99" y="321.54" width="152.03" height="56.91" rx="5"/><rect class="cls-1" x="894.59" y="321.54" width="152.03" height="56.91" rx="5"/><rect class="cls-1" x="468.58" y="321.54" width="252.85" height="56.91" rx="5"/><circle class="cls-1" cx="595" cy="392.44" r="60.57"/><path class="cls-2" d="M584.54,388.5a6.23,6.23,0,0,1-2.42.4c-3.27,0-5-2-5-4.72a4.81,4.81,0,0,1,5.16-5,5.51,5.51,0,0,1,2.32.42l-.43,1.69a4.7,4.7,0,0,0-1.8-.35,3.11,3.11,0,0,0,0,6.21,5.31,5.31,0,0,0,1.78-.31Z"/><path class="cls-2" d="M585.94,379.45a18.78,18.78,0,0,1,2.84-.2,4.82,4.82,0,0,1,3.05.74,2.41,2.41,0,0,1,.87,2,2.49,2.49,0,0,1-1.67,2.32v0a2.33,2.33,0,0,1,1.26,1.76c.3,1.07.59,2.3.77,2.66h-2.18a11.74,11.74,0,0,1-.66-2.2c-.25-1.17-.66-1.5-1.53-1.51h-.64v3.71h-2.11Zm2.11,4.06h.84c1.07,0,1.7-.53,1.7-1.36s-.59-1.3-1.57-1.32a6.23,6.23,0,0,0-1,.07Z"/><path class="cls-2" d="M599.85,384.77h-3.47V387h3.88v1.75h-6v-9.44h5.82v1.75h-3.68v2h3.47Z"/><path class="cls-2" d="M603.34,388.76l-2.24-9.44h2.28l.71,3.9c.21,1.12.41,2.33.56,3.29h0c.16-1,.38-2.16.62-3.32l.8-3.87h2.27l.75,4c.21,1.11.37,2.12.51,3.17h0c.13-1.05.35-2.16.54-3.28l.77-3.87h2.17l-2.43,9.44h-2.32l-.79-4.06a29.21,29.21,0,0,1-.45-2.91h0c-.17,1.06-.32,2-.55,2.91l-.89,4.06Z"/><path class="cls-2" d="M572.23,402c0-1.14-.09-2.51-.09-3.88h0c-.29,1.2-.69,2.55-1.05,3.65l-1.15,3.69h-1.67l-1-3.66c-.31-1.1-.63-2.45-.86-3.68h0c-.05,1.27-.09,2.73-.16,3.91l-.17,3.58h-2l.61-9.44h2.84l.92,3.15c.3,1.1.59,2.27.8,3.38h0c.27-1.09.59-2.34.9-3.39l1-3.14h2.79l.51,9.44h-2.08Z"/><path class="cls-2" d="M584.73,400.74c0,3.1-1.88,5-4.64,5s-4.44-2.12-4.44-4.81,1.81-4.94,4.6-4.94S584.73,398.14,584.73,400.74Zm-6.82.13c0,1.85.87,3.15,2.29,3.15s2.27-1.37,2.27-3.21-.81-3.15-2.28-3.15S577.91,399,577.91,400.87Z"/><path class="cls-2" d="M586.12,396.25a18.62,18.62,0,0,1,2.89-.2,6.07,6.07,0,0,1,3.87,1,4.18,4.18,0,0,1,1.59,3.56,4.79,4.79,0,0,1-1.57,3.82,6.73,6.73,0,0,1-4.35,1.22,18.67,18.67,0,0,1-2.43-.14Zm2.15,7.7a4.06,4.06,0,0,0,.74,0c1.93,0,3.19-1.05,3.19-3.3a2.71,2.71,0,0,0-3-3,4.61,4.61,0,0,0-1,.08Z"/><path class="cls-2" d="M598,396.12v5.44c0,1.62.61,2.45,1.71,2.45s1.73-.79,1.73-2.45v-5.44h2.13v5.3c0,2.91-1.47,4.3-3.93,4.3s-3.79-1.32-3.79-4.33v-5.27Z"/><path class="cls-2" d="M605.42,396.12h2.14v7.65h3.75v1.79h-5.89Z"/><path class="cls-2" d="M618.19,401.57h-3.48v2.24h3.88v1.75h-6v-9.44h5.83v1.75h-3.69v2h3.48Z"/><path class="cls-2" d="M620.12,403.36a5.32,5.32,0,0,0,2.36.59c1,0,1.5-.41,1.5-1s-.45-.93-1.58-1.33c-1.57-.55-2.59-1.42-2.59-2.79,0-1.61,1.34-2.84,3.57-2.84a5.81,5.81,0,0,1,2.41.47l-.48,1.73a4.34,4.34,0,0,0-2-.45c-.93,0-1.38.42-1.38.91s.54.87,1.76,1.33c1.66.62,2.45,1.48,2.45,2.82,0,1.58-1.22,2.92-3.81,2.92a6.26,6.26,0,0,1-2.68-.57Z"/><rect class="cls-3" x="173.05" y="37.85" width="92.68" height="271.54" rx="5"/><line class="cls-4" x1="267.26" y1="133.59" x2="171.52" y2="133.59"/><line class="cls-4" x1="171.52" y1="117.64" x2="267.26" y2="117.64"/><line class="cls-4" x1="171.52" y1="101.68" x2="267.26" y2="101.68"/><line class="cls-4" x1="171.52" y1="85.72" x2="267.26" y2="85.72"/><line class="cls-4" x1="171.52" y1="69.77" x2="267.26" y2="69.77"/><line class="cls-4" x1="171.52" y1="53.81" x2="267.26" y2="53.81"/><line class="cls-4" x1="251.3" y1="37.85" x2="251.3" y2="133.59"/><line class="cls-4" x1="235.35" y1="37.85" x2="235.35" y2="133.59"/><line class="cls-4" x1="219.39" y1="37.85" x2="219.39" y2="133.59"/><line class="cls-4" x1="203.43" y1="37.85" x2="203.43" y2="133.59"/><line class="cls-4" x1="187.48" y1="37.85" x2="187.48" y2="133.59"/><line class="cls-4" x1="171.52" y1="229.33" x2="267.26" y2="229.33"/><line class="cls-4" x1="171.6" y1="213.38" x2="267.01" y2="213.38"/><line class="cls-4" x1="171.52" y1="197.42" x2="267.26" y2="197.42"/><line class="cls-4" x1="171.52" y1="181.46" x2="267.26" y2="181.46"/><line class="cls-4" x1="171.52" y1="165.51" x2="267.26" y2="165.51"/><line class="cls-4" x1="171.52" y1="149.55" x2="267.26" y2="149.55"/><line class="cls-4" x1="251.3" y1="133.59" x2="251.3" y2="229.33"/><line class="cls-4" x1="235.35" y1="133.59" x2="235.35" y2="229.33"/><line class="cls-4" x1="219.39" y1="133.59" x2="219.39" y2="229.33"/><line class="cls-4" x1="203.43" y1="133.59" x2="203.43" y2="229.33"/><line class="cls-4" x1="187.48" y1="133.59" x2="187.48" y2="229.33"/><line class="cls-4" x1="171.6" y1="213.66" x2="267.01" y2="213.66"/><line class="cls-4" x1="171.52" y1="293.44" x2="267.26" y2="293.44"/><line class="cls-4" x1="171.52" y1="277.49" x2="267.26" y2="277.49"/><line class="cls-4" x1="171.52" y1="261.53" x2="267.26" y2="261.53"/><line class="cls-4" x1="171.52" y1="245.57" x2="267.26" y2="245.57"/><line class="cls-4" x1="171.52" y1="229.62" x2="267.26" y2="229.62"/><line class="cls-4" x1="251.3" y1="213.66" x2="251.3" y2="309.4"/><line class="cls-4" x1="235.35" y1="213.66" x2="235.35" y2="309.4"/><line class="cls-4" x1="219.39" y1="213.66" x2="219.39" y2="309.4"/><line class="cls-4" x1="203.43" y1="213.66" x2="203.43" y2="309.4"/><line class="cls-4" x1="187.48" y1="213.66" x2="187.48" y2="309.4"/><rect class="cls-3" x="173.05" y="390.6" width="92.68" height="271.54" rx="5"/><line class="cls-4" x1="267.26" y1="486.34" x2="171.52" y2="486.34"/><line class="cls-4" x1="171.52" y1="470.38" x2="267.26" y2="470.38"/><line class="cls-4" x1="171.52" y1="454.43" x2="267.26" y2="454.43"/><line class="cls-4" x1="171.52" y1="438.47" x2="267.26" y2="438.47"/><line class="cls-4" x1="171.52" y1="422.51" x2="267.26" y2="422.51"/><line class="cls-4" x1="171.52" y1="406.56" x2="267.26" y2="406.56"/><line class="cls-4" x1="251.3" y1="390.6" x2="251.3" y2="486.34"/><line class="cls-4" x1="235.35" y1="390.6" x2="235.35" y2="486.34"/><line class="cls-4" x1="219.39" y1="390.6" x2="219.39" y2="486.34"/><line class="cls-4" x1="203.43" y1="390.6" x2="203.43" y2="486.34"/><line class="cls-4" x1="187.48" y1="390.6" x2="187.48" y2="486.34"/><line class="cls-4" x1="171.52" y1="582.08" x2="267.26" y2="582.08"/><line class="cls-4" x1="171.6" y1="566.12" x2="267.01" y2="566.12"/><line class="cls-4" x1="171.52" y1="550.17" x2="267.26" y2="550.17"/><line class="cls-4" x1="171.52" y1="534.21" x2="267.26" y2="534.21"/><line class="cls-4" x1="171.52" y1="518.25" x2="267.26" y2="518.25"/><line class="cls-4" x1="171.52" y1="502.3" x2="267.26" y2="502.3"/><line class="cls-4" x1="251.3" y1="486.34" x2="251.3" y2="582.08"/><line class="cls-4" x1="235.35" y1="486.34" x2="235.35" y2="582.08"/><line class="cls-4" x1="219.39" y1="486.34" x2="219.39" y2="582.08"/><line class="cls-4" x1="203.43" y1="486.34" x2="203.43" y2="582.08"/><line class="cls-4" x1="187.48" y1="486.34" x2="187.48" y2="582.08"/><line class="cls-4" x1="171.6" y1="566.41" x2="267.01" y2="566.41"/><line class="cls-4" x1="171.52" y1="646.19" x2="267.26" y2="646.19"/><line class="cls-4" x1="171.52" y1="630.23" x2="267.26" y2="630.23"/><line class="cls-4" x1="171.52" y1="614.28" x2="267.26" y2="614.28"/><line class="cls-4" x1="171.52" y1="598.32" x2="267.26" y2="598.32"/><line class="cls-4" x1="171.52" y1="582.36" x2="267.26" y2="582.36"/><line class="cls-4" x1="251.3" y1="566.41" x2="251.3" y2="662.15"/><line class="cls-4" x1="235.35" y1="566.41" x2="235.35" y2="662.15"/><line class="cls-4" x1="219.39" y1="566.41" x2="219.39" y2="662.15"/><line class="cls-4" x1="203.43" y1="566.41" x2="203.43" y2="662.15"/><line class="cls-4" x1="187.48" y1="566.41" x2="187.48" y2="662.15"/><rect class="cls-3" x="336.65" y="37.85" width="92.68" height="271.54" rx="5"/><line class="cls-4" x1="430.86" y1="133.59" x2="335.12" y2="133.59"/><line class="cls-4" x1="335.12" y1="117.64" x2="430.86" y2="117.64"/><line class="cls-4" x1="335.12" y1="101.68" x2="430.86" y2="101.68"/><line class="cls-4" x1="335.12" y1="85.72" x2="430.86" y2="85.72"/><line class="cls-4" x1="335.12" y1="69.77" x2="430.86" y2="69.77"/><line class="cls-4" x1="335.12" y1="53.81" x2="430.86" y2="53.81"/><line class="cls-4" x1="414.91" y1="37.85" x2="414.91" y2="133.59"/><line class="cls-4" x1="398.95" y1="37.85" x2="398.95" y2="133.59"/><line class="cls-4" x1="382.99" y1="37.85" x2="382.99" y2="133.59"/><line class="cls-4" x1="367.04" y1="37.85" x2="367.04" y2="133.59"/><line class="cls-4" x1="351.08" y1="37.85" x2="351.08" y2="133.59"/><line class="cls-4" x1="335.12" y1="229.33" x2="430.86" y2="229.33"/><line class="cls-4" x1="335.2" y1="213.38" x2="430.61" y2="213.38"/><line class="cls-4" x1="335.12" y1="197.42" x2="430.86" y2="197.42"/><line class="cls-4" x1="335.12" y1="181.46" x2="430.86" y2="181.46"/><line class="cls-4" x1="335.12" y1="165.51" x2="430.86" y2="165.51"/><line class="cls-4" x1="335.12" y1="149.55" x2="430.86" y2="149.55"/><line class="cls-4" x1="414.91" y1="133.59" x2="414.91" y2="229.33"/><line class="cls-4" x1="398.95" y1="133.59" x2="398.95" y2="229.33"/><line class="cls-4" x1="382.99" y1="133.59" x2="382.99" y2="229.33"/><line class="cls-4" x1="367.04" y1="133.59" x2="367.04" y2="229.33"/><line class="cls-4" x1="351.08" y1="133.59" x2="351.08" y2="229.33"/><line class="cls-4" x1="335.2" y1="213.66" x2="430.61" y2="213.66"/><line class="cls-4" x1="335.12" y1="293.44" x2="430.86" y2="293.44"/><line class="cls-4" x1="335.12" y1="277.49" x2="430.86" y2="277.49"/><line class="cls-4" x1="335.12" y1="261.53" x2="430.86" y2="261.53"/><line class="cls-4" x1="335.12" y1="245.57" x2="430.86" y2="245.57"/><line class="cls-4" x1="335.12" y1="229.62" x2="430.86" y2="229.62"/><line class="cls-4" x1="414.91" y1="213.66" x2="414.91" y2="309.4"/><line class="cls-4" x1="398.95" y1="213.66" x2="398.95" y2="309.4"/><line class="cls-4" x1="382.99" y1="213.66" x2="382.99" y2="309.4"/><line class="cls-4" x1="367.04" y1="213.66" x2="367.04" y2="309.4"/><line class="cls-4" x1="351.08" y1="213.66" x2="351.08" y2="309.4"/><rect class="cls-3" x="336.65" y="390.6" width="92.68" height="271.54" rx="5"/><line class="cls-4" x1="430.86" y1="486.34" x2="335.12" y2="486.34"/><line class="cls-4" x1="335.12" y1="470.38" x2="430.86" y2="470.38"/><line class="cls-4" x1="335.12" y1="454.43" x2="430.86" y2="454.43"/><line class="cls-4" x1="335.12" y1="438.47" x2="430.86" y2="438.47"/><line class="cls-4" x1="335.12" y1="422.51" x2="430.86" y2="422.51"/><line class="cls-4" x1="335.12" y1="406.56" x2="430.86" y2="406.56"/><line class="cls-4" x1="414.91" y1="390.6" x2="414.91" y2="486.34"/><line class="cls-4" x1="398.95" y1="390.6" x2="398.95" y2="486.34"/><line class="cls-4" x1="382.99" y1="390.6" x2="382.99" y2="486.34"/><line class="cls-4" x1="367.04" y1="390.6" x2="367.04" y2="486.34"/><line class="cls-4" x1="351.08" y1="390.6" x2="351.08" y2="486.34"/><line class="cls-4" x1="335.12" y1="582.08" x2="430.86" y2="582.08"/><line class="cls-4" x1="335.2" y1="566.12" x2="430.61" y2="566.12"/><line class="cls-4" x1="335.12" y1="550.17" x2="430.86" y2="550.17"/><line class="cls-4" x1="335.12" y1="534.21" x2="430.86" y2="534.21"/><line class="cls-4" x1="335.12" y1="518.25" x2="430.86" y2="518.25"/><line class="cls-4" x1="335.12" y1="502.3" x2="430.86" y2="502.3"/><line class="cls-4" x1="414.91" y1="486.34" x2="414.91" y2="582.08"/><line class="cls-4" x1="398.95" y1="486.34" x2="398.95" y2="582.08"/><line class="cls-4" x1="382.99" y1="486.34" x2="382.99" y2="582.08"/><line class="cls-4" x1="367.04" y1="486.34" x2="367.04" y2="582.08"/><line class="cls-4" x1="351.08" y1="486.34" x2="351.08" y2="582.08"/><line class="cls-4" x1="335.2" y1="566.41" x2="430.61" y2="566.41"/><line class="cls-4" x1="335.12" y1="646.19" x2="430.86" y2="646.19"/><line class="cls-4" x1="335.12" y1="630.23" x2="430.86" y2="630.23"/><line class="cls-4" x1="335.12" y1="614.28" x2="430.86" y2="614.28"/><line class="cls-4" x1="335.12" y1="598.32" x2="430.86" y2="598.32"/><line class="cls-4" x1="335.12" y1="582.36" x2="430.86" y2="582.36"/><line class="cls-4" x1="414.91" y1="566.41" x2="414.91" y2="662.15"/><line class="cls-4" x1="398.95" y1="566.41" x2="398.95" y2="662.15"/><line class="cls-4" x1="382.99" y1="566.41" x2="382.99" y2="662.15"/><line class="cls-4" x1="367.04" y1="566.41" x2="367.04" y2="662.15"/><line class="cls-4" x1="351.08" y1="566.41" x2="351.08" y2="662.15"/><rect class="cls-3" x="762.67" y="37.85" width="92.68" height="271.54" rx="5"/><line class="cls-4" x1="856.88" y1="133.59" x2="761.14" y2="133.59"/><line class="cls-4" x1="761.14" y1="117.64" x2="856.88" y2="117.64"/><line class="cls-4" x1="761.14" y1="101.68" x2="856.88" y2="101.68"/><line class="cls-4" x1="761.14" y1="85.72" x2="856.88" y2="85.72"/><line class="cls-4" x1="761.14" y1="69.77" x2="856.88" y2="69.77"/><line class="cls-4" x1="761.14" y1="53.81" x2="856.88" y2="53.81"/><line class="cls-4" x1="840.92" y1="37.85" x2="840.92" y2="133.59"/><line class="cls-4" x1="824.97" y1="37.85" x2="824.97" y2="133.59"/><line class="cls-4" x1="809.01" y1="37.85" x2="809.01" y2="133.59"/><line class="cls-4" x1="793.05" y1="37.85" x2="793.05" y2="133.59"/><line class="cls-4" x1="777.1" y1="37.85" x2="777.1" y2="133.59"/><line class="cls-4" x1="761.14" y1="229.33" x2="856.88" y2="229.33"/><line class="cls-4" x1="761.22" y1="213.38" x2="856.63" y2="213.38"/><line class="cls-4" x1="761.14" y1="197.42" x2="856.88" y2="197.42"/><line class="cls-4" x1="761.14" y1="181.46" x2="856.88" y2="181.46"/><line class="cls-4" x1="761.14" y1="165.51" x2="856.88" y2="165.51"/><line class="cls-4" x1="761.14" y1="149.55" x2="856.88" y2="149.55"/><line class="cls-4" x1="840.92" y1="133.59" x2="840.92" y2="229.33"/><line class="cls-4" x1="824.97" y1="133.59" x2="824.97" y2="229.33"/><line class="cls-4" x1="809.01" y1="133.59" x2="809.01" y2="229.33"/><line class="cls-4" x1="793.05" y1="133.59" x2="793.05" y2="229.33"/><line class="cls-4" x1="777.1" y1="133.59" x2="777.1" y2="229.33"/><line class="cls-4" x1="761.22" y1="213.66" x2="856.63" y2="213.66"/><line class="cls-4" x1="761.14" y1="293.44" x2="856.88" y2="293.44"/><line class="cls-4" x1="761.14" y1="277.49" x2="856.88" y2="277.49"/><line class="cls-4" x1="761.14" y1="261.53" x2="856.88" y2="261.53"/><line class="cls-4" x1="761.14" y1="245.57" x2="856.88" y2="245.57"/><line class="cls-4" x1="761.14" y1="229.62" x2="856.88" y2="229.62"/><line class="cls-4" x1="840.92" y1="213.66" x2="840.92" y2="309.4"/><line class="cls-4" x1="824.97" y1="213.66" x2="824.97" y2="309.4"/><line class="cls-4" x1="809.01" y1="213.66" x2="809.01" y2="309.4"/><line class="cls-4" x1="793.05" y1="213.66" x2="793.05" y2="309.4"/><line class="cls-4" x1="777.1" y1="213.66" x2="777.1" y2="309.4"/><rect class="cls-3" x="762.67" y="390.6" width="92.68" height="271.54" rx="5"/><line class="cls-4" x1="856.88" y1="486.34" x2="761.14" y2="486.34"/><line class="cls-4" x1="761.14" y1="470.38" x2="856.88" y2="470.38"/><line class="cls-4" x1="761.14" y1="454.43" x2="856.88" y2="454.43"/><line class="cls-4" x1="761.14" y1="438.47" x2="856.88" y2="438.47"/><line class="cls-4" x1="761.14" y1="422.51" x2="856.88" y2="422.51"/><line class="cls-4" x1="761.14" y1="406.56" x2="856.88" y2="406.56"/><line class="cls-4" x1="840.92" y1="390.6" x2="840.92" y2="486.34"/><line class="cls-4" x1="824.97" y1="390.6" x2="824.97" y2="486.34"/><line class="cls-4" x1="809.01" y1="390.6" x2="809.01" y2="486.34"/><line class="cls-4" x1="793.05" y1="390.6" x2="793.05" y2="486.34"/><line class="cls-4" x1="777.1" y1="390.6" x2="777.1" y2="486.34"/><line class="cls-4" x1="761.14" y1="582.08" x2="856.88" y2="582.08"/><line class="cls-4" x1="761.22" y1="566.12" x2="856.63" y2="566.12"/><line class="cls-4" x1="761.14" y1="550.17" x2="856.88" y2="550.17"/><line class="cls-4" x1="761.14" y1="534.21" x2="856.88" y2="534.21"/><line class="cls-4" x1="761.14" y1="518.25" x2="856.88" y2="518.25"/><line class="cls-4" x1="761.14" y1="502.3" x2="856.88" y2="502.3"/><line class="cls-4" x1="840.92" y1="486.34" x2="840.92" y2="582.08"/><line class="cls-4" x1="824.97" y1="486.34" x2="824.97" y2="582.08"/><line class="cls-4" x1="809.01" y1="486.34" x2="809.01" y2="582.08"/><line class="cls-4" x1="793.05" y1="486.34" x2="793.05" y2="582.08"/><line class="cls-4" x1="777.1" y1="486.34" x2="777.1" y2="582.08"/><line class="cls-4" x1="761.22" y1="566.41" x2="856.63" y2="566.41"/><line class="cls-4" x1="761.14" y1="646.19" x2="856.88" y2="646.19"/><line class="cls-4" x1="761.14" y1="630.23" x2="856.88" y2="630.23"/><line class="cls-4" x1="761.14" y1="614.28" x2="856.88" y2="614.28"/><line class="cls-4" x1="761.14" y1="598.32" x2="856.88" y2="598.32"/><line class="cls-4" x1="761.14" y1="582.36" x2="856.88" y2="582.36"/><line class="cls-4" x1="840.92" y1="566.41" x2="840.92" y2="662.15"/><line class="cls-4" x1="824.97" y1="566.41" x2="824.97" y2="662.15"/><line class="cls-4" x1="809.01" y1="566.41" x2="809.01" y2="662.15"/><line class="cls-4" x1="793.05" y1="566.41" x2="793.05" y2="662.15"/><line class="cls-4" x1="777.1" y1="566.41" x2="777.1" y2="662.15"/><rect class="cls-3" x="925.27" y="37.85" width="92.68" height="271.54" rx="5"/><line class="cls-4" x1="1019.48" y1="133.59" x2="923.74" y2="133.59"/><line class="cls-4" x1="923.74" y1="117.64" x2="1019.48" y2="117.64"/><line class="cls-4" x1="923.74" y1="101.68" x2="1019.48" y2="101.68"/><line class="cls-4" x1="923.74" y1="85.72" x2="1019.48" y2="85.72"/><line class="cls-4" x1="923.74" y1="69.77" x2="1019.48" y2="69.77"/><line class="cls-4" x1="923.74" y1="53.81" x2="1019.48" y2="53.81"/><line class="cls-4" x1="1003.52" y1="37.85" x2="1003.52" y2="133.59"/><line class="cls-4" x1="987.57" y1="37.85" x2="987.57" y2="133.59"/><line class="cls-4" x1="971.61" y1="37.85" x2="971.61" y2="133.59"/><line class="cls-4" x1="955.66" y1="37.85" x2="955.66" y2="133.59"/><line class="cls-4" x1="939.7" y1="37.85" x2="939.7" y2="133.59"/><line class="cls-4" x1="923.74" y1="229.33" x2="1019.48" y2="229.33"/><line class="cls-4" x1="923.82" y1="213.38" x2="1019.23" y2="213.38"/><line class="cls-4" x1="923.74" y1="197.42" x2="1019.48" y2="197.42"/><line class="cls-4" x1="923.74" y1="181.46" x2="1019.48" y2="181.46"/><line class="cls-4" x1="923.74" y1="165.51" x2="1019.48" y2="165.51"/><line class="cls-4" x1="923.74" y1="149.55" x2="1019.48" y2="149.55"/><line class="cls-4" x1="1003.52" y1="133.59" x2="1003.52" y2="229.33"/><line class="cls-4" x1="987.57" y1="133.59" x2="987.57" y2="229.33"/><line class="cls-4" x1="971.61" y1="133.59" x2="971.61" y2="229.33"/><line class="cls-4" x1="955.66" y1="133.59" x2="955.66" y2="229.33"/><line class="cls-4" x1="939.7" y1="133.59" x2="939.7" y2="229.33"/><line class="cls-4" x1="923.82" y1="213.66" x2="1019.23" y2="213.66"/><line class="cls-4" x1="923.74" y1="293.44" x2="1019.48" y2="293.44"/><line class="cls-4" x1="923.74" y1="277.49" x2="1019.48" y2="277.49"/><line class="cls-4" x1="923.74" y1="261.53" x2="1019.48" y2="261.53"/><line class="cls-4" x1="923.74" y1="245.57" x2="1019.48" y2="245.57"/><line class="cls-4" x1="923.74" y1="229.62" x2="1019.48" y2="229.62"/><line class="cls-4" x1="1003.52" y1="213.66" x2="1003.52" y2="309.4"/><line class="cls-4" x1="987.57" y1="213.66" x2="987.57" y2="309.4"/><line class="cls-4" x1="971.61" y1="213.66" x2="971.61" y2="309.4"/><line class="cls-4" x1="955.66" y1="213.66" x2="955.66" y2="309.4"/><line class="cls-4" x1="939.7" y1="213.66" x2="939.7" y2="309.4"/><rect class="cls-3" x="925.27" y="390.6" width="92.68" height="271.54" rx="5"/><line class="cls-4" x1="1019.48" y1="486.34" x2="923.74" y2="486.34"/><line class="cls-4" x1="923.74" y1="470.38" x2="1019.48" y2="470.38"/><line class="cls-4" x1="923.74" y1="454.43" x2="1019.48" y2="454.43"/><line class="cls-4" x1="923.74" y1="438.47" x2="1019.48" y2="438.47"/><line class="cls-4" x1="923.74" y1="422.51" x2="1019.48" y2="422.51"/><line class="cls-4" x1="923.74" y1="406.56" x2="1019.48" y2="406.56"/><line class="cls-4" x1="1003.52" y1="390.6" x2="1003.52" y2="486.34"/><line class="cls-4" x1="987.57" y1="390.6" x2="987.57" y2="486.34"/><line class="cls-4" x1="971.61" y1="390.6" x2="971.61" y2="486.34"/><line class="cls-4" x1="955.66" y1="390.6" x2="955.66" y2="486.34"/><line class="cls-4" x1="939.7" y1="390.6" x2="939.7" y2="486.34"/><line class="cls-4" x1="923.74" y1="582.08" x2="1019.48" y2="582.08"/><line class="cls-4" x1="923.82" y1="566.12" x2="1019.23" y2="566.12"/><line class="cls-4" x1="923.74" y1="550.17" x2="1019.48" y2="550.17"/><line class="cls-4" x1="923.74" y1="534.21" x2="1019.48" y2="534.21"/><line class="cls-4" x1="923.74" y1="518.25" x2="1019.48" y2="518.25"/><line class="cls-4" x1="923.74" y1="502.3" x2="1019.48" y2="502.3"/><line class="cls-4" x1="1003.52" y1="486.34" x2="1003.52" y2="582.08"/><line class="cls-4" x1="987.57" y1="486.34" x2="987.57" y2="582.08"/><line class="cls-4" x1="971.61" y1="486.34" x2="971.61" y2="582.08"/><line class="cls-4" x1="955.66" y1="486.34" x2="955.66" y2="582.08"/><line class="cls-4" x1="939.7" y1="486.34" x2="939.7" y2="582.08"/><line class="cls-4" x1="923.82" y1="566.41" x2="1019.23" y2="566.41"/><line class="cls-4" x1="923.74" y1="646.19" x2="1019.48" y2="646.19"/><line class="cls-4" x1="923.74" y1="630.23" x2="1019.48" y2="630.23"/><line class="cls-4" x1="923.74" y1="614.28" x2="1019.48" y2="614.28"/><line class="cls-4" x1="923.74" y1="598.32" x2="1019.48" y2="598.32"/><line class="cls-4" x1="923.74" y1="582.36" x2="1019.48" y2="582.36"/><line class="cls-4" x1="1003.52" y1="566.41" x2="1003.52" y2="662.15"/><line class="cls-4" x1="987.57" y1="566.41" x2="987.57" y2="662.15"/><line class="cls-4" x1="971.61" y1="566.41" x2="971.61" y2="662.15"/><line class="cls-4" x1="955.66" y1="566.41" x2="955.66" y2="662.15"/><line class="cls-4" x1="939.7" y1="566.41" x2="939.7" y2="662.15"/><text class="cls-5" transform="translate(197.02 354.11)">PORT 6</text><text class="cls-5" transform="translate(189.48 27.57)"><tspan class="cls-6">P</tspan><tspan x="7.29" y="0">ANEL 2B</tspan></text><text class="cls-5" transform="translate(352.72 27.57)"><tspan class="cls-6">P</tspan><tspan x="7.29" y="0">ANEL 4A</tspan></text><text class="cls-5" transform="translate(778.74 27.57)"><tspan class="cls-6">P</tspan><tspan x="7.29" y="0">ANEL 1A</tspan></text><text class="cls-5" transform="translate(940.7 27.57)"><tspan class="cls-6">P</tspan><tspan x="7.29" y="0">ANEL 3B</tspan></text><text class="cls-5" transform="translate(940.7 683.3)"><tspan class="cls-6">P</tspan><tspan x="7.29" y="0">ANEL 1B</tspan></text><text class="cls-5" transform="translate(777.73 683.3)"><tspan class="cls-6">P</tspan><tspan x="7.29" y="0">ANEL 3A</tspan></text><text class="cls-5" transform="translate(351.72 683.3)"><tspan class="cls-6">P</tspan><tspan x="7.29" y="0">ANEL 2A</tspan></text><text class="cls-5" transform="translate(189.39 683.3)"><tspan class="cls-6">P</tspan><tspan x="7.29" y="0">ANEL 4B</tspan></text><text class="cls-5" transform="translate(360.62 354.11)">PORT 4</text><text class="cls-5" transform="translate(765.02 354.11)">S<tspan class="cls-7" x="7.56" y="0">T</tspan><tspan class="cls-8" x="14.22" y="0">ARB</tspan><tspan class="cls-9" x="40.17" y="0">O</tspan><tspan class="cls-10" x="49.98" y="0">ARD 4</tspan></text><text class="cls-5" transform="translate(927.71 354.11)">S<tspan class="cls-7" x="7.56" y="0">T</tspan><tspan class="cls-8" x="14.22" y="0">ARB</tspan><tspan class="cls-9" x="40.17" y="0">O</tspan><tspan class="cls-10" x="49.98" y="0">ARD 6</tspan></text><text class="cls-11" transform="translate(440.06 67.13)">CURRENT</text><text class="cls-11" transform="translate(440.06 129.19)">VO<tspan class="cls-12" x="16.21" y="0">L</tspan><tspan class="cls-13" x="21.2" y="0">T</tspan><tspan class="cls-14" x="26.69" y="0">A</tspan><tspan x="34.45" y="0">GE</tspan></text><text class="cls-11" transform="translate(440.06 191.24)"><tspan class="cls-15">P</tspan><tspan x="5.82" y="0">ANEL POSITION</tspan></text><text class="cls-11" transform="translate(110.67 67.13)">CURRENT</text><text class="cls-11" transform="translate(112.79 129.19)">VO<tspan class="cls-12" x="16.21" y="0">L</tspan><tspan class="cls-13" x="21.2" y="0">T</tspan><tspan class="cls-14" x="26.69" y="0">A</tspan><tspan x="34.45" y="0">GE</tspan></text><text class="cls-11" transform="translate(71.94 191.24)"><tspan class="cls-15">P</tspan><tspan x="5.82" y="0">ANEL POSITION</tspan></text><text class="cls-11" transform="translate(440.06 486.34)">CURRENT</text><text class="cls-11" transform="translate(440.06 548.4)">VO<tspan class="cls-12" x="16.21" y="0">L</tspan><tspan class="cls-13" x="21.2" y="0">T</tspan><tspan class="cls-14" x="26.69" y="0">A</tspan><tspan x="34.45" y="0">GE</tspan></text><text class="cls-11" transform="translate(440.06 610.45)"><tspan class="cls-15">P</tspan><tspan x="5.82" y="0">ANEL POSITION</tspan></text><text class="cls-11" transform="translate(110.67 486.34)">CURRENT</text><text class="cls-11" transform="translate(112.79 548.4)">VO<tspan class="cls-12" x="16.21" y="0">L</tspan><tspan class="cls-13" x="21.2" y="0">T</tspan><tspan class="cls-14" x="26.69" y="0">A</tspan><tspan x="34.45" y="0">GE</tspan></text><text class="cls-11" transform="translate(71.94 610.45)"><tspan class="cls-15">P</tspan><tspan x="5.82" y="0">ANEL POSITION</tspan></text><text class="cls-11" transform="translate(1027.8 486.34)">CURRENT</text><text class="cls-11" transform="translate(1027.8 548.4)">VO<tspan class="cls-12" x="16.21" y="0">L</tspan><tspan class="cls-13" x="21.2" y="0">T</tspan><tspan class="cls-14" x="26.69" y="0">A</tspan><tspan x="34.45" y="0">GE</tspan></text><text class="cls-11" transform="translate(1027.8 610.45)"><tspan class="cls-15">P</tspan><tspan x="5.82" y="0">ANEL POSITION</tspan></text><text class="cls-11" transform="translate(698.41 486.34)">CURRENT</text><text class="cls-11" transform="translate(700.53 548.4)">VO<tspan class="cls-12" x="16.21" y="0">L</tspan><tspan class="cls-13" x="21.2" y="0">T</tspan><tspan class="cls-14" x="26.69" y="0">A</tspan><tspan x="34.45" y="0">GE</tspan></text><text class="cls-11" transform="translate(659.68 610.45)"><tspan class="cls-15">P</tspan><tspan x="5.82" y="0">ANEL POSITION</tspan></text><text class="cls-11" transform="translate(1027.8 67.13)">CURRENT</text><text class="cls-11" transform="translate(1027.8 129.19)">VO<tspan class="cls-12" x="16.21" y="0">L</tspan><tspan class="cls-13" x="21.2" y="0">T</tspan><tspan class="cls-14" x="26.69" y="0">A</tspan><tspan x="34.45" y="0">GE</tspan></text><text class="cls-11" transform="translate(1027.8 191.24)"><tspan class="cls-15">P</tspan><tspan x="5.82" y="0">ANEL POSITION</tspan></text><text class="cls-11" transform="translate(698.41 67.13)">CURRENT</text><text class="cls-11" transform="translate(700.53 129.19)">VO<tspan class="cls-12" x="16.21" y="0">L</tspan><tspan class="cls-13" x="21.2" y="0">T</tspan><tspan class="cls-14" x="26.69" y="0">A</tspan><tspan x="34.45" y="0">GE</tspan></text><text class="cls-11" transform="translate(659.68 191.24)"><tspan class="cls-15">P</tspan><tspan x="5.82" y="0">ANEL POSITION</tspan></text></g></svg>