<svg xmlns="http://www.w3.org/2000/svg" viewBox="0 0 1190 700"><defs><style>.cls-1{fill:#434343;}.cls-2{fill:#fff;}.cls-3{fill:#465ca9;}</style></defs><g id="Layer_1" data-name="Layer 1"><rect class="cls-1" x="143.37" y="321.54" width="152.03" height="56.91" rx="5"/><path class="cls-2" d="M290.41,380h-142a6.51,6.51,0,0,1-6.5-6.5V326.54a6.51,6.51,0,0,1,6.5-6.5h142a6.51,6.51,0,0,1,6.5,6.5v46.92A6.51,6.51,0,0,1,290.41,380ZM148.37,323a3.51,3.51,0,0,0-3.5,3.5v46.92a3.51,3.51,0,0,0,3.5,3.5h142a3.51,3.51,0,0,0,3.5-3.5V326.54a3.51,3.51,0,0,0-3.5-3.5Z"/><rect class="cls-1" x="305.98" y="321.54" width="152.03" height="56.91" rx="5"/><path class="cls-2" d="M453,380H311a6.51,6.51,0,0,1-6.5-6.5V326.54A6.51,6.51,0,0,1,311,320H453a6.51,6.51,0,0,1,6.5,6.5v46.92A6.51,6.51,0,0,1,453,380ZM311,323a3.51,3.51,0,0,0-3.5,3.5v46.92A3.51,3.51,0,0,0,311,377H453a3.51,3.51,0,0,0,3.5-3.5V326.54A3.51,3.51,0,0,0,453,323Z"/><rect class="cls-1" x="731.99" y="321.54" width="152.03" height="56.91" rx="5"/><path class="cls-2" d="M879,380H737a6.51,6.51,0,0,1-6.5-6.5V326.54A6.51,6.51,0,0,1,737,320H879a6.51,6.51,0,0,1,6.5,6.5v46.92A6.51,6.51,0,0,1,879,380ZM737,323a3.51,3.51,0,0,0-3.5,3.5v46.92A3.51,3.51,0,0,0,737,377H879a3.51,3.51,0,0,0,3.5-3.5V326.54A3.51,3.51,0,0,0,879,323Z"/><rect class="cls-1" x="894.59" y="321.54" width="152.03" height="56.91" rx="5"/><path class="cls-2" d="M1041.63,380h-142a6.51,6.51,0,0,1-6.5-6.5V326.54a6.51,6.51,0,0,1,6.5-6.5h142a6.51,6.51,0,0,1,6.5,6.5v46.92A6.51,6.51,0,0,1,1041.63,380ZM899.59,323a3.51,3.51,0,0,0-3.5,3.5v46.92a3.51,3.51,0,0,0,3.5,3.5h142a3.51,3.51,0,0,0,3.5-3.5V326.54a3.51,3.51,0,0,0-3.5-3.5Z"/><rect class="cls-1" x="468.58" y="321.54" width="252.85" height="56.91" rx="5"/><path class="cls-2" d="M716.42,380H473.58a6.51,6.51,0,0,1-6.5-6.5V326.54a6.51,6.51,0,0,1,6.5-6.5H716.42a6.51,6.51,0,0,1,6.5,6.5v46.92A6.51,6.51,0,0,1,716.42,380ZM473.58,323a3.51,3.51,0,0,0-3.5,3.5v46.92a3.51,3.51,0,0,0,3.5,3.5H716.42a3.51,3.51,0,0,0,3.5-3.5V326.54a3.51,3.51,0,0,0-3.5-3.5Z"/><circle class="cls-1" cx="595" cy="392.44" r="60.57"/><path class="cls-2" d="M595,454.51a62.07,62.07,0,1,1,62.07-62.07A62.13,62.13,0,0,1,595,454.51Zm0-121.14a59.07,59.07,0,1,0,59.07,59.07A59.14,59.14,0,0,0,595,333.37Z"/><path class="cls-2" d="M584.54,388.5a6.19,6.19,0,0,1-2.42.4c-3.27,0-5-2-5-4.72a4.81,4.81,0,0,1,5.16-5,5.51,5.51,0,0,1,2.32.42l-.43,1.69a4.7,4.7,0,0,0-1.8-.35,3.11,3.11,0,0,0,0,6.21,5.31,5.31,0,0,0,1.78-.31Z"/><path class="cls-2" d="M585.94,379.45a18.78,18.78,0,0,1,2.84-.2,4.82,4.82,0,0,1,3.05.74,2.41,2.41,0,0,1,.87,2,2.49,2.49,0,0,1-1.67,2.32v0a2.37,2.37,0,0,1,1.27,1.76,24.31,24.31,0,0,0,.77,2.66h-2.19a11.74,11.74,0,0,1-.66-2.2c-.25-1.17-.66-1.5-1.52-1.51h-.65v3.71h-2.11Zm2.11,4.06h.84c1.07,0,1.7-.53,1.7-1.36s-.59-1.3-1.57-1.32a6.36,6.36,0,0,0-1,.07Z"/><path class="cls-2" d="M599.85,384.77h-3.47V387h3.88v1.75h-6v-9.44h5.82v1.75h-3.68v2h3.47Z"/><path class="cls-2" d="M603.34,388.76l-2.24-9.44h2.28l.71,3.9c.21,1.12.41,2.33.57,3.29h0c.16-1,.38-2.16.62-3.32l.8-3.87h2.27l.75,4c.21,1.11.37,2.12.51,3.17h0c.14-1.05.35-2.16.54-3.28l.77-3.87h2.17l-2.43,9.44H608.4l-.8-4.06c-.18-.95-.34-1.83-.45-2.91h0c-.17,1.06-.32,2-.55,2.91l-.89,4.06Z"/><path class="cls-2" d="M572.23,402c0-1.14-.09-2.51-.09-3.88h0c-.29,1.2-.69,2.55-1.05,3.65l-1.15,3.69h-1.67l-1-3.66c-.31-1.1-.63-2.45-.86-3.68h0c-.05,1.27-.09,2.73-.16,3.91l-.17,3.58h-2l.61-9.44h2.84l.92,3.15c.3,1.1.59,2.27.8,3.38h0c.27-1.09.59-2.34.9-3.39l1-3.14h2.79l.51,9.44h-2.08Z"/><path class="cls-2" d="M584.73,400.74c0,3.1-1.88,5-4.64,5s-4.44-2.12-4.44-4.81,1.81-4.94,4.6-4.94S584.73,398.14,584.73,400.74Zm-6.82.13c0,1.85.87,3.15,2.29,3.15s2.27-1.37,2.27-3.21-.81-3.15-2.28-3.15S577.91,399,577.91,400.87Z"/><path class="cls-2" d="M586.12,396.25a18.62,18.62,0,0,1,2.89-.2,6.07,6.07,0,0,1,3.87,1,4.18,4.18,0,0,1,1.59,3.56,4.79,4.79,0,0,1-1.57,3.82,6.73,6.73,0,0,1-4.35,1.22,18.67,18.67,0,0,1-2.43-.14Zm2.15,7.7a4.06,4.06,0,0,0,.74,0c1.93,0,3.19-1.05,3.19-3.3a2.71,2.71,0,0,0-3-3,4.61,4.61,0,0,0-1,.08Z"/><path class="cls-2" d="M598,396.12v5.44c0,1.62.61,2.45,1.71,2.45s1.73-.79,1.73-2.45v-5.44h2.13v5.3c0,2.91-1.47,4.3-3.93,4.3s-3.79-1.32-3.79-4.33v-5.27Z"/><path class="cls-2" d="M605.42,396.12h2.14v7.65h3.75v1.79h-5.89Z"/><path class="cls-2" d="M618.19,401.57h-3.48v2.24h3.88v1.75h-6v-9.44h5.83v1.75h-3.69v2h3.48Z"/><path class="cls-2" d="M620.12,403.36a5.32,5.32,0,0,0,2.36.59c1,0,1.5-.41,1.5-1s-.45-.93-1.58-1.33c-1.57-.55-2.59-1.42-2.59-2.79,0-1.61,1.34-2.84,3.57-2.84a5.81,5.81,0,0,1,2.41.47l-.48,1.73a4.34,4.34,0,0,0-2-.45c-.93,0-1.37.42-1.37.91s.53.87,1.75,1.33c1.66.62,2.45,1.48,2.45,2.82,0,1.58-1.22,2.92-3.81,2.92a6.26,6.26,0,0,1-2.68-.57Z"/><rect class="cls-3" x="173.05" y="37.85" width="92.68" height="271.54" rx="5"/><path class="cls-2" d="M260.73,310.9H178.05a6.51,6.51,0,0,1-6.5-6.5V42.85a6.51,6.51,0,0,1,6.5-6.5h82.68a6.51,6.51,0,0,1,6.5,6.5V304.4A6.51,6.51,0,0,1,260.73,310.9ZM178.05,39.35a3.5,3.5,0,0,0-3.5,3.5V304.4a3.5,3.5,0,0,0,3.5,3.5h82.68a3.5,3.5,0,0,0,3.5-3.5V42.85a3.5,3.5,0,0,0-3.5-3.5Z"/><rect class="cls-2" x="171.52" y="133.09" width="95.74" height="1"/><rect class="cls-2" x="171.52" y="117.14" width="95.74" height="1"/><rect class="cls-2" x="171.52" y="101.18" width="95.74" height="1"/><rect class="cls-2" x="171.52" y="85.22" width="95.74" height="1"/><rect class="cls-2" x="171.52" y="69.27" width="95.74" height="1"/><rect class="cls-2" x="171.52" y="53.31" width="95.74" height="1"/><rect class="cls-2" x="250.8" y="37.85" width="1" height="95.74"/><rect class="cls-2" x="234.85" y="37.85" width="1" height="95.74"/><rect class="cls-2" x="218.89" y="37.85" width="1" height="95.74"/><rect class="cls-2" x="202.93" y="37.85" width="1" height="95.74"/><rect class="cls-2" x="186.98" y="37.85" width="1" height="95.74"/><rect class="cls-2" x="171.52" y="228.83" width="95.74" height="1"/><rect class="cls-2" x="171.6" y="212.88" width="95.41" height="1"/><rect class="cls-2" x="171.52" y="196.92" width="95.74" height="1"/><rect class="cls-2" x="171.52" y="180.96" width="95.74" height="1"/><rect class="cls-2" x="171.52" y="165.01" width="95.74" height="1"/><rect class="cls-2" x="171.52" y="149.05" width="95.74" height="1"/><rect class="cls-2" x="250.8" y="133.59" width="1" height="95.74"/><rect class="cls-2" x="234.85" y="133.59" width="1" height="95.74"/><rect class="cls-2" x="218.89" y="133.59" width="1" height="95.74"/><rect class="cls-2" x="202.93" y="133.59" width="1" height="95.74"/><rect class="cls-2" x="186.98" y="133.59" width="1" height="95.74"/><rect class="cls-2" x="171.6" y="213.16" width="95.41" height="1"/><rect class="cls-2" x="171.52" y="292.94" width="95.74" height="1"/><rect class="cls-2" x="171.52" y="276.99" width="95.74" height="1"/><rect class="cls-2" x="171.52" y="261.03" width="95.74" height="1"/><rect class="cls-2" x="171.52" y="245.07" width="95.74" height="1"/><rect class="cls-2" x="171.52" y="229.12" width="95.74" height="1"/><rect class="cls-2" x="250.8" y="213.66" width="1" height="95.74"/><rect class="cls-2" x="234.85" y="213.66" width="1" height="95.74"/><rect class="cls-2" x="218.89" y="213.66" width="1" height="95.74"/><rect class="cls-2" x="202.93" y="213.66" width="1" height="95.74"/><rect class="cls-2" x="186.98" y="213.66" width="1" height="95.74"/><rect class="cls-3" x="173.05" y="390.6" width="92.68" height="271.54" rx="5"/><path class="cls-2" d="M260.73,663.65H178.05a6.51,6.51,0,0,1-6.5-6.5V395.6a6.51,6.51,0,0,1,6.5-6.5h82.68a6.51,6.51,0,0,1,6.5,6.5V657.15A6.51,6.51,0,0,1,260.73,663.65ZM178.05,392.1a3.5,3.5,0,0,0-3.5,3.5V657.15a3.5,3.5,0,0,0,3.5,3.5h82.68a3.5,3.5,0,0,0,3.5-3.5V395.6a3.5,3.5,0,0,0-3.5-3.5Z"/><rect class="cls-2" x="171.52" y="485.84" width="95.74" height="1"/><rect class="cls-2" x="171.52" y="469.88" width="95.74" height="1"/><rect class="cls-2" x="171.52" y="453.93" width="95.74" height="1"/><rect class="cls-2" x="171.52" y="437.97" width="95.74" height="1"/><rect class="cls-2" x="171.52" y="422.01" width="95.74" height="1"/><rect class="cls-2" x="171.52" y="406.06" width="95.74" height="1"/><rect class="cls-2" x="250.8" y="390.6" width="1" height="95.74"/><rect class="cls-2" x="234.85" y="390.6" width="1" height="95.74"/><rect class="cls-2" x="218.89" y="390.6" width="1" height="95.74"/><rect class="cls-2" x="202.93" y="390.6" width="1" height="95.74"/><rect class="cls-2" x="186.98" y="390.6" width="1" height="95.74"/><rect class="cls-2" x="171.52" y="581.58" width="95.74" height="1"/><rect class="cls-2" x="171.6" y="565.62" width="95.41" height="1"/><rect class="cls-2" x="171.52" y="549.67" width="95.74" height="1"/><rect class="cls-2" x="171.52" y="533.71" width="95.74" height="1"/><rect class="cls-2" x="171.52" y="517.75" width="95.74" height="1"/><rect class="cls-2" x="171.52" y="501.8" width="95.74" height="1"/><rect class="cls-2" x="250.8" y="486.34" width="1" height="95.74"/><rect class="cls-2" x="234.85" y="486.34" width="1" height="95.74"/><rect class="cls-2" x="218.89" y="486.34" width="1" height="95.74"/><rect class="cls-2" x="202.93" y="486.34" width="1" height="95.74"/><rect class="cls-2" x="186.98" y="486.34" width="1" height="95.74"/><rect class="cls-2" x="171.6" y="565.91" width="95.41" height="1"/><rect class="cls-2" x="171.52" y="645.69" width="95.74" height="1"/><rect class="cls-2" x="171.52" y="629.73" width="95.74" height="1"/><rect class="cls-2" x="171.52" y="613.78" width="95.74" height="1"/><rect class="cls-2" x="171.52" y="597.82" width="95.74" height="1"/><rect class="cls-2" x="171.52" y="581.86" width="95.74" height="1"/><rect class="cls-2" x="250.8" y="566.41" width="1" height="95.74"/><rect class="cls-2" x="234.85" y="566.41" width="1" height="95.74"/><rect class="cls-2" x="218.89" y="566.41" width="1" height="95.74"/><rect class="cls-2" x="202.93" y="566.41" width="1" height="95.74"/><rect class="cls-2" x="186.98" y="566.41" width="1" height="95.74"/><rect class="cls-3" x="336.65" y="37.85" width="92.68" height="271.54" rx="5"/><path class="cls-2" d="M424.34,310.9H341.65a6.51,6.51,0,0,1-6.5-6.5V42.85a6.51,6.51,0,0,1,6.5-6.5h82.69a6.51,6.51,0,0,1,6.5,6.5V304.4A6.51,6.51,0,0,1,424.34,310.9ZM341.65,39.35a3.5,3.5,0,0,0-3.5,3.5V304.4a3.5,3.5,0,0,0,3.5,3.5h82.69a3.5,3.5,0,0,0,3.5-3.5V42.85a3.5,3.5,0,0,0-3.5-3.5Z"/><rect class="cls-2" x="335.12" y="133.09" width="95.74" height="1"/><rect class="cls-2" x="335.12" y="117.14" width="95.74" height="1"/><rect class="cls-2" x="335.12" y="101.18" width="95.74" height="1"/><rect class="cls-2" x="335.12" y="85.22" width="95.74" height="1"/><rect class="cls-2" x="335.12" y="69.27" width="95.74" height="1"/><rect class="cls-2" x="335.12" y="53.31" width="95.74" height="1"/><rect class="cls-2" x="414.41" y="37.85" width="1" height="95.74"/><rect class="cls-2" x="398.45" y="37.85" width="1" height="95.74"/><rect class="cls-2" x="382.49" y="37.85" width="1" height="95.74"/><rect class="cls-2" x="366.54" y="37.85" width="1" height="95.74"/><rect class="cls-2" x="350.58" y="37.85" width="1" height="95.74"/><rect class="cls-2" x="335.12" y="228.83" width="95.74" height="1"/><rect class="cls-2" x="335.2" y="212.88" width="95.41" height="1"/><rect class="cls-2" x="335.12" y="196.92" width="95.74" height="1"/><rect class="cls-2" x="335.12" y="180.96" width="95.74" height="1"/><rect class="cls-2" x="335.12" y="165.01" width="95.74" height="1"/><rect class="cls-2" x="335.12" y="149.05" width="95.74" height="1"/><rect class="cls-2" x="414.41" y="133.59" width="1" height="95.74"/><rect class="cls-2" x="398.45" y="133.59" width="1" height="95.74"/><rect class="cls-2" x="382.49" y="133.59" width="1" height="95.74"/><rect class="cls-2" x="366.54" y="133.59" width="1" height="95.74"/><rect class="cls-2" x="350.58" y="133.59" width="1" height="95.74"/><rect class="cls-2" x="335.2" y="213.16" width="95.41" height="1"/><rect class="cls-2" x="335.12" y="292.94" width="95.74" height="1"/><rect class="cls-2" x="335.12" y="276.99" width="95.74" height="1"/><rect class="cls-2" x="335.12" y="261.03" width="95.74" height="1"/><rect class="cls-2" x="335.12" y="245.07" width="95.74" height="1"/><rect class="cls-2" x="335.12" y="229.12" width="95.74" height="1"/><rect class="cls-2" x="414.41" y="213.66" width="1" height="95.74"/><rect class="cls-2" x="398.45" y="213.66" width="1" height="95.74"/><rect class="cls-2" x="382.49" y="213.66" width="1" height="95.74"/><rect class="cls-2" x="366.54" y="213.66" width="1" height="95.74"/><rect class="cls-2" x="350.58" y="213.66" width="1" height="95.74"/><rect class="cls-3" x="336.65" y="390.6" width="92.68" height="271.54" rx="5"/><path class="cls-2" d="M424.34,663.65H341.65a6.51,6.51,0,0,1-6.5-6.5V395.6a6.51,6.51,0,0,1,6.5-6.5h82.69a6.51,6.51,0,0,1,6.5,6.5V657.15A6.51,6.51,0,0,1,424.34,663.65ZM341.65,392.1a3.5,3.5,0,0,0-3.5,3.5V657.15a3.5,3.5,0,0,0,3.5,3.5h82.69a3.5,3.5,0,0,0,3.5-3.5V395.6a3.5,3.5,0,0,0-3.5-3.5Z"/><rect class="cls-2" x="335.12" y="485.84" width="95.74" height="1"/><rect class="cls-2" x="335.12" y="469.88" width="95.74" height="1"/><rect class="cls-2" x="335.12" y="453.93" width="95.74" height="1"/><rect class="cls-2" x="335.12" y="437.97" width="95.74" height="1"/><rect class="cls-2" x="335.12" y="422.01" width="95.74" height="1"/><rect class="cls-2" x="335.12" y="406.06" width="95.74" height="1"/><rect class="cls-2" x="414.41" y="390.6" width="1" height="95.74"/><rect class="cls-2" x="398.45" y="390.6" width="1" height="95.74"/><rect class="cls-2" x="382.49" y="390.6" width="1" height="95.74"/><rect class="cls-2" x="366.54" y="390.6" width="1" height="95.74"/><rect class="cls-2" x="350.58" y="390.6" width="1" height="95.74"/><rect class="cls-2" x="335.12" y="581.58" width="95.74" height="1"/><rect class="cls-2" x="335.2" y="565.62" width="95.41" height="1"/><rect class="cls-2" x="335.12" y="549.67" width="95.74" height="1"/><rect class="cls-2" x="335.12" y="533.71" width="95.74" height="1"/><rect class="cls-2" x="335.12" y="517.75" width="95.74" height="1"/><rect class="cls-2" x="335.12" y="501.8" width="95.74" height="1"/><rect class="cls-2" x="414.41" y="486.34" width="1" height="95.74"/><rect class="cls-2" x="398.45" y="486.34" width="1" height="95.74"/><rect class="cls-2" x="382.49" y="486.34" width="1" height="95.74"/><rect class="cls-2" x="366.54" y="486.34" width="1" height="95.74"/><rect class="cls-2" x="350.58" y="486.34" width="1" height="95.74"/><rect class="cls-2" x="335.2" y="565.91" width="95.41" height="1"/><rect class="cls-2" x="335.12" y="645.69" width="95.74" height="1"/><rect class="cls-2" x="335.12" y="629.73" width="95.74" height="1"/><rect class="cls-2" x="335.12" y="613.78" width="95.74" height="1"/><rect class="cls-2" x="335.12" y="597.82" width="95.74" height="1"/><rect class="cls-2" x="335.12" y="581.86" width="95.74" height="1"/><rect class="cls-2" x="414.41" y="566.41" width="1" height="95.74"/><rect class="cls-2" x="398.45" y="566.41" width="1" height="95.74"/><rect class="cls-2" x="382.49" y="566.41" width="1" height="95.74"/><rect class="cls-2" x="366.54" y="566.41" width="1" height="95.74"/><rect class="cls-2" x="350.58" y="566.41" width="1" height="95.74"/><rect class="cls-3" x="762.67" y="37.85" width="92.68" height="271.54" rx="5"/><path class="cls-2" d="M850.35,310.9H767.67a6.51,6.51,0,0,1-6.5-6.5V42.85a6.51,6.51,0,0,1,6.5-6.5h82.68a6.51,6.51,0,0,1,6.5,6.5V304.4A6.51,6.51,0,0,1,850.35,310.9ZM767.67,39.35a3.5,3.5,0,0,0-3.5,3.5V304.4a3.5,3.5,0,0,0,3.5,3.5h82.68a3.5,3.5,0,0,0,3.5-3.5V42.85a3.5,3.5,0,0,0-3.5-3.5Z"/><rect class="cls-2" x="761.14" y="133.09" width="95.74" height="1"/><rect class="cls-2" x="761.14" y="117.14" width="95.74" height="1"/><rect class="cls-2" x="761.14" y="101.18" width="95.74" height="1"/><rect class="cls-2" x="761.14" y="85.22" width="95.74" height="1"/><rect class="cls-2" x="761.14" y="69.27" width="95.74" height="1"/><rect class="cls-2" x="761.14" y="53.31" width="95.74" height="1"/><rect class="cls-2" x="840.42" y="37.85" width="1" height="95.74"/><rect class="cls-2" x="824.47" y="37.85" width="1" height="95.74"/><rect class="cls-2" x="808.51" y="37.85" width="1" height="95.74"/><rect class="cls-2" x="792.55" y="37.85" width="1" height="95.74"/><rect class="cls-2" x="776.6" y="37.85" width="1" height="95.74"/><rect class="cls-2" x="761.14" y="228.83" width="95.74" height="1"/><rect class="cls-2" x="761.22" y="212.88" width="95.41" height="1"/><rect class="cls-2" x="761.14" y="196.92" width="95.74" height="1"/><rect class="cls-2" x="761.14" y="180.96" width="95.74" height="1"/><rect class="cls-2" x="761.14" y="165.01" width="95.74" height="1"/><rect class="cls-2" x="761.14" y="149.05" width="95.74" height="1"/><rect class="cls-2" x="840.42" y="133.59" width="1" height="95.74"/><rect class="cls-2" x="824.47" y="133.59" width="1" height="95.74"/><rect class="cls-2" x="808.51" y="133.59" width="1" height="95.74"/><rect class="cls-2" x="792.55" y="133.59" width="1" height="95.74"/><rect class="cls-2" x="776.6" y="133.59" width="1" height="95.74"/><rect class="cls-2" x="761.22" y="213.16" width="95.41" height="1"/><rect class="cls-2" x="761.14" y="292.94" width="95.74" height="1"/><rect class="cls-2" x="761.14" y="276.99" width="95.74" height="1"/><rect class="cls-2" x="761.14" y="261.03" width="95.74" height="1"/><rect class="cls-2" x="761.14" y="245.07" width="95.74" height="1"/><rect class="cls-2" x="761.14" y="229.12" width="95.74" height="1"/><rect class="cls-2" x="840.42" y="213.66" width="1" height="95.74"/><rect class="cls-2" x="824.47" y="213.66" width="1" height="95.74"/><rect class="cls-2" x="808.51" y="213.66" width="1" height="95.74"/><rect class="cls-2" x="792.55" y="213.66" width="1" height="95.74"/><rect class="cls-2" x="776.6" y="213.66" width="1" height="95.74"/><rect class="cls-3" x="762.67" y="390.6" width="92.68" height="271.54" rx="5"/><path class="cls-2" d="M850.35,663.65H767.67a6.51,6.51,0,0,1-6.5-6.5V395.6a6.51,6.51,0,0,1,6.5-6.5h82.68a6.51,6.51,0,0,1,6.5,6.5V657.15A6.51,6.51,0,0,1,850.35,663.65ZM767.67,392.1a3.5,3.5,0,0,0-3.5,3.5V657.15a3.5,3.5,0,0,0,3.5,3.5h82.68a3.5,3.5,0,0,0,3.5-3.5V395.6a3.5,3.5,0,0,0-3.5-3.5Z"/><rect class="cls-2" x="761.14" y="485.84" width="95.74" height="1"/><rect class="cls-2" x="761.14" y="469.88" width="95.74" height="1"/><rect class="cls-2" x="761.14" y="453.93" width="95.74" height="1"/><rect class="cls-2" x="761.14" y="437.97" width="95.74" height="1"/><rect class="cls-2" x="761.14" y="422.01" width="95.74" height="1"/><rect class="cls-2" x="761.14" y="406.06" width="95.74" height="1"/><rect class="cls-2" x="840.42" y="390.6" width="1" height="95.74"/><rect class="cls-2" x="824.47" y="390.6" width="1" height="95.74"/><rect class="cls-2" x="808.51" y="390.6" width="1" height="95.74"/><rect class="cls-2" x="792.55" y="390.6" width="1" height="95.74"/><rect class="cls-2" x="776.6" y="390.6" width="1" height="95.74"/><rect class="cls-2" x="761.14" y="581.58" width="95.74" height="1"/><rect class="cls-2" x="761.22" y="565.62" width="95.41" height="1"/><rect class="cls-2" x="761.14" y="549.67" width="95.74" height="1"/><rect class="cls-2" x="761.14" y="533.71" width="95.74" height="1"/><rect class="cls-2" x="761.14" y="517.75" width="95.74" height="1"/><rect class="cls-2" x="761.14" y="501.8" width="95.74" height="1"/><rect class="cls-2" x="840.42" y="486.34" width="1" height="95.74"/><rect class="cls-2" x="824.47" y="486.34" width="1" height="95.74"/><rect class="cls-2" x="808.51" y="486.34" width="1" height="95.74"/><rect class="cls-2" x="792.55" y="486.34" width="1" height="95.74"/><rect class="cls-2" x="776.6" y="486.34" width="1" height="95.74"/><rect class="cls-2" x="761.22" y="565.91" width="95.41" height="1"/><rect class="cls-2" x="761.14" y="645.69" width="95.74" height="1"/><rect class="cls-2" x="761.14" y="629.73" width="95.74" height="1"/><rect class="cls-2" x="761.14" y="613.78" width="95.74" height="1"/><rect class="cls-2" x="761.14" y="597.82" width="95.74" height="1"/><rect class="cls-2" x="761.14" y="581.86" width="95.74" height="1"/><rect class="cls-2" x="840.42" y="566.41" width="1" height="95.74"/><rect class="cls-2" x="824.47" y="566.41" width="1" height="95.74"/><rect class="cls-2" x="808.51" y="566.41" width="1" height="95.74"/><rect class="cls-2" x="792.55" y="566.41" width="1" height="95.74"/><rect class="cls-2" x="776.6" y="566.41" width="1" height="95.74"/><rect class="cls-3" x="925.27" y="37.85" width="92.68" height="271.54" rx="5"/><path class="cls-2" d="M1013,310.9H930.27a6.51,6.51,0,0,1-6.5-6.5V42.85a6.51,6.51,0,0,1,6.5-6.5H1013a6.51,6.51,0,0,1,6.5,6.5V304.4A6.51,6.51,0,0,1,1013,310.9ZM930.27,39.35a3.5,3.5,0,0,0-3.5,3.5V304.4a3.5,3.5,0,0,0,3.5,3.5H1013a3.5,3.5,0,0,0,3.5-3.5V42.85a3.5,3.5,0,0,0-3.5-3.5Z"/><rect class="cls-2" x="923.74" y="133.09" width="95.74" height="1"/><rect class="cls-2" x="923.74" y="117.14" width="95.74" height="1"/><rect class="cls-2" x="923.74" y="101.18" width="95.74" height="1"/><rect class="cls-2" x="923.74" y="85.22" width="95.74" height="1"/><rect class="cls-2" x="923.74" y="69.27" width="95.74" height="1"/><rect class="cls-2" x="923.74" y="53.31" width="95.74" height="1"/><rect class="cls-2" x="1003.03" y="37.85" width="1" height="95.74"/><rect class="cls-2" x="987.07" y="37.85" width="1" height="95.74"/><rect class="cls-2" x="971.11" y="37.85" width="1" height="95.74"/><rect class="cls-2" x="955.16" y="37.85" width="1" height="95.74"/><rect class="cls-2" x="939.2" y="37.85" width="1" height="95.74"/><rect class="cls-2" x="923.74" y="228.83" width="95.74" height="1"/><rect class="cls-2" x="923.82" y="212.88" width="95.41" height="1"/><rect class="cls-2" x="923.74" y="196.92" width="95.74" height="1"/><rect class="cls-2" x="923.74" y="180.96" width="95.74" height="1"/><rect class="cls-2" x="923.74" y="165.01" width="95.74" height="1"/><rect class="cls-2" x="923.74" y="149.05" width="95.74" height="1"/><rect class="cls-2" x="1003.03" y="133.59" width="1" height="95.74"/><rect class="cls-2" x="987.07" y="133.59" width="1" height="95.74"/><rect class="cls-2" x="971.11" y="133.59" width="1" height="95.74"/><rect class="cls-2" x="955.16" y="133.59" width="1" height="95.74"/><rect class="cls-2" x="939.2" y="133.59" width="1" height="95.74"/><rect class="cls-2" x="923.82" y="213.16" width="95.41" height="1"/><rect class="cls-2" x="923.74" y="292.94" width="95.74" height="1"/><rect class="cls-2" x="923.74" y="276.99" width="95.74" height="1"/><rect class="cls-2" x="923.74" y="261.03" width="95.74" height="1"/><rect class="cls-2" x="923.74" y="245.07" width="95.74" height="1"/><rect class="cls-2" x="923.74" y="229.12" width="95.74" height="1"/><rect class="cls-2" x="1003.03" y="213.66" width="1" height="95.74"/><rect class="cls-2" x="987.07" y="213.66" width="1" height="95.74"/><rect class="cls-2" x="971.11" y="213.66" width="1" height="95.74"/><rect class="cls-2" x="955.16" y="213.66" width="1" height="95.74"/><rect class="cls-2" x="939.2" y="213.66" width="1" height="95.74"/><rect class="cls-3" x="925.27" y="390.6" width="92.68" height="271.54" rx="5"/><path class="cls-2" d="M1013,663.65H930.27a6.51,6.51,0,0,1-6.5-6.5V395.6a6.51,6.51,0,0,1,6.5-6.5H1013a6.51,6.51,0,0,1,6.5,6.5V657.15A6.51,6.51,0,0,1,1013,663.65ZM930.27,392.1a3.5,3.5,0,0,0-3.5,3.5V657.15a3.5,3.5,0,0,0,3.5,3.5H1013a3.5,3.5,0,0,0,3.5-3.5V395.6a3.5,3.5,0,0,0-3.5-3.5Z"/><rect class="cls-2" x="923.74" y="485.84" width="95.74" height="1"/><rect class="cls-2" x="923.74" y="469.88" width="95.74" height="1"/><rect class="cls-2" x="923.74" y="453.93" width="95.74" height="1"/><rect class="cls-2" x="923.74" y="437.97" width="95.74" height="1"/><rect class="cls-2" x="923.74" y="422.01" width="95.74" height="1"/><rect class="cls-2" x="923.74" y="406.06" width="95.74" height="1"/><rect class="cls-2" x="1003.03" y="390.6" width="1" height="95.74"/><rect class="cls-2" x="987.07" y="390.6" width="1" height="95.74"/><rect class="cls-2" x="971.11" y="390.6" width="1" height="95.74"/><rect class="cls-2" x="955.16" y="390.6" width="1" height="95.74"/><rect class="cls-2" x="939.2" y="390.6" width="1" height="95.74"/><rect class="cls-2" x="923.74" y="581.58" width="95.74" height="1"/><rect class="cls-2" x="923.82" y="565.62" width="95.41" height="1"/><rect class="cls-2" x="923.74" y="549.67" width="95.74" height="1"/><rect class="cls-2" x="923.74" y="533.71" width="95.74" height="1"/><rect class="cls-2" x="923.74" y="517.75" width="95.74" height="1"/><rect class="cls-2" x="923.74" y="501.8" width="95.74" height="1"/><rect class="cls-2" x="1003.03" y="486.34" width="1" height="95.74"/><rect class="cls-2" x="987.07" y="486.34" width="1" height="95.74"/><rect class="cls-2" x="971.11" y="486.34" width="1" height="95.74"/><rect class="cls-2" x="955.16" y="486.34" width="1" height="95.74"/><rect class="cls-2" x="939.2" y="486.34" width="1" height="95.74"/><rect class="cls-2" x="923.82" y="565.91" width="95.41" height="1"/><rect class="cls-2" x="923.74" y="645.69" width="95.74" height="1"/><rect class="cls-2" x="923.74" y="629.73" width="95.74" height="1"/><rect class="cls-2" x="923.74" y="613.78" width="95.74" height="1"/><rect class="cls-2" x="923.74" y="597.82" width="95.74" height="1"/><rect class="cls-2" x="923.74" y="581.86" width="95.74" height="1"/><rect class="cls-2" x="1003.03" y="566.41" width="1" height="95.74"/><rect class="cls-2" x="987.07" y="566.41" width="1" height="95.74"/><rect class="cls-2" x="971.11" y="566.41" width="1" height="95.74"/><rect class="cls-2" x="955.16" y="566.41" width="1" height="95.74"/><rect class="cls-2" x="939.2" y="566.41" width="1" height="95.74"/><path class="cls-2" d="M197.94,344.79a18,18,0,0,1,2.89-.19,4.53,4.53,0,0,1,2.88.75,2.75,2.75,0,0,1,1,2.19,3,3,0,0,1-.87,2.24,4.33,4.33,0,0,1-3.06,1,5.07,5.07,0,0,1-.73,0v3.38h-2.12Zm2.12,4.29a3.28,3.28,0,0,0,.71.06c1.14,0,1.84-.58,1.84-1.54s-.6-1.39-1.67-1.39a3.79,3.79,0,0,0-.88.08Z"/><path class="cls-2" d="M214.72,349.29c0,3.1-1.88,5-4.64,5s-4.44-2.11-4.44-4.8,1.81-4.95,4.6-4.95S214.72,346.69,214.72,349.29Zm-6.82.13c0,1.85.87,3.15,2.3,3.15s2.26-1.37,2.26-3.21-.81-3.15-2.28-3.15S207.9,347.58,207.9,349.42Z"/><path class="cls-2" d="M216.12,344.79a19,19,0,0,1,2.84-.19,4.82,4.82,0,0,1,3,.74,2.4,2.4,0,0,1,.87,2,2.49,2.49,0,0,1-1.67,2.33v0a2.4,2.4,0,0,1,1.27,1.77,25,25,0,0,0,.77,2.66h-2.19a12.3,12.3,0,0,1-.66-2.2c-.25-1.18-.66-1.5-1.52-1.51h-.65v3.71h-2.11Zm2.11,4.07h.84c1.07,0,1.7-.54,1.7-1.36s-.59-1.31-1.57-1.32a5.14,5.14,0,0,0-1,.07Z"/><path class="cls-2" d="M226.24,346.46H223.7v-1.79H231v1.79h-2.58v7.65h-2.14Z"/><path class="cls-2" d="M240.39,346.52a5.93,5.93,0,0,0-.82,0c-1.89.16-2.73,1.13-3,2.19h0a2.58,2.58,0,0,1,1.93-.73,2.77,2.77,0,0,1,2.82,3,3.26,3.26,0,0,1-3.36,3.29c-2.43,0-3.62-1.8-3.62-4a5.06,5.06,0,0,1,5.13-5.39,4.91,4.91,0,0,1,.85,0Zm-1.16,4.56a1.38,1.38,0,0,0-2.62-.75,1.33,1.33,0,0,0-.08.53c0,1,.5,1.83,1.47,1.83C238.76,352.69,239.23,352,239.23,351.08Z"/><path class="cls-2" d="M190.4,18.26a16.65,16.65,0,0,1,2.89-.2,4.5,4.5,0,0,1,2.89.76,2.75,2.75,0,0,1,1,2.18,3,3,0,0,1-.86,2.24,4.37,4.37,0,0,1-3.07,1,5,5,0,0,1-.73,0v3.38H190.4Zm2.12,4.28a3.35,3.35,0,0,0,.71.06c1.14,0,1.84-.58,1.84-1.54s-.6-1.39-1.67-1.39a3.79,3.79,0,0,0-.88.08Z"/><path class="cls-2" d="M199.9,25.15l-.67,2.42H197l2.89-9.44h2.8l2.93,9.44h-2.3l-.73-2.42Zm2.39-1.6-.59-2c-.16-.56-.33-1.26-.47-1.82h0c-.14.56-.28,1.27-.43,1.82l-.56,2Z"/><path class="cls-2" d="M206.88,27.57V18.13h2.5l2,3.46a26.71,26.71,0,0,1,1.54,3.24h0a35.23,35.23,0,0,1-.18-3.94V18.13h2v9.44h-2.24l-2-3.64a35.5,35.5,0,0,1-1.64-3.33h0c.06,1.25.08,2.58.08,4.12v2.84Z"/><path class="cls-2" d="M222.16,23.58h-3.47v2.24h3.88v1.75h-6V18.13h5.83v1.75h-3.68v2h3.47Z"/><path class="cls-2" d="M224,18.13h2.14v7.65h3.76v1.79H224Z"/><path class="cls-2" d="M233.66,27.57V26.28l1.18-1.06c2-1.78,3-2.8,3-3.87,0-.74-.44-1.33-1.49-1.33a3.24,3.24,0,0,0-2,.76l-.6-1.53a5,5,0,0,1,3-.94c2.06,0,3.19,1.21,3.19,2.86s-1.1,2.74-2.42,3.92l-.84.7v0h3.43v1.75Z"/><path class="cls-2" d="M241.77,18.26a16,16,0,0,1,2.76-.2,5.3,5.3,0,0,1,2.79.53,2.05,2.05,0,0,1,1.13,1.85,2.14,2.14,0,0,1-1.55,2v0a2.34,2.34,0,0,1,1.87,2.32,2.49,2.49,0,0,1-1,2,5.9,5.9,0,0,1-3.71.86,16.56,16.56,0,0,1-2.31-.14Zm2.12,3.61h.7c1.12,0,1.72-.46,1.72-1.16s-.55-1.1-1.51-1.1a5.35,5.35,0,0,0-.91.06Zm0,4.19a6.22,6.22,0,0,0,.82,0c1,0,1.82-.37,1.82-1.36s-.85-1.33-1.92-1.33h-.72Z"/><path class="cls-2" d="M353.64,18.26a16.65,16.65,0,0,1,2.89-.2,4.52,4.52,0,0,1,2.89.76,2.75,2.75,0,0,1,1,2.18,3,3,0,0,1-.87,2.24,4.33,4.33,0,0,1-3.06,1,5,5,0,0,1-.73,0v3.38h-2.12Zm2.12,4.28a3.35,3.35,0,0,0,.71.06c1.14,0,1.84-.58,1.84-1.54s-.6-1.39-1.67-1.39a3.79,3.79,0,0,0-.88.08Z"/><path class="cls-2" d="M363.14,25.15l-.68,2.42h-2.21l2.89-9.44h2.8l2.93,9.44h-2.3l-.73-2.42Zm2.39-1.6-.59-2c-.16-.56-.33-1.26-.47-1.82h0c-.14.56-.28,1.27-.43,1.82l-.57,2Z"/><path class="cls-2" d="M370.12,27.57V18.13h2.5l2,3.46a26.71,26.71,0,0,1,1.54,3.24h0a35.23,35.23,0,0,1-.18-3.94V18.13h2v9.44H375.7l-2-3.64A35.5,35.5,0,0,1,372,20.6h0c.05,1.25.08,2.58.08,4.12v2.84Z"/><path class="cls-2" d="M385.4,23.58h-3.48v2.24h3.88v1.75h-6V18.13h5.83v1.75h-3.69v2h3.48Z"/><path class="cls-2" d="M387.26,18.13h2.14v7.65h3.75v1.79h-5.89Z"/><path class="cls-2" d="M400.67,27.57V25.4h-4V24l3.44-5.54h2.61V23.8h1.09v1.6h-1.09v2.17Zm0-3.77v-2c0-.55,0-1.11.07-1.7h-.05c-.3.59-.54,1.12-.84,1.7l-1.22,2v0Z"/><path class="cls-2" d="M407.21,25.15l-.67,2.42h-2.22l2.89-9.44H410l2.93,9.44h-2.3l-.73-2.42Zm2.39-1.6-.58-2c-.17-.56-.34-1.26-.48-1.82h0c-.14.56-.28,1.27-.43,1.82l-.56,2Z"/><path class="cls-2" d="M779.66,18.26a16.56,16.56,0,0,1,2.89-.2,4.49,4.49,0,0,1,2.88.76,2.75,2.75,0,0,1,1,2.18,3,3,0,0,1-.87,2.24,4.37,4.37,0,0,1-3.07,1,4.77,4.77,0,0,1-.72,0v3.38h-2.12Zm2.12,4.28a3.28,3.28,0,0,0,.71.06c1.13,0,1.83-.58,1.83-1.54s-.6-1.39-1.66-1.39a3.72,3.72,0,0,0-.88.08Z"/><path class="cls-2" d="M789.15,25.15l-.67,2.42h-2.21l2.88-9.44H792l2.92,9.44h-2.3l-.72-2.42Zm2.4-1.6-.59-2c-.17-.56-.34-1.26-.48-1.82h0c-.14.56-.28,1.27-.44,1.82l-.56,2Z"/><path class="cls-2" d="M796.14,27.57V18.13h2.49l2,3.46a26.71,26.71,0,0,1,1.54,3.24h0a35.15,35.15,0,0,1-.19-3.94V18.13h2v9.44h-2.24l-2-3.64a35.5,35.5,0,0,1-1.64-3.33h0c.05,1.25.08,2.58.08,4.12v2.84Z"/><path class="cls-2" d="M811.42,23.58h-3.48v2.24h3.88v1.75h-6V18.13h5.82v1.75h-3.68v2h3.48Z"/><path class="cls-2" d="M813.27,18.13h2.15v7.65h3.75v1.79h-5.9Z"/><path class="cls-2" d="M825.64,20.36h0l-1.74.82-.35-1.59,2.41-1.12h1.77v9.1h-2.06Z"/><path class="cls-2" d="M833.23,25.15l-.68,2.42h-2.21l2.89-9.44H836L839,27.57h-2.29l-.73-2.42Zm2.39-1.6-.59-2c-.17-.56-.33-1.26-.47-1.82h0c-.14.56-.28,1.27-.44,1.82l-.56,2Z"/><path class="cls-2" d="M941.62,18.26a16.65,16.65,0,0,1,2.89-.2,4.52,4.52,0,0,1,2.89.76,2.75,2.75,0,0,1,1,2.18,3,3,0,0,1-.86,2.24,4.37,4.37,0,0,1-3.07,1,5,5,0,0,1-.73,0v3.38h-2.12Zm2.12,4.28a3.35,3.35,0,0,0,.71.06c1.14,0,1.84-.58,1.84-1.54s-.6-1.39-1.67-1.39a3.79,3.79,0,0,0-.88.08Z"/><path class="cls-2" d="M951.12,25.15l-.68,2.42h-2.21l2.89-9.44h2.8l2.93,9.44h-2.3l-.73-2.42Zm2.39-1.6-.59-2c-.16-.56-.33-1.26-.47-1.82h0c-.14.56-.28,1.27-.43,1.82l-.57,2Z"/><path class="cls-2" d="M958.1,27.57V18.13h2.5l2,3.46a26.71,26.71,0,0,1,1.54,3.24h0a35.23,35.23,0,0,1-.18-3.94V18.13h2v9.44h-2.24l-2-3.64A35.5,35.5,0,0,1,960,20.6h0c.06,1.25.08,2.58.08,4.12v2.84Z"/><path class="cls-2" d="M973.38,23.58h-3.47v2.24h3.88v1.75h-6V18.13h5.83v1.75h-3.68v2h3.47Z"/><path class="cls-2" d="M975.24,18.13h2.14v7.65h3.75v1.79h-5.89Z"/><path class="cls-2" d="M985.26,25.48a5,5,0,0,0,2.12.56c1.1,0,1.66-.53,1.66-1.21,0-.9-.89-1.31-1.83-1.31h-.87V22h.83c.71,0,1.62-.28,1.62-1.06,0-.54-.45-1-1.34-1a4.08,4.08,0,0,0-1.91.55L985.11,19a5.68,5.68,0,0,1,2.81-.69c2,0,3,1,3,2.27a2.19,2.19,0,0,1-1.67,2.12v0a2.28,2.28,0,0,1,2,2.22c0,1.61-1.42,2.79-3.73,2.79a5.3,5.3,0,0,1-2.7-.65Z"/><path class="cls-2" d="M993,18.26a16,16,0,0,1,2.76-.2,5.3,5.3,0,0,1,2.79.53,2.07,2.07,0,0,1,1.13,1.85,2.14,2.14,0,0,1-1.55,2v0a2.35,2.35,0,0,1,1.87,2.32,2.49,2.49,0,0,1-1,2,5.9,5.9,0,0,1-3.71.86,16.44,16.44,0,0,1-2.31-.14Zm2.11,3.61h.7c1.12,0,1.73-.46,1.73-1.16s-.55-1.1-1.52-1.1a5.54,5.54,0,0,0-.91.06Zm0,4.19a6.39,6.39,0,0,0,.83,0c1,0,1.82-.37,1.82-1.36s-.85-1.33-1.92-1.33h-.73Z"/><path class="cls-2" d="M941.62,674a18,18,0,0,1,2.89-.19,4.58,4.58,0,0,1,2.89.75,2.77,2.77,0,0,1,1,2.19,3,3,0,0,1-.86,2.24,4.37,4.37,0,0,1-3.07,1,5.16,5.16,0,0,1-.73,0v3.38h-2.12Zm2.12,4.29a3.35,3.35,0,0,0,.71.06c1.14,0,1.84-.58,1.84-1.54s-.6-1.39-1.67-1.39a3.79,3.79,0,0,0-.88.08Z"/><path class="cls-2" d="M951.12,680.88l-.68,2.42h-2.21l2.89-9.44h2.8l2.93,9.44h-2.3l-.73-2.42Zm2.39-1.6-.59-2c-.16-.57-.33-1.27-.47-1.83h0c-.14.56-.28,1.28-.43,1.83l-.57,2Z"/><path class="cls-2" d="M958.1,683.3v-9.44h2.5l2,3.46a27.3,27.3,0,0,1,1.54,3.23h0a34.94,34.94,0,0,1-.18-3.93v-2.76h2v9.44h-2.24l-2-3.64a34.5,34.5,0,0,1-1.64-3.34l0,0c.06,1.24.08,2.57.08,4.12v2.84Z"/><path class="cls-2" d="M973.38,679.31h-3.47v2.24h3.88v1.75h-6v-9.44h5.83v1.75h-3.68v2h3.47Z"/><path class="cls-2" d="M975.24,673.86h2.14v7.65h3.75v1.79h-5.89Z"/><path class="cls-2" d="M987.6,676.08h0l-1.73.83-.35-1.6,2.4-1.12h1.77v9.11H987.6Z"/><path class="cls-2" d="M993,674a17.33,17.33,0,0,1,2.76-.19,5.2,5.2,0,0,1,2.79.53,2.06,2.06,0,0,1,1.13,1.85,2.14,2.14,0,0,1-1.55,2v0a2.37,2.37,0,0,1,1.87,2.33,2.5,2.5,0,0,1-1,2,5.9,5.9,0,0,1-3.71.86,16.44,16.44,0,0,1-2.31-.14Zm2.11,3.62h.7c1.12,0,1.73-.46,1.73-1.16s-.55-1.1-1.52-1.1a5.54,5.54,0,0,0-.91.06Zm0,4.19c.21,0,.47,0,.83,0,1,0,1.82-.36,1.82-1.35s-.85-1.34-1.92-1.34h-.73Z"/><path class="cls-2" d="M778.66,674a17.82,17.82,0,0,1,2.88-.19,4.56,4.56,0,0,1,2.89.75,2.78,2.78,0,0,1,1,2.19,3,3,0,0,1-.87,2.24,4.37,4.37,0,0,1-3.07,1,5.16,5.16,0,0,1-.73,0v3.38h-2.11Zm2.11,4.29a3.45,3.45,0,0,0,.72.06c1.13,0,1.83-.58,1.83-1.54s-.6-1.39-1.66-1.39a3.9,3.9,0,0,0-.89.08Z"/><path class="cls-2" d="M788.15,680.88l-.67,2.42h-2.21l2.88-9.44H791l2.93,9.44h-2.3l-.73-2.42Zm2.4-1.6-.59-2c-.17-.57-.34-1.27-.48-1.83h0c-.14.56-.28,1.28-.43,1.83l-.56,2Z"/><path class="cls-2" d="M795.14,683.3v-9.44h2.49l2,3.46a27.3,27.3,0,0,1,1.54,3.23h0a34.94,34.94,0,0,1-.18-3.93v-2.76h2v9.44h-2.24l-2-3.64a34.45,34.45,0,0,1-1.63-3.34l0,0c.06,1.24.09,2.57.09,4.12v2.84Z"/><path class="cls-2" d="M810.41,679.31h-3.47v2.24h3.88v1.75h-6v-9.44h5.82v1.75h-3.68v2h3.47Z"/><path class="cls-2" d="M812.27,673.86h2.15v7.65h3.75v1.79h-5.9Z"/><path class="cls-2" d="M822.3,681.21a4.89,4.89,0,0,0,2.11.56c1.11,0,1.67-.53,1.67-1.22,0-.89-.9-1.3-1.84-1.3h-.86v-1.53h.82c.72,0,1.63-.28,1.63-1.05,0-.54-.45-.95-1.35-.95a4.08,4.08,0,0,0-1.9.55l-.44-1.54A5.73,5.73,0,0,1,825,674c1.95,0,3,1,3,2.27a2.16,2.16,0,0,1-1.66,2.11v0a2.26,2.26,0,0,1,2,2.22c0,1.61-1.41,2.78-3.72,2.78a5.46,5.46,0,0,1-2.71-.64Z"/><path class="cls-2" d="M832.22,680.88l-.67,2.42h-2.21l2.88-9.44H835L838,683.3h-2.29l-.73-2.42Zm2.4-1.6-.59-2c-.17-.57-.34-1.27-.48-1.83h0c-.14.56-.28,1.28-.44,1.83l-.56,2Z"/><path class="cls-2" d="M352.64,674a17.87,17.87,0,0,1,2.89-.19,4.55,4.55,0,0,1,2.88.75,2.75,2.75,0,0,1,1,2.19,3,3,0,0,1-.87,2.24,4.34,4.34,0,0,1-3.06,1,5.07,5.07,0,0,1-.73,0v3.38h-2.12Zm2.12,4.29a3.28,3.28,0,0,0,.71.06c1.14,0,1.84-.58,1.84-1.54s-.61-1.39-1.67-1.39a3.79,3.79,0,0,0-.88.08Z"/><path class="cls-2" d="M362.13,680.88l-.67,2.42h-2.21l2.88-9.44h2.81l2.92,9.44h-2.29l-.73-2.42Zm2.4-1.6-.59-2c-.17-.57-.33-1.27-.47-1.83h0c-.14.56-.28,1.28-.44,1.83l-.56,2Z"/><path class="cls-2" d="M369.12,683.3v-9.44h2.49l2,3.46a29,29,0,0,1,1.55,3.23h0a34.94,34.94,0,0,1-.18-3.93v-2.76h2v9.44h-2.25l-2-3.64a34.5,34.5,0,0,1-1.64-3.34l0,0c.05,1.24.08,2.57.08,4.12v2.84Z"/><path class="cls-2" d="M384.4,679.31h-3.48v2.24h3.88v1.75h-6v-9.44h5.83v1.75h-3.69v2h3.48Z"/><path class="cls-2" d="M386.26,673.86h2.14v7.65h3.75v1.79h-5.89Z"/><path class="cls-2" d="M395.9,683.3V682l1.18-1.06c2-1.78,2.95-2.81,3-3.87,0-.74-.45-1.33-1.5-1.33a3.3,3.3,0,0,0-1.94.75L396,675a5,5,0,0,1,3-.94c2.06,0,3.19,1.2,3.19,2.86s-1.11,2.74-2.42,3.92l-.84.7v0h3.43v1.75Z"/><path class="cls-2" d="M406.21,680.88l-.68,2.42h-2.21l2.89-9.44H409l2.93,9.44h-2.3l-.73-2.42Zm2.39-1.6-.59-2c-.16-.57-.33-1.27-.47-1.83h0c-.14.56-.28,1.28-.43,1.83l-.57,2Z"/><path class="cls-2" d="M190.32,674a17.82,17.82,0,0,1,2.88-.19,4.56,4.56,0,0,1,2.89.75,2.78,2.78,0,0,1,1,2.19,3,3,0,0,1-.87,2.24,4.37,4.37,0,0,1-3.07,1,5.16,5.16,0,0,1-.73,0v3.38h-2.11Zm2.11,4.29a3.39,3.39,0,0,0,.72.06c1.13,0,1.83-.58,1.83-1.54s-.6-1.39-1.67-1.39a3.86,3.86,0,0,0-.88.08Z"/><path class="cls-2" d="M199.81,680.88l-.67,2.42h-2.22l2.89-9.44h2.8l2.93,9.44h-2.3l-.73-2.42Zm2.4-1.6-.59-2c-.17-.57-.34-1.27-.48-1.83h0c-.14.56-.28,1.28-.43,1.83l-.56,2Z"/><path class="cls-2" d="M206.79,683.3v-9.44h2.5l2,3.46a27.3,27.3,0,0,1,1.54,3.23h0a34.94,34.94,0,0,1-.18-3.93v-2.76h2v9.44h-2.24l-2-3.64a37,37,0,0,1-1.64-3.34l0,0c.06,1.24.09,2.57.09,4.12v2.84Z"/><path class="cls-2" d="M222.07,679.31H218.6v2.24h3.88v1.75h-6v-9.44h5.83v1.75H218.6v2h3.47Z"/><path class="cls-2" d="M223.93,673.86h2.14v7.65h3.76v1.79h-5.9Z"/><path class="cls-2" d="M237.34,683.3v-2.17h-4v-1.39l3.45-5.55h2.6v5.34h1.09v1.6h-1.09v2.17Zm0-3.77v-2c0-.54,0-1.1.08-1.69h-.06c-.3.59-.53,1.12-.84,1.69l-1.22,2v0Z"/><path class="cls-2" d="M241.68,674a17.42,17.42,0,0,1,2.76-.19,5.2,5.2,0,0,1,2.79.53,2,2,0,0,1,1.13,1.85,2.14,2.14,0,0,1-1.55,2v0a2.37,2.37,0,0,1,1.88,2.33,2.53,2.53,0,0,1-1,2,6,6,0,0,1-3.72.86,16.56,16.56,0,0,1-2.31-.14Zm2.12,3.62h.7c1.12,0,1.72-.46,1.72-1.16s-.55-1.1-1.51-1.1a5.44,5.44,0,0,0-.91.06Zm0,4.19c.21,0,.46,0,.82,0,1,0,1.83-.36,1.83-1.35s-.86-1.34-1.92-1.34h-.73Z"/><path class="cls-2" d="M361.55,344.79a17.82,17.82,0,0,1,2.88-.19,4.56,4.56,0,0,1,2.89.75,2.78,2.78,0,0,1,1,2.19,3,3,0,0,1-.87,2.24,4.37,4.37,0,0,1-3.07,1,5.16,5.16,0,0,1-.73,0v3.38h-2.11Zm2.11,4.29a3.39,3.39,0,0,0,.72.06c1.13,0,1.83-.58,1.83-1.54s-.6-1.39-1.67-1.39a3.86,3.86,0,0,0-.88.08Z"/><path class="cls-2" d="M378.32,349.29c0,3.1-1.87,5-4.63,5s-4.44-2.11-4.44-4.8,1.8-4.95,4.59-4.95S378.32,346.69,378.32,349.29Zm-6.82.13c0,1.85.87,3.15,2.3,3.15s2.27-1.37,2.27-3.21-.81-3.15-2.29-3.15S371.5,347.58,371.5,349.42Z"/><path class="cls-2" d="M379.72,344.79a19.08,19.08,0,0,1,2.84-.19,4.87,4.87,0,0,1,3.06.74,2.4,2.4,0,0,1,.86,2,2.5,2.5,0,0,1-1.66,2.33v0a2.39,2.39,0,0,1,1.26,1.77c.29,1.06.59,2.3.77,2.66h-2.19a13.26,13.26,0,0,1-.66-2.2c-.25-1.18-.65-1.5-1.52-1.51h-.65v3.71h-2.11Zm2.11,4.07h.84c1.07,0,1.7-.54,1.7-1.36s-.59-1.31-1.57-1.32a5.23,5.23,0,0,0-1,.07Z"/><path class="cls-2" d="M389.84,346.46h-2.53v-1.79h7.25v1.79H392v7.65h-2.14Z"/><path class="cls-2" d="M402,354.11v-2.17h-4v-1.39l3.44-5.55H404v5.34h1.09v1.6H404v2.17Zm0-3.77v-2c0-.54,0-1.1.07-1.69h0c-.3.59-.54,1.12-.84,1.69l-1.22,2v0Z"/><path class="cls-2" d="M766,351.91a5.54,5.54,0,0,0,2.37.59c1,0,1.5-.41,1.5-1s-.45-.93-1.58-1.33c-1.57-.55-2.59-1.42-2.59-2.79,0-1.61,1.34-2.85,3.57-2.85a5.83,5.83,0,0,1,2.41.48l-.48,1.72a4.51,4.51,0,0,0-2-.45c-.93,0-1.38.43-1.38.92s.54.86,1.75,1.33c1.67.61,2.46,1.48,2.46,2.81,0,1.58-1.22,2.93-3.82,2.93a6.08,6.08,0,0,1-2.67-.58Z"/><path class="cls-2" d="M775.33,346.46h-2.54v-1.79H780v1.79h-2.57v7.65h-2.14Z"/><path class="cls-2" d="M782.37,351.69l-.68,2.42h-2.21l2.89-9.44h2.8l2.93,9.44h-2.3l-.73-2.42Zm2.39-1.6-.59-2c-.16-.57-.33-1.27-.47-1.83h0c-.14.56-.28,1.28-.43,1.83l-.57,2Z"/><path class="cls-2" d="M789.35,344.79a19.23,19.23,0,0,1,2.85-.19,4.82,4.82,0,0,1,3,.74,2.4,2.4,0,0,1,.87,2,2.51,2.51,0,0,1-1.67,2.33v0a2.39,2.39,0,0,1,1.26,1.77c.3,1.06.59,2.3.77,2.66H794.3a11.47,11.47,0,0,1-.66-2.2c-.25-1.18-.66-1.5-1.53-1.51h-.64v3.71h-2.12Zm2.12,4.07h.84c1.06,0,1.69-.54,1.69-1.36s-.59-1.31-1.57-1.32a5.09,5.09,0,0,0-1,.07Z"/><path class="cls-2" d="M797.65,344.79a17.42,17.42,0,0,1,2.76-.19,5.18,5.18,0,0,1,2.79.53,2,2,0,0,1,1.13,1.85,2.14,2.14,0,0,1-1.55,2v0a2.37,2.37,0,0,1,1.88,2.33,2.5,2.5,0,0,1-1,2,6,6,0,0,1-3.72.86,16.56,16.56,0,0,1-2.31-.14Zm2.12,3.62h.7c1.12,0,1.72-.46,1.72-1.16s-.54-1.1-1.51-1.1a5.44,5.44,0,0,0-.91.06Zm0,4.19c.21,0,.46,0,.83,0,1,0,1.82-.36,1.82-1.35s-.86-1.33-1.92-1.33h-.73Z"/><path class="cls-2" d="M814.75,349.29c0,3.1-1.87,5-4.63,5s-4.44-2.11-4.44-4.8,1.8-4.95,4.59-4.95S814.75,346.69,814.75,349.29Zm-6.82.13c0,1.85.87,3.15,2.3,3.15s2.27-1.37,2.27-3.21-.82-3.15-2.29-3.15S807.93,347.58,807.93,349.42Z"/><path class="cls-2" d="M818.12,351.69l-.67,2.42h-2.21l2.88-9.44h2.8l2.93,9.44h-2.3l-.72-2.42Zm2.4-1.6-.59-2c-.17-.57-.34-1.27-.48-1.83h0c-.13.56-.28,1.28-.43,1.83l-.56,2Z"/><path class="cls-2" d="M825.11,344.79a19.08,19.08,0,0,1,2.84-.19,4.82,4.82,0,0,1,3,.74,2.4,2.4,0,0,1,.87,2,2.5,2.5,0,0,1-1.66,2.33v0a2.42,2.42,0,0,1,1.26,1.77,25,25,0,0,0,.77,2.66h-2.19a12.3,12.3,0,0,1-.66-2.2c-.25-1.18-.65-1.5-1.52-1.51h-.65v3.71h-2.11Zm2.11,4.07h.84c1.07,0,1.7-.54,1.7-1.36s-.59-1.31-1.57-1.32a5.23,5.23,0,0,0-1,.07Z"/><path class="cls-2" d="M833.41,344.79a19.92,19.92,0,0,1,2.88-.19,6,6,0,0,1,3.87,1,4.16,4.16,0,0,1,1.6,3.55,4.8,4.8,0,0,1-1.57,3.83,6.78,6.78,0,0,1-4.36,1.22,18.49,18.49,0,0,1-2.42-.14Zm2.14,7.71a4.12,4.12,0,0,0,.74,0c1.94,0,3.2-1.05,3.2-3.31a2.71,2.71,0,0,0-3-3,4.65,4.65,0,0,0-1,.08Z"/><path class="cls-2" d="M849.41,354.11v-2.17h-4v-1.39l3.44-5.55h2.61v5.34h1.09v1.6h-1.09v2.17Zm0-3.77v-2c0-.54,0-1.1.07-1.69h-.05c-.3.59-.54,1.12-.84,1.69l-1.22,2v0Z"/><path class="cls-2" d="M928.7,351.91a5.54,5.54,0,0,0,2.37.59c1,0,1.5-.41,1.5-1s-.45-.93-1.58-1.33c-1.57-.55-2.59-1.42-2.59-2.79,0-1.61,1.34-2.85,3.57-2.85a5.83,5.83,0,0,1,2.41.48l-.48,1.72a4.53,4.53,0,0,0-2-.45c-.92,0-1.37.43-1.37.92s.53.86,1.75,1.33c1.67.61,2.45,1.48,2.45,2.81,0,1.58-1.21,2.93-3.81,2.93a6.08,6.08,0,0,1-2.67-.58Z"/><path class="cls-2" d="M938,346.46h-2.53v-1.79h7.25v1.79h-2.57v7.65H938Z"/><path class="cls-2" d="M945.06,351.69l-.68,2.42h-2.21l2.89-9.44h2.8l2.93,9.44h-2.3l-.73-2.42Zm2.39-1.6-.59-2c-.16-.57-.33-1.27-.47-1.83h0c-.14.56-.28,1.28-.44,1.83l-.56,2Z"/><path class="cls-2" d="M952,344.79a19.19,19.19,0,0,1,2.84-.19,4.83,4.83,0,0,1,3.06.74,2.4,2.4,0,0,1,.87,2,2.51,2.51,0,0,1-1.67,2.33v0a2.39,2.39,0,0,1,1.26,1.77c.3,1.06.59,2.3.77,2.66H957a11.47,11.47,0,0,1-.66-2.2c-.25-1.18-.66-1.5-1.53-1.51h-.64v3.71H952Zm2.12,4.07H955c1.06,0,1.69-.54,1.69-1.36s-.59-1.31-1.57-1.32a5,5,0,0,0-1,.07Z"/><path class="cls-2" d="M960.34,344.79a17.42,17.42,0,0,1,2.76-.19,5.18,5.18,0,0,1,2.79.53A2,2,0,0,1,967,347a2.14,2.14,0,0,1-1.55,2v0a2.37,2.37,0,0,1,1.88,2.33,2.5,2.5,0,0,1-1,2,6,6,0,0,1-3.72.86,16.56,16.56,0,0,1-2.31-.14Zm2.12,3.62h.7c1.12,0,1.72-.46,1.72-1.16s-.55-1.1-1.51-1.1a5.44,5.44,0,0,0-.91.06Zm0,4.19c.21,0,.46,0,.83,0,1,0,1.82-.36,1.82-1.35s-.86-1.33-1.92-1.33h-.73Z"/><path class="cls-2" d="M977.44,349.29c0,3.1-1.88,5-4.63,5s-4.44-2.11-4.44-4.8,1.8-4.95,4.59-4.95S977.44,346.69,977.44,349.29Zm-6.82.13c0,1.85.87,3.15,2.3,3.15s2.27-1.37,2.27-3.21-.82-3.15-2.29-3.15S970.62,347.58,970.62,349.42Z"/><path class="cls-2" d="M980.81,351.69l-.67,2.42h-2.21l2.88-9.44h2.8l2.93,9.44h-2.3l-.72-2.42Zm2.4-1.6-.59-2c-.17-.57-.34-1.27-.48-1.83h0c-.14.56-.28,1.28-.43,1.83l-.56,2Z"/><path class="cls-2" d="M987.8,344.79a19.08,19.08,0,0,1,2.84-.19,4.82,4.82,0,0,1,3.05.74,2.4,2.4,0,0,1,.87,2,2.5,2.5,0,0,1-1.66,2.33v0a2.42,2.42,0,0,1,1.26,1.77,25,25,0,0,0,.77,2.66h-2.19a12.3,12.3,0,0,1-.66-2.2c-.25-1.18-.66-1.5-1.52-1.51h-.65v3.71H987.8Zm2.11,4.07h.84c1.07,0,1.7-.54,1.7-1.36s-.59-1.31-1.57-1.32a5.23,5.23,0,0,0-1,.07Z"/><path class="cls-2" d="M996.1,344.79a19.92,19.92,0,0,1,2.88-.19,6,6,0,0,1,3.87,1,4.16,4.16,0,0,1,1.6,3.55,4.8,4.8,0,0,1-1.57,3.83,6.78,6.78,0,0,1-4.36,1.22,18.49,18.49,0,0,1-2.42-.14Zm2.14,7.71a4.12,4.12,0,0,0,.74,0c1.94,0,3.2-1.05,3.2-3.31a2.71,2.71,0,0,0-3-3,4.65,4.65,0,0,0-1,.08Z"/><path class="cls-2" d="M1014.15,346.52a6.07,6.07,0,0,0-.83,0c-1.89.16-2.73,1.13-3,2.19h0a2.58,2.58,0,0,1,1.94-.73,2.76,2.76,0,0,1,2.81,3,3.26,3.26,0,0,1-3.36,3.29c-2.42,0-3.61-1.8-3.61-4a5.06,5.06,0,0,1,5.12-5.39,5,5,0,0,1,.86,0Zm-1.16,4.56a1.39,1.39,0,0,0-1.36-1.57,1.38,1.38,0,0,0-1.26.82,1.15,1.15,0,0,0-.09.53c0,1,.51,1.83,1.47,1.83C1012.51,352.69,1013,352,1013,351.08Z"/><path class="cls-2" d="M447.17,66.85a5.75,5.75,0,0,1-2.31.41,4.09,4.09,0,0,1-4.33-4.43,4.36,4.36,0,0,1,4.58-4.6,4.65,4.65,0,0,1,2.08.39l-.28.92a4.1,4.1,0,0,0-1.77-.36c-2.05,0-3.41,1.31-3.41,3.61a3.18,3.18,0,0,0,3.36,3.52,4.58,4.58,0,0,0,1.85-.36Z"/><path class="cls-2" d="M449.72,58.37v5.19c0,2,.87,2.79,2,2.79s2.13-.86,2.13-2.79V58.37H455v5.11c0,2.69-1.42,3.79-3.32,3.79s-3.14-1-3.14-3.74V58.37Z"/><path class="cls-2" d="M457,58.49a11.45,11.45,0,0,1,2.17-.19,3.62,3.62,0,0,1,2.54.72,2.19,2.19,0,0,1,.69,1.66,2.3,2.3,0,0,1-1.66,2.24v0A2.18,2.18,0,0,1,462,64.73a14.43,14.43,0,0,0,.68,2.4h-1.17A11,11,0,0,1,461,65c-.26-1.21-.73-1.67-1.75-1.7h-1.07v3.79H457Zm1.13,4h1.16c1.21,0,2-.67,2-1.67s-.81-1.62-2-1.63a4.81,4.81,0,0,0-1.12.1Z"/><path class="cls-2" d="M464,58.49a11.64,11.64,0,0,1,2.18-.19,3.61,3.61,0,0,1,2.53.72,2.19,2.19,0,0,1,.69,1.66,2.3,2.3,0,0,1-1.65,2.24v0A2.2,2.2,0,0,1,469,64.73a13.76,13.76,0,0,0,.67,2.4h-1.17A11.23,11.23,0,0,1,468,65c-.26-1.21-.73-1.67-1.76-1.7h-1.06v3.79H464Zm1.14,4h1.15c1.21,0,2-.67,2-1.67s-.82-1.62-2-1.63a4.77,4.77,0,0,0-1.11.1Z"/><path class="cls-2" d="M475.53,63h-3.41v3.16h3.8v.95H471V58.37h4.73v1h-3.6v2.77h3.41Z"/><path class="cls-2" d="M477.38,67.13V58.37h1.24l2.81,4.43A25.4,25.4,0,0,1,483,65.65h0c-.11-1.17-.13-2.24-.13-3.6V58.37H484v8.76h-1.14L480,62.69a28.12,28.12,0,0,1-1.64-2.93h0c.06,1.11.09,2.16.09,3.62v3.74Z"/><path class="cls-2" d="M487.6,59.33h-2.66v-1h6.48v1h-2.67v7.8H487.6Z"/><path class="cls-2" d="M443,129.19l-2.86-8.77h1.23l1.36,4.32c.38,1.18.7,2.25.94,3.28h0c.25-1,.61-2.12,1-3.27l1.49-4.33h1.2l-3.13,8.77Z"/><path class="cls-2" d="M455.79,124.71c0,3-1.83,4.62-4.07,4.62s-3.94-1.8-3.94-4.45,1.73-4.6,4.07-4.6S455.79,122.11,455.79,124.71Zm-6.8.15c0,1.87,1,3.55,2.8,3.55s2.81-1.66,2.81-3.64c0-1.75-.91-3.57-2.8-3.57S449,122.93,449,124.86Z"/><path class="cls-2" d="M457.26,120.42h1.13v7.82h3.75v.95h-4.88Z"/><path class="cls-2" d="M463.92,121.39h-2.67v-1h6.49v1h-2.68v7.8h-1.14Z"/><path class="cls-2" d="M469.16,126.43l-.91,2.76h-1.17l3-8.77h1.37l3,8.77H473.2l-.94-2.76Zm2.87-.88-.86-2.53c-.19-.57-.32-1.09-.45-1.6h0c-.13.52-.27,1.06-.44,1.59l-.86,2.54Z"/><path class="cls-2" d="M482.17,128.8a8.25,8.25,0,0,1-2.69.48,4.12,4.12,0,0,1-4.5-4.42,4.39,4.39,0,0,1,4.74-4.53,5.28,5.28,0,0,1,2.19.41l-.27.92a4.54,4.54,0,0,0-1.94-.38,3.28,3.28,0,0,0-3.52,3.52,3.21,3.21,0,0,0,3.38,3.54,3.66,3.66,0,0,0,1.5-.23v-2.62h-1.78v-.91h2.89Z"/><path class="cls-2" d="M488.43,125.08H485v3.16h3.79v.95H483.9v-8.77h4.73v1H485v2.77h3.4Z"/><path class="cls-2" d="M441.05,182.58a13.23,13.23,0,0,1,2.17-.17,3.59,3.59,0,0,1,2.46.73,2.35,2.35,0,0,1,.76,1.83,2.6,2.6,0,0,1-.67,1.88,3.66,3.66,0,0,1-2.68,1,4.16,4.16,0,0,1-.91-.08v3.51h-1.13Zm1.13,4.23a4.1,4.1,0,0,0,.94.09c1.36,0,2.19-.67,2.19-1.87s-.82-1.72-2.06-1.72a4.92,4.92,0,0,0-1.07.09Z"/><path class="cls-2" d="M448.29,188.48l-.91,2.76h-1.17l3-8.76h1.36l3,8.76h-1.21l-.93-2.76Zm2.87-.88-.85-2.52c-.2-.57-.33-1.09-.46-1.6h0c-.13.52-.27,1.05-.44,1.58l-.86,2.54Z"/><path class="cls-2" d="M454.83,191.24v-8.76h1.23l2.81,4.43a25.58,25.58,0,0,1,1.58,2.85l0,0c-.1-1.17-.13-2.23-.13-3.6v-3.66h1.07v8.76h-1.15l-2.78-4.45a28.83,28.83,0,0,1-1.64-2.92h0c.07,1.11.1,2.16.1,3.62v3.74Z"/><path class="cls-2" d="M467.92,187.13h-3.41v3.16h3.8v1h-4.93v-8.76h4.74v1h-3.61v2.77h3.41Z"/><path class="cls-2" d="M469.78,182.48h1.13v7.81h3.74v1h-4.87Z"/><path class="cls-2" d="M478.67,182.58a13.23,13.23,0,0,1,2.17-.17,3.59,3.59,0,0,1,2.46.73,2.36,2.36,0,0,1,.77,1.83,2.61,2.61,0,0,1-.68,1.88,3.66,3.66,0,0,1-2.68,1,4.16,4.16,0,0,1-.91-.08v3.51h-1.13Zm1.13,4.23a4.1,4.1,0,0,0,.94.09c1.36,0,2.2-.67,2.2-1.87s-.82-1.72-2.07-1.72a4.92,4.92,0,0,0-1.07.09Z"/><path class="cls-2" d="M493.08,186.77c0,3-1.84,4.61-4.07,4.61s-3.94-1.79-3.94-4.44,1.73-4.61,4.07-4.61S493.08,184.17,493.08,186.77Zm-6.8.14c0,1.87,1,3.55,2.79,3.55s2.81-1.65,2.81-3.64c0-1.74-.91-3.56-2.8-3.56S486.28,185,486.28,186.91Z"/><path class="cls-2" d="M494.39,189.86a4,4,0,0,0,2,.57c1.15,0,1.83-.61,1.83-1.49s-.47-1.29-1.65-1.74c-1.43-.51-2.32-1.25-2.32-2.49s1.14-2.38,2.84-2.38a4,4,0,0,1,1.94.43l-.32.93a3.41,3.41,0,0,0-1.66-.42c-1.2,0-1.65.72-1.65,1.31,0,.82.53,1.23,1.74,1.69,1.48.58,2.24,1.29,2.24,2.58s-1,2.52-3.07,2.52a4.56,4.56,0,0,1-2.24-.56Z"/><path class="cls-2" d="M502.08,182.48v8.76H501v-8.76Z"/><path class="cls-2" d="M505.72,183.44h-2.66v-1h6.49v1h-2.68v7.8h-1.15Z"/><path class="cls-2" d="M511.65,182.48v8.76h-1.13v-8.76Z"/><path class="cls-2" d="M521.12,186.77c0,3-1.84,4.61-4.07,4.61s-3.94-1.79-3.94-4.44,1.73-4.61,4.07-4.61S521.12,184.17,521.12,186.77Zm-6.8.14c0,1.87,1,3.55,2.79,3.55s2.81-1.65,2.81-3.64c0-1.74-.91-3.56-2.79-3.56S514.32,185,514.32,186.91Z"/><path class="cls-2" d="M522.59,191.24v-8.76h1.23l2.81,4.43a23.89,23.89,0,0,1,1.57,2.85l0,0c-.11-1.17-.13-2.23-.13-3.6v-3.66h1.06v8.76H528l-2.78-4.45a27,27,0,0,1-1.64-2.92h0c.07,1.11.09,2.16.09,3.62v3.74Z"/><path class="cls-2" d="M117.78,66.85a5.75,5.75,0,0,1-2.31.41,4.09,4.09,0,0,1-4.33-4.43,4.36,4.36,0,0,1,4.58-4.6,4.65,4.65,0,0,1,2.08.39l-.28.92a4.1,4.1,0,0,0-1.77-.36c-2,0-3.41,1.31-3.41,3.61a3.18,3.18,0,0,0,3.36,3.52,4.58,4.58,0,0,0,1.85-.36Z"/><path class="cls-2" d="M120.33,58.37v5.19c0,2,.87,2.79,2,2.79s2.13-.86,2.13-2.79V58.37h1.15v5.11c0,2.69-1.42,3.79-3.32,3.79s-3.14-1-3.14-3.74V58.37Z"/><path class="cls-2" d="M127.61,58.49a11.45,11.45,0,0,1,2.17-.19,3.62,3.62,0,0,1,2.54.72,2.19,2.19,0,0,1,.69,1.66,2.3,2.3,0,0,1-1.66,2.24v0a2.18,2.18,0,0,1,1.29,1.77,14.43,14.43,0,0,0,.68,2.4h-1.17a11,11,0,0,1-.59-2.09c-.26-1.21-.73-1.67-1.75-1.7h-1.07v3.79h-1.13Zm1.13,4h1.16c1.21,0,2-.67,2-1.67s-.81-1.62-2-1.63a4.81,4.81,0,0,0-1.12.1Z"/><path class="cls-2" d="M134.6,58.49a11.64,11.64,0,0,1,2.18-.19,3.61,3.61,0,0,1,2.53.72,2.19,2.19,0,0,1,.69,1.66,2.3,2.3,0,0,1-1.65,2.24v0a2.2,2.2,0,0,1,1.29,1.77,13.76,13.76,0,0,0,.67,2.4h-1.17a11.23,11.23,0,0,1-.58-2.09c-.26-1.21-.73-1.67-1.76-1.7h-1.06v3.79H134.6Zm1.14,4h1.15c1.21,0,2-.67,2-1.67s-.82-1.62-2-1.63a4.77,4.77,0,0,0-1.11.1Z"/><path class="cls-2" d="M146.14,63h-3.41v3.16h3.8v.95H141.6V58.37h4.73v1h-3.6v2.77h3.41Z"/><path class="cls-2" d="M148,67.13V58.37h1.24L152,62.8a25.4,25.4,0,0,1,1.57,2.85h0c-.11-1.17-.13-2.24-.13-3.6V58.37h1.06v8.76h-1.14l-2.78-4.44A28.12,28.12,0,0,1,149,59.76h0c.06,1.11.09,2.16.09,3.62v3.74Z"/><path class="cls-2" d="M158.21,59.33h-2.66v-1H162v1h-2.67v7.8h-1.15Z"/><path class="cls-2" d="M115.7,129.19l-2.86-8.77h1.22l1.37,4.32c.38,1.18.7,2.25.93,3.28h0c.25-1,.61-2.12,1-3.27l1.48-4.33h1.21L117,129.19Z"/><path class="cls-2" d="M128.52,124.71c0,3-1.83,4.62-4.07,4.62s-3.94-1.8-3.94-4.45,1.73-4.6,4.07-4.6S128.52,122.11,128.52,124.71Zm-6.8.15c0,1.87,1,3.55,2.8,3.55s2.8-1.66,2.8-3.64c0-1.75-.91-3.57-2.79-3.57S121.72,122.93,121.72,124.86Z"/><path class="cls-2" d="M130,120.42h1.13v7.82h3.74v.95H130Z"/><path class="cls-2" d="M136.64,121.39H134v-1h6.49v1h-2.68v7.8h-1.15Z"/><path class="cls-2" d="M141.88,126.43l-.91,2.76H139.8l3-8.77h1.37l3,8.77h-1.21l-.94-2.76Zm2.88-.88L143.9,123c-.2-.57-.33-1.09-.46-1.6h0c-.13.52-.28,1.06-.44,1.59l-.86,2.54Z"/><path class="cls-2" d="M154.9,128.8a8.25,8.25,0,0,1-2.69.48,4.12,4.12,0,0,1-4.5-4.42,4.39,4.39,0,0,1,4.74-4.53,5.28,5.28,0,0,1,2.19.41l-.28.92a4.46,4.46,0,0,0-1.93-.38,3.28,3.28,0,0,0-3.53,3.52,3.21,3.21,0,0,0,3.38,3.54,3.72,3.72,0,0,0,1.51-.23v-2.62H152v-.91h2.89Z"/><path class="cls-2" d="M161.16,125.08h-3.4v3.16h3.79v.95h-4.93v-8.77h4.74v1h-3.6v2.77h3.4Z"/><path class="cls-2" d="M72.93,182.58a13.23,13.23,0,0,1,2.17-.17,3.59,3.59,0,0,1,2.46.73,2.36,2.36,0,0,1,.77,1.83,2.61,2.61,0,0,1-.68,1.88,3.66,3.66,0,0,1-2.68,1,4.22,4.22,0,0,1-.91-.08v3.51H72.93Zm1.13,4.23a4.1,4.1,0,0,0,.94.09c1.36,0,2.2-.67,2.2-1.87s-.82-1.72-2.07-1.72a5,5,0,0,0-1.07.09Z"/><path class="cls-2" d="M80.17,188.48l-.91,2.76H78.09l3-8.76h1.37l3,8.76H84.22l-.94-2.76Zm2.88-.88-.86-2.52c-.2-.57-.33-1.09-.46-1.6h0c-.13.52-.28,1.05-.44,1.58l-.86,2.54Z"/><path class="cls-2" d="M86.71,191.24v-8.76H88l2.81,4.43a25.4,25.4,0,0,1,1.57,2.85l0,0c-.1-1.17-.12-2.23-.12-3.6v-3.66h1.06v8.76H92.15l-2.79-4.45a26.89,26.89,0,0,1-1.63-2.92h0c.06,1.11.09,2.16.09,3.62v3.74Z"/><path class="cls-2" d="M99.8,187.13H96.4v3.16h3.79v1H95.27v-8.76H100v1H96.4v2.77h3.4Z"/><path class="cls-2" d="M101.66,182.48h1.13v7.81h3.75v1h-4.88Z"/><path class="cls-2" d="M110.55,182.58a13.27,13.27,0,0,1,2.18-.17,3.58,3.58,0,0,1,2.45.73A2.36,2.36,0,0,1,116,185a2.56,2.56,0,0,1-.68,1.88,3.63,3.63,0,0,1-2.67,1,4.1,4.1,0,0,1-.91-.08v3.51h-1.14Zm1.14,4.23a3.94,3.94,0,0,0,.93.09c1.37,0,2.2-.67,2.2-1.87s-.82-1.72-2.07-1.72a4.82,4.82,0,0,0-1.06.09Z"/><path class="cls-2" d="M125,186.77c0,3-1.84,4.61-4.07,4.61s-3.94-1.79-3.94-4.44,1.73-4.61,4.07-4.61S125,184.17,125,186.77Zm-6.8.14c0,1.87,1,3.55,2.79,3.55s2.81-1.65,2.81-3.64c0-1.74-.91-3.56-2.79-3.56S118.16,185,118.16,186.91Z"/><path class="cls-2" d="M126.27,189.86a4,4,0,0,0,2,.57c1.16,0,1.83-.61,1.83-1.49s-.47-1.29-1.65-1.74c-1.43-.51-2.31-1.25-2.31-2.49s1.13-2.38,2.83-2.38a4,4,0,0,1,1.94.43l-.31.93a3.45,3.45,0,0,0-1.67-.42c-1.19,0-1.65.72-1.65,1.31,0,.82.53,1.23,1.74,1.69,1.49.58,2.24,1.29,2.24,2.58s-1,2.52-3.07,2.52a4.59,4.59,0,0,1-2.24-.56Z"/><path class="cls-2" d="M134,182.48v8.76h-1.13v-8.76Z"/><path class="cls-2" d="M137.61,183.44h-2.67v-1h6.49v1h-2.68v7.8h-1.14Z"/><path class="cls-2" d="M143.54,182.48v8.76H142.4v-8.76Z"/><path class="cls-2" d="M153,186.77c0,3-1.83,4.61-4.07,4.61s-3.94-1.79-3.94-4.44,1.73-4.61,4.07-4.61S153,184.17,153,186.77Zm-6.8.14c0,1.87,1,3.55,2.8,3.55s2.8-1.65,2.8-3.64c0-1.74-.91-3.56-2.79-3.56S146.2,185,146.2,186.91Z"/><path class="cls-2" d="M154.47,191.24v-8.76h1.23l2.81,4.43a23.89,23.89,0,0,1,1.57,2.85l0,0c-.1-1.17-.13-2.23-.13-3.6v-3.66h1.07v8.76H159.9l-2.78-4.45a27,27,0,0,1-1.64-2.92h0c.07,1.11.09,2.16.09,3.62v3.74Z"/><path class="cls-2" d="M447.17,486.06a5.75,5.75,0,0,1-2.31.41,4.09,4.09,0,0,1-4.33-4.43,4.36,4.36,0,0,1,4.58-4.6,4.65,4.65,0,0,1,2.08.39l-.28.92a4.1,4.1,0,0,0-1.77-.36c-2.05,0-3.41,1.31-3.41,3.61a3.18,3.18,0,0,0,3.36,3.52,4.58,4.58,0,0,0,1.85-.36Z"/><path class="cls-2" d="M449.72,477.58v5.19c0,2,.87,2.79,2,2.79s2.13-.86,2.13-2.79v-5.19H455v5.11c0,2.69-1.42,3.79-3.32,3.79s-3.14-1-3.14-3.74v-5.16Z"/><path class="cls-2" d="M457,477.7a11.45,11.45,0,0,1,2.17-.19,3.62,3.62,0,0,1,2.54.72,2.19,2.19,0,0,1,.69,1.66,2.3,2.3,0,0,1-1.66,2.24v0a2.18,2.18,0,0,1,1.29,1.77,14.43,14.43,0,0,0,.68,2.4h-1.17a11,11,0,0,1-.59-2.09c-.26-1.21-.73-1.67-1.75-1.7h-1.07v3.79H457Zm1.13,4h1.16c1.21,0,2-.67,2-1.67s-.81-1.62-2-1.63a4.81,4.81,0,0,0-1.12.1Z"/><path class="cls-2" d="M464,477.7a11.64,11.64,0,0,1,2.18-.19,3.61,3.61,0,0,1,2.53.72,2.19,2.19,0,0,1,.69,1.66,2.3,2.3,0,0,1-1.65,2.24v0a2.2,2.2,0,0,1,1.29,1.77,13.76,13.76,0,0,0,.67,2.4h-1.17a11.23,11.23,0,0,1-.58-2.09c-.26-1.21-.73-1.67-1.76-1.7h-1.06v3.79H464Zm1.14,4h1.15c1.21,0,2-.67,2-1.67s-.82-1.62-2-1.63a4.77,4.77,0,0,0-1.11.1Z"/><path class="cls-2" d="M475.53,482.23h-3.41v3.16h3.8v.95H471v-8.76h4.73v.95h-3.6v2.77h3.41Z"/><path class="cls-2" d="M477.38,486.34v-8.76h1.24l2.81,4.43a25.4,25.4,0,0,1,1.57,2.85h0c-.11-1.17-.13-2.24-.13-3.6v-3.67H484v8.76h-1.14L480,481.9A28.12,28.12,0,0,1,478.4,479h0c.06,1.11.09,2.16.09,3.62v3.74Z"/><path class="cls-2" d="M487.6,478.54h-2.66v-1h6.48v1h-2.67v7.8H487.6Z"/><path class="cls-2" d="M443,548.4l-2.86-8.77h1.23L442.7,544c.38,1.18.7,2.25.94,3.28h0c.25-1,.61-2.12,1-3.27l1.49-4.33h1.2l-3.13,8.77Z"/><path class="cls-2" d="M455.79,543.92c0,3-1.83,4.62-4.07,4.62s-3.94-1.8-3.94-4.45,1.73-4.6,4.07-4.6S455.79,541.32,455.79,543.92Zm-6.8.15c0,1.87,1,3.55,2.8,3.55S454.6,546,454.6,544c0-1.75-.91-3.57-2.8-3.57S449,542.14,449,544.07Z"/><path class="cls-2" d="M457.26,539.63h1.13v7.82h3.75v.95h-4.88Z"/><path class="cls-2" d="M463.92,540.59h-2.67v-1h6.49v1h-2.68v7.81h-1.14Z"/><path class="cls-2" d="M469.16,545.64l-.91,2.76h-1.17l3-8.77h1.37l3,8.77H473.2l-.94-2.76Zm2.87-.89-.86-2.52c-.19-.57-.32-1.09-.45-1.6h0c-.13.52-.27,1.06-.44,1.59l-.86,2.53Z"/><path class="cls-2" d="M482.17,548a7.94,7.94,0,0,1-2.69.49,4.12,4.12,0,0,1-4.5-4.42,4.39,4.39,0,0,1,4.74-4.53,5.28,5.28,0,0,1,2.19.41l-.27.92a4.54,4.54,0,0,0-1.94-.38,3.28,3.28,0,0,0-3.52,3.52,3.21,3.21,0,0,0,3.38,3.54,3.66,3.66,0,0,0,1.5-.23V544.7h-1.78v-.91h2.89Z"/><path class="cls-2" d="M488.43,544.29H485v3.16h3.79v.95H483.9v-8.77h4.73v1H485v2.77h3.4Z"/><path class="cls-2" d="M441.05,601.79a13.23,13.23,0,0,1,2.17-.17,3.59,3.59,0,0,1,2.46.73,2.35,2.35,0,0,1,.76,1.83,2.6,2.6,0,0,1-.67,1.88,3.66,3.66,0,0,1-2.68,1,4.16,4.16,0,0,1-.91-.08v3.51h-1.13Zm1.13,4.23a4.1,4.1,0,0,0,.94.09c1.36,0,2.19-.67,2.19-1.87s-.82-1.72-2.06-1.72a4.92,4.92,0,0,0-1.07.09Z"/><path class="cls-2" d="M448.29,607.69l-.91,2.76h-1.17l3-8.76h1.36l3,8.76h-1.21l-.93-2.76Zm2.87-.88-.85-2.52c-.2-.58-.33-1.09-.46-1.6h0c-.13.52-.27,1-.44,1.58l-.86,2.54Z"/><path class="cls-2" d="M454.83,610.45v-8.76h1.23l2.81,4.43a25.58,25.58,0,0,1,1.58,2.85l0,0c-.1-1.17-.13-2.23-.13-3.6v-3.66h1.07v8.76h-1.15L457.48,606a28.83,28.83,0,0,1-1.64-2.92h0c.07,1.11.1,2.16.1,3.62v3.74Z"/><path class="cls-2" d="M467.92,606.34h-3.41v3.16h3.8v1h-4.93v-8.76h4.74v.95h-3.61v2.77h3.41Z"/><path class="cls-2" d="M469.78,601.69h1.13v7.81h3.74v1h-4.87Z"/><path class="cls-2" d="M478.67,601.79a13.23,13.23,0,0,1,2.17-.17,3.59,3.59,0,0,1,2.46.73,2.36,2.36,0,0,1,.77,1.83,2.61,2.61,0,0,1-.68,1.88,3.66,3.66,0,0,1-2.68,1,4.16,4.16,0,0,1-.91-.08v3.51h-1.13ZM479.8,606a4.1,4.1,0,0,0,.94.09c1.36,0,2.2-.67,2.2-1.87s-.82-1.72-2.07-1.72a4.92,4.92,0,0,0-1.07.09Z"/><path class="cls-2" d="M493.08,606c0,3-1.84,4.61-4.07,4.61s-3.94-1.79-3.94-4.44,1.73-4.61,4.07-4.61S493.08,603.38,493.08,606Zm-6.8.14c0,1.87,1,3.55,2.79,3.55s2.81-1.65,2.81-3.64c0-1.74-.91-3.56-2.8-3.56S486.28,604.2,486.28,606.12Z"/><path class="cls-2" d="M494.39,609.07a4,4,0,0,0,2,.57c1.15,0,1.83-.61,1.83-1.49s-.47-1.29-1.65-1.74c-1.43-.51-2.32-1.25-2.32-2.49s1.14-2.38,2.84-2.38a4,4,0,0,1,1.94.43l-.32.93a3.41,3.41,0,0,0-1.66-.42c-1.2,0-1.65.72-1.65,1.31,0,.82.53,1.23,1.74,1.69,1.48.58,2.24,1.29,2.24,2.58s-1,2.52-3.07,2.52a4.56,4.56,0,0,1-2.24-.56Z"/><path class="cls-2" d="M502.08,601.69v8.76H501v-8.76Z"/><path class="cls-2" d="M505.72,602.65h-2.66v-1h6.49v1h-2.68v7.8h-1.15Z"/><path class="cls-2" d="M511.65,601.69v8.76h-1.13v-8.76Z"/><path class="cls-2" d="M521.12,606c0,3-1.84,4.61-4.07,4.61s-3.94-1.79-3.94-4.44,1.73-4.61,4.07-4.61S521.12,603.38,521.12,606Zm-6.8.14c0,1.87,1,3.55,2.79,3.55s2.81-1.65,2.81-3.64c0-1.74-.91-3.56-2.79-3.56S514.32,604.2,514.32,606.12Z"/><path class="cls-2" d="M522.59,610.45v-8.76h1.23l2.81,4.43A23.89,23.89,0,0,1,528.2,609l0,0c-.11-1.17-.13-2.23-.13-3.6v-3.66h1.06v8.76H528L525.24,606a27,27,0,0,1-1.64-2.92h0c.07,1.11.09,2.16.09,3.62v3.74Z"/><path class="cls-2" d="M117.78,486.06a5.75,5.75,0,0,1-2.31.41,4.09,4.09,0,0,1-4.33-4.43,4.36,4.36,0,0,1,4.58-4.6,4.65,4.65,0,0,1,2.08.39l-.28.92a4.1,4.1,0,0,0-1.77-.36c-2,0-3.41,1.31-3.41,3.61a3.18,3.18,0,0,0,3.36,3.52,4.58,4.58,0,0,0,1.85-.36Z"/><path class="cls-2" d="M120.33,477.58v5.19c0,2,.87,2.79,2,2.79s2.13-.86,2.13-2.79v-5.19h1.15v5.11c0,2.69-1.42,3.79-3.32,3.79s-3.14-1-3.14-3.74v-5.16Z"/><path class="cls-2" d="M127.61,477.7a11.45,11.45,0,0,1,2.17-.19,3.62,3.62,0,0,1,2.54.72,2.19,2.19,0,0,1,.69,1.66,2.3,2.3,0,0,1-1.66,2.24v0a2.18,2.18,0,0,1,1.29,1.77,14.43,14.43,0,0,0,.68,2.4h-1.17a11,11,0,0,1-.59-2.09c-.26-1.21-.73-1.67-1.75-1.7h-1.07v3.79h-1.13Zm1.13,4h1.16c1.21,0,2-.67,2-1.67s-.81-1.62-2-1.63a4.81,4.81,0,0,0-1.12.1Z"/><path class="cls-2" d="M134.6,477.7a11.64,11.64,0,0,1,2.18-.19,3.61,3.61,0,0,1,2.53.72,2.19,2.19,0,0,1,.69,1.66,2.3,2.3,0,0,1-1.65,2.24v0a2.2,2.2,0,0,1,1.29,1.77,13.76,13.76,0,0,0,.67,2.4h-1.17a11.23,11.23,0,0,1-.58-2.09c-.26-1.21-.73-1.67-1.76-1.7h-1.06v3.79H134.6Zm1.14,4h1.15c1.21,0,2-.67,2-1.67s-.82-1.62-2-1.63a4.77,4.77,0,0,0-1.11.1Z"/><path class="cls-2" d="M146.14,482.23h-3.41v3.16h3.8v.95H141.6v-8.76h4.73v.95h-3.6v2.77h3.41Z"/><path class="cls-2" d="M148,486.34v-8.76h1.24L152,482a25.4,25.4,0,0,1,1.57,2.85h0c-.11-1.17-.13-2.24-.13-3.6v-3.67h1.06v8.76h-1.14l-2.78-4.44A28.12,28.12,0,0,1,149,479h0c.06,1.11.09,2.16.09,3.62v3.74Z"/><path class="cls-2" d="M158.21,478.54h-2.66v-1H162v1h-2.67v7.8h-1.15Z"/><path class="cls-2" d="M115.7,548.4l-2.86-8.77h1.22l1.37,4.32c.38,1.18.7,2.25.93,3.28h0c.25-1,.61-2.12,1-3.27l1.48-4.33h1.21L117,548.4Z"/><path class="cls-2" d="M128.52,543.92c0,3-1.83,4.62-4.07,4.62s-3.94-1.8-3.94-4.45,1.73-4.6,4.07-4.6S128.52,541.32,128.52,543.92Zm-6.8.15c0,1.87,1,3.55,2.8,3.55s2.8-1.66,2.8-3.64c0-1.75-.91-3.57-2.79-3.57S121.72,542.14,121.72,544.07Z"/><path class="cls-2" d="M130,539.63h1.13v7.82h3.74v.95H130Z"/><path class="cls-2" d="M136.64,540.59H134v-1h6.49v1h-2.68v7.81h-1.15Z"/><path class="cls-2" d="M141.88,545.64,141,548.4H139.8l3-8.77h1.37l3,8.77h-1.21l-.94-2.76Zm2.88-.89-.86-2.52c-.2-.57-.33-1.09-.46-1.6h0c-.13.52-.28,1.06-.44,1.59l-.86,2.53Z"/><path class="cls-2" d="M154.9,548a7.94,7.94,0,0,1-2.69.49,4.12,4.12,0,0,1-4.5-4.42,4.39,4.39,0,0,1,4.74-4.53,5.28,5.28,0,0,1,2.19.41l-.28.92a4.46,4.46,0,0,0-1.93-.38A3.28,3.28,0,0,0,148.9,544a3.21,3.21,0,0,0,3.38,3.54,3.72,3.72,0,0,0,1.51-.23V544.7H152v-.91h2.89Z"/><path class="cls-2" d="M161.16,544.29h-3.4v3.16h3.79v.95h-4.93v-8.77h4.74v1h-3.6v2.77h3.4Z"/><path class="cls-2" d="M72.93,601.79a13.23,13.23,0,0,1,2.17-.17,3.59,3.59,0,0,1,2.46.73,2.36,2.36,0,0,1,.77,1.83,2.61,2.61,0,0,1-.68,1.88A3.66,3.66,0,0,1,75,607a4.22,4.22,0,0,1-.91-.08v3.51H72.93ZM74.06,606a4.1,4.1,0,0,0,.94.09c1.36,0,2.2-.67,2.2-1.87s-.82-1.72-2.07-1.72a5,5,0,0,0-1.07.09Z"/><path class="cls-2" d="M80.17,607.69l-.91,2.76H78.09l3-8.76h1.37l3,8.76H84.22l-.94-2.76Zm2.88-.88-.86-2.52c-.2-.58-.33-1.09-.46-1.6h0c-.13.52-.28,1-.44,1.58l-.86,2.54Z"/><path class="cls-2" d="M86.71,610.45v-8.76H88l2.81,4.43A25.4,25.4,0,0,1,92.33,609l0,0c-.1-1.17-.12-2.23-.12-3.6v-3.66h1.06v8.76H92.15L89.36,606a26.89,26.89,0,0,1-1.63-2.92h0c.06,1.11.09,2.16.09,3.62v3.74Z"/><path class="cls-2" d="M99.8,606.34H96.4v3.16h3.79v1H95.27v-8.76H100v.95H96.4v2.77h3.4Z"/><path class="cls-2" d="M101.66,601.69h1.13v7.81h3.75v1h-4.88Z"/><path class="cls-2" d="M110.55,601.79a13.27,13.27,0,0,1,2.18-.17,3.58,3.58,0,0,1,2.45.73,2.36,2.36,0,0,1,.77,1.83,2.56,2.56,0,0,1-.68,1.88,3.63,3.63,0,0,1-2.67,1,4.1,4.1,0,0,1-.91-.08v3.51h-1.14Zm1.14,4.23a3.94,3.94,0,0,0,.93.09c1.37,0,2.2-.67,2.2-1.87s-.82-1.72-2.07-1.72a4.82,4.82,0,0,0-1.06.09Z"/><path class="cls-2" d="M125,606c0,3-1.84,4.61-4.07,4.61S117,608.8,117,606.15s1.73-4.61,4.07-4.61S125,603.38,125,606Zm-6.8.14c0,1.87,1,3.55,2.79,3.55s2.81-1.65,2.81-3.64c0-1.74-.91-3.56-2.79-3.56S118.16,604.2,118.16,606.12Z"/><path class="cls-2" d="M126.27,609.07a4,4,0,0,0,2,.57c1.16,0,1.83-.61,1.83-1.49s-.47-1.29-1.65-1.74c-1.43-.51-2.31-1.25-2.31-2.49s1.13-2.38,2.83-2.38a4,4,0,0,1,1.94.43l-.31.93a3.45,3.45,0,0,0-1.67-.42c-1.19,0-1.65.72-1.65,1.31,0,.82.53,1.23,1.74,1.69,1.49.58,2.24,1.29,2.24,2.58s-1,2.52-3.07,2.52A4.59,4.59,0,0,1,126,610Z"/><path class="cls-2" d="M134,601.69v8.76h-1.13v-8.76Z"/><path class="cls-2" d="M137.61,602.65h-2.67v-1h6.49v1h-2.68v7.8h-1.14Z"/><path class="cls-2" d="M143.54,601.69v8.76H142.4v-8.76Z"/><path class="cls-2" d="M153,606c0,3-1.83,4.61-4.07,4.61S145,608.8,145,606.15s1.73-4.61,4.07-4.61S153,603.38,153,606Zm-6.8.14c0,1.87,1,3.55,2.8,3.55s2.8-1.65,2.8-3.64c0-1.74-.91-3.56-2.79-3.56S146.2,604.2,146.2,606.12Z"/><path class="cls-2" d="M154.47,610.45v-8.76h1.23l2.81,4.43a23.89,23.89,0,0,1,1.57,2.85l0,0c-.1-1.17-.13-2.23-.13-3.6v-3.66h1.07v8.76H159.9L157.12,606a27,27,0,0,1-1.64-2.92h0c.07,1.11.09,2.16.09,3.62v3.74Z"/><path class="cls-2" d="M1034.91,486.06a5.79,5.79,0,0,1-2.31.41,4.09,4.09,0,0,1-4.33-4.43,4.35,4.35,0,0,1,4.57-4.6,4.61,4.61,0,0,1,2.08.39l-.27.92a4.1,4.1,0,0,0-1.77-.36,3.26,3.26,0,0,0-3.42,3.61,3.19,3.19,0,0,0,3.37,3.52,4.58,4.58,0,0,0,1.85-.36Z"/><path class="cls-2" d="M1037.46,477.58v5.19c0,2,.87,2.79,2,2.79s2.13-.86,2.13-2.79v-5.19h1.15v5.11c0,2.69-1.42,3.79-3.32,3.79s-3.15-1-3.15-3.74v-5.16Z"/><path class="cls-2" d="M1044.74,477.7a11.45,11.45,0,0,1,2.17-.19,3.58,3.58,0,0,1,2.53.72,2.16,2.16,0,0,1,.69,1.66,2.29,2.29,0,0,1-1.65,2.24v0a2.18,2.18,0,0,1,1.29,1.77,12.63,12.63,0,0,0,.68,2.4h-1.17a11,11,0,0,1-.59-2.09c-.26-1.21-.73-1.67-1.76-1.7h-1.06v3.79h-1.13Zm1.13,4H1047c1.21,0,2-.67,2-1.67s-.82-1.62-2-1.63a4.81,4.81,0,0,0-1.12.1Z"/><path class="cls-2" d="M1051.73,477.7a11.45,11.45,0,0,1,2.17-.19,3.62,3.62,0,0,1,2.54.72,2.19,2.19,0,0,1,.69,1.66,2.3,2.3,0,0,1-1.65,2.24v0a2.19,2.19,0,0,1,1.28,1.77,14.43,14.43,0,0,0,.68,2.4h-1.17a11.8,11.8,0,0,1-.59-2.09c-.26-1.21-.72-1.67-1.75-1.7h-1.07v3.79h-1.13Zm1.13,4H1054c1.21,0,2-.67,2-1.67s-.82-1.62-2-1.63a4.81,4.81,0,0,0-1.12.1Z"/><path class="cls-2" d="M1063.26,482.23h-3.4v3.16h3.79v.95h-4.92v-8.76h4.73v.95h-3.6v2.77h3.4Z"/><path class="cls-2" d="M1065.12,486.34v-8.76h1.24l2.81,4.43a25.4,25.4,0,0,1,1.57,2.85h0c-.1-1.17-.13-2.24-.13-3.6v-3.67h1.07v8.76h-1.14l-2.79-4.44a28,28,0,0,1-1.63-2.93h0c.06,1.11.09,2.16.09,3.62v3.74Z"/><path class="cls-2" d="M1075.34,478.54h-2.67v-1h6.49v1h-2.68v7.8h-1.14Z"/><path class="cls-2" d="M1030.71,548.4l-2.86-8.77h1.22l1.37,4.32c.38,1.18.7,2.25.93,3.28h0c.25-1,.61-2.12,1-3.27l1.48-4.33h1.21L1032,548.4Z"/><path class="cls-2" d="M1043.53,543.92c0,3-1.83,4.62-4.07,4.62s-3.94-1.8-3.94-4.45,1.73-4.6,4.07-4.6S1043.53,541.32,1043.53,543.92Zm-6.8.15c0,1.87,1,3.55,2.8,3.55s2.8-1.66,2.8-3.64c0-1.75-.91-3.57-2.79-3.57S1036.73,542.14,1036.73,544.07Z"/><path class="cls-2" d="M1045,539.63h1.13v7.82h3.74v.95H1045Z"/><path class="cls-2" d="M1051.65,540.59H1049v-1h6.49v1h-2.68v7.81h-1.15Z"/><path class="cls-2" d="M1056.89,545.64l-.91,2.76h-1.17l3-8.77h1.36l3,8.77h-1.2l-.94-2.76Zm2.88-.89-.86-2.52c-.2-.57-.33-1.09-.46-1.6h0c-.13.52-.28,1.06-.45,1.59l-.85,2.53Z"/><path class="cls-2" d="M1069.91,548a8,8,0,0,1-2.7.49,4.12,4.12,0,0,1-4.49-4.42,4.39,4.39,0,0,1,4.74-4.53,5.28,5.28,0,0,1,2.19.41l-.28.92a4.46,4.46,0,0,0-1.93-.38,3.28,3.28,0,0,0-3.53,3.52,3.21,3.21,0,0,0,3.38,3.54,3.72,3.72,0,0,0,1.51-.23V544.7H1067v-.91h2.89Z"/><path class="cls-2" d="M1076.17,544.29h-3.4v3.16h3.79v.95h-4.93v-8.77h4.74v1h-3.6v2.77h3.4Z"/><path class="cls-2" d="M1028.79,601.79a13.13,13.13,0,0,1,2.17-.17,3.59,3.59,0,0,1,2.46.73,2.35,2.35,0,0,1,.76,1.83,2.6,2.6,0,0,1-.67,1.88,3.67,3.67,0,0,1-2.68,1,4.16,4.16,0,0,1-.91-.08v3.51h-1.13Zm1.13,4.23a4.06,4.06,0,0,0,.93.09c1.37,0,2.2-.67,2.2-1.87s-.82-1.72-2.07-1.72a4.82,4.82,0,0,0-1.06.09Z"/><path class="cls-2" d="M1036,607.69l-.91,2.76H1034l3-8.76h1.36l3,8.76h-1.21l-.93-2.76Zm2.87-.88-.86-2.52c-.19-.58-.32-1.09-.45-1.6h0c-.13.52-.27,1-.44,1.58l-.86,2.54Z"/><path class="cls-2" d="M1042.57,610.45v-8.76h1.23l2.81,4.43a23.89,23.89,0,0,1,1.57,2.85l0,0c-.1-1.17-.13-2.23-.13-3.6v-3.66h1.07v8.76H1048l-2.78-4.45a27,27,0,0,1-1.64-2.92h0c.07,1.11.09,2.16.09,3.62v3.74Z"/><path class="cls-2" d="M1055.66,606.34h-3.41v3.16h3.8v1h-4.93v-8.76h4.73v.95h-3.6v2.77h3.41Z"/><path class="cls-2" d="M1057.52,601.69h1.13v7.81h3.74v1h-4.87Z"/><path class="cls-2" d="M1066.41,601.79a13.23,13.23,0,0,1,2.17-.17,3.59,3.59,0,0,1,2.46.73,2.35,2.35,0,0,1,.76,1.83,2.6,2.6,0,0,1-.67,1.88,3.67,3.67,0,0,1-2.68,1,4.16,4.16,0,0,1-.91-.08v3.51h-1.13Zm1.13,4.23a4.1,4.1,0,0,0,.94.09c1.36,0,2.19-.67,2.19-1.87s-.82-1.72-2.06-1.72a4.86,4.86,0,0,0-1.07.09Z"/><path class="cls-2" d="M1080.81,606c0,3-1.83,4.61-4.07,4.61s-3.94-1.79-3.94-4.44,1.73-4.61,4.07-4.61S1080.81,603.38,1080.81,606Zm-6.8.14c0,1.87,1,3.55,2.8,3.55s2.81-1.65,2.81-3.64c0-1.74-.91-3.56-2.8-3.56S1074,604.2,1074,606.12Z"/><path class="cls-2" d="M1082.13,609.07a4,4,0,0,0,2,.57c1.16,0,1.84-.61,1.84-1.49s-.47-1.29-1.65-1.74c-1.43-.51-2.32-1.25-2.32-2.49s1.13-2.38,2.84-2.38a4,4,0,0,1,1.93.43l-.31.93a3.41,3.41,0,0,0-1.66-.42c-1.2,0-1.65.72-1.65,1.31,0,.82.53,1.23,1.74,1.69,1.48.58,2.23,1.29,2.23,2.58s-1,2.52-3.06,2.52a4.56,4.56,0,0,1-2.24-.56Z"/><path class="cls-2" d="M1089.82,601.69v8.76h-1.13v-8.76Z"/><path class="cls-2" d="M1093.46,602.65h-2.66v-1h6.48v1h-2.67v7.8h-1.15Z"/><path class="cls-2" d="M1099.39,601.69v8.76h-1.13v-8.76Z"/><path class="cls-2" d="M1108.85,606c0,3-1.83,4.61-4.06,4.61s-3.94-1.79-3.94-4.44,1.73-4.61,4.07-4.61S1108.85,603.38,1108.85,606Zm-6.8.14c0,1.87,1,3.55,2.8,3.55s2.81-1.65,2.81-3.64c0-1.74-.91-3.56-2.8-3.56S1102.05,604.2,1102.05,606.12Z"/><path class="cls-2" d="M1110.32,610.45v-8.76h1.24l2.81,4.43a25.4,25.4,0,0,1,1.57,2.85l0,0c-.1-1.17-.13-2.23-.13-3.6v-3.66h1.07v8.76h-1.14L1113,606a26.89,26.89,0,0,1-1.63-2.92h0c.06,1.11.09,2.16.09,3.62v3.74Z"/><path class="cls-2" d="M705.52,486.06a5.79,5.79,0,0,1-2.31.41,4.09,4.09,0,0,1-4.33-4.43,4.35,4.35,0,0,1,4.57-4.6,4.65,4.65,0,0,1,2.08.39l-.27.92a4.1,4.1,0,0,0-1.77-.36,3.26,3.26,0,0,0-3.42,3.61,3.19,3.19,0,0,0,3.37,3.52,4.58,4.58,0,0,0,1.85-.36Z"/><path class="cls-2" d="M708.07,477.58v5.19c0,2,.87,2.79,2,2.79s2.13-.86,2.13-2.79v-5.19h1.15v5.11c0,2.69-1.42,3.79-3.32,3.79s-3.15-1-3.15-3.74v-5.16Z"/><path class="cls-2" d="M715.35,477.7a11.45,11.45,0,0,1,2.17-.19,3.58,3.58,0,0,1,2.53.72,2.16,2.16,0,0,1,.69,1.66,2.3,2.3,0,0,1-1.65,2.24v0a2.18,2.18,0,0,1,1.29,1.77,14.76,14.76,0,0,0,.67,2.4h-1.17a12.13,12.13,0,0,1-.58-2.09c-.26-1.21-.73-1.67-1.76-1.7h-1.06v3.79h-1.13Zm1.13,4h1.16c1.2,0,2-.67,2-1.67s-.82-1.62-2-1.63a4.81,4.81,0,0,0-1.12.1Z"/><path class="cls-2" d="M722.34,477.7a11.45,11.45,0,0,1,2.17-.19,3.62,3.62,0,0,1,2.54.72,2.19,2.19,0,0,1,.69,1.66,2.3,2.3,0,0,1-1.65,2.24v0a2.17,2.17,0,0,1,1.28,1.77,14.43,14.43,0,0,0,.68,2.4h-1.17a11.8,11.8,0,0,1-.59-2.09c-.26-1.21-.72-1.67-1.75-1.7h-1.07v3.79h-1.13Zm1.13,4h1.16c1.21,0,2-.67,2-1.67s-.82-1.62-2-1.63a4.88,4.88,0,0,0-1.12.1Z"/><path class="cls-2" d="M733.87,482.23h-3.4v3.16h3.79v.95h-4.92v-8.76h4.73v.95h-3.6v2.77h3.4Z"/><path class="cls-2" d="M735.73,486.34v-8.76H737l2.81,4.43a27.11,27.11,0,0,1,1.57,2.85h0c-.1-1.17-.13-2.24-.13-3.6v-3.67h1.07v8.76h-1.14l-2.79-4.44a28,28,0,0,1-1.63-2.93h0c.06,1.11.09,2.16.09,3.62v3.74Z"/><path class="cls-2" d="M746,478.54h-2.67v-1h6.49v1h-2.68v7.8H746Z"/><path class="cls-2" d="M703.44,548.4l-2.86-8.77h1.22l1.37,4.32c.37,1.18.7,2.25.93,3.28h0c.25-1,.61-2.12,1-3.27l1.48-4.33h1.21l-3.13,8.77Z"/><path class="cls-2" d="M716.26,543.92c0,3-1.84,4.62-4.07,4.62s-3.94-1.8-3.94-4.45,1.73-4.6,4.07-4.6S716.26,541.32,716.26,543.92Zm-6.8.15c0,1.87,1,3.55,2.79,3.55s2.81-1.66,2.81-3.64c0-1.75-.91-3.57-2.79-3.57S709.46,542.14,709.46,544.07Z"/><path class="cls-2" d="M717.73,539.63h1.13v7.82h3.74v.95h-4.87Z"/><path class="cls-2" d="M724.38,540.59h-2.66v-1h6.48v1h-2.67v7.81h-1.15Z"/><path class="cls-2" d="M729.62,545.64l-.91,2.76h-1.17l3-8.77h1.36l3,8.77h-1.21l-.93-2.76Zm2.87-.89-.85-2.52c-.2-.57-.33-1.09-.46-1.6h0c-.13.52-.27,1.06-.44,1.59l-.86,2.53Z"/><path class="cls-2" d="M742.63,548a7.83,7.83,0,0,1-2.69.49,4.13,4.13,0,0,1-4.5-4.42,4.4,4.4,0,0,1,4.75-4.53,5.22,5.22,0,0,1,2.18.41l-.27.92a4.51,4.51,0,0,0-1.94-.38,3.28,3.28,0,0,0-3.52,3.52,3.21,3.21,0,0,0,3.38,3.54,3.72,3.72,0,0,0,1.51-.23V544.7h-1.78v-.91h2.88Z"/><path class="cls-2" d="M748.9,544.29h-3.41v3.16h3.8v.95h-4.93v-8.77h4.73v1h-3.6v2.77h3.41Z"/><path class="cls-2" d="M660.67,601.79a13.23,13.23,0,0,1,2.17-.17,3.59,3.59,0,0,1,2.46.73,2.36,2.36,0,0,1,.77,1.83,2.61,2.61,0,0,1-.68,1.88,3.66,3.66,0,0,1-2.68,1,4.16,4.16,0,0,1-.91-.08v3.51h-1.13ZM661.8,606a4.1,4.1,0,0,0,.94.09c1.36,0,2.19-.67,2.19-1.87s-.81-1.72-2.06-1.72a4.92,4.92,0,0,0-1.07.09Z"/><path class="cls-2" d="M667.91,607.69l-.91,2.76h-1.17l3-8.76h1.36l3,8.76H672l-.93-2.76Zm2.87-.88-.85-2.52c-.2-.58-.33-1.09-.46-1.6h0c-.13.52-.28,1-.45,1.58l-.85,2.54Z"/><path class="cls-2" d="M674.45,610.45v-8.76h1.24l2.8,4.43a25.58,25.58,0,0,1,1.58,2.85l0,0c-.1-1.17-.13-2.23-.13-3.6v-3.66H681v8.76h-1.15L677.1,606a28.83,28.83,0,0,1-1.64-2.92h0c.07,1.11.1,2.16.1,3.62v3.74Z"/><path class="cls-2" d="M687.54,606.34h-3.41v3.16h3.8v1H683v-8.76h4.74v.95h-3.61v2.77h3.41Z"/><path class="cls-2" d="M689.4,601.69h1.13v7.81h3.75v1H689.4Z"/><path class="cls-2" d="M698.29,601.79a13.23,13.23,0,0,1,2.17-.17,3.59,3.59,0,0,1,2.46.73,2.36,2.36,0,0,1,.77,1.83,2.61,2.61,0,0,1-.68,1.88,3.66,3.66,0,0,1-2.68,1,4.16,4.16,0,0,1-.91-.08v3.51h-1.13Zm1.13,4.23a4.1,4.1,0,0,0,.94.09c1.36,0,2.2-.67,2.2-1.87s-.82-1.72-2.07-1.72a4.92,4.92,0,0,0-1.07.09Z"/><path class="cls-2" d="M712.7,606c0,3-1.84,4.61-4.07,4.61s-3.94-1.79-3.94-4.44,1.73-4.61,4.07-4.61S712.7,603.38,712.7,606Zm-6.8.14c0,1.87,1,3.55,2.79,3.55S711.5,608,711.5,606c0-1.74-.91-3.56-2.79-3.56S705.9,604.2,705.9,606.12Z"/><path class="cls-2" d="M714,609.07a4,4,0,0,0,2,.57c1.15,0,1.83-.61,1.83-1.49s-.47-1.29-1.65-1.74c-1.43-.51-2.32-1.25-2.32-2.49s1.14-2.38,2.84-2.38a4,4,0,0,1,1.94.43l-.32.93a3.41,3.41,0,0,0-1.66-.42c-1.2,0-1.65.72-1.65,1.31,0,.82.53,1.23,1.74,1.69,1.48.58,2.24,1.29,2.24,2.58s-1,2.52-3.07,2.52a4.56,4.56,0,0,1-2.24-.56Z"/><path class="cls-2" d="M721.71,601.69v8.76h-1.14v-8.76Z"/><path class="cls-2" d="M725.34,602.65h-2.66v-1h6.49v1h-2.68v7.8h-1.15Z"/><path class="cls-2" d="M731.27,601.69v8.76h-1.13v-8.76Z"/><path class="cls-2" d="M740.74,606c0,3-1.84,4.61-4.07,4.61s-3.94-1.79-3.94-4.44,1.73-4.61,4.07-4.61S740.74,603.38,740.74,606Zm-6.8.14c0,1.87,1,3.55,2.79,3.55s2.81-1.65,2.81-3.64c0-1.74-.91-3.56-2.79-3.56S733.94,604.2,733.94,606.12Z"/><path class="cls-2" d="M742.21,610.45v-8.76h1.23l2.81,4.43a23.89,23.89,0,0,1,1.57,2.85l0,0c-.11-1.17-.13-2.23-.13-3.6v-3.66h1.06v8.76h-1.14L744.86,606a27,27,0,0,1-1.64-2.92h0c.07,1.11.09,2.16.09,3.62v3.74Z"/><path class="cls-2" d="M1034.91,66.85a5.79,5.79,0,0,1-2.31.41,4.09,4.09,0,0,1-4.33-4.43,4.35,4.35,0,0,1,4.57-4.6,4.61,4.61,0,0,1,2.08.39l-.27.92a4.1,4.1,0,0,0-1.77-.36,3.26,3.26,0,0,0-3.42,3.61,3.19,3.19,0,0,0,3.37,3.52,4.58,4.58,0,0,0,1.85-.36Z"/><path class="cls-2" d="M1037.46,58.37v5.19c0,2,.87,2.79,2,2.79s2.13-.86,2.13-2.79V58.37h1.15v5.11c0,2.69-1.42,3.79-3.32,3.79s-3.15-1-3.15-3.74V58.37Z"/><path class="cls-2" d="M1044.74,58.49a11.45,11.45,0,0,1,2.17-.19,3.53,3.53,0,0,1,2.53.72,2.16,2.16,0,0,1,.69,1.66,2.29,2.29,0,0,1-1.65,2.24v0a2.18,2.18,0,0,1,1.29,1.77,12.63,12.63,0,0,0,.68,2.4h-1.17a11,11,0,0,1-.59-2.09c-.26-1.21-.73-1.67-1.76-1.7h-1.06v3.79h-1.13Zm1.13,4H1047c1.21,0,2-.67,2-1.67s-.82-1.62-2-1.63a4.81,4.81,0,0,0-1.12.1Z"/><path class="cls-2" d="M1051.73,58.49a11.45,11.45,0,0,1,2.17-.19,3.57,3.57,0,0,1,2.54.72,2.19,2.19,0,0,1,.69,1.66,2.3,2.3,0,0,1-1.65,2.24v0a2.19,2.19,0,0,1,1.28,1.77,14.43,14.43,0,0,0,.68,2.4h-1.17a11.8,11.8,0,0,1-.59-2.09c-.26-1.21-.72-1.67-1.75-1.7h-1.07v3.79h-1.13Zm1.13,4H1054c1.21,0,2-.67,2-1.67s-.82-1.62-2-1.63a4.81,4.81,0,0,0-1.12.1Z"/><path class="cls-2" d="M1063.26,63h-3.4v3.16h3.79v.95h-4.92V58.37h4.73v1h-3.6v2.77h3.4Z"/><path class="cls-2" d="M1065.12,67.13V58.37h1.24l2.81,4.43a25.4,25.4,0,0,1,1.57,2.85h0c-.1-1.17-.13-2.24-.13-3.6V58.37h1.07v8.76h-1.14l-2.79-4.44a28,28,0,0,1-1.63-2.93h0c.06,1.11.09,2.16.09,3.62v3.74Z"/><path class="cls-2" d="M1075.34,59.33h-2.67v-1h6.49v1h-2.68v7.8h-1.14Z"/><path class="cls-2" d="M1030.71,129.19l-2.86-8.77h1.22l1.37,4.32c.38,1.18.7,2.25.93,3.28h0c.25-1,.61-2.12,1-3.27l1.48-4.33h1.21l-3.13,8.77Z"/><path class="cls-2" d="M1043.53,124.71c0,3-1.83,4.62-4.07,4.62s-3.94-1.8-3.94-4.45,1.73-4.6,4.07-4.6S1043.53,122.11,1043.53,124.71Zm-6.8.15c0,1.87,1,3.55,2.8,3.55s2.8-1.66,2.8-3.64c0-1.75-.91-3.57-2.79-3.57S1036.73,122.93,1036.73,124.86Z"/><path class="cls-2" d="M1045,120.42h1.13v7.82h3.74v.95H1045Z"/><path class="cls-2" d="M1051.65,121.39H1049v-1h6.49v1h-2.68v7.8h-1.15Z"/><path class="cls-2" d="M1056.89,126.43l-.91,2.76h-1.17l3-8.77h1.36l3,8.77h-1.2l-.94-2.76Zm2.88-.88-.86-2.53c-.2-.57-.33-1.09-.46-1.6h0c-.13.52-.28,1.06-.45,1.59l-.85,2.54Z"/><path class="cls-2" d="M1069.91,128.8a8.26,8.26,0,0,1-2.7.48,4.12,4.12,0,0,1-4.49-4.42,4.39,4.39,0,0,1,4.74-4.53,5.28,5.28,0,0,1,2.19.41l-.28.92a4.46,4.46,0,0,0-1.93-.38,3.28,3.28,0,0,0-3.53,3.52,3.21,3.21,0,0,0,3.38,3.54,3.72,3.72,0,0,0,1.51-.23v-2.62H1067v-.91h2.89Z"/><path class="cls-2" d="M1076.17,125.08h-3.4v3.16h3.79v.95h-4.93v-8.77h4.74v1h-3.6v2.77h3.4Z"/><path class="cls-2" d="M1028.79,182.58a13.13,13.13,0,0,1,2.17-.17,3.59,3.59,0,0,1,2.46.73,2.35,2.35,0,0,1,.76,1.83,2.6,2.6,0,0,1-.67,1.88,3.67,3.67,0,0,1-2.68,1,4.16,4.16,0,0,1-.91-.08v3.51h-1.13Zm1.13,4.23a4.06,4.06,0,0,0,.93.09c1.37,0,2.2-.67,2.2-1.88s-.82-1.71-2.07-1.71a4.82,4.82,0,0,0-1.06.09Z"/><path class="cls-2" d="M1036,188.48l-.91,2.76H1034l3-8.76h1.36l3,8.76h-1.21l-.93-2.76Zm2.87-.88-.86-2.52c-.19-.58-.32-1.1-.45-1.6h0c-.13.52-.27,1.05-.44,1.58l-.86,2.54Z"/><path class="cls-2" d="M1042.57,191.24v-8.76h1.23l2.81,4.43a23.89,23.89,0,0,1,1.57,2.85l0,0c-.1-1.17-.13-2.23-.13-3.6v-3.66h1.07v8.76H1048l-2.78-4.45a27,27,0,0,1-1.64-2.92h0c.07,1.11.09,2.16.09,3.62v3.74Z"/><path class="cls-2" d="M1055.66,187.13h-3.41v3.16h3.8v1h-4.93v-8.76h4.73v1h-3.6v2.77h3.41Z"/><path class="cls-2" d="M1057.52,182.48h1.13v7.81h3.74v1h-4.87Z"/><path class="cls-2" d="M1066.41,182.58a13.23,13.23,0,0,1,2.17-.17,3.59,3.59,0,0,1,2.46.73,2.35,2.35,0,0,1,.76,1.83,2.6,2.6,0,0,1-.67,1.88,3.67,3.67,0,0,1-2.68,1,4.16,4.16,0,0,1-.91-.08v3.51h-1.13Zm1.13,4.23a4.1,4.1,0,0,0,.94.09c1.36,0,2.19-.67,2.19-1.88s-.82-1.71-2.06-1.71a4.86,4.86,0,0,0-1.07.09Z"/><path class="cls-2" d="M1080.81,186.77c0,3-1.83,4.61-4.07,4.61s-3.94-1.79-3.94-4.44,1.73-4.61,4.07-4.61S1080.81,184.17,1080.81,186.77Zm-6.8.14c0,1.87,1,3.55,2.8,3.55s2.81-1.65,2.81-3.64c0-1.74-.91-3.56-2.8-3.56S1074,185,1074,186.91Z"/><path class="cls-2" d="M1082.13,189.86a4,4,0,0,0,2,.57c1.16,0,1.84-.61,1.84-1.49s-.47-1.29-1.65-1.74c-1.43-.51-2.32-1.25-2.32-2.49s1.13-2.38,2.84-2.38a4,4,0,0,1,1.93.43l-.31.93a3.41,3.41,0,0,0-1.66-.42c-1.2,0-1.65.71-1.65,1.31,0,.82.53,1.23,1.74,1.69,1.48.58,2.23,1.29,2.23,2.58s-1,2.52-3.06,2.52a4.56,4.56,0,0,1-2.24-.56Z"/><path class="cls-2" d="M1089.82,182.48v8.76h-1.13v-8.76Z"/><path class="cls-2" d="M1093.46,183.44h-2.66v-1h6.48v1h-2.67v7.8h-1.15Z"/><path class="cls-2" d="M1099.39,182.48v8.76h-1.13v-8.76Z"/><path class="cls-2" d="M1108.85,186.77c0,3-1.83,4.61-4.06,4.61s-3.94-1.79-3.94-4.44,1.73-4.61,4.07-4.61S1108.85,184.17,1108.85,186.77Zm-6.8.14c0,1.87,1,3.55,2.8,3.55s2.81-1.65,2.81-3.64c0-1.74-.91-3.56-2.8-3.56S1102.05,185,1102.05,186.91Z"/><path class="cls-2" d="M1110.32,191.24v-8.76h1.24l2.81,4.43a25.4,25.4,0,0,1,1.57,2.85l0,0c-.1-1.17-.13-2.23-.13-3.6v-3.66h1.07v8.76h-1.14l-2.79-4.45a26.89,26.89,0,0,1-1.63-2.92h0c.06,1.11.09,2.16.09,3.62v3.74Z"/><path class="cls-2" d="M705.52,66.85a5.79,5.79,0,0,1-2.31.41,4.09,4.09,0,0,1-4.33-4.43,4.35,4.35,0,0,1,4.57-4.6,4.65,4.65,0,0,1,2.08.39l-.27.92a4.1,4.1,0,0,0-1.77-.36,3.26,3.26,0,0,0-3.42,3.61,3.19,3.19,0,0,0,3.37,3.52,4.58,4.58,0,0,0,1.85-.36Z"/><path class="cls-2" d="M708.07,58.37v5.19c0,2,.87,2.79,2,2.79s2.13-.86,2.13-2.79V58.37h1.15v5.11c0,2.69-1.42,3.79-3.32,3.79s-3.15-1-3.15-3.74V58.37Z"/><path class="cls-2" d="M715.35,58.49a11.45,11.45,0,0,1,2.17-.19,3.53,3.53,0,0,1,2.53.72,2.16,2.16,0,0,1,.69,1.66,2.3,2.3,0,0,1-1.65,2.24v0a2.18,2.18,0,0,1,1.29,1.77,14.76,14.76,0,0,0,.67,2.4h-1.17A12.13,12.13,0,0,1,719.3,65c-.26-1.21-.73-1.67-1.76-1.7h-1.06v3.79h-1.13Zm1.13,4h1.16c1.2,0,2-.67,2-1.67s-.82-1.62-2-1.63a4.81,4.81,0,0,0-1.12.1Z"/><path class="cls-2" d="M722.34,58.49a11.45,11.45,0,0,1,2.17-.19,3.57,3.57,0,0,1,2.54.72,2.19,2.19,0,0,1,.69,1.66,2.3,2.3,0,0,1-1.65,2.24v0a2.17,2.17,0,0,1,1.28,1.77,14.43,14.43,0,0,0,.68,2.4h-1.17a11.8,11.8,0,0,1-.59-2.09c-.26-1.21-.72-1.67-1.75-1.7h-1.07v3.79h-1.13Zm1.13,4h1.16c1.21,0,2-.67,2-1.67s-.82-1.62-2-1.63a4.88,4.88,0,0,0-1.12.1Z"/><path class="cls-2" d="M733.87,63h-3.4v3.16h3.79v.95h-4.92V58.37h4.73v1h-3.6v2.77h3.4Z"/><path class="cls-2" d="M735.73,67.13V58.37H737l2.81,4.43a27.11,27.11,0,0,1,1.57,2.85h0c-.1-1.17-.13-2.24-.13-3.6V58.37h1.07v8.76h-1.14l-2.79-4.44a28,28,0,0,1-1.63-2.93h0c.06,1.11.09,2.16.09,3.62v3.74Z"/><path class="cls-2" d="M746,59.33h-2.67v-1h6.49v1h-2.68v7.8H746Z"/><path class="cls-2" d="M703.44,129.19l-2.86-8.77h1.22l1.37,4.32c.37,1.18.7,2.25.93,3.28h0c.25-1,.61-2.12,1-3.27l1.48-4.33h1.21l-3.13,8.77Z"/><path class="cls-2" d="M716.26,124.71c0,3-1.84,4.62-4.07,4.62s-3.94-1.8-3.94-4.45,1.73-4.6,4.07-4.6S716.26,122.11,716.26,124.71Zm-6.8.15c0,1.87,1,3.55,2.79,3.55s2.81-1.66,2.81-3.64c0-1.75-.91-3.57-2.79-3.57S709.46,122.93,709.46,124.86Z"/><path class="cls-2" d="M717.73,120.42h1.13v7.82h3.74v.95h-4.87Z"/><path class="cls-2" d="M724.38,121.39h-2.66v-1h6.48v1h-2.67v7.8h-1.15Z"/><path class="cls-2" d="M729.62,126.43l-.91,2.76h-1.17l3-8.77h1.36l3,8.77h-1.21l-.93-2.76Zm2.87-.88-.85-2.53c-.2-.57-.33-1.09-.46-1.6h0c-.13.52-.27,1.06-.44,1.59l-.86,2.54Z"/><path class="cls-2" d="M742.63,128.8a8.14,8.14,0,0,1-2.69.48,4.13,4.13,0,0,1-4.5-4.42,4.4,4.4,0,0,1,4.75-4.53,5.22,5.22,0,0,1,2.18.41l-.27.92a4.51,4.51,0,0,0-1.94-.38,3.28,3.28,0,0,0-3.52,3.52,3.21,3.21,0,0,0,3.38,3.54,3.72,3.72,0,0,0,1.51-.23v-2.62h-1.78v-.91h2.88Z"/><path class="cls-2" d="M748.9,125.08h-3.41v3.16h3.8v.95h-4.93v-8.77h4.73v1h-3.6v2.77h3.41Z"/><path class="cls-2" d="M660.67,182.58a13.23,13.23,0,0,1,2.17-.17,3.59,3.59,0,0,1,2.46.73,2.36,2.36,0,0,1,.77,1.83,2.61,2.61,0,0,1-.68,1.88,3.66,3.66,0,0,1-2.68,1,4.16,4.16,0,0,1-.91-.08v3.51h-1.13Zm1.13,4.23a4.1,4.1,0,0,0,.94.09c1.36,0,2.19-.67,2.19-1.88s-.81-1.71-2.06-1.71a4.92,4.92,0,0,0-1.07.09Z"/><path class="cls-2" d="M667.91,188.48l-.91,2.76h-1.17l3-8.76h1.36l3,8.76H672l-.93-2.76Zm2.87-.88-.85-2.52c-.2-.58-.33-1.1-.46-1.6h0c-.13.52-.28,1.05-.45,1.58l-.85,2.54Z"/><path class="cls-2" d="M674.45,191.24v-8.76h1.24l2.8,4.43a25.58,25.58,0,0,1,1.58,2.85l0,0c-.1-1.17-.13-2.23-.13-3.6v-3.66H681v8.76h-1.15l-2.78-4.45a28.83,28.83,0,0,1-1.64-2.92h0c.07,1.11.1,2.16.1,3.62v3.74Z"/><path class="cls-2" d="M687.54,187.13h-3.41v3.16h3.8v1H683v-8.76h4.74v1h-3.61v2.77h3.41Z"/><path class="cls-2" d="M689.4,182.48h1.13v7.81h3.75v1H689.4Z"/><path class="cls-2" d="M698.29,182.58a13.23,13.23,0,0,1,2.17-.17,3.59,3.59,0,0,1,2.46.73,2.36,2.36,0,0,1,.77,1.83,2.61,2.61,0,0,1-.68,1.88,3.66,3.66,0,0,1-2.68,1,4.16,4.16,0,0,1-.91-.08v3.51h-1.13Zm1.13,4.23a4.1,4.1,0,0,0,.94.09c1.36,0,2.2-.67,2.2-1.88s-.82-1.71-2.07-1.71a4.92,4.92,0,0,0-1.07.09Z"/><path class="cls-2" d="M712.7,186.77c0,3-1.84,4.61-4.07,4.61s-3.94-1.79-3.94-4.44,1.73-4.61,4.07-4.61S712.7,184.17,712.7,186.77Zm-6.8.14c0,1.87,1,3.55,2.79,3.55s2.81-1.65,2.81-3.64c0-1.74-.91-3.56-2.79-3.56S705.9,185,705.9,186.91Z"/><path class="cls-2" d="M714,189.86a4,4,0,0,0,2,.57c1.15,0,1.83-.61,1.83-1.49s-.47-1.29-1.65-1.74c-1.43-.51-2.32-1.25-2.32-2.49s1.14-2.38,2.84-2.38a4,4,0,0,1,1.94.43l-.32.93a3.41,3.41,0,0,0-1.66-.42c-1.2,0-1.65.71-1.65,1.31,0,.82.53,1.23,1.74,1.69,1.48.58,2.24,1.29,2.24,2.58s-1,2.52-3.07,2.52a4.56,4.56,0,0,1-2.24-.56Z"/><path class="cls-2" d="M721.71,182.48v8.76h-1.14v-8.76Z"/><path class="cls-2" d="M725.34,183.44h-2.66v-1h6.49v1h-2.68v7.8h-1.15Z"/><path class="cls-2" d="M731.27,182.48v8.76h-1.13v-8.76Z"/><path class="cls-2" d="M740.74,186.77c0,3-1.84,4.61-4.07,4.61s-3.94-1.79-3.94-4.44,1.73-4.61,4.07-4.61S740.74,184.17,740.74,186.77Zm-6.8.14c0,1.87,1,3.55,2.79,3.55s2.81-1.65,2.81-3.64c0-1.74-.91-3.56-2.79-3.56S733.94,185,733.94,186.91Z"/><path class="cls-2" d="M742.21,191.24v-8.76h1.23l2.81,4.43a23.89,23.89,0,0,1,1.57,2.85l0,0c-.11-1.17-.13-2.23-.13-3.6v-3.66h1.06v8.76h-1.14l-2.78-4.45a27,27,0,0,1-1.64-2.92h0c.07,1.11.09,2.16.09,3.62v3.74Z"/></g></svg>