<svg xmlns="http://www.w3.org/2000/svg" viewBox="0 0 1190 700"><defs><style>.cls-1{font-size:13px;font-family:MyriadPro-Regular, Myriad Pro;}.cls-1,.cls-15,.cls-16{fill:#fff;}.cls-2{letter-spacing:-0.04em;}.cls-3{letter-spacing:0em;}.cls-4{letter-spacing:-0.08em;}.cls-5{letter-spacing:0.02em;}.cls-6{letter-spacing:-0.04em;}.cls-7{letter-spacing:0em;}.cls-8{letter-spacing:-0.08em;}.cls-9{letter-spacing:-0.03em;}.cls-10{fill:#ddd;}.cls-11{fill:#b3b3b3;}.cls-12,.cls-13,.cls-24,.cls-26{fill:none;}.cls-12,.cls-13,.cls-14,.cls-23{stroke:#fff;}.cls-12,.cls-13,.cls-14,.cls-23,.cls-24,.cls-26{stroke-miterlimit:10;}.cls-12,.cls-14,.cls-23{stroke-width:3px;}.cls-14{fill:#434343;}.cls-16{font-size:14px;font-family:MyriadPro-Bold, Myriad Pro;font-weight:700;}.cls-17{letter-spacing:0.01em;}.cls-18{letter-spacing:0em;}.cls-19{letter-spacing:-0.08em;}.cls-20{letter-spacing:-0.03em;}.cls-21{letter-spacing:-0.04em;}.cls-22{letter-spacing:0em;}.cls-23,.cls-27{fill:#4f87bf;}.cls-24{stroke:#c1514e;}.cls-24,.cls-26{stroke-width:2px;}.cls-25{fill:#c1514e;}.cls-26{stroke:#4f87bf;}</style></defs><g id="Layer_2" data-name="Layer 2"><text class="cls-1" transform="translate(361.71 406.96)">NH3 F<tspan class="cls-2" x="30.08" y="0">L</tspan><tspan x="35.71" y="0">OW</tspan><tspan class="cls-3" x="55.67" y="0">R</tspan><tspan class="cls-4" x="62.72" y="0">A</tspan><tspan x="69.68" y="0">TE</tspan></text><text class="cls-1" transform="translate(361.71 469.2)">NH3 OUTL<tspan class="cls-5" x="53.71" y="0">E</tspan><tspan x="60.32" y="0">T PRESSURE</tspan></text><text class="cls-1" transform="translate(361.71 531.45)">NH3 OUTL<tspan class="cls-5" x="53.71" y="0">E</tspan><tspan x="60.32" y="0">T</tspan><tspan class="cls-6" x="66.78" y="0"> </tspan><tspan x="69" y="0">TEMPE</tspan><tspan class="cls-7" x="105.62" y="0">R</tspan><tspan class="cls-4" x="112.68" y="0">A</tspan><tspan x="119.64" y="0">TURE</tspan></text><text class="cls-1" transform="translate(361.71 593.7)"><tspan class="cls-3">R</tspan><tspan x="7.06" y="0">ADI</tspan><tspan class="cls-8" x="26.78" y="0">A</tspan><tspan class="cls-9" x="33.73" y="0">T</tspan><tspan x="39.84" y="0">OR POSITION</tspan></text><text class="cls-1" transform="translate(738.71 406.96)">NH3 F<tspan class="cls-2" x="30.08" y="0">L</tspan><tspan x="35.71" y="0">OW</tspan><tspan class="cls-3" x="55.67" y="0">R</tspan><tspan class="cls-4" x="62.72" y="0">A</tspan><tspan x="69.68" y="0">TE</tspan></text><text class="cls-1" transform="translate(696.79 469.2)">NH3 OUTL<tspan class="cls-5" x="53.71" y="0">E</tspan><tspan x="60.32" y="0">T PRESSURE</tspan></text><text class="cls-1" transform="translate(673.35 531.45)">NH3 OUTL<tspan class="cls-5" x="53.71" y="0">E</tspan><tspan x="60.32" y="0">T</tspan><tspan class="cls-6" x="66.78" y="0"> </tspan><tspan x="69" y="0">TEMPE</tspan><tspan class="cls-7" x="105.62" y="0">R</tspan><tspan class="cls-4" x="112.68" y="0">A</tspan><tspan x="119.64" y="0">TURE</tspan></text><text class="cls-1" transform="translate(710.23 593.7)"><tspan class="cls-3">R</tspan><tspan x="7.06" y="0">ADI</tspan><tspan class="cls-8" x="26.78" y="0">A</tspan><tspan class="cls-9" x="33.73" y="0">T</tspan><tspan x="39.84" y="0">OR POSITION</tspan></text></g><g id="Layer_5" data-name="Layer 5"><polygon class="cls-10" points="353.45 615.44 215.78 615.44 204.7 649.86 341.98 649.86 353.45 615.44"/><polygon class="cls-11" points="353.32 615.31 215.65 615.31 204.57 579.84 341.85 579.84 353.32 615.31"/><polygon class="cls-10" points="353.45 546.21 215.78 546.21 204.7 579.84 341.98 579.84 353.45 546.21"/><polygon class="cls-11" points="353.32 546.21 215.65 546.21 204.57 510.74 341.85 510.74 353.32 546.21"/><polygon class="cls-10" points="353.45 475.79 215.78 475.79 204.7 511 341.98 511 353.45 475.79"/><polygon class="cls-11" points="352.88 476 216.19 476 205.19 441.16 341.49 441.16 352.88 476"/><polygon class="cls-10" points="353.45 406.67 215.78 406.67 204.7 441.88 341.98 441.88 353.45 406.67"/><polygon class="cls-10" points="353.45 337.54 215.78 337.54 204.7 372.75 341.98 372.75 353.45 337.54"/><polygon class="cls-11" points="352.88 406.88 216.19 406.88 205.19 372.04 341.49 372.04 352.88 406.88"/><polygon class="cls-10" points="985.3 371.96 847.63 371.96 836.55 337.54 973.82 337.54 985.3 371.96"/><polygon class="cls-11" points="985.16 372.09 847.49 372.09 836.42 407.56 973.69 407.56 985.16 372.09"/><polygon class="cls-10" points="985.3 441.19 847.63 441.19 836.55 407.56 973.82 407.56 985.3 441.19"/><polygon class="cls-11" points="985.16 441.19 847.49 441.19 836.42 476.66 973.69 476.66 985.16 441.19"/><polygon class="cls-10" points="985.3 511.61 847.63 511.61 836.55 476.4 973.82 476.4 985.3 511.61"/><polygon class="cls-11" points="984.73 511.39 848.03 511.39 837.03 546.24 973.33 546.24 984.73 511.39"/><polygon class="cls-10" points="985.3 580.73 847.63 580.73 836.55 545.52 973.82 545.52 985.3 580.73"/><polygon class="cls-10" points="985.3 649.86 847.63 649.86 836.55 614.65 973.82 614.65 985.3 649.86"/><polygon class="cls-11" points="984.73 580.52 848.03 580.52 837.03 615.36 973.33 615.36 984.73 580.52"/></g><g id="Layer_1" data-name="Layer 1"><g id="Layer_3" data-name="Layer 3"><polyline class="cls-12" points="216.64 337.41 204.64 372.13 216.64 406.84 204.64 441.55 216.64 476.26 204.64 510.98 216.64 545.7 204.64 580.41 216.64 615.14 204.64 649.86"/><polyline class="cls-12" points="353.52 337.41 341.52 372.13 353.52 406.84 341.52 441.55 353.52 476.26 341.52 510.98 353.52 545.7 341.52 580.41 353.52 615.14 341.52 649.86"/><line class="cls-12" x1="215.78" y1="337.41" x2="353.45" y2="337.41"/><line class="cls-12" x1="204.7" y1="649.86" x2="341.98" y2="649.86"/><line class="cls-13" x1="204.7" y1="371.35" x2="341.98" y2="371.35"/><line class="cls-13" x1="215.78" y1="406.96" x2="353.45" y2="406.96"/><line class="cls-13" x1="204.7" y1="441.37" x2="341.98" y2="441.37"/><line class="cls-13" x1="215.78" y1="475.79" x2="353.45" y2="475.79"/><line class="cls-13" x1="204.7" y1="511" x2="340.4" y2="511"/><line class="cls-13" x1="215.78" y1="546.21" x2="353.45" y2="546.21"/><line class="cls-13" x1="204.7" y1="579.84" x2="340.4" y2="579.84"/><line class="cls-13" x1="215.78" y1="615.44" x2="353.45" y2="615.44"/><polyline class="cls-12" points="973.3 337.41 985.3 372.13 973.3 406.84 985.3 441.55 973.3 476.26 985.3 510.98 973.3 545.7 985.3 580.41 973.3 615.14 985.3 649.86"/><polyline class="cls-12" points="836.42 337.41 848.42 372.13 836.42 406.84 848.42 441.55 836.42 476.26 848.42 510.98 836.42 545.7 848.42 580.41 836.42 615.14 848.42 649.86"/><line class="cls-12" x1="974.15" y1="337.41" x2="836.48" y2="337.41"/><line class="cls-12" x1="985.23" y1="649.86" x2="847.96" y2="649.86"/><line class="cls-13" x1="985.23" y1="371.35" x2="847.96" y2="371.35"/><line class="cls-13" x1="974.15" y1="406.96" x2="836.48" y2="406.96"/><line class="cls-13" x1="985.23" y1="441.37" x2="847.96" y2="441.37"/><line class="cls-13" x1="974.15" y1="475.79" x2="836.48" y2="475.79"/><line class="cls-13" x1="985.23" y1="511" x2="849.54" y2="511"/><line class="cls-13" x1="974.15" y1="546.21" x2="836.48" y2="546.21"/><line class="cls-13" x1="985.23" y1="579.84" x2="849.54" y2="579.84"/><line class="cls-13" x1="974.15" y1="615.44" x2="836.48" y2="615.44"/></g><path class="cls-14" d="M595,44.19c-40.86,0-74,6.08-74,13.58v261H669v-261C669,50.27,635.86,44.19,595,44.19Z"/><path class="cls-14" d="M556.24,301.54H473.88a9.16,9.16,0,0,1-9.05-9.23,12,12,0,0,0-12-11.82H192.53a12,12,0,0,0-12,12v46a12,12,0,0,0,12,12h48a15,15,0,0,1,15,15V615.53a12,12,0,0,0,12,12h20.31a12,12,0,0,0,12-12V365.45a15,15,0,0,1,15-15h138a12,12,0,0,0,12-12h0a6.26,6.26,0,0,1,6.26-6.27h85.14a5,5,0,0,0,5-5V306.54A5,5,0,0,0,556.24,301.54Z"/><path class="cls-14" d="M997.86,280.59H737.38a12,12,0,0,0-11.83,12.13,9,9,0,0,1-9,8.92H634.15a5,5,0,0,0-5,5v20.64a5,5,0,0,0,5,5h85.14a6.27,6.27,0,0,1,6.27,6.27h0a12,12,0,0,0,12,12H875.11a15,15,0,0,1,15,15v250a12,12,0,0,0,12,12h20.31a12,12,0,0,0,12-12v-250a14.94,14.94,0,0,1,14.94-14.94h48.48a12,12,0,0,0,12-12v-46A12,12,0,0,0,997.86,280.59Z"/><rect class="cls-14" x="545.55" y="288.67" width="98.9" height="53.8" rx="5"/><path class="cls-15" d="M566.52,90.27v9.44h-2.14V90.27Z"/><path class="cls-15" d="M568.37,99.71V90.27h2.49l2,3.46A26.71,26.71,0,0,1,574.36,97h0a35.23,35.23,0,0,1-.18-3.94V90.27h2v9.44h-2.24l-2-3.64a34.45,34.45,0,0,1-1.63-3.34l0,0c.06,1.25.09,2.58.09,4.12v2.84Z"/><path class="cls-15" d="M579.85,92.06h-2.54V90.27h7.26v1.79H582v7.65h-2.14Z"/><path class="cls-15" d="M591.31,95.72h-3.47V98h3.88v1.75h-6V90.27h5.82V92h-3.68v2h3.47Z"/><path class="cls-15" d="M593.17,90.4a17.78,17.78,0,0,1,2.85-.2,4.82,4.82,0,0,1,3.05.74,2.41,2.41,0,0,1,.87,2,2.5,2.5,0,0,1-1.67,2.32v0a2.39,2.39,0,0,1,1.26,1.77c.3,1.06.59,2.3.77,2.66h-2.18a11.47,11.47,0,0,1-.66-2.2c-.25-1.18-.66-1.5-1.53-1.51h-.64v3.71h-2.12Zm2.12,4.06h.84c1.06,0,1.69-.53,1.69-1.36s-.58-1.3-1.57-1.32a5.09,5.09,0,0,0-1,.07Z"/><path class="cls-15" d="M601.47,99.71V90.27H604l2,3.46A26.71,26.71,0,0,1,607.47,97h0a35.23,35.23,0,0,1-.18-3.94V90.27h2v9.44h-2.24l-2-3.64a37,37,0,0,1-1.64-3.34l0,0c.06,1.25.09,2.58.09,4.12v2.84Z"/><path class="cls-15" d="M613.33,97.29l-.67,2.42h-2.21l2.88-9.44h2.8l2.93,9.44h-2.29L616,97.29Zm2.4-1.6-.59-2c-.17-.56-.34-1.26-.48-1.82h0c-.14.56-.28,1.27-.44,1.82l-.56,2Z"/><path class="cls-15" d="M620.32,90.27h2.14v7.65h3.76v1.79h-5.9Z"/><path class="cls-15" d="M570.94,116.51l-3-9.44h2.34l1.15,4c.32,1.12.61,2.2.84,3.38h0c.24-1.14.53-2.26.85-3.34l1.21-4h2.27l-3.18,9.44Z"/><path class="cls-15" d="M586.15,111.69c0,3.1-1.88,5-4.64,5s-4.44-2.11-4.44-4.8,1.81-4.94,4.6-4.94S586.15,109.09,586.15,111.69Zm-6.82.13c0,1.85.87,3.15,2.3,3.15s2.27-1.37,2.27-3.21-.82-3.15-2.29-3.15S579.33,110,579.33,111.82Z"/><path class="cls-15" d="M587.55,107.07h2.14v7.65h3.75v1.79h-5.89Z"/><path class="cls-15" d="M596.39,107.07v5.43c0,1.63.62,2.46,1.71,2.46s1.74-.79,1.74-2.46v-5.43H602v5.29c0,2.92-1.47,4.3-3.94,4.3s-3.78-1.31-3.78-4.32v-5.27Z"/><path class="cls-15" d="M611.8,112.9c0-1.14-.09-2.51-.09-3.88h0c-.29,1.2-.68,2.55-1,3.65l-1.15,3.69h-1.66l-1-3.66c-.31-1.11-.63-2.45-.86-3.68h0c0,1.27-.09,2.73-.16,3.9l-.17,3.59h-2l.61-9.44h2.84l.92,3.15c.3,1.09.59,2.27.8,3.38h0c.27-1.1.59-2.34.9-3.39l1-3.14h2.79l.51,9.44h-2.08Z"/><path class="cls-15" d="M621.27,112.52H617.8v2.24h3.88v1.75h-6v-9.44h5.82v1.75H617.8v2h3.47Z"/><path class="cls-15" d="M584.89,128.49c0,3.1-1.88,5-4.64,5s-4.44-2.11-4.44-4.8,1.81-4.94,4.6-4.94S584.89,125.89,584.89,128.49Zm-6.82.13c0,1.85.87,3.15,2.3,3.15s2.27-1.37,2.27-3.21c0-1.69-.82-3.15-2.29-3.15S578.07,126.78,578.07,128.62Z"/><path class="cls-15" d="M586.29,123.87h5.77v1.75h-3.63v2.16h3.39v1.73h-3.39v3.8h-2.14Z"/><path class="cls-15" d="M598.63,123.87v9.44h-2.14v-9.44Z"/><path class="cls-15" d="M600.55,131.11a5.5,5.5,0,0,0,2.37.59c1,0,1.5-.41,1.5-1s-.45-.93-1.59-1.33c-1.57-.55-2.59-1.42-2.59-2.79,0-1.61,1.35-2.84,3.57-2.84a5.81,5.81,0,0,1,2.41.47l-.47,1.72a4.55,4.55,0,0,0-2-.44c-.92,0-1.37.42-1.37.91s.53.86,1.75,1.33c1.67.61,2.45,1.48,2.45,2.81,0,1.58-1.22,2.93-3.81,2.93a6.21,6.21,0,0,1-2.67-.57Z"/><path class="cls-15" d="M608.11,131.11a5.5,5.5,0,0,0,2.37.59c1,0,1.5-.41,1.5-1s-.45-.93-1.59-1.33c-1.56-.55-2.59-1.42-2.59-2.79,0-1.61,1.35-2.84,3.57-2.84a5.81,5.81,0,0,1,2.41.47l-.47,1.72a4.55,4.55,0,0,0-2-.44c-.92,0-1.37.42-1.37.91s.53.86,1.75,1.33c1.67.61,2.45,1.48,2.45,2.81,0,1.58-1.22,2.93-3.81,2.93a6.21,6.21,0,0,1-2.67-.57Z"/><path class="cls-15" d="M431.74,241.63l-.68,2.42h-2.21l2.89-9.44h2.8l2.92,9.44h-2.29l-.73-2.42Zm2.39-1.6-.59-2c-.17-.56-.33-1.26-.47-1.82h0c-.14.56-.28,1.28-.44,1.82l-.56,2Z"/><path class="cls-15" d="M446.7,240.43c0-1.13-.08-2.5-.08-3.88h0c-.3,1.21-.69,2.55-1.05,3.66l-1.15,3.68h-1.67l-1-3.65c-.3-1.11-.63-2.45-.85-3.69h0c-.05,1.28-.1,2.74-.17,3.91l-.16,3.59h-2l.6-9.44H442l.92,3.15c.29,1.09.59,2.27.8,3.38h0c.27-1.1.59-2.34.9-3.4l1-3.13h2.78l.52,9.44h-2.09Z"/><path class="cls-15" d="M458.55,240.43c0-1.13-.09-2.5-.09-3.88h0c-.29,1.21-.68,2.55-1.05,3.66l-1.15,3.68h-1.66l-1-3.65c-.31-1.11-.63-2.45-.86-3.69h0c-.06,1.28-.1,2.74-.17,3.91l-.17,3.59h-2l.61-9.44h2.84l.92,3.15c.3,1.09.59,2.27.8,3.38h0c.27-1.1.59-2.34.9-3.4l1-3.13h2.79l.52,9.44h-2.09Z"/><path class="cls-15" d="M471.05,239.23c0,3.1-1.88,5-4.64,5s-4.44-2.11-4.44-4.8,1.81-5,4.6-5S471.05,236.62,471.05,239.23Zm-6.82.13c0,1.84.87,3.15,2.3,3.15s2.27-1.37,2.27-3.21-.82-3.15-2.29-3.15S464.23,237.52,464.23,239.36Z"/><path class="cls-15" d="M472.45,244.05v-9.44h2.49l2,3.46a27.3,27.3,0,0,1,1.54,3.23h0a34.94,34.94,0,0,1-.18-3.93v-2.76h2v9.44H478l-2-3.64a37,37,0,0,1-1.64-3.34l0,0c.06,1.24.09,2.57.09,4.11v2.85Z"/><path class="cls-15" d="M484.25,234.61v9.44h-2.14v-9.44Z"/><path class="cls-15" d="M488.3,241.63l-.68,2.42h-2.21l2.89-9.44h2.8l2.92,9.44h-2.29l-.73-2.42Zm2.39-1.6-.59-2c-.17-.56-.33-1.26-.47-1.82h0c-.14.56-.28,1.28-.44,1.82l-.56,2Z"/><path class="cls-15" d="M443.58,251.53a17.82,17.82,0,0,1,2.88-.19,4.56,4.56,0,0,1,2.89.75,2.78,2.78,0,0,1,1,2.19,3,3,0,0,1-.87,2.24,4.37,4.37,0,0,1-3.07,1,5.16,5.16,0,0,1-.73,0v3.38h-2.11Zm2.11,4.29a3.45,3.45,0,0,0,.72.06c1.13,0,1.83-.58,1.83-1.55s-.6-1.38-1.66-1.38a3.9,3.9,0,0,0-.89.08Z"/><path class="cls-15" d="M453.84,251.41v5.43c0,1.63.62,2.45,1.71,2.45s1.74-.78,1.74-2.45v-5.43h2.13v5.29c0,2.92-1.47,4.3-3.94,4.3s-3.78-1.31-3.78-4.33v-5.26Z"/><path class="cls-15" d="M469.24,257.23c0-1.13-.08-2.5-.08-3.88h0c-.3,1.21-.69,2.55-1.05,3.66l-1.15,3.68h-1.67l-1-3.65c-.3-1.11-.63-2.45-.85-3.69h0c-.05,1.28-.1,2.74-.17,3.91l-.17,3.59h-2l.6-9.44h2.85l.92,3.15c.29,1.09.59,2.27.8,3.37h0c.27-1.09.59-2.33.9-3.39l1-3.13H471l.52,9.44h-2.09Z"/><path class="cls-15" d="M473.1,251.53a18,18,0,0,1,2.89-.19,4.53,4.53,0,0,1,2.88.75,2.75,2.75,0,0,1,1,2.19,3.05,3.05,0,0,1-.86,2.24,4.37,4.37,0,0,1-3.07,1,5.07,5.07,0,0,1-.73,0v3.38H473.1Zm2.12,4.29a3.35,3.35,0,0,0,.71.06c1.14,0,1.84-.58,1.84-1.55s-.6-1.38-1.67-1.38a3.79,3.79,0,0,0-.88.08Z"/><path class="cls-15" d="M698.77,241.63l-.67,2.42h-2.22l2.89-9.44h2.8l2.93,9.44h-2.3l-.73-2.42Zm2.39-1.6-.58-2c-.17-.56-.34-1.26-.48-1.82h0c-.14.56-.28,1.28-.43,1.82l-.56,2Z"/><path class="cls-15" d="M713.74,240.43c0-1.13-.09-2.5-.09-3.88h0c-.29,1.21-.69,2.55-1.05,3.66l-1.15,3.68h-1.66l-1-3.65c-.31-1.11-.63-2.45-.86-3.69h0c-.05,1.28-.09,2.74-.16,3.91l-.17,3.59h-2l.61-9.44H709l.92,3.15c.3,1.09.59,2.27.8,3.38h0c.27-1.1.59-2.34.9-3.4l1-3.13h2.79l.51,9.44h-2.08Z"/><path class="cls-15" d="M725.58,240.43c0-1.13-.08-2.5-.08-3.88h0c-.3,1.21-.69,2.55-1.06,3.66l-1.14,3.68h-1.67l-1-3.65c-.31-1.11-.63-2.45-.85-3.69h0c-.06,1.28-.1,2.74-.17,3.91l-.17,3.59h-2l.6-9.44h2.84l.93,3.15c.29,1.09.59,2.27.8,3.38h0c.26-1.1.59-2.34.89-3.4l1-3.13h2.79l.52,9.44h-2.09Z"/><path class="cls-15" d="M738.08,239.23c0,3.1-1.87,5-4.63,5s-4.44-2.11-4.44-4.8,1.8-5,4.59-5S738.08,236.62,738.08,239.23Zm-6.82.13c0,1.84.87,3.15,2.3,3.15s2.27-1.37,2.27-3.21-.81-3.15-2.29-3.15S731.26,237.52,731.26,239.36Z"/><path class="cls-15" d="M739.48,244.05v-9.44H742l2,3.46a27.3,27.3,0,0,1,1.54,3.23h0a34.85,34.85,0,0,1-.19-3.93v-2.76h2v9.44h-2.24l-2-3.64a34.5,34.5,0,0,1-1.64-3.34l0,0c0,1.24.08,2.57.08,4.11v2.85Z"/><path class="cls-15" d="M751.28,234.61v9.44h-2.14v-9.44Z"/><path class="cls-15" d="M755.33,241.63l-.67,2.42h-2.22l2.89-9.44h2.8l2.93,9.44h-2.3l-.73-2.42Zm2.39-1.6-.59-2c-.16-.56-.33-1.26-.47-1.82h0c-.14.56-.28,1.28-.43,1.82l-.56,2Z"/><path class="cls-15" d="M710.61,251.53a17.87,17.87,0,0,1,2.89-.19,4.55,4.55,0,0,1,2.88.75,2.78,2.78,0,0,1,1,2.19,3,3,0,0,1-.87,2.24,4.34,4.34,0,0,1-3.06,1,5,5,0,0,1-.73,0v3.38h-2.12Zm2.12,4.29a3.28,3.28,0,0,0,.71.06c1.14,0,1.84-.58,1.84-1.55s-.61-1.38-1.67-1.38a3.72,3.72,0,0,0-.88.08Z"/><path class="cls-15" d="M720.87,251.41v5.43c0,1.63.62,2.45,1.71,2.45s1.74-.78,1.74-2.45v-5.43h2.13v5.29c0,2.92-1.47,4.3-3.94,4.3s-3.78-1.31-3.78-4.33v-5.26Z"/><path class="cls-15" d="M736.28,257.23c0-1.13-.09-2.5-.09-3.88h0c-.29,1.21-.69,2.55-1,3.66L734,260.69h-1.66l-1-3.65c-.31-1.11-.63-2.45-.86-3.69h0c0,1.28-.09,2.74-.16,3.91l-.17,3.59h-2l.61-9.44h2.84l.92,3.15c.3,1.09.59,2.27.8,3.37h0c.27-1.09.59-2.33.9-3.39l1-3.13H738l.51,9.44h-2.08Z"/><path class="cls-15" d="M740.14,251.53a17.73,17.73,0,0,1,2.88-.19,4.56,4.56,0,0,1,2.89.75,2.78,2.78,0,0,1,1,2.19,3,3,0,0,1-.87,2.24,4.37,4.37,0,0,1-3.07,1,5.16,5.16,0,0,1-.73,0v3.38h-2.11Zm2.11,4.29a3.39,3.39,0,0,0,.72.06c1.13,0,1.83-.58,1.83-1.55s-.6-1.38-1.67-1.38a3.86,3.86,0,0,0-.88.08Z"/><text class="cls-16" transform="translate(189.55 272.8)"><tspan class="cls-17">R</tspan><tspan class="cls-18" x="8.43" y="0">ADI</tspan><tspan class="cls-19" x="31.35" y="0">A</tspan><tspan class="cls-20" x="39.37" y="0">T</tspan><tspan x="46.63" y="0">OR </tspan><tspan class="cls-21" x="67.8" y="0">L</tspan><tspan class="cls-22" x="74.42" y="0">OOP A</tspan></text><text class="cls-16" transform="translate(885.19 272.8)"><tspan class="cls-17">R</tspan><tspan class="cls-18" x="8.43" y="0">ADI</tspan><tspan class="cls-19" x="31.35" y="0">A</tspan><tspan class="cls-20" x="39.37" y="0">T</tspan><tspan x="46.63" y="0">OR </tspan><tspan class="cls-21" x="67.8" y="0">L</tspan><tspan x="74.42" y="0">OOP B</tspan></text><path class="cls-15" d="M581.66,301.54v3.62h3.52v-3.62h2.13V311h-2.13v-4h-3.52v4h-2.14v-9.44Z"/><path class="cls-15" d="M594.78,307h-3.47v2.24h3.88V311h-6v-9.44H595v1.75h-3.68v2h3.47Z"/><path class="cls-15" d="M598.84,308.56l-.67,2.42H596l2.89-9.44h2.8l2.93,9.44h-2.3l-.73-2.42Zm2.39-1.6-.59-2c-.16-.56-.33-1.26-.47-1.82h0c-.14.56-.28,1.28-.43,1.82l-.56,2Z"/><path class="cls-15" d="M606.48,303.33H604v-1.79h7.25v1.79h-2.58V311h-2.14Z"/><path class="cls-15" d="M566.86,323.79h-3.48V326h3.88v1.75h-6v-9.44h5.83v1.75h-3.69v2h3.48Z"/><path class="cls-15" d="M573.69,327.78l-.86-1.71c-.35-.66-.57-1.15-.84-1.7h0c-.2.55-.44,1-.73,1.7l-.79,1.71H568l2.73-4.78-2.64-4.66h2.45l.83,1.72c.28.57.49,1,.72,1.57h0c.23-.6.41-1,.65-1.57l.8-1.72H576l-2.66,4.6,2.8,4.84Z"/><path class="cls-15" d="M583.7,327.51a6,6,0,0,1-2.42.41c-3.27,0-4.95-2-4.95-4.72a4.82,4.82,0,0,1,5.16-5,5.67,5.67,0,0,1,2.32.42l-.43,1.7a4.7,4.7,0,0,0-1.8-.35,3.1,3.1,0,0,0,0,6.2,5.59,5.59,0,0,0,1.78-.3Z"/><path class="cls-15" d="M587.24,318.34V322h3.51v-3.62h2.13v9.44h-2.13v-3.95h-3.51v3.95H585.1v-9.44Z"/><path class="cls-15" d="M596.94,325.35l-.67,2.43h-2.21l2.88-9.44h2.8l2.93,9.44h-2.3l-.73-2.43Zm2.4-1.59-.59-2c-.17-.56-.34-1.26-.48-1.82h0c-.14.56-.28,1.28-.43,1.82l-.56,2Z"/><path class="cls-15" d="M603.92,327.78v-9.44h2.5l2,3.46a27.3,27.3,0,0,1,1.54,3.23h0a34.94,34.94,0,0,1-.18-3.93v-2.76h2v9.44H609.5l-2-3.64a37,37,0,0,1-1.64-3.34l0,0c.06,1.24.09,2.57.09,4.11v2.85Z"/><path class="cls-15" d="M621.47,327.34a10.33,10.33,0,0,1-3.15.54,5.28,5.28,0,0,1-3.84-1.28,4.56,4.56,0,0,1-1.33-3.43c0-3.14,2.3-4.93,5.39-4.93a6.57,6.57,0,0,1,2.62.46l-.45,1.71a5.23,5.23,0,0,0-2.19-.41,3.08,3.08,0,0,0-.16,6.15,2.74,2.74,0,0,0,1-.14v-2H618v-1.67h3.51Z"/><path class="cls-15" d="M628.75,323.79h-3.47V326h3.88v1.75h-6v-9.44H629v1.75h-3.68v2h3.47Z"/><path class="cls-23" d="M474.19,293.42a18.19,18.19,0,1,0-17.55,13.45h27.89V293.42Z"/><path class="cls-23" d="M715.81,293.42a18.19,18.19,0,1,1,17.55,13.45H705.47V293.42Z"/></g><g id="Layer_4" data-name="Layer 4"><line class="cls-24" x1="660.66" y1="345.64" x2="696.7" y2="345.64"/><polygon class="cls-25" points="691.08 353.04 694.23 345.64 691.08 338.23 708.64 345.64 691.08 353.04"/><line class="cls-26" x1="328.56" y1="263.21" x2="364.6" y2="263.21"/><polygon class="cls-27" points="358.98 270.62 362.13 263.21 358.98 255.81 376.54 263.21 358.98 270.62"/><line class="cls-15" x1="527.86" y1="345.64" x2="479.88" y2="345.64"/><line class="cls-24" x1="527.86" y1="345.64" x2="491.82" y2="345.64"/><polygon class="cls-25" points="497.44 338.23 494.29 345.64 497.44 353.04 479.88 345.64 497.44 338.23"/><line class="cls-15" x1="860.41" y1="263.37" x2="812.43" y2="263.37"/><line class="cls-26" x1="860.41" y1="263.37" x2="824.37" y2="263.37"/><polygon class="cls-27" points="829.99 255.96 826.84 263.37 829.99 270.77 812.43 263.37 829.99 255.96"/></g></svg>